<?xml version="1.0" encoding="UTF-8" standalone="no"?>
<svg
   xmlns:dc="http://purl.org/dc/elements/1.1/"
   xmlns:cc="http://creativecommons.org/ns#"
   xmlns:rdf="http://www.w3.org/1999/02/22-rdf-syntax-ns#"
   xmlns:svg="http://www.w3.org/2000/svg"
   xmlns="http://www.w3.org/2000/svg"
   height="100"
   width="309"
   version="1.1"
   viewBox="0 0 309 99.999999"
   data-name="Layer 1"
   id="Layer_1">
  <metadata
     id="metadata33">
    <rdf:RDF>
      <cc:Work
         rdf:about="">
        <dc:format>image/svg+xml</dc:format>
        <dc:type
           rdf:resource="http://purl.org/dc/dcmitype/StillImage" />
        <dc:title></dc:title>
      </cc:Work>
    </rdf:RDF>
  </metadata>
  <defs
     id="defs4">
    <style
       id="style2">.cls-1{fill:#f2f2f2;}.cls-2{fill:#e62fac;}.cls-3{fill:#222333;stroke:#019def;stroke-miterlimit:10;stroke-width:8px;}.cls-4{fill:#7d3ecf;}</style>
  </defs>
  <g
     transform="translate(110.98335,-7.2538103)"
     id="g849">
    <path
       class="cls-1"
       d="m 20.97,99.729998 -2.83,-4.75 H 9.22 l 1.56,-2.68 h 5.79 l -4.21,-7.07 -8.57,14.5 H 0 l 10.86,-18.08 a 1.85,1.85 0 0 1 1.61,-1.07 1.81,1.81 0 0 1 1.59,1.07 l 10.89,18.08 z"
       id="path6"
       style="fill:#222333;fill-opacity:1" />
    <path
       class="cls-1"
       d="m 34.75,99.729998 a 1.7,1.7 0 0 1 -1.87,-1.69 2,2 0 0 1 0.67,-1.4 l 12.55,-12.65 h -13 v -3.15 h 16.54 a 1.71,1.71 0 0 1 1.87,1.69 2,2 0 0 1 -0.68,1.41 l -12.55,12.65 h 13.15 v 3.14 z"
       id="path8"
       style="fill:#222333;fill-opacity:1" />
    <path
       class="cls-1"
       d="m 62.09,99.729998 a 1.7,1.7 0 0 1 -1.87,-1.69 2,2 0 0 1 0.67,-1.4 l 12.55,-12.65 h -13 v -3.15 h 16.53 a 1.71,1.71 0 0 1 1.87,1.69 2,2 0 0 1 -0.68,1.41 l -12.54,12.65 h 13.15 v 3.14 z"
       id="path10"
       style="fill:#222333;fill-opacity:1" />
    <path
       class="cls-1"
       d="m 105.05,80.839998 h 3.22 v 10.55 c 0,5.85 -2.89,8.6 -10.21,8.6 -7.32,0 -10.19,-2.75 -10.19,-8.6 v -10.55 h 3.4 v 10.55 c 0,3.8 1.69,5.36 6.89,5.36 5.2,0 6.89,-1.56 6.89,-5.36 z"
       id="path12"
       style="fill:#222333;fill-opacity:1" />
    <path
       class="cls-1"
       d="m 135.3,99.729998 -4.78,-5.24 h -7.07 v -2.91 h 7.87 c 2.37,0 3.61,-1.36 3.61,-3.8 0,-2.44 -1.35,-3.62 -3.61,-3.62 h -10.29 v 15.59 h -3.27 v -18.91 h 13.56 c 4.32,0 6.86,2.68 6.86,6.89 0,3.12 -1.45,5.33 -3.9,6.26 l 5.69,5.74 z"
       id="path14"
       style="fill:#222333;fill-opacity:1" />
    <path
       class="cls-1"
       d="m 148.22,99.729998 v -18.89 h 16.86 v 3.32 h -13.62 v 12.29 h 13.62 v 3.3 z m 5.69,-8.21 v -2.78 h 10.47 v 2.78 z"
       id="path16"
       style="fill:#222333;fill-opacity:1" />
  </g>
  <g
     transform="matrix(0.72450563,0,0,0.72450563,-0.12276037,55.102432)"
     id="g857">
    <path
       class="cls-2"
       d="m 34.22,36.649998 c -23.72,-19.11 -27.15,-50.82 -8.63,-72.7 -1.13,1 -2.24,2 -3.3,3 -21.81,21.88 -19.28,55.9 5.65,76 24.93,20.1 62.83,18.62 84.64,-3.26 1.06,-1.06 2,-2.16 3,-3.27 -22.21,18.93 -57.66,19.34 -81.36,0.23 z"
       id="path18"
       style="fill:#e62fac" />
    <circle
       class="cls-3"
       cx="91.650002"
       cy="-0.8500061"
       r="54.68"
       id="circle20"
       style="fill:#222333;stroke:#019def;stroke-width:8px;stroke-miterlimit:10" />
    <path
       class="cls-4"
       d="m 62.07,-70.600002 a 10.67,10.67 0 0 0 -11,2.5 l -10.69,10.49 -22,-9.64 -4.16,4.17 17.74,13.8 -9.74,9.57 -6.33,-2.13 -4.23,4.17 10.45,6.39 6.21,10.52 4.23,-4.16 -2,-6.32 9.67,-9.6 13.5,18 4.23,-4.16 -9.24,-22.13 10.68,-10.5 a 10.66,10.66 0 0 0 2.68,-10.97 z"
       id="path22"
       style="fill:#7d3ecf" />
    <path
       class="cls-4"
       d="m 36.27,-68.140002 a 3,3 0 0 0 -4.2,0 l -2.59,2.55 5.86,2.57 0.88,-0.92 a 3,3 0 0 0 0.05,-4.2 z"
       id="path24"
       style="fill:#7d3ecf" />
    <circle
       class="cls-4"
       cx="59.130001"
       cy="-45"
       r="3.5"
       id="circle26"
       style="fill:#7d3ecf" />
    <path
       class="cls-1"
       d="M 112.77,20.239998 105.54,8.0999976 H 82.73 l 4,-6.83 h 14.79 l -10.75,-17.9999996 -21.88,37 h -9.67 l 27.72,-46.16 c 1,-1.66 2.26,-2.72 4.12,-2.72 1.86,0 3,1.06 4,2.72 l 27.79,46.16 z"
       id="path28"
       style="fill:#f2f2f2" />
  </g>
</svg>
