<?xml version="1.0" encoding="UTF-8" standalone="no"?>
<!-- Created with Inkscape (http://www.inkscape.org/) -->

<svg
   width="309"
   height="100"
   viewBox="0 0 81.756249 26.458333"
   version="1.1"
   id="svg5"
   inkscape:version="1.1 (ce6663b3b7, 2021-05-25)"
   sodipodi:docname="about.svg"
   xmlns:inkscape="http://www.inkscape.org/namespaces/inkscape"
   xmlns:sodipodi="http://sodipodi.sourceforge.net/DTD/sodipodi-0.dtd"
   xmlns="http://www.w3.org/2000/svg"
   xmlns:svg="http://www.w3.org/2000/svg">
  <sodipodi:namedview
     id="namedview7"
     pagecolor="#ffffff"
     bordercolor="#666666"
     borderopacity="1.0"
     inkscape:pageshadow="2"
     inkscape:pageopacity="0.0"
     inkscape:pagecheckerboard="0"
     inkscape:document-units="mm"
     showgrid="false"
     inkscape:zoom="2.0097643"
     inkscape:cx="156.48601"
     inkscape:cy="85.084604"
     inkscape:window-width="1299"
     inkscape:window-height="713"
     inkscape:window-x="67"
     inkscape:window-y="27"
     inkscape:window-maximized="1"
     inkscape:current-layer="g150"
     units="px"
     width="309px" />
  <defs
     id="defs2">
    <style type="text/css">.cls-1{fill:#c4c4ce;}.cls-2{fill:#d12c00;}</style>
  </defs>
  <g
     inkscape:label="Layer 1"
     inkscape:groupmode="layer"
     id="layer1">
    <g
       id="g150"
       transform="matrix(0.37559434,0,0,0.37559434,98.954295,14.381207)">
      <path
         class="cls-1"
         d="m -256.03249,23.857883 c 3.52864,0.11089 5.80979,-0.22177 7.22363,-0.79206 a 3.1682575,3.1682575 0 0 1 0,-5.59197 c -2.42768,-1.86928 -9.79784,-7.5246201 -9.79784,-7.5246201 a 0.72869922,0.72869922 0 0 0 -0.0594,0.0713 q -0.53861,-0.3643501 -1.10494,-0.7247301 c 4.38012,-11.144355 20.3125,-18.573917 14.73241,-32.9023609 9.9008,0.883152 26.93018,5.207823 26.43118,12.035417 7.58006,1.9801639 9.20379,8.2612329 9.20379,8.2612329 7.19987,2.019763 18.69272,11.619581 2.34848,13.8611211 l -2.40788,2.45144 -0.4792,-2.44351 c -12.97006,-5.2791201 -19.00954,1.86927 -1.98016,4.2613 l 2.2257,-1.1881 -0.68118,2.23759 c 0,0 2.42372,0.56236 1.34255,2.28906 -2.16629,2.6653 -9.38596,-0.93464 -9.38596,-0.93464 0,0 5.59197,15.57991 -10.46317,12.13047 9.92852,-3.73458 0.90691,-9.46517 0.90691,-9.46517 -1.18809,6.27315 -6.03157,11.2592 -20.35209,7.25135 -6.57414,-1.38611 -14.76804,-3.80587 -7.70283,-3.28311 z m 43.75364,-27.6945251 c 0.30494,-3.393998 -5.78999,-1.215816 -7.58798,-0.740581 -1.09701,0.431677 7.24343,1.706902 7.58798,0.740581 z"
         id="path125"
         style="stroke-width:0.396033" />
      <path
         class="cls-2"
         d="m -260.80863,2.4523429 a 29.89647,29.89647 0 0 1 1.93263,-8.257264 33.112251,33.112251 0 0 1 3.67122,-6.9067999 c 0.41979,-0.605933 0.84751,-1.188097 1.06929,-1.453438 l 0.50692,-0.653455 c 0.12276,-0.170294 0.22573,-0.304943 0.3287,-0.423753 l 0.15446,-0.178218 c 0.16633,-0.198012 0.33662,-0.396029 0.4792,-0.605928 a 0.18613513,0.18613513 0 0 1 0.0356,-0.04752 c 0.0673,-0.09109 0.14257,-0.178215 0.22574,-0.277224 a 5.2117837,5.2117837 0 0 0 0.33663,-0.435634 l 0.0436,-0.0594 c 0.79207,-1.001962 1.42572,-1.912836 1.98016,-2.772226 a 19.235284,19.235284 0 0 0 1.51284,-2.772225 14.130429,14.130429 0 0 0 0.99801,-3.334591 23.872821,23.872821 0 0 0 0.35247,-3.742505 c 0.0277,-1.23166 -0.0356,-2.419756 -0.099,-3.405876 -0.0475,-0.657414 -0.10297,-1.243542 -0.15446,-1.758383 a 1.3227475,1.3227475 0 0 1 0.34851,-1.065327 0.91879471,0.91879471 0 0 1 0.94256,-0.261381 10.962172,10.962172 0 0 1 1.50096,0.598009 13.397769,13.397769 0 0 1 3.08113,2.09501 16.308606,16.308606 0 0 1 3.29499,4.154377 20.094674,20.094674 0 0 1 2.31283,6.732548 25.124283,25.124283 0 0 1 -0.12674,8.451327 28.676692,28.676692 0 0 1 -2.77222,7.9840069 29.377669,29.377669 0 0 1 -2.0356,3.334594 c -0.19802,0.293062 -0.74454,1.041561 -0.75246,1.04948 l -0.21386,0.293065 c -0.15445,0.205939 -0.26138,0.35642902 -0.37227,0.51484202 -0.11089,0.158415 -0.1901,0.261381 -0.28119,0.39603 v 0 c -1.03364,1.46136098 -1.7663,2.53460898 -2.37619,3.48112898 -0.66533,1.04552 -1.25146,2.05541 -1.79006,3.09301 a 18.950141,18.950141 0 0 0 -1.29107,3.04549 16.609591,16.609591 0 0 0 -0.67721,3.5642901 25.060918,25.060918 0 0 0 0,3.78607 c 0.095,1.30294 0.26534,2.49104 0.39603,3.36231 0.10297,0.59801 0.20198,1.14849 0.29306,1.62373 a 1.3821523,1.3821523 0 0 1 -0.26534,1.11681 0.96631858,0.96631858 0 0 1 -0.74454,0.37227 0.81978666,0.81978666 0 0 1 -0.19802,-0.0238 9.5285346,9.5285346 0 0 1 -1.42175,-0.44355 13.069063,13.069063 0 0 1 -3.16826,-1.79007 15.841288,15.841288 0 0 1 -3.56429,-3.75834 20.082793,20.082793 0 0 1 -2.82371,-6.33652 25.013394,25.013394 0 0 1 -0.66929,-8.2849901 z"
         id="path127"
         style="stroke-width:0.396033" />
      <path
         class="cls-2"
         d="m -243.43866,12.368993 a 12.67303,12.67303 0 0 1 1.38215,-2.6217301 c 0.14257,-0.20594 0.31286,-0.4396 0.39603,-0.54257 l 0.19802,-0.25742 c 0.0475,-0.0673 0.0871,-0.11484 0.12673,-0.16237 l 0.0515,-0.0634 c 0.0634,-0.0752 0.12673,-0.1505 0.17821,-0.22575 l 0.0317,-0.0396 0.0713,-0.0911 c 0.0436,-0.0554 0.0871,-0.10692 0.12277,-0.15841 a 0.15445256,0.15445256 0 0 1 0.0317,-0.0396 c 0.28118,-0.36831 0.52276,-0.7089 0.73662,-1.04157 a 7.5523341,7.5523341 0 0 0 0.57028,-1.04948 5.3741568,5.3741568 0 0 0 0.39603,-1.2673 9.2552722,9.2552722 0 0 0 0.1307,-1.4178 c 0,-0.43959 0,-0.85147 -0.0238,-1.12473 a 1.0851282,1.0851282 0 0 1 0.36831,-0.910876 0.74454051,0.74454051 0 0 1 0.84751,-0.0792 5.1484184,5.1484184 0 0 1 0.92671,0.673256 6.1583005,6.1583005 0 0 1 1.23563,1.58413 7.6553022,7.6553022 0 0 1 0.87126,2.5544 9.6275429,9.6275429 0 0 1 -0.0515,3.21182 10.886925,10.886925 0 0 1 -1.04552,3.0375701 11.576021,11.576021 0 0 1 -0.76038,1.25542 l -0.29307,0.39604 v 0 l -0.0752,0.099 -0.14258,0.20198 -0.095,0.13069 v 0 c -0.26138,0.39603 -0.60197,0.86335 -0.89108,1.32671 a 13.215595,13.215595 0 0 0 -0.67325,1.18809 6.8315554,6.8315554 0 0 0 -0.48712,1.15246 6.479087,6.479087 0 0 0 -0.25346,1.35046 9.5324953,9.5324953 0 0 0 0,1.42968 c 0.0198,0.32079 0.0594,0.66138 0.11485,1.03365 a 1.1207712,1.1207712 0 0 1 -0.30891,0.96236 0.76434211,0.76434211 0 0 1 -0.53464,0.22573 0.71681826,0.71681826 0 0 1 -0.32079,-0.0752 4.9068391,4.9068391 0 0 1 -0.86731,-0.53861 6.019689,6.019689 0 0 1 -1.34255,-1.42571 7.7305484,7.7305484 0 0 1 -1.06137,-2.40392 9.7701145,9.7701145 0 0 1 -0.24949,-3.16825 11.449291,11.449291 0 0 1 0.68909,-3.10886 z"
         id="path129"
         style="stroke-width:0.396033" />
      <path
         class="cls-1"
         d="m -183.71361,10.810069 c -1.02737,0 -1.89036,-0.606155 -1.89036,-1.3869526 V -10.476997 c 0,-0.791076 0.87327,-1.397221 1.89036,-1.397221 h 15.73928 c 0.92463,0 1.69516,0.575325 1.69516,1.25339 0,0.6780594 -0.77053,1.2431155 -1.69516,1.2431155 h -14.03385 v 7.6025267 h 12.55444 c 0.92463,0 1.70544,0.5650424 1.70544,1.24311703 0,0.67805977 -0.78081,1.25338057 -1.70544,1.25338057 h -12.55444 v 7.6436233 h 14.03385 c 0.92463,0 1.69516,0.5753203 1.69516,1.2533803 0,0.6780586 -0.77053,1.2431166 -1.69516,1.2431166 z"
         id="path131"
         style="stroke-width:1.02736" />
      <path
         class="cls-1"
         d="m -152.72819,10.810069 c -0.92462,0 -1.69515,-0.565057 -1.69515,-1.2431156 0,-0.678059 0.77053,-1.2533949 1.69515,-1.2533949 h 11.36269 c 3.25676,0 5.39368,-1.7054208 5.39368,-3.8115337 0,-2.106098 -2.13692,-3.7498928 -5.39368,-3.7498928 h -5.38341 c -5.3012,0 -8.9381,-2.8149781 -8.9381,-6.3080311 0,-3.4930558 3.6369,-6.3183189 8.9381,-6.3183189 h 11.41406 c 0.91436,0 1.69517,0.575325 1.69517,1.25339 0,0.6780594 -0.78081,1.2431155 -1.69517,1.2431155 h -11.36269 c -3.25676,0 -5.39368,1.7157049 -5.39368,3.8218134 0,2.1060982 2.13692,3.7396147 5.39368,3.7396147 h 5.38341 c 5.29095,0 8.9381,2.8252565 8.9381,6.3183092 0,3.4930528 -3.64715,6.3080442 -8.9381,6.3080442 z"
         id="path133"
         style="stroke-width:1.02736" />
      <path
         class="cls-1"
         d="M -116.83193,-0.27522861 V 9.7416114 c 0,0.7191566 -0.83218,1.3252986 -1.7979,1.3252986 -0.96572,0 -1.7979,-0.606142 -1.7979,-1.3252986 V -10.805754 c 0,-0.719159 0.8219,-1.325308 1.7979,-1.325308 0.976,0 1.7979,0.606149 1.7979,1.325308 V -0.78890889 L -100.805,-11.740662 a 2.3321252,2.3321252 0 0 1 2.56843,0 1.1095574,1.1095574 0 0 1 0,1.8595372 l -13.84893,9.33877767 13.84893,9.34904353 a 1.0992837,1.0992837 0 0 1 0,1.8492716 2.311578,2.311578 0 0 1 -2.56843,0 z"
         id="path135"
         style="stroke-width:1.02736" />
      <path
         class="cls-1"
         d="m -67.292263,1.5740294 h -11.753081 c -0.924622,0 -1.705436,-0.5650573 -1.705436,-1.243117 0,-0.67805981 0.780814,-1.28420075 1.705436,-1.28420075 h 11.804458 V -3.8402003 c 0,-3.4622297 -3.554693,-5.9998306 -7.921006,-5.9998306 -4.366312,0 -7.910727,2.5376009 -7.910727,5.9998306 V 9.7416114 c 0,0.7191566 -0.832176,1.3252986 -1.797896,1.3252986 -0.965735,0 -1.797896,-0.606142 -1.797896,-1.3252986 V -3.8402003 c 0,-4.890271 5.136833,-8.4963337 11.506519,-8.4963337 6.369687,0 11.50652,3.6060627 11.50652,8.4963337 V 9.7416114 c 0,0.7191566 -0.821898,1.3252986 -1.797897,1.3252986 -0.975998,0 -1.787617,-0.606142 -1.787617,-1.3252986 z"
         id="path137"
         style="stroke-width:1.02736" />
    </g>
  </g>
</svg>
