<?xml version="1.0" encoding="UTF-8" standalone="no"?>
<svg
   xmlns:dc="http://purl.org/dc/elements/1.1/"
   xmlns:cc="http://creativecommons.org/ns#"
   xmlns:rdf="http://www.w3.org/1999/02/22-rdf-syntax-ns#"
   xmlns:svg="http://www.w3.org/2000/svg"
   xmlns="http://www.w3.org/2000/svg"
   id="Layer_1"
   data-name="Layer 1"
   viewBox="0 0 426.37164 96.589223"
   version="1.1"
   width="426.37164"
   height="96.589226">
  <metadata
     id="metadata34">
    <rdf:RDF>
      <cc:Work
         rdf:about="">
        <dc:format>image/svg+xml</dc:format>
        <dc:type
           rdf:resource="http://purl.org/dc/dcmitype/StillImage" />
        <dc:title></dc:title>
      </cc:Work>
    </rdf:RDF>
  </metadata>
  <defs
     id="defs4">
    <style
       id="style2">.cls-1{fill:#515052;fill-opacity:0;}.cls-2{fill:#06ffff;}</style>
  </defs>
  <g
     transform="matrix(0.77259608,0,0,0.77259608,1.8192312,1.8192313)"
     id="g973">
    <g
       transform="matrix(1.7161017,0,0,1.7161017,107.10511,-240.81049)"
       id="g4619"
       style="fill:#0a0119;fill-opacity:1">
      <g
         id="text840"
         style="fill:#0a0119;fill-opacity:1">
        <path
           style="fill:#0a0119;fill-opacity:1"
           transform="translate(-32.62,-28.92)"
           d="m 56.87,220.81 h -4.09 l -9.69,-11.47 a 8.41,8.41 0 0 1 -0.67,-0.88 h -0.07 v 12.35 h -2.93 v -25.08 h 2.93 v 11.79 h 0.07 a 7.9,7.9 0 0 1 0.67,-0.86 l 9.37,-10.93 h 3.66 l -10.76,12 z"
           class="cls-2"
           id="path875" />
        <path
           style="fill:#0a0119;fill-opacity:1"
           transform="translate(-32.62,-28.92)"
           d="m 84,195.73 -8.27,15.81 v 9.27 h -2.98 v -9.2 L 64.69,195.73 H 68 l 5.61,11.33 c 0.07,0.14 0.28,0.66 0.62,1.54 v 0 a 9.35,9.35 0 0 1 0.66,-1.54 l 5.88,-11.33 z"
           class="cls-2"
           id="path877" />
        <path
           style="fill:#0a0119;fill-opacity:1"
           transform="translate(-32.62,-28.92)"
           d="m 112.94,220.81 h -3.25 l -2.66,-7 H 96.4 l -2.51,7 h -3.27 l 9.62,-25.08 h 3.05 z m -6.87,-9.67 -3.94,-10.69 a 10.35,10.35 0 0 1 -0.38,-1.68 h -0.07 a 9.94,9.94 0 0 1 -0.4,1.68 l -3.91,10.69 z"
           class="cls-2"
           id="path879" />
        <path
           style="fill:#0a0119;fill-opacity:1"
           transform="translate(-32.62,-28.92)"
           d="m 144.3,220.81 h -3.6 l -12.91,-20 a 8.13,8.13 0 0 1 -0.81,-1.58 h -0.1 a 26.55,26.55 0 0 1 0.14,3.45 v 18.12 h -2.94 v -25.07 h 3.81 l 12.56,19.68 a 18.6,18.6 0 0 1 1,1.68 h 0.07 a 25.92,25.92 0 0 1 -0.18,-3.69 v -17.67 h 2.94 z"
           class="cls-2"
           id="path881" />
        <path
           style="fill:#0a0119;fill-opacity:1"
           transform="translate(-32.62,-28.92)"
           d="m 189.32,198.39 h -7.25 v 22.42 h -2.93 v -22.42 h -7.23 v -2.66 h 17.41 z"
           class="cls-2"
           id="path885" />
        <path
           style="fill:#0a0119;fill-opacity:1"
           transform="translate(-32.62,-28.92)"
           d="m 214,220.81 h -13.3 v -25.08 h 12.73 v 2.66 h -9.79 v 8.34 h 9.06 v 2.64 h -9.06 v 8.78 H 214 Z"
           class="cls-2"
           id="path887" />
      </g>
      <g
         id="g4600"
         style="fill:#0a0119;fill-opacity:1">
        <path
           style="fill:#0a0119;fill-opacity:1"
           transform="translate(-32.62,-28.92)"
           d="M 160.83,220.81 H 158 V 202.9 h 2.87 z"
           class="cls-2"
           id="path883" />
        <path
           style="fill:#0a0119;fill-opacity:1"
           transform="translate(-32.62,-28.92)"
           d="m 163.29,199.09 h -8 l 4,-6.9 z"
           class="cls-2"
           id="path892" />
      </g>
    </g>
    <g
       id="g60"
       transform="matrix(0.15266892,0,0,0.15381896,12.035803,9.0352535)"
       style="fill:#0a0119;fill-opacity:1">
      <g
         id="Layer_2_1_"
         style="fill:#0a0119;fill-opacity:1">
        <g
           id="Layer_1-2"
           style="fill:#0a0119;fill-opacity:1">
          <g
             id="g24"
             transform="scale(0.34828727,0.3599111)"
             style="fill:#0a0119;fill-opacity:1">
            <path
               id="path8"
               class="st0"
               d="m 1616.5,-18.2 c -6.9,0 -13.2,0 -20.1,0.6 h -179.2 v 37.7 c 63.5,0 126.4,0.6 189.9,0 15.7,0.6 32.7,-0.6 47.2,4.4 12.6,5.7 23.3,17.6 33.3,27 101.9,105.7 206.3,208.2 308.2,313.8 -335.2,338.3 -671,676.7 -1006.2,1015 C 653,1041.5 317.8,703.1 -18,364.2 82.6,263.5 181.4,162.3 282,61.7 c 18.2,-17 34.6,-40.9 62.9,-40.2 81.1,-1.3 162.9,0.6 244.6,-0.6 1.3,0 3.1,0 4.4,0 h 141.5 l 20.8,-39 H 471.9 v 0 h -89.3 c -23.3,0 -46.5,-1.3 -69.2,2.5 -14.4,3.1 -26.4,14.4 -36.5,23.8 -96.8,97.5 -193.1,195 -289.3,293.1 -20.1,20.8 -40.2,44 -63.5,61 v 2.5 C -22.4,414.5 27.2,467.9 78.8,519.5 382.6,825.8 686.3,1131.4 990.1,1437 1326.6,1098 1662.4,759.7 1998.2,420.7 2017.1,401.8 2034,383 2054.8,366 v -3.1 C 2035.9,346.5 2019,327.7 2001.3,310.1 1900.7,208.2 1799.5,107 1699.5,4.4 c -9.4,-8.8 -20.1,-19.5 -34,-21.4 -16.3,-0.6 -32.7,-1.2 -49,-1.2 z"
               style="fill:#0a0119;fill-opacity:1" />
            <path
               id="path10"
               class="st0"
               d="M 1417.1,51.6 V 90 H 1541 c 25.8,0.6 50.9,0 76.1,2.5 11.9,0.6 19.5,9.4 27.7,17 83,83.6 165.4,168.5 249,252.2 -284.9,288 -569.8,576.1 -854.7,864.1 -15.7,16.4 -32.1,32.1 -48.4,48.4 C 690.1,969.8 389.5,666 88.3,362.3 168.8,279.3 249.9,197.5 331,115.8 c 8.2,-8.8 17.6,-16.4 27.7,-22 12.6,-2.5 25.2,-3.8 37.7,-3.1 104.4,0.6 208.8,0.6 313.2,0.6 0,-10.7 2.5,-20.8 6.3,-30.2 v -0.6 c 0,-0.6 0,-0.6 1.3,-1.9 0.6,-1.9 1.9,-3.1 2.5,-5 H 481.3 v 0 c -34.6,0 -69.2,0 -103.8,0 h -0.6 c -18.2,0.6 -35.2,0 -50.3,11.9 -19.5,15.1 -35.2,34.6 -52.2,52.2 -81.1,80.5 -162.9,162.3 -242.7,244.6 319.5,323.2 638.9,645.9 959,968.5 303.1,-306.3 605.6,-611.9 908.7,-917.5 15.7,-16.4 34.6,-32.1 47.8,-50.9 -5,-7.5 -10.7,-15.1 -17.6,-21.4 -76.7,-77.4 -152.2,-154.7 -228.9,-231.4 -16.4,-16.4 -31.4,-34.6 -50.3,-48.4 -14.5,-10.1 -35.8,-9.4 -52.8,-9.4 z m -935.8,0.6 c 78,0 156,0 234.6,0 z m 232.1,14.5 c -2.5,6.9 -3.1,14.5 -3.8,22 v 0 c 0,-7.5 1.3,-14.5 3.8,-22 z"
               style="fill:#0a0119;fill-opacity:1" />
            <path
               id="path12"
               class="st0"
               d="m 439.8,124.6 c -8.8,0.6 -17.6,0.6 -26.4,0.6 h -5 c -11.3,0 -22.6,1.2 -34,3.8 -12.6,4.4 -23.3,15.1 -32.1,23.3 -69.1,69.7 -137,139.5 -205.6,209.4 283.6,288 569.1,574.2 852.8,862.2 29.6,-28.3 58.5,-58.5 87.4,-87.4 254.7,-258.5 510,-516.3 766,-774.2 -62.3,-66 -127.7,-129.5 -191.2,-194.9 -11.9,-13.2 -24.5,-24.5 -39,-34.6 -11.9,-6.9 -27.7,-6.9 -41.5,-6.9 H 1417.1 V 151 h -0.8 v 36 c 36.9,0 73.5,-0.1 110.5,-0.6 15.6,0.6 33.7,-1.2 45.7,9.3 15.6,13.4 30.7,27.3 45.1,42.4 43.3,43.6 89.6,85.5 131.1,130.2 -12,16.3 -28.9,30.8 -43.9,45.4 C 1465.5,646.3 1228.1,880.5 988.2,1112.5 752.6,882.3 516.9,652 281.3,421.8 263.9,404.4 244,388.1 229,368.9 c 10.8,-15.7 27.1,-29.1 40.3,-42.4 38.5,-37.8 78.1,-76.2 116.6,-114 8.4,-8.7 18,-16.9 29.5,-22.7 11.4,-2.9 22.8,-4.1 34.3,-3.5 92,0.6 183.4,0.6 275.3,0.6 v -0.6 h 32.5 c -19.2,-10 -35.2,-32.3 -44.3,-61.8 z"
               style="fill:#0a0119;fill-opacity:1" />
            <path
               id="path26"
               class="st0"
               d="m 1352.1,215.3 c -0.6,-65.4 -1.9,-133.3 -1.9,-195 v -39 H 838.3 L 827.6,2.7 c -1.9,4.4 -6.9,13.8 -11.3,23.3 -3.1,6.9 -6.9,13.8 -8.2,17 -5.7,10.7 -10.1,20.8 -13.8,30.2 -12.6,35.2 5.7,74.2 40.9,86.8 6.9,2.5 14.5,3.8 22.6,3.8 h 4.4 c -9.4,22 -5.7,47.2 10.1,65.4 12.6,16.4 32.1,25.8 52.8,26.4 1.9,0 3.1,0 5,0 l -0.6,1.3 c -16.4,32.7 -3.1,71.1 31.4,90.6 10.7,6.3 22.6,9.4 35.2,9.4 1.9,0 3.1,0 5,0 l -5.7,10.7 c -26.4,50.3 -53.5,100.6 -80.5,151.6 -13.2,22.6 -11.9,51.6 4.4,73 13.2,17.6 34.6,28.3 56.6,28.3 23.9,0 46.5,-13.2 57.9,-34.6 18.2,-33.3 36.5,-66.7 50.3,-94.3 8.8,-17 17,-32.1 23.3,-43.4 15.1,-28.9 28.9,-54.1 40.9,-78 19.5,-37.7 37.1,-70.4 54.7,-101.9 2.5,-4.4 4.4,-4.4 5,-4.4 h 1.9 c 5.7,0.6 10.7,5 11.3,11.3 2.5,12.6 3.8,25.2 4.4,37.7 0,3.1 0,6.9 0,10.1 0,11.9 0,25.2 1.3,38.4 3.1,37.7 33.3,67.3 71.7,69.2 1.9,0 3.1,0 4.4,0 13.2,0.6 26.4,-4.4 36.5,-13.8 10.1,-10.1 15.1,-23.9 14.5,-38.4 -0.6,-52.4 -1.2,-109 -1.9,-163.1 z m -50.9,176.1 c -18.9,-0.6 -34,-15.1 -34.6,-34 -1.3,-15.1 -1.3,-30.2 -1.3,-45.9 0,-15.1 -1.9,-30.2 -5,-45.3 -4.4,-21.4 -21.4,-37.7 -42.8,-41.5 -19.5,-3.8 -39,5.7 -47.8,23.3 -29.6,51.6 -56,105 -96.2,180.5 -16.4,30.2 -44,84.3 -73,137.1 -11.3,20.8 -37.7,16.4 -49.1,1.9 -7.5,-8.8 -7.5,-22 -1.3,-31.4 36.5,-67.9 72.3,-136.5 108.2,-204.4 8.8,-16.4 17,-32.1 25.8,-48.4 7.5,-14.5 4.4,-28.3 -8.8,-35.8 -13.2,-7.5 -25.8,-3.8 -34,11.3 -8.2,14.5 -15.7,29.6 -23.9,44 -8.2,14.5 -22.6,17.6 -37.1,8.8 -16.4,-9.4 -22.6,-24.5 -15.7,-39 13.2,-26.4 27.7,-52.2 40.9,-78.6 6.9,-11.9 2.5,-27 -9.4,-33.3 -3.1,-1.9 -6.9,-3.1 -10.7,-3.1 -8.8,-0.6 -17,3.8 -20.8,11.3 -5.7,10.1 -10.7,20.8 -16.4,30.8 -10.7,18.2 -30.8,19.5 -45.3,2.5 -6.9,-7.5 -8.2,-18.2 -3.1,-27 10.7,-20.1 21.4,-40.2 32.1,-60.4 7.5,-14.5 4.4,-28.3 -8.2,-35.8 -12.6,-7.5 -26.4,-3.1 -34.6,11.9 -3.8,6.3 -6.9,13.2 -10.7,19.5 -5.7,11.3 -19.5,16.4 -31.4,10.1 -0.6,0 -1.3,-0.6 -1.3,-0.6 -12.6,-6.3 -18.9,-20.8 -14.5,-34 3.8,-9.4 8.2,-18.2 12.6,-27 3.8,-7.5 15.7,-32.1 19.5,-39.6 h 449 c 0,113.8 3.1,244 3.8,357.8 -1.1,11.8 -5.5,14.3 -14.9,14.3 z"
               style="fill:#0a0119;fill-opacity:1" />
            <path
               id="path30"
               class="st0"
               d="M 926,385.7 C 803.4,397.9 719,498.9 737.6,612.3 756.4,725.8 870,808 992.6,795.9 c 122.6,-12.2 207,-113.2 188.4,-226.6 -3,-22.8 -10.5,-45.1 -21.7,-65.5 l -28.4,48.3 c 4.5,14.6 6.7,30.5 6.7,45.6 0,90 -80,160.3 -177.9,156.3 -97.9,-4 -177.9,-80.8 -177.9,-170.8 0,-68 45.6,-126.6 115.1,-147.8 z"
               style="fill:#0a0119;fill-opacity:1" />
          </g>
        </g>
      </g>
    </g>
  </g>
</svg>
