<?xml version="1.0" encoding="UTF-8" standalone="no"?>
<!-- Created with Inkscape (http://www.inkscape.org/) -->

<svg
   width="150"
   height="100"
   version="1.1"
   viewBox="0 0 39.687498 26.458332"
   id="svg51"
   sodipodi:docname="about_2.svg"
   inkscape:version="1.1 (ce6663b3b7, 2021-05-25)"
   xmlns:inkscape="http://www.inkscape.org/namespaces/inkscape"
   xmlns:sodipodi="http://sodipodi.sourceforge.net/DTD/sodipodi-0.dtd"
   xmlns="http://www.w3.org/2000/svg"
   xmlns:svg="http://www.w3.org/2000/svg"
   xmlns:rdf="http://www.w3.org/1999/02/22-rdf-syntax-ns#"
   xmlns:cc="http://creativecommons.org/ns#"
   xmlns:dc="http://purl.org/dc/elements/1.1/">
  <sodipodi:namedview
     id="namedview53"
     pagecolor="#ffffff"
     bordercolor="#666666"
     borderopacity="1.0"
     inkscape:pageshadow="2"
     inkscape:pageopacity="0.0"
     inkscape:pagecheckerboard="0"
     inkscape:document-units="mm"
     showgrid="false"
     units="px"
     inkscape:zoom="4.4062066"
     inkscape:cx="70.695732"
     inkscape:cy="51.972144"
     inkscape:window-width="1299"
     inkscape:window-height="713"
     inkscape:window-x="67"
     inkscape:window-y="27"
     inkscape:window-maximized="1"
     inkscape:current-layer="svg51"
     height="80px" />
  <defs
     id="defs4">
    <style
       id="style2">.cls-1{fill:none;}.cls-2{fill:#ed1c24;}.cls-3{fill:#fff;}.cls-4{font-size:24.1px;fill:#333;font-family:Nunito-Regular, Nunito;letter-spacing:0.2em;}</style>
  </defs>
  <metadata
     id="metadata6">
    <rdf:RDF>
      <cc:Work
         rdf:about="">
        <dc:format>image/svg+xml</dc:format>
        <dc:type
           rdf:resource="http://purl.org/dc/dcmitype/StillImage" />
      </cc:Work>
    </rdf:RDF>
  </metadata>
  <g
     transform="matrix(0.98474956,0,0,0.98474956,-4.858067,-8.5953113)"
     id="g49">
    <g
       transform="matrix(0.26458,0,0,0.26458,4.9893,5.656)"
       data-name="Layer 2"
       id="g47">
      <g
         data-name="Layer 1"
         id="g45">
        <g
           data-name="Layer 2"
           id="g43">
          <g
             id="Logo">
            <rect
               class="cls-1"
               width="128"
               height="128"
               fill="none"
               id="rect8"
               x="0"
               y="0" />
            <g
               fill="#ed1c24"
               id="g24">
              <path
                 class="cls-2"
                 d="m 18,79.29 a 15.37,15.37 0 0 1 -1.65,7.39 11.36,11.36 0 0 1 -4.51,4.65 14.35,14.35 0 0 1 -6.55,1.75 V 88.45 A 8.41,8.41 0 0 0 10.94,86 q 2.24,-2.24 2.24,-6.87 v -29 H 18 Z"
                 id="path10" />
              <path
                 class="cls-2"
                 d="m 24.43,76.94 a 5.83,5.83 0 0 1 6.12,-6.08 5.73,5.73 0 0 1 6,6 v 5.57 h -2.5 v -2.17 a 4.11,4.11 0 0 1 -4,2.52 5.55,5.55 0 0 1 -5.62,-5.84 z m 9.41,-0.12 a 3.33,3.33 0 1 0 -3.32,3.41 3.21,3.21 0 0 0 3.32,-3.41 z"
                 id="path12" />
              <path
                 class="cls-2"
                 d="m 42.94,76.82 a 5.82,5.82 0 0 1 6.1,-6 5.68,5.68 0 0 1 5.86,4.58 h -2.75 a 3.41,3.41 0 1 0 0,2.84 H 54.9 A 5.68,5.68 0 0 1 49,82.78 5.82,5.82 0 0 1 42.94,76.82 Z"
                 id="path14" />
              <path
                 class="cls-2"
                 d="m 61.66,66.21 h 2.73 v 9.9 l 4.49,-5 h 3.48 l -5.36,5.6 5.53,5.77 H 69 l -4.62,-5.11 v 5.11 h -2.72 z"
                 id="path16" />
              <path
                 class="cls-2"
                 d="m 78.59,76.91 a 5.73,5.73 0 0 1 6,-6 5.83,5.83 0 0 1 6.12,6.08 5.56,5.56 0 0 1 -5.64,5.84 4.3,4.3 0 0 1 -3.78,-2 v 6.49 h -2.7 z m 9.4,-0.09 A 3.34,3.34 0 1 0 84.64,80.23 3.23,3.23 0 0 0 88,76.82 Z"
                 id="path18" />
              <path
                 class="cls-2"
                 d="m 96.65,76.82 a 6.1,6.1 0 1 1 6.09,6 5.81,5.81 0 0 1 -6.09,-6 z m 9.41,0 a 3.33,3.33 0 1 0 -3.32,3.41 3.21,3.21 0 0 0 3.32,-3.41 z"
                 id="path20" />
              <path
                 class="cls-2"
                 d="m 115.21,78.13 v -11 h 2.72 v 4 h 5.85 v 2.48 h -5.85 v 4.49 c 0,1.51 0.78,2.1 1.9,2.1 1.12,0 1.91,-0.57 1.91,-2.1 v -0.3 h 2.72 v 0.3 c 0,3.14 -1.88,4.65 -4.63,4.65 -2.75,0 -4.62,-1.48 -4.62,-4.62 z"
                 id="path22" />
            </g>
            <g
               fill="#ffffff"
               id="g32">
              <circle
                 class="cls-3"
                 cx="42.720001"
                 cy="46.09"
                 r="15.19"
                 id="circle26" />
              <circle
                 class="cls-3"
                 cx="95.459999"
                 cy="46.09"
                 r="15.19"
                 id="circle28" />
              <circle
                 class="cls-3"
                 cx="68.68"
                 cy="46.09"
                 r="15.19"
                 id="circle30" />
            </g>
            <g
               fill="#333333"
               font-family="Nunito-Regular, Nunito"
               font-size="24.092px"
               letter-spacing="0.2em"
               stroke-width="0.99968"
               id="g40">
              <text
                 class="cls-4"
                 transform="scale(0.99101,1.0091)"
                 x="36.158607"
                 y="54.880756"
                 id="text34">7</text>
              <text
                 class="cls-4"
                 transform="scale(0.99101,1.0091)"
                 x="63.159412"
                 y="54.880756"
                 id="text36">7</text>
              <text
                 class="cls-4"
                 transform="scale(0.99101,1.0091)"
                 x="90.252037"
                 y="54.880756"
                 id="text38">7</text>
            </g>
          </g>
        </g>
      </g>
    </g>
  </g>
  <rect
     style="fill:none;stroke-width:0.264583"
     id="rect959"
     width="26.37541"
     height="16.647051"
     x="0.046752974"
     y="5.2469335" />
</svg>
