<?xml version="1.0" encoding="UTF-8" standalone="no"?>
<svg
   xmlns:dc="http://purl.org/dc/elements/1.1/"
   xmlns:cc="http://creativecommons.org/ns#"
   xmlns:rdf="http://www.w3.org/1999/02/22-rdf-syntax-ns#"
   xmlns:svg="http://www.w3.org/2000/svg"
   xmlns="http://www.w3.org/2000/svg"
   id="svg4775"
   version="1.1"
   viewBox="0 0 309 100"
   height="100mm"
   width="309mm">
  <defs
     id="defs4769" />
  <metadata
     id="metadata4772">
    <rdf:RDF>
      <cc:Work
         rdf:about="">
        <dc:format>image/svg+xml</dc:format>
        <dc:type
           rdf:resource="http://purl.org/dc/dcmitype/StillImage" />
        <dc:title></dc:title>
      </cc:Work>
    </rdf:RDF>
  </metadata>
  <g
     transform="translate(0,-197)"
     id="layer1">
    <g
       transform="matrix(0.35741304,0,0,0.35741304,96.336351,199.26131)"
       id="g4921">
      <g
         transform="matrix(0.26458333,0,0,0.26458333,-240.34107,15.986988)"
         id="g155">
        <rect
           id="rect6"
           transform="rotate(-45,582.60812,461.37582)"
           height="43.209999"
           width="246.71001"
           y="387.79999"
           x="586.09003"
           class="cls-1" />
        <rect
           id="rect8"
           transform="rotate(-45,220.62865,697.05262)"
           height="43.209999"
           width="244.83"
           y="623.47998"
           x="225.06"
           class="cls-1" />
        <rect
           id="rect10"
           transform="rotate(-45.72,285.12264,396.01261)"
           height="247.67999"
           width="43.209999"
           y="221.75999"
           x="388.76999"
           class="cls-1" />
        <rect
           id="rect12"
           transform="rotate(-45,490.34162,427.34385)"
           height="43.209999"
           width="336.67001"
           y="353.76999"
           x="448.84"
           class="cls-1" />
        <rect
           id="rect14"
           transform="rotate(-45.72,554.27977,665.36741)"
           height="336.67001"
           width="43.209999"
           y="446.62"
           x="657.91998"
           class="cls-1" />
        <rect
           id="rect16"
           transform="rotate(-45.72,254.26867,491.39426)"
           height="336.67001"
           width="43.209999"
           y="272.64001"
           x="357.91"
           class="cls-1" />
        <rect
           id="rect18"
           transform="rotate(-45.72,521.74245,758.44705)"
           height="245.89999"
           width="43.209999"
           y="585.07001"
           x="625.38"
           class="cls-1" />
        <rect
           id="rect20"
           transform="rotate(-45,312.86808,731.1158)"
           height="43.209999"
           width="336.67001"
           y="657.54999"
           x="271.35999"
           class="cls-1" />
        <polygon
           id="polygon22"
           points="431.65,277.36 386.53,233.76 386.53,46.62 431.65,2.38 "
           class="cls-2" />
        <polygon
           id="polygon24"
           points="675.09,384.94 862.22,384.94 905.82,430.06 630.85,430.06 "
           class="cls-2" />
        <polygon
           id="polygon26"
           points="478.54,629.71 523.66,673.95 523.66,861.09 478.54,904.69 "
           class="cls-2" />
        <polygon
           id="polygon28"
           points="523.66,233.76 478.54,277.36 478.54,2.38 523.66,46.62 "
           class="cls-2" />
        <polygon
           id="polygon30"
           points="386.53,673.95 431.65,629.71 431.65,904.69 386.53,861.09 "
           class="cls-2" />
        <polygon
           id="polygon32"
           points="630.85,476.94 905.82,476.94 862.22,522.07 675.09,522.07 "
           class="cls-2" />
        <polygon
           id="polygon34"
           points="233.76,522.07 46.62,522.07 2.38,476.94 277.36,476.94 "
           class="cls-2" />
        <polygon
           id="polygon36"
           points="277.36,430.06 2.38,430.06 46.62,384.94 233.76,384.94 "
           class="cls-2" />
      </g>
      <rect
         style="fill:#db0000;stroke:#d80000;stroke-width:0.52916664px;stroke-miterlimit:10"
         class="cls-1"
         x="-157.64886"
         y="17.209095"
         width="65.275352"
         height="11.432646"
         transform="rotate(-45)"
         id="rect6-6" />
      <rect
         style="fill:#db0000;stroke:#d80000;stroke-width:0.52916664px;stroke-miterlimit:10"
         class="cls-1"
         x="-269.21237"
         y="-6.4198718"
         width="64.777939"
         height="11.432646"
         transform="rotate(-45)"
         id="rect8-7" />
      <rect
         style="fill:#db0000;stroke:#d80000;stroke-width:0.52916664px;stroke-miterlimit:10"
         class="cls-1"
         x="-174.16608"
         y="-79.84903"
         width="11.432646"
         height="65.531998"
         transform="rotate(-45.72)"
         id="rect10-5" />
      <rect
         style="fill:#db0000;stroke:#d80000;stroke-width:0.52916664px;stroke-miterlimit:10"
         class="cls-1"
         x="-180.44579"
         y="-6.4193835"
         width="89.077278"
         height="11.432646"
         transform="rotate(-45)"
         id="rect12-3" />
      <rect
         style="fill:#db0000;stroke:#d80000;stroke-width:0.52916664px;stroke-miterlimit:10"
         class="cls-1"
         x="-175.47098"
         y="9.1194601"
         width="11.432646"
         height="89.077278"
         transform="rotate(-45.72)"
         id="rect14-5" />
      <rect
         style="fill:#db0000;stroke:#d80000;stroke-width:0.52916664px;stroke-miterlimit:10"
         class="cls-1"
         x="-197.93477"
         y="-79.84874"
         width="11.432646"
         height="89.077278"
         transform="rotate(-45.72)"
         id="rect16-6" />
      <rect
         style="fill:#db0000;stroke:#d80000;stroke-width:0.52916664px;stroke-miterlimit:10"
         class="cls-1"
         x="-199.11366"
         y="32.154251"
         width="11.432646"
         height="65.061043"
         transform="rotate(-45.72)"
         id="rect18-2" />
      <rect
         style="fill:#db0000;stroke:#d80000;stroke-width:0.52916664px;stroke-miterlimit:10"
         class="cls-1"
         x="-270.48306"
         y="17.21175"
         width="89.077278"
         height="11.432646"
         transform="rotate(-45)"
         id="rect20-9" />
      <polygon
         style="fill:#bc0000;stroke:#ff0606;stroke-width:2px;stroke-miterlimit:10"
         class="cls-2"
         points="386.53,46.62 431.65,2.38 431.65,277.36 386.53,233.76 "
         id="polygon22-1"
         transform="matrix(0.26458333,0,0,0.26458333,-240.34053,15.987528)" />
      <polygon
         style="fill:#bc0000;stroke:#ff0606;stroke-width:2px;stroke-miterlimit:10"
         class="cls-2"
         points="905.82,430.06 630.85,430.06 675.09,384.94 862.22,384.94 "
         id="polygon24-2"
         transform="matrix(0.26458333,0,0,0.26458333,-240.34053,15.987528)" />
      <polygon
         style="fill:#bc0000;stroke:#ff0606;stroke-width:2px;stroke-miterlimit:10"
         class="cls-2"
         points="523.66,861.09 478.54,904.69 478.54,629.71 523.66,673.95 "
         id="polygon26-7"
         transform="matrix(0.26458333,0,0,0.26458333,-240.34053,15.987528)" />
      <polygon
         style="fill:#bc0000;stroke:#ff0606;stroke-width:2px;stroke-miterlimit:10"
         class="cls-2"
         points="478.54,2.38 523.66,46.62 523.66,233.76 478.54,277.36 "
         id="polygon28-0"
         transform="matrix(0.26458333,0,0,0.26458333,-240.34053,15.987528)" />
      <polygon
         style="fill:#bc0000;stroke:#ff0606;stroke-width:2px;stroke-miterlimit:10"
         class="cls-2"
         points="431.65,904.69 386.53,861.09 386.53,673.95 431.65,629.71 "
         id="polygon30-9"
         transform="matrix(0.26458333,0,0,0.26458333,-240.34053,15.987528)" />
      <polygon
         style="fill:#bc0000;stroke:#ff0606;stroke-width:2px;stroke-miterlimit:10"
         class="cls-2"
         points="862.22,522.07 675.09,522.07 630.85,476.94 905.82,476.94 "
         id="polygon32-3"
         transform="matrix(0.26458333,0,0,0.26458333,-240.34053,15.987528)" />
      <polygon
         style="fill:#bc0000;stroke:#ff0606;stroke-width:2px;stroke-miterlimit:10"
         class="cls-2"
         points="2.38,476.94 277.36,476.94 233.76,522.07 46.62,522.07 "
         id="polygon34-6"
         transform="matrix(0.26458333,0,0,0.26458333,-240.34053,15.987528)" />
      <polygon
         style="fill:#bc0000;stroke:#ff0606;stroke-width:2px;stroke-miterlimit:10"
         class="cls-2"
         points="46.62,384.94 233.76,384.94 277.36,430.06 2.38,430.06 "
         id="polygon36-0"
         transform="matrix(0.26458333,0,0,0.26458333,-240.34053,15.987528)" />
    </g>
    <g
       transform="matrix(1.7657882,0,0,1.7657882,-293.76873,21.567706)"
       id="g4942">
      <path
         class="cls-2"
         d="m 227.27217,138.14109 v -3.07975 h 17.17675 c 2.57175,0 3.937,-1.49225 3.937,-3.65125 0,-2.38125 -1.397,-3.58775 -3.937,-3.58775 h -10.795 c -4.15925,0 -6.731,-2.75961 -6.731,-6.44261 0,-3.6195 2.38125,-6.31825 6.7945,-6.31825 h 16.4756 v 3.07975 h -16.4756 c -2.286,0 -3.58775,1.397 -3.58775,3.43959 0,2.09285 1.36525,3.3946 3.556,3.3946 h 10.76325 c 4.47675,0 6.858,2.2225 6.858,6.57225 0,3.77825 -2.25425,6.61458 -6.858,6.61458 z"
         id="path38"
         style="isolation:isolate;fill:#db0000;stroke:#d80000;stroke-width:0.52916664px;stroke-miterlimit:10" />
      <path
         class="cls-2"
         d="m 287.30877,115.06148 h 3.01625 v 12.88786 c 0,7.14375 -3.46075,10.50925 -12.25285,10.50925 -8.73125,0 -12.22375,-3.3655 -12.22375,-10.50925 v -12.88786 h 3.175 v 12.88786 c 0,5.207 2.3495,7.46125 9.144,7.46125 6.7945,0 9.14135,-2.25425 9.14135,-7.46125 z"
         id="path40"
         style="isolation:isolate;fill:#db0000;stroke:#d80000;stroke-width:0.52916664px;stroke-miterlimit:10" />
      <polygon
         class="cls-5"
         points="548.18,745.13 534.74,745.13 498.24,806.84 504.55,817.77 "
         id="polygon44"
         style="isolation:isolate;fill:#db0000"
         transform="matrix(0.26458333,0,0,0.26458333,188.75148,-82.087496)" />
      <polygon
         class="cls-6"
         points="548.18,745.13 534.74,745.13 498.24,806.84 504.55,817.77 "
         id="polygon46"
         style="isolation:isolate;fill:none;stroke:#d80000;stroke-width:2px;stroke-miterlimit:10"
         transform="matrix(0.26458333,0,0,0.26458333,188.75148,-82.087496)" />
      <path
         class="cls-2"
         d="m 318.16713,132.88117 -10.53571,-17.81969 h -3.77825 l 13.43025,22.41286 c 0.34925,0.60325 1.53987,2.54529 1.53987,2.54529 0,0 1.12448,-1.94204 1.50813,-2.54529 l 0.24871,-0.4154 z"
         id="path48"
         style="isolation:isolate;fill:#db0000;stroke:#d80000;stroke-width:0.52916664px;stroke-miterlimit:10" />
    </g>
  </g>
</svg>
