<svg id="Layer_1" data-name="Layer 1" xmlns="http://www.w3.org/2000/svg" viewBox="0 0 768 431"><defs><style>.cls-1{fill:#0c0c0c;}.cls-2{opacity:0.6;}.cls-3{fill:#141414;}</style></defs><rect class="cls-1" width="768" height="431"/><g class="cls-2"><rect class="cls-3" x="33.62" y="96.82" width="11.09" height="36.18"/><rect class="cls-3" x="57.24" y="96.82" width="11.09" height="51.32"/><rect class="cls-3" x="80.03" y="96.82" width="11.09" height="36.18"/><rect class="cls-3" x="57.56" y="117.07" width="9.63" height="57.5" transform="translate(-83.45 208.19) rotate(-90)"/><rect class="cls-3" x="248.56" y="52.9" width="11.09" height="36.18"/><rect class="cls-3" x="272.18" y="37.76" width="11.09" height="51.32"/><rect class="cls-3" x="294.97" y="52.9" width="11.09" height="36.18"/><rect class="cls-3" x="272.5" y="11.33" width="9.63" height="57.5" transform="translate(317.39 -237.24) rotate(90)"/><rect class="cls-3" x="33.91" y="52.9" width="11.09" height="36.18"/><rect class="cls-3" x="57.52" y="37.76" width="11.09" height="51.32"/><rect class="cls-3" x="80.32" y="52.9" width="11.09" height="36.18"/><rect class="cls-3" x="57.84" y="11.33" width="9.63" height="57.5" transform="translate(102.73 -22.58) rotate(90)"/><rect class="cls-3" x="248.28" y="97.33" width="11.09" height="36.18"/><rect class="cls-3" x="271.9" y="97.33" width="11.09" height="51.32"/><rect class="cls-3" x="294.69" y="97.33" width="11.09" height="36.18"/><rect class="cls-3" x="272.21" y="117.59" width="9.63" height="57.5" transform="translate(130.69 423.37) rotate(-90)"/><rect class="cls-3" x="105.46" y="52.9" width="11.09" height="36.18"/><rect class="cls-3" x="129.08" y="37.76" width="11.09" height="51.32"/><rect class="cls-3" x="151.87" y="52.9" width="11.09" height="36.18"/><rect class="cls-3" x="129.39" y="11.33" width="9.63" height="57.5" transform="translate(174.28 -94.13) rotate(90)"/><rect class="cls-3" x="176.72" y="97.33" width="11.09" height="36.18"/><rect class="cls-3" x="200.34" y="97.33" width="11.09" height="51.32"/><rect class="cls-3" x="223.14" y="97.33" width="11.09" height="36.18"/><rect class="cls-3" x="200.66" y="117.59" width="9.63" height="57.5" transform="translate(59.13 351.82) rotate(-90)"/><rect class="cls-3" x="105.17" y="96.09" width="11.09" height="36.18"/><rect class="cls-3" x="128.79" y="96.09" width="11.09" height="51.32"/><rect class="cls-3" x="151.58" y="96.09" width="11.09" height="36.18"/><rect class="cls-3" x="129.11" y="116.34" width="9.63" height="57.5" transform="translate(-11.17 279.02) rotate(-90)"/><rect class="cls-3" x="177.01" y="52.9" width="11.09" height="36.18"/><rect class="cls-3" x="200.63" y="37.76" width="11.09" height="51.32"/><rect class="cls-3" x="223.42" y="52.9" width="11.09" height="36.18"/><rect class="cls-3" x="200.95" y="11.33" width="9.63" height="57.5" transform="translate(245.84 -165.69) rotate(90)"/><rect class="cls-3" x="33.62" y="223.12" width="11.09" height="36.18"/><rect class="cls-3" x="57.24" y="223.12" width="11.09" height="51.32"/><rect class="cls-3" x="80.03" y="223.12" width="11.09" height="36.18"/><rect class="cls-3" x="57.56" y="243.38" width="9.63" height="57.5" transform="translate(-209.76 334.5) rotate(-90)"/><rect class="cls-3" x="248.56" y="179.21" width="11.09" height="36.18"/><rect class="cls-3" x="272.18" y="164.06" width="11.09" height="51.32"/><rect class="cls-3" x="294.97" y="179.21" width="11.09" height="36.18"/><rect class="cls-3" x="272.5" y="137.63" width="9.63" height="57.5" transform="translate(443.7 -110.93) rotate(90)"/><rect class="cls-3" x="33.91" y="179.21" width="11.09" height="36.18"/><rect class="cls-3" x="57.52" y="164.06" width="11.09" height="51.32"/><rect class="cls-3" x="80.32" y="179.21" width="11.09" height="36.18"/><rect class="cls-3" x="57.84" y="137.63" width="9.63" height="57.5" transform="translate(229.04 103.72) rotate(90)"/><rect class="cls-3" x="248.28" y="223.64" width="11.09" height="36.18"/><rect class="cls-3" x="271.9" y="223.64" width="11.09" height="51.32"/><rect class="cls-3" x="294.69" y="223.64" width="11.09" height="36.18"/><rect class="cls-3" x="272.21" y="243.9" width="9.63" height="57.5" transform="translate(4.38 549.67) rotate(-90)"/><rect class="cls-3" x="105.46" y="179.21" width="11.09" height="36.18"/><rect class="cls-3" x="129.08" y="164.06" width="11.09" height="51.32"/><rect class="cls-3" x="151.87" y="179.21" width="11.09" height="36.18"/><rect class="cls-3" x="129.39" y="137.63" width="9.63" height="57.5" transform="translate(300.59 32.17) rotate(90)"/><rect class="cls-3" x="176.72" y="223.64" width="11.09" height="36.18"/><rect class="cls-3" x="200.34" y="223.64" width="11.09" height="51.32"/><rect class="cls-3" x="223.14" y="223.64" width="11.09" height="36.18"/><rect class="cls-3" x="200.66" y="243.9" width="9.63" height="57.5" transform="translate(-67.17 478.12) rotate(-90)"/><rect class="cls-3" x="105.17" y="222.39" width="11.09" height="36.18"/><rect class="cls-3" x="128.79" y="222.39" width="11.09" height="51.32"/><rect class="cls-3" x="151.58" y="222.39" width="11.09" height="36.18"/><rect class="cls-3" x="129.11" y="242.65" width="9.63" height="57.5" transform="translate(-137.48 405.32) rotate(-90)"/><rect class="cls-3" x="177.01" y="179.21" width="11.09" height="36.18"/><rect class="cls-3" x="200.63" y="164.06" width="11.09" height="51.32"/><rect class="cls-3" x="223.42" y="179.21" width="11.09" height="36.18"/><rect class="cls-3" x="200.95" y="137.63" width="9.63" height="57.5" transform="translate(372.14 -39.38) rotate(90)"/><rect class="cls-3" x="34.8" y="348.29" width="11.09" height="36.18"/><rect class="cls-3" x="58.42" y="348.29" width="11.09" height="51.32"/><rect class="cls-3" x="81.22" y="348.29" width="11.09" height="36.18"/><rect class="cls-3" x="58.74" y="368.54" width="9.63" height="57.5" transform="translate(-333.74 460.85) rotate(-90)"/><rect class="cls-3" x="249.75" y="304.37" width="11.09" height="36.18"/><rect class="cls-3" x="273.37" y="289.23" width="11.09" height="51.32"/><rect class="cls-3" x="296.16" y="304.37" width="11.09" height="36.18"/><rect class="cls-3" x="273.69" y="262.8" width="9.63" height="57.5" transform="translate(570.05 13.05) rotate(90)"/><rect class="cls-3" x="35.09" y="304.37" width="11.09" height="36.18"/><rect class="cls-3" x="58.71" y="289.23" width="11.09" height="51.32"/><rect class="cls-3" x="81.5" y="304.37" width="11.09" height="36.18"/><rect class="cls-3" x="59.03" y="262.8" width="9.63" height="57.5" transform="translate(355.39 227.71) rotate(90)"/><rect class="cls-3" x="249.46" y="348.81" width="11.09" height="36.18"/><rect class="cls-3" x="273.08" y="348.81" width="11.09" height="51.32"/><rect class="cls-3" x="295.87" y="348.81" width="11.09" height="36.18"/><rect class="cls-3" x="273.4" y="369.06" width="9.63" height="57.5" transform="translate(-119.6 676.03) rotate(-90)"/><rect class="cls-3" x="106.64" y="304.37" width="11.09" height="36.18"/><rect class="cls-3" x="130.26" y="289.23" width="11.09" height="51.32"/><rect class="cls-3" x="153.05" y="304.37" width="11.09" height="36.18"/><rect class="cls-3" x="130.58" y="262.8" width="9.63" height="57.5" transform="translate(426.94 156.15) rotate(90)"/><rect class="cls-3" x="177.91" y="348.81" width="11.09" height="36.18"/><rect class="cls-3" x="201.53" y="348.81" width="11.09" height="51.32"/><rect class="cls-3" x="224.32" y="348.81" width="11.09" height="36.18"/><rect class="cls-3" x="201.85" y="369.06" width="9.63" height="57.5" transform="translate(-191.15 604.47) rotate(-90)"/><rect class="cls-3" x="106.36" y="347.56" width="11.09" height="36.18"/><rect class="cls-3" x="129.98" y="347.56" width="11.09" height="51.32"/><rect class="cls-3" x="152.77" y="347.56" width="11.09" height="36.18"/><rect class="cls-3" x="130.29" y="367.81" width="9.63" height="57.5" transform="translate(-261.46 531.67) rotate(-90)"/><rect class="cls-3" x="178.2" y="304.37" width="11.09" height="36.18"/><rect class="cls-3" x="201.81" y="289.23" width="11.09" height="51.32"/><rect class="cls-3" x="224.61" y="304.37" width="11.09" height="36.18"/><rect class="cls-3" x="202.13" y="262.8" width="9.63" height="57.5" transform="translate(498.49 84.6) rotate(90)"/><rect class="cls-3" x="318.95" y="99.31" width="11.09" height="36.18"/><rect class="cls-3" x="342.57" y="99.31" width="11.09" height="51.32"/><rect class="cls-3" x="365.36" y="99.31" width="11.09" height="36.18"/><rect class="cls-3" x="342.89" y="119.57" width="9.63" height="57.5" transform="translate(199.38 496.02) rotate(-90)"/><rect class="cls-3" x="533.9" y="55.4" width="11.09" height="36.18"/><rect class="cls-3" x="557.51" y="40.26" width="11.09" height="51.32"/><rect class="cls-3" x="580.31" y="55.4" width="11.09" height="36.18"/><rect class="cls-3" x="557.83" y="13.82" width="9.63" height="57.5" transform="translate(605.22 -520.07) rotate(90)"/><rect class="cls-3" x="319.24" y="55.4" width="11.09" height="36.18"/><rect class="cls-3" x="342.86" y="40.26" width="11.09" height="51.32"/><rect class="cls-3" x="365.65" y="55.4" width="11.09" height="36.18"/><rect class="cls-3" x="343.17" y="13.82" width="9.63" height="57.5" transform="translate(390.56 -305.42) rotate(90)"/><rect class="cls-3" x="533.61" y="99.83" width="11.09" height="36.18"/><rect class="cls-3" x="557.23" y="99.83" width="11.09" height="51.32"/><rect class="cls-3" x="580.02" y="99.83" width="11.09" height="36.18"/><rect class="cls-3" x="557.55" y="120.09" width="9.63" height="57.5" transform="translate(413.52 711.2) rotate(-90)"/><rect class="cls-3" x="390.79" y="55.4" width="11.09" height="36.18"/><rect class="cls-3" x="414.41" y="40.26" width="11.09" height="51.32"/><rect class="cls-3" x="437.2" y="55.4" width="11.09" height="36.18"/><rect class="cls-3" x="414.73" y="13.82" width="9.63" height="57.5" transform="translate(462.12 -376.97) rotate(90)"/><rect class="cls-3" x="462.06" y="99.83" width="11.09" height="36.18"/><rect class="cls-3" x="485.68" y="99.83" width="11.09" height="51.32"/><rect class="cls-3" x="508.47" y="99.83" width="11.09" height="36.18"/><rect class="cls-3" x="485.99" y="120.09" width="9.63" height="57.5" transform="translate(341.97 639.65) rotate(-90)"/><rect class="cls-3" x="390.5" y="98.58" width="11.09" height="36.18"/><rect class="cls-3" x="414.12" y="98.58" width="11.09" height="51.32"/><rect class="cls-3" x="436.92" y="98.58" width="11.09" height="36.18"/><rect class="cls-3" x="414.44" y="118.84" width="9.63" height="57.5" transform="translate(271.67 566.85) rotate(-90)"/><rect class="cls-3" x="462.34" y="55.4" width="11.09" height="36.18"/><rect class="cls-3" x="485.96" y="40.26" width="11.09" height="51.32"/><rect class="cls-3" x="508.75" y="55.4" width="11.09" height="36.18"/><rect class="cls-3" x="486.28" y="13.82" width="9.63" height="57.5" transform="translate(533.67 -448.52) rotate(90)"/><rect class="cls-3" x="603.78" y="55.78" width="11.09" height="36.18"/><rect class="cls-3" x="627.4" y="40.64" width="11.09" height="51.32"/><rect class="cls-3" x="650.19" y="55.78" width="11.09" height="36.18"/><rect class="cls-3" x="627.72" y="14.2" width="9.63" height="57.5" transform="translate(675.49 -589.58) rotate(90)"/><rect class="cls-3" x="603.5" y="100.21" width="11.09" height="36.18"/><rect class="cls-3" x="627.12" y="100.21" width="11.09" height="51.32"/><rect class="cls-3" x="649.91" y="100.21" width="11.09" height="36.18"/><rect class="cls-3" x="627.43" y="120.47" width="9.63" height="57.5" transform="translate(483.03 781.47) rotate(-90)"/><rect class="cls-3" x="317.58" y="222.61" width="11.09" height="36.18"/><rect class="cls-3" x="341.2" y="222.61" width="11.09" height="51.32"/><rect class="cls-3" x="363.99" y="222.61" width="11.09" height="36.18"/><rect class="cls-3" x="341.52" y="242.86" width="9.63" height="57.5" transform="translate(74.72 617.95) rotate(-90)"/><rect class="cls-3" x="532.53" y="178.69" width="11.09" height="36.18"/><rect class="cls-3" x="556.15" y="163.55" width="11.09" height="51.32"/><rect class="cls-3" x="578.94" y="178.69" width="11.09" height="36.18"/><rect class="cls-3" x="556.46" y="137.12" width="9.63" height="57.5" transform="translate(727.14 -395.41) rotate(90)"/><rect class="cls-3" x="317.87" y="178.69" width="11.09" height="36.18"/><rect class="cls-3" x="341.49" y="163.55" width="11.09" height="51.32"/><rect class="cls-3" x="364.28" y="178.69" width="11.09" height="36.18"/><rect class="cls-3" x="341.81" y="137.12" width="9.63" height="57.5" transform="translate(512.49 -180.75) rotate(90)"/><rect class="cls-3" x="532.24" y="223.12" width="11.09" height="36.18"/><rect class="cls-3" x="555.86" y="223.12" width="11.09" height="51.32"/><rect class="cls-3" x="578.65" y="223.12" width="11.09" height="36.18"/><rect class="cls-3" x="556.18" y="243.38" width="9.63" height="57.5" transform="translate(288.86 833.12) rotate(-90)"/><rect class="cls-3" x="389.42" y="178.69" width="11.09" height="36.18"/><rect class="cls-3" x="413.04" y="163.55" width="11.09" height="51.32"/><rect class="cls-3" x="435.83" y="178.69" width="11.09" height="36.18"/><rect class="cls-3" x="413.36" y="137.12" width="9.63" height="57.5" transform="translate(584.04 -252.31) rotate(90)"/><rect class="cls-3" x="460.69" y="223.12" width="11.09" height="36.18"/><rect class="cls-3" x="484.31" y="223.12" width="11.09" height="51.32"/><rect class="cls-3" x="507.1" y="223.12" width="11.09" height="36.18"/><rect class="cls-3" x="484.62" y="243.38" width="9.63" height="57.5" transform="translate(217.31 761.57) rotate(-90)"/><rect class="cls-3" x="389.14" y="221.88" width="11.09" height="36.18"/><rect class="cls-3" x="412.75" y="221.88" width="11.09" height="51.32"/><rect class="cls-3" x="435.55" y="221.88" width="11.09" height="36.18"/><rect class="cls-3" x="413.07" y="242.13" width="9.63" height="57.5" transform="translate(147 688.77) rotate(-90)"/><rect class="cls-3" x="460.97" y="178.69" width="11.09" height="36.18"/><rect class="cls-3" x="484.59" y="163.55" width="11.09" height="51.32"/><rect class="cls-3" x="507.38" y="178.69" width="11.09" height="36.18"/><rect class="cls-3" x="484.91" y="137.12" width="9.63" height="57.5" transform="translate(655.59 -323.86) rotate(90)"/><rect class="cls-3" x="317.58" y="348.29" width="11.09" height="36.18"/><rect class="cls-3" x="341.2" y="348.29" width="11.09" height="51.32"/><rect class="cls-3" x="363.99" y="348.29" width="11.09" height="36.18"/><rect class="cls-3" x="341.52" y="368.54" width="9.63" height="57.5" transform="translate(-50.96 743.63) rotate(-90)"/><rect class="cls-3" x="532.53" y="304.37" width="11.09" height="36.18"/><rect class="cls-3" x="556.15" y="289.23" width="11.09" height="51.32"/><rect class="cls-3" x="578.94" y="304.37" width="11.09" height="36.18"/><rect class="cls-3" x="556.46" y="262.8" width="9.63" height="57.5" transform="translate(852.83 -269.73) rotate(90)"/><rect class="cls-3" x="317.87" y="304.37" width="11.09" height="36.18"/><rect class="cls-3" x="341.49" y="289.23" width="11.09" height="51.32"/><rect class="cls-3" x="364.28" y="304.37" width="11.09" height="36.18"/><rect class="cls-3" x="341.81" y="262.8" width="9.63" height="57.5" transform="translate(638.17 -55.07) rotate(90)"/><rect class="cls-3" x="532.24" y="348.81" width="11.09" height="36.18"/><rect class="cls-3" x="555.86" y="348.81" width="11.09" height="51.32"/><rect class="cls-3" x="578.65" y="348.81" width="11.09" height="36.18"/><rect class="cls-3" x="556.18" y="369.06" width="9.63" height="57.5" transform="translate(163.18 958.8) rotate(-90)"/><rect class="cls-3" x="389.42" y="304.37" width="11.09" height="36.18"/><rect class="cls-3" x="413.04" y="289.23" width="11.09" height="51.32"/><rect class="cls-3" x="435.83" y="304.37" width="11.09" height="36.18"/><rect class="cls-3" x="413.36" y="262.8" width="9.63" height="57.5" transform="translate(709.72 -126.62) rotate(90)"/><rect class="cls-3" x="460.69" y="348.81" width="11.09" height="36.18"/><rect class="cls-3" x="484.31" y="348.81" width="11.09" height="51.32"/><rect class="cls-3" x="507.1" y="348.81" width="11.09" height="36.18"/><rect class="cls-3" x="484.62" y="369.06" width="9.63" height="57.5" transform="translate(91.63 887.25) rotate(-90)"/><rect class="cls-3" x="389.14" y="347.56" width="11.09" height="36.18"/><rect class="cls-3" x="412.75" y="347.56" width="11.09" height="51.32"/><rect class="cls-3" x="435.55" y="347.56" width="11.09" height="36.18"/><rect class="cls-3" x="413.07" y="367.81" width="9.63" height="57.5" transform="translate(21.32 814.45) rotate(-90)"/><rect class="cls-3" x="460.97" y="304.37" width="11.09" height="36.18"/><rect class="cls-3" x="484.59" y="289.23" width="11.09" height="51.32"/><rect class="cls-3" x="507.38" y="304.37" width="11.09" height="36.18"/><rect class="cls-3" x="484.91" y="262.8" width="9.63" height="57.5" transform="translate(781.27 -198.18) rotate(90)"/><rect class="cls-3" x="603.64" y="179.93" width="11.09" height="36.18"/><rect class="cls-3" x="627.26" y="164.78" width="11.09" height="51.32"/><rect class="cls-3" x="650.05" y="179.93" width="11.09" height="36.18"/><rect class="cls-3" x="627.58" y="138.35" width="9.63" height="57.5" transform="translate(799.49 -465.29) rotate(90)"/><rect class="cls-3" x="603.35" y="224.36" width="11.09" height="36.18"/><rect class="cls-3" x="626.97" y="224.36" width="11.09" height="51.32"/><rect class="cls-3" x="649.76" y="224.36" width="11.09" height="36.18"/><rect class="cls-3" x="627.29" y="244.61" width="9.63" height="57.5" transform="translate(358.74 905.47) rotate(-90)"/><rect class="cls-3" x="601.26" y="304.07" width="11.09" height="36.18"/><rect class="cls-3" x="624.88" y="288.93" width="11.09" height="51.32"/><rect class="cls-3" x="647.67" y="304.07" width="11.09" height="36.18"/><rect class="cls-3" x="625.2" y="262.49" width="9.63" height="57.5" transform="translate(921.26 -338.77) rotate(90)"/><rect class="cls-3" x="600.98" y="348.5" width="11.09" height="36.18"/><rect class="cls-3" x="624.6" y="348.5" width="11.09" height="51.32"/><rect class="cls-3" x="647.39" y="348.5" width="11.09" height="36.18"/><rect class="cls-3" x="624.91" y="368.76" width="9.63" height="57.5" transform="translate(232.22 1027.24) rotate(-90)"/><rect class="cls-3" x="673.88" y="55.4" width="11.09" height="36.18"/><rect class="cls-3" x="697.5" y="40.26" width="11.09" height="51.32"/><rect class="cls-3" x="720.29" y="55.4" width="11.09" height="36.18"/><rect class="cls-3" x="697.81" y="13.82" width="9.63" height="57.5" transform="translate(745.2 -660.06) rotate(90)"/><rect class="cls-3" x="673.59" y="99.83" width="11.09" height="36.18"/><rect class="cls-3" x="697.21" y="99.83" width="11.09" height="51.32"/><rect class="cls-3" x="720" y="99.83" width="11.09" height="36.18"/><rect class="cls-3" x="697.53" y="120.09" width="9.63" height="57.5" transform="translate(553.5 851.18) rotate(-90)"/><rect class="cls-3" x="673.74" y="179.55" width="11.09" height="36.18"/><rect class="cls-3" x="697.35" y="164.4" width="11.09" height="51.32"/><rect class="cls-3" x="720.15" y="179.55" width="11.09" height="36.18"/><rect class="cls-3" x="697.67" y="137.97" width="9.63" height="57.5" transform="translate(869.21 -535.77) rotate(90)"/><rect class="cls-3" x="673.45" y="223.98" width="11.09" height="36.18"/><rect class="cls-3" x="697.07" y="223.98" width="11.09" height="51.32"/><rect class="cls-3" x="719.86" y="223.98" width="11.09" height="36.18"/><rect class="cls-3" x="697.39" y="244.23" width="9.63" height="57.5" transform="translate(429.21 975.18) rotate(-90)"/><rect class="cls-3" x="671.36" y="303.69" width="11.09" height="36.18"/><rect class="cls-3" x="694.98" y="288.55" width="11.09" height="51.32"/><rect class="cls-3" x="717.77" y="303.69" width="11.09" height="36.18"/><rect class="cls-3" x="695.3" y="262.11" width="9.63" height="57.5" transform="translate(990.97 -409.24) rotate(90)"/><rect class="cls-3" x="671.07" y="348.12" width="11.09" height="36.18"/><rect class="cls-3" x="694.69" y="348.12" width="11.09" height="51.32"/><rect class="cls-3" x="717.48" y="348.12" width="11.09" height="36.18"/><rect class="cls-3" x="695.01" y="368.38" width="9.63" height="57.5" transform="translate(302.69 1096.95) rotate(-90)"/></g></svg>