<?xml version="1.0" encoding="UTF-8" standalone="no"?>
<svg
   xmlns:dc="http://purl.org/dc/elements/1.1/"
   xmlns:cc="http://creativecommons.org/ns#"
   xmlns:rdf="http://www.w3.org/1999/02/22-rdf-syntax-ns#"
   xmlns:svg="http://www.w3.org/2000/svg"
   xmlns="http://www.w3.org/2000/svg"
   xmlns:sodipodi="http://sodipodi.sourceforge.net/DTD/sodipodi-0.dtd"
   xmlns:inkscape="http://www.inkscape.org/namespaces/inkscape"
   width="26"
   height="26"
   viewBox="0 0 26 26"
   version="1.1"
   id="svg11"
   sodipodi:docname="ic-address-book.svg"
   inkscape:version="0.92.4 (5da689c313, 2019-01-14)">
  <metadata
     id="metadata15">
    <rdf:RDF>
      <cc:Work
         rdf:about="">
        <dc:format>image/svg+xml</dc:format>
        <dc:type
           rdf:resource="http://purl.org/dc/dcmitype/StillImage" />
      </cc:Work>
    </rdf:RDF>
  </metadata>
  <sodipodi:namedview
     pagecolor="#ffffff"
     bordercolor="#666666"
     borderopacity="1"
     objecttolerance="10"
     gridtolerance="10"
     guidetolerance="10"
     inkscape:pageopacity="0"
     inkscape:pageshadow="2"
     inkscape:window-width="640"
     inkscape:window-height="480"
     id="namedview13"
     showgrid="false"
     inkscape:zoom="14.784244"
     inkscape:cx="24.133125"
     inkscape:cy="13.337172"
     inkscape:current-layer="ic_address_book" />
  <defs
     id="defs4">
    <style
       type="text/css"
       id="style2">
            .cls-1{opacity:.5}.cls-2{fill:#fff}.cls-3{fill:none}
        </style>
  </defs>
  <g
     id="ic_address_book"
     class="cls-1">
    <path
       id="Rectangle_4393"
       d="M0 0h26v26H0z"
       class="cls-3"
       data-name="Rectangle 4393" />
    <g
       id="g77"
       transform="matrix(0.89407822,0,0,0.89407827,2.24,2.3302781)">
      <path
         id="path2"
         d="M 0,0 H 24 V 24 H 0 Z M 0,0 H 24 V 24 H 0 Z M 0,0 H 24 V 24 H 0 Z"
         inkscape:connector-curvature="0"
         style="fill:none" />
      <path
         style="fill:#ffffff"
         id="path4"
         d="M 20,0 H 4 V 2 H 20 Z M 4,24 H 20 V 22 H 4 Z M 20,4 H 4 C 2.9,4 2,4.9 2,6 v 12 c 0,1.1 0.9,2 2,2 h 16 c 1.1,0 2,-0.9 2,-2 V 6 C 22,4.9 21.1,4 20,4 Z m -8,2.75 c 1.24,0 2.25,1.01 2.25,2.25 0,1.24 -1.01,2.25 -2.25,2.25 C 10.76,11.25 9.75,10.24 9.75,9 9.75,7.76 10.76,6.75 12,6.75 Z M 17,17 H 7 v -1.5 c 0,-1.67 3.33,-2.5 5,-2.5 1.67,0 5,0.83 5,2.5 z"
         inkscape:connector-curvature="0" />
    </g>
  </g>
</svg>
