<?xml version="1.0" encoding="UTF-8" standalone="no"?>
<svg
   xmlns:dc="http://purl.org/dc/elements/1.1/"
   xmlns:cc="http://creativecommons.org/ns#"
   xmlns:rdf="http://www.w3.org/1999/02/22-rdf-syntax-ns#"
   xmlns:svg="http://www.w3.org/2000/svg"
   xmlns="http://www.w3.org/2000/svg"
   id="svg4"
   viewBox="0 0 752 752"
   version="1.1"
   height="752pt"
   width="752pt">
  <metadata
     id="metadata10">
    <rdf:RDF>
      <cc:Work
         rdf:about="">
        <dc:format>image/svg+xml</dc:format>
        <dc:type
           rdf:resource="http://purl.org/dc/dcmitype/StillImage" />
        <dc:title></dc:title>
      </cc:Work>
    </rdf:RDF>
  </metadata>
  <defs
     id="defs8" />
  <path
     style="fill:#ffffff;fill-rule:evenodd;stroke-width:1.47481811"
     id="path2"
     d="m 329.34144,353.58187 -67.57706,67.21882 c -15.2207,-22.57542 -24.09907,-49.72978 -24.09907,-78.95222 0,-29.74021 9.20177,-57.3476 24.92421,-80.15249 -80.47023,40.86318 -133.18445,110.25453 -133.18445,110.25453 0,0 36.04436,47.45429 94.02142,86.97895 l -37.35008,37.15798 C 108.85794,441.34775 64.749996,371.95051 64.749996,371.95051 c 0,0 120.251364,-189.18763 311.245784,-189.18763 38.08354,0 73.3486,7.52116 105.41218,19.56448 L 357.52924,325.54938 c 0.76825,-3.03374 1.17837,-6.21691 1.17837,-9.49189 0,-21.3737 -17.42107,-38.698 -38.90868,-38.698 -21.4817,0 -38.90425,17.32284 -38.90425,38.698 0,21.37517 17.42107,38.70243 38.90425,38.70243 3.29256,0 6.49256,-0.40795 9.54247,-1.17215 z M 163.7814,560.11146 c -7.4919,10.08952 -6.66011,24.41995 2.54167,33.56603 l 9.06306,9.01502 c 10.16636,10.11246 26.5597,10.08378 36.69057,0.006 l 60.64028,-60.31881 c 31.49279,11.58336 66.04657,18.77755 103.28723,18.77755 190.99441,0 311.24578,-189.20235 311.24578,-189.20235 0,0 -43.46173,-68.37937 -119.6229,-122.92342 l 54.49907,-54.21017 c 10.1143,-10.06069 10.13175,-26.42478 0,-36.50194 l -9.06307,-9.01502 c -9.22484,-9.17594 -23.58447,-9.99758 -33.73308,-2.53966 z M 530.30259,286.15564 c 56.96561,39.28931 92.29425,85.79487 92.29425,85.79487 0,0 -105.88094,139.38579 -246.59515,139.38579 -21.91496,0 -42.98705,-3.37853 -62.94416,-9.08976 l 24.97153,-24.83914 c 13.3665,4.12544 27.57116,6.34327 42.29944,6.34327 78.78297,0 142.65283,-63.52981 142.65283,-141.90249 0,-14.6458 -2.22965,-28.77382 -6.37708,-42.0708 z" />
</svg>
