<?xml version="1.0" encoding="UTF-8" standalone="no"?>
<!-- Generator: Adobe Illustrator 23.1.1, SVG Export Plug-In . SVG Version: 6.00 Build 0)  -->

<svg
   xmlns:dc="http://purl.org/dc/elements/1.1/"
   xmlns:cc="http://creativecommons.org/ns#"
   xmlns:rdf="http://www.w3.org/1999/02/22-rdf-syntax-ns#"
   xmlns:svg="http://www.w3.org/2000/svg"
   xmlns="http://www.w3.org/2000/svg"
   xmlns:sodipodi="http://sodipodi.sourceforge.net/DTD/sodipodi-0.dtd"
   xmlns:inkscape="http://www.inkscape.org/namespaces/inkscape"
   version="1.1"
   id="ic-transaction-staked"
   x="0px"
   y="0px"
   viewBox="0 0 24 24"
   style="enable-background:new 0 0 24 24;"
   xml:space="preserve"
   sodipodi:docname="ic-check-cold-staking-enabled.svg"
   inkscape:version="0.92.4 (5da689c313, 2019-01-14)"><metadata
   id="metadata33"><rdf:RDF><cc:Work
       rdf:about=""><dc:format>image/svg+xml</dc:format><dc:type
         rdf:resource="http://purl.org/dc/dcmitype/StillImage" /></cc:Work></rdf:RDF></metadata><defs
   id="defs31" /><sodipodi:namedview
   pagecolor="#ffffff"
   bordercolor="#666666"
   borderopacity="1"
   objecttolerance="10"
   gridtolerance="10"
   guidetolerance="10"
   inkscape:pageopacity="0"
   inkscape:pageshadow="2"
   inkscape:window-width="640"
   inkscape:window-height="480"
   id="namedview29"
   showgrid="false"
   inkscape:zoom="13.126041"
   inkscape:cx="41.114741"
   inkscape:cy="10.002556"
   inkscape:current-layer="ic-transaction-staked" />
<style
   type="text/css"
   id="style2">
	.st0{fill:#FFFFFF;}
	.st1{fill:none;}
	.st2{fill:#FFFFFF;}
</style>
	<g
   id="g6">
	<path
   class="st0"
   d="M18.3,13L18.3,13L18.3,13z"
   id="path4" />
</g>
	<path
   class="st1"
   d="M10.2,5.8l-0.6-1C9.5,4.5,9.2,4.2,8.9,4.1c-0.1,0-0.3-0.1-0.4-0.1c-0.2,0-0.4,0-0.5,0.1C7.3,4.5,7,5.2,7.3,5.8  H10.2z"
   id="path8" />
	<path
   class="st1"
   d="M16.9,4.9c-0.1-0.3-0.4-0.6-0.7-0.7C16,4.1,15.6,4,15.3,4.1c-0.3,0.1-0.6,0.3-0.8,0.6l-0.6,1h2.9  C17,5.5,17,5.2,16.9,4.9z"
   id="path10" />
	<rect
   x="5.9"
   y="10.1"
   class="st1"
   width="12.3"
   height="9.6"
   id="rect12" />
	<rect
   x="3.6"
   y="7.1"
   class="st1"
   width="17"
   height="1.6"
   id="rect14" />
	<g
   id="g24">
	<path
   class="st1"
   d="M10.2,5.8l-0.6-1C9.5,4.5,9.2,4.2,8.9,4.1c-0.1,0-0.3-0.1-0.4-0.1c-0.2,0-0.4,0-0.5,0.1C7.3,4.5,7,5.2,7.3,5.8   H10.2z"
   id="path16" />
		<path
   class="st1"
   d="M16.9,4.9c-0.1-0.3-0.4-0.6-0.7-0.7C16,4.1,15.6,4,15.3,4.1c-0.3,0.1-0.6,0.3-0.8,0.6l-0.6,1h2.9   C17,5.5,17,5.2,16.9,4.9z"
   id="path18" />
		<rect
   x="5.9"
   y="10.1"
   class="st1"
   width="12.3"
   height="9.6"
   id="rect20" />
		
</g>
	<path
   style="fill:#ffffff"
   d="M 11.882812 1.1992188 C 11.682813 1.1992188 11.582031 1.3 11.582031 1.5 L 11.582031 2.6992188 L 10.783203 1.9003906 C 10.683203 1.8003906 10.483203 1.8003906 10.283203 1.9003906 C 10.183203 2.0003906 10.183203 2.2007813 10.283203 2.3007812 L 11.482422 3.4003906 L 11.482422 4.5996094 L 10.382812 4 L 9.9824219 2.5 C 9.9824219 2.3 9.7820312 2.2007813 9.5820312 2.3007812 C 9.3820317 2.3007812 9.2828125 2.4992188 9.3828125 2.6992188 L 9.6835938 3.5996094 L 8.5820312 3 C 8.3820317 2.9 8.1835936 2.9996094 8.1835938 3.0996094 C 8.0835934 3.1996094 8.1832031 3.4 8.2832031 3.5 L 9.3828125 4.0996094 L 8.3828125 4.3007812 C 8.1828125 4.3007812 8.0835937 4.4992187 8.1835938 4.6992188 C 8.1835938 4.7992187 8.3824219 4.9003906 8.4824219 4.9003906 L 8.5820312 4.9003906 L 10.183594 4.5 L 11.283203 5.0996094 L 10.183594 5.6992188 L 8.5820312 5.3007812 C 8.3820317 5.3007812 8.1835936 5.4 8.1835938 5.5 C 8.1835938 5.7 8.2828125 5.8003906 8.3828125 5.9003906 L 9.3828125 6.0996094 L 8.2832031 6.6992188 C 8.0832031 6.7992187 8.0835937 6.9996094 8.1835938 7.0996094 C 8.2835937 7.1996094 8.3824219 7.3007814 8.4824219 7.3007812 L 8.6835938 7.3007812 L 9.6835938 6.6992188 L 9.3828125 7.6992188 C 9.3828125 7.8992188 9.4820313 7.9996094 9.5820312 8.0996094 L 9.6835938 8.0996094 C 9.7835937 8.0996094 9.9824219 8.0003906 9.9824219 7.9003906 L 10.382812 6.4003906 L 11.482422 5.8007812 L 11.482422 7 L 10.371094 8.3378906 L 10.900391 13 L 8.2792969 14.966797 L 8.28125 14.972656 L 7.4941406 15.53125 C 7.5017955 15.534259 7.5095463 15.53685 7.5175781 15.539062 L 7.1660156 16.390625 L 6.0390625 17.041016 L 6.0097656 15.789062 L 7.1074219 14.691406 C 7.1940219 14.641406 7.1808534 14.418635 7.1308594 14.332031 L 7.0820312 14.246094 C 6.982029 14.072892 6.7579743 14.086835 6.6347656 14.273438 L 5.8554688 14.722656 L 5.8242188 13.470703 L 5.7246094 13.296875 C 5.6746114 13.210275 5.5389465 13.173319 5.4023438 13.136719 C 5.4023438 13.136719 5.2776179 13.323673 5.2910156 13.546875 L 5.3222656 14.798828 L 4.6484375 14.033203 C 4.5484365 13.859995 4.3263285 13.873951 4.203125 14.060547 C 4.0299186 14.160547 4.0419234 14.382657 4.2285156 14.505859 L 5.375 15.691406 L 5.40625 16.945312 L 4.3359375 16.292969 L 3.8828125 14.707031 L 3.8339844 14.619141 C 3.7839864 14.532541 3.5963695 14.410936 3.5097656 14.460938 C 3.3365637 14.560942 3.3002653 14.697372 3.2636719 14.833984 L 3.5898438 15.798828 L 2.5214844 15.146484 C 2.3348846 15.023267 2.1616083 15.123184 2.125 15.259766 C 2.088397 15.396369 2.1016728 15.61965 2.2382812 15.65625 L 3.3066406 16.308594 L 2.3769531 16.5 C 2.203744 16.6 2.1674602 16.736442 2.1308594 16.873047 C 2.2308634 17.046251 2.4173264 17.169117 2.5039062 17.119141 L 4.0039062 16.714844 L 5.0722656 17.367188 L 4.0332031 17.96875 L 2.4804688 17.478516 C 2.3438671 17.441916 2.171366 17.543076 2.1347656 17.679688 C 2.0981636 17.816289 2.1981578 17.988124 2.3847656 18.111328 L 3.3417969 18.367188 L 2.3027344 18.96875 C 2.1295324 19.068756 2.091399 19.203741 2.1914062 19.376953 C 2.291412 19.550155 2.4283576 19.588277 2.6015625 19.488281 L 3.640625 18.886719 L 3.3476562 19.980469 C 3.3110633 20.117076 3.4110471 20.290857 3.5976562 20.414062 C 3.7342606 20.450662 3.9087102 20.349502 3.9453125 20.212891 L 4.296875 18.625 L 5.3359375 18.023438 L 5.3671875 19.277344 L 4.2675781 20.373047 C 4.0943757 20.473053 4.1083295 20.697109 4.2949219 20.820312 C 4.3949276 20.993514 4.6170313 20.979563 4.7402344 20.792969 L 5.3710938 20.083984 L 5.4003906 21.335938 C 5.4137876 21.559141 5.6008726 21.682838 5.6875 21.632812 C 5.8241029 21.669412 5.9478006 21.482335 5.984375 21.345703 L 5.953125 20.09375 L 6.6269531 20.859375 C 6.7269584 21.032578 6.9490628 21.018624 7.0722656 20.832031 C 7.1588666 20.782031 7.1457081 20.559261 7.0957031 20.472656 L 7.046875 20.384766 L 5.9003906 19.199219 L 5.8691406 17.947266 L 6.9394531 18.599609 L 7.3925781 20.185547 C 7.4925832 20.35875 7.6790454 20.481618 7.765625 20.431641 C 7.9388275 20.331635 7.9751169 20.195194 8.0117188 20.058594 L 7.6855469 19.09375 L 8.7558594 19.746094 C 8.9424628 19.8693 9.1157316 19.769385 9.1523438 19.632812 C 9.1889435 19.496211 9.2257713 19.358087 9.1757812 19.271484 L 9.0742188 19.099609 L 8.0546875 18.533203 L 9.0703125 18.292969 C 9.2435145 18.192963 9.2817594 18.056527 9.3183594 17.919922 L 9.2675781 17.833984 C 9.2175781 17.747404 9.0319104 17.623836 8.9453125 17.673828 L 7.4453125 18.076172 L 6.375 17.423828 L 7.4160156 16.824219 L 8.796875 17.060547 L 9.3828125 16.646484 C 9.3840515 16.642362 9.3854922 16.638875 9.3867188 16.634766 L 11.900391 14.75 L 14.40625 16.630859 L 14.408203 16.628906 L 14.439453 16.654297 L 14.675781 16.832031 C 14.676792 16.837806 14.678637 16.847625 14.679688 16.853516 L 15.085938 17.189453 L 16.337891 17.023438 L 17.464844 17.673828 L 16.394531 18.326172 L 14.896484 17.923828 C 14.809884 17.873828 14.622269 17.995437 14.572266 18.082031 L 14.523438 18.169922 C 14.423431 18.343125 14.546333 18.529572 14.769531 18.542969 L 15.548828 18.992188 L 14.478516 19.644531 L 14.378906 19.818359 C 14.328906 19.904959 14.365744 20.041131 14.402344 20.177734 C 14.402344 20.177734 14.625898 20.191566 14.8125 20.068359 L 15.880859 19.416016 L 15.554688 20.382812 C 15.454681 20.556016 15.577584 20.742462 15.800781 20.755859 C 15.973984 20.855865 16.160437 20.731019 16.173828 20.507812 L 16.626953 18.923828 L 17.697266 18.269531 L 17.667969 19.523438 L 16.521484 20.708984 L 16.470703 20.794922 C 16.420703 20.881522 16.407541 21.104296 16.494141 21.154297 C 16.667343 21.254303 16.802852 21.218241 16.939453 21.181641 L 17.613281 20.416016 L 17.583984 21.667969 C 17.570584 21.891174 17.742333 21.991652 17.878906 21.955078 C 18.015509 21.918478 18.20259 21.794776 18.166016 21.658203 L 18.197266 20.40625 L 18.826172 21.115234 C 18.999373 21.21524 19.134883 21.179178 19.271484 21.142578 C 19.37149 20.969375 19.385402 20.747256 19.298828 20.697266 L 18.199219 19.599609 L 18.230469 18.347656 L 19.269531 18.947266 L 19.623047 20.537109 C 19.659647 20.673711 19.832154 20.772925 19.96875 20.736328 C 20.105353 20.699728 20.205343 20.525932 20.21875 20.302734 L 19.962891 19.347656 L 21.001953 19.947266 C 21.175155 20.047272 21.31211 20.011088 21.412109 19.837891 C 21.512109 19.664681 21.473979 19.527735 21.300781 19.427734 L 20.261719 18.828125 L 21.355469 18.535156 C 21.492078 18.498556 21.592063 18.324758 21.605469 18.101562 C 21.568879 17.964958 21.39637 17.865742 21.259766 17.902344 L 19.707031 18.390625 L 18.667969 17.791016 L 19.736328 17.138672 L 21.236328 17.542969 C 21.409531 17.642975 21.595982 17.518128 21.609375 17.294922 C 21.709381 17.12172 21.586478 16.935273 21.363281 16.921875 L 20.433594 16.732422 L 21.501953 16.080078 C 21.688559 15.956873 21.701871 15.733602 21.615234 15.683594 C 21.578634 15.546992 21.355363 15.533673 21.21875 15.570312 L 20.150391 16.222656 L 20.476562 15.255859 C 20.576567 15.082658 20.453685 14.896206 20.230469 14.882812 C 20.143869 14.832816 19.956252 14.956365 19.90625 15.042969 L 19.857422 15.128906 L 19.404297 16.714844 L 18.333984 17.367188 L 18.365234 16.115234 L 19.509766 14.929688 C 19.609772 14.756486 19.623682 14.532415 19.537109 14.482422 C 19.363907 14.382416 19.228398 14.420441 19.091797 14.457031 L 18.417969 15.222656 L 18.449219 13.970703 C 18.462619 13.747498 18.288926 13.647014 18.152344 13.683594 C 18.015739 13.720184 17.878126 13.757147 17.828125 13.84375 L 17.728516 14.015625 L 17.748047 15.181641 L 17.033203 14.421875 C 16.86 14.32187 16.722536 14.359894 16.585938 14.396484 L 16.535156 14.482422 C 16.485156 14.569022 16.472004 14.791797 16.558594 14.841797 L 17.658203 15.939453 L 17.626953 17.191406 L 16.587891 16.591797 L 16.195312 15.523438 L 15.148438 14.695312 L 15.15625 14.691406 L 12.900391 13 L 12.962891 8.2753906 L 11.982422 7 L 11.982422 5.6992188 L 13.082031 6.3007812 L 13.482422 7.8007812 C 13.482422 7.9007812 13.683203 8 13.783203 8 L 13.882812 8 C 14.082816 8 14.182031 7.7996094 14.082031 7.5996094 L 14.082031 6.6992188 L 15.183594 7.3007812 L 15.382812 7.3007812 C 15.482812 7.3007812 15.583594 7.1996094 15.683594 7.0996094 C 15.683594 7.0996094 15.582817 6.9007813 15.382812 6.8007812 L 14.283203 6.1992188 L 15.283203 6 C 15.483203 6 15.582422 5.7996094 15.482422 5.5996094 C 15.482422 5.3996094 15.282031 5.3003906 15.082031 5.4003906 L 13.482422 5.8007812 L 12.382812 5.1992188 L 13.482422 4.5996094 L 15.082031 5 L 15.183594 5 C 15.283594 5 15.482422 4.9007813 15.482422 4.8007812 C 15.482422 4.6007812 15.383203 4.5003906 15.283203 4.4003906 L 14.283203 4.1992188 L 15.382812 3.5996094 C 15.582816 3.4996094 15.582422 3.2992187 15.482422 3.1992188 C 15.382422 3.0992187 15.182031 2.9996094 15.082031 3.0996094 L 13.982422 3.6992188 L 14.283203 2.8007812 C 14.283203 2.6007814 14.182031 2.5003906 14.082031 2.4003906 C 13.882031 2.4003906 13.683594 2.4996094 13.683594 2.5996094 L 13.283203 4.0996094 L 12.183594 4.6992188 L 12.183594 3.5 L 13.382812 2.4003906 C 13.482812 2.3003906 13.482814 2.1 13.382812 2 C 13.282815 1.9 13.082817 1.9 12.882812 2 L 12.183594 2.6992188 L 12.183594 1.5 C 12.183594 1.3 12.082817 1.1992188 11.882812 1.1992188 z "
   id="path26" />
</svg>