<?xml version="1.0" encoding="UTF-8" standalone="no"?>
<svg
   id="ic_piv"
   width="24"
   height="24"
   viewBox="0 0 24 24"
   version="1.1"
   sodipodi:docname="ic-coin-piv.svg"
   inkscape:version="1.1 (ce6663b3b7, 2021-05-25)"
   xmlns:inkscape="http://www.inkscape.org/namespaces/inkscape"
   xmlns:sodipodi="http://sodipodi.sourceforge.net/DTD/sodipodi-0.dtd"
   xmlns="http://www.w3.org/2000/svg"
   xmlns:svg="http://www.w3.org/2000/svg"
   xmlns:rdf="http://www.w3.org/1999/02/22-rdf-syntax-ns#"
   xmlns:cc="http://creativecommons.org/ns#"
   xmlns:dc="http://purl.org/dc/elements/1.1/">
  <sodipodi:namedview
     id="namedview17"
     pagecolor="#ffffff"
     bordercolor="#666666"
     borderopacity="1.0"
     inkscape:pageshadow="2"
     inkscape:pageopacity="0.0"
     inkscape:pagecheckerboard="0"
     showgrid="false"
     inkscape:zoom="23.5"
     inkscape:cx="8.106383"
     inkscape:cy="12"
     inkscape:window-width="1299"
     inkscape:window-height="713"
     inkscape:window-x="67"
     inkscape:window-y="27"
     inkscape:window-maximized="1"
     inkscape:current-layer="layer1" />
  <metadata
     id="metadata14">
    <rdf:RDF>
      <cc:Work
         rdf:about="">
        <dc:format>image/svg+xml</dc:format>
        <dc:type
           rdf:resource="http://purl.org/dc/dcmitype/StillImage" />
      </cc:Work>
    </rdf:RDF>
  </metadata>
  <defs
     id="defs4">
    <style
       type="text/css"
       id="style2">
            .cls-1{fill:#5c4b7d}.cls-2{fill:none}
        </style>
    <style
       id="style199">.cls-1{fill:#c4c4ce;}.cls-2{fill:#d12c00;}</style>
    <style
       id="style46">.cls-1{fill:#c4c4ce;}.cls-2{fill:#d12c00;}</style>
  </defs>
  <g
     inkscape:groupmode="layer"
     id="layer1"
     inkscape:label="Layer 1"
     style="display:inline">
    <g
       id="g63"
       transform="matrix(0.79114456,0,0,0.79114456,-56.312463,-53.595057)">
      <path
         class="cls-2"
         d="m 82.83,178.78 a 42.83,42.83 0 0 1 4.72,-9 c 0.48,-0.71 1.07,-1.51 1.35,-1.87 l 0.68,-0.87 c 0.17,-0.24 0.3,-0.4 0.43,-0.56 l 0.19,-0.22 c 0.21,-0.26 0.42,-0.51 0.61,-0.77 l 0.1,-0.14 0.25,-0.31 q 0.23,-0.27 0.42,-0.54 l 0.1,-0.14 c 1,-1.25 1.79,-2.42 2.52,-3.56 a 25.65,25.65 0 0 0 2,-3.59 18.32,18.32 0 0 0 1.28,-4.34 31.07,31.07 0 0 0 0.45,-4.85 c 0,-1.5 0,-2.91 -0.09,-3.85 a 3.73,3.73 0 0 1 1.27,-3.11 2.53,2.53 0 0 1 2.9,-0.27 17.55,17.55 0 0 1 3.17,2.3 21.24,21.24 0 0 1 4.23,5.39 25.84,25.84 0 0 1 3,8.73 33.09,33.09 0 0 1 -0.17,11 37.5,37.5 0 0 1 -3.59,10.39 38,38 0 0 1 -2.59,4.29 c -0.25,0.36 -0.78,1.09 -1,1.41 v 0 l -0.26,0.35 -0.49,0.68 a 5.33,5.33 0 0 1 -0.33,0.45 v 0.06 c -0.9,1.28 -2.07,3 -3.06,4.53 -0.86,1.36 -1.61,2.67 -2.3,4 a 24.24,24.24 0 0 0 -1.66,3.94 21.59,21.59 0 0 0 -0.96,4.69 31.69,31.69 0 0 0 0,4.89 c 0.08,1.1 0.21,2.25 0.4,3.54 a 3.82,3.82 0 0 1 -1.05,3.29 2.67,2.67 0 0 1 -1.83,0.76 2.52,2.52 0 0 1 -1.1,-0.25 17.63,17.63 0 0 1 -3,-1.84 20.49,20.49 0 0 1 -4.58,-4.89 26.3,26.3 0 0 1 -3.64,-8.22 33.43,33.43 0 0 1 -0.85,-10.78 39,39 0 0 1 2.48,-10.72 z"
         transform="translate(-23.07,-13.3)"
         id="path54" />
    </g>
    <g
       id="g967">
      <g
         id="Group_8935"
         data-name="Group 8935"
         style="fill:#4498ef;fill-opacity:1;stroke:#4498ef;stroke-opacity:1">
        <path
           style="fill:#d12c00;fill-opacity:1;stroke:none;stroke-width:0.0425532"
           d="M 10.824109,22.64226 C 7.6277496,22.246828 4.93968,20.607678 3.1872744,17.985414 2.7950433,17.398488 2.2285563,16.231056 1.9999803,15.538606 1.1202871,12.873656 1.3104878,10.104068 2.5449946,7.6024358 3.5955188,5.4736301 5.1632313,3.9016882 7.2921947,2.8424286 8.8818314,2.0515099 10.408694,1.7177559 12.228364,1.7634417 c 0.916527,0.023011 1.466221,0.096266 2.290791,0.3052842 3.430561,0.8696023 6.24657,3.4954296 7.349195,6.8528589 0.87134,2.6531812 0.678419,5.4135782 -0.553161,7.9148932 -1.050477,2.133498 -2.626046,3.708764 -4.767676,4.766759 -1.032777,0.510206 -1.933252,0.798286 -3.06383,0.98018 -0.503484,0.081 -2.180521,0.118108 -2.659574,0.05884 z m 2.12766,-1.718622 c 2.986945,-0.360865 5.557145,-2.181023 6.852966,-4.853117 1.187078,-2.447859 1.187454,-5.2657 10e-4,-7.7021277 -1.461675,-3.0017208 -4.527204,-4.9148936 -7.875243,-4.9148936 -3.3492736,0 -6.4106683,1.9106559 -7.8750072,4.9148936 -2.1218881,4.3532657 -0.3171931,9.6123977 4.0239436,11.7263317 0.860419,0.418984 1.9534096,0.740014 2.8723406,0.843654 0.504193,0.05686 1.465986,0.04978 2,-0.01474 z"
           id="path2229" />
      </g>
      <g
         id="g216"
         transform="matrix(0.05289453,0,0,0.05289453,7.2355535,5.5877143)">
        <path
           class="cls-1"
           d="m 17.689886,203.49479 c 12.07,0.37 19.88,-0.77 24.71999,-2.69 a 10.85,10.85 0 0 1 0,-19.13 l -33.5299998,-25.75 -0.21,0.25 c -1.22,-0.83 -2.49,-1.66 -3.78,-2.48 15.0000098,-38.14 69.5099998,-63.570006 50.4199998,-112.600006 33.909997,3 92.149994,17.830001 90.439994,41.190001 25.94,6.83 31.5,28.260005 31.5,28.260005 24.63,6.91 64,39.77 8,47.42 l -8.24,8.37 -1.64,-8.37 c -44.38,-18 -65.08,6.4 -6.81,14.6 l 7.62,-4.1 -2.32,7.65 c 0,0 8.29,1.92 4.58,7.84 -7.41,9.12 -32.11,-3.19 -32.11,-3.19 0,0 19.13,53.3 -35.8,41.49 34,-12.77 3.09,-32.38 3.09,-32.38 -4.05,21.52 -20.609997,38.52 -69.609994,24.82 -22.46999,-4.7 -50.4499998,-12.98 -26.31999,-11.2 z m 149.719984,-94.77 c 1,-11.620003 -19.81,-4.16 -26,-2.54 -3.72,1.48 24.81,5.85 26,2.54 z"
           id="path203"
           style="fill:#c4c4ce;fill-opacity:1" />
      </g>
      <path
         class="cls-2"
         d="M 23.38,144.85 A 102.26,102.26 0 0 1 30,116.59 113.21,113.21 0 0 1 42.56,93 c 1.44,-2.08 2.9,-4.07 3.65,-5 L 48,85.75 c 0.42,-0.58 0.78,-1 1.13,-1.44 l 0.52,-0.62 c 0.57,-0.68 1.15,-1.37 1.64,-2.07 l 0.12,-0.17 0.77,-1 A 17.36,17.36 0 0 0 53.29,79 l 0.15,-0.21 c 2.65,-3.42 4.87,-6.54 6.8,-9.51 A 65.49,65.49 0 0 0 65.42,59.85 48.09,48.09 0 0 0 68.83,48.44 82.07,82.07 0 0 0 70,35.65 c 0.1,-4.22 -0.12,-8.28 -0.34,-11.66 -0.16,-2.25 -0.35,-4.24 -0.53,-6 a 4.55,4.55 0 0 1 1.19,-3.64 3.15,3.15 0 0 1 3.23,-0.9 35.71,35.71 0 0 1 5.14,2.05 45.63,45.63 0 0 1 10.55,7.17 56,56 0 0 1 11.27,14.2 68.89,68.89 0 0 1 7.91,23 86,86 0 0 1 -0.47,29 97.41,97.41 0 0 1 -9.51,27.32 100.5,100.5 0 0 1 -7,11.41 c -0.67,1 -2.54,3.56 -2.56,3.59 l -0.74,1 c -0.52,0.7 -0.9,1.23 -1.28,1.76 -0.38,0.53 -0.64,0.9 -1,1.3 v 0.07 c -3.55,5 -6,8.67 -8.11,11.92 -2.28,3.57 -4.29,7 -6.13,10.58 a 63.34,63.34 0 0 0 -4.41,10.42 55.79,55.79 0 0 0 -2.21,12.14 84.35,84.35 0 0 0 0,13 c 0.33,4.47 0.92,8.54 1.38,11.52 0.35,2 0.69,3.92 1,5.55 a 4.69,4.69 0 0 1 -0.92,3.83 3.28,3.28 0 0 1 -2.54,1.26 3.08,3.08 0 0 1 -0.68,-0.07 33,33 0 0 1 -4.86,-1.52 A 44.61,44.61 0 0 1 47.53,207.82 54,54 0 0 1 35.37,194.97 69.24,69.24 0 0 1 25.7,173.3 85.81,85.81 0 0 1 23.38,144.85 Z"
         id="path205"
         style="fill:#d12c00"
         transform="matrix(0.05289453,0,0,0.05289453,6.0152767,4.8842171)" />
      <path
         class="cls-2"
         d="m 82.83,178.78 a 42.83,42.83 0 0 1 4.72,-9 c 0.48,-0.71 1.07,-1.51 1.35,-1.87 l 0.68,-0.87 c 0.17,-0.24 0.3,-0.4 0.43,-0.56 l 0.19,-0.22 c 0.21,-0.26 0.42,-0.51 0.61,-0.77 l 0.1,-0.14 0.25,-0.31 q 0.23,-0.27 0.42,-0.54 l 0.1,-0.14 c 1,-1.25 1.79,-2.42 2.52,-3.56 a 25.65,25.65 0 0 0 2,-3.59 18.32,18.32 0 0 0 1.28,-4.34 31.07,31.07 0 0 0 0.45,-4.85 c 0,-1.5 0,-2.91 -0.09,-3.85 a 3.73,3.73 0 0 1 1.27,-3.11 2.53,2.53 0 0 1 2.9,-0.27 17.55,17.55 0 0 1 3.17,2.3 21.24,21.24 0 0 1 4.23,5.39 25.84,25.84 0 0 1 3,8.73 33.09,33.09 0 0 1 -0.17,11 37.5,37.5 0 0 1 -3.59,10.39 38,38 0 0 1 -2.59,4.29 c -0.25,0.36 -0.78,1.09 -1,1.41 v 0 l -0.26,0.35 -0.49,0.68 a 5.33,5.33 0 0 1 -0.33,0.45 v 0.06 c -0.9,1.28 -2.07,3 -3.06,4.53 -0.86,1.36 -1.61,2.67 -2.3,4 a 24.24,24.24 0 0 0 -1.66,3.94 21.59,21.59 0 0 0 -0.96,4.69 31.69,31.69 0 0 0 0,4.89 c 0.08,1.1 0.21,2.25 0.4,3.54 a 3.82,3.82 0 0 1 -1.05,3.29 2.67,2.67 0 0 1 -1.83,0.76 2.52,2.52 0 0 1 -1.1,-0.25 17.63,17.63 0 0 1 -3,-1.84 20.49,20.49 0 0 1 -4.58,-4.89 26.3,26.3 0 0 1 -3.64,-8.22 33.43,33.43 0 0 1 -0.85,-10.78 39,39 0 0 1 2.48,-10.72 z"
         id="path207"
         style="fill:#d12c00"
         transform="matrix(0.05289453,0,0,0.05289453,6.0152767,4.8842171)" />
    </g>
  </g>
</svg>
