<?xml version="1.0" encoding="UTF-8" standalone="no"?>
<svg
   id="ic_piv"
   width="24"
   height="24"
   viewBox="0 0 24 24"
   version="1.1"
   sodipodi:docname="ic-coin-piv.svg"
   inkscape:version="1.1.2 (08b2f3d93c, 2022-04-05)"
   xmlns:inkscape="http://www.inkscape.org/namespaces/inkscape"
   xmlns:sodipodi="http://sodipodi.sourceforge.net/DTD/sodipodi-0.dtd"
   xmlns="http://www.w3.org/2000/svg"
   xmlns:svg="http://www.w3.org/2000/svg"
   xmlns:rdf="http://www.w3.org/1999/02/22-rdf-syntax-ns#"
   xmlns:cc="http://creativecommons.org/ns#"
   xmlns:dc="http://purl.org/dc/elements/1.1/">
  <sodipodi:namedview
     id="namedview17"
     pagecolor="#ffffff"
     bordercolor="#666666"
     borderopacity="1.0"
     inkscape:pageshadow="2"
     inkscape:pageopacity="0.0"
     inkscape:pagecheckerboard="0"
     showgrid="false"
     inkscape:zoom="23.5"
     inkscape:cx="5.5957447"
     inkscape:cy="11.851064"
     inkscape:window-width="1299"
     inkscape:window-height="713"
     inkscape:window-x="67"
     inkscape:window-y="27"
     inkscape:window-maximized="1"
     inkscape:current-layer="ic_piv" />
  <metadata
     id="metadata14">
    <rdf:RDF>
      <cc:Work
         rdf:about="">
        <dc:format>image/svg+xml</dc:format>
        <dc:type
           rdf:resource="http://purl.org/dc/dcmitype/StillImage" />
      </cc:Work>
    </rdf:RDF>
  </metadata>
  <defs
     id="defs4">
    <style
       type="text/css"
       id="style2">
            .cls-1{fill:#5c4b7d}.cls-2{fill:none}
        </style>
  </defs>
  <g
     id="Group_8935"
     data-name="Group 8935"
     style="fill:#4498ef;fill-opacity:1;stroke:#4498ef;stroke-opacity:1">
    <g
       id="Group_8934"
       data-name="Group 8934"
       style="stroke:#4498ef;stroke-opacity:1;fill:#4498ef;fill-opacity:1">
      <path
         id="Path_18928"
         d="M12 2a10 10 0 1 0 10 10A10 10 0 0 0 12 2zm0 19.25A9.25 9.25 0 1 1 21.25 12 9.25 9.25 0 0 1 12 21.25z"
         class="cls-1"
         data-name="Path 18928"
         style="stroke:#4498ef;stroke-opacity:1;fill:#4498ef;fill-opacity:1" />
    </g>
  </g>
  <path
     id="Rectangle_4543"
     d="M0 0h24v24H0z"
     class="cls-2"
     data-name="Rectangle 4543" />
  <g
     id="g1221"
     transform="matrix(0.06582149,0,0,0.06582149,4.2188255,4.5097174)">
    <path
       class="st0"
       d="m 91.9,45 c -14.4,-0.3 -26,11.6 -25.7,25.8 0,3 1.5,5.2 4.1,6.7 10.1,5.6 20.3,11.2 30.4,16.9 15.9,8.8 31.8,17.6 47.6,26.6 8.6,4.8 13.4,12.4 14.7,22.1 0.2,1.8 0.4,2 2.1,1.1 4.9,-2.7 9.7,-5.4 14.6,-8.1 3,-1.7 5.8,-3.6 8.1,-6.2 10.5,-12.4 7.6,-30.2 -6.3,-38.4 -8.3,-4.9 -16.8,-9.4 -25.2,-14.1 -16.8,-9.3 -33.6,-18.6 -50.4,-28 -4.7,-2.6 -9.3,-4.6 -14,-4.4 z m 63.4,102.4 c -0.5,-8.8 -4,-14.9 -10.7,-19 -2.4,-1.5 -5,-2.8 -7.5,-4.2 -11.9,-6.6 -23.7,-13.2 -35.6,-19.8 -2.7,-1.5 -5.5,-3.1 -8.4,-3.9 -14.8,-3.8 -26.1,7.3 -26.9,18.9 -0.2,3.2 0.6,5.1 3.6,6.7 14.1,7.7 28.1,15.5 42.2,23.3 6,3.4 10.1,8.4 12.4,14.9 0.6,1.8 0.8,1.8 2.5,0.9 8.6,-4.8 17.1,-9.6 25.8,-14.3 1.9,-0.9 2.9,-2.2 2.6,-3.5 z m -89.1,18.9 c 0.1,1.3 0.2,2.5 0.4,3.8 2.7,12.9 16.5,19.2 28.2,12.9 7,-3.8 14,-7.8 21,-11.6 1.1,-0.6 1.3,-1.3 1,-2.5 -1.3,-5.2 -4.4,-9.1 -8.8,-11.8 -4.6,-2.8 -9.3,-5.3 -14,-7.8 -12.6,-6.4 -27.6,2.8 -27.8,17 z"
       id="path4"
       style="fill:#587eff;fill-opacity:1" />
  </g>
  <path
     style="fill:#587eff;stroke-width:0.0425532;fill-opacity:1"
     d="M 10.893617,22.422803 C 7.697257,22.027371 5.0091874,20.388221 3.2567818,17.765957 2.8645507,17.179031 2.2980637,16.011599 2.0694877,15.319149 1.1897945,12.654199 1.3799952,9.8846111 2.614502,7.3829787 3.6650262,5.254173 5.2327387,3.6822311 7.3617021,2.6229715 8.9513383,1.8320528 10.478202,1.4982988 12.297872,1.5439846 c 0.916527,0.023011 1.466221,0.096266 2.290791,0.3052842 3.430561,0.8696023 6.24657,3.4954296 7.349195,6.8528589 0.87134,2.6531813 0.678419,5.4135783 -0.553161,7.9148933 -1.050477,2.133498 -2.626046,3.708764 -4.767676,4.766759 -1.032777,0.510206 -1.933252,0.798286 -3.06383,0.98018 -0.503484,0.081 -2.180521,0.118108 -2.659574,0.05884 z m 2.12766,-1.718622 c 2.986945,-0.360865 5.557145,-2.181023 6.852966,-4.853117 1.187078,-2.447859 1.187454,-5.2657 0.001,-7.7021278 C 18.413568,5.1472154 15.348039,3.2340426 12,3.2340426 c -3.349274,0 -6.4106689,1.9106559 -7.8750078,4.9148936 -2.1218881,4.3532658 -0.3171931,9.6123978 4.023944,11.7263318 0.8604183,0.418984 1.9534098,0.740014 2.8723408,0.843654 0.504193,0.05686 1.465986,0.04978 2,-0.01474 z"
     id="path147" />
</svg>
