<?xml version="1.0" encoding="UTF-8" standalone="no"?>
<svg
   xmlns:dc="http://purl.org/dc/elements/1.1/"
   xmlns:cc="http://creativecommons.org/ns#"
   xmlns:rdf="http://www.w3.org/1999/02/22-rdf-syntax-ns#"
   xmlns:svg="http://www.w3.org/2000/svg"
   xmlns="http://www.w3.org/2000/svg"
   id="svg4"
   viewBox="0 0 752 752"
   version="1.1"
   height="752pt"
   width="752pt">
  <metadata
     id="metadata10">
    <rdf:RDF>
      <cc:Work
         rdf:about="">
        <dc:format>image/svg+xml</dc:format>
        <dc:type
           rdf:resource="http://purl.org/dc/dcmitype/StillImage" />
        <dc:title></dc:title>
      </cc:Work>
    </rdf:RDF>
  </metadata>
  <defs
     id="defs8" />
  <path
     style="fill-rule:evenodd;stroke-width:1.4723345;fill:#ffffff"
     id="path2"
     d="M 502.64487,271.73547 C 575.60603,313.48407 622.58921,376 622.58921,376 c 0,0 -105.88363,140.90024 -246.60243,140.90024 C 235.26796,516.90024 129.39903,376 129.39903,376 c 0,0 52.71556,-70.14762 133.18236,-111.45208 -15.72373,23.05594 -24.92322,50.95918 -24.92322,81.03003 0,79.21507 63.866,143.43677 142.65656,143.43677 78.78615,0 142.65655,-64.2217 142.65655,-143.43677 0,-27.01051 -7.42583,-52.27391 -20.33229,-73.84248 z M 375.99264,567.24999 C 566.9898,567.24999 687.24999,376 687.24999,376 c 0,0 -120.25285,-191.25 -311.25735,-191.25 C 184.99549,184.75 64.749997,376 64.749997,376 c 0,0 120.252843,191.24999 311.242643,191.24999 z M 354.88615,252.44964 c -37.11231,-0.66286 -73.12132,27.60368 -75.21037,69.26523 -0.48204,9.56825 6.852,17.71285 16.37749,18.19685 9.52048,0.48416 17.63501,-6.88225 18.11102,-16.44977 1.07887,-21.4933 20.42924,-36.68145 40.10778,-36.33026 9.53766,0.16714 17.40584,-7.45864 17.57186,-17.03853 0.16641,-9.57402 -7.42583,-17.47679 -16.95778,-17.64352 z" />
</svg>
