<?xml version="1.0" encoding="UTF-8" standalone="no"?>
<!-- Generator: Adobe Illustrator 25.2.0, SVG Export Plug-In . SVG Version: 6.00 Build 0)  -->

<svg
   version="1.1"
   id="svg10"
   inkscape:version="1.1.1 (3bf5ae0d25, 2021-09-20)"
   sodipodi:docname="ic-check-box-dark-active.svg"
   x="0px"
   y="0px"
   viewBox="0 0 24 24"
   style="enable-background:new 0 0 24 24;"
   xml:space="preserve"
   xmlns:inkscape="http://www.inkscape.org/namespaces/inkscape"
   xmlns:sodipodi="http://sodipodi.sourceforge.net/DTD/sodipodi-0.dtd"
   xmlns="http://www.w3.org/2000/svg"
   xmlns:svg="http://www.w3.org/2000/svg"><defs
   id="defs10" />
<style
   type="text/css"
   id="style2">
	.st0{fill-rule:evenodd;clip-rule:evenodd;fill:#c226d6;}
	.st1{fill:none;}
</style>
<sodipodi:namedview
   bordercolor="#666666"
   borderopacity="1"
   gridtolerance="10"
   guidetolerance="10"
   id="namedview12"
   inkscape:current-layer="Group_8199"
   inkscape:cx="-5.819549"
   inkscape:cy="12"
   inkscape:pageopacity="0"
   inkscape:pageshadow="2"
   inkscape:window-height="2054"
   inkscape:window-width="3840"
   inkscape:zoom="11.083333"
   objecttolerance="10"
   pagecolor="#ffffff"
   showgrid="false"
   inkscape:pagecheckerboard="0"
   inkscape:window-x="-11"
   inkscape:window-y="-11"
   inkscape:window-maximized="1">
	</sodipodi:namedview>
<g
   id="check_active"
   transform="translate(-290 -244)">
	<g
   id="Group_8199"
   transform="translate(291 245)">
		<path
   id="check_on_light"
   class="st0"
   d="M19.6,0H2.4C1.1,0,0,1.1,0,2.4v17.1C0,20.9,1.1,22,2.4,22h17.1c1.3,0,2.4-1.1,2.4-2.4    V2.4C22,1.1,20.9,0,19.6,0z M8.6,17.1l-6.1-5.9l1.7-1.6l4.4,4.2l9.3-8.9l1.7,1.6C19.6,6.5,8.6,17.1,8.6,17.1z"
   style="fill:#587eff;fill-opacity:1" />
	</g>
	<path
   id="Rectangle_4538"
   class="st1"
   d="M290,244h24v24h-24V244z" />
</g>
</svg>
