<?xml version="1.0" encoding="utf-8"?>
<!-- Generator: Adobe Illustrator 25.2.0, SVG Export Plug-In . SVG Version: 6.00 Build 0)  -->
<svg version="1.1"
	 id="ic_piv" inkscape:version="0.92.4 (5da689c313, 2019-01-14)" sodipodi:docname="ic-coin-piv.svg" xmlns:cc="http://creativecommons.org/ns#" xmlns:dc="http://purl.org/dc/elements/1.1/" xmlns:inkscape="http://www.inkscape.org/namespaces/inkscape" xmlns:rdf="http://www.w3.org/1999/02/22-rdf-syntax-ns#" xmlns:sodipodi="http://sodipodi.sourceforge.net/DTD/sodipodi-0.dtd" xmlns:svg="http://www.w3.org/2000/svg"
	 xmlns="http://www.w3.org/2000/svg" xmlns:xlink="http://www.w3.org/1999/xlink" x="0px" y="0px" viewBox="0 0 24 24"
	 style="enable-background:new 0 0 24 24;" xml:space="preserve">
<style type="text/css">
	.st0{fill:#F4B400;}
	.st1{fill:#E50E28;}
	.st2{fill:none;}
</style>
<sodipodi:namedview  bordercolor="#666666" borderopacity="1" gridtolerance="10" guidetolerance="10" id="namedview12" inkscape:current-layer="Group_8935" inkscape:cx="9.7447468" inkscape:cy="14.79955" inkscape:pageopacity="0" inkscape:pageshadow="2" inkscape:window-height="480" inkscape:window-width="640" inkscape:zoom="11.220616" objecttolerance="10" pagecolor="#ffffff" showgrid="false">
	</sodipodi:namedview>
<g>
	<rect class="st0" width="24" height="24"/>
	<g>
		<path class="st1" d="M3.8,15.7c0.1-0.1,0.2-0.1,0.2-0.2c0.7-0.6,1.5-1,2.4-1.1c0.7-0.1,1.4,0,2.1,0.2c0.9,0.2,1.7,0.6,2.6,0.9
			c1,0.4,1.9,0.8,2.9,1.1c1,0.3,1.9,0.4,2.9,0.4c0.4,0,0.8-0.1,1.2-0.2c0,0,0,0,0.1,0c-0.4,0.2-0.7,0.3-1.1,0.5
			c-0.9,0.4-1.9,0.9-2.9,1.1c-0.8,0.2-1.5,0.4-2.3,0.3c-0.9,0-1.7-0.3-2.5-0.7c-0.7-0.4-1.3-0.9-2-1.4c-0.3-0.3-0.7-0.5-1-0.7
			c-0.8-0.5-1.7-0.6-2.6-0.4C3.9,15.7,3.8,15.8,3.8,15.7C3.8,15.8,3.8,15.8,3.8,15.7z"/>
		<path d="M20.7,15.1c-0.9,0.4-1.8,0.7-2.8,0.8c-0.8,0.1-1.7,0.1-2.5-0.1c-1-0.2-1.9-0.6-2.8-0.9c-1-0.4-2.1-0.9-3.1-1.2
			c-0.8-0.3-1.6-0.4-2.4-0.5C6,13,4.9,13.1,3.8,13.5c-0.5,0.2-1.1,0.4-1.6,0.7c0,0-0.1,0-0.1,0.1c0,0,0,0,0,0c0.6-0.6,1.3-1.2,2-1.7
			c1.2-0.7,2.5-1.1,3.9-1c0.9,0.1,1.7,0.3,2.5,0.6c1,0.4,2.1,0.8,3.1,1.3c1.3,0.5,2.5,1,3.8,1.3c0.7,0.2,1.5,0.3,2.2,0.3
			C20,15,20.4,15.1,20.7,15.1z"/>
		<path class="st1" d="M21.9,12.6c-0.3,0.1-0.6,0.2-1,0.3c-0.6,0.2-1.2,0.3-1.8,0.4c-0.7,0.1-1.4,0-2.2-0.1
			c-0.8-0.2-1.6-0.5-2.4-0.8c-0.8-0.4-1.6-0.7-2.4-1.1c-1-0.4-1.9-0.8-2.9-1c-1.2-0.2-2.4-0.2-3.6,0.2c-0.7,0.2-1.3,0.4-1.9,0.7
			c-0.1,0-0.1,0-0.2,0.1c0,0,0-0.1,0.1-0.1c0.5-0.5,1-1,1.6-1.4C6,9.2,7.1,8.8,8.2,8.7c0.8-0.1,1.5,0,2.3,0.2c1,0.3,2,0.7,2.9,1.1
			c1.2,0.5,2.3,1.1,3.5,1.5c1.1,0.5,2.2,0.8,3.4,0.9C20.9,12.5,21.4,12.5,21.9,12.6z"/>
		<path class="st1" d="M20.4,9.9c-0.3,0.1-0.6,0.2-1,0.3c-0.9,0.1-1.8-0.1-2.6-0.4C16,9.4,15,8.9,14.1,8.5c-1-0.4-2-0.9-3-1.1
			C9.4,7,7.8,7.1,6.2,7.8c0,0-0.1,0-0.1,0c0.2-0.2,0.4-0.3,0.7-0.5c0.9-0.7,1.9-1.2,3.1-1.5c1.9-0.5,3.7-0.3,5.4,0.6
			c0.6,0.3,1.2,0.8,1.7,1.3c0.5,0.4,0.9,0.9,1.4,1.3c0.5,0.4,1.1,0.7,1.7,0.9C20.1,9.9,20.3,9.9,20.4,9.9z"/>
	</g>
</g>
<path id="Rectangle_4543" class="st2" d="M0,0h24v24H0V0z"/>
</svg>
