<?xml version="1.0" encoding="UTF-8" standalone="no"?>
<svg
   xmlns:dc="http://purl.org/dc/elements/1.1/"
   xmlns:cc="http://creativecommons.org/ns#"
   xmlns:rdf="http://www.w3.org/1999/02/22-rdf-syntax-ns#"
   xmlns:svg="http://www.w3.org/2000/svg"
   xmlns="http://www.w3.org/2000/svg"
   xmlns:sodipodi="http://sodipodi.sourceforge.net/DTD/sodipodi-0.dtd"
   xmlns:inkscape="http://www.inkscape.org/namespaces/inkscape"
   id="ic_error_connection"
   width="24"
   height="24"
   viewBox="0 0 24 24"
   shape-rendering="geometricPrecision"
   version="1.1"
   sodipodi:docname="ic-check-connect-off.svg"
   inkscape:version="0.92.4 (5da689c313, 2019-01-14)">
  <metadata
     id="metadata22">
    <rdf:RDF>
      <cc:Work
         rdf:about="">
        <dc:format>image/svg+xml</dc:format>
        <dc:type
           rdf:resource="http://purl.org/dc/dcmitype/StillImage" />
      </cc:Work>
    </rdf:RDF>
  </metadata>
  <sodipodi:namedview
     pagecolor="#ffffff"
     bordercolor="#666666"
     borderopacity="1"
     objecttolerance="10"
     gridtolerance="10"
     guidetolerance="10"
     inkscape:pageopacity="0"
     inkscape:pageshadow="2"
     inkscape:window-width="640"
     inkscape:window-height="480"
     id="namedview20"
     showgrid="false"
     inkscape:zoom="11.083333"
     inkscape:cx="12"
     inkscape:cy="12"
     inkscape:current-layer="Group_8828" />
  <defs
     id="defs4">
    <style
       type="text/css"
       id="style2">
            .cls-1{fill:#7c7687}.cls-2{fill:none}
        </style>
  </defs>
  <g
     id="Group_8828"
     data-name="Group 8828">
    <circle
       id="Ellipse_601"
       cx="2"
       cy="2"
       r="2"
       class="cls-1"
       data-name="Ellipse 601"
       transform="translate(10 16)"
       style="fill:#ed1c24;fill-opacity:1" />
    <g
       id="Group_8825"
       data-name="Group 8825"
       style="fill:#ed1c24;fill-opacity:1">
      <path
         id="Path_18883"
         d="M10 4.15a14.966 14.966 0 0 0-8.079 3.763l1.346 1.48A12.969 12.969 0 0 1 10 6.168z"
         class="cls-1"
         data-name="Path 18883"
         style="fill:#ed1c24;fill-opacity:1" />
      <path
         id="Path_18884"
         d="M14 4.15v2.018a12.969 12.969 0 0 1 6.733 3.225l1.346-1.48A14.966 14.966 0 0 0 14 4.15z"
         class="cls-1"
         data-name="Path 18884"
         style="fill:#ed1c24;fill-opacity:1" />
    </g>
    <g
       id="Group_8826"
       data-name="Group 8826"
       style="fill:#ed1c24;fill-opacity:1">
      <path
         id="Path_18885"
         d="M10 8.185a11.008 11.008 0 0 0-5.392 2.684l1.346 1.48A9 9 0 0 1 10 10.236z"
         class="cls-1"
         data-name="Path 18885"
         style="fill:#ed1c24;fill-opacity:1" />
      <path
         id="Path_18886"
         d="M14 8.185v2.051a9 9 0 0 1 4.046 2.113l1.346-1.48A11.008 11.008 0 0 0 14 8.185z"
         class="cls-1"
         data-name="Path 18886"
         style="fill:#ed1c24;fill-opacity:1" />
    </g>
    <g
       id="Group_8827"
       data-name="Group 8827"
       style="fill:#ed1c24;fill-opacity:1">
      <path
         id="Path_18887"
         d="M10 12.3a6.992 6.992 0 0 0-2.7 1.529l1.346 1.479A4.724 4.724 0 0 1 10 14.46z"
         class="cls-1"
         data-name="Path 18887"
         style="fill:#ed1c24;fill-opacity:1" />
      <path
         id="Path_18888"
         d="M14 12.3v2.162a4.727 4.727 0 0 1 1.358.846l1.342-1.482A6.992 6.992 0 0 0 14 12.3z"
         class="cls-1"
         data-name="Path 18888"
         style="fill:#ed1c24;fill-opacity:1" />
    </g>
    <path
       id="Path_18889"
       d="M11 3v11.147a5.236 5.236 0 0 1 2 0V3z"
       class="cls-1"
       data-name="Path 18889"
       style="fill:#ed1c24;fill-opacity:1" />
  </g>
  <path
     id="Rectangle_4409"
     d="M0 0h24v24H0z"
     class="cls-2"
     data-name="Rectangle 4409" />
</svg>
