<svg id="Layer_1" data-name="Layer 1" xmlns="http://www.w3.org/2000/svg" viewBox="0 0 24 24"><defs><style>.cls-1{fill:none;}.cls-2{fill:#f4b400;}</style></defs><rect class="cls-1" width="24" height="24"/><path class="cls-2" d="M12.65,13.89a2.54,2.54,0,0,0-2-1.07h-.05a2,2,0,0,1-1.94-1.72,3.53,3.53,0,0,0,.79-.8A4.86,4.86,0,0,0,10.37,8a.42.42,0,0,0,.09-.14,3.92,3.92,0,0,0,.3-1.52,3.58,3.58,0,0,0-3.44-3.7A3.17,3.17,0,0,0,5.91,3,3.56,3.56,0,0,0,5.42,3a3.44,3.44,0,0,0-2,4.27,5.22,5.22,0,0,0,.18.56A.38.38,0,0,0,3.69,8a4.52,4.52,0,0,0,1.68,3.09,2,2,0,0,1-1.94,1.72h0A2.53,2.53,0,0,0,.94,15.35v2.72a.46.46,0,0,0,.46.46H9.54a.45.45,0,0,0,.46-.46.46.46,0,0,0-.46-.46H1.86V15.35a1.63,1.63,0,0,1,1.62-1.62h0a3,3,0,0,0,.95-.19l2.18,3.15a.45.45,0,0,0,.75,0l2.19-3.15a2.91,2.91,0,0,0,.94.19h.05a1.6,1.6,0,0,1,1.31.69.49.49,0,0,0,.38.19.56.56,0,0,0,.27-.08A.47.47,0,0,0,12.65,13.89Zm-7-10a1.21,1.21,0,0,1,.38-.06.66.66,0,0,0,.2-.06,2.27,2.27,0,0,1,1.07-.27A2.66,2.66,0,0,1,9.84,6.23a1.67,1.67,0,0,0-1-.34H6.43a.51.51,0,0,1-.33-.11.58.58,0,0,1-.18-.23.54.54,0,0,0-1,.06,3.08,3.08,0,0,1-.64,1.23A2.46,2.46,0,0,1,5.67,3.93ZM4.59,7.83a4.26,4.26,0,0,0,1-1.31h0a1.47,1.47,0,0,0,.88.29H8.84a.73.73,0,0,1,.66.42,4.28,4.28,0,0,1-.77,2.52,2.13,2.13,0,0,1-1.7,1,2.1,2.1,0,0,1-1.61-.85A4,4,0,0,1,4.59,7.83ZM7,15.62,5.26,13.07a2.85,2.85,0,0,0,1-1.55,2.63,2.63,0,0,0,.8.12,2.72,2.72,0,0,0,.8-.12,2.83,2.83,0,0,0,1,1.55Z"/><path class="cls-2" d="M20.61,15.38h0a2,2,0,0,1-1.94-1.72A4.22,4.22,0,0,0,20,11.87a.43.43,0,0,0,.3.3.35.35,0,0,0,.14,0,.47.47,0,0,0,.36-.18,4.68,4.68,0,0,0,.94-3,4.68,4.68,0,0,0-1.09-2.92,3.39,3.39,0,0,0-2.55-1.24h-.2a3.44,3.44,0,0,0-1.55-.31,3.75,3.75,0,0,0-2.86,1.55A5.41,5.41,0,0,0,12.4,9.52c0,.22,0,.42,0,.61a5.84,5.84,0,0,0,.45,1.56.47.47,0,0,0,.39.27.46.46,0,0,0,.42-.22l.14-.21a4.6,4.6,0,0,0,.92,1.62,3.23,3.23,0,0,0,.55.5,2,2,0,0,1-1.94,1.72h-.05a2.53,2.53,0,0,0-2.44,2.53v2.73a.47.47,0,0,0,.46.46H22.6a.47.47,0,0,0,.46-.46V17.91A2.53,2.53,0,0,0,20.61,15.38Zm-7.14-4.83a4.86,4.86,0,0,1-.1-.55,4,4,0,0,1,0-.51,4.5,4.5,0,0,1,.87-2.86,2.87,2.87,0,0,1,2.16-1.19,2.73,2.73,0,0,1,1.23.27.59.59,0,0,0,.22,0h.25a2.45,2.45,0,0,1,1.87.93A3.77,3.77,0,0,1,20.79,9a3.75,3.75,0,0,1-.2,1.39c0-.11-.09-.23-.14-.34A4.15,4.15,0,0,0,18.34,8,.45.45,0,0,0,18,8a.43.43,0,0,0-.25.26,3.51,3.51,0,0,1-.22.48,1.38,1.38,0,0,1-1.27.67H16a3.52,3.52,0,0,0-1.16.23A4,4,0,0,0,13.47,10.55Zm1.14.25a2.42,2.42,0,0,1,.55-.29,2.86,2.86,0,0,1,.86-.17h.19a2.27,2.27,0,0,0,2.1-1.14s.05-.09.08-.14a3.23,3.23,0,0,1,1,1.07v0a4.06,4.06,0,0,1-.85,2.26,2.11,2.11,0,0,1-1.61.86A2.8,2.8,0,0,1,14.61,10.8Zm1.56,3.28a2.73,2.73,0,0,0,.8.13,2.63,2.63,0,0,0,.8-.13,2.91,2.91,0,0,0,1.38,1.84,2.26,2.26,0,0,1-4.35,0A2.86,2.86,0,0,0,16.17,14.08Zm6,6.09H11.81V17.91a1.62,1.62,0,0,1,1.61-1.61h.05a2.5,2.5,0,0,0,.47-.05,3.17,3.17,0,0,0,6.07,0,2.42,2.42,0,0,0,.47.05h0a1.62,1.62,0,0,1,1.62,1.61Z"/></svg>