<?xml version="1.0" encoding="UTF-8" standalone="no"?>
<svg
   xmlns:dc="http://purl.org/dc/elements/1.1/"
   xmlns:cc="http://creativecommons.org/ns#"
   xmlns:rdf="http://www.w3.org/1999/02/22-rdf-syntax-ns#"
   xmlns:svg="http://www.w3.org/2000/svg"
   xmlns="http://www.w3.org/2000/svg"
   xmlns:sodipodi="http://sodipodi.sourceforge.net/DTD/sodipodi-0.dtd"
   xmlns:inkscape="http://www.inkscape.org/namespaces/inkscape"
   width="24px"
   height="40px"
   viewBox="0 0 24 40"
   version="1.1"
   id="svg14"
   sodipodi:docname="ic-nav-dashboard-active.svg"
   inkscape:version="1.0.1 (3bc2e813f5, 2020-09-07)">
  <sodipodi:namedview
     pagecolor="#ffffff"
     bordercolor="#666666"
     borderopacity="1"
     objecttolerance="10"
     gridtolerance="10"
     guidetolerance="10"
     inkscape:pageopacity="0"
     inkscape:pageshadow="2"
     inkscape:window-width="3840"
     inkscape:window-height="2066"
     id="namedview10"
     showgrid="false"
     inkscape:zoom="18.375"
     inkscape:cx="12"
     inkscape:cy="20"
     inkscape:window-x="3829"
     inkscape:window-y="-11"
     inkscape:window-maximized="1"
     inkscape:current-layer="g61" />
  <metadata
     id="metadata20">
    <rdf:RDF>
      <cc:Work
         rdf:about="">
        <dc:format>image/svg+xml</dc:format>
        <dc:type
           rdf:resource="http://purl.org/dc/dcmitype/StillImage" />
        <dc:title>Dashboard</dc:title>
      </cc:Work>
    </rdf:RDF>
  </metadata>
  <defs
     id="defs18" />
  <!-- Generator: Sketch 52.6 (67491) - http://www.bohemiancoding.com/sketch -->
  <title
     id="title2">Dashboard</title>
  <desc
     id="desc4">Created with Sketch.</desc>
  <g
     id="g61"
     transform="translate(1,11)">
    <path
       id="path2"
       d="M 0,0 H 24 V 24 H 0 Z"
       style="fill:none" />
    <path
       d="m 20.989235,18.833294 a 1,1 0 0 1 -1,1 H 3.9892349 a 1,1 0 0 1 -1,-1 v -10.51 a 1,1 0 0 1 0.386,-0.79 L 11.375235,1.3112941 a 1,1 0 0 1 1.228,0 l 8,6.2219999 a 1,1 0 0 1 0.386,0.79 z m -2,-1 v -9.022 l -7,-5.4439999 -7.0000001,5.4439999 v 9.022 z m -12.0000001,-4 H 16.989235 v 2 H 6.9892349 Z"
       fill="rgba(255,255,255,1)"
       id="path847"
       style="fill:#f4b400;fill-opacity:1;stroke:#f4b400;stroke-opacity:1" />
  </g>
</svg>
