<svg id="Layer_1" data-name="Layer 1" xmlns="http://www.w3.org/2000/svg" viewBox="0 0 24 24"><defs><style>.cls-1{fill:none;}.cls-2{fill:#262626;}</style></defs><rect class="cls-1" width="24" height="24"/><path class="cls-2" d="M22.89,4.66H8.73V4.1A1.49,1.49,0,0,0,7.24,2.61H4.93A1.49,1.49,0,0,0,3.45,4.1v.56H1.11a.59.59,0,0,0-.59.6.58.58,0,0,0,.59.59H3.45v.56A1.49,1.49,0,0,0,4.93,7.9H7.24A1.49,1.49,0,0,0,8.73,6.41V5.85H22.89a.58.58,0,0,0,.59-.59A.59.59,0,0,0,22.89,4.66ZM7.54,6.41a.29.29,0,0,1-.3.3H4.93a.29.29,0,0,1-.29-.3V4.1a.3.3,0,0,1,.29-.3H7.24a.3.3,0,0,1,.3.3Z"/><path class="cls-2" d="M22.89,11.29H20.55v-.56a1.48,1.48,0,0,0-1.48-1.48H16.76a1.48,1.48,0,0,0-1.49,1.48v.56H1.11a.59.59,0,0,0-.59.6.58.58,0,0,0,.59.59H15.27V13a1.49,1.49,0,0,0,1.49,1.49h2.31A1.49,1.49,0,0,0,20.55,13v-.56h2.34a.58.58,0,0,0,.59-.59A.59.59,0,0,0,22.89,11.29ZM19.36,13a.29.29,0,0,1-.29.3H16.76a.29.29,0,0,1-.3-.3V10.73a.29.29,0,0,1,.3-.29h2.31a.29.29,0,0,1,.29.29Z"/><path class="cls-2" d="M22.89,18.41h-10v-.56a1.49,1.49,0,0,0-1.49-1.49H9.12a1.49,1.49,0,0,0-1.49,1.49v.56H1.11a.59.59,0,0,0-.59.6.58.58,0,0,0,.59.59H7.63v.56a1.49,1.49,0,0,0,1.49,1.49h2.31a1.49,1.49,0,0,0,1.49-1.49V19.6h10a.58.58,0,0,0,.59-.59A.59.59,0,0,0,22.89,18.41ZM11.73,20.16a.3.3,0,0,1-.3.3H9.12a.29.29,0,0,1-.3-.3V17.85a.29.29,0,0,1,.3-.29h2.31a.3.3,0,0,1,.3.29v2.31Z"/></svg>