<?xml version="1.0" encoding="UTF-8" standalone="no"?>
<svg
   xmlns:dc="http://purl.org/dc/elements/1.1/"
   xmlns:cc="http://creativecommons.org/ns#"
   xmlns:rdf="http://www.w3.org/1999/02/22-rdf-syntax-ns#"
   xmlns:svg="http://www.w3.org/2000/svg"
   xmlns="http://www.w3.org/2000/svg"
   xmlns:sodipodi="http://sodipodi.sourceforge.net/DTD/sodipodi-0.dtd"
   xmlns:inkscape="http://www.inkscape.org/namespaces/inkscape"
   width="24px"
   height="40px"
   viewBox="0 0 24 40"
   version="1.1"
   id="svg14"
   sodipodi:docname="ic-nav-dashboard.svg"
   inkscape:version="1.0.1 (3bc2e813f5, 2020-09-07)">
  <metadata
     id="metadata20">
    <rdf:RDF>
      <cc:Work
         rdf:about="">
        <dc:format>image/svg+xml</dc:format>
        <dc:type
           rdf:resource="http://purl.org/dc/dcmitype/StillImage" />
        <dc:title>Dashboard</dc:title>
      </cc:Work>
    </rdf:RDF>
  </metadata>
  <defs
     id="defs18" />
  <sodipodi:namedview
     pagecolor="#ffffff"
     bordercolor="#666666"
     borderopacity="1"
     objecttolerance="10"
     gridtolerance="10"
     guidetolerance="10"
     inkscape:pageopacity="0"
     inkscape:pageshadow="2"
     inkscape:window-width="3840"
     inkscape:window-height="2066"
     id="namedview16"
     showgrid="false"
     inkscape:zoom="53.2"
     inkscape:cx="6.9371662"
     inkscape:cy="23.529113"
     inkscape:current-layer="g61"
     inkscape:document-rotation="0"
     inkscape:window-x="3829"
     inkscape:window-y="-11"
     inkscape:window-maximized="1" />
  <!-- Generator: Sketch 52.6 (67491) - http://www.bohemiancoding.com/sketch -->
  <title
     id="title2">Dashboard</title>
  <desc
     id="desc4">Created with Sketch.</desc>
  <g
     id="g61"
     transform="translate(1,11)">
    <path
       id="path2"
       d="M 0,0 H 24 V 24 H 0 Z"
       inkscape:connector-curvature="0"
       style="fill:none" />
    <path
       id="path871"
       d="m 11.982158,1.2492951 a 1,1 0 0 0 -0.626953,0.210938 l -8.0000001,6.222656 a 1,1 0 0 0 -0.384766,0.789062 V 18.98367 a 1,1 0 0 0 1,1 H 19.970439 a 1,1 0 0 0 1,-1 V 8.4719511 A 1,1 0 0 0 20.58372,7.6828891 l -8,-6.222656 a 1,1 0 0 0 -0.601562,-0.210938 z m -0.01172,2.267578 7,5.44336 V 17.98367 H 4.9704389 V 8.9602331 Z"
       style="fill:#ffffff;fill-opacity:1" />
  </g>
</svg>
