<svg id="Layer_1" data-name="Layer 1" xmlns="http://www.w3.org/2000/svg" viewBox="0 0 24 24"><defs><style>.cls-1{fill:none;}.cls-2{fill:#f4b400;}</style></defs><rect class="cls-1" width="24" height="24"/><path class="cls-2" d="M23.68,9.94,12.37,2.32a.65.65,0,0,0-.73,0L.33,9.94a.55.55,0,0,0-.13.8.64.64,0,0,0,.86.12L12,3.49,23,10.86a.62.62,0,0,0,.37.11.64.64,0,0,0,.5-.23A.55.55,0,0,0,23.68,9.94Z"/><path class="cls-2" d="M20.69,11a.59.59,0,0,0-.62.57v9.09h-5v-5A3,3,0,0,0,12,12.84a3,3,0,0,0-3.1,2.85v5H4V11.56A.6.6,0,0,0,3.33,11a.6.6,0,0,0-.62.57v9.66a.6.6,0,0,0,.62.57h6.2a.61.61,0,0,0,.62-.53V15.69A1.79,1.79,0,0,1,12,14a1.8,1.8,0,0,1,1.86,1.71v5.57a.6.6,0,0,0,.62.53h6.2a.6.6,0,0,0,.62-.57V11.56A.6.6,0,0,0,20.69,11Z"/></svg>