<?xml version="1.0" encoding="UTF-8" standalone="no"?>
<svg
   xmlns:dc="http://purl.org/dc/elements/1.1/"
   xmlns:cc="http://creativecommons.org/ns#"
   xmlns:rdf="http://www.w3.org/1999/02/22-rdf-syntax-ns#"
   xmlns:svg="http://www.w3.org/2000/svg"
   xmlns="http://www.w3.org/2000/svg"
   xmlns:sodipodi="http://sodipodi.sourceforge.net/DTD/sodipodi-0.dtd"
   xmlns:inkscape="http://www.inkscape.org/namespaces/inkscape"
   width="24px"
   height="40px"
   viewBox="0 0 24 40"
   version="1.1"
   id="svg14"
   sodipodi:docname="ic-nav-address.svg"
   inkscape:version="1.0.2 (e86c870879, 2021-01-15, custom)">
  <sodipodi:namedview
     pagecolor="#ffffff"
     bordercolor="#666666"
     borderopacity="1"
     objecttolerance="10"
     gridtolerance="10"
     guidetolerance="10"
     inkscape:pageopacity="0"
     inkscape:pageshadow="2"
     inkscape:window-width="3840"
     inkscape:window-height="2066"
     id="namedview12"
     showgrid="false"
     inkscape:zoom="18.375"
     inkscape:cx="12"
     inkscape:cy="20"
     inkscape:window-x="3829"
     inkscape:window-y="-11"
     inkscape:window-maximized="1"
     inkscape:current-layer="g891" />
  <metadata
     id="metadata20">
    <rdf:RDF>
      <cc:Work
         rdf:about="">
        <dc:format>image/svg+xml</dc:format>
        <dc:type
           rdf:resource="http://purl.org/dc/dcmitype/StillImage" />
        <dc:title>Dashboard</dc:title>
      </cc:Work>
    </rdf:RDF>
  </metadata>
  <defs
     id="defs18" />
  <!-- Generator: Sketch 52.6 (67491) - http://www.bohemiancoding.com/sketch -->
  <title
     id="title2">Dashboard</title>
  <desc
     id="desc4">Created with Sketch.</desc>
  <g
     id="g61"
     transform="translate(1,11)">
    <path
       id="path2"
       d="M 0,0 H 24 V 24 H 0 Z"
       style="fill:none" />
    <g
       id="g862"
       transform="translate(-0.04761939,0.56462597)">
      <path
         fill="none"
         d="M 0,0 H 24 V 24 H 0 Z"
         id="path848" />
      <g
         id="g891"
         transform="matrix(0.90929705,0,0,0.91914523,1.2517008,0.74323536)">
        <path
           fill="none"
           d="M 0,0 H 24 V 24 H 0 Z"
           id="path877" />
        <path
           d="m 4,22 a 8,8 0 1 1 16,0 H 18 A 6,6 0 1 0 6,22 Z m 8,-9 C 8.685,13 6,10.315 6,7 6,3.685 8.685,1 12,1 c 3.315,0 6,2.685 6,6 0,3.315 -2.685,6 -6,6 z m 0,-2 C 14.21,11 16,9.21 16,7 16,4.79 14.21,3 12,3 9.79,3 8,4.79 8,7 c 0,2.21 1.79,4 4,4 z"
           id="path879"
           style="fill:#ffffff;fill-opacity:1;stroke:#ffffff;stroke-opacity:1;stroke-width:0.54692156;stroke-miterlimit:4;stroke-dasharray:none" />
      </g>
    </g>
  </g>
</svg>
