<svg id="Layer_1" data-name="Layer 1" xmlns="http://www.w3.org/2000/svg" viewBox="0 0 24 24"><defs><style>.cls-1{fill:none;}.cls-2{fill:#262626;}</style></defs><rect class="cls-1" width="24" height="24"/><path class="cls-2" d="M21.3,6.56a2.51,2.51,0,0,0-2.1,3.88l-2.71,2.7a2.54,2.54,0,0,0-2.78,0L11,10.44a2.58,2.58,0,0,0,.4-1.37,2.51,2.51,0,1,0-4.6,1.37l-2.71,2.7a2.53,2.53,0,0,0-1.37-.4,2.51,2.51,0,1,0,2.51,2.5,2.45,2.45,0,0,0-.41-1.36l2.71-2.71a2.48,2.48,0,0,0,2.73,0L13,13.92a2.5,2.5,0,0,0,2.12,3.83,2.51,2.51,0,0,0,2.51-2.51,2.45,2.45,0,0,0-.41-1.36l2.71-2.71a2.46,2.46,0,0,0,1.37.41,2.51,2.51,0,0,0,0-5ZM2.7,16.71a1.47,1.47,0,1,1,1.47-1.47A1.47,1.47,0,0,1,2.7,16.71Zm6.18-6.17a1.47,1.47,0,1,1,1.47-1.47A1.47,1.47,0,0,1,8.88,10.54Zm6.24,6.17a1.47,1.47,0,1,1,1.47-1.47A1.47,1.47,0,0,1,15.12,16.71Zm6.18-6.17a1.47,1.47,0,1,1,1.47-1.47A1.47,1.47,0,0,1,21.3,10.54Z"/><path class="cls-2" d="M8.35,12.93a.51.51,0,0,0-.74,0L6.56,14a.52.52,0,0,0,0,.73.51.51,0,0,0,.37.15.51.51,0,0,0,.36-.15l1.06-1.05A.52.52,0,0,0,8.35,12.93Z"/><path class="cls-2" d="M17.44,9.62a.52.52,0,0,0-.73,0l-1.06,1.05a.52.52,0,0,0,0,.73.54.54,0,0,0,.37.16.52.52,0,0,0,.36-.16l1.06-1.05A.52.52,0,0,0,17.44,9.62Z"/></svg>