<svg id="Layer_1" data-name="Layer 1" xmlns="http://www.w3.org/2000/svg" viewBox="0 0 24 24"><defs><style>.cls-1{fill:none;}.cls-2{fill:#f4b400;}</style></defs><rect class="cls-1" width="24" height="24"/><path class="cls-2" d="M23.66,11.72h0a1.27,1.27,0,0,0-.79-1.15L2.11,2A1.27,1.27,0,0,0,.6,2.46,1.26,1.26,0,0,0,.62,4l6.44,8.05a0,0,0,0,1,0,.05L1,20.47A1.28,1.28,0,0,0,1.05,22a1.14,1.14,0,0,0,.11.11,1.25,1.25,0,0,0,1.42.23l20.34-9.47A1.26,1.26,0,0,0,23.66,11.72ZM1.59,3.26s0,0,0-.06,0,0,0,0l19.42,8-12.93.3C8.1,11.41,1.59,3.26,1.59,3.26Zm.47,18s0,0-.05,0,0,0,0-.05l6.15-8.5,12.93-.3Z"/></svg>