<svg id="Layer_1" data-name="Layer 1" xmlns="http://www.w3.org/2000/svg" viewBox="0 0 24 24"><defs><style>.cls-1{fill:none;}.cls-2{fill:#262626;}</style></defs><rect class="cls-1" width="24" height="24"/><path class="cls-2" d="M23.41,10.89a14.55,14.55,0,0,0-5-4.06,14.2,14.2,0,0,0-6.27-1.51,2.16,2.16,0,0,0-.36,0A14.2,14.2,0,0,0,5.55,6.83a14.55,14.55,0,0,0-5,4.06,1.8,1.8,0,0,0,0,2.22,14.55,14.55,0,0,0,5,4.06,14.2,14.2,0,0,0,6.27,1.51,2.16,2.16,0,0,0,.36,0,14.2,14.2,0,0,0,6.27-1.51,14.55,14.55,0,0,0,5-4.06A1.8,1.8,0,0,0,23.41,10.89ZM6,16.31a13.52,13.52,0,0,1-4.64-3.79.84.84,0,0,1,0-1A13.52,13.52,0,0,1,6,7.69,11.1,11.1,0,0,1,7.53,7a6.67,6.67,0,0,0,0,9.94A11.1,11.1,0,0,1,6,16.31Zm6,1.42A5.73,5.73,0,1,1,17.73,12,5.74,5.74,0,0,1,12,17.73Zm10.66-5.21A13.52,13.52,0,0,1,18,16.31a11.1,11.1,0,0,1-1.55.66,6.67,6.67,0,0,0,0-9.94A11.1,11.1,0,0,1,18,7.69a13.52,13.52,0,0,1,4.64,3.79A.84.84,0,0,1,22.66,12.52Z"/><path class="cls-2" d="M12,9.55A2.45,2.45,0,1,0,14.45,12,2.45,2.45,0,0,0,12,9.55Zm0,3.94A1.49,1.49,0,1,1,13.49,12,1.49,1.49,0,0,1,12,13.49Z"/></svg>