<?xml version="1.0" encoding="iso-8859-1"?>
<!-- Uploaded to: SVG Repo, www.svgrepo.com, Generator: SVG Repo Mixer Tools -->
<svg fill="#ffffff" height="800px" width="800px" version="1.1" id="Layer_1" xmlns="http://www.w3.org/2000/svg" xmlns:xlink="http://www.w3.org/1999/xlink" 
	 viewBox="0 0 512 512" xml:space="preserve">
<g>
	<g>
		<g>
			<path d="M203.834,167.084L256,132.306l52.166,34.778c14.177,9.451,33.167-0.712,33.167-17.75V42.667h96.917
				c17.167,0,31.083,13.915,31.083,31.083v75.584c0,11.782,9.551,21.333,21.333,21.333S512,161.115,512,149.333V73.749
				C512,33.018,478.982,0,438.251,0H320H192H73.749C33.018,0,0,33.018,0,73.749v364.501C0,478.982,33.018,512,73.749,512H192
				c11.782,0,21.333-9.551,21.333-21.333s-9.551-21.333-21.333-21.333H73.749c-17.167,0-31.083-13.915-31.083-31.083V73.749
				c0-17.167,13.915-31.083,31.083-31.083h96.917v106.667C170.667,166.372,189.656,176.535,203.834,167.084z M298.667,42.667v66.805
				l-30.833-20.555c-7.166-4.777-16.501-4.777-23.667,0l-30.833,20.555V42.667H298.667z"/>
			<path d="M432.915,335.085c8.331,8.331,21.839,8.331,30.17,0l42.667-42.667c0.004-0.004,0.007-0.008,0.011-0.012
				c0.492-0.493,0.959-1.012,1.402-1.551c0.203-0.247,0.379-0.508,0.57-0.762c0.227-0.303,0.462-0.6,0.673-0.915
				c0.203-0.304,0.379-0.619,0.565-0.931c0.171-0.286,0.35-0.565,0.507-0.859c0.17-0.318,0.314-0.645,0.467-0.97
				c0.145-0.306,0.298-0.608,0.428-0.922c0.13-0.315,0.236-0.637,0.35-0.957c0.121-0.337,0.25-0.669,0.354-1.013
				c0.097-0.32,0.168-0.646,0.249-0.969c0.089-0.351,0.187-0.698,0.258-1.055c0.074-0.375,0.118-0.753,0.173-1.13
				c0.044-0.311,0.104-0.617,0.135-0.932c0.138-1.4,0.138-2.811,0-4.211c-0.031-0.316-0.09-0.622-0.135-0.933
				c-0.054-0.377-0.098-0.755-0.172-1.13c-0.071-0.358-0.169-0.705-0.258-1.056c-0.081-0.323-0.152-0.648-0.249-0.968
				c-0.104-0.345-0.234-0.678-0.355-1.015c-0.115-0.319-0.22-0.641-0.35-0.956c-0.13-0.315-0.284-0.616-0.428-0.923
				c-0.153-0.324-0.297-0.651-0.467-0.969c-0.158-0.294-0.337-0.574-0.508-0.86c-0.186-0.311-0.362-0.626-0.565-0.93
				c-0.211-0.316-0.447-0.613-0.674-0.917c-0.19-0.253-0.366-0.513-0.568-0.76c-0.443-0.539-0.909-1.058-1.402-1.551
				c-0.004-0.004-0.007-0.008-0.011-0.012l-42.667-42.667c-8.331-8.331-21.839-8.331-30.17,0c-8.331,8.331-8.331,21.839,0,30.17
				l6.248,6.248h-76.497c-47.153,0-85.333,38.181-85.333,85.333c0,11.782,9.551,21.333,21.333,21.333
				c11.782,0,21.333-9.551,21.333-21.333c0-23.589,19.078-42.667,42.667-42.667h76.497l-6.248,6.248
				C424.584,313.246,424.584,326.754,432.915,335.085z"/>
			<path d="M490.667,362.667c-11.782,0-21.333,9.551-21.333,21.333c0,23.589-19.078,42.667-42.667,42.667H350.17l6.248-6.248
				c8.331-8.331,8.331-21.839,0-30.17c-8.331-8.331-21.839-8.331-30.17,0l-42.667,42.667c-0.004,0.004-0.006,0.008-0.01,0.011
				c-0.493,0.494-0.96,1.012-1.403,1.552c-0.203,0.247-0.379,0.507-0.569,0.761c-0.227,0.303-0.462,0.6-0.673,0.915
				c-0.203,0.304-0.379,0.619-0.565,0.93c-0.171,0.286-0.35,0.565-0.508,0.86c-0.17,0.317-0.313,0.643-0.466,0.967
				c-0.145,0.308-0.299,0.61-0.43,0.925c-0.13,0.314-0.234,0.634-0.349,0.952c-0.122,0.338-0.251,0.672-0.356,1.018
				c-0.096,0.318-0.167,0.641-0.248,0.963c-0.089,0.353-0.188,0.702-0.259,1.061c-0.074,0.372-0.117,0.747-0.171,1.122
				c-0.045,0.314-0.105,0.623-0.136,0.941c-0.068,0.693-0.105,1.387-0.105,2.083c0,0.007-0.001,0.015-0.001,0.022
				s0.001,0.015,0.001,0.022c0.001,0.695,0.037,1.39,0.105,2.083c0.031,0.318,0.091,0.627,0.136,0.94
				c0.054,0.375,0.098,0.75,0.171,1.122c0.071,0.359,0.17,0.708,0.259,1.061c0.081,0.322,0.151,0.645,0.248,0.964
				c0.105,0.346,0.234,0.68,0.356,1.018c0.114,0.318,0.219,0.639,0.349,0.953c0.131,0.316,0.284,0.618,0.43,0.926
				c0.152,0.323,0.296,0.649,0.465,0.966c0.158,0.295,0.338,0.575,0.509,0.861c0.186,0.311,0.361,0.626,0.564,0.929
				c0.211,0.316,0.447,0.613,0.674,0.917c0.19,0.253,0.365,0.513,0.568,0.759c0.446,0.544,0.916,1.067,1.413,1.563l42.667,42.667
				c8.331,8.331,21.839,8.331,30.17,0c8.331-8.331,8.331-21.839,0-30.17l-6.248-6.248h76.497C473.819,469.333,512,431.153,512,384
				C512,372.218,502.449,362.667,490.667,362.667z"/>
		</g>
	</g>
</g>
</svg>