<?xml version="1.0" encoding="UTF-8" standalone="no"?>
<svg
   version="1.1"
   id="svg8"
   inkscape:version="1.1 (c68e22c387, 2021-05-23)"
   sodipodi:docname="ic-radio-liliac-on.svg"
   x="0px"
   y="0px"
   viewBox="0 0 24 24"
   style="enable-background:new 0 0 24 24;"
   xml:space="preserve"
   xmlns:inkscape="http://www.inkscape.org/namespaces/inkscape"
   xmlns:sodipodi="http://sodipodi.sourceforge.net/DTD/sodipodi-0.dtd"
   xmlns="http://www.w3.org/2000/svg"
   xmlns:svg="http://www.w3.org/2000/svg"
   xmlns:rdf="http://www.w3.org/1999/02/22-rdf-syntax-ns#"
   xmlns:cc="http://creativecommons.org/ns#"
   xmlns:dc="http://purl.org/dc/elements/1.1/"><metadata
   id="metadata10"><rdf:RDF><cc:Work
       rdf:about=""><dc:format>image/svg+xml</dc:format><dc:type
         rdf:resource="http://purl.org/dc/dcmitype/StillImage" /></cc:Work></rdf:RDF></metadata><defs
   id="defs8" />
<style
   type="text/css"
   id="style2">
	.st0{fill-rule:evenodd;clip-rule:evenodd;fill:#2EA1FF;}
</style>
<sodipodi:namedview
   bordercolor="#666666"
   borderopacity="1"
   gridtolerance="10"
   guidetolerance="10"
   id="namedview10"
   inkscape:current-layer="radiobttom_active"
   inkscape:cx="11.954888"
   inkscape:cy="12"
   inkscape:pageopacity="0"
   inkscape:pageshadow="2"
   inkscape:window-height="2066"
   inkscape:window-width="3840"
   inkscape:zoom="11.083333"
   objecttolerance="10"
   pagecolor="#ffffff"
   showgrid="false"
   inkscape:document-rotation="0"
   inkscape:window-x="3829"
   inkscape:window-y="-11"
   inkscape:window-maximized="1"
   inkscape:pagecheckerboard="0">
	</sodipodi:namedview>
<g
   id="radiobttom_active"
   transform="translate(-508 -240)">
	<path
   id="radio_on"
   class="st0"
   d="M520,246c-3.3,0-6,2.7-6,6s2.7,6,6,6s6-2.7,6-6S523.4,246,520,246L520,246z M520,240   c-6.6,0-12,5.4-12,12s5.4,12,12,12s12-5.4,12-12S526.6,240,520,240z M520,261.6c-5.3,0-9.6-4.3-9.6-9.6s4.3-9.6,9.6-9.6   s9.6,4.3,9.6,9.6C529.6,257.3,525.3,261.6,520,261.6z"
   style="fill:#04cccc;fill-opacity:1" />
</g>
</svg>
