<?xml version="1.0" encoding="utf-8"?>
<!-- Generator: Adobe Illustrator 25.2.0, SVG Export Plug-In . SVG Version: 6.00 Build 0)  -->
<svg version="1.1"
	 id="svg8" inkscape:version="0.92.4 (5da689c313, 2019-01-14)" sodipodi:docname="ic-radio-liliac-on.svg" xmlns:cc="http://creativecommons.org/ns#" xmlns:dc="http://purl.org/dc/elements/1.1/" xmlns:inkscape="http://www.inkscape.org/namespaces/inkscape" xmlns:rdf="http://www.w3.org/1999/02/22-rdf-syntax-ns#" xmlns:sodipodi="http://sodipodi.sourceforge.net/DTD/sodipodi-0.dtd" xmlns:svg="http://www.w3.org/2000/svg"
	 xmlns="http://www.w3.org/2000/svg" xmlns:xlink="http://www.w3.org/1999/xlink" x="0px" y="0px" viewBox="0 0 24 24"
	 style="enable-background:new 0 0 24 24;" xml:space="preserve">
<style type="text/css">
	.st0{fill-rule:evenodd;clip-rule:evenodd;fill:#810890;}
</style>
<sodipodi:namedview  bordercolor="#666666" borderopacity="1" gridtolerance="10" guidetolerance="10" id="namedview10" inkscape:current-layer="radiobttom_active" inkscape:cx="12" inkscape:cy="12" inkscape:pageopacity="0" inkscape:pageshadow="2" inkscape:window-height="480" inkscape:window-width="640" inkscape:zoom="11.083333" objecttolerance="10" pagecolor="#ffffff" showgrid="false">
	</sodipodi:namedview>
<g id="radiobttom_active" transform="translate(-508 -240)">
	<path id="radio_on" class="st0" d="M520,246c-3.3,0-6,2.7-6,6s2.7,6,6,6s6-2.7,6-6S523.4,246,520,246L520,246z M520,240
		c-6.6,0-12,5.4-12,12s5.4,12,12,12s12-5.4,12-12S526.6,240,520,240z M520,261.6c-5.3,0-9.6-4.3-9.6-9.6s4.3-9.6,9.6-9.6
		s9.6,4.3,9.6,9.6C529.6,257.3,525.3,261.6,520,261.6z"/>
</g>
</svg>
