<svg id="Layer_1" data-name="Layer 1" xmlns="http://www.w3.org/2000/svg" viewBox="0 0 24 24"><defs><style>.cls-1{fill:none;}.cls-2{fill:#f4b400;}</style></defs><rect class="cls-1" width="24" height="24"/><g id="Group_8823" data-name="Group 8823"><path id="Path_18880" data-name="Path 18880" class="cls-2" d="M8,12a4,4,0,1,0,4-4A4,4,0,0,0,8,12Zm6,0a2,2,0,1,1-2-2A2,2,0,0,1,14,12Z" transform="translate(0)"/><path id="Path_18881" data-name="Path 18881" class="cls-2" d="M7,8H5.09A8,8,0,0,1,20,12h2A10,10,0,0,0,4,6V5H2v5H7Z" transform="translate(0)"/><path id="Path_18882" data-name="Path 18882" class="cls-2" d="M17,16h1.91A8,8,0,0,1,4,12H2a10,10,0,0,0,18,6v1h2V14H17Z" transform="translate(0)"/></g><path id="Rectangle_4408" data-name="Rectangle 4408" class="cls-1" d="M0,0H24V24H0Z" transform="translate(0)"/></svg>