<?xml version="1.0" encoding="UTF-8" standalone="no"?>
<svg
   xmlns:dc="http://purl.org/dc/elements/1.1/"
   xmlns:cc="http://creativecommons.org/ns#"
   xmlns:rdf="http://www.w3.org/1999/02/22-rdf-syntax-ns#"
   xmlns:svg="http://www.w3.org/2000/svg"
   xmlns="http://www.w3.org/2000/svg"
   xmlns:sodipodi="http://sodipodi.sourceforge.net/DTD/sodipodi-0.dtd"
   xmlns:inkscape="http://www.inkscape.org/namespaces/inkscape"
   width="24px"
   height="24px"
   viewBox="0 0 24 24"
   version="1.1"
   id="svg10"
   sodipodi:docname="ic-update-liliac.svg"
   inkscape:version="0.92.4 (5da689c313, 2019-01-14)">
  <metadata
     id="metadata16">
    <rdf:RDF>
      <cc:Work
         rdf:about="">
        <dc:format>image/svg+xml</dc:format>
        <dc:type
           rdf:resource="http://purl.org/dc/dcmitype/StillImage" />
      </cc:Work>
    </rdf:RDF>
  </metadata>
  <defs
     id="defs14" />
  <sodipodi:namedview
     pagecolor="#ffffff"
     bordercolor="#666666"
     borderopacity="1"
     objecttolerance="10"
     gridtolerance="10"
     guidetolerance="10"
     inkscape:pageopacity="0"
     inkscape:pageshadow="2"
     inkscape:window-width="640"
     inkscape:window-height="480"
     id="namedview12"
     showgrid="false"
     inkscape:zoom="11.083333"
     inkscape:cx="12"
     inkscape:cy="12"
     inkscape:current-layer="ic-update-liliac" />
  <!-- Generator: Sketch 55.2 (78181) - https://sketchapp.com -->
  <title
     id="title2">Artboard</title>
  <desc
     id="desc4">Created with Sketch.</desc>
  <g
     id="Artboard"
     stroke="none"
     stroke-width="1"
     fill="none"
     fill-rule="evenodd">
    <g
       id="ic-update-liliac"
       transform="translate(2.000000, 2.000000)">
      <polygon
         id="Rectangle_4642"
         points="0 0 20 0 20 20 0 20" />
      <path
         d="m 13.248166,8.5 h 5.112736 v -5 H 16.315808 V 4.715 C 13.826605,1.948713 9.7272425,1.2030267 6.3874244,2.9089975 3.0476064,4.6149682 1.3313472,8.3312599 2.2307594,11.909608 c 0.8994121,3.578348 4.1818168,6.09303 7.9497646,6.090422 2.170768,0.0058 4.253708,-0.837879 5.78455,-2.34303 L 14.519192,14.243 C 12.701736,16.023552 9.9414164,16.506169 7.6056898,15.451764 5.2699633,14.39736 3.8549203,12.02988 4.0615705,9.5221709 4.2682207,7.0144618 6.0526733,4.8991408 8.5309137,4.2241341 11.009154,3.5491274 13.654823,4.4578012 15.157262,6.5 h -1.909096 z"
         id="Path_18962"
         style="fill:#ed1c24;fill-opacity:1;fill-rule:nonzero;stroke-width:1.0112108"
         inkscape:connector-curvature="0" />
    </g>
  </g>
</svg>
