<?xml version="1.0" encoding="UTF-8" standalone="no"?>
<svg
   xmlns:dc="http://purl.org/dc/elements/1.1/"
   xmlns:cc="http://creativecommons.org/ns#"
   xmlns:rdf="http://www.w3.org/1999/02/22-rdf-syntax-ns#"
   xmlns:svg="http://www.w3.org/2000/svg"
   xmlns="http://www.w3.org/2000/svg"
   xmlns:sodipodi="http://sodipodi.sourceforge.net/DTD/sodipodi-0.dtd"
   xmlns:inkscape="http://www.inkscape.org/namespaces/inkscape"
   id="Group_9077"
   width="24"
   height="24"
   data-name="Group 9077"
   viewBox="0 0 24 24"
   version="1.1"
   sodipodi:docname="ic-watch-password.svg"
   inkscape:version="0.92.4 (5da689c313, 2019-01-14)">
  <metadata
     id="metadata14">
    <rdf:RDF>
      <cc:Work
         rdf:about="">
        <dc:format>image/svg+xml</dc:format>
        <dc:type
           rdf:resource="http://purl.org/dc/dcmitype/StillImage" />
      </cc:Work>
    </rdf:RDF>
  </metadata>
  <sodipodi:namedview
     pagecolor="#ffffff"
     bordercolor="#666666"
     borderopacity="1"
     objecttolerance="10"
     gridtolerance="10"
     guidetolerance="10"
     inkscape:pageopacity="0"
     inkscape:pageshadow="2"
     inkscape:window-width="640"
     inkscape:window-height="480"
     id="namedview12"
     showgrid="false"
     inkscape:zoom="11.083333"
     inkscape:cx="12"
     inkscape:cy="12"
     inkscape:current-layer="Group_8293" />
  <defs
     id="defs4">
    <style
       type="text/css"
       id="style2">
            .cls-1{fill:#707070}.cls-2{fill:none}
        </style>
  </defs>
  <g
     id="Group_8292"
     data-name="Group 8292"
     transform="translate(8 8)"
     style="fill:#b3b3b3;fill-opacity:1">
    <path
       id="Path_18418"
       d="M14 18a4 4 0 1 1 4-4 3.961 3.961 0 0 1-4 4zm0-6.4a2.4 2.4 0 1 0 2.4 2.4 2.357 2.357 0 0 0-2.4-2.4z"
       class="cls-1"
       data-name="Path 18418"
       transform="translate(-10 -10)"
       style="fill:#b3b3b3;fill-opacity:1" />
  </g>
  <path
     id="Rectangle_3656"
     d="M0 0h24v24H0z"
     class="cls-2"
     data-name="Rectangle 3656" />
  <g
     id="Group_8293"
     data-name="Group 8293"
     transform="translate(.95 4)">
    <path
       id="Path_18419"
       d="M12 22c-4.562 0-8.337-2.578-10.932-7.556a.9.9 0 0 1 0-.889C3.663 8.578 7.438 6 12 6s8.337 2.578 10.932 7.556a.9.9 0 0 1 0 .889C20.337 19.422 16.562 22 12 22zm-9.28-8c1.573 2.933 4.48 6.222 9.28 6.222s7.707-3.289 9.28-6.222C19.707 11.067 16.8 7.778 12 7.778S4.293 11.067 2.72 14z"
       class="cls-1"
       data-name="Path 18419"
       transform="translate(-.95 -6)"
       style="fill:#b3b3b3;fill-opacity:1" />
  </g>
</svg>
