<?xml version="1.0" encoding="UTF-8" standalone="no"?>
<svg
   xmlns:dc="http://purl.org/dc/elements/1.1/"
   xmlns:cc="http://creativecommons.org/ns#"
   xmlns:rdf="http://www.w3.org/1999/02/22-rdf-syntax-ns#"
   xmlns:svg="http://www.w3.org/2000/svg"
   xmlns="http://www.w3.org/2000/svg"
   xmlns:sodipodi="http://sodipodi.sourceforge.net/DTD/sodipodi-0.dtd"
   xmlns:inkscape="http://www.inkscape.org/namespaces/inkscape"
   id="ic_unlock_staking"
   width="24"
   height="24"
   viewBox="0 0 24 24"
   version="1.1"
   sodipodi:docname="ic-wallet-status-staking.svg"
   inkscape:version="0.92.4 (5da689c313, 2019-01-14)">
  <metadata
     id="metadata12">
    <rdf:RDF>
      <cc:Work
         rdf:about="">
        <dc:format>image/svg+xml</dc:format>
        <dc:type
           rdf:resource="http://purl.org/dc/dcmitype/StillImage" />
      </cc:Work>
    </rdf:RDF>
  </metadata>
  <sodipodi:namedview
     pagecolor="#ffffff"
     bordercolor="#666666"
     borderopacity="1"
     objecttolerance="10"
     gridtolerance="10"
     guidetolerance="10"
     inkscape:pageopacity="0"
     inkscape:pageshadow="2"
     inkscape:window-width="640"
     inkscape:window-height="480"
     id="namedview10"
     showgrid="false"
     inkscape:zoom="11.083333"
     inkscape:cx="12"
     inkscape:cy="12"
     inkscape:current-layer="ic_unlock_staking" />
  <defs
     id="defs4">
    <style
       type="text/css"
       id="style2">
            .cls-1{fill:none}.cls-2{fill:#7c7687}
        </style>
  </defs>
  <g
     id="Group_8891"
     data-name="Group 8891">
    <path
       id="Rectangle_4445"
       d="M0 0h24v24H0z"
       class="cls-1"
       data-name="Rectangle 4445" />
  </g>
  <path
     id="Path_18910"
     d="M19.448 11.966l1.259-1.259-1.414-1.414-1.259 1.259A10.963 10.963 0 0 0 13 8.191V7A5 5 0 0 0 3 7v1H2v10h7.16l2-2H4v-6h8v5.16l2-2v-2.635a8.992 8.992 0 0 1 2.611 1.45l-8.818 8.818 1.414 1.414 8.818-8.818A8.948 8.948 0 0 1 20 19v1h2v-1a10.953 10.953 0 0 0-2.552-7.034zM11 8H5V7a3 3 0 0 1 6 0z"
     class="cls-2"
     data-name="Path 18910"
     style="fill:#b3b3b3;fill-opacity:1" />
</svg>
