<?xml version="1.0" encoding="UTF-8" standalone="no"?>
<svg
   xmlns:dc="http://purl.org/dc/elements/1.1/"
   xmlns:cc="http://creativecommons.org/ns#"
   xmlns:rdf="http://www.w3.org/1999/02/22-rdf-syntax-ns#"
   xmlns:svg="http://www.w3.org/2000/svg"
   xmlns="http://www.w3.org/2000/svg"
   id="Layer_1"
   data-name="Layer 1"
   viewBox="0 0 395 347.99999"
   version="1.1"
   width="395"
   height="348">
  <metadata
     id="metadata27">
    <rdf:RDF>
      <cc:Work
         rdf:about="">
        <dc:format>image/svg+xml</dc:format>
        <dc:type
           rdf:resource="http://purl.org/dc/dcmitype/StillImage" />
        <dc:title></dc:title>
      </cc:Work>
    </rdf:RDF>
  </metadata>
  <defs
     id="defs4">
    <style
       id="style2">.cls-1{fill:#fff;}</style>
  </defs>
  <g
     id="g848"
     transform="matrix(1.6232386,0,0,1.6232386,29.231752,-289.12282)">
    <path
       style="fill:#ffffff"
       id="path6"
       d="m 201.84,242.57 a 39.13,39.13 0 0 0 -15.16,-14.65 41.13,41.13 0 0 0 -4.07,-2 41.62,41.62 0 0 0 -7.38,-2.3 48,48 0 0 0 -10.1,-1 44.11,44.11 0 0 0 -21.67,5.35 c -0.83,0.45 -1.63,0.92 -2.4,1.42 l 2.66,7.83 a 32.38,32.38 0 0 1 4.11,-2.7 35,35 0 0 1 17.3,-4.31 37,37 0 0 1 7.62,0.75 32.39,32.39 0 0 1 7.4,2.4 c 0.77,0.35 1.52,0.74 2.26,1.15 a 31.15,31.15 0 0 1 12.07,12 35.54,35.54 0 0 1 0,34.15 31.15,31.15 0 0 1 -12.07,11.95 33.71,33.71 0 0 1 -12.7,4.06 40.44,40.44 0 0 1 -4.44,0.25 h -0.1 c -1.54,0 -4.54,-0.38 -6.14,-0.59 a 10.1,10.1 0 0 1 -3,-0.89 10.7,10.7 0 0 1 -5.39,-6.13 l -22.5,-65.95 h -7.93 l -24,69.2 -15.94,-46.2 a 29.08,29.08 0 0 0 -5.37,-9.47 39,39 0 0 0 -8.65,-7.53 c -0.78,-0.5 -1.57,-1 -2.39,-1.42 a 40.92,40.92 0 0 0 -5.47,-2.51 41.87,41.87 0 0 0 -4.85,-1.49 47.66,47.66 0 0 0 -11.23,-1.29 44.11,44.11 0 0 0 -21.63,5.33 39,39 0 0 0 -15.22,14.65 40.62,40.62 0 0 0 -5.46,20.93 40.59,40.59 0 0 0 5.46,20.92 39,39 0 0 0 15.22,14.65 44.11,44.11 0 0 0 21.67,5.35 43.85,43.85 0 0 0 21.55,-5.29 39.28,39.28 0 0 0 11.72,-9.83 l -3.36,-10 c -0.2,0.4 -0.42,0.8 -0.64,1.19 A 31.22,31.22 0 0 1 59.55,292.5 34.66,34.66 0 0 1 42.31,296.81 35,35 0 0 1 25,292.5 31.5,31.5 0 0 1 12.82,280.55 a 35.12,35.12 0 0 1 0,-34.15 31.5,31.5 0 0 1 12.18,-12 35.09,35.09 0 0 1 17.31,-4.31 35.35,35.35 0 0 1 14.37,2.99 c 1,0.43 2,0.92 2.92,1.45 0.92,0.53 1.65,1 2.43,1.5 l 0.74,0.52 a 29.11,29.11 0 0 1 10.34,14 l 9.3,26.54 9,26.66 h 8.85 l 23.62,-68.59 19.73,57.45 a 16.76,16.76 0 0 0 12.72,11.09 h 0.11 a 49.39,49.39 0 0 0 6.29,0.7 c 0.8,0 1.62,0.06 2.44,0.06 0.64,0 1.27,0 1.9,0 a 43.36,43.36 0 0 0 19.61,-5.27 39.13,39.13 0 0 0 15.12,-14.65 42.65,42.65 0 0 0 0,-42 z"
       class="cls-1" />
    <path
       style="fill:#ffffff"
       id="path8"
       d="m 7.98,338.48 c 0,-5.45 4.2,-9.52 9.92,-9.52 5.72,0 9.87,4 9.87,9.52 0,5.52 -4.21,9.52 -9.87,9.52 -5.66,0 -9.92,-4.07 -9.92,-9.52 z m 17.13,0 a 7,7 0 0 0 -7.21,-7.12 7.15,7.15 0 1 0 0,14.3 7,7 0 0 0 7.21,-7.18 z"
       class="cls-1" />
    <path
       style="fill:#ffffff"
       id="path10"
       d="m 50.5,329.18 v 18.61 H 48.32 L 37.15,333.91 v 13.88 h -2.66 v -18.61 h 2.19 l 11.16,13.88 v -13.88 z"
       class="cls-1" />
    <path
       style="fill:#ffffff"
       id="path12"
       d="m 72.25,345.47 v 2.32 H 58.74 v -18.61 h 13.14 v 2.31 H 61.4 v 5.72 h 9.34 v 2.26 H 61.4 v 6 z"
       class="cls-1" />
    <path
       style="fill:#ffffff"
       id="path14"
       d="m 115.33,329.18 -6.23,18.61 h -2.79 l -5.08,-14.87 -5.07,14.87 h -2.85 l -6.22,-18.61 h 2.74 l 5,15.12 5.24,-15.12 h 2.45 l 5.16,15.18 5.13,-15.2 z"
       class="cls-1" />
    <path
       style="fill:#ffffff"
       id="path16"
       d="m 119.53,338.48 c 0,-5.45 4.2,-9.52 9.92,-9.52 5.72,0 9.86,4 9.86,9.52 0,5.52 -4.2,9.52 -9.86,9.52 -5.66,0 -9.92,-4.07 -9.92,-9.52 z m 17.12,0 a 7.23,7.23 0 1 0 -7.2,7.15 7,7 0 0 0 7.23,-7.15 z"
       class="cls-1" />
    <path
       style="fill:#ffffff"
       id="path18"
       d="m 158.48,347.79 -4,-5.72 c -0.37,0 -0.77,0 -1.17,0 h -4.63 v 5.67 h -2.66 v -18.56 h 7.26 c 4.84,0 7.76,2.44 7.76,6.48 a 5.88,5.88 0 0 1 -4.09,5.88 l 4.41,6.25 z m -0.08,-12.13 c 0,-2.66 -1.78,-4.17 -5.18,-4.17 h -4.54 v 8.37 h 4.52 c 3.42,0 5.2,-1.5 5.2,-4.2 z"
       class="cls-1" />
    <path
       style="fill:#ffffff"
       id="path20"
       d="m 168.03,329.18 h 2.65 v 16.29 h 10.08 v 2.32 h -12.73 z"
       class="cls-1" />
    <path
       style="fill:#ffffff"
       id="path22"
       d="m 186.48,329.18 h 7.85 c 6,0 10,3.77 10,9.3 0,5.53 -4.07,9.31 -10,9.31 h -7.85 z m 7.69,16.29 c 4.6,0 7.55,-2.81 7.55,-7 0,-4.19 -2.95,-7 -7.55,-7 h -5 v 14 z"
       class="cls-1" />
  </g>
</svg>
