<?xml version="1.0" encoding="UTF-8" standalone="no"?>
<svg
   xmlns:dc="http://purl.org/dc/elements/1.1/"
   xmlns:cc="http://creativecommons.org/ns#"
   xmlns:rdf="http://www.w3.org/1999/02/22-rdf-syntax-ns#"
   xmlns:svg="http://www.w3.org/2000/svg"
   xmlns="http://www.w3.org/2000/svg"
   id="svg27"
   version="1.1"
   viewBox="0 0 128 128"
   height="128"
   width="128">
  <metadata
     id="metadata33">
    <rdf:RDF>
      <cc:Work
         rdf:about="">
        <dc:format>image/svg+xml</dc:format>
        <dc:type
           rdf:resource="http://purl.org/dc/dcmitype/StillImage" />
        <dc:title>Artboard</dc:title>
      </cc:Work>
    </rdf:RDF>
  </metadata>
  <defs
     id="defs31">
    <style
       id="style2">.cls-1{fill:#66f;}</style>
  </defs>
  <!-- Generator: Sketch 53.2 (72643) - https://sketchapp.com -->
  <title
     id="title2">Artboard</title>
  <desc
     id="desc4">Created with Sketch.</desc>
  <g
     id="Layer_2"
     data-name="Layer 2"
     transform="matrix(0.72061187,0,0,0.72061187,2.5382915,18.537605)">
    <g
       id="Layer_1-2"
       data-name="Layer 1">
      <g
         transform="matrix(0.47225393,0,0,0.47530634,5,10.999999)"
         id="g24">
        <path
           style="fill:#6666ff;fill-opacity:1"
           d="m 269.09961,0.08398437 a 89.41,89.41 0 0 0 -3.17969,0.07617188 h -28.5 V 6.1191406 c 10.06,0 20.12922,0.08 30.19922,0 2.45,0.05 5.15117,-0.059297 7.45117,0.7207032 2.05,0.9299999 3.74883,2.7707812 5.29883,4.3007812 16.17,16.8 32.84,33.139688 49,49.929687 -53.33333,53.766668 -106.66667,107.552708 -160,161.359378 C 115.94247,168.64302 62.563802,114.80349 9.2304688,60.910156 25.210469,44.960156 40.929688,28.820312 56.929688,12.820312 c 2.92,-2.72 5.469999,-6.5110932 10,-6.3710932 12.939999,-0.17 25.939453,0.1103906 38.939452,-0.099609 0.24942,-0.0091 0.49866,-0.011276 0.74805,-0.019531 h 22.37304 L 132.25,0.13085938 H 87.060547 v 0.0390625 H 72.919922 c -3.65,0.03 -7.44,-0.22914063 -11,0.38085937 -2.32,0.44999995 -4.22961,2.29007815 -5.84961,3.83007815 C 40.690312,19.910859 25.360312,35.39 10.070312,51 6.8603125,54.22 3.67,57.879609 0,60.599609 V 61 c 8.46,7.94 16.359141,16.430781 24.619141,24.550781 48.253333,48.713329 96.556819,97.338909 144.910159,145.878909 53.46,-53.80667 106.88481,-107.6369 160.27148,-161.490237 3,-2.97 5.74,-5.969453 9,-8.689453 v -0.470703 c -3.03,-2.59 -5.73047,-5.550156 -8.48047,-8.410156 -16,-16.19 -32.09,-32.320078 -48,-48.5800785 -1.49,-1.41 -3.24039,-3.08820313 -5.40039,-3.40820312 a 89.41,89.41 0 0 0 -7.82031,-0.29687501 z"
           id="path8" />
        <path
           style="opacity:1;fill:#6666ff;fill-opacity:1"
           d="m 237.40039,11.210938 v 6.058593 h 19.68945 c 4.06,0.1 8.06055,-7.8e-5 12.06055,0.419922 1.85,0.14 3.12992,1.549922 4.41992,2.669922 13.22,13.34 26.32008,26.811328 39.58008,40.111328 -45.32,45.766667 -90.61729,91.558907 -135.89062,137.378907 -2.53334,2.59333 -5.11047,5.14372 -7.73047,7.65039 C 121.77596,157.16667 73.963177,108.85388 26.089844,60.560547 c 12.79,-13.19 25.729375,-26.191406 38.609375,-39.191406 a 18,18 0 0 1 4.419922,-3.46875 23.62,23.62 0 0 1 6,-0.541016 c 16.58,0.11 33.181249,0.06055 49.781249,0.06055 a 13,13 0 0 1 1,-4.84961 v -0.125 c 0.0361,-0.09147 0.0442,-0.10675 0.15039,-0.345703 0.12,-0.27 0.25891,-0.528828 0.37891,-0.798828 H 88.630859 v -0.02344 c -5.512631,-0.0015 -11.025475,-0.0094 -16.541015,-0.03711 h -0.109375 c -2.89,0.11 -5.58,-0.04086 -8,1.869141 -3.08,2.41 -5.58961,5.540781 -8.34961,8.300781 -12.83,13.09 -25.791484,26.070703 -38.521484,39.220703 50.786667,51.400001 101.619995,102.733331 152.500005,154.000001 48.15333,-48.66 96.3138,-97.30497 144.48046,-145.931641 2.54,-2.64 5.45961,-5.118594 7.59961,-8.058594 a 21.17,21.17 0 0 0 -2.75,-3.380859 c -12.17,-12.26 -24.22968,-24.61961 -36.42968,-36.84961 -2.56,-2.59 -5,-5.52039 -8,-7.65039 -2.29,-1.55 -5.70993,-1.468828 -8.41993,-1.548828 z m -148.769531,0.06641 c 12.417911,0.0034 24.832471,-0.03711 37.250001,-0.03711 H 88.630859 Z m 36.833981,2.339844 a 12.59,12.59 0 0 0 -0.56445,3.523437 h -0.0195 a 12.59,12.59 0 0 1 0.58398,-3.523437 z"
           id="path10" />
        <path
           style="opacity:1;fill:#6666ff;fill-opacity:1"
           d="m 82,22.820312 v 0.08594 c -1.383616,-0.0059 -2.766637,-0.0069 -4.150391,-0.01563 a 24.89,24.89 0 0 0 -0.794921,-0.01953 24.89,24.89 0 0 0 -5.414063,0.558594 c -1.97,0.66 -3.670625,2.350703 -5.140625,3.720703 -10.96,11.06 -21.800234,22.230546 -32.740234,33.310547 45.08,45.790004 90.460544,91.319844 135.560544,137.089844 4.73,-4.54 9.25891,-9.25039 13.87891,-13.90039 C 223.73255,142.59706 264.33333,101.57651 305,60.589844 c -9.85,-10.54 -20.26938,-20.590235 -30.35938,-30.990235 a 37.8,37.8 0 0 0 -6.2207,-5.548828 c -1.89,-1.14 -4.39054,-1.070625 -6.56054,-1.140625 h -24.45899 v 6.220703 c 7.15,0 14.30898,-7.81e-4 21.45899,-0.05078 2.56999,0.12 5.57031,-0.199687 7.57031,1.570313 a 95.18,95.18 0 0 1 7.4707,7.289062 c 7.21,7.5 14.90984,14.680391 21.83984,22.400391 -2,2.84 -4.78976,5.329842 -7.25976,7.839844 -39.76,40.040001 -79.31016,80.280471 -119.16016,120.230471 -39.2,-39.60667 -78.384112,-79.1993 -117.550779,-118.7793 -2.87,-3.01 -6.159453,-5.790078 -8.689453,-9.080078 1.84,-2.68 4.460469,-4.950781 6.730469,-7.300781 C 56.250547,46.7 62.81,40.189375 69.25,33.609375 a 20,20 0 0 1 4.859375,-3.888672 20.18,20.18 0 0 1 5.740234,-0.611328 c 15.25,0.1 30.500001,0.05078 45.750001,0.05078 v -0.08008 h 6.16016 A 1.66,1.66 0 0 1 131.49023,29 13.14,13.14 0 0 1 125.89062,22.820312 Z"
           id="path12-1" />
        <path
           style="opacity:1;fill:#6666ff;fill-opacity:1"
           d="m 87.810547,34.359375 c -4.77,0.05 -9.591484,0.481094 -13.771485,2.871094 -3.799999,2.12 -6.579999,5.97914 -9.5,9.11914 -4.459999,4.83 -9.219999,9.43 -14,14 7.230001,7.65 14.840469,15.049844 22.230469,22.589844 32.153329,32.553337 64.373489,65.083177 96.660159,97.589847 39.59333,-40.00667 79.20341,-79.98612 118.83008,-119.939456 -5.96,-6.4 -12.40032,-12.31961 -18.32032,-18.59961 A 37,37 0 0 0 263.88086,36.25 c -2.27,-1.49 -5.36,-1.420234 -8,-1.490234 h -18.4707 v 6 c 6.47,0.06 12.9707,0.201172 19.4707,0.201172 3.4,-0.09 5.15844,2.248359 7.39844,4.318359 4.91,5.08 9.91015,10.160156 14.91015,15.160156 -36.4,37.16 -73.25875,73.950317 -109.71875,111.070317 -34.19,-34.35 -68.15125,-68.83 -102.281247,-103.250004 -2.48,-2.51 -5.259765,-4.989375 -7.259765,-7.859375 2.71,-3.47 6.201171,-6.440391 9.201171,-9.650391 2.96,-2.89 5.638438,-6.160469 8.898438,-8.730469 1.41,-1.13 3.05125,-0.988906 4.78125,-1.128906 14.24,-0.38 28.510003,-0.220703 42.750003,-0.220703 v -0.07031 h 13.10937 a 14.41,14.41 0 0 1 -3.08008,-5.910156 v -0.08984 h -23.22265 c -0.38284,-0.0045 -0.76345,-0.0049 -1.14649,-0.0098 -7.8,-0.11 -15.600153,-0.230469 -23.410153,-0.230469 z"
           id="path14-7" />
        <path
           style="opacity:1;fill:#6666ff;fill-opacity:1"
           d="m 87.630859,46.279297 c -2.11,0.07 -4.560547,-0.07875 -6.560547,0.78125 -2.379999,1.35 -4.300703,3.55875 -6.220703,5.46875 -2.43,2.54 -5.17,4.940469 -7.25,7.730469 1.29,2.52 3.839844,4.520078 5.839844,6.580078 32.009997,32.16 63.759607,64.569686 95.849607,96.679686 33.94,-34.37333 67.91016,-68.706665 101.91016,-102.999999 -4.04,-4.14 -7.92977,-8.519453 -12.25977,-12.189453 -2.1,-2.08 -4.53859,-1.790156 -7.30859,-1.910156 h -14.23047 v 6 h 8.23047 c 3.38,0.07 7.13836,-6.25e-4 10.06836,1.859375 2.49,1.6 4.49023,4.200859 6.49023,6.380859 -31.02,31.253334 -61.99635,62.545574 -92.92968,93.878904 -31.14,-31.28 -62.02063,-62.749998 -93.140629,-93.999998 2.27,-2.439999 4.299921,-4.838359 7.419921,-6.318359 3.980001,-2 8.721797,-2.08 13.091797,-2 9.570001,0.29 19.169761,0.138672 28.759761,0.138672 v -0.0098 h 21.32032 a 10.82,10.82 0 0 1 -0.71094,-6 h -24.4707 v 0.0039 c -11.30096,-0.04078 -22.595832,0.02453 -33.898441,-0.07422 z"
           id="path16-5" />
        <path
           id="path26"
           d="M 225.78,37.16 C 225.64,26.75 225.5,15.99 225.5,6.16 V 0 h -81.38 l -1.73,3.37 c -0.34,0.68 -1.08,2.2 -1.78,3.65 -0.54,1.11 -1.05,2.18 -1.3,2.68 -0.88,1.74 -1.6,3.31 -2.2,4.81 a 10.78,10.78 0 0 0 10.07,14.42 h 0.71 a 9.85,9.85 0 0 0 1.62,10.35 10.82,10.82 0 0 0 8.37,4.17 7.5,7.5 0 0 0 0.82,0 l -0.12,0.23 c -2.64,5.22 -0.54,11.27 5,14.4 a 11.29,11.29 0 0 0 5.61,1.55 7.5,7.5 0 0 0 0.82,0 l -0.89,1.69 q -6.36,12 -12.76,24.08 a 10.38,10.38 0 0 0 0.72,11.58 11.45,11.45 0 0 0 9,4.51 10.34,10.34 0 0 0 9.17,-5.49 c 2.92,-5.25 5.75,-10.64 8,-15 1.43,-2.73 2.67,-5.09 3.68,-6.93 2.44,-4.56 4.57,-8.63 6.54,-12.37 3.14,-6 5.85,-11.16 8.7,-16.17 0.42,-0.74 0.66,-0.74 0.75,-0.74 h 0.32 a 2.17,2.17 0 0 1 1.82,1.75 32.18,32.18 0 0 1 0.66,6.05 c 0,0.55 0,1.09 0,1.64 0,1.94 0,3.95 0.19,6.07 a 11.92,11.92 0 0 0 11.35,11 c 0.26,0 0.5,0 0.74,0 a 7.84,7.84 0 0 0 5.75,-2.24 8.21,8.21 0 0 0 2.27,-6.06 C 226,54.81 225.89,45.84 225.78,37.16 Z m -8.12,28 a 5.72,5.72 0 0 1 -5.54,-5.38 c -0.2,-2.41 -0.16,-4.83 -0.19,-7.25 a 38.9,38.9 0 0 0 -0.78,-7.21 8.36,8.36 0 0 0 -6.79,-6.6 6.86,6.86 0 0 0 -7.56,3.73 c -4.69,8.24 -8.92,16.73 -15.33,28.68 -2.64,4.83 -7,13.42 -11.64,21.81 -1.83,3.33 -6,2.61 -7.79,0.25 a 4.25,4.25 0 0 1 -0.22,-5 c 5.76,-10.8 11.47,-21.65 17.19,-32.46 1.36,-2.55 2.71,-5.09 4.05,-7.65 1.2,-2.32 0.69,-4.5 -1.39,-5.66 -2.08,-1.16 -4.09,-0.56 -5.36,1.76 -1.27,2.32 -2.48,4.69 -3.76,7 -1.28,2.31 -3.55,2.82 -5.94,1.44 -2.59,-1.46 -3.65,-3.93 -2.5,-6.2 2.12,-4.17 4.4,-8.27 6.53,-12.45 a 3.9,3.9 0 0 0 -3.19,-5.81 3.33,3.33 0 0 0 -3.34,1.84 c -0.88,1.63 -1.69,3.31 -2.64,4.91 -1.72,2.94 -4.95,3.09 -7.18,0.4 A 3.62,3.62 0 0 1 153.76,31 c 1.7,-3.18 3.4,-6.38 5.07,-9.59 1.23,-2.32 0.73,-4.5 -1.29,-5.71 -2.02,-1.21 -4.2,-0.48 -5.48,1.88 -0.56,1 -1.12,2.08 -1.67,3.14 a 3.7,3.7 0 0 1 -5.21,1.51 4.52,4.52 0 0 1 -2.32,-5.4 c 0.59,-1.48 1.26,-2.92 2,-4.33 0.6,-1.19 2.46,-5.11 3.07,-6.3 h 71.37 c 0,18.05 0.47,38.83 0.55,56.89 0.01,1.73 -0.68,2.15 -2.19,2.06 z"
           class="cls-1"
           style="opacity:1;fill:#6666ff" />
        <path
           id="path30"
           d="m 191.91,79 -3.78,7.2 a 23.48,23.48 0 0 1 0.93,6.59 23.79,23.79 0 1 1 -32.18,-22.29 l 3.93,-7.4 a 30,30 0 1 0 31.1,15.9 z"
           class="cls-1"
           style="opacity:1;fill:#6666ff" />
      </g>
    </g>
  </g>
</svg>
