<?xml version="1.0" encoding="UTF-8" standalone="no"?>
<svg
   xmlns:dc="http://purl.org/dc/elements/1.1/"
   xmlns:cc="http://creativecommons.org/ns#"
   xmlns:rdf="http://www.w3.org/1999/02/22-rdf-syntax-ns#"
   xmlns:svg="http://www.w3.org/2000/svg"
   xmlns="http://www.w3.org/2000/svg"
   xmlns:sodipodi="http://sodipodi.sourceforge.net/DTD/sodipodi-0.dtd"
   xmlns:inkscape="http://www.inkscape.org/namespaces/inkscape"
   version="1.1"
   id="ic_empty_Dark_transactions"
   inkscape:version="1.0.1 (3bc2e813f5, 2020-09-07)"
   sodipodi:docname="img-empty-dark-transactions.svg"
   x="0px"
   y="0px"
   viewBox="0 0 100 100"
   style="enable-background:new 0 0 100 100;"
   xml:space="preserve"><metadata
   id="metadata34"><rdf:RDF><cc:Work
       rdf:about=""><dc:format>image/svg+xml</dc:format><dc:type
         rdf:resource="http://purl.org/dc/dcmitype/StillImage" /></cc:Work></rdf:RDF></metadata><defs
   id="defs32"><pattern
     id="EMFhbasepattern"
     patternUnits="userSpaceOnUse"
     width="6"
     height="6"
     x="0"
     y="0" /></defs>
<style
   type="text/css"
   id="style2">
	.st0{fill:#2EA1FF;}
	.st1{fill:#A09EA5;}
	.st2{fill:#EFEFEF;}
</style>
<sodipodi:namedview
   bordercolor="#666666"
   borderopacity="1"
   gridtolerance="10"
   guidetolerance="10"
   id="namedview22"
   inkscape:current-layer="Group_9036"
   inkscape:cx="47.145526"
   inkscape:cy="29.835175"
   inkscape:pageopacity="0"
   inkscape:pageshadow="2"
   inkscape:window-height="2066"
   inkscape:window-width="3840"
   inkscape:zoom="12.271765"
   objecttolerance="10"
   pagecolor="#ffffff"
   showgrid="false"
   inkscape:document-rotation="0"
   inkscape:window-x="3829"
   inkscape:window-y="-11"
   inkscape:window-maximized="1">
	</sodipodi:namedview>
<g
   id="Group_9036">
	<circle
   class="st0"
   cx="49.900002"
   cy="50"
   id="circle5"
   r="17.9"
   style="fill:#141414;fill-opacity:1" />
	<path
   id="Path_18988"
   class="st0"
   d="M50,26c-13.3,0-24,10.7-24,24s10.7,24,24,24s24-10.7,24-24S63.3,26,50,26z M50,68   c-9.9,0-18-8.1-18-18s8.1-18,18-18s18,8.1,18,18S59.9,68,50,68z"
   style="fill:#141414;fill-opacity:1" />
	<g
   id="Group_9035">
		<g
   id="Group_9034">
			
			<path
   id="Rectangle_4693"
   class="st1"
   d="M83,56h2v4h-2V56z" />
			<path
   id="Rectangle_4694"
   class="st1"
   d="M83,44h2v8h-2V44z" />
			<path
   id="Rectangle_4695"
   class="st1"
   d="M15,48h2v8h-2V48z" />
			<path
   id="Rectangle_4696"
   class="st1"
   d="M15,40h2v4h-2V40z" />
			<path
   id="Path_18991"
   class="st1"
   d="M95.2,71H85v-7h-2v9h7.8L76,90.5L61.2,73H68v-2h-4.5c11.6-7.5,15-22.9,7.5-34.5     c-6.4-9.9-18.9-14-29.9-9.8L24,6.5L4.8,29H15v7h2v-9H9.2L24,9.5L38.8,27H32v2h4.5c-11.6,7.5-15,22.9-7.5,34.5     c6.4,9.9,18.9,14,29.9,9.8L76,93.5L95.2,71z M27,50c0-12.7,10.3-23,23-23s23,10.3,23,23S62.7,73,50,73S27,62.7,27,50z" />
		</g>
	</g>
	
<path
   style="fill:#f2f2f2;fill-opacity:1;fill-rule:nonzero;stroke:none;stroke-width:0.109452"
   d="m 58.850306,57.764454 c -2.882234,-4.779398 -2.882234,-4.779398 -2.882234,-4.779398 -9.011537,0 -9.011537,0 -9.011537,0 1.56881,-2.736297 1.56881,-2.736297 1.56881,-2.736297 5.837434,0 5.837434,0 5.837434,0 -4.232139,-7.114373 -4.232139,-7.114373 -4.232139,-7.114373 -8.683183,14.630068 -8.683183,14.630068 -8.683183,14.630068 -3.794332,0 -3.794332,0 -3.794332,0 10.981672,-18.24198 10.981672,-18.24198 10.981672,-18.24198 0.401324,-0.656711 0.875615,-1.094519 1.605294,-1.094519 0.766163,0 1.203971,0.437808 1.605295,1.094519 11.018155,18.24198 11.018155,18.24198 11.018155,18.24198 z"
   id="path851" /></g>
</svg>
