<?xml version="1.0" encoding="UTF-8" standalone="no"?>
<svg
   version="1.1"
   id="ic_empty_transactions"
   inkscape:version="1.1 (c68e22c387, 2021-05-23)"
   sodipodi:docname="img-empty-transactions.svg"
   x="0px"
   y="0px"
   viewBox="0 0 100 100"
   style="enable-background:new 0 0 100 100;"
   xml:space="preserve"
   xmlns:inkscape="http://www.inkscape.org/namespaces/inkscape"
   xmlns:sodipodi="http://sodipodi.sourceforge.net/DTD/sodipodi-0.dtd"
   xmlns="http://www.w3.org/2000/svg"
   xmlns:svg="http://www.w3.org/2000/svg"
   xmlns:rdf="http://www.w3.org/1999/02/22-rdf-syntax-ns#"
   xmlns:cc="http://creativecommons.org/ns#"
   xmlns:dc="http://purl.org/dc/elements/1.1/"><metadata
   id="metadata34"><rdf:RDF><cc:Work
       rdf:about=""><dc:format>image/svg+xml</dc:format><dc:type
         rdf:resource="http://purl.org/dc/dcmitype/StillImage" /></cc:Work></rdf:RDF></metadata><defs
   id="defs32"><pattern
     id="EMFhbasepattern"
     patternUnits="userSpaceOnUse"
     width="6"
     height="6"
     x="0"
     y="0" /></defs>
<style
   type="text/css"
   id="style2">
	.st0{fill:#2EA1FF;}
	.st1{fill:#666666;}
	.st2{fill:#EFEFEF;}
</style>
<circle
   class="st0"
   cx="50"
   cy="50"
   id="circle4"
   style="fill:#009dff;fill-opacity:1;stroke:#009dff;stroke-opacity:1"
   r="18" /><path
   class="cls-1"
   d="M 63.201202,46.874827 A 5.4545998,5.4545998 0 0 0 61.093342,44.832579 5.6402277,5.6402277 0 0 0 60.52626,44.560598 5.8057967,5.8057967 0 0 0 59.497138,44.240332 6.6635599,6.6635599 0 0 0 58.08963,44.096187 q -1.665891,0 -3.020019,0.745231 -0.172367,0.0948 -0.33487,0.198891 l 0.371248,1.090306 a 4.5036827,4.5036827 0 0 1 0.573199,-0.377718 q 1.081478,-0.600733 2.411464,-0.601075 a 5.2475535,5.2475535 0 0 1 1.062432,0.104737 4.604996,4.604996 0 0 1 1.026058,0.336247 q 0.160127,0.07408 0.314813,0.160128 a 4.3517127,4.3517127 0 0 1 1.682213,1.665891 q 0.608215,1.065482 0.608555,2.37984 3.4e-4,1.314359 -0.608555,2.379843 a 4.3517127,4.3517127 0 0 1 -1.682213,1.665891 4.6889704,4.6889704 0 0 1 -1.771288,0.565038 5.5674723,5.5674723 0 0 1 -0.618418,0.03577 h -0.0142 c -0.214185,0 -0.632697,-0.05266 -0.855725,-0.08288 a 1.3891483,1.3891483 0 0 1 -0.424961,-0.123773 1.4870618,1.4870618 0 0 1 -0.75067,-0.854363 L 52.928865,44.192227 H 51.823598 L 48.474814,53.836714 46.2568,47.39652 a 4.0589919,4.0589919 0 0 0 -0.747944,-1.318773 5.4267216,5.4267216 0 0 0 -1.20625,-1.046793 q -0.162172,-0.104307 -0.33284,-0.198203 a 5.7724788,5.7724788 0 0 0 -0.761881,-0.350186 5.9176492,5.9176492 0 0 0 -0.676553,-0.206699 6.6108633,6.6108633 0 0 0 -1.565602,-0.18052 q -1.665891,0 -3.019679,0.745233 -1.353786,0.745231 -2.115,2.042587 -0.759512,1.298363 -0.759512,2.915644 0,1.617265 0.760874,2.915983 0.760192,1.297356 2.115002,2.042247 1.354807,0.744891 3.019677,0.744891 1.665891,0 3.004036,-0.73673 a 5.4644592,5.4644592 0 0 0 1.639718,-1.365014 l -0.467814,-1.387453 c -0.02753,0.05578 -0.05776,0.110846 -0.08914,0.16557 a 4.3517127,4.3517127 0 0 1 -1.682538,1.665898 q -1.073659,0.601075 -2.402963,0.600733 -1.329317,-3.4e-4 -2.412486,-0.600394 A 4.3857106,4.3857106 0 0 1 36.856022,52.17865 q -0.617398,-1.065482 -0.616716,-2.37984 6.67e-4,-1.314359 0.616716,-2.379843 a 4.3874102,4.3874102 0 0 1 1.699883,-1.665891 q 1.081805,-0.600734 2.411124,-0.601076 1.083167,0 1.996005,0.399464 0.207732,0.09084 0.40798,0.201622 0.175766,0.09865 0.338275,0.209431 c 0.03405,0.02343 0.06797,0.04754 0.102049,0.07167 0.672139,0.483782 1.167489,1.174954 1.441159,1.956563 l 1.296332,3.699637 1.252817,3.715278 h 1.233785 l 3.300501,-9.564589 2.749739,8.007145 a 2.3342858,2.3342858 0 0 0 1.772637,1.544186 l 0.01463,0.0028 a 6.6200429,6.6200429 0 0 0 0.876461,0.09822 q 0.16998,0.0086 0.339979,0.0086 0.133562,0 0.265523,-0.0043 1.508491,-0.05408 2.738189,-0.731978 a 5.4505201,5.4505201 0 0 0 2.107862,-2.042587 q 0.76902,-1.305515 0.76902,-2.923805 0,-1.618287 -0.769362,-2.923462 z"
   id="path8"
   style="fill:#ffffff;fill-opacity:1;stroke-width:0.0339979" />
<sodipodi:namedview
   bordercolor="#666666"
   borderopacity="1"
   gridtolerance="10"
   guidetolerance="10"
   id="namedview22"
   inkscape:current-layer="Group_9013"
   inkscape:cx="10.093026"
   inkscape:cy="57.547958"
   inkscape:pageopacity="0"
   inkscape:pageshadow="2"
   inkscape:window-height="1387"
   inkscape:window-width="2560"
   inkscape:zoom="8.4711955"
   objecttolerance="10"
   pagecolor="#ffffff"
   showgrid="false"
   inkscape:document-rotation="0"
   inkscape:window-x="2552"
   inkscape:window-y="-8"
   inkscape:window-maximized="1"
   inkscape:pagecheckerboard="0">
	</sodipodi:namedview>
<g
   id="Group_9015">
	<path
   id="Path_18970"
   class="st0"
   d="M50,26c-13.3,0-24,10.7-24,24s10.7,24,24,24s24-10.7,24-24S63.3,26,50,26z M50,68   c-9.9,0-18-8.1-18-18s8.1-18,18-18s18,8.1,18,18S59.9,68,50,68z"
   style="fill:#009dff;fill-opacity:1" />
	<g
   id="Group_9014">
		<g
   id="Group_9013">
			<path
   id="Path_18972"
   class="st0"
   d="M50,31c-10.5,0-19,8.5-19,19s8.5,19,19,19s19-8.5,19-19S60.5,31,50,31z M50,67     c-9.4,0-17-7.6-17-17s7.6-17,17-17s17,7.6,17,17S59.4,67,50,67z"
   style="fill:#009dff;fill-opacity:1" />
			<path
   id="Rectangle_4664"
   class="st1"
   d="M83,56h2v4h-2V56z" />
			<path
   id="Rectangle_4665"
   class="st1"
   d="M83,44h2v8h-2V44z" />
			<path
   id="Rectangle_4666"
   class="st1"
   d="M15,48h2v8h-2V48z" />
			<path
   id="Rectangle_4667"
   class="st1"
   d="M15,40h2v4h-2V40z" />
			<path
   id="Path_18973"
   class="st1"
   d="M95.2,71H85v-7h-2v9h7.8L76,90.5L61.2,73H68v-2h-4.5c11.6-7.5,15-22.9,7.5-34.5     c-6.4-9.9-18.9-14-29.9-9.8L24,6.5L4.8,29H15v7h2v-9H9.2L24,9.5L38.8,27H32v2h4.5c-11.6,7.5-15,22.9-7.5,34.5     c6.4,9.9,18.9,14,29.9,9.8L76,93.5L95.2,71z M27,50c0-12.7,10.3-23,23-23s23,10.3,23,23S62.7,73,50,73S27,62.7,27,50z" />
		</g>
	</g>
</g>

</svg>
