<?xml version="1.0" encoding="utf-8"?>
<!-- Generator: Adobe Illustrator 25.2.0, SVG Export Plug-In . SVG Version: 6.00 Build 0)  -->
<svg version="1.1"
	 id="ic_empty_zpiv" inkscape:version="0.92.4 (5da689c313, 2019-01-14)" sodipodi:docname="img-empty-privacy.svg" xmlns:cc="http://creativecommons.org/ns#" xmlns:dc="http://purl.org/dc/elements/1.1/" xmlns:inkscape="http://www.inkscape.org/namespaces/inkscape" xmlns:rdf="http://www.w3.org/1999/02/22-rdf-syntax-ns#" xmlns:sodipodi="http://sodipodi.sourceforge.net/DTD/sodipodi-0.dtd" xmlns:svg="http://www.w3.org/2000/svg"
	 xmlns="http://www.w3.org/2000/svg" xmlns:xlink="http://www.w3.org/1999/xlink" x="0px" y="0px" viewBox="0 0 100 100"
	 style="enable-background:new 0 0 100 100;" xml:space="preserve">
<style type="text/css">
	.st0{fill:#F4B400;}
	.st1{fill:#666666;}
	.st2{fill:#E50E28;}
</style>
<sodipodi:namedview  bordercolor="#666666" borderopacity="1" gridtolerance="10" guidetolerance="10" id="namedview21" inkscape:current-layer="Group_9085" inkscape:cx="54.719705" inkscape:cy="65.800048" inkscape:pageopacity="0" inkscape:pageshadow="2" inkscape:window-height="480" inkscape:window-width="640" inkscape:zoom="7.123569" objecttolerance="10" pagecolor="#ffffff" showgrid="false">
	</sodipodi:namedview>
<g id="Group_9086">
	<path id="Path_19031" class="st0" d="M50,26c-13.3,0-24,10.7-24,24s10.7,24,24,24s24-10.7,24-24S63.3,26,50,26z M50,68
		c-9.9,0-18-8.1-18-18s8.1-18,18-18s18,8.1,18,18S59.9,68,50,68z"/>
	<g id="Group_9085">
		<g id="Group_9083">
			<path id="Path_19032" class="st1" d="M50,31c-10.5,0-19,8.5-19,19s8.5,19,19,19s19-8.5,19-19C69,39.5,60.5,31,50,31z M50,67
				c-9.4,0-17-7.6-17-17s7.6-17,17-17s17,7.6,17,17C67,59.4,59.4,67,50,67z"/>
			<path id="Rectangle_4749" class="st1" d="M83,56h2v4h-2V56z"/>
			<path id="Rectangle_4750" class="st1" d="M83,44h2v8h-2V44z"/>
			<path id="Rectangle_4751" class="st1" d="M15,48h2v8h-2V48z"/>
			<path id="Rectangle_4752" class="st1" d="M15,40h2v4h-2V40z"/>
			<path id="Path_19033" class="st1" d="M95.2,71H85v-7h-2v9h7.8L76,90.5L61.2,73H68v-2h-4.5c11.6-7.5,15-22.9,7.5-34.5
				c-6.4-9.9-18.9-14-29.9-9.8L24,6.5L4.8,29H15v7h2v-9H9.2L24,9.5L38.8,27H32v2h4.5c-11.6,7.5-15,22.9-7.5,34.5
				c6.4,9.9,18.9,14,29.9,9.8L76,93.5L95.2,71z M27,50c0-12.7,10.3-23,23-23s23,10.3,23,23S62.7,73,50,73C37.3,73,27,62.7,27,50z"/>
		</g>
	</g>
</g>
<circle class="st0" cx="50" cy="50" r="16.2"/>
<g>
	<path class="st2" d="M39.1,53.3c0.1-0.1,0.2-0.2,0.3-0.3c1-0.8,2.1-1.3,3.3-1.5c1-0.1,1.9,0,2.9,0.3c1.2,0.3,2.4,0.8,3.6,1.3
		c1.3,0.6,2.6,1.1,4,1.5c1.3,0.4,2.7,0.6,4,0.5c0.6,0,1.1-0.2,1.7-0.3c0,0,0,0,0.1,0c-0.5,0.2-1,0.5-1.5,0.7
		c-1.3,0.6-2.6,1.2-3.9,1.6c-1.1,0.3-2.1,0.5-3.2,0.4c-1.2,0-2.3-0.4-3.4-1c-1-0.5-1.8-1.2-2.7-1.9c-0.4-0.3-0.9-0.7-1.4-1
		c-1.1-0.7-2.3-0.8-3.6-0.5C39.3,53.3,39.2,53.3,39.1,53.3C39.2,53.3,39.2,53.3,39.1,53.3z"/>
	<path d="M62.6,53.1c-1.2,0.5-2.5,0.9-3.8,1.1c-1.1,0.2-2.3,0.1-3.4-0.1c-1.3-0.3-2.6-0.8-3.8-1.3c-1.4-0.6-2.8-1.2-4.3-1.7
		c-1.1-0.3-2.2-0.6-3.3-0.7c-1.6-0.1-3.1,0.1-4.6,0.6c-0.7,0.3-1.5,0.6-2.2,0.9C37,51.9,37,52,36.9,52c0,0,0,0,0-0.1
		c0.8-0.9,1.7-1.7,2.8-2.4c1.6-1,3.4-1.5,5.3-1.4c1.2,0.1,2.3,0.4,3.4,0.8c1.4,0.5,2.9,1.1,4.3,1.7c1.7,0.7,3.4,1.4,5.3,1.8
		c1,0.2,2,0.4,3.1,0.5C61.6,53,62.1,53,62.6,53.1z"/>
	<path class="st2" d="M64,50.4c-0.4,0.1-0.9,0.3-1.3,0.4c-0.8,0.2-1.6,0.4-2.5,0.5c-1,0.1-2,0-3-0.2c-1.1-0.2-2.2-0.6-3.3-1.1
		c-1.1-0.5-2.2-1-3.4-1.5c-1.3-0.6-2.6-1.1-4-1.3c-1.7-0.3-3.3-0.2-5,0.2c-0.9,0.3-1.8,0.6-2.6,1c-0.1,0-0.2,0.1-0.3,0.1
		c0-0.1,0.1-0.1,0.1-0.1c0.7-0.7,1.4-1.3,2.1-1.9c1.3-0.9,2.7-1.5,4.2-1.6c1.1-0.1,2.1,0,3.2,0.3c1.4,0.3,2.7,0.9,4,1.5
		c1.6,0.7,3.2,1.4,4.9,2.1c1.5,0.6,3.1,1.1,4.7,1.3C62.5,50.3,63.3,50.3,64,50.4z"/>
	<path class="st2" d="M61.8,47.6c-0.5,0.2-0.9,0.3-1.3,0.3c-1.2,0.2-2.4-0.1-3.6-0.6c-1.3-0.5-2.5-1.1-3.8-1.7
		c-1.3-0.6-2.7-1.2-4.2-1.6c-2.3-0.6-4.5-0.4-6.7,0.6c0,0-0.1,0-0.1,0c0.3-0.2,0.6-0.5,0.9-0.7c1.3-0.9,2.7-1.7,4.2-2.1
		c2.6-0.7,5-0.4,7.4,0.8c0.9,0.5,1.6,1.1,2.3,1.8c0.6,0.6,1.3,1.2,1.9,1.8c0.7,0.6,1.4,1,2.3,1.2C61.3,47.5,61.5,47.6,61.8,47.6z"/>
</g>
</svg>
