<?xml version="1.0" encoding="UTF-8" standalone="no"?>
<svg
   xmlns:dc="http://purl.org/dc/elements/1.1/"
   xmlns:cc="http://creativecommons.org/ns#"
   xmlns:rdf="http://www.w3.org/1999/02/22-rdf-syntax-ns#"
   xmlns:svg="http://www.w3.org/2000/svg"
   xmlns="http://www.w3.org/2000/svg"
   version="1.1"
   id="ic_dark_staking_on"
   x="0px"
   y="0px"
   viewBox="0 0 100 100"
   style="enable-background:new 0 0 100 100;"
   xml:space="preserve"><metadata
   id="metadata30"><rdf:RDF><cc:Work
       rdf:about=""><dc:format>image/svg+xml</dc:format><dc:type
         rdf:resource="http://purl.org/dc/dcmitype/StillImage" /><dc:title></dc:title></cc:Work></rdf:RDF></metadata><defs
   id="defs28">
	
	

		
		
		
	</defs>
<style
   type="text/css"
   id="style2">
	.st0{fill:#810890;}
	.st1{fill:#A09EA5;}
</style>

<ellipse
   id="Ellipse_640"
   class="st0"
   cx="80"
   cy="56"
   rx="12"
   ry="4"
   style="fill:#a09ea5;fill-opacity:0.14901961" /><ellipse
   id="Ellipse_641"
   class="st0"
   cx="64"
   cy="68"
   rx="12"
   ry="4"
   style="fill:#a09ea5;fill-opacity:0.14901961" /><path
   id="Rectangle_4706"
   class="st0"
   d="M 32,24 H 46 V 38 H 32 Z"
   style="fill:#a09ea5;fill-opacity:0.14901961" /><g
   id="Group_9052">
		<path
   style="fill:#a09ea5"
   d="m 12,60 h 2 v 4 h -2 z"
   class="st1"
   id="Rectangle_4707" />
		<path
   style="fill:#a09ea5"
   d="m 92,58 c 0.6,-0.5 0.9,-1.2 1,-2 0,-3.3 -6.5,-5 -13,-5 -6.5,0 -13,1.7 -13,5 0,0.8 0.4,1.5 1,2 -1.1,0.9 -1.3,2.5 -0.4,3.6 0.1,0.1 0.2,0.3 0.4,0.4 -0.3,0.3 -0.6,0.7 -0.8,1.2 -0.4,0 -0.8,-0.1 -1.2,-0.1 V 39 h 5 V 23 H 52.6 C 56.5,19.9 57.1,14.2 54,10.4 50.9,6.6 45.2,5.9 41.4,9 40.4,9.8 39.6,10.8 39,11.9 36.7,7.5 31.3,5.7 26.9,8 c -4.4,2.3 -6.2,7.7 -3.9,12.1 0.6,1.1 1.4,2.1 2.4,2.9 H 7 v 16 h 5 v 17 h 2 V 39 h 50 v 24 c -6.5,0 -13,1.7 -13,5 0,0.8 0.4,1.5 1,2 -1.1,0.9 -1.3,2.5 -0.4,3.6 0.1,0.1 0.2,0.3 0.4,0.4 -0.3,0.3 -0.6,0.6 -0.7,1 H 14 v -7 h -2 v 9 h 39.2 c 0.2,0.4 0.4,0.7 0.7,1 -1.1,0.9 -1.3,2.5 -0.4,3.6 0.1,0.1 0.2,0.3 0.4,0.4 -1.1,0.9 -1.3,2.5 -0.4,3.6 0.1,0.1 0.2,0.3 0.4,0.4 -0.6,0.5 -0.9,1.2 -1,2 0,3.3 6.5,5 13,5 5.9,0 11.8,-1.4 12.8,-4.2 1,0.1 2.1,0.2 3.2,0.2 6.5,0 13,-1.7 13,-5 0,-0.8 -0.4,-1.5 -1,-2 1.1,-0.9 1.3,-2.5 0.4,-3.6 C 92.2,78.3 92.1,78.1 91.9,78 93,77.1 93.2,75.5 92.3,74.4 92.2,74.3 92.1,74.1 91.9,74 93,73.1 93.2,71.5 92.3,70.4 92.2,70.3 92.1,70.1 91.9,70 93,69.1 93.2,67.5 92.3,66.4 92.2,66.3 92.1,66.1 91.9,66 93,65.1 93.2,63.5 92.3,62.4 92.2,62.3 92.1,62.1 91.9,62 93,61.1 93.2,59.5 92.3,58.4 92.3,58.2 92.2,58.1 92,58 Z M 31,37 H 9 V 25 H 31 Z M 24,16 c 0,-3.9 3.1,-7 7,-7 3.9,0 7,3.1 7,7 v 7 h -7 c -3.9,0 -7,-3.1 -7,-7 z M 45,37 H 33 V 25 H 45 Z M 40,23 v -7 c 0,-3.9 3.1,-7 7,-7 3.9,0 7,3.1 7,7 0,3.9 -3.1,7 -7,7 z m 7,14 V 25 h 22 v 12 z m 4,39 c 0,0.2 0,0.3 0.1,0.5 C 51,76.3 51,76.2 51,76 Z m 13,15 c -7.1,0 -11,-2 -11,-3 0,-0.2 0.2,-0.5 0.7,-0.8 2.5,1.2 6.4,1.8 10.3,1.8 3.9,0 7.8,-0.6 10.3,-1.8 0.4,0.3 0.7,0.6 0.7,0.8 0,1 -3.9,3 -11,3 z m 0,-4 c -7.1,0 -11,-2 -11,-3 0,-0.2 0.2,-0.5 0.7,-0.8 2.5,1.2 6.4,1.8 10.3,1.8 3.9,0 7.8,-0.6 10.3,-1.8 0.4,0.3 0.7,0.6 0.7,0.8 0,1 -3.9,3 -11,3 z m 0,-4 c -7.1,0 -11,-2 -11,-3 0,-0.2 0.2,-0.5 0.7,-0.8 2.5,1.2 6.4,1.8 10.3,1.8 3.9,0 7.8,-0.6 10.3,-1.8 0.4,0.3 0.7,0.6 0.7,0.8 0,1 -3.9,3 -11,3 z m 0,-4 c -7.1,0 -11,-2 -11,-3 0,-0.2 0.2,-0.5 0.7,-0.8 2.5,1.2 6.4,1.8 10.3,1.8 3.9,0 7.8,-0.6 10.3,-1.8 0.4,0.3 0.7,0.6 0.7,0.8 0,1 -3.9,3 -11,3 z m 0,-4 c -7.1,0 -11,-2 -11,-3 0,-0.2 0.2,-0.5 0.7,-0.8 2.5,1.2 6.4,1.8 10.3,1.8 3.9,0 7.8,-0.6 10.3,-1.8 0.4,0.3 0.7,0.6 0.7,0.8 0,1 -3.9,3 -11,3 z m 0,-4 c -7.1,0 -11,-2 -11,-3 0,-1 3.9,-3 11,-3 7.1,0 11,2 11,3 0,1 -3.9,3 -11,3 z m 16,16 c -1.2,0 -2.3,-0.1 -3.3,-0.2 -0.2,-0.3 -0.4,-0.6 -0.6,-0.8 0.3,-0.3 0.6,-0.7 0.8,-1.2 1,0.1 2.1,0.2 3.2,0.2 3.9,0 7.8,-0.6 10.3,-1.8 0.4,0.3 0.7,0.6 0.7,0.8 -0.1,1 -4,3 -11.1,3 z m 0,-4 c -1.2,0 -2.3,-0.1 -3.3,-0.2 -0.2,-0.3 -0.4,-0.6 -0.6,-0.8 0.3,-0.3 0.6,-0.7 0.8,-1.2 1,0.1 2.1,0.2 3.2,0.2 3.9,0 7.8,-0.6 10.3,-1.8 0.4,0.3 0.7,0.6 0.7,0.8 -0.1,1 -4,3 -11.1,3 z m 0,-4 c -1.2,0 -2.3,-0.1 -3.3,-0.2 -0.2,-0.3 -0.4,-0.6 -0.6,-0.8 0.3,-0.3 0.6,-0.7 0.8,-1.2 1,0.1 2.1,0.2 3.2,0.2 3.9,0 7.8,-0.6 10.3,-1.8 0.4,0.3 0.7,0.6 0.7,0.8 -0.1,1 -4,3 -11.1,3 z m 0,-4 c -1.2,0 -2.3,-0.1 -3.3,-0.2 -0.2,-0.3 -0.4,-0.6 -0.6,-0.8 0.3,-0.3 0.6,-0.7 0.8,-1.2 1,0.1 2.1,0.2 3.2,0.2 3.9,0 7.8,-0.6 10.3,-1.8 0.4,0.3 0.7,0.6 0.7,0.8 -0.1,1 -4,3 -11.1,3 z m 0,-4 c -1.2,0 -2.3,-0.1 -3.3,-0.2 -0.2,-0.3 -0.4,-0.6 -0.6,-0.8 0.3,-0.3 0.6,-0.7 0.8,-1.2 1,0.1 2.1,0.2 3.2,0.2 3.9,0 7.8,-0.6 10.3,-1.8 0.4,0.3 0.7,0.6 0.7,0.8 -0.1,1 -4,3 -11.1,3 z m 0,-4 c -1.2,0 -2.3,-0.1 -3.3,-0.2 -0.6,-1.2 -2.2,-2.1 -4.2,-2.7 2.5,0.6 5,0.9 7.5,0.9 3.9,0 7.8,-0.6 10.3,-1.8 0.4,0.3 0.7,0.6 0.7,0.8 0,1 -3.9,3 -11,3 z M 69.4,63.4 c 0.1,-0.1 0.2,-0.2 0.3,-0.3 0.6,0.3 1.2,0.5 1.8,0.7 -0.7,-0.1 -1.4,-0.3 -2.1,-0.4 z M 80,63 c -7.1,0 -11,-2 -11,-3 0,-0.2 0.2,-0.5 0.7,-0.8 2.5,1.2 6.4,1.8 10.3,1.8 3.9,0 7.8,-0.6 10.3,-1.8 0.4,0.3 0.7,0.6 0.7,0.8 0,1 -3.9,3 -11,3 z m 0,-4 c -7.1,0 -11,-2 -11,-3 0,-1 3.9,-3 11,-3 7.1,0 11,2 11,3 0,1 -3.9,3 -11,3 z"
   class="st1"
   id="Path_19001" />
	</g>

<path
   style="fill:#a09ea5;fill-opacity:0.14901961;stroke-width:1.51716518"
   d="m 14,39 v 17 12 7 H 51.300781 C 51.400781,74.6 51.7,74.3 52,74 51.8,73.9 51.69961,73.699609 51.599609,73.599609 50.699609,72.499609 50.9,70.9 52,70 51.4,69.5 51,68.8 51,68 51,64.7 57.499997,63 64,63 V 39 Z"
   id="rect20" /><g
   transform="matrix(0.06686202,0,0,0.06570665,21.640148,39.147093)"
   id="g832"
   style="fill:#00ffff;fill-opacity:1;stroke:#000000;stroke-opacity:0"><path
     d="m 402.71869,94.847487 a 128.32833,135.91504 0 0 0 -4.55756,0.130654 h -7.91689 v 9.101209 c 3.45346,-0.006 6.90233,-0.0145 10.35614,-0.0435 3.51643,0.0758 7.39735,-0.097 10.69851,1.0887 2.94231,1.41373 5.37124,4.20617 7.59593,6.53196 23.20847,25.53824 47.13779,50.37847 70.33193,75.9015 C 412.67852,269.29024 336.14242,351.06189 259.59416,432.85515 182.91198,351.09217 106.29584,269.24338 29.747613,187.31841 52.683378,163.07229 75.232141,138.54779 98.19661,114.22567 c 4.19102,-4.13476 7.85556,-9.90191 14.35738,-9.68909 12.07797,-0.16811 24.20522,-0.0613 36.33211,-0.0435 v -9.558457 h -7.42476 v 0.04348 h -20.30575 c -5.23877,0.04571 -10.68139,-0.339454 -15.79099,0.587822 -3.32981,0.68404 -6.062469,3.47246 -8.387618,5.813455 -22.0746,23.60768 -44.085713,47.1426 -66.031137,70.87187 -4.60725,4.89479 -9.175489,10.45336 -14.442974,14.58812 v 0.60968 c 12.142464,12.06984 23.471034,24.97583 35.326444,37.31931 69.256995,74.05068 138.578235,147.97313 207.978825,221.76037 76.73005,-81.79327 153.41433,-163.62902 230.03912,-245.49319 4.30586,-4.51479 8.24476,-9.05982 12.92379,-13.19458 v -0.71848 c -4.3489,-3.93716 -8.22786,-8.43332 -12.17489,-12.78089 -22.96448,-24.61094 -46.06301,-49.13745 -68.89834,-73.85481 -2.13856,-2.143385 -4.64548,-4.695595 -7.74571,-5.182033 a 128.32833,135.91504 0 0 0 -10.31335,-0.457175 128.32833,135.91504 0 0 0 -0.92002,0 z"
     style="opacity:1;fill:#f0b900;fill-opacity:1;stroke:#f0b900;stroke-width:8.9514389;stroke-miterlimit:4;stroke-dasharray:none;stroke-opacity:1"
     id="path8" /><path
     d="m 12.884766,14.980469 c -0.655423,0.007 -1.318224,0.0669 -1.892578,0.40039 -0.522143,0.295819 -0.903464,0.835291 -1.304688,1.273438 -0.6128268,0.673966 -1.2670314,1.315439 -1.9238281,1.953125 0.9934393,1.067461 2.039265,2.100232 3.0546871,3.152344 4.418036,4.542404 8.844896,9.081292 13.28125,13.617187 5.44033,-5.582425 10.883217,-11.161345 16.328125,-16.736328 -0.818935,-0.893039 -1.704139,-1.719409 -2.517578,-2.595703 a 5.0839908,5.162882 0 0 0 -0.832031,-0.800781 c -0.311909,-0.207911 -0.73686,-0.197265 -1.099609,-0.207032 h -0.94336 v 0.857422 c 0.360173,0.0044 0.719674,0.0078 1.080078,0.0078 0.467178,-0.01256 0.709791,0.31272 1.017578,0.601562 0.674663,0.70885 1.361804,1.417548 2.048829,2.115235 -5.001549,5.185204 -10.066381,10.320374 -15.076172,15.5 C 19.407587,29.32602 14.740419,24.513798 10.050781,19.710925 9.7100178,19.360686 9.3275448,19.015693 9.0527344,18.615221 9.4251024,18.131027 9.906145,17.71548 10.318359,17.267565 c 0.406719,-0.403263 0.774716,-0.860139 1.222657,-1.21875 0.193741,-0.157677 0.418538,-0.136714 0.65625,-0.15625 0.972269,-0.02635 1.944675,-0.03401 2.917968,-0.03516 V 15 C 14.371597,14.98992 13.62926,14.98047 12.884766,14.98047 Z"
     transform="matrix(10.955263,0,0,11.147895,-4.7314113,-15.458223)"
     style="opacity:1;fill:#f0b900;fill-opacity:1;stroke:#f0b900;stroke-width:1;stroke-miterlimit:4;stroke-dasharray:none;stroke-opacity:1"
     id="path14" /><rect
     y="99.840103"
     x="219.90202"
     height="100.85415"
     width="102.88555"
     id="rect993"
     style="fill:none;fill-opacity:1;stroke:#f0b900;stroke-width:18.78697014;stroke-miterlimit:4;stroke-dasharray:none;stroke-opacity:1" /><rect
     transform="matrix(0.55524729,-0.8316853,0.82257929,0.56865044,0,0)"
     y="347.22757"
     x="-79.677498"
     height="10.819735"
     width="70.781349"
     id="rect1007"
     style="fill:#1a1a1a;fill-opacity:1;stroke:#f0b900;stroke-width:13.26226139;stroke-miterlimit:4;stroke-dasharray:none;stroke-opacity:1" /></g></svg>