<?xml version="1.0" encoding="UTF-8" standalone="no"?>
<svg
   xmlns:dc="http://purl.org/dc/elements/1.1/"
   xmlns:cc="http://creativecommons.org/ns#"
   xmlns:rdf="http://www.w3.org/1999/02/22-rdf-syntax-ns#"
   xmlns:svg="http://www.w3.org/2000/svg"
   xmlns="http://www.w3.org/2000/svg"
   xml:space="preserve"
   style="enable-background:new 0 0 100 100;"
   viewBox="0 0 100 100"
   y="0px"
   x="0px"
   id="ic_empty_transactions"
   version="1.1"><metadata
   id="metadata34"><rdf:RDF><cc:Work
       rdf:about=""><dc:format>image/svg+xml</dc:format><dc:type
         rdf:resource="http://purl.org/dc/dcmitype/StillImage" /><dc:title></dc:title></cc:Work></rdf:RDF></metadata><defs
   id="defs32"><pattern
   y="0"
   x="0"
   height="6"
   width="6"
   patternUnits="userSpaceOnUse"
   id="EMFhbasepattern" />
	
	

		
	
			
			
			
			
			
			
		</defs>
<style
   id="style2"
   type="text/css">
	.st0{fill:#2EA1FF;}
	.st1{fill:#666666;}
	.st2{fill:#EFEFEF;}
</style>


<ellipse
   ry="23.786491"
   rx="23.845514"
   cy="50.125103"
   cx="49.933918"
   id="path875"
   style="fill:#222333;fill-opacity:0.93333333;stroke-width:4.93211079" /><g
   style="fill:#a09ea5;fill-opacity:1"
   id="g855"><path
     style="fill:#a09ea5;fill-opacity:1"
     d="m 83,56 h 2 v 4 h -2 z"
     class="st1"
     id="Rectangle_4664" /><path
     style="fill:#a09ea5;fill-opacity:1"
     d="m 83,44 h 2 v 8 h -2 z"
     class="st1"
     id="Rectangle_4665" /><path
     style="fill:#a09ea5;fill-opacity:1"
     d="m 15,48 h 2 v 8 h -2 z"
     class="st1"
     id="Rectangle_4666" /><path
     style="fill:#a09ea5;fill-opacity:1"
     d="m 15,40 h 2 v 4 h -2 z"
     class="st1"
     id="Rectangle_4667" /><path
     style="fill:#a09ea5;fill-opacity:1"
     d="M 95.2,71 H 85 v -7 h -2 v 9 h 7.8 L 76,90.5 61.2,73 H 68 V 71 H 63.5 C 75.1,63.5 78.5,48.1 71,36.5 64.6,26.6 52.1,22.5 41.1,26.7 L 24,6.5 4.8,29 H 15 v 7 h 2 V 27 H 9.2 L 24,9.5 38.8,27 H 32 v 2 h 4.5 c -11.6,7.5 -15,22.9 -7.5,34.5 6.4,9.9 18.9,14 29.9,9.8 L 76,93.5 Z M 27,50 C 27,37.3 37.3,27 50,27 62.7,27 73,37.3 73,50 73,62.7 62.7,73 50,73 37.3,73 27,62.7 27,50 Z"
     class="st1"
     id="Path_18973" /></g>

<path
   id="path852"
   d="m 60.533437,59.852912 c -3.533509,-5.859365 -3.533509,-5.859365 -3.533509,-5.859365 -11.047808,0 -11.047808,0 -11.047808,0 1.923302,-3.354594 1.923302,-3.354594 1.923302,-3.354594 7.156475,0 7.156475,0 7.156475,0 -5.188445,-8.721949 -5.188445,-8.721949 -5.188445,-8.721949 -10.645255,17.935908 -10.645255,17.935908 -10.645255,17.935908 -4.651708,0 -4.651708,0 -4.651708,0 13.463116,-22.363985 13.463116,-22.363985 13.463116,-22.363985 0.49201,-0.805098 1.073471,-1.341839 1.968032,-1.341839 0.939287,0 1.476022,0.536741 1.968032,1.341839 13.507842,22.363985 13.507842,22.363985 13.507842,22.363985 z"
   style="fill:#f2f2f2;fill-opacity:1;fill-rule:nonzero;stroke:none;stroke-width:0.13418399" /></svg>