<?xml version="1.0" encoding="UTF-8" standalone="no"?>
<svg
   xmlns:dc="http://purl.org/dc/elements/1.1/"
   xmlns:cc="http://creativecommons.org/ns#"
   xmlns:rdf="http://www.w3.org/1999/02/22-rdf-syntax-ns#"
   xmlns:svg="http://www.w3.org/2000/svg"
   xmlns="http://www.w3.org/2000/svg"
   height="512"
   width="512"
   version="1.1"
   viewBox="0 0 512 512"
   data-name="Layer 1"
   id="Layer_1">
  <metadata
     id="metadata32">
    <rdf:RDF>
      <cc:Work
         rdf:about="">
        <dc:format>image/svg+xml</dc:format>
        <dc:type
           rdf:resource="http://purl.org/dc/dcmitype/StillImage" />
        <dc:title></dc:title>
      </cc:Work>
    </rdf:RDF>
  </metadata>
  <defs
     id="defs4">
    <style
       id="style2">.cls-1{fill:#22252e;}.cls-2{fill:#fff;}.cls-3{fill:#eeb91c;}</style>
  </defs>
  <g
     transform="matrix(0.83555591,0,0,0.83555591,-239.06688,343.8587)"
     id="g845">
    <g
       id="g962"
       transform="translate(0,-532)">
      <path
         id="path8"
         class="cls-3"
         d="m 446.67,267.31 a 53.4,53.4 0 0 0 -7.81,0.59 c -3.29,0.69 -6,3.17 -8.29,5.24 q -33,32.06 -65.75,64.25 c -4.57,4.55 -9.14,9.65 -14.43,13.37 v 0.55 c 12.15,10.9 23.44,22.61 35.16,33.92 Q 489.1,485.94 592.64,586.39 707.35,474.93 821.75,363.58 c 4.29,-4.13 8.14,-8.27 12.86,-12 v -0.69 c -4.29,-3.59 -8.15,-7.72 -12.15,-11.58 -22.87,-22.34 -45.88,-44.54 -68.6,-67 -2.15,-1.93 -4.58,-4.27 -7.72,-4.69 -3.72,-0.14 -7.43,-0.27 -11.15,-0.27 -1.57,0 -3,0 -4.57,0.13 h -38 v 8.28 c 13.5,0 26.89,0.12 40.41,0 3.57,0.13 7.43,-0.14 10.72,1 2.86,1.24 5.28,3.86 7.57,5.93 23.15,23.16 46.88,45.64 70,68.8 Q 706.92,462.72 592.5,574 477.79,462.52 363.5,351.19 c 22.86,-22.06 45.31,-44.25 68.17,-66.31 4.15,-3.73 7.86,-9 14.29,-8.83 18.44,-0.28 37,0.14 55.6,-0.14 h 33.16 l 4.71,-8.54 h -84.85 c -2.64,0 -5.29,-0.07 -7.91,0 z"
         style="fill:#eeb91c" />
      <path
         id="path870"
         class="cls-3"
         d="m 692.44,288.59 v 7.85 h 17 c 5.46,0.12 10.79,0 16.13,0.51 2.53,0.13 4.13,1.93 5.86,3.47 17.6,17.11 35.07,34.48 52.8,51.58 L 603,528.72 c -3.33,3.34 -6.8,6.56 -10.26,9.9 Q 497.14,445.25 401.42,352.13 c 17.06,-17 34.26,-33.7 51.46,-50.42 a 24.36,24.36 0 0 1 5.86,-4.5 33.34,33.34 0 0 1 8,-0.64 c 22.13,0.13 44.26,0.13 66.39,0.13 0,-0.38 0,-0.76 0.07,-1.13 0,0.2 0,0.4 -0.07,0.61 a 12.77,12.77 0 0 1 0.47,-3.42 17.63,17.63 0 0 0 -0.31,1.93 17,17 0 0 1 1.18,-4.17 v -0.13 c 0,-0.13 0,-0.12 0.26,-0.38 0.26,-0.26 0.4,-0.65 0.53,-1 h -72.62 c -3.86,0.13 -7.47,0 -10.67,2.44 -4.13,3.09 -7.46,7.08 -11.06,10.68 -17.2,16.46 -34.53,33.18 -51.46,50 Q 491,451.3 592.77,550.2 q 96.39,-94 192.65,-187.65 c 3.34,-3.35 7.33,-6.56 10.13,-10.42 a 23.73,23.73 0 0 0 -3.73,-4.38 c -16.27,-15.81 -32.26,-31.63 -48.53,-47.33 -3.46,-3.34 -6.67,-7.07 -10.67,-9.9 -3.06,-2.06 -7.6,-1.93 -11.2,-1.93 z"
         style="fill:#eeb91c" />
      <path
         id="path24"
         class="cls-3"
         d="m 481.09,317.1 c -6.54,0 -13.08,0.65 -18.8,3.81 -5.18,2.76 -9,7.89 -13,12 -6.14,6.31 -12.54,12.36 -19.08,18.41 9.86,10.08 20.22,19.68 30.3,29.68 q 65.84,64.29 131.79,128.32 81,-78.88 161.91,-157.64 c -8.18,-8.41 -16.9,-16.17 -25,-24.45 a 44.38,44.38 0 0 0 -8.31,-7.5 c -3.13,-2 -7.36,-1.83 -10.9,-2 h -16.5 v 8 c 6,0.08 11.91,0.14 17.86,0.14 4.64,-0.13 7.09,2.9 10.09,5.66 6.68,6.7 13.49,13.41 20.3,20 -49.6,48.91 -99.89,97.29 -149.5,146.07 Q 522.39,429.77 452.88,361.8 c -3.41,-3.29 -7.22,-6.58 -9.95,-10.39 3.68,-4.6 8.45,-8.41 12.54,-12.75 4.09,-3.82 7.63,-8.16 12.13,-11.44 1.91,-1.45 4.23,-1.31 6.54,-1.45 19.35,-0.52 38.84,-0.26 58.33,-0.26 v -0.13 h 17.85 a 19.07,19.07 0 0 1 -4.22,-7.76 v -0.13 H 513 q -16,-0.39 -31.91,-0.39 z"
         style="fill:#eeb91c" />
      <path
         id="path26"
         class="cls-3"
         d="m 679.32,318.9 c -0.14,-14.34 -0.42,-29.23 -0.42,-42.74 v -8.55 H 562.56 l -2.43,4.69 c -0.43,1 -1.57,3 -2.58,5.1 -0.71,1.51 -1.57,3 -1.85,3.72 a 65.72,65.72 0 0 0 -3.15,6.62 14.75,14.75 0 0 0 9.29,19 15.24,15.24 0 0 0 5.15,0.83 h 1 a 13.24,13.24 0 0 0 2.28,14.34 15.87,15.87 0 0 0 12,5.79 h 1.14 l -0.14,0.28 c -3.72,7.17 -0.71,15.58 7.15,19.85 a 16,16 0 0 0 8,2.07 h 1.14 l -1.28,2.34 c -6,11 -12.15,22.06 -18.3,33.23 a 14,14 0 0 0 1,16 16.47,16.47 0 0 0 12.87,6.2 15,15 0 0 0 13.15,-7.56 c 4.14,-7.31 8.29,-14.62 11.43,-20.68 2,-3.73 3.86,-7 5.29,-9.52 3.43,-6.34 6.57,-11.86 9.29,-17.09 4.43,-8.28 8.43,-15.45 12.43,-22.34 0.57,-1 1,-1 1.15,-1 H 647 a 2.86,2.86 0 0 1 2.6,2.52 55.39,55.39 0 0 1 1,8.27 v 2.2 c 0,2.62 0,5.52 0.28,8.41 a 16.84,16.84 0 0 0 16.3,15.17 h 1 a 11.63,11.63 0 0 0 8.29,-3 10.89,10.89 0 0 0 3.28,-8.41 c -0.14,-11.48 -0.28,-23.88 -0.43,-35.74 z m -11.57,38.6 a 7.86,7.86 0 0 1 -7.86,-7.44 c -0.29,-3.31 -0.29,-6.62 -0.29,-10.07 a 47.17,47.17 0 0 0 -1.14,-9.92 11.84,11.84 0 0 0 -9.72,-9.1 10.08,10.08 0 0 0 -10.86,5.1 c -6.72,11.3 -12.72,23 -21.87,39.57 -3.72,6.62 -10,18.47 -16.58,30.05 -2.57,4.55 -8.57,3.59 -11.15,0.42 a 5.65,5.65 0 0 1 -0.28,-6.9 c 8.29,-14.89 16.43,-29.91 24.58,-44.81 2,-3.58 3.86,-7 5.86,-10.61 1.71,-3.17 1,-6.21 -2,-7.86 -3,-1.65 -5.86,-0.83 -7.72,2.48 -1.86,3.31 -3.57,6.48 -5.43,9.65 -1.86,3.17 -5.15,3.86 -8.43,1.93 -3.72,-2.07 -5.15,-5.37 -3.58,-8.55 3,-5.79 6.29,-11.44 9.29,-17.23 a 5.16,5.16 0 0 0 -2.14,-7.31 5,5 0 0 0 -2.43,-0.69 4.89,4.89 0 0 0 -4.72,2.48 c -1.28,2.21 -2.43,4.55 -3.71,6.76 -2.43,4 -7,4.27 -10.29,0.55 a 4.88,4.88 0 0 1 -0.72,-5.93 l 7.29,-13.23 c 1.72,-3.17 1,-6.21 -1.86,-7.86 -2.86,-1.65 -6,-0.69 -7.86,2.62 -0.85,1.38 -1.57,2.89 -2.43,4.27 a 5.3,5.3 0 0 1 -7.14,2.21 0.49,0.49 0 0 1 -0.29,-0.14 6.1,6.1 0 0 1 -3.27,-7.44 c 0.86,-2.07 1.86,-4 2.86,-5.93 0.86,-1.66 3.58,-7 4.43,-8.69 h 102.03 c 0,25 0.71,53.5 0.86,78.45 -0.29,2.62 -1.29,3.17 -3.43,3.17 z"
         style="fill:#eeb91c" />
      <path
         id="path30"
         class="cls-3"
         d="m 631.37,379.91 -5.43,9.92 a 32.9,32.9 0 0 1 1.28,9.1 c 0,18.06 -15.29,32.82 -34,32.82 -18.71,0 -34,-14.76 -34,-32.82 0,-13.65 8.72,-25.78 22,-30.61 l 5.58,-10.2 c -23.44,3.45 -39.59,24.4 -36,47 3.59,22.6 25.3,38.19 48.74,34.74 23.44,-3.45 39.59,-24.4 36,-47 a 37.35,37.35 0 0 0 -4.17,-12.95 z"
         style="fill:#eeb91c" />
    </g>
  </g>
</svg>
