<?xml version="1.0" encoding="UTF-8" standalone="no"?>
<svg
   xmlns:dc="http://purl.org/dc/elements/1.1/"
   xmlns:cc="http://creativecommons.org/ns#"
   xmlns:rdf="http://www.w3.org/1999/02/22-rdf-syntax-ns#"
   xmlns:svg="http://www.w3.org/2000/svg"
   xmlns="http://www.w3.org/2000/svg"
   id="Layer_1"
   data-name="Layer 1"
   viewBox="0 0 511.99999 511.99999"
   version="1.1"
   width="512"
   height="512">
  <metadata
     id="metadata15">
    <rdf:RDF>
      <cc:Work
         rdf:about="">
        <dc:format>image/svg+xml</dc:format>
        <dc:type
           rdf:resource="http://purl.org/dc/dcmitype/StillImage" />
        <dc:title></dc:title>
      </cc:Work>
    </rdf:RDF>
  </metadata>
  <defs
     id="defs4">
    <style
       id="style2">.cls-1{fill:#eaeaea;}.cls-2{fill:#1e71a1;}.cls-3{fill:#0c3a61;}</style>
  </defs>
  <g
     id="g847"
     transform="matrix(0.548544,0,0,0.548544,69.423727,69.423727)">
    <circle
       style="fill:#ffffff"
       id="circle6"
       r="340.13"
       cy="340.13"
       cx="340.13"
       class="cls-1" />
    <g
       transform="matrix(1.018033,0,0,1.018033,-6.1163902,-6.137839)"
       id="g827">
      <path
         style="fill:#1e71a1"
         class="cls-2"
         d="m 98.85,350.18 a 24.24,24.24 0 0 0 1.9,-3.38 c 5.83,-16.06 17.2,-27.14 31.9,-35.06 22.23,-12 46.39,-16.84 71.3,-17.21 q 102.93,-1.51 205.87,-2 c 29.72,-0.18 59.44,0.51 89.16,0.5 6,0 7.84,1.95 7.85,7.94 0.06,29.31 -13.08,50.68 -40.5,61.12 -12.45,4.74 -26.12,8.2 -39.34,8.63 q -98,3.15 -196,4.16 c -67.49,0.66 -119.36,28.85 -156.09,85.21 -6.18,9.48 -11.86,19.28 -18.41,30 a 316,316 0 0 1 -29.5,-136 C 27.2,306.84 36.17,261.21 57.72,219.22 120.4,97.09 221,33.93 358.38,36.79 465.17,39 548.54,89.26 612.21,176.67 h -31.15 c -72.77,0.05 -145.55,-0.37 -218.32,0.32 -40,0.37 -79.92,2.46 -119.87,4.07 -10.23,0.42 -20.47,1.62 -30.62,3.05 -31.13,4.37 -53.56,22.24 -71,47.13 -22,31.34 -33.55,66.94 -41.22,104 -0.92,4.47 -1.47,9 -2.14,13.54 -0.07,0.28 0.4,0.63 0.96,1.4 z"
         id="path8"
         transform="translate(-6.87,-16.25)" />
      <path
         style="fill:#0c3a61"
         class="cls-3"
         d="m 124,585.13 c 19.17,-25.33 36.83,-51.93 60.26,-73.92 18.66,-17.51 41.58,-23.57 66.19,-24.08 40.41,-0.84 80.85,-0.43 121.25,-1.51 34.93,-0.92 69.89,-2.34 104.72,-5 55.05,-4.24 94.56,-33 121.08,-80.55 18.43,-33.08 28.12,-69.07 34,-106.14 3.43,-21.53 5.66,-43.26 8.39,-64.57 46.36,94.26 44.43,267.53 -95.73,378.17 C 409.8,713.56 226.81,689.16 124,585.13 Z"
         transform="translate(-6.87,-16.25)"
         id="path10" />
    </g>
  </g>
</svg>
