<svg id="Layer_1" data-name="Layer 1" xmlns="http://www.w3.org/2000/svg" viewBox="0 0 72 72"><defs><style>.cls-1{fill:#fff;}.cls-2{fill:none;}</style></defs><rect class="cls-1" width="72" height="72"/><path d="M29.13,5h.66V7.45h-.62s-1.63,0-1.82-.34C27.05,6.51,28.45,5,29.13,5Z" transform="translate(0 -0.3)"/><path d="M30.45,7.45h-.66V5h.63s1.6,0,1.79.33C32.51,5.9,31.14,7.45,30.45,7.45Z" transform="translate(0 -0.3)"/><path d="M36.58,5h.66V7.45h-.62S35,7.5,34.8,7.11C34.5,6.51,35.89,5,36.58,5Z" transform="translate(0 -0.3)"/><path d="M37.9,7.45h-.66V5h.62s1.61,0,1.8.33C40,5.9,38.59,7.45,37.9,7.45Z" transform="translate(0 -0.3)"/><path d="M47.17,6.79v.66H44.69V6.83S44.64,5.2,45,5C45.63,4.71,47.17,6.1,47.17,6.79Z" transform="translate(0 -0.3)"/><path d="M34.64,9.53C35.27,8.37,33,6.7,32.39,7.85S34,10.68,34.64,9.53" transform="translate(0 -0.3)"/><path d="M44,7.45h.66V9.93h-.62s-1.63.05-1.82-.34C42,9,43.34,7.45,44,7.45Z" transform="translate(0 -0.3)"/><rect x="44.69" y="7.15" width="2.48" height="2.48"/><path d="M27.31,11.75v.66H24.83v-.62s0-1.62.33-1.82C25.76,9.67,27.31,11.07,27.31,11.75Z" transform="translate(0 -0.3)"/><path d="M37.13,12c.62-1.17-1.64-2.84-2.26-1.69s1.64,2.83,2.26,1.69" transform="translate(0 -0.3)"/><path d="M42.21,11.75v.66H39.73v-.62s-.06-1.62.33-1.82C40.66,9.67,42.21,11.07,42.21,11.75Z" transform="translate(0 -0.3)"/><rect x="44.69" y="9.63" width="2.48" height="2.48"/><rect x="24.83" y="12.11" width="2.48" height="2.48"/><path d="M32.28,13.27v-.86H30.65a.85.85,0,0,0-.86.86V14.9h2.49Z" transform="translate(0 -0.3)"/><path d="M32.94,14.9h-.66V12.42h.62s1.6-.06,1.79.33C35,13.35,33.62,14.9,32.94,14.9Z" transform="translate(0 -0.3)"/><path d="M39.72,13.27v-.86H38.09a.86.86,0,0,0-.6.25.82.82,0,0,0-.25.61V14.9h2.48Z" transform="translate(0 -0.3)"/><rect x="39.72" y="12.11" width="2.48" height="2.48"/><rect x="42.21" y="12.11" width="2.48" height="2.48"/><rect x="44.69" y="12.11" width="2.48" height="2.48"/><rect x="24.83" y="14.59" width="2.48" height="2.48"/><rect x="27.31" y="14.59" width="2.48" height="2.48"/><path d="M32.28,14.9H29.79v2.48h1.63a.82.82,0,0,0,.61-.25.86.86,0,0,0,.25-.6Z" transform="translate(0 -0.3)"/><path d="M36.58,14.9h.66v2.48h-.62S35,17.43,34.8,17C34.5,16.44,35.89,14.9,36.58,14.9Z" transform="translate(0 -0.3)"/><rect x="37.24" y="14.59" width="2.48" height="2.48"/><path d="M44.69,15.53v-.66h2.48v.62s0,1.63-.33,1.82C46.24,17.61,44.69,16.22,44.69,15.53Z" transform="translate(0 -0.3)"/><rect x="24.83" y="17.08" width="2.48" height="2.48"/><path d="M39.72,17.38H37.24V19a.8.8,0,0,0,.25.6.82.82,0,0,0,.6.25h1.63Z" transform="translate(0 -0.3)"/><rect x="39.72" y="17.08" width="2.48" height="2.48"/><path d="M42.87,19.86h-.66V17.38h.62s1.6-.05,1.79.34C44.92,18.32,43.55,19.86,42.87,19.86Z" transform="translate(0 -0.3)"/><rect x="24.83" y="19.56" width="2.48" height="2.48"/><path d="M32.28,21.69v.65H29.8v-.62s-.06-1.62.33-1.82C30.73,19.61,32.28,21,32.28,21.69Z" transform="translate(0 -0.3)"/><path d="M37.13,22c.62-1.17-1.64-2.84-2.26-1.69s1.64,2.83,2.26,1.69" transform="translate(0 -0.3)"/><path d="M39.72,20.5v-.66H42.2v.62s.06,1.63-.33,1.82C41.27,22.58,39.72,21.18,39.72,20.5Z" transform="translate(0 -0.3)"/><path d="M47.17,21.69v.65H44.69v-.62s0-1.62.34-1.82C45.63,19.61,47.17,21,47.17,21.69Z" transform="translate(0 -0.3)"/><path d="M24.83,23v-.66h2.48v.62s.05,1.63-.34,1.82C26.37,25.06,24.83,23.67,24.83,23Z" transform="translate(0 -0.3)"/><rect x="29.79" y="22.04" width="2.48" height="2.48"/><path d="M34.76,23.2a.82.82,0,0,0-.25-.61.86.86,0,0,0-.6-.25H32.28v2.49h2.48Z" transform="translate(0 -0.3)"/><path d="M44.69,23v-.66h2.48v.62s0,1.63-.33,1.82C46.24,25.06,44.69,23.67,44.69,23Z" transform="translate(0 -0.3)"/><path d="M7.45,26.65v.66H5v-.62s0-1.63.33-1.82C5.9,24.57,7.45,26,7.45,26.65Z" transform="translate(0 -0.3)"/><path d="M11.75,24.83h.66v2.48h-.62S10.17,27.36,10,27C9.67,26.37,11.07,24.83,11.75,24.83Z" transform="translate(0 -0.3)"/><rect x="12.41" y="24.53" width="2.48" height="2.48"/><rect x="14.9" y="24.53" width="2.48" height="2.48"/><rect x="17.38" y="24.53" width="2.48" height="2.48"/><path d="M20.52,27.31h-.66V24.83h.62s1.61,0,1.8.33C22.58,25.76,21.21,27.31,20.52,27.31Z" transform="translate(0 -0.3)"/><path d="M29.13,24.83h.66v2.48h-.62s-1.63.05-1.82-.34C27.05,26.37,28.45,24.83,29.13,24.83Z" transform="translate(0 -0.3)"/><rect x="29.79" y="24.53" width="2.48" height="2.48"/><rect x="32.28" y="24.53" width="2.48" height="2.48"/><path d="M39.72,26.65v.66H37.24v-.62s-.05-1.63.34-1.82C38.18,24.57,39.72,26,39.72,26.65Z" transform="translate(0 -0.3)"/><path d="M51.48,24.83h.66v2.48h-.62s-1.63.05-1.82-.34C49.4,26.37,50.79,24.83,51.48,24.83Z" transform="translate(0 -0.3)"/><rect x="52.14" y="24.53" width="2.48" height="2.48"/><rect x="54.62" y="24.53" width="2.48" height="2.48"/><rect x="57.1" y="24.53" width="2.48" height="2.48"/><path d="M60.25,27.31h-.66V24.83h.62s1.6,0,1.79.33C62.3,25.76,60.93,27.31,60.25,27.31Z" transform="translate(0 -0.3)"/><rect x="4.97" y="27.01" width="2.48" height="2.48"/><path d="M9.93,28.16a.85.85,0,0,0-.85-.85H7.45v2.48H9.93Z" transform="translate(0 -0.3)"/><path d="M14.9,27.31H12.41v1.63a.85.85,0,0,0,.86.85H14.9Z" transform="translate(0 -0.3)"/><path d="M17.38,27.31H14.9v2.48h1.63a.82.82,0,0,0,.6-.25.79.79,0,0,0,.25-.6Z" transform="translate(0 -0.3)"/><path d="M27.19,29.4c.63-1.17-1.63-2.84-2.25-1.69s1.64,2.83,2.25,1.69" transform="translate(0 -0.3)"/><rect x="29.79" y="27.01" width="2.48" height="2.48"/><path d="M34.76,27.31H32.28v2.48h1.63a.82.82,0,0,0,.6-.25.79.79,0,0,0,.25-.6Z" transform="translate(0 -0.3)"/><rect x="37.24" y="27.01" width="2.48" height="2.48"/><path d="M49.66,29.13v.66H47.17v-.62s-.05-1.63.34-1.82C48.11,27.05,49.66,28.45,49.66,29.13Z" transform="translate(0 -0.3)"/><path d="M64.55,29.13v.66H62.07v-.62s0-1.63.34-1.82C63,27.05,64.55,28.45,64.55,29.13Z" transform="translate(0 -0.3)"/><path d="M7.45,29.79H5v1.63a.85.85,0,0,0,.85.86H7.45Z" transform="translate(0 -0.3)"/><rect x="7.45" y="29.49" width="2.48" height="2.48"/><path d="M19.86,30.65v-.86H18.23a.86.86,0,0,0-.6.25.82.82,0,0,0-.25.61v1.63h2.48Z" transform="translate(0 -0.3)"/><path d="M20.52,32.28h-.66V29.8h.62s1.61-.06,1.8.33C22.58,30.73,21.21,32.28,20.52,32.28Z" transform="translate(0 -0.3)"/><path d="M29.79,30.43v-.66h2.48v.62s.06,1.63-.33,1.82C31.34,32.51,29.79,31.12,29.79,30.43Z" transform="translate(0 -0.3)"/><path d="M39.72,29.79H37.24v1.63a.82.82,0,0,0,.25.61.86.86,0,0,0,.6.25h1.63Z" transform="translate(0 -0.3)"/><rect x="39.72" y="29.49" width="2.48" height="2.48"/><path d="M42.87,32.28h-.66V29.8h.62s1.6-.06,1.79.33C44.92,30.73,43.55,32.28,42.87,32.28Z" transform="translate(0 -0.3)"/><rect x="47.17" y="29.49" width="2.48" height="2.48"/><rect x="49.66" y="29.49" width="2.48" height="2.48"/><rect x="52.14" y="29.49" width="2.48" height="2.48"/><rect x="54.62" y="29.49" width="2.48" height="2.48"/><path d="M57.76,32.28H57.1V29.8h.63s1.6-.06,1.79.33C59.82,30.73,58.45,32.28,57.76,32.28Z" transform="translate(0 -0.3)"/><path d="M64.55,29.79H62.07v1.63a.82.82,0,0,0,.25.61.86.86,0,0,0,.6.25h1.63Z" transform="translate(0 -0.3)"/><path d="M67,30.65a.85.85,0,0,0-.85-.86H64.55v2.49H67Z" transform="translate(0 -0.3)"/><rect x="7.45" y="31.97" width="2.48" height="2.48"/><path d="M12.41,33.13a.85.85,0,0,0-.85-.85H9.93v2.48h2.48Z" transform="translate(0 -0.3)"/><rect x="17.38" y="31.97" width="2.48" height="2.48"/><path d="M24.83,33.13v-.85H23.2a.85.85,0,0,0-.86.85v1.63h2.49Z" transform="translate(0 -0.3)"/><path d="M25.49,34.76h-.66V32.28h.62s1.6-.05,1.79.33C27.54,33.21,26.17,34.76,25.49,34.76Z" transform="translate(0 -0.3)"/><path d="M34.76,34.1v.66H32.28v-.62s-.05-1.63.33-1.82C33.21,32,34.76,33.41,34.76,34.1Z" transform="translate(0 -0.3)"/><path d="M39.72,32.91v-.66H42.2v.62s.06,1.63-.33,1.82C41.27,35,39.72,33.6,39.72,32.91Z" transform="translate(0 -0.3)"/><path d="M46.51,32.28h.66v2.48h-.62s-1.63.05-1.82-.34C44.43,33.82,45.83,32.28,46.51,32.28Z" transform="translate(0 -0.3)"/><path d="M49.66,32.28H47.17v2.48H48.8a.82.82,0,0,0,.61-.25.86.86,0,0,0,.25-.6Z" transform="translate(0 -0.3)"/><rect x="52.14" y="31.97" width="2.48" height="2.48"/><rect x="64.55" y="31.97" width="2.48" height="2.48"/><path d="M7.45,35.61v-.85H5.82a.79.79,0,0,0-.6.25.8.8,0,0,0-.25.6v1.63H7.45Z" transform="translate(0 -0.3)"/><rect x="7.45" y="34.46" width="2.48" height="2.48"/><rect x="9.93" y="34.46" width="2.48" height="2.48"/><rect x="12.41" y="34.46" width="2.48" height="2.48"/><rect x="14.9" y="34.46" width="2.48" height="2.48"/><rect x="17.38" y="34.46" width="2.48" height="2.48"/><rect x="19.86" y="34.46" width="2.48" height="2.48"/><rect x="22.34" y="34.46" width="2.48" height="2.48"/><path d="M29.79,35.61v-.85H28.16a.82.82,0,0,0-.6.25.8.8,0,0,0-.25.6v1.63h2.48Z" transform="translate(0 -0.3)"/><rect x="29.79" y="34.46" width="2.48" height="2.48"/><path d="M34.76,34.76H32.28v2.48h1.63a.82.82,0,0,0,.6-.25.8.8,0,0,0,.25-.6Z" transform="translate(0 -0.3)"/><path d="M51.48,34.76h.66v2.48h-.62s-1.63,0-1.82-.34C49.4,36.31,50.79,34.76,51.48,34.76Z" transform="translate(0 -0.3)"/><rect x="52.14" y="34.46" width="2.48" height="2.48"/><path d="M55.28,37.24h-.66V34.76h.62s1.6,0,1.8.34C57.34,35.69,56,37.24,55.28,37.24Z" transform="translate(0 -0.3)"/><path d="M61.41,34.76h.66v2.48h-.62s-1.63,0-1.82-.34C59.33,36.31,60.72,34.76,61.41,34.76Z" transform="translate(0 -0.3)"/><rect x="62.07" y="34.46" width="2.48" height="2.48"/><path d="M67,34.76H64.55v2.48h1.63a.79.79,0,0,0,.6-.25.8.8,0,0,0,.25-.6Z" transform="translate(0 -0.3)"/><rect x="4.97" y="36.94" width="2.48" height="2.48"/><rect x="9.93" y="36.94" width="2.48" height="2.48"/><rect x="12.41" y="36.94" width="2.48" height="2.48"/><rect x="14.9" y="36.94" width="2.48" height="2.48"/><path d="M22.34,37.88v-.66h2.49v.62s.05,1.63-.34,1.82C23.89,40,22.34,38.56,22.34,37.88Z" transform="translate(0 -0.3)"/><rect x="27.31" y="36.94" width="2.48" height="2.48"/><rect x="29.79" y="36.94" width="2.48" height="2.48"/><path d="M36.58,37.24h.66v2.48h-.62s-1.63.05-1.82-.33C34.5,38.79,35.89,37.24,36.58,37.24Z" transform="translate(0 -0.3)"/><path d="M39.72,38.09a.82.82,0,0,0-.25-.6.79.79,0,0,0-.6-.25H37.24v2.48h2.48Z" transform="translate(0 -0.3)"/><path d="M47.17,38.09v-.85H45.54a.85.85,0,0,0-.85.85v1.63h2.48Z" transform="translate(0 -0.3)"/><path d="M49.66,38.09a.86.86,0,0,0-.25-.6.82.82,0,0,0-.61-.25H47.17v2.48h2.49Z" transform="translate(0 -0.3)"/><path d="M59.59,39.06v.66H57.11V39.1s-.06-1.62.33-1.82C58,37,59.59,38.38,59.59,39.06Z" transform="translate(0 -0.3)"/><rect x="62.07" y="36.94" width="2.48" height="2.48"/><rect x="4.97" y="39.42" width="2.48" height="2.48"/><rect x="9.93" y="39.42" width="2.48" height="2.48"/><rect x="14.9" y="39.42" width="2.48" height="2.48"/><path d="M22.23,41.81c.62-1.16-1.64-2.84-2.25-1.69s1.64,2.83,2.25,1.69" transform="translate(0 -0.3)"/><path d="M27.31,40.58v-.86H25.68a.84.84,0,0,0-.6.25.82.82,0,0,0-.25.61v1.63h2.48Z" transform="translate(0 -0.3)"/><rect x="27.31" y="39.42" width="2.48" height="2.48"/><path d="M32.28,39.72H29.79v2.49h1.63a.85.85,0,0,0,.86-.86Z" transform="translate(0 -0.3)"/><rect x="37.24" y="39.42" width="2.48" height="2.48"/><rect x="39.72" y="39.42" width="2.48" height="2.48"/><rect x="42.21" y="39.42" width="2.48" height="2.48"/><rect x="44.69" y="39.42" width="2.48" height="2.48"/><rect x="47.17" y="39.42" width="2.48" height="2.48"/><rect x="49.66" y="39.42" width="2.48" height="2.48"/><rect x="52.14" y="39.42" width="2.48" height="2.48"/><rect x="54.62" y="39.42" width="2.48" height="2.48"/><path d="M59.59,39.72H57.1v2.49h1.63a.85.85,0,0,0,.86-.86Z" transform="translate(0 -0.3)"/><path d="M64.55,39.72H62.07v1.63a.82.82,0,0,0,.25.61.86.86,0,0,0,.6.25h1.63Z" transform="translate(0 -0.3)"/><path d="M67,40.58a.85.85,0,0,0-.85-.86H64.55v2.49H67Z" transform="translate(0 -0.3)"/><rect x="4.97" y="41.9" width="2.48" height="2.48"/><rect x="9.93" y="41.9" width="2.48" height="2.48"/><path d="M14.9,42.84v-.66h2.48v.62s.05,1.63-.34,1.82C16.44,44.92,14.9,43.53,14.9,42.84Z" transform="translate(0 -0.3)"/><path d="M24.83,42.84v-.66h2.48v.62s.05,1.63-.34,1.82C26.37,44.92,24.83,43.53,24.83,42.84Z" transform="translate(0 -0.3)"/><path d="M37.24,43.06v-.85H35.61a.8.8,0,0,0-.6.25.79.79,0,0,0-.25.6v1.63h2.48Z" transform="translate(0 -0.3)"/><path d="M39.72,42.21H37.24v2.48h1.63a.79.79,0,0,0,.6-.25.82.82,0,0,0,.25-.6Z" transform="translate(0 -0.3)"/><path d="M42.21,42.84v-.66h2.48v.62s.05,1.63-.34,1.82C43.75,44.92,42.21,43.53,42.21,42.84Z" transform="translate(0 -0.3)"/><rect x="47.17" y="41.9" width="2.48" height="2.48"/><rect x="52.14" y="41.9" width="2.48" height="2.48"/><rect x="54.62" y="41.9" width="2.48" height="2.48"/><path d="M64.55,42.84v-.66H67v.62s0,1.63-.33,1.82C66.1,44.92,64.55,43.53,64.55,42.84Z" transform="translate(0 -0.3)"/><path d="M5,45.32v-.66H7.45v.63s0,1.62-.34,1.82C6.51,47.4,5,46,5,45.32Z" transform="translate(0 -0.3)"/><path d="M9.93,45.32v-.66h2.48v.63s.05,1.62-.33,1.82C11.48,47.4,9.93,46,9.93,45.32Z" transform="translate(0 -0.3)"/><path d="M19.2,44.69h.66v2.48h-.62s-1.63,0-1.82-.33C17.12,46.24,18.51,44.69,19.2,44.69Z" transform="translate(0 -0.3)"/><rect x="19.86" y="44.39" width="2.48" height="2.48"/><path d="M23,47.17h-.66V44.69H23s1.6,0,1.79.34C25.06,45.63,23.69,47.17,23,47.17Z" transform="translate(0 -0.3)"/><path d="M32.16,46.77c.62-1.16-1.64-2.83-2.25-1.68s1.64,2.83,2.25,1.68" transform="translate(0 -0.3)"/><path d="M34.76,45.32v-.66h2.48v.63s0,1.62-.34,1.82C36.31,47.4,34.76,46,34.76,45.32Z" transform="translate(0 -0.3)"/><path d="M42.09,46.77c.62-1.16-1.63-2.83-2.25-1.68s1.64,2.83,2.25,1.68" transform="translate(0 -0.3)"/><path d="M47.17,45.54v-.85H45.54a.85.85,0,0,0-.85.85v1.63h2.48Z" transform="translate(0 -0.3)"/><rect x="47.17" y="44.39" width="2.48" height="2.48"/><rect x="49.66" y="44.39" width="2.48" height="2.48"/><rect x="52.14" y="44.39" width="2.48" height="2.48"/><rect x="54.62" y="44.39" width="2.48" height="2.48"/><path d="M62,46.77c.63-1.16-1.63-2.83-2.25-1.68s1.64,2.83,2.25,1.68" transform="translate(0 -0.3)"/><path d="M27.19,49.26c.63-1.17-1.63-2.84-2.25-1.69s1.64,2.83,2.25,1.69" transform="translate(0 -0.3)"/><path d="M44,47.17h.66v2.48h-.62s-1.63.05-1.82-.33C42,48.72,43.34,47.17,44,47.17Z" transform="translate(0 -0.3)"/><rect x="44.69" y="46.87" width="2.48" height="2.48"/><rect x="54.62" y="46.87" width="2.48" height="2.48"/><path d="M57.76,49.66H57.1V47.17h.63s1.6-.05,1.79.34C59.82,48.11,58.45,49.66,57.76,49.66Z" transform="translate(0 -0.3)"/><path d="M29.68,51.74c.62-1.16-1.64-2.83-2.25-1.68s1.63,2.82,2.25,1.68" transform="translate(0 -0.3)"/><path d="M34.76,50.51v-.85H33.13a.81.81,0,0,0-.6.24.82.82,0,0,0-.25.61v1.63h2.48Z" transform="translate(0 -0.3)"/><path d="M35.42,52.14h-.66V49.66h.62s1.6,0,1.8.33C37.47,50.59,36.11,52.14,35.42,52.14Z" transform="translate(0 -0.3)"/><rect x="44.69" y="49.35" width="2.48" height="2.48"/><path d="M52,51.74c.63-1.16-1.63-2.83-2.25-1.68s1.64,2.82,2.25,1.68" transform="translate(0 -0.3)"/><rect x="54.62" y="49.35" width="2.48" height="2.48"/><path d="M61.41,49.66h.66v2.48h-.62s-1.63,0-1.82-.34C59.33,51.2,60.72,49.66,61.41,49.66Z" transform="translate(0 -0.3)"/><rect x="62.07" y="49.35" width="2.48" height="2.48"/><path d="M67,50.51a.82.82,0,0,0-.25-.61.81.81,0,0,0-.6-.24H64.55v2.48H67Z" transform="translate(0 -0.3)"/><path d="M27.31,54v.66H24.83V54s0-1.63.33-1.82C25.76,51.88,27.31,53.27,27.31,54Z" transform="translate(0 -0.3)"/><path d="M32.28,53v-.85H30.65a.82.82,0,0,0-.61.25.84.84,0,0,0-.25.6v1.63h2.49Z" transform="translate(0 -0.3)"/><rect x="32.28" y="51.84" width="2.48" height="2.48"/><path d="M42.09,54.22c.62-1.16-1.63-2.83-2.25-1.68s1.64,2.83,2.25,1.68" transform="translate(0 -0.3)"/><rect x="44.69" y="51.84" width="2.48" height="2.48"/><rect x="54.62" y="51.84" width="2.48" height="2.48"/><path d="M57.76,54.62H57.1V52.14h.63s1.6,0,1.79.34C59.82,53.07,58.45,54.62,57.76,54.62Z" transform="translate(0 -0.3)"/><rect x="64.55" y="51.84" width="2.48" height="2.48"/><rect x="24.83" y="54.32" width="2.48" height="2.48"/><rect x="29.79" y="54.32" width="2.48" height="2.48"/><path d="M34.76,54.62H32.28V57.1h1.63a.82.82,0,0,0,.6-.25.79.79,0,0,0,.25-.6Z" transform="translate(0 -0.3)"/><path d="M44,54.62h.66V57.1h-.62s-1.63,0-1.82-.33C42,56.17,43.34,54.62,44,54.62Z" transform="translate(0 -0.3)"/><rect x="44.69" y="54.32" width="2.48" height="2.48"/><rect x="47.17" y="54.32" width="2.48" height="2.48"/><rect x="49.66" y="54.32" width="2.48" height="2.48"/><rect x="52.14" y="54.32" width="2.48" height="2.48"/><rect x="54.62" y="54.32" width="2.48" height="2.48"/><path d="M62.07,55.47v-.85H60.44a.79.79,0,0,0-.6.25.82.82,0,0,0-.25.6V57.1h2.48Z" transform="translate(0 -0.3)"/><rect x="62.07" y="54.32" width="2.48" height="2.48"/><rect x="64.55" y="54.32" width="2.48" height="2.48"/><rect x="24.83" y="56.8" width="2.48" height="2.48"/><path d="M29.79,57.74v-.66h2.48v.62s.06,1.63-.33,1.82C31.34,59.82,29.79,58.43,29.79,57.74Z" transform="translate(0 -0.3)"/><path d="M36.58,57.1h.66v2.48h-.62s-1.63.06-1.82-.33C34.5,58.65,35.89,57.1,36.58,57.1Z" transform="translate(0 -0.3)"/><rect x="37.24" y="56.8" width="2.48" height="2.48"/><path d="M42.21,58a.85.85,0,0,0-.86-.86H39.72v2.49h2.49Z" transform="translate(0 -0.3)"/><rect x="44.69" y="56.8" width="2.48" height="2.48"/><rect x="47.17" y="56.8" width="2.48" height="2.48"/><path d="M52.14,57.1H49.66v2.49h1.62a.85.85,0,0,0,.86-.86Z" transform="translate(0 -0.3)"/><path d="M57.1,57.1H54.62v1.63a.82.82,0,0,0,.25.61.86.86,0,0,0,.6.25H57.1Z" transform="translate(0 -0.3)"/><rect x="57.1" y="56.8" width="2.48" height="2.48"/><rect x="59.59" y="56.8" width="2.48" height="2.48"/><rect x="62.07" y="56.8" width="2.48" height="2.48"/><rect x="64.55" y="56.8" width="2.48" height="2.48"/><path d="M27.31,59.59H24.83v1.63a.82.82,0,0,0,.25.6.8.8,0,0,0,.6.25h1.63Z" transform="translate(0 -0.3)"/><path d="M29.79,60.44a.85.85,0,0,0-.85-.85H27.31v2.48h2.48Z" transform="translate(0 -0.3)"/><rect x="37.24" y="59.28" width="2.48" height="2.48"/><path d="M42.21,59.59H39.72v2.48h1.63a.82.82,0,0,0,.61-.25.86.86,0,0,0,.25-.6Z" transform="translate(0 -0.3)"/><rect x="44.69" y="59.28" width="2.48" height="2.48"/><rect x="57.1" y="59.28" width="2.48" height="2.48"/><path d="M62.07,59.59H59.59v2.48h1.63a.85.85,0,0,0,.85-.85Z" transform="translate(0 -0.3)"/><rect x="64.55" y="59.28" width="2.48" height="2.48"/><path d="M29.79,62.07H27.31V63.7a.8.8,0,0,0,.25.6.82.82,0,0,0,.6.25h1.63Z" transform="translate(0 -0.3)"/><path d="M32.28,62.92a.86.86,0,0,0-.25-.6.82.82,0,0,0-.61-.25H29.79v2.48h2.49Z" transform="translate(0 -0.3)"/><path d="M37.24,62.92v-.85H35.61a.8.8,0,0,0-.6.25.82.82,0,0,0-.25.6v1.63h2.48Z" transform="translate(0 -0.3)"/><path d="M39.72,62.07H37.24v2.48h1.63a.79.79,0,0,0,.6-.25.8.8,0,0,0,.25-.6Z" transform="translate(0 -0.3)"/><path d="M44,62.07h.66v2.48h-.62s-1.63,0-1.82-.34C42,63.62,43.34,62.07,44,62.07Z" transform="translate(0 -0.3)"/><path d="M47.17,62.07H44.69v2.48h1.63a.85.85,0,0,0,.85-.85Z" transform="translate(0 -0.3)"/><path d="M51.48,62.07h.66v2.48h-.62s-1.63,0-1.82-.34C49.4,63.62,50.79,62.07,51.48,62.07Z" transform="translate(0 -0.3)"/><rect x="52.14" y="61.77" width="2.48" height="2.48"/><rect x="54.62" y="61.77" width="2.48" height="2.48"/><rect x="57.1" y="61.77" width="2.48" height="2.48"/><rect x="64.55" y="61.77" width="2.48" height="2.48"/><path d="M27.19,66.64c.63-1.17-1.63-2.84-2.25-1.69s1.64,2.83,2.25,1.69" transform="translate(0 -0.3)"/><path d="M29.79,65.19v-.66h2.48v.62s.06,1.63-.33,1.82C31.34,67.27,29.79,65.87,29.79,65.19Z" transform="translate(0 -0.3)"/><path d="M34.76,65.19v-.66h2.48v.62s0,1.63-.34,1.82C36.31,67.27,34.76,65.87,34.76,65.19Z" transform="translate(0 -0.3)"/><path d="M42.09,66.64c.62-1.17-1.63-2.84-2.25-1.69s1.64,2.83,2.25,1.69" transform="translate(0 -0.3)"/><path d="M49.54,66.64c.62-1.17-1.64-2.84-2.25-1.69s1.64,2.83,2.25,1.69" transform="translate(0 -0.3)"/><path d="M54.62,64.55H52.14v1.63a.79.79,0,0,0,.25.6A.8.8,0,0,0,53,67h1.63Z" transform="translate(0 -0.3)"/><rect x="54.62" y="64.25" width="2.48" height="2.48"/><rect x="57.1" y="64.25" width="2.48" height="2.48"/><rect x="59.59" y="64.25" width="2.48" height="2.48"/><rect x="62.07" y="64.25" width="2.48" height="2.48"/><path d="M67,64.55H64.55V67h1.63a.85.85,0,0,0,.85-.85Z" transform="translate(0 -0.3)"/><path class="cls-2" d="M7.57,16.47V10.83A3.3,3.3,0,0,1,10.9,7.57h5.51a3.3,3.3,0,0,1,3.33,3.26v8.91H10.9A3.3,3.3,0,0,1,7.57,16.47Z" transform="translate(0 -0.3)"/><path d="M5,16.47V10.83A5.9,5.9,0,0,1,10.9,5h5.51a5.9,5.9,0,0,1,5.93,5.86V22.34H10.9A5.9,5.9,0,0,1,5,16.47Zm2.6,0a3.3,3.3,0,0,0,3.33,3.26h8.84V10.83a3.3,3.3,0,0,0-3.33-3.26H10.9a3.3,3.3,0,0,0-3.33,3.26Z" transform="translate(0 -0.3)"/><path class="cls-2" d="M64.43,16.47V10.83A3.3,3.3,0,0,0,61.1,7.57H55.59a3.3,3.3,0,0,0-3.33,3.26v8.91H61.1A3.3,3.3,0,0,0,64.43,16.47Z" transform="translate(0 -0.3)"/><path d="M67,16.47V10.83A5.9,5.9,0,0,0,61.1,5H55.59a5.9,5.9,0,0,0-5.93,5.86V22.34H61.1A5.9,5.9,0,0,0,67,16.47Zm-2.6,0a3.3,3.3,0,0,1-3.33,3.26H52.26V10.83a3.3,3.3,0,0,1,3.33-3.26H61.1a3.3,3.3,0,0,1,3.33,3.26Z" transform="translate(0 -0.3)"/><path class="cls-2" d="M7.57,55.53v5.64a3.3,3.3,0,0,0,3.33,3.26h5.51a3.3,3.3,0,0,0,3.33-3.26V52.26H10.9A3.3,3.3,0,0,0,7.57,55.53Z" transform="translate(0 -0.3)"/><path d="M5,55.53v5.64A5.9,5.9,0,0,0,10.9,67h5.51a5.9,5.9,0,0,0,5.93-5.86V49.66H10.9A5.9,5.9,0,0,0,5,55.53Zm2.6,0a3.3,3.3,0,0,1,3.33-3.26h8.84v8.91a3.3,3.3,0,0,1-3.33,3.26H10.9a3.3,3.3,0,0,1-3.33-3.26Z" transform="translate(0 -0.3)"/><rect x="9.93" y="9.63" width="7.45" height="7.45"/><rect x="54.62" y="9.63" width="7.45" height="7.45"/><rect x="9.93" y="54.32" width="7.45" height="7.45"/></svg>