<?xml version="1.0" encoding="UTF-8" standalone="no"?>
<svg
   xmlns:dc="http://purl.org/dc/elements/1.1/"
   xmlns:cc="http://creativecommons.org/ns#"
   xmlns:rdf="http://www.w3.org/1999/02/22-rdf-syntax-ns#"
   xmlns:svg="http://www.w3.org/2000/svg"
   xmlns="http://www.w3.org/2000/svg"
   xmlns:sodipodi="http://sodipodi.sourceforge.net/DTD/sodipodi-0.dtd"
   xmlns:inkscape="http://www.inkscape.org/namespaces/inkscape"
   version="1.1"
   id="ic_empty_zpiv"
   x="0px"
   y="0px"
   viewBox="0 0 100 100"
   style="enable-background:new 0 0 100 100;"
   xml:space="preserve"
   sodipodi:docname="img-empty-privacy.svg"
   inkscape:version="1.0.1 (3bc2e813f5, 2020-09-07)"><sodipodi:namedview
   pagecolor="#ffffff"
   bordercolor="#666666"
   borderopacity="1"
   objecttolerance="10"
   gridtolerance="10"
   guidetolerance="10"
   inkscape:pageopacity="0"
   inkscape:pageshadow="2"
   inkscape:window-width="3840"
   inkscape:window-height="2126"
   id="namedview23"
   showgrid="false"
   inkscape:zoom="14.7"
   inkscape:cx="62.261371"
   inkscape:cy="46.722504"
   inkscape:window-x="-11"
   inkscape:window-y="-11"
   inkscape:window-maximized="1"
   inkscape:current-layer="ic_empty_zpiv"
   inkscape:document-rotation="0" /><metadata
   id="metadata33"><rdf:RDF><cc:Work
       rdf:about=""><dc:format>image/svg+xml</dc:format><dc:type
         rdf:resource="http://purl.org/dc/dcmitype/StillImage" /><dc:title /></cc:Work></rdf:RDF></metadata><defs
   id="defs31" />
<style
   type="text/css"
   id="style2">
	.st0{fill:#2EA1FF;}
	.st1{fill:#666666;}
	.st2{fill:#EFEFEF;}
</style>

<g
   id="Group_9086">
	<path
   id="Path_19031"
   class="st0"
   d="M50,26c-13.3,0-24,10.7-24,24s10.7,24,24,24s24-10.7,24-24S63.3,26,50,26z M50,68   c-9.9,0-18-8.1-18-18s8.1-18,18-18s18,8.1,18,18S59.9,68,50,68z"
   style="fill:#141414;fill-opacity:1" />
	<g
   id="Group_9085">
		<g
   id="Group_9083">
			<path
   id="Rectangle_4749"
   class="st1"
   d="M83,56h2v4h-2V56z" />
			<path
   id="Rectangle_4750"
   class="st1"
   d="M83,44h2v8h-2V44z" />
			<path
   id="Rectangle_4751"
   class="st1"
   d="M15,48h2v8h-2V48z" />
			<path
   id="Rectangle_4752"
   class="st1"
   d="M15,40h2v4h-2V40z" />
			<path
   id="Path_19033"
   class="st1"
   d="M95.2,71H85v-7h-2v9h7.8L76,90.5L61.2,73H68v-2h-4.5c11.6-7.5,15-22.9,7.5-34.5     c-6.4-9.9-18.9-14-29.9-9.8L24,6.5L4.8,29H15v7h2v-9H9.2L24,9.5L38.8,27H32v2h4.5c-11.6,7.5-15,22.9-7.5,34.5     c6.4,9.9,18.9,14,29.9,9.8L76,93.5L95.2,71z M27,50c0-12.7,10.3-23,23-23s23,10.3,23,23S62.7,73,50,73S27,62.7,27,50z" />
		</g>
	</g>
</g>
<ellipse
   class="st0"
   cx="50"
   cy="50"
   id="circle14"
   rx="20.186443"
   ry="20.747959"
   style="fill:#141414;fill-opacity:1;stroke-width:1.14973" />

<g
   id="g892"
   transform="matrix(0.07933446,0,0,0.07933446,61.500819,45.994635)"><path
     style="fill:#0099f9;fill-opacity:1;fill-rule:nonzero;stroke:none"
     d="m -215.86854,191.80156 h -48.66667 V 9.1348882 h 48.66667 z"
     id="path869" /><path
     style="fill:#0099f9;fill-opacity:1;fill-rule:nonzero;stroke:none"
     d="m -112.53521,191.80156 h -48.33333 V -67.198445 h 48.33333 z"
     id="path871" /><path
     style="fill:#0099f9;fill-opacity:1;fill-rule:nonzero;stroke:none"
     d="m -12.535206,191.80156 h -48.66667 V 9.1348882 h 48.66667 z"
     id="path873" /><path
     style="fill:#0099f9;fill-opacity:1;fill-rule:nonzero;stroke:none"
     d="m -264.53521,-31.198445 v -48.666667 h 252.000004 v 48.666667 z"
     id="path875" /></g></svg>
