<?xml version="1.0" encoding="utf-8"?>
<!-- Generator: Adobe Illustrator 25.2.0, SVG Export Plug-In . SVG Version: 6.00 Build 0)  -->
<svg version="1.1"
	 id="ic_empty_Dark_transactions" inkscape:version="0.92.4 (5da689c313, 2019-01-14)" sodipodi:docname="img-empty-dark-transactions.svg" xmlns:cc="http://creativecommons.org/ns#" xmlns:dc="http://purl.org/dc/elements/1.1/" xmlns:inkscape="http://www.inkscape.org/namespaces/inkscape" xmlns:rdf="http://www.w3.org/1999/02/22-rdf-syntax-ns#" xmlns:sodipodi="http://sodipodi.sourceforge.net/DTD/sodipodi-0.dtd" xmlns:svg="http://www.w3.org/2000/svg"
	 xmlns="http://www.w3.org/2000/svg" xmlns:xlink="http://www.w3.org/1999/xlink" x="0px" y="0px" viewBox="0 0 100 100"
	 style="enable-background:new 0 0 100 100;" xml:space="preserve">
<style type="text/css">
	.st0{fill:#810890;}
	.st1{fill:#A09EA5;}
	.st2{fill:#EFEFEF;}
</style>
<sodipodi:namedview  bordercolor="#666666" borderopacity="1" gridtolerance="10" guidetolerance="10" id="namedview22" inkscape:current-layer="Group_9036" inkscape:cx="59.463329" inkscape:cy="40.457098" inkscape:pageopacity="0" inkscape:pageshadow="2" inkscape:window-height="480" inkscape:window-width="640" inkscape:zoom="6.1358825" objecttolerance="10" pagecolor="#ffffff" showgrid="false">
	</sodipodi:namedview>
<g id="Group_9036">
	<circle class="st0" cx="49.9" cy="50" r="17.9"/>
	<path id="Path_18988" class="st0" d="M50,26c-13.3,0-24,10.7-24,24s10.7,24,24,24s24-10.7,24-24S63.3,26,50,26z M50,68
		c-9.9,0-18-8.1-18-18s8.1-18,18-18s18,8.1,18,18S59.9,68,50,68z"/>
	<g id="Group_9035">
		<g id="Group_9034">
			<path id="Path_18990" class="st0" d="M50,31c-10.5,0-19,8.5-19,19s8.5,19,19,19s19-8.5,19-19S60.5,31,50,31z M50,67
				c-9.4,0-17-7.6-17-17s7.6-17,17-17s17,7.6,17,17S59.4,67,50,67z"/>
			<path id="Rectangle_4693" class="st1" d="M83,56h2v4h-2V56z"/>
			<path id="Rectangle_4694" class="st1" d="M83,44h2v8h-2V44z"/>
			<path id="Rectangle_4695" class="st1" d="M15,48h2v8h-2V48z"/>
			<path id="Rectangle_4696" class="st1" d="M15,40h2v4h-2V40z"/>
			<path id="Path_18991" class="st1" d="M95.2,71H85v-7h-2v9h7.8L76,90.5L61.2,73H68v-2h-4.5c11.6-7.5,15-22.9,7.5-34.5
				c-6.4-9.9-18.9-14-29.9-9.8L24,6.5L4.8,29H15v7h2v-9H9.2L24,9.5L38.8,27H32v2h4.5c-11.6,7.5-15,22.9-7.5,34.5
				c6.4,9.9,18.9,14,29.9,9.8L76,93.5L95.2,71z M27,50c0-12.7,10.3-23,23-23s23,10.3,23,23S62.7,73,50,73S27,62.7,27,50z"/>
		</g>
	</g>
	<g>
		<path class="st2" d="M43.4,42.7l-2.6,0l-6.4,6.9l14.4,13.7c0,0,0,0,0,0L39,49.7"/>
		<path class="st2" d="M57.8,43.5l2.5,0.2l5.8,6.8L51,61.7c0,0,0,0,0,0l10.6-11.5"/>
		<path class="st2" d="M42.9,50.9l-1.8-2.1l-0.2-10.1l18.5,2.8c0,0,0,0,0,0l-15.2,1"/>
		<g>
			<path class="st2" d="M51.3,46h-3l-0.2,1.8l2.7,0c1.3,0,1.7,0.6,1.7,1.7c0,0.5-0.2,1.4-0.3,1.7C52,52,51.6,52.9,50,52.9l-2.6,0
				l-0.2,1.8h3c1.1,0,1.5-0.2,2-0.4c1-0.6,1.7-2,1.9-3.7C54.4,47.9,53.9,46,51.3,46"/>
			<path class="st2" d="M47.1,49.6c-0.8,0-0.9,0.7-1,1.1C46,51.2,46,51.4,46,51.4h3.1c0.8,0,0.9-0.7,1-1.1c0.1-0.5,0.1-0.7,0.1-0.7
				H47.1z"/>
		</g>
	</g>
</g>
</svg>
