<svg id="Layer_1" data-name="Layer 1" xmlns="http://www.w3.org/2000/svg" viewBox="0 0 256 256"><defs><style>.cls-1,.cls-2{fill:#eef76a;}.cls-2{stroke:#eef76a;stroke-miterlimit:10;}</style></defs><path class="cls-1" d="M154.72,71.16l5.86-5.52c-21.17-17-50.06-13.45-65.7.5l5.78,5.42C118.62,59.4,136.52,59.25,154.72,71.16Z"/><path class="cls-1" d="M102,142.77l-5.89,5.53c20,15.69,48.33,13.36,64.86-1l-5.82-5.44C137.58,153.7,120,154,102,142.77Z"/><path class="cls-1" d="M128.14,37.6A68.86,68.86,0,1,0,197,106.52,68.86,68.86,0,0,0,128.14,37.6Zm1,5.65a63.17,63.17,0,0,1,46.23,21.18l-8.76,7.79h0l-38.23,34.06L90.12,72.18h0L81.2,64.12A63,63,0,0,1,129.14,43.25ZM75.69,141.73A63.22,63.22,0,0,1,65,106.38a62.23,62.23,0,0,1,8.66-31.93l6.12,5.19c-.24.49-2.7,5.83-2.7,5.83a56.12,56.12,0,0,0,4.47,51ZM128,169.67a62.84,62.84,0,0,1-47.16-21.32l14.71-13.76a43.15,43.15,0,0,1-10.46-29.43,42.28,42.28,0,0,1,4.18-17.47l39.06,33.17,39.22-33.14a42.16,42.16,0,0,1,4.16,17.44,43.06,43.06,0,0,1-10.46,29.43c1.17,1.1,14.19,13.87,14.19,13.87A63.34,63.34,0,0,1,128,169.67Zm46.55-33.57A56,56,0,0,0,179,85h.05c-.14-.35-2.26-4.77-2.39-5.06l6.14-5.2a63.4,63.4,0,0,1-2.32,67.11Z"/><path class="cls-2" d="M90.23,217.1V201.77l-11,15.33H77.62l-11-15.42V217.1H64.78v-18h2l11.74,16.33L90.08,199.1H92v18Z"/><path class="cls-2" d="M125.75,208.1a8.54,8.54,0,0,1-1,4.2,8.22,8.22,0,0,1-2.68,2.91,11.83,11.83,0,0,1-4,1.7,22.8,22.8,0,0,1-10,0,12.21,12.21,0,0,1-4-1.7,8.37,8.37,0,0,1-2.7-2.91,8.65,8.65,0,0,1-1-4.2,9.06,9.06,0,0,1,.45-2.93,8.3,8.3,0,0,1,1.26-2.37,8.78,8.78,0,0,1,2-1.8,12,12,0,0,1,2.57-1.27,15.68,15.68,0,0,1,3-.75,23.14,23.14,0,0,1,3.42-.24,21,21,0,0,1,5,.55,12.12,12.12,0,0,1,4,1.7,8.16,8.16,0,0,1,2.68,2.92A8.5,8.5,0,0,1,125.75,208.1Zm-1.87,0a7.74,7.74,0,0,0-.69-3.39,6.33,6.33,0,0,0-2-2.47,9.44,9.44,0,0,0-3.37-1.52,21.46,21.46,0,0,0-9.39,0,9.94,9.94,0,0,0-3.4,1.53,6.65,6.65,0,0,0-2.07,2.48,8.54,8.54,0,0,0,0,6.76A6.72,6.72,0,0,0,105,214a9.92,9.92,0,0,0,3.4,1.52,21.46,21.46,0,0,0,9.39,0,9.7,9.7,0,0,0,3.37-1.52,6.44,6.44,0,0,0,2-2.48A7.77,7.77,0,0,0,123.88,208.1Z"/><path class="cls-2" d="M153.91,212.1a5,5,0,0,1-.3,1.83,3.76,3.76,0,0,1-.86,1.33,4.28,4.28,0,0,1-1.31.91,8.93,8.93,0,0,1-1.68.55,13.37,13.37,0,0,1-2,.28c-.69.06-1.42.08-2.17.08H134.08v-18h11.28a16.38,16.38,0,0,1,1.72.06,11.32,11.32,0,0,1,1.65.25,6.35,6.35,0,0,1,1.47.49,3.51,3.51,0,0,1,1.18.83,3.42,3.42,0,0,1,.79,1.23,4.31,4.31,0,0,1,.29,1.71,4,4,0,0,1-.25,1.52,2.77,2.77,0,0,1-.72,1.1,3.82,3.82,0,0,1-1.25.76,9.71,9.71,0,0,1-1.78.47,9.65,9.65,0,0,1,2.5.44,4.75,4.75,0,0,1,1.68.95,3.44,3.44,0,0,1,1,1.41A5.34,5.34,0,0,1,153.91,212.1Zm-3.16-8.45a4.77,4.77,0,0,0-.06-.76,1.73,1.73,0,0,0-.26-.73,2.12,2.12,0,0,0-.59-.64,3.27,3.27,0,0,0-1.06-.52,8.34,8.34,0,0,0-1.65-.34,18.57,18.57,0,0,0-2.36-.13H135.9v6.28h8.87a15.66,15.66,0,0,0,3.14-.25,5,5,0,0,0,1.81-.69,2,2,0,0,0,.83-1,3.19,3.19,0,0,0,.2-1.18Zm1.25,8.42a3.5,3.5,0,0,0-.39-1.74,2.87,2.87,0,0,0-1.21-1.18,6.17,6.17,0,0,0-2.1-.68,18.75,18.75,0,0,0-3-.21h-9.36v7.32h9.58a20.78,20.78,0,0,0,3.06-.19,6,6,0,0,0,2-.61,2.59,2.59,0,0,0,1.1-1.1,3.76,3.76,0,0,0,.32-1.58Z"/><path class="cls-2" d="M162,217.1v-18h1.82v18Z"/><path class="cls-2" d="M192,216.41a19.34,19.34,0,0,1-2.13.57,22.58,22.58,0,0,1-2.33.36,26.22,26.22,0,0,1-2.67.14,21.67,21.67,0,0,1-3.41-.27,15.58,15.58,0,0,1-3-.78,12.45,12.45,0,0,1-2.57-1.31,9.11,9.11,0,0,1-2-1.82,7.93,7.93,0,0,1-1.27-2.34,9.55,9.55,0,0,1,0-5.7,7.88,7.88,0,0,1,1.27-2.33,8.87,8.87,0,0,1,2-1.82,12,12,0,0,1,2.57-1.31,16.58,16.58,0,0,1,3-.79,21.79,21.79,0,0,1,3.42-.26,23.75,23.75,0,0,1,2.67.13,22.6,22.6,0,0,1,2.33.37c.74.16,1.45.34,2.13.56s1.38.45,2.08.71v2c-.56-.31-1.15-.61-1.78-.89a15.44,15.44,0,0,0-2-.74,18.51,18.51,0,0,0-2.35-.5,17.08,17.08,0,0,0-2.68-.18,19.19,19.19,0,0,0-5,.57,10,10,0,0,0-3.49,1.59,6.42,6.42,0,0,0-2,2.5,8.34,8.34,0,0,0,0,6.54,6.56,6.56,0,0,0,2,2.49,10,10,0,0,0,3.49,1.59,20.08,20.08,0,0,0,5,.56,19.45,19.45,0,0,0,5.09-.68,15.53,15.53,0,0,0,3.77-1.61v2C193.39,216,192.7,216.19,192,216.41Z"/></svg>