<?xml version="1.0" encoding="utf-8"?>
<!-- Generator: Adobe Illustrator 25.2.0, SVG Export Plug-In . SVG Version: 6.00 Build 0)  -->
<svg version="1.1"
	 id="ic_empty_dark_multisend" inkscape:version="0.92.4 (5da689c313, 2019-01-14)" sodipodi:docname="img-empty-dark-multisend.svg" xmlns:cc="http://creativecommons.org/ns#" xmlns:dc="http://purl.org/dc/elements/1.1/" xmlns:inkscape="http://www.inkscape.org/namespaces/inkscape" xmlns:rdf="http://www.w3.org/1999/02/22-rdf-syntax-ns#" xmlns:sodipodi="http://sodipodi.sourceforge.net/DTD/sodipodi-0.dtd" xmlns:svg="http://www.w3.org/2000/svg"
	 xmlns="http://www.w3.org/2000/svg" xmlns:xlink="http://www.w3.org/1999/xlink" x="0px" y="0px" viewBox="0 0 100 100"
	 style="enable-background:new 0 0 100 100;" xml:space="preserve">
<style type="text/css">
	.st0{fill:#F4B400;}
	.st1{fill:#A09EA5;}
	.st2{fill:#E50E28;}
</style>
<sodipodi:namedview  bordercolor="#666666" borderopacity="1" gridtolerance="10" guidetolerance="10" id="namedview25" inkscape:current-layer="Group_9061" inkscape:cx="26.059784" inkscape:cy="62.93604" inkscape:pageopacity="0" inkscape:pageshadow="2" inkscape:window-height="480" inkscape:window-width="640" inkscape:zoom="6.0149814" objecttolerance="10" pagecolor="#ffffff" showgrid="false">
	</sodipodi:namedview>
<g id="Group_9062">
	<g id="Group_9060">
		<path id="Rectangle_4717" class="st0" d="M45,18h10v9H45V18z"/>
		<g id="Group_9059">
			<path id="Rectangle_4718" class="st0" d="M14,66h6v10h-6V66z"/>
			<path id="Rectangle_4719" class="st0" d="M80,66h6v10h-6V66z"/>
			<path id="Rectangle_4720" class="st0" d="M47,66h6v10h-6V66z"/>
		</g>
	</g>
	<g id="Group_9061">
		<path id="Rectangle_4722" class="st1" d="M67,40h2v4h-2V40z"/>
		<circle id="Ellipse_643" class="st1" cx="50" cy="73" r="1"/>
		<circle id="Ellipse_644" class="st1" cx="83" cy="73" r="1"/>
		<path id="Rectangle_4723" class="st1" d="M32,58h4v2h-4V58z"/>
		<path id="Path_19007" class="st1" d="M16,65h-3v3H7v4h2v-2h4v7h8v-7h4v21H9V76H7v17h20V68h-6v-3h-3v-5h10v-2H16V65z M19,67v8h-4
			v-8H19z"/>
		<circle id="Ellipse_645" class="st1" cx="17" cy="73" r="1"/>
		<path id="Path_19008" class="st1" d="M87,68v-3h-3v-7H51v-5h18v-5h-2v3H33V28h34v8h2v-8h4V17H59.5c2.2-2.5,2-6.3-0.5-8.5
			s-6.3-2-8.5,0.5c-0.2,0.2-0.4,0.5-0.5,0.7c-1.8-2.8-5.5-3.5-8.3-1.7c-2.8,1.8-3.5,5.5-1.7,8.3c0.2,0.3,0.4,0.5,0.6,0.7H27v11h4v25
			h18v5h-9v2h9v5h-3v3h-6v16h2V70h4v7h8v-7h4v21H42v-3h-2v5h20V68h-6v-3h-3v-5h31v5h-3v3h-6v12h2V70h4v7h8v-7h4v21H75v-7h-2v9h20V68
			H87z M71,19v7H56v-7H71z M51,13c0-2.2,1.8-4,4-4s4,1.8,4,4s-1.8,4-4,4h-4V13z M51,19h3v7h-8v-7H51z M45,9c2.2,0,4,1.8,4,4v4h-4
			c-2.2,0-4-1.8-4-4S42.8,9,45,9z M29,26v-7h15v7H29z M52,67v8h-4v-8H52z M85,75h-4v-8h4V75z"/>
	</g>
</g>
<rect x="33" y="28" class="st0" width="34" height="23"/>
<g>
	<path class="st2" d="M38.7,43.5c0.1-0.1,0.2-0.2,0.3-0.3c1-0.9,2.1-1.4,3.3-1.6c1-0.1,1.9,0,2.9,0.3c1.2,0.3,2.4,0.9,3.6,1.4
		c1.3,0.6,2.6,1.2,4,1.6c1.3,0.4,2.7,0.7,4,0.6c0.6,0,1.1-0.2,1.7-0.3c0,0,0,0,0.1,0c-0.5,0.3-1,0.5-1.5,0.8
		c-1.3,0.6-2.6,1.3-3.9,1.7c-1,0.3-2.1,0.5-3.2,0.5c-1.2,0-2.3-0.4-3.4-1c-1-0.6-1.8-1.3-2.7-2c-0.4-0.4-0.9-0.7-1.4-1.1
		c-1.1-0.8-2.3-0.9-3.6-0.6C38.8,43.5,38.8,43.5,38.7,43.5C38.7,43.5,38.7,43.5,38.7,43.5z"/>
	<path d="M62.1,43.2c-1.2,0.5-2.5,1-3.8,1.2c-1.1,0.2-2.3,0.1-3.4-0.2c-1.3-0.3-2.6-0.8-3.8-1.4c-1.4-0.6-2.8-1.3-4.3-1.8
		c-1.1-0.4-2.2-0.7-3.3-0.8c-1.6-0.1-3.1,0.1-4.6,0.7c-0.7,0.3-1.5,0.7-2.2,1c-0.1,0-0.1,0.1-0.2,0.1c0,0,0,0,0-0.1
		c0.8-0.9,1.7-1.8,2.8-2.5c1.6-1.1,3.4-1.6,5.3-1.5c1.2,0.1,2.3,0.4,3.4,0.8c1.4,0.6,2.9,1.2,4.3,1.9c1.7,0.8,3.4,1.5,5.3,2
		c1,0.3,2,0.4,3.1,0.5C61.1,43.2,61.6,43.2,62.1,43.2z"/>
	<path class="st2" d="M63.6,40.3c-0.4,0.1-0.9,0.3-1.3,0.5c-0.8,0.3-1.6,0.5-2.5,0.5c-1,0.1-2,0-3-0.2c-1.1-0.3-2.2-0.7-3.3-1.2
		c-1.1-0.5-2.2-1.1-3.4-1.6c-1.3-0.6-2.6-1.1-4-1.4c-1.7-0.4-3.3-0.3-5,0.3c-0.9,0.3-1.8,0.6-2.6,1.1c-0.1,0-0.2,0.1-0.3,0.1
		c0-0.1,0.1-0.1,0.1-0.1c0.7-0.7,1.4-1.4,2.1-2c1.3-0.9,2.7-1.6,4.2-1.7c1.1-0.1,2.1,0,3.2,0.3c1.4,0.4,2.7,1,4,1.6
		c1.6,0.8,3.2,1.6,4.8,2.3c1.5,0.7,3.1,1.1,4.7,1.3C62.1,40.2,62.8,40.3,63.6,40.3z"/>
	<path class="st2" d="M61.3,37.3c-0.5,0.2-0.9,0.3-1.3,0.4c-1.2,0.2-2.4-0.1-3.6-0.6c-1.3-0.6-2.5-1.2-3.8-1.8
		c-1.3-0.7-2.7-1.3-4.2-1.7c-2.3-0.6-4.5-0.4-6.7,0.6c0,0-0.1,0-0.1,0c0.3-0.2,0.6-0.5,0.9-0.7c1.3-1,2.7-1.8,4.2-2.2
		c2.6-0.7,5-0.5,7.4,0.9c0.9,0.5,1.6,1.2,2.3,1.9c0.6,0.7,1.3,1.3,1.9,1.9c0.7,0.6,1.4,1.1,2.3,1.3C60.9,37.3,61.1,37.3,61.3,37.3z"
		/>
</g>
</svg>
