<?xml version="1.0" encoding="UTF-8" standalone="no"?>
<svg
   version="1.1"
   id="ic_empty_dark_multisend"
   inkscape:version="1.1 (c68e22c387, 2021-05-23)"
   sodipodi:docname="img-empty-dark-multisend.svg"
   x="0px"
   y="0px"
   viewBox="0 0 100 100"
   style="enable-background:new 0 0 100 100;"
   xml:space="preserve"
   xmlns:inkscape="http://www.inkscape.org/namespaces/inkscape"
   xmlns:sodipodi="http://sodipodi.sourceforge.net/DTD/sodipodi-0.dtd"
   xmlns="http://www.w3.org/2000/svg"
   xmlns:svg="http://www.w3.org/2000/svg"
   xmlns:rdf="http://www.w3.org/1999/02/22-rdf-syntax-ns#"
   xmlns:cc="http://creativecommons.org/ns#"
   xmlns:dc="http://purl.org/dc/elements/1.1/"><metadata
   id="metadata39"><rdf:RDF><cc:Work
       rdf:about=""><dc:format>image/svg+xml</dc:format><dc:type
         rdf:resource="http://purl.org/dc/dcmitype/StillImage" /></cc:Work></rdf:RDF></metadata><defs
   id="defs37"><pattern
     id="EMFhbasepattern"
     patternUnits="userSpaceOnUse"
     width="6"
     height="6"
     x="0"
     y="0" /><style
     id="style889">.cls-1{fill:#fedf41;}.cls-2{fill:#4a95d0;}.cls-3{fill:#4e5f80;}.cls-4{fill:#fff;}.cls-5{fill:#3b4461;}</style></defs>
<style
   type="text/css"
   id="style2">
	.st0{fill:#2EA1FF;}
	.st1{fill:#A09EA5;}
	.st2{fill:#EFEFEF;}
</style>
<sodipodi:namedview
   bordercolor="#666666"
   borderopacity="1"
   gridtolerance="10"
   guidetolerance="10"
   id="namedview25"
   inkscape:current-layer="ic_empty_dark_multisend"
   inkscape:cx="38.632703"
   inkscape:cy="46.425745"
   inkscape:pageopacity="0"
   inkscape:pageshadow="2"
   inkscape:window-height="2066"
   inkscape:window-width="3840"
   inkscape:zoom="24.059926"
   objecttolerance="10"
   pagecolor="#ffffff"
   showgrid="false"
   inkscape:document-rotation="0"
   inkscape:window-x="3829"
   inkscape:window-y="-11"
   inkscape:window-maximized="1"
   inkscape:pagecheckerboard="0">
	</sodipodi:namedview>
<g
   id="Group_9062">
	<g
   id="Group_9060"
   style="fill:#009dff;fill-opacity:1">
		<path
   id="Rectangle_4717"
   class="st0"
   d="M45,18h10v9H45V18z"
   style="fill:#eeb91c;fill-opacity:1" />
		<g
   id="Group_9059"
   style="fill:#eeb91c;fill-opacity:1">
			<path
   id="Rectangle_4718"
   class="st0"
   d="M14,66h6v10h-6V66z"
   style="fill:#eeb91c;fill-opacity:1" />
			<path
   id="Rectangle_4719"
   class="st0"
   d="M80,66h6v10h-6V66z"
   style="fill:#eeb91c;fill-opacity:1" />
			<path
   id="Rectangle_4720"
   class="st0"
   d="M47,66h6v10h-6V66z"
   style="fill:#eeb91c;fill-opacity:1" />
		</g>
	</g>
	<g
   id="Group_9061">
		<path
   id="Rectangle_4722"
   class="st1"
   d="M67,40h2v4h-2V40z" />
		<circle
   id="Ellipse_643"
   class="st1"
   cx="50"
   cy="73"
   r="1" />
		<circle
   id="Ellipse_644"
   class="st1"
   cx="83"
   cy="73"
   r="1" />
		<path
   id="Rectangle_4723"
   class="st1"
   d="M32,58h4v2h-4V58z" />
		<path
   id="Path_19007"
   class="st1"
   d="M16,65h-3v3H7v4h2v-2h4v7h8v-7h4v21H9V76H7v17h20V68h-6v-3h-3v-5h10v-2H16V65z M19,67v8h-4    v-8H19z" />
		<circle
   id="Ellipse_645"
   class="st1"
   cx="17"
   cy="73"
   r="1" />
		<path
   id="Path_19008"
   class="st1"
   d="M87,68v-3h-3v-7H51v-5h18v-5h-2v3H33V28h34v8h2v-8h4V17H59.5c2.2-2.5,2-6.3-0.5-8.5    s-6.3-2-8.5,0.5c-0.2,0.2-0.4,0.5-0.5,0.7c-1.8-2.8-5.5-3.5-8.3-1.7s-3.5,5.5-1.7,8.3c0.2,0.3,0.4,0.5,0.6,0.7H27v11h4v25h18v5h-9    v2h9v5h-3v3h-6v16h2V70h4v7h8v-7h4v21H42v-3h-2v5h20V68h-6v-3h-3v-5h31v5h-3v3h-6v12h2V70h4v7h8v-7h4v21H75v-7h-2v9h20V68H87z     M71,19v7H56v-7H71z M51,13c0-2.2,1.8-4,4-4s4,1.8,4,4s-1.8,4-4,4h-4V13z M51,19h3v7h-8v-7H51z M45,9c2.2,0,4,1.8,4,4v4h-4    c-2.2,0-4-1.8-4-4S42.8,9,45,9z M29,26v-7h15v7H29z M52,67v8h-4v-8H52z M85,75h-4v-8h4V75z" />
	</g>
</g>
<rect
   x="33"
   y="28"
   class="st0"
   width="34"
   height="23"
   id="rect20"
   style="fill:#22252e;fill-opacity:1" /><path
   class="cls-1"
   d="m 53.596525,40.566982 q -0.457118,-0.584227 -1.439249,-0.936341 1.236349,-0.710545 1.236349,-1.866364 0,-0.914236 -0.738178,-1.592412 Q 51.91727,35.49369 50.740923,35.49369 h -1.158978 v -2.539014 c 0,-0.03631 -0.120003,-0.06632 -0.267638,-0.06632 -0.147636,0 -0.26527,0.02921 -0.26527,0.06553 v 2.539805 H 48.259542 V 33.98023 c 0,-0.03237 -0.120003,-0.05763 -0.267639,-0.05763 -0.147635,0 -0.26527,0.02526 -0.26527,0.05685 v 1.514246 h -0.941866 a 0.48159165,0.48159165 0 0 0 -0.322114,0.08606 0.3157978,0.3157978 0 0 0 0,0.457117 0.48159165,0.48159165 0 0 0 0.322114,0.08606 h 0.846337 v 7.509673 h -0.846337 a 0.48159165,0.48159165 0 0 0 -0.322114,0.08606 0.29053397,0.29053397 0 0 0 -0.09711,0.228165 0.29369196,0.29369196 0 0 0 0.09711,0.225005 0.46738075,0.46738075 0 0 0 0.322114,0.09 h 0.942656 v 1.815836 c 0,0.0316 0.117635,0.05688 0.262112,0.05688 h 0.01106 c 0.143688,0 0.259743,-0.02528 0.259743,-0.05604 v -1.81585 h 0.789495 v 2.50191 c 0,0.03551 0.116845,0.0647 0.261323,0.0647 h 0.01184 c 0.142899,0 0.259744,-0.02843 0.259744,-0.06395 V 44.26262 h 1.907418 a 2.5871734,2.5871734 0 0 0 1.342141,-0.367114 2.4924342,2.4924342 0 0 0 0.918183,-0.888182 2.2674282,2.2674282 0 0 0 0.300007,-1.150293 2.0455802,2.0455802 0 0 0 -0.45396,-1.290034 z m -2.84218,-4.444065 q 0.892128,0 1.446354,0.49896 0.554225,0.498961 0.552646,1.090293 a 1.4858286,1.4858286 0 0 1 -0.255006,0.809231 1.6334641,1.6334641 0 0 1 -0.710545,0.607121 3.1919262,3.1919262 0 0 1 -1.304246,0.262113 h -0.901603 v -3.267718 z m -1.706887,0 v 3.267718 h -0.789494 v -3.267718 z m -0.789494,7.509672 v -3.604832 h 0.789494 v 3.604832 z m 4.924076,-0.937131 a 1.9082082,1.9082082 0 0 1 -0.682124,0.667123 2.01479,2.01479 0 0 1 -1.057132,0.270008 h -1.860839 v -3.604832 h 0.941867 q 1.041344,0 1.633464,0.232111 a 2.0455802,2.0455802 0 0 1 0.925288,0.682123 1.5410932,1.5410932 0 0 1 0.333956,0.929236 1.6105688,1.6105688 0 0 1 -0.232112,0.824231 z"
   id="path6"
   style="fill:#eeb91c;stroke:#eeb91c;stroke-width:0.379;stroke-miterlimit:4;stroke-dasharray:none;stroke-opacity:1" />

</svg>
