<?xml version="1.0" encoding="UTF-8" standalone="no"?>
<svg
   xmlns:dc="http://purl.org/dc/elements/1.1/"
   xmlns:cc="http://creativecommons.org/ns#"
   xmlns:rdf="http://www.w3.org/1999/02/22-rdf-syntax-ns#"
   xmlns:svg="http://www.w3.org/2000/svg"
   xmlns="http://www.w3.org/2000/svg"
   id="Layer_1"
   data-name="Layer 1"
   viewBox="0 0 98.45 82.24"
   version="1.1">
  <metadata
     id="metadata15">
    <rdf:RDF>
      <cc:Work
         rdf:about="">
        <dc:format>image/svg+xml</dc:format>
        <dc:type
           rdf:resource="http://purl.org/dc/dcmitype/StillImage" />
        <dc:title></dc:title>
      </cc:Work>
    </rdf:RDF>
  </metadata>
  <defs
     id="defs4">
    <style
       id="style2">.cls-1{opacity:0.19;}.cls-2{fill:#eaeaea;}</style>
  </defs>
  <g
     class="cls-1"
     id="g10"
     style="opacity:1;fill:#b3b3b3">
    <path
       class="cls-2"
       d="m 51.767311,48.796671 a 10.031768,9.5989008 0 0 0 -7.810385,-4.030008 h -0.195481 a 7.7393002,7.4053521 0 0 1 -7.668216,-6.529633 14.554505,13.926483 0 0 0 3.118822,-3.009753 19.752542,18.900227 0 0 0 3.554214,-8.774194 2.1236426,2.0320082 0 0 0 0.33765,-0.501626 15.443058,14.776696 0 0 0 1.199547,-5.764441 c 0,-7.719931 -6.095476,-14.0030026 -13.594867,-14.0030026 a 12.626344,12.081522 0 0 0 -5.597886,1.2583148 9.5075214,9.0972753 0 0 0 -1.945932,0.340085 c -6.219874,1.7004253 -9.774088,8.9867478 -7.89924,16.1540398 a 17.771068,17.004253 0 0 0 0.737499,2.125532 1.8215345,1.7429359 0 0 0 0.328765,0.493123 c 0.719728,5.101276 3.225449,9.292825 6.655265,11.681922 a 7.7215291,7.3883479 0 0 1 -7.668216,6.529633 h -0.17771 a 10.022882,9.5903986 0 0 0 -9.658576,9.55639 v 10.321582 a 1.7771068,1.7004253 0 0 0 1.8215345,1.751438 H 39.496388 a 1.83042,1.7514381 0 0 0 0,-3.494374 H 9.125633 v -8.578646 a 6.3798134,6.1045268 0 0 1 6.379813,-6.096024 h 0.177711 a 11.311285,10.823207 0 0 0 3.731924,-0.731183 l 8.627854,11.902977 a 1.8215345,1.7429359 0 0 0 2.994425,0 l 8.627853,-11.902977 a 11.364598,10.87422 0 0 0 3.74081,0.731183 h 0.177711 a 6.3620424,6.0875225 0 0 1 5.206923,2.550638 1.8393055,1.7599402 0 0 0 2.541263,0.416604 1.7771068,1.7004253 0 0 0 0.435391,-2.3976 z M 24.222155,11.106745 a 6.4686688,6.1895481 0 0 1 1.501656,-0.23806 1.7771068,1.7004253 0 0 0 0.764155,-0.195549 9.1254435,8.7316839 0 0 1 4.265057,-1.0287571 c 5.33132,0 9.774087,4.5316331 9.942912,10.2025521 a 6.4864399,6.2065523 0 0 0 -3.936291,-1.266817 h -9.56972 a 2.1325282,2.0405104 0 0 1 -1.297288,-0.416604 2.0614439,1.9724933 0 0 1 -0.719729,-0.892724 2.1414137,2.0490125 0 0 0 -4.060689,0.255064 12.564145,12.022007 0 0 1 -2.50572,4.650663 C 17.655746,17.08374 20.037069,12.254532 24.186613,11.106745 Z M 19.8949,25.874938 a 16.411581,15.703428 0 0 0 3.794123,-4.914229 v 0 a 5.7933682,5.5433865 0 0 0 3.48313,1.105277 h 9.551949 a 2.8877986,2.7631911 0 0 1 2.603461,1.564391 16.97137,16.239062 0 0 1 -3.047738,9.539386 c -1.839306,2.380595 -4.229514,3.689923 -6.735235,3.689923 A 8.3168599,7.9579904 0 0 1 23.182548,33.628878 15.842907,15.159291 0 0 1 19.8949,25.874938 Z m 9.64969,29.476873 -6.98403,-9.63291 a 11.409026,10.91673 0 0 0 3.811895,-5.866467 10.458274,10.007003 0 0 0 3.16325,0.467617 10.591557,10.134535 0 0 0 3.16325,-0.467617 11.32017,10.831709 0 0 0 3.811894,5.866467 z"
       id="path6"
       style="stroke-width:0.869172;fill:#b3b3b3" />
    <path
       class="cls-2"
       d="m 83.293186,54.442083 h -0.177711 a 7.7215291,7.3883479 0 0 1 -7.668216,-6.546637 16.260527,15.558891 0 0 0 5.331321,-6.71668 1.7771068,1.7004253 0 0 0 1.199547,1.147787 1.6082817,1.5388849 0 0 0 0.542017,0.08502 1.8215345,1.7429359 0 0 0 1.350601,-0.68017 18.46414,17.667419 0 0 0 3.758581,-11.418356 18.535224,17.735436 0 0 0 -4.318369,-11.052764 13.434927,12.855215 0 0 0 -10.102852,-4.752689 c -0.204368,0 -0.701958,0 -0.781927,0 a 13.639295,13.050764 0 0 0 -6.104362,-1.1988 14.856613,14.215555 0 0 0 -11.346827,5.951489 21.325282,20.405104 0 0 0 -4.167316,13.050764 21.938384,20.99175 0 0 0 0.186596,2.253064 22.213835,21.255316 0 0 0 1.777107,5.951488 1.8215345,1.7429359 0 0 0 3.207678,0.187047 c 0.151054,-0.229558 0.33765,-0.51863 0.550903,-0.7992 a 18.019863,17.242312 0 0 0 3.625298,6.15554 13.479355,12.897726 0 0 0 2.16807,1.870467 7.7393002,7.4053521 0 0 1 -7.668216,6.538136 h -0.17771 a 10.022882,9.5903986 0 0 0 -9.64969,9.55639 V 74.34556 a 1.8215345,1.7429359 0 0 0 1.777107,1.700426 H 91.130227 A 1.7771068,1.7004253 0 0 0 92.907333,74.34556 V 64.02398 A 10.022882,9.5903986 0 0 0 83.293186,54.442083 Z M 55.046073,36.154009 a 21.396366,20.473121 0 0 1 -0.426506,-2.057514 19.885825,19.027759 0 0 1 -0.168825,-1.929983 17.664442,16.902227 0 0 1 3.420931,-10.823207 11.275743,10.789198 0 0 1 8.565655,-4.514629 10.493816,10.041011 0 0 1 4.851501,1.028757 1.8659621,1.7854466 0 0 0 0.888554,0.178545 h 0.995179 a 9.8807139,9.4543646 0 0 1 7.383879,3.511378 14.927697,14.283572 0 0 1 3.438702,8.884722 15.940648,15.252815 0 0 1 -0.773042,5.271319 c -0.17771,-0.442111 -0.364307,-0.850213 -0.577559,-1.300826 a 16.313841,15.609904 0 0 0 -8.343517,-7.813454 1.8570766,1.7769444 0 0 0 -1.430571,0 1.8837332,1.8024508 0 0 0 -0.986294,0.994749 13.15059,12.583147 0 0 1 -0.888553,1.819455 5.4468324,5.2118035 0 0 1 -5.020327,2.550638 8.8055642,8.4256073 0 0 0 -0.968523,0 14.216854,13.603402 0 0 0 -4.567165,0.850212 16.242756,15.541887 0 0 0 -5.393519,3.349838 z m 4.442767,0.952238 a 10.538243,10.083522 0 0 1 5.615657,-1.700425 h 0.719729 a 9.0721303,8.6806711 0 0 0 8.325745,-4.31908 l 0.293223,-0.51863 a 12.661886,12.11553 0 0 1 4.185086,3.996 v 0.153038 a 16.189443,15.490874 0 0 1 -3.358732,8.553139 8.3168599,7.9579904 0 0 1 -6.362042,3.230808 c -4.309484,0.02551 -8.139149,-3.87697 -9.383124,-9.386347 z m 6.219874,12.438611 a 10.48493,10.032509 0 0 0 6.3265,0 11.417911,10.925232 0 0 0 5.437947,6.946238 8.885534,8.5021265 0 0 1 -17.193509,0 11.409026,10.91673 0 0 0 5.446833,-6.946238 z M 89.308692,72.602625 H 48.435236 V 64.02398 a 6.388699,6.1130289 0 0 1 6.379813,-6.104527 h 0.186596 a 11.551194,11.052764 0 0 0 1.839306,-0.195549 12.564145,12.022007 0 0 0 24.035369,0 11.426797,10.933735 0 0 0 1.839306,0.195549 h 0.177711 a 6.388699,6.1130289 0 0 1 6.379813,6.104527 z"
       id="path8"
       style="stroke-width:0.869172;fill:#b3b3b3" />
  </g>
</svg>
