<?xml version="1.0" encoding="utf-8"?>
<!DOCTYPE svg PUBLIC "-//W3C//DTD SVG 1.1//EN" "http://www.w3.org/Graphics/SVG/1.1/DTD/svg11.dtd">
<svg version="1.1" id="Layer_1" xmlns="http://www.w3.org/2000/svg" xmlns:xlink="http://www.w3.org/1999/xlink" x="0px" y="0px"
width="1160px" height="1160px" viewBox="0 0 1160 1160" enable-background="new 0 0 1160 1160" xml:space="preserve">
<rect x="0" y="0" width="1160" height="1160" fill="rgb(255,255,255)" /><g transform="translate(80,80)"><g transform="translate(320,0) scale(2.8571428571429,2.8571428571429)"><g transform="" style="fill: rgb(10, 26, 41);">
    <path d="M14,14H0c0,0,4.38-9.15,0.55-14C0.55,0,14-0.24,14,14z"/>
</g></g><g transform="translate(400,0) scale(2.8571428571429,2.8571428571429)"><g transform="" style="fill: rgb(10, 26, 41);">
    <path d="M13.999,0v14c0,0-9.151-4.381-14-0.551C-0.001,13.449-0.242,0,13.999,0z"/>
</g></g><g transform="translate(440,0) scale(0.4,0.4)"><g transform="" style="fill: rgb(10, 26, 41);">
<rect width="100" height="100"/>
</g></g><g transform="translate(480,0) scale(2.8571428571429,2.8571428571429)"><g transform="" style="fill: rgb(10, 26, 41);">
    <path d="M0,14V0c0,0,9.15,4.38,14,0.55C14,0.55,14.24,14,0,14z"/>
</g></g><g transform="translate(640,0) scale(0.08,0.08)"><g transform="" style="fill: rgb(10, 26, 41);">
<path d="M250,0c138.077,0,250,111.93,250,250c0,138.077-111.923,250-250,250C111.93,500,0,388.077,0,250C0,111.93,111.93,0,250,0z"
	/>
</g></g><g transform="translate(320,40) scale(2.8571428571429,2.8571428571429)"><g transform="" style="fill: rgb(10, 26, 41);">
        <path d="M0-0.001h14v13.97v0.029l-3.431,0.001C4.731,13.999,0,7.731,0-0.001z"/>
</g></g><g transform="translate(360,40) scale(2.8571428571429,2.8571428571429)"><g transform="" style="fill: rgb(10, 26, 41);">
    <path d="M13.999,13.999H0V0.028v-0.029h3.43C9.269-0.001,13.999,6.267,13.999,13.999z"/>
</g></g><g transform="translate(360,80) scale(0.4,0.4)"><g transform="" style="fill: rgb(10, 26, 41);">
<rect width="100" height="100"/>
</g></g><g transform="translate(440,80) scale(0.08,0.08)"><g transform="" style="fill: rgb(10, 26, 41);">
<path d="M250,0c138.077,0,250,111.93,250,250c0,138.077-111.923,250-250,250C111.93,500,0,388.077,0,250C0,111.93,111.93,0,250,0z"
	/>
</g></g><g transform="translate(520,80) scale(2.8571428571429,2.8571428571429)"><g transform="" style="fill: rgb(10, 26, 41);">
    <path d="M13.999-0.001v14H0.029H0v-3.431C0,4.729,6.267-0.001,13.999-0.001z"/>
</g></g><g transform="translate(560,80) scale(0.4,0.4)"><g transform="" style="fill: rgb(10, 26, 41);">
<rect width="100" height="100"/>
</g></g><g transform="translate(600,80) scale(2.8571428571429,2.8571428571429)"><g transform="" style="fill: rgb(10, 26, 41);">
    <path d="M0,14V0c0,0,9.15,4.38,14,0.55C14,0.55,14.24,14,0,14z"/>
</g></g><g transform="translate(320,120) scale(2.8571428571429,2.8571428571429)"><g transform="" style="fill: rgb(10, 26, 41);">
    <path d="M13.999,0v14c0,0-9.151-4.381-14-0.551C-0.001,13.449-0.242,0,13.999,0z"/>
</g></g><g transform="translate(360,120) scale(0.4,0.4)"><g transform="" style="fill: rgb(10, 26, 41);">
<rect width="100" height="100"/>
</g></g><g transform="translate(400,120) scale(2.8571428571429,2.8571428571429)"><g transform="" style="fill: rgb(10, 26, 41);">
    <path d="M0,14V0c0,0,9.15,4.38,14,0.55C14,0.55,14.24,14,0,14z"/>
</g></g><g transform="translate(480,120) scale(2.8571428571429,2.8571428571429)"><g transform="" style="fill: rgb(10, 26, 41);">
    <path d="M13.999,0v14c0,0-9.151-4.381-14-0.551C-0.001,13.449-0.242,0,13.999,0z"/>
</g></g><g transform="translate(520,120) scale(0.4,0.4)"><g transform="" style="fill: rgb(10, 26, 41);">
<rect width="100" height="100"/>
</g></g><g transform="translate(560,120) scale(2.8571428571429,2.8571428571429)"><g transform="" style="fill: rgb(10, 26, 41);">
    <path d="M0,14V0h13.971H14v3.43C14,9.27,7.732,14,0,14z"/>
</g></g><g transform="translate(600,160) scale(2.8571428571429,2.8571428571429)"><g transform="" style="fill: rgb(10, 26, 41);">
    <path d="M13.999,0v14c0,0-9.151-4.381-14-0.551C-0.001,13.449-0.242,0,13.999,0z"/>
</g></g><g transform="translate(640,160) scale(2.8571428571429,2.8571428571429)"><g transform="" style="fill: rgb(10, 26, 41);">
    <path d="M13.999,13.999H0V0.028v-0.029h3.43C9.269-0.001,13.999,6.267,13.999,13.999z"/>
</g></g><g transform="translate(360,200) scale(0.08,0.08)"><g transform="" style="fill: rgb(10, 26, 41);">
<path d="M250,0c138.077,0,250,111.93,250,250c0,138.077-111.923,250-250,250C111.93,500,0,388.077,0,250C0,111.93,111.93,0,250,0z"
	/>
</g></g><g transform="translate(440,200) scale(2.8571428571429,2.8571428571429)"><g transform="" style="fill: rgb(10, 26, 41);">
    <path d="M13.999,0v14c0,0-9.151-4.381-14-0.551C-0.001,13.449-0.242,0,13.999,0z"/>
</g></g><g transform="translate(480,200) scale(0.4,0.4)"><g transform="" style="fill: rgb(10, 26, 41);">
<rect width="100" height="100"/>
</g></g><g transform="translate(520,200) scale(0.4,0.4)"><g transform="" style="fill: rgb(10, 26, 41);">
<rect width="100" height="100"/>
</g></g><g transform="translate(560,200) scale(2.8571428571429,2.8571428571429)"><g transform="" style="fill: rgb(10, 26, 41);">
    <path d="M13.999,13.999H0V0.028v-0.029h3.43C9.269-0.001,13.999,6.267,13.999,13.999z"/>
</g></g><g transform="translate(640,200) scale(0.4,0.4)"><g transform="" style="fill: rgb(10, 26, 41);">
<rect width="100" height="100"/>
</g></g><g transform="translate(320,240) scale(2.8571428571429,2.8571428571429)"><g transform="" style="fill: rgb(10, 26, 41);">
    <path d="M14,14H0c0,0,4.38-9.15,0.55-14C0.55,0,14-0.24,14,14z"/>
</g></g><g transform="translate(400,240) scale(2.8571428571429,2.8571428571429)"><g transform="" style="fill: rgb(10, 26, 41);">
    <path d="M14,14H0c0,0,4.38-9.15,0.55-14C0.55,0,14-0.24,14,14z"/>
</g></g><g transform="translate(480,240) scale(2.8571428571429,2.8571428571429)"><g transform="" style="fill: rgb(10, 26, 41);">
    <path d="M-0.001,0l14,0c0,0-4.381,9.151-0.551,14C13.448,14-0.001,14.24-0.001,0z"/>
</g></g><g transform="translate(560,240) scale(0.4,0.4)"><g transform="" style="fill: rgb(10, 26, 41);">
<rect width="100" height="100"/>
</g></g><g transform="translate(640,240) scale(0.4,0.4)"><g transform="" style="fill: rgb(10, 26, 41);">
<rect width="100" height="100"/>
</g></g><g transform="translate(320,280) scale(2.8571428571429,2.8571428571429)"><g transform="" style="fill: rgb(10, 26, 41);">
    <path d="M-0.001,0l14,0c0,0-4.381,9.151-0.551,14C13.448,14-0.001,14.24-0.001,0z"/>
</g></g><g transform="translate(400,280) scale(2.8571428571429,2.8571428571429)"><g transform="" style="fill: rgb(10, 26, 41);">
        <path d="M0-0.001h14v13.97v0.029l-3.431,0.001C4.731,13.999,0,7.731,0-0.001z"/>
</g></g><g transform="translate(440,280) scale(2.8571428571429,2.8571428571429)"><g transform="" style="fill: rgb(10, 26, 41);">
    <path d="M0,14V0c0,0,9.15,4.38,14,0.55C14,0.55,14.24,14,0,14z"/>
</g></g><g transform="translate(560,280) scale(2.8571428571429,2.8571428571429)"><g transform="" style="fill: rgb(10, 26, 41);">
        <path d="M0-0.001h14v13.97v0.029l-3.431,0.001C4.731,13.999,0,7.731,0-0.001z"/>
</g></g><g transform="translate(600,280) scale(0.4,0.4)"><g transform="" style="fill: rgb(10, 26, 41);">
<rect width="100" height="100"/>
</g></g><g transform="translate(640,280) scale(0.4,0.4)"><g transform="" style="fill: rgb(10, 26, 41);">
<rect width="100" height="100"/>
</g></g><g transform="translate(0,320) scale(0.08,0.08)"><g transform="" style="fill: rgb(10, 26, 41);">
<path d="M250,0c138.077,0,250,111.93,250,250c0,138.077-111.923,250-250,250C111.93,500,0,388.077,0,250C0,111.93,111.93,0,250,0z"
	/>
</g></g><g transform="translate(80,320) scale(2.8571428571429,2.8571428571429)"><g transform="" style="fill: rgb(10, 26, 41);">
    <path d="M13.999,0v14c0,0-9.151-4.381-14-0.551C-0.001,13.449-0.242,0,13.999,0z"/>
</g></g><g transform="translate(120,320) scale(2.8571428571429,2.8571428571429)"><g transform="" style="fill: rgb(10, 26, 41);">
    <path d="M13.999,13.999H0V0.028v-0.029h3.43C9.269-0.001,13.999,6.267,13.999,13.999z"/>
</g></g><g transform="translate(200,320) scale(2.8571428571429,2.8571428571429)"><g transform="" style="fill: rgb(10, 26, 41);">
    <path d="M13.999-0.001v14H0.029H0v-3.431C0,4.729,6.267-0.001,13.999-0.001z"/>
</g></g><g transform="translate(240,320) scale(0.4,0.4)"><g transform="" style="fill: rgb(10, 26, 41);">
<rect width="100" height="100"/>
</g></g><g transform="translate(280,320) scale(2.8571428571429,2.8571428571429)"><g transform="" style="fill: rgb(10, 26, 41);">
    <path d="M0,14V0c0,0,9.15,4.38,14,0.55C14,0.55,14.24,14,0,14z"/>
</g></g><g transform="translate(600,320) scale(2.8571428571429,2.8571428571429)"><g transform="" style="fill: rgb(10, 26, 41);">
        <path d="M0-0.001h14v13.97v0.029l-3.431,0.001C4.731,13.999,0,7.731,0-0.001z"/>
</g></g><g transform="translate(640,320) scale(2.8571428571429,2.8571428571429)"><g transform="" style="fill: rgb(10, 26, 41);">
    <path d="M0,14V0h13.971H14v3.43C14,9.27,7.732,14,0,14z"/>
</g></g><g transform="translate(720,320) scale(0.08,0.08)"><g transform="" style="fill: rgb(10, 26, 41);">
<path d="M250,0c138.077,0,250,111.93,250,250c0,138.077-111.923,250-250,250C111.93,500,0,388.077,0,250C0,111.93,111.93,0,250,0z"
	/>
</g></g><g transform="translate(840,320) scale(0.08,0.08)"><g transform="" style="fill: rgb(10, 26, 41);">
<path d="M250,0c138.077,0,250,111.93,250,250c0,138.077-111.923,250-250,250C111.93,500,0,388.077,0,250C0,111.93,111.93,0,250,0z"
	/>
</g></g><g transform="translate(920,320) scale(2.8571428571429,2.8571428571429)"><g transform="" style="fill: rgb(10, 26, 41);">
    <path d="M13.999-0.001v14H0.029H0v-3.431C0,4.729,6.267-0.001,13.999-0.001z"/>
</g></g><g transform="translate(960,320) scale(2.8571428571429,2.8571428571429)"><g transform="" style="fill: rgb(10, 26, 41);">
    <path d="M0,14V0c0,0,9.15,4.38,14,0.55C14,0.55,14.24,14,0,14z"/>
</g></g><g transform="translate(120,360) scale(0.4,0.4)"><g transform="" style="fill: rgb(10, 26, 41);">
<rect width="100" height="100"/>
</g></g><g transform="translate(160,360) scale(0.4,0.4)"><g transform="" style="fill: rgb(10, 26, 41);">
<rect width="100" height="100"/>
</g></g><g transform="translate(200,360) scale(0.4,0.4)"><g transform="" style="fill: rgb(10, 26, 41);">
<rect width="100" height="100"/>
</g></g><g transform="translate(320,360) scale(0.08,0.08)"><g transform="" style="fill: rgb(10, 26, 41);">
<path d="M250,0c138.077,0,250,111.93,250,250c0,138.077-111.923,250-250,250C111.93,500,0,388.077,0,250C0,111.93,111.93,0,250,0z"
	/>
</g></g><g transform="translate(440,360) scale(2.8571428571429,2.8571428571429)"><g transform="" style="fill: rgb(10, 26, 41);">
    <path d="M14,14H0c0,0,4.38-9.15,0.55-14C0.55,0,14-0.24,14,14z"/>
</g></g><g transform="translate(520,360) scale(2.8571428571429,2.8571428571429)"><g transform="" style="fill: rgb(10, 26, 41);">
    <path d="M14,14H0c0,0,4.38-9.15,0.55-14C0.55,0,14-0.24,14,14z"/>
</g></g><g transform="translate(760,360) scale(2.8571428571429,2.8571428571429)"><g transform="" style="fill: rgb(10, 26, 41);">
    <path d="M14,14H0c0,0,4.38-9.15,0.55-14C0.55,0,14-0.24,14,14z"/>
</g></g><g transform="translate(920,360) scale(2.8571428571429,2.8571428571429)"><g transform="" style="fill: rgb(10, 26, 41);">
    <path d="M-0.001,0l14,0c0,0-4.381,9.151-0.551,14C13.448,14-0.001,14.24-0.001,0z"/>
</g></g><g transform="translate(80,400) scale(2.8571428571429,2.8571428571429)"><g transform="" style="fill: rgb(10, 26, 41);">
    <path d="M13.999-0.001v14H0.029H0v-3.431C0,4.729,6.267-0.001,13.999-0.001z"/>
</g></g><g transform="translate(120,400) scale(2.8571428571429,2.8571428571429)"><g transform="" style="fill: rgb(10, 26, 41);">
    <path d="M0,14V0h13.971H14v3.43C14,9.27,7.732,14,0,14z"/>
</g></g><g transform="translate(200,400) scale(0.4,0.4)"><g transform="" style="fill: rgb(10, 26, 41);">
<rect width="100" height="100"/>
</g></g><g transform="translate(240,400) scale(2.8571428571429,2.8571428571429)"><g transform="" style="fill: rgb(10, 26, 41);">
    <path d="M0,14V0c0,0,9.15,4.38,14,0.55C14,0.55,14.24,14,0,14z"/>
</g></g><g transform="translate(360,400) scale(2.8571428571429,2.8571428571429)"><g transform="" style="fill: rgb(10, 26, 41);">
    <path d="M14,14H0c0,0,4.38-9.15,0.55-14C0.55,0,14-0.24,14,14z"/>
</g></g><g transform="translate(440,400) scale(2.8571428571429,2.8571428571429)"><g transform="" style="fill: rgb(10, 26, 41);">
    <path d="M-0.001,0l14,0c0,0-4.381,9.151-0.551,14C13.448,14-0.001,14.24-0.001,0z"/>
</g></g><g transform="translate(520,400) scale(0.4,0.4)"><g transform="" style="fill: rgb(10, 26, 41);">
<rect width="100" height="100"/>
</g></g><g transform="translate(680,400) scale(2.8571428571429,2.8571428571429)"><g transform="" style="fill: rgb(10, 26, 41);">
    <path d="M14,14H0c0,0,4.38-9.15,0.55-14C0.55,0,14-0.24,14,14z"/>
</g></g><g transform="translate(760,400) scale(2.8571428571429,2.8571428571429)"><g transform="" style="fill: rgb(10, 26, 41);">
        <path d="M0-0.001h14v13.97v0.029l-3.431,0.001C4.731,13.999,0,7.731,0-0.001z"/>
</g></g><g transform="translate(800,400) scale(2.8571428571429,2.8571428571429)"><g transform="" style="fill: rgb(10, 26, 41);">
    <path d="M0,14V0c0,0,9.15,4.38,14,0.55C14,0.55,14.24,14,0,14z"/>
</g></g><g transform="translate(40,440) scale(2.8571428571429,2.8571428571429)"><g transform="" style="fill: rgb(10, 26, 41);">
    <path d="M13.999-0.001v14H0.029H0v-3.431C0,4.729,6.267-0.001,13.999-0.001z"/>
</g></g><g transform="translate(80,440) scale(0.4,0.4)"><g transform="" style="fill: rgb(10, 26, 41);">
<rect width="100" height="100"/>
</g></g><g transform="translate(200,440) scale(0.4,0.4)"><g transform="" style="fill: rgb(10, 26, 41);">
<rect width="100" height="100"/>
</g></g><g transform="translate(280,440) scale(0.08,0.08)"><g transform="" style="fill: rgb(10, 26, 41);">
<path d="M250,0c138.077,0,250,111.93,250,250c0,138.077-111.923,250-250,250C111.93,500,0,388.077,0,250C0,111.93,111.93,0,250,0z"
	/>
</g></g><g transform="translate(360,440) scale(0.4,0.4)"><g transform="" style="fill: rgb(10, 26, 41);">
<rect width="100" height="100"/>
</g></g><g transform="translate(400,440) scale(2.8571428571429,2.8571428571429)"><g transform="" style="fill: rgb(10, 26, 41);">
    <path d="M13.999,13.999H0V0.028v-0.029h3.43C9.269-0.001,13.999,6.267,13.999,13.999z"/>
</g></g><g transform="translate(520,440) scale(2.8571428571429,2.8571428571429)"><g transform="" style="fill: rgb(10, 26, 41);">
        <path d="M0-0.001h14v13.97v0.029l-3.431,0.001C4.731,13.999,0,7.731,0-0.001z"/>
</g></g><g transform="translate(560,440) scale(0.4,0.4)"><g transform="" style="fill: rgb(10, 26, 41);">
<rect width="100" height="100"/>
</g></g><g transform="translate(600,440) scale(2.8571428571429,2.8571428571429)"><g transform="" style="fill: rgb(10, 26, 41);">
    <path d="M0,14V0c0,0,9.15,4.38,14,0.55C14,0.55,14.24,14,0,14z"/>
</g></g><g transform="translate(680,440) scale(0.4,0.4)"><g transform="" style="fill: rgb(10, 26, 41);">
<rect width="100" height="100"/>
</g></g><g transform="translate(720,440) scale(2.8571428571429,2.8571428571429)"><g transform="" style="fill: rgb(10, 26, 41);">
    <path d="M13.999,13.999H0V0.028v-0.029h3.43C9.269-0.001,13.999,6.267,13.999,13.999z"/>
</g></g><g transform="translate(840,440) scale(2.8571428571429,2.8571428571429)"><g transform="" style="fill: rgb(10, 26, 41);">
    <path d="M13.999,0v14c0,0-9.151-4.381-14-0.551C-0.001,13.449-0.242,0,13.999,0z"/>
</g></g><g transform="translate(880,440) scale(2.8571428571429,2.8571428571429)"><g transform="" style="fill: rgb(10, 26, 41);">
    <path d="M13.999,13.999H0V0.028v-0.029h3.43C9.269-0.001,13.999,6.267,13.999,13.999z"/>
</g></g><g transform="translate(40,480) scale(0.4,0.4)"><g transform="" style="fill: rgb(10, 26, 41);">
<rect width="100" height="100"/>
</g></g><g transform="translate(80,480) scale(2.8571428571429,2.8571428571429)"><g transform="" style="fill: rgb(10, 26, 41);">
    <path d="M0,14V0h13.971H14v3.43C14,9.27,7.732,14,0,14z"/>
</g></g><g transform="translate(200,480) scale(2.8571428571429,2.8571428571429)"><g transform="" style="fill: rgb(10, 26, 41);">
        <path d="M0-0.001h14v13.97v0.029l-3.431,0.001C4.731,13.999,0,7.731,0-0.001z"/>
</g></g><g transform="translate(240,480) scale(2.8571428571429,2.8571428571429)"><g transform="" style="fill: rgb(10, 26, 41);">
    <path d="M0,14V0c0,0,9.15,4.38,14,0.55C14,0.55,14.24,14,0,14z"/>
</g></g><g transform="translate(320,480) scale(2.8571428571429,2.8571428571429)"><g transform="" style="fill: rgb(10, 26, 41);">
    <path d="M13.999,0v14c0,0-9.151-4.381-14-0.551C-0.001,13.449-0.242,0,13.999,0z"/>
</g></g><g transform="translate(360,480) scale(0.4,0.4)"><g transform="" style="fill: rgb(10, 26, 41);">
<rect width="100" height="100"/>
</g></g><g transform="translate(400,480) scale(2.8571428571429,2.8571428571429)"><g transform="" style="fill: rgb(10, 26, 41);">
    <path d="M0,14V0h13.971H14v3.43C14,9.27,7.732,14,0,14z"/>
</g></g><g transform="translate(680,480) scale(2.8571428571429,2.8571428571429)"><g transform="" style="fill: rgb(10, 26, 41);">
        <path d="M0-0.001h14v13.97v0.029l-3.431,0.001C4.731,13.999,0,7.731,0-0.001z"/>
</g></g><g transform="translate(720,480) scale(0.4,0.4)"><g transform="" style="fill: rgb(10, 26, 41);">
<rect width="100" height="100"/>
</g></g><g transform="translate(760,480) scale(0.4,0.4)"><g transform="" style="fill: rgb(10, 26, 41);">
<rect width="100" height="100"/>
</g></g><g transform="translate(800,480) scale(2.8571428571429,2.8571428571429)"><g transform="" style="fill: rgb(10, 26, 41);">
    <path d="M13.999,13.999H0V0.028v-0.029h3.43C9.269-0.001,13.999,6.267,13.999,13.999z"/>
</g></g><g transform="translate(880,480) scale(2.8571428571429,2.8571428571429)"><g transform="" style="fill: rgb(10, 26, 41);">
        <path d="M0-0.001h14v13.97v0.029l-3.431,0.001C4.731,13.999,0,7.731,0-0.001z"/>
</g></g><g transform="translate(920,480) scale(0.4,0.4)"><g transform="" style="fill: rgb(10, 26, 41);">
<rect width="100" height="100"/>
</g></g><g transform="translate(960,480) scale(2.8571428571429,2.8571428571429)"><g transform="" style="fill: rgb(10, 26, 41);">
    <path d="M13.999,13.999H0V0.028v-0.029h3.43C9.269-0.001,13.999,6.267,13.999,13.999z"/>
</g></g><g transform="translate(40,520) scale(0.4,0.4)"><g transform="" style="fill: rgb(10, 26, 41);">
<rect width="100" height="100"/>
</g></g><g transform="translate(280,520) scale(2.8571428571429,2.8571428571429)"><g transform="" style="fill: rgb(10, 26, 41);">
    <path d="M14,14H0c0,0,4.38-9.15,0.55-14C0.55,0,14-0.24,14,14z"/>
</g></g><g transform="translate(360,520) scale(2.8571428571429,2.8571428571429)"><g transform="" style="fill: rgb(10, 26, 41);">
    <path d="M-0.001,0l14,0c0,0-4.381,9.151-0.551,14C13.448,14-0.001,14.24-0.001,0z"/>
</g></g><g transform="translate(440,520) scale(0.08,0.08)"><g transform="" style="fill: rgb(10, 26, 41);">
<path d="M250,0c138.077,0,250,111.93,250,250c0,138.077-111.923,250-250,250C111.93,500,0,388.077,0,250C0,111.93,111.93,0,250,0z"
	/>
</g></g><g transform="translate(520,520) scale(2.8571428571429,2.8571428571429)"><g transform="" style="fill: rgb(10, 26, 41);">
    <path d="M13.999,0v14c0,0-9.151-4.381-14-0.551C-0.001,13.449-0.242,0,13.999,0z"/>
</g></g><g transform="translate(560,520) scale(0.4,0.4)"><g transform="" style="fill: rgb(10, 26, 41);">
<rect width="100" height="100"/>
</g></g><g transform="translate(600,520) scale(0.4,0.4)"><g transform="" style="fill: rgb(10, 26, 41);">
<rect width="100" height="100"/>
</g></g><g transform="translate(640,520) scale(2.8571428571429,2.8571428571429)"><g transform="" style="fill: rgb(10, 26, 41);">
    <path d="M0,14V0c0,0,9.15,4.38,14,0.55C14,0.55,14.24,14,0,14z"/>
</g></g><g transform="translate(720,520) scale(2.8571428571429,2.8571428571429)"><g transform="" style="fill: rgb(10, 26, 41);">
        <path d="M0-0.001h14v13.97v0.029l-3.431,0.001C4.731,13.999,0,7.731,0-0.001z"/>
</g></g><g transform="translate(760,520) scale(0.4,0.4)"><g transform="" style="fill: rgb(10, 26, 41);">
<rect width="100" height="100"/>
</g></g><g transform="translate(800,520) scale(0.4,0.4)"><g transform="" style="fill: rgb(10, 26, 41);">
<rect width="100" height="100"/>
</g></g><g transform="translate(960,520) scale(2.8571428571429,2.8571428571429)"><g transform="" style="fill: rgb(10, 26, 41);">
    <path d="M-0.001,0l14,0c0,0-4.381,9.151-0.551,14C13.448,14-0.001,14.24-0.001,0z"/>
</g></g><g transform="translate(40,560) scale(2.8571428571429,2.8571428571429)"><g transform="" style="fill: rgb(10, 26, 41);">
        <path d="M0-0.001h14v13.97v0.029l-3.431,0.001C4.731,13.999,0,7.731,0-0.001z"/>
</g></g><g transform="translate(80,560) scale(2.8571428571429,2.8571428571429)"><g transform="" style="fill: rgb(10, 26, 41);">
    <path d="M0,14V0c0,0,9.15,4.38,14,0.55C14,0.55,14.24,14,0,14z"/>
</g></g><g transform="translate(240,560) scale(2.8571428571429,2.8571428571429)"><g transform="" style="fill: rgb(10, 26, 41);">
    <path d="M13.999,0v14c0,0-9.151-4.381-14-0.551C-0.001,13.449-0.242,0,13.999,0z"/>
</g></g><g transform="translate(280,560) scale(0.4,0.4)"><g transform="" style="fill: rgb(10, 26, 41);">
<rect width="100" height="100"/>
</g></g><g transform="translate(320,560) scale(2.8571428571429,2.8571428571429)"><g transform="" style="fill: rgb(10, 26, 41);">
    <path d="M13.999,13.999H0V0.028v-0.029h3.43C9.269-0.001,13.999,6.267,13.999,13.999z"/>
</g></g><g transform="translate(400,560) scale(2.8571428571429,2.8571428571429)"><g transform="" style="fill: rgb(10, 26, 41);">
    <path d="M14,14H0c0,0,4.38-9.15,0.55-14C0.55,0,14-0.24,14,14z"/>
</g></g><g transform="translate(480,560) scale(2.8571428571429,2.8571428571429)"><g transform="" style="fill: rgb(10, 26, 41);">
    <path d="M14,14H0c0,0,4.38-9.15,0.55-14C0.55,0,14-0.24,14,14z"/>
</g></g><g transform="translate(560,560) scale(2.8571428571429,2.8571428571429)"><g transform="" style="fill: rgb(10, 26, 41);">
    <path d="M-0.001,0l14,0c0,0-4.381,9.151-0.551,14C13.448,14-0.001,14.24-0.001,0z"/>
</g></g><g transform="translate(800,560) scale(0.4,0.4)"><g transform="" style="fill: rgb(10, 26, 41);">
<rect width="100" height="100"/>
</g></g><g transform="translate(880,560) scale(2.8571428571429,2.8571428571429)"><g transform="" style="fill: rgb(10, 26, 41);">
    <path d="M13.999,0v14c0,0-9.151-4.381-14-0.551C-0.001,13.449-0.242,0,13.999,0z"/>
</g></g><g transform="translate(920,560) scale(2.8571428571429,2.8571428571429)"><g transform="" style="fill: rgb(10, 26, 41);">
    <path d="M0,14V0c0,0,9.15,4.38,14,0.55C14,0.55,14.24,14,0,14z"/>
</g></g><g transform="translate(0,600) scale(0.08,0.08)"><g transform="" style="fill: rgb(10, 26, 41);">
<path d="M250,0c138.077,0,250,111.93,250,250c0,138.077-111.923,250-250,250C111.93,500,0,388.077,0,250C0,111.93,111.93,0,250,0z"
	/>
</g></g><g transform="translate(120,600) scale(2.8571428571429,2.8571428571429)"><g transform="" style="fill: rgb(10, 26, 41);">
    <path d="M13.999-0.001v14H0.029H0v-3.431C0,4.729,6.267-0.001,13.999-0.001z"/>
</g></g><g transform="translate(160,600) scale(0.4,0.4)"><g transform="" style="fill: rgb(10, 26, 41);">
<rect width="100" height="100"/>
</g></g><g transform="translate(200,600) scale(2.8571428571429,2.8571428571429)"><g transform="" style="fill: rgb(10, 26, 41);">
    <path d="M13.999,13.999H0V0.028v-0.029h3.43C9.269-0.001,13.999,6.267,13.999,13.999z"/>
</g></g><g transform="translate(320,600) scale(2.8571428571429,2.8571428571429)"><g transform="" style="fill: rgb(10, 26, 41);">
        <path d="M0-0.001h14v13.97v0.029l-3.431,0.001C4.731,13.999,0,7.731,0-0.001z"/>
</g></g><g transform="translate(360,600) scale(0.4,0.4)"><g transform="" style="fill: rgb(10, 26, 41);">
<rect width="100" height="100"/>
</g></g><g transform="translate(400,600) scale(0.4,0.4)"><g transform="" style="fill: rgb(10, 26, 41);">
<rect width="100" height="100"/>
</g></g><g transform="translate(480,600) scale(2.8571428571429,2.8571428571429)"><g transform="" style="fill: rgb(10, 26, 41);">
        <path d="M0-0.001h14v13.97v0.029l-3.431,0.001C4.731,13.999,0,7.731,0-0.001z"/>
</g></g><g transform="translate(520,600) scale(2.8571428571429,2.8571428571429)"><g transform="" style="fill: rgb(10, 26, 41);">
    <path d="M0,14V0c0,0,9.15,4.38,14,0.55C14,0.55,14.24,14,0,14z"/>
</g></g><g transform="translate(600,600) scale(2.8571428571429,2.8571428571429)"><g transform="" style="fill: rgb(10, 26, 41);">
    <path d="M14,14H0c0,0,4.38-9.15,0.55-14C0.55,0,14-0.24,14,14z"/>
</g></g><g transform="translate(760,600) scale(2.8571428571429,2.8571428571429)"><g transform="" style="fill: rgb(10, 26, 41);">
    <path d="M13.999-0.001v14H0.029H0v-3.431C0,4.729,6.267-0.001,13.999-0.001z"/>
</g></g><g transform="translate(800,600) scale(0.4,0.4)"><g transform="" style="fill: rgb(10, 26, 41);">
<rect width="100" height="100"/>
</g></g><g transform="translate(960,600) scale(2.8571428571429,2.8571428571429)"><g transform="" style="fill: rgb(10, 26, 41);">
    <path d="M14,14H0c0,0,4.38-9.15,0.55-14C0.55,0,14-0.24,14,14z"/>
</g></g><g transform="translate(80,640) scale(2.8571428571429,2.8571428571429)"><g transform="" style="fill: rgb(10, 26, 41);">
    <path d="M13.999,0v14c0,0-9.151-4.381-14-0.551C-0.001,13.449-0.242,0,13.999,0z"/>
</g></g><g transform="translate(120,640) scale(2.8571428571429,2.8571428571429)"><g transform="" style="fill: rgb(10, 26, 41);">
    <path d="M0,14V0h13.971H14v3.43C14,9.27,7.732,14,0,14z"/>
</g></g><g transform="translate(200,640) scale(2.8571428571429,2.8571428571429)"><g transform="" style="fill: rgb(10, 26, 41);">
        <path d="M0-0.001h14v13.97v0.029l-3.431,0.001C4.731,13.999,0,7.731,0-0.001z"/>
</g></g><g transform="translate(240,640) scale(2.8571428571429,2.8571428571429)"><g transform="" style="fill: rgb(10, 26, 41);">
    <path d="M0,14V0c0,0,9.15,4.38,14,0.55C14,0.55,14.24,14,0,14z"/>
</g></g><g transform="translate(400,640) scale(0.4,0.4)"><g transform="" style="fill: rgb(10, 26, 41);">
<rect width="100" height="100"/>
</g></g><g transform="translate(440,640) scale(2.8571428571429,2.8571428571429)"><g transform="" style="fill: rgb(10, 26, 41);">
    <path d="M0,14V0c0,0,9.15,4.38,14,0.55C14,0.55,14.24,14,0,14z"/>
</g></g><g transform="translate(600,640) scale(2.8571428571429,2.8571428571429)"><g transform="" style="fill: rgb(10, 26, 41);">
        <path d="M0-0.001h14v13.97v0.029l-3.431,0.001C4.731,13.999,0,7.731,0-0.001z"/>
</g></g><g transform="translate(640,640) scale(0.4,0.4)"><g transform="" style="fill: rgb(10, 26, 41);">
<rect width="100" height="100"/>
</g></g><g transform="translate(680,640) scale(0.4,0.4)"><g transform="" style="fill: rgb(10, 26, 41);">
<rect width="100" height="100"/>
</g></g><g transform="translate(720,640) scale(0.4,0.4)"><g transform="" style="fill: rgb(10, 26, 41);">
<rect width="100" height="100"/>
</g></g><g transform="translate(760,640) scale(0.4,0.4)"><g transform="" style="fill: rgb(10, 26, 41);">
<rect width="100" height="100"/>
</g></g><g transform="translate(800,640) scale(0.4,0.4)"><g transform="" style="fill: rgb(10, 26, 41);">
<rect width="100" height="100"/>
</g></g><g transform="translate(840,640) scale(0.4,0.4)"><g transform="" style="fill: rgb(10, 26, 41);">
<rect width="100" height="100"/>
</g></g><g transform="translate(880,640) scale(0.4,0.4)"><g transform="" style="fill: rgb(10, 26, 41);">
<rect width="100" height="100"/>
</g></g><g transform="translate(920,640) scale(0.4,0.4)"><g transform="" style="fill: rgb(10, 26, 41);">
<rect width="100" height="100"/>
</g></g><g transform="translate(960,640) scale(0.4,0.4)"><g transform="" style="fill: rgb(10, 26, 41);">
<rect width="100" height="100"/>
</g></g><g transform="translate(320,680) scale(2.8571428571429,2.8571428571429)"><g transform="" style="fill: rgb(10, 26, 41);">
    <path d="M13.999-0.001v14H0.029H0v-3.431C0,4.729,6.267-0.001,13.999-0.001z"/>
</g></g><g transform="translate(360,680) scale(0.4,0.4)"><g transform="" style="fill: rgb(10, 26, 41);">
<rect width="100" height="100"/>
</g></g><g transform="translate(400,680) scale(2.8571428571429,2.8571428571429)"><g transform="" style="fill: rgb(10, 26, 41);">
    <path d="M0,14V0h13.971H14v3.43C14,9.27,7.732,14,0,14z"/>
</g></g><g transform="translate(480,680) scale(2.8571428571429,2.8571428571429)"><g transform="" style="fill: rgb(10, 26, 41);">
    <path d="M13.999-0.001v14H0.029H0v-3.431C0,4.729,6.267-0.001,13.999-0.001z"/>
</g></g><g transform="translate(520,680) scale(2.8571428571429,2.8571428571429)"><g transform="" style="fill: rgb(10, 26, 41);">
    <path d="M0,14V0c0,0,9.15,4.38,14,0.55C14,0.55,14.24,14,0,14z"/>
</g></g><g transform="translate(640,680) scale(0.4,0.4)"><g transform="" style="fill: rgb(10, 26, 41);">
<rect width="100" height="100"/>
</g></g><g transform="translate(800,680) scale(0.4,0.4)"><g transform="" style="fill: rgb(10, 26, 41);">
<rect width="100" height="100"/>
</g></g><g transform="translate(880,680) scale(0.4,0.4)"><g transform="" style="fill: rgb(10, 26, 41);">
<rect width="100" height="100"/>
</g></g><g transform="translate(960,680) scale(0.4,0.4)"><g transform="" style="fill: rgb(10, 26, 41);">
<rect width="100" height="100"/>
</g></g><g transform="translate(320,720) scale(0.4,0.4)"><g transform="" style="fill: rgb(10, 26, 41);">
<rect width="100" height="100"/>
</g></g><g transform="translate(360,720) scale(0.4,0.4)"><g transform="" style="fill: rgb(10, 26, 41);">
<rect width="100" height="100"/>
</g></g><g transform="translate(440,720) scale(2.8571428571429,2.8571428571429)"><g transform="" style="fill: rgb(10, 26, 41);">
    <path d="M13.999,0v14c0,0-9.151-4.381-14-0.551C-0.001,13.449-0.242,0,13.999,0z"/>
</g></g><g transform="translate(480,720) scale(0.4,0.4)"><g transform="" style="fill: rgb(10, 26, 41);">
<rect width="100" height="100"/>
</g></g><g transform="translate(640,720) scale(0.4,0.4)"><g transform="" style="fill: rgb(10, 26, 41);">
<rect width="100" height="100"/>
</g></g><g transform="translate(720,720) scale(0.08,0.08)"><g transform="" style="fill: rgb(10, 26, 41);">
<path d="M250,0c138.077,0,250,111.93,250,250c0,138.077-111.923,250-250,250C111.93,500,0,388.077,0,250C0,111.93,111.93,0,250,0z"
	/>
</g></g><g transform="translate(800,720) scale(0.4,0.4)"><g transform="" style="fill: rgb(10, 26, 41);">
<rect width="100" height="100"/>
</g></g><g transform="translate(880,720) scale(2.8571428571429,2.8571428571429)"><g transform="" style="fill: rgb(10, 26, 41);">
        <path d="M0-0.001h14v13.97v0.029l-3.431,0.001C4.731,13.999,0,7.731,0-0.001z"/>
</g></g><g transform="translate(920,720) scale(0.4,0.4)"><g transform="" style="fill: rgb(10, 26, 41);">
<rect width="100" height="100"/>
</g></g><g transform="translate(960,720) scale(2.8571428571429,2.8571428571429)"><g transform="" style="fill: rgb(10, 26, 41);">
    <path d="M0,14V0h13.971H14v3.43C14,9.27,7.732,14,0,14z"/>
</g></g><g transform="translate(320,760) scale(2.8571428571429,2.8571428571429)"><g transform="" style="fill: rgb(10, 26, 41);">
        <path d="M0-0.001h14v13.97v0.029l-3.431,0.001C4.731,13.999,0,7.731,0-0.001z"/>
</g></g><g transform="translate(360,760) scale(0.4,0.4)"><g transform="" style="fill: rgb(10, 26, 41);">
<rect width="100" height="100"/>
</g></g><g transform="translate(480,760) scale(0.4,0.4)"><g transform="" style="fill: rgb(10, 26, 41);">
<rect width="100" height="100"/>
</g></g><g transform="translate(600,760) scale(2.8571428571429,2.8571428571429)"><g transform="" style="fill: rgb(10, 26, 41);">
    <path d="M13.999,0v14c0,0-9.151-4.381-14-0.551C-0.001,13.449-0.242,0,13.999,0z"/>
</g></g><g transform="translate(640,760) scale(0.4,0.4)"><g transform="" style="fill: rgb(10, 26, 41);">
<rect width="100" height="100"/>
</g></g><g transform="translate(800,760) scale(0.4,0.4)"><g transform="" style="fill: rgb(10, 26, 41);">
<rect width="100" height="100"/>
</g></g><g transform="translate(920,760) scale(0.4,0.4)"><g transform="" style="fill: rgb(10, 26, 41);">
<rect width="100" height="100"/>
</g></g><g transform="translate(360,800) scale(0.4,0.4)"><g transform="" style="fill: rgb(10, 26, 41);">
<rect width="100" height="100"/>
</g></g><g transform="translate(400,800) scale(0.4,0.4)"><g transform="" style="fill: rgb(10, 26, 41);">
<rect width="100" height="100"/>
</g></g><g transform="translate(440,800) scale(0.4,0.4)"><g transform="" style="fill: rgb(10, 26, 41);">
<rect width="100" height="100"/>
</g></g><g transform="translate(480,800) scale(0.4,0.4)"><g transform="" style="fill: rgb(10, 26, 41);">
<rect width="100" height="100"/>
</g></g><g transform="translate(520,800) scale(2.8571428571429,2.8571428571429)"><g transform="" style="fill: rgb(10, 26, 41);">
    <path d="M13.999,13.999H0V0.028v-0.029h3.43C9.269-0.001,13.999,6.267,13.999,13.999z"/>
</g></g><g transform="translate(640,800) scale(0.4,0.4)"><g transform="" style="fill: rgb(10, 26, 41);">
<rect width="100" height="100"/>
</g></g><g transform="translate(680,800) scale(0.4,0.4)"><g transform="" style="fill: rgb(10, 26, 41);">
<rect width="100" height="100"/>
</g></g><g transform="translate(720,800) scale(0.4,0.4)"><g transform="" style="fill: rgb(10, 26, 41);">
<rect width="100" height="100"/>
</g></g><g transform="translate(760,800) scale(0.4,0.4)"><g transform="" style="fill: rgb(10, 26, 41);">
<rect width="100" height="100"/>
</g></g><g transform="translate(800,800) scale(0.4,0.4)"><g transform="" style="fill: rgb(10, 26, 41);">
<rect width="100" height="100"/>
</g></g><g transform="translate(840,800) scale(2.8571428571429,2.8571428571429)"><g transform="" style="fill: rgb(10, 26, 41);">
    <path d="M13.999,13.999H0V0.028v-0.029h3.43C9.269-0.001,13.999,6.267,13.999,13.999z"/>
</g></g><g transform="translate(920,800) scale(0.4,0.4)"><g transform="" style="fill: rgb(10, 26, 41);">
<rect width="100" height="100"/>
</g></g><g transform="translate(320,840) scale(2.8571428571429,2.8571428571429)"><g transform="" style="fill: rgb(10, 26, 41);">
    <path d="M13.999-0.001v14H0.029H0v-3.431C0,4.729,6.267-0.001,13.999-0.001z"/>
</g></g><g transform="translate(360,840) scale(0.4,0.4)"><g transform="" style="fill: rgb(10, 26, 41);">
<rect width="100" height="100"/>
</g></g><g transform="translate(480,840) scale(0.4,0.4)"><g transform="" style="fill: rgb(10, 26, 41);">
<rect width="100" height="100"/>
</g></g><g transform="translate(520,840) scale(0.4,0.4)"><g transform="" style="fill: rgb(10, 26, 41);">
<rect width="100" height="100"/>
</g></g><g transform="translate(560,840) scale(2.8571428571429,2.8571428571429)"><g transform="" style="fill: rgb(10, 26, 41);">
    <path d="M0,14V0c0,0,9.15,4.38,14,0.55C14,0.55,14.24,14,0,14z"/>
</g></g><g transform="translate(640,840) scale(0.4,0.4)"><g transform="" style="fill: rgb(10, 26, 41);">
<rect width="100" height="100"/>
</g></g><g transform="translate(680,840) scale(0.4,0.4)"><g transform="" style="fill: rgb(10, 26, 41);">
<rect width="100" height="100"/>
</g></g><g transform="translate(720,840) scale(0.4,0.4)"><g transform="" style="fill: rgb(10, 26, 41);">
<rect width="100" height="100"/>
</g></g><g transform="translate(800,840) scale(0.4,0.4)"><g transform="" style="fill: rgb(10, 26, 41);">
<rect width="100" height="100"/>
</g></g><g transform="translate(840,840) scale(0.4,0.4)"><g transform="" style="fill: rgb(10, 26, 41);">
<rect width="100" height="100"/>
</g></g><g transform="translate(880,840) scale(0.4,0.4)"><g transform="" style="fill: rgb(10, 26, 41);">
<rect width="100" height="100"/>
</g></g><g transform="translate(920,840) scale(0.4,0.4)"><g transform="" style="fill: rgb(10, 26, 41);">
<rect width="100" height="100"/>
</g></g><g transform="translate(960,840) scale(2.8571428571429,2.8571428571429)"><g transform="" style="fill: rgb(10, 26, 41);">
    <path d="M0,14V0c0,0,9.15,4.38,14,0.55C14,0.55,14.24,14,0,14z"/>
</g></g><g transform="translate(320,880) scale(2.8571428571429,2.8571428571429)"><g transform="" style="fill: rgb(10, 26, 41);">
        <path d="M0-0.001h14v13.97v0.029l-3.431,0.001C4.731,13.999,0,7.731,0-0.001z"/>
</g></g><g transform="translate(360,880) scale(0.4,0.4)"><g transform="" style="fill: rgb(10, 26, 41);">
<rect width="100" height="100"/>
</g></g><g transform="translate(400,880) scale(0.4,0.4)"><g transform="" style="fill: rgb(10, 26, 41);">
<rect width="100" height="100"/>
</g></g><g transform="translate(440,880) scale(0.4,0.4)"><g transform="" style="fill: rgb(10, 26, 41);">
<rect width="100" height="100"/>
</g></g><g transform="translate(480,880) scale(0.4,0.4)"><g transform="" style="fill: rgb(10, 26, 41);">
<rect width="100" height="100"/>
</g></g><g transform="translate(520,880) scale(2.8571428571429,2.8571428571429)"><g transform="" style="fill: rgb(10, 26, 41);">
    <path d="M0,14V0h13.971H14v3.43C14,9.27,7.732,14,0,14z"/>
</g></g><g transform="translate(600,880) scale(2.8571428571429,2.8571428571429)"><g transform="" style="fill: rgb(10, 26, 41);">
    <path d="M13.999,0v14c0,0-9.151-4.381-14-0.551C-0.001,13.449-0.242,0,13.999,0z"/>
</g></g><g transform="translate(640,880) scale(0.4,0.4)"><g transform="" style="fill: rgb(10, 26, 41);">
<rect width="100" height="100"/>
</g></g><g transform="translate(680,880) scale(0.4,0.4)"><g transform="" style="fill: rgb(10, 26, 41);">
<rect width="100" height="100"/>
</g></g><g transform="translate(720,880) scale(2.8571428571429,2.8571428571429)"><g transform="" style="fill: rgb(10, 26, 41);">
    <path d="M0,14V0h13.971H14v3.43C14,9.27,7.732,14,0,14z"/>
</g></g><g transform="translate(800,880) scale(0.4,0.4)"><g transform="" style="fill: rgb(10, 26, 41);">
<rect width="100" height="100"/>
</g></g><g transform="translate(880,880) scale(0.4,0.4)"><g transform="" style="fill: rgb(10, 26, 41);">
<rect width="100" height="100"/>
</g></g><g transform="translate(920,880) scale(2.8571428571429,2.8571428571429)"><g transform="" style="fill: rgb(10, 26, 41);">
    <path d="M0,14V0h13.971H14v3.43C14,9.27,7.732,14,0,14z"/>
</g></g><g transform="translate(360,920) scale(2.8571428571429,2.8571428571429)"><g transform="" style="fill: rgb(10, 26, 41);">
        <path d="M0-0.001h14v13.97v0.029l-3.431,0.001C4.731,13.999,0,7.731,0-0.001z"/>
</g></g><g transform="translate(400,920) scale(0.4,0.4)"><g transform="" style="fill: rgb(10, 26, 41);">
<rect width="100" height="100"/>
</g></g><g transform="translate(800,920) scale(0.4,0.4)"><g transform="" style="fill: rgb(10, 26, 41);">
<rect width="100" height="100"/>
</g></g><g transform="translate(880,920) scale(0.4,0.4)"><g transform="" style="fill: rgb(10, 26, 41);">
<rect width="100" height="100"/>
</g></g><g transform="translate(320,960) scale(0.08,0.08)"><g transform="" style="fill: rgb(10, 26, 41);">
<path d="M250,0c138.077,0,250,111.93,250,250c0,138.077-111.923,250-250,250C111.93,500,0,388.077,0,250C0,111.93,111.93,0,250,0z"
	/>
</g></g><g transform="translate(400,960) scale(2.8571428571429,2.8571428571429)"><g transform="" style="fill: rgb(10, 26, 41);">
    <path d="M-0.001,0l14,0c0,0-4.381,9.151-0.551,14C13.448,14-0.001,14.24-0.001,0z"/>
</g></g><g transform="translate(480,960) scale(0.08,0.08)"><g transform="" style="fill: rgb(10, 26, 41);">
<path d="M250,0c138.077,0,250,111.93,250,250c0,138.077-111.923,250-250,250C111.93,500,0,388.077,0,250C0,111.93,111.93,0,250,0z"
	/>
</g></g><g transform="translate(560,960) scale(0.08,0.08)"><g transform="" style="fill: rgb(10, 26, 41);">
<path d="M250,0c138.077,0,250,111.93,250,250c0,138.077-111.923,250-250,250C111.93,500,0,388.077,0,250C0,111.93,111.93,0,250,0z"
	/>
</g></g><g transform="translate(680,960) scale(0.08,0.08)"><g transform="" style="fill: rgb(10, 26, 41);">
<path d="M250,0c138.077,0,250,111.93,250,250c0,138.077-111.923,250-250,250C111.93,500,0,388.077,0,250C0,111.93,111.93,0,250,0z"
	/>
</g></g><g transform="translate(760,960) scale(2.8571428571429,2.8571428571429)"><g transform="" style="fill: rgb(10, 26, 41);">
    <path d="M13.999,0v14c0,0-9.151-4.381-14-0.551C-0.001,13.449-0.242,0,13.999,0z"/>
</g></g><g transform="translate(800,960) scale(0.4,0.4)"><g transform="" style="fill: rgb(10, 26, 41);">
<rect width="100" height="100"/>
</g></g><g transform="translate(840,960) scale(0.4,0.4)"><g transform="" style="fill: rgb(10, 26, 41);">
<rect width="100" height="100"/>
</g></g><g transform="translate(880,960) scale(0.4,0.4)"><g transform="" style="fill: rgb(10, 26, 41);">
<rect width="100" height="100"/>
</g></g><g transform="translate(920,960) scale(0.4,0.4)"><g transform="" style="fill: rgb(10, 26, 41);">
<rect width="100" height="100"/>
</g></g><g transform="translate(960,960) scale(2.8571428571429,2.8571428571429)"><g transform="" style="fill: rgb(10, 26, 41);">
    <path d="M0,14V0c0,0,9.15,4.38,14,0.55C14,0.55,14.24,14,0,14z"/>
</g></g><g transform="translate(0,0) scale(2.7450980392157, 2.7450980392157)"><g transform="" style="fill: rgb(10, 26, 41);">
<g>
	<path style="fill:none;" d="M51,16c-19.299,0-35,15.701-35,35s15.701,35,35,35s35-15.701,35-35S70.299,16,51,16z"/>
	<path d="M51,1C23.387,1,1,23.387,1,51s22.387,50,50,50s50-22.387,50-50S78.613,1,51,1z M51,86c-19.299,0-35-15.701-35-35
		s15.701-35,35-35s35,15.701,35,35S70.299,86,51,86z"/>
</g>
</g></g><g transform="translate(720,0) scale(2.7450980392157, 2.7450980392157)"><g transform="" style="fill: rgb(10, 26, 41);">
<g>
	<path style="fill:none;" d="M51,16c-19.299,0-35,15.701-35,35s15.701,35,35,35s35-15.701,35-35S70.299,16,51,16z"/>
	<path d="M51,1C23.387,1,1,23.387,1,51s22.387,50,50,50s50-22.387,50-50S78.613,1,51,1z M51,86c-19.299,0-35-15.701-35-35
		s15.701-35,35-35s35,15.701,35,35S70.299,86,51,86z"/>
</g>
</g></g><g transform="translate(0,720) scale(2.7450980392157, 2.7450980392157)"><g transform="" style="fill: rgb(10, 26, 41);">
<g>
	<path style="fill:none;" d="M51,16c-19.299,0-35,15.701-35,35s15.701,35,35,35s35-15.701,35-35S70.299,16,51,16z"/>
	<path d="M51,1C23.387,1,1,23.387,1,51s22.387,50,50,50s50-22.387,50-50S78.613,1,51,1z M51,86c-19.299,0-35-15.701-35-35
		s15.701-35,35-35s35,15.701,35,35S70.299,86,51,86z"/>
</g>
</g></g><g transform="translate(80,80) scale(1.1764705882353, 1.1764705882353)"><g transform="" style="fill: rgb(10, 26, 41);">
<circle cx="50" cy="50" r="50"/>
</g></g><g transform="translate(800,80) scale(1.1764705882353, 1.1764705882353)"><g transform="" style="fill: rgb(10, 26, 41);">
<circle cx="50" cy="50" r="50"/>
</g></g><g transform="translate(80,800) scale(1.1764705882353, 1.1764705882353)"><g transform="" style="fill: rgb(10, 26, 41);">
<circle cx="50" cy="50" r="50"/>
</g></g></g></svg>