<?xml version="1.0" encoding="UTF-8" standalone="no"?>
<svg
   xmlns:dc="http://purl.org/dc/elements/1.1/"
   xmlns:cc="http://creativecommons.org/ns#"
   xmlns:rdf="http://www.w3.org/1999/02/22-rdf-syntax-ns#"
   xmlns:svg="http://www.w3.org/2000/svg"
   xmlns="http://www.w3.org/2000/svg"
   version="1.1"
   id="ic_empty_Dark_zpiv"
   x="0px"
   y="0px"
   viewBox="0 0 100 100"
   style="enable-background:new 0 0 100 100;"
   xml:space="preserve"><metadata
   id="metadata34"><rdf:RDF><cc:Work
       rdf:about=""><dc:format>image/svg+xml</dc:format><dc:type
         rdf:resource="http://purl.org/dc/dcmitype/StillImage" /><dc:title></dc:title></cc:Work></rdf:RDF></metadata><defs
   id="defs32" />
<style
   type="text/css"
   id="style2">
	.st0{fill:#810890;}
	.st1{fill:#A09EA5;}
	.st2{fill:#EFEFEF;}
</style>

<g
   id="Group_9081">
	<path
   id="Path_19026"
   class="st0"
   d="M50,26c-13.3,0-24,10.7-24,24s10.7,24,24,24s24-10.7,24-24S63.3,26,50,26z M50,68   c-9.9,0-18-8.1-18-18s8.1-18,18-18s18,8.1,18,18S59.9,68,50,68z" />
	<g
   id="Group_9080">
		<g
   id="Group_9078">
			<path
   id="Path_19027"
   class="st1"
   d="M50,31c-10.5,0-19,8.5-19,19s8.5,19,19,19s19-8.5,19-19S60.5,31,50,31z M50,67     c-9.4,0-17-7.6-17-17s7.6-17,17-17s17,7.6,17,17S59.4,67,50,67z" />
			<path
   id="Rectangle_4744"
   class="st1"
   d="M83,56h2v4h-2V56z" />
			<path
   id="Rectangle_4745"
   class="st1"
   d="M83,44h2v8h-2V44z" />
			<path
   id="Rectangle_4746"
   class="st1"
   d="M15,48h2v8h-2V48z" />
			<path
   id="Rectangle_4747"
   class="st1"
   d="M15,40h2v4h-2V40z" />
			<path
   id="Path_19028"
   class="st1"
   d="M95.2,71H85v-7h-2v9h7.8L76,90.5L61.2,73H68v-2h-4.5c11.6-7.5,15-22.9,7.5-34.5     c-6.4-9.9-18.9-14-29.9-9.8L24,6.5L4.8,29H15v7h2v-9H9.2L24,9.5L38.8,27H32v2h4.5c-11.6,7.5-15,22.9-7.5,34.5     c6.4,9.9,18.9,14,29.9,9.8L76,93.5L95.2,71z M27,50c0-12.7,10.3-23,23-23s23,10.3,23,23S62.7,73,50,73S27,62.7,27,50z" />
		</g>
	</g>
</g>
<ellipse
   class="st0"
   cx="50"
   cy="50"
   id="circle15"
   rx="19.721924"
   ry="19.383734"
   style="stroke-width:1.29484" />
<g
   id="g29"
   transform="matrix(1.345385,0,0,1.3388411,-17.390135,-17.297839)">
	<path
   class="st2"
   d="m 45.2,45.3 h -1.9 l -4.7,4.8 10.7,9.6 c 0,0 0,0 0,0 L 42,50.2"
   id="path17" />
	<path
   class="st2"
   d="m 55.9,45.8 1.9,0.1 4.3,4.7 -11.2,7.9 c 0,0 0,0 0,0 l 7.9,-8.1"
   id="path19" />
	<path
   class="st2"
   d="m 44.8,51 -1.3,-1.5 -0.1,-7.1 13.7,2 c 0,0 0,0 0,0 l -11.2,0.7"
   id="path21" />
	<g
   id="g27">
		<path
   class="st2"
   d="m 51,47.6 h -2.2 l -0.2,1.3 h 2 c 1,0 1.3,0.4 1.3,1.2 0,0.4 -0.1,1 -0.2,1.2 -0.2,0.5 -0.5,1.2 -1.6,1.2 H 48.2 L 48,53.8 h 2.2 c 0.8,0 1.1,-0.1 1.5,-0.3 0.8,-0.4 1.2,-1.4 1.4,-2.6 0.2,-2 -0.1,-3.3 -2.1,-3.3"
   id="path23" />
		<path
   class="st2"
   d="m 47.9,50.1 c -0.6,0 -0.7,0.5 -0.7,0.7 -0.1,0.4 -0.1,0.5 -0.1,0.5 h 2.3 c 0.6,0 0.7,-0.5 0.7,-0.7 0.1,-0.4 0.1,-0.5 0.1,-0.5 z"
   id="path25" />
	</g>
</g>
</svg>
