<?xml version="1.0" encoding="UTF-8" standalone="no"?>
<svg
   xmlns:dc="http://purl.org/dc/elements/1.1/"
   xmlns:cc="http://creativecommons.org/ns#"
   xmlns:rdf="http://www.w3.org/1999/02/22-rdf-syntax-ns#"
   xmlns:svg="http://www.w3.org/2000/svg"
   xmlns="http://www.w3.org/2000/svg"
   xmlns:sodipodi="http://sodipodi.sourceforge.net/DTD/sodipodi-0.dtd"
   xmlns:inkscape="http://www.inkscape.org/namespaces/inkscape"
   version="1.1"
   id="ic_empty_Dark_zpiv"
   x="0px"
   y="0px"
   viewBox="0 0 100 100"
   style="enable-background:new 0 0 100 100;"
   xml:space="preserve"
   sodipodi:docname="img-empty-privacy-dark.svg"
   inkscape:version="1.0.1 (3bc2e813f5, 2020-09-07)"><sodipodi:namedview
   pagecolor="#ffffff"
   bordercolor="#666666"
   borderopacity="1"
   objecttolerance="10"
   gridtolerance="10"
   guidetolerance="10"
   inkscape:pageopacity="0"
   inkscape:pageshadow="2"
   inkscape:window-width="3840"
   inkscape:window-height="2066"
   id="namedview24"
   showgrid="false"
   inkscape:zoom="7.35"
   inkscape:cx="50"
   inkscape:cy="50"
   inkscape:window-x="3829"
   inkscape:window-y="-11"
   inkscape:window-maximized="1"
   inkscape:current-layer="ic_empty_Dark_zpiv" /><metadata
   id="metadata34"><rdf:RDF><cc:Work
       rdf:about=""><dc:format>image/svg+xml</dc:format><dc:type
         rdf:resource="http://purl.org/dc/dcmitype/StillImage" /><dc:title /></cc:Work></rdf:RDF></metadata><defs
   id="defs32" />
<style
   type="text/css"
   id="style2">
	.st0{fill:#2EA1FF;}
	.st1{fill:#A09EA5;}
	.st2{fill:#EFEFEF;}
</style>

<g
   id="Group_9081">
	<path
   id="Path_19026"
   class="st0"
   d="M50,26c-13.3,0-24,10.7-24,24s10.7,24,24,24s24-10.7,24-24S63.3,26,50,26z M50,68   c-9.9,0-18-8.1-18-18s8.1-18,18-18s18,8.1,18,18S59.9,68,50,68z"
   style="fill:#0c1e2d;fill-opacity:1" />
	<g
   id="Group_9080">
		<g
   id="Group_9078">
			<path
   id="Path_19027"
   class="st1"
   d="M50,31c-10.5,0-19,8.5-19,19s8.5,19,19,19s19-8.5,19-19S60.5,31,50,31z M50,67     c-9.4,0-17-7.6-17-17s7.6-17,17-17s17,7.6,17,17S59.4,67,50,67z" />
			<path
   id="Rectangle_4744"
   class="st1"
   d="M83,56h2v4h-2V56z" />
			<path
   id="Rectangle_4745"
   class="st1"
   d="M83,44h2v8h-2V44z" />
			<path
   id="Rectangle_4746"
   class="st1"
   d="M15,48h2v8h-2V48z" />
			<path
   id="Rectangle_4747"
   class="st1"
   d="M15,40h2v4h-2V40z" />
			<path
   id="Path_19028"
   class="st1"
   d="M95.2,71H85v-7h-2v9h7.8L76,90.5L61.2,73H68v-2h-4.5c11.6-7.5,15-22.9,7.5-34.5     c-6.4-9.9-18.9-14-29.9-9.8L24,6.5L4.8,29H15v7h2v-9H9.2L24,9.5L38.8,27H32v2h4.5c-11.6,7.5-15,22.9-7.5,34.5     c6.4,9.9,18.9,14,29.9,9.8L76,93.5L95.2,71z M27,50c0-12.7,10.3-23,23-23s23,10.3,23,23S62.7,73,50,73S27,62.7,27,50z" />
		</g>
	</g>
</g>
<ellipse
   class="st0"
   cx="50"
   cy="50"
   id="circle15"
   rx="19.721924"
   ry="19.383734"
   style="stroke-width:1.29484;fill:#0c1e2d;fill-opacity:1" />

<path
   id="path850"
   style="fill:#27cafc;fill-opacity:1;fill-rule:nonzero;stroke:none;stroke-width:0.228989"
   d="m 49.775958,35.328724 c -0.07642,0 -0.227188,0.303526 -0.914157,2.364417 -0.38165,1.297596 -0.917128,2.672081 -1.069788,3.053726 -0.457979,1.068611 -1.144713,2.214908 -2.823959,4.733774 -1.679246,2.518863 -2.136207,3.358799 -2.594186,4.427409 -1.450244,3.282158 -0.764952,6.86741 1.677581,9.462603 1.144949,1.144938 2.82422,2.137899 4.350819,2.366885 0.22899,0 0.534185,0.07659 0.686833,0.07659 H 50.1589 c 1.984566,-0.07633 3.74085,-0.840304 5.267437,-2.366885 1.297596,-1.297599 2.135685,-2.822811 2.441005,-4.654714 0.152572,-0.686962 0.152572,-2.443091 0,-3.053725 -0.381638,-1.679243 -1.067215,-3.052336 -3.204441,-6.258165 -2.518863,-3.740138 -2.749071,-4.274149 -3.970337,-7.861624 -0.610628,-1.984561 -0.763958,-2.290297 -0.916606,-2.290297 z m -4.807904,12.592922 c 0,0 0.230295,2.6e-4 0.382967,0.07659 0.381637,0.152671 0.380469,0.153966 0.380469,0.382954 0,0.305316 0.228878,0.611033 0.686846,0.840021 0.152572,0.07633 0.380742,0.150718 0.457072,0.150718 0,0 0.07654,0.07737 0.07654,0.306362 0,0.305314 7.83e-4,0.381262 0.229773,0.61025 0.152573,0.152651 0.381264,0.306623 0.610267,0.38295 0.152573,0.07633 0.382942,0.15097 0.382942,0.227302 0,0 -0.381787,0.535749 -0.763436,1.146381 -0.610628,0.992281 -0.763437,1.221287 -0.763437,1.450275 0,0.839623 1.29751,1.372116 2.137127,0.914142 0.228977,-0.152651 0.456836,-0.456707 1.83075,-2.517596 0.839617,-1.297599 1.603712,-2.290294 1.680042,-2.290294 0,0 0.07654,0.228345 0.07654,0.533661 0.07642,0.83962 0.151802,0.991773 0.457073,1.297092 0.305319,0.228986 0.76474,0.38295 1.14639,0.38295 0.30532,0 0.687355,-0.153966 0.840027,-0.38295 0.152573,-0.152652 0.150647,-0.303126 0.150647,-1.524394 0,-1.144936 2.48e-4,-1.375892 0.07654,-1.299564 0.07642,0 0.304935,0.458898 0.610229,0.993205 0.83963,1.679242 1.145869,3.053483 0.993222,4.427409 -0.22899,1.831904 -0.916121,3.282731 -2.213718,4.504001 -1.068631,1.068591 -2.137151,1.678342 -3.587395,1.907329 -2.137238,0.305316 -4.121618,-0.380763 -5.724509,-1.907344 -0.992289,-0.992283 -1.602022,-1.986164 -1.907354,-3.360088 -0.22899,-0.686964 -0.305842,-2.290175 -0.153144,-2.977137 0.07642,-0.686964 0.458377,-1.754043 0.840026,-2.441007 0.30532,-0.686964 0.990997,-1.756895 1.067315,-1.833223 z m 1.450282,2.900546 c -0.22899,0 -0.838859,0.458898 -1.220509,0.993202 -1.297597,1.831904 -0.30619,4.503362 1.907341,5.037662 0.83963,0.228987 1.52727,0.151607 2.366899,-0.306361 1.068607,-0.457975 1.754148,-1.679016 1.754148,-2.823956 0,-0.305318 -0.07542,-0.457594 -0.457061,-0.610251 -0.381649,-0.228989 -0.45706,-0.07698 -0.45706,0.533661 0.07642,0.610633 -0.07778,0.915969 -0.382967,1.450273 -0.457979,0.686962 -1.221167,0.993203 -2.137114,0.993203 -0.915946,-0.07633 -1.755203,-0.610653 -2.060523,-1.450275 -0.228977,-0.381644 -0.229772,-0.535228 -0.229772,-0.993201 0,-0.534305 7.95e-4,-0.609349 0.229772,-1.067322 0.22899,-0.457978 0.609609,-0.841067 1.143918,-1.146385 0.07642,-0.07633 0.22976,-0.150968 0.22976,-0.227297 0,-0.152652 -0.457855,-0.382953 -0.686832,-0.382953 z" /></svg>
