<?xml version="1.0" encoding="UTF-8" standalone="no"?>
<svg
   xmlns:dc="http://purl.org/dc/elements/1.1/"
   xmlns:cc="http://creativecommons.org/ns#"
   xmlns:rdf="http://www.w3.org/1999/02/22-rdf-syntax-ns#"
   xmlns:svg="http://www.w3.org/2000/svg"
   xmlns="http://www.w3.org/2000/svg"
   xmlns:sodipodi="http://sodipodi.sourceforge.net/DTD/sodipodi-0.dtd"
   xmlns:inkscape="http://www.inkscape.org/namespaces/inkscape"
   version="1.1"
   id="ic_dark_staking_on"
   inkscape:version="1.0.1 (3bc2e813f5, 2020-09-07)"
   sodipodi:docname="img-empty-dark-staking-on.svg"
   x="0px"
   y="0px"
   viewBox="0 0 100 100"
   style="enable-background:new 0 0 100 100;"
   xml:space="preserve"><metadata
   id="metadata30"><rdf:RDF><cc:Work
       rdf:about=""><dc:format>image/svg+xml</dc:format><dc:type
         rdf:resource="http://purl.org/dc/dcmitype/StillImage" /></cc:Work></rdf:RDF></metadata><defs
   id="defs28"><pattern
     id="EMFhbasepattern"
     patternUnits="userSpaceOnUse"
     width="6"
     height="6"
     x="0"
     y="0" /></defs>
<style
   type="text/css"
   id="style2">
	.st0{fill:#2EA1FF;}
	.st1{fill:#A09EA5;}
</style>
<sodipodi:namedview
   bordercolor="#666666"
   borderopacity="1"
   gridtolerance="10"
   guidetolerance="10"
   id="namedview18"
   inkscape:current-layer="Group_9051"
   inkscape:cx="110.21296"
   inkscape:cy="46.442196"
   inkscape:pageopacity="0"
   inkscape:pageshadow="2"
   inkscape:window-height="2066"
   inkscape:window-width="3840"
   inkscape:zoom="7.2667528"
   objecttolerance="10"
   pagecolor="#ffffff"
   showgrid="false"
   inkscape:document-rotation="0"
   inkscape:window-x="3829"
   inkscape:window-y="-11"
   inkscape:window-maximized="1">
	</sodipodi:namedview>
<g
   id="Group_9053">
	<g
   id="Group_9051"
   style="stroke:#6666ff;stroke-opacity:1;fill:#000000;fill-opacity:1">
		<ellipse
   id="Ellipse_640"
   class="st0"
   cx="80"
   cy="56"
   rx="12"
   ry="4"
   style="fill:#121228;fill-opacity:1;stroke:#6666ff;stroke-opacity:1" />
		<ellipse
   id="Ellipse_641"
   class="st0"
   cx="64"
   cy="68"
   rx="12"
   ry="4"
   style="fill:#121228;fill-opacity:1;stroke:#6666ff;stroke-opacity:1" />
		<path
   id="Rectangle_4706"
   class="st0"
   d="M32,24h14v14H32V24z"
   style="fill:#121228;fill-opacity:1;stroke:#6666ff;stroke-opacity:1" />
	</g>
	<g
   id="Group_9052">
		<path
   id="Rectangle_4707"
   class="st1"
   d="M12,60h2v4h-2V60z" />
		<path
   id="Path_19001"
   class="st1"
   d="M92,58c0.6-0.5,0.9-1.2,1-2c0-3.3-6.5-5-13-5s-13,1.7-13,5c0,0.8,0.4,1.5,1,2    c-1.1,0.9-1.3,2.5-0.4,3.6c0.1,0.1,0.2,0.3,0.4,0.4c-0.3,0.3-0.6,0.7-0.8,1.2c-0.4,0-0.8-0.1-1.2-0.1V39h5V23H52.6    c3.9-3.1,4.5-8.8,1.4-12.6S45.2,5.9,41.4,9c-1,0.8-1.8,1.8-2.4,2.9C36.7,7.5,31.3,5.7,26.9,8s-6.2,7.7-3.9,12.1    c0.6,1.1,1.4,2.1,2.4,2.9H7v16h5v17h2V39h50v24c-6.5,0-13,1.7-13,5c0,0.8,0.4,1.5,1,2c-1.1,0.9-1.3,2.5-0.4,3.6    c0.1,0.1,0.2,0.3,0.4,0.4c-0.3,0.3-0.6,0.6-0.7,1H14v-7h-2v9h39.2c0.2,0.4,0.4,0.7,0.7,1c-1.1,0.9-1.3,2.5-0.4,3.6    c0.1,0.1,0.2,0.3,0.4,0.4c-1.1,0.9-1.3,2.5-0.4,3.6c0.1,0.1,0.2,0.3,0.4,0.4c-0.6,0.5-0.9,1.2-1,2c0,3.3,6.5,5,13,5    c5.9,0,11.8-1.4,12.8-4.2c1,0.1,2.1,0.2,3.2,0.2c6.5,0,13-1.7,13-5c0-0.8-0.4-1.5-1-2c1.1-0.9,1.3-2.5,0.4-3.6    c-0.1-0.1-0.2-0.3-0.4-0.4c1.1-0.9,1.3-2.5,0.4-3.6c-0.1-0.1-0.2-0.3-0.4-0.4c1.1-0.9,1.3-2.5,0.4-3.6c-0.1-0.1-0.2-0.3-0.4-0.4    c1.1-0.9,1.3-2.5,0.4-3.6c-0.1-0.1-0.2-0.3-0.4-0.4c1.1-0.9,1.3-2.5,0.4-3.6c-0.1-0.1-0.2-0.3-0.4-0.4c1.1-0.9,1.3-2.5,0.4-3.6    C92.3,58.2,92.2,58.1,92,58z M31,37H9V25h22V37z M24,16c0-3.9,3.1-7,7-7s7,3.1,7,7v7h-7C27.1,23,24,19.9,24,16z M45,37H33V25h12    V37z M40,23v-7c0-3.9,3.1-7,7-7s7,3.1,7,7s-3.1,7-7,7H40z M47,37V25h22v12H47z M51,76c0,0.2,0,0.3,0.1,0.5C51,76.3,51,76.2,51,76z     M64,91c-7.1,0-11-2-11-3c0-0.2,0.2-0.5,0.7-0.8C56.2,88.4,60.1,89,64,89s7.8-0.6,10.3-1.8c0.4,0.3,0.7,0.6,0.7,0.8    C75,89,71.1,91,64,91z M64,87c-7.1,0-11-2-11-3c0-0.2,0.2-0.5,0.7-0.8C56.2,84.4,60.1,85,64,85s7.8-0.6,10.3-1.8    c0.4,0.3,0.7,0.6,0.7,0.8C75,85,71.1,87,64,87z M64,83c-7.1,0-11-2-11-3c0-0.2,0.2-0.5,0.7-0.8C56.2,80.4,60.1,81,64,81    s7.8-0.6,10.3-1.8c0.4,0.3,0.7,0.6,0.7,0.8C75,81,71.1,83,64,83z M64,79c-7.1,0-11-2-11-3c0-0.2,0.2-0.5,0.7-0.8    C56.2,76.4,60.1,77,64,77s7.8-0.6,10.3-1.8c0.4,0.3,0.7,0.6,0.7,0.8C75,77,71.1,79,64,79z M64,75c-7.1,0-11-2-11-3    c0-0.2,0.2-0.5,0.7-0.8C56.2,72.4,60.1,73,64,73s7.8-0.6,10.3-1.8c0.4,0.3,0.7,0.6,0.7,0.8C75,73,71.1,75,64,75z M64,71    c-7.1,0-11-2-11-3s3.9-3,11-3s11,2,11,3S71.1,71,64,71z M80,87c-1.2,0-2.3-0.1-3.3-0.2c-0.2-0.3-0.4-0.6-0.6-0.8    c0.3-0.3,0.6-0.7,0.8-1.2c1,0.1,2.1,0.2,3.2,0.2c3.9,0,7.8-0.6,10.3-1.8c0.4,0.3,0.7,0.6,0.7,0.8C91,85,87.1,87,80,87z M80,83    c-1.2,0-2.3-0.1-3.3-0.2c-0.2-0.3-0.4-0.6-0.6-0.8c0.3-0.3,0.6-0.7,0.8-1.2c1,0.1,2.1,0.2,3.2,0.2c3.9,0,7.8-0.6,10.3-1.8    c0.4,0.3,0.7,0.6,0.7,0.8C91,81,87.1,83,80,83z M80,79c-1.2,0-2.3-0.1-3.3-0.2c-0.2-0.3-0.4-0.6-0.6-0.8c0.3-0.3,0.6-0.7,0.8-1.2    c1,0.1,2.1,0.2,3.2,0.2c3.9,0,7.8-0.6,10.3-1.8c0.4,0.3,0.7,0.6,0.7,0.8C91,77,87.1,79,80,79z M80,75c-1.2,0-2.3-0.1-3.3-0.2    c-0.2-0.3-0.4-0.6-0.6-0.8c0.3-0.3,0.6-0.7,0.8-1.2c1,0.1,2.1,0.2,3.2,0.2c3.9,0,7.8-0.6,10.3-1.8c0.4,0.3,0.7,0.6,0.7,0.8    C91,73,87.1,75,80,75z M80,71c-1.2,0-2.3-0.1-3.3-0.2c-0.2-0.3-0.4-0.6-0.6-0.8c0.3-0.3,0.6-0.7,0.8-1.2c1,0.1,2.1,0.2,3.2,0.2    c3.9,0,7.8-0.6,10.3-1.8c0.4,0.3,0.7,0.6,0.7,0.8C91,69,87.1,71,80,71z M80,67c-1.2,0-2.3-0.1-3.3-0.2c-0.6-1.2-2.2-2.1-4.2-2.7    c2.5,0.6,5,0.9,7.5,0.9c3.9,0,7.8-0.6,10.3-1.8c0.4,0.3,0.7,0.6,0.7,0.8C91,65,87.1,67,80,67z M69.4,63.4c0.1-0.1,0.2-0.2,0.3-0.3    c0.6,0.3,1.2,0.5,1.8,0.7C70.8,63.7,70.1,63.5,69.4,63.4z M80,63c-7.1,0-11-2-11-3c0-0.2,0.2-0.5,0.7-0.8C72.2,60.4,76.1,61,80,61    s7.8-0.6,10.3-1.8c0.4,0.3,0.7,0.6,0.7,0.8C91,61,87.1,63,80,63z M80,59c-7.1,0-11-2-11-3s3.9-3,11-3s11,2,11,3S87.1,59,80,59z" />
	</g>
<g
   id="g895"
   transform="matrix(0.05864263,0,0,0.05697733,11.018743,56.361651)"><path
     style="fill:#f1b533;fill-opacity:1;fill-rule:nonzero;stroke:none"
     d="m 364.9102,-30.712344 c 2.33333,-0.66667 72.66667,-21 111.66667,-32.66667 0,0 33.66666,-9.66667 66.33333,-19.66667 6,-1.66666 12.33333,-3.66666 12.33333,-3.66666 4,-1.33334 8,-2.33334 12.33334,-3.66667 -27.33334,24.66667 -54.66667,49 -82,73.66667 -24.33334,20.66666 -48.66667,41.33333 -73,61.66666 -8,32.33334 -15.66667,64.333344 -23.66667,96.333344 -8,31.66666 -15.66667,63.33333 -23.33333,94.66666 -8.66667,-36.33333 -17.66667,-73 -26.66667,-109.66666 -7,-27.000004 -14.33333,-54.000004 -21.66667,-81.000004 -26,-21.66667 -51.66666,-43.66667 -77.66666,-65.33334 -24.66667,-22.33333 -49.66667,-44.66666 -74.33333,-67 40,11.66667 80.66666,23.33334 121.99999,35 26,7.33334 52,14.33334 77.66667,21.33334 z"
     id="path865" /><path
     style="fill:#e55d35;fill-opacity:1;fill-rule:nonzero;stroke:none"
     d="m 416.9102,86.954316 c 1,-5.33333 2.33333,-10.66666 3.66667,-16 1.66666,-6.33333 3,-12.66666 4.66666,-18.66666 5,-4.33334 9.66667,-8.33334 14.33334,-12.66667 4,-3.33333 8,-6.33333 12,-9.66667 22,16 44.66666,33.33334 67.66666,52 20,16 39,32.000004 56.66667,47.666674 -25.66667,-5.33333 -52.66667,-11.66667 -80.66667,-19.33333 -27.66666,-7.33334 -54,-15.333344 -78.33333,-23.333344 z"
     id="path871" /><path
     style="fill:#e55d35;fill-opacity:1;fill-rule:nonzero;stroke:none"
     d="m 276.9102,29.287656 c 4.33333,3.66666 8.66667,7.33333 13.33333,11 5.33334,4.33333 10.33334,8.66666 15.33334,13 1.66666,6 3.33333,12 4.66666,17.66666 1.33334,4.66667 2.33334,9.66667 3.33334,14.33334 -26.33334,9 -54.33334,18.000004 -83.66667,26.666664 -25.33333,7.66667 -50,14.33334 -74,20 18,-17.33333 37.66667,-35.000004 59,-53.333334 21.33334,-17.66667 42,-34.33333 62,-49.33333 z"
     id="path873" /><path
     style="fill:#e55d35;fill-opacity:1;fill-rule:nonzero;stroke:none"
     d="m 401.57687,-53.379014 c -5.66667,1.66667 -11.33334,3.33333 -17,5 -6.66667,1.66667 -13.66667,3.66667 -20.33334,5.33333 -6.33333,-1.66666 -12.66666,-3.33333 -19,-5 -5.33333,-1.66666 -10.33333,-3 -15.33333,-4.66666 4.66667,-25.33334 10,-51.666666 16.33333,-79.000006 5.66667,-23.66666 12,-46.33333 18,-68.33333 7.66667,23 14.66667,47.33333 21.33334,73.33333 6.66666,25.33334 11.66666,50.000006 16,73.333336 z"
     id="path875" /></g></g>

</svg>
