<?xml version="1.0" encoding="UTF-8" standalone="no"?>
<svg
   version="1.1"
   id="ic_empty_dark_multisend"
   inkscape:version="1.1 (c68e22c387, 2021-05-23)"
   sodipodi:docname="img-empty-dark-multisend.svg"
   x="0px"
   y="0px"
   viewBox="0 0 100 100"
   style="enable-background:new 0 0 100 100;"
   xml:space="preserve"
   xmlns:inkscape="http://www.inkscape.org/namespaces/inkscape"
   xmlns:sodipodi="http://sodipodi.sourceforge.net/DTD/sodipodi-0.dtd"
   xmlns="http://www.w3.org/2000/svg"
   xmlns:svg="http://www.w3.org/2000/svg"
   xmlns:rdf="http://www.w3.org/1999/02/22-rdf-syntax-ns#"
   xmlns:cc="http://creativecommons.org/ns#"
   xmlns:dc="http://purl.org/dc/elements/1.1/"><metadata
   id="metadata39"><rdf:RDF><cc:Work
       rdf:about=""><dc:format>image/svg+xml</dc:format><dc:type
         rdf:resource="http://purl.org/dc/dcmitype/StillImage" /></cc:Work></rdf:RDF></metadata><defs
   id="defs37"><pattern
     id="EMFhbasepattern"
     patternUnits="userSpaceOnUse"
     width="6"
     height="6"
     x="0"
     y="0" /><style
     id="style889">.cls-1{fill:#fedf41;}.cls-2{fill:#4a95d0;}.cls-3{fill:#4e5f80;}.cls-4{fill:#fff;}.cls-5{fill:#3b4461;}</style></defs>
<style
   type="text/css"
   id="style2">
	.st0{fill:#2EA1FF;}
	.st1{fill:#A09EA5;}
	.st2{fill:#EFEFEF;}
</style>
<sodipodi:namedview
   bordercolor="#666666"
   borderopacity="1"
   gridtolerance="10"
   guidetolerance="10"
   id="namedview25"
   inkscape:current-layer="ic_empty_dark_multisend"
   inkscape:cx="85.699488"
   inkscape:cy="28.801611"
   inkscape:pageopacity="0"
   inkscape:pageshadow="2"
   inkscape:window-height="1387"
   inkscape:window-width="2560"
   inkscape:zoom="4.2532343"
   objecttolerance="10"
   pagecolor="#ffffff"
   showgrid="false"
   inkscape:document-rotation="0"
   inkscape:window-x="2552"
   inkscape:window-y="-8"
   inkscape:window-maximized="1"
   inkscape:pagecheckerboard="0">
	</sodipodi:namedview>
<g
   id="Group_9062">
	<g
   id="Group_9060"
   style="fill:#009dff;fill-opacity:1">
		<path
   id="Rectangle_4717"
   class="st0"
   d="M45,18h10v9H45V18z"
   style="fill:#009dff;fill-opacity:1" />
		<g
   id="Group_9059"
   style="fill:#009dff;fill-opacity:1">
			<path
   id="Rectangle_4718"
   class="st0"
   d="M14,66h6v10h-6V66z"
   style="fill:#009dff;fill-opacity:1" />
			<path
   id="Rectangle_4719"
   class="st0"
   d="M80,66h6v10h-6V66z"
   style="fill:#009dff;fill-opacity:1" />
			<path
   id="Rectangle_4720"
   class="st0"
   d="M47,66h6v10h-6V66z"
   style="fill:#009dff;fill-opacity:1" />
		</g>
	</g>
	<g
   id="Group_9061">
		<path
   id="Rectangle_4722"
   class="st1"
   d="M67,40h2v4h-2V40z" />
		<circle
   id="Ellipse_643"
   class="st1"
   cx="50"
   cy="73"
   r="1" />
		<circle
   id="Ellipse_644"
   class="st1"
   cx="83"
   cy="73"
   r="1" />
		<path
   id="Rectangle_4723"
   class="st1"
   d="M32,58h4v2h-4V58z" />
		<path
   id="Path_19007"
   class="st1"
   d="M16,65h-3v3H7v4h2v-2h4v7h8v-7h4v21H9V76H7v17h20V68h-6v-3h-3v-5h10v-2H16V65z M19,67v8h-4    v-8H19z" />
		<circle
   id="Ellipse_645"
   class="st1"
   cx="17"
   cy="73"
   r="1" />
		<path
   id="Path_19008"
   class="st1"
   d="M87,68v-3h-3v-7H51v-5h18v-5h-2v3H33V28h34v8h2v-8h4V17H59.5c2.2-2.5,2-6.3-0.5-8.5    s-6.3-2-8.5,0.5c-0.2,0.2-0.4,0.5-0.5,0.7c-1.8-2.8-5.5-3.5-8.3-1.7s-3.5,5.5-1.7,8.3c0.2,0.3,0.4,0.5,0.6,0.7H27v11h4v25h18v5h-9    v2h9v5h-3v3h-6v16h2V70h4v7h8v-7h4v21H42v-3h-2v5h20V68h-6v-3h-3v-5h31v5h-3v3h-6v12h2V70h4v7h8v-7h4v21H75v-7h-2v9h20V68H87z     M71,19v7H56v-7H71z M51,13c0-2.2,1.8-4,4-4s4,1.8,4,4s-1.8,4-4,4h-4V13z M51,19h3v7h-8v-7H51z M45,9c2.2,0,4,1.8,4,4v4h-4    c-2.2,0-4-1.8-4-4S42.8,9,45,9z M29,26v-7h15v7H29z M52,67v8h-4v-8H52z M85,75h-4v-8h4V75z" />
	</g>
</g>
<rect
   x="33"
   y="28"
   class="st0"
   width="34"
   height="23"
   id="rect20"
   style="fill:#009dff;fill-opacity:1" /><path
   class="cls-1"
   d="m 58.42949,37.259239 a 3.4457495,3.4457495 0 0 0 -1.331566,-1.290117 3.5630133,3.5630133 0 0 0 -0.358233,-0.171814 3.6676057,3.6676057 0 0 0 -0.650112,-0.202317 4.2094671,4.2094671 0 0 0 -0.889143,-0.09106 q -1.052367,0 -1.907789,0.470774 -0.108887,0.05989 -0.211542,0.125642 l 0.234522,0.688762 a 2.8450414,2.8450414 0 0 1 0.362098,-0.23861 q 0.683186,-0.379492 1.523357,-0.379708 a 3.3149554,3.3149554 0 0 1 0.671154,0.06616 2.9090425,2.9090425 0 0 1 0.648175,0.212412 q 0.101155,0.0468 0.198872,0.101155 a 2.7490398,2.7490398 0 0 1 1.062679,1.052368 q 0.384218,0.67308 0.384432,1.50338 2.15e-4,0.830299 -0.384432,1.503381 a 2.7490398,2.7490398 0 0 1 -1.062679,1.052367 2.9620904,2.9620904 0 0 1 -1.118948,0.356943 3.5170527,3.5170527 0 0 1 -0.390664,0.0226 h -0.009 c -0.135304,0 -0.399684,-0.03327 -0.540574,-0.05236 a 0.87754505,0.87754505 0 0 1 -0.268456,-0.07819 0.9393984,0.9393984 0 0 1 -0.474209,-0.539713 l -1.977157,-5.806697 h -0.698214 l -2.115475,6.092562 -1.401151,-4.068364 a 2.5641238,2.5641238 0 0 0 -0.472487,-0.833087 3.4281384,3.4281384 0 0 0 -0.762006,-0.661275 q -0.102446,-0.06589 -0.21026,-0.125207 a 3.6465583,3.6465583 0 0 0 -0.481259,-0.221213 3.7382645,3.7382645 0 0 0 -0.427388,-0.130575 4.1761779,4.1761779 0 0 0 -0.989014,-0.114037 q -1.052367,0 -1.907575,0.470775 -0.855206,0.470773 -1.336075,1.290332 -0.479794,0.820194 -0.479794,1.841854 0,1.021649 0.480654,1.842068 0.480224,0.819559 1.336077,1.290117 0.855851,0.470559 1.907573,0.470559 1.052368,0 1.897695,-0.465403 a 3.4519778,3.4519778 0 0 0 1.035832,-0.862299 l -0.295525,-0.87648 c -0.01739,0.03524 -0.03649,0.07002 -0.05631,0.104593 a 2.7490398,2.7490398 0 0 1 -1.062884,1.052372 q -0.678246,0.379708 -1.517986,0.379492 -0.839749,-2.15e-4 -1.524002,-0.379278 A 2.7705167,2.7705167 0 0 1 41.78686,40.609736 q -0.390019,-0.673081 -0.389588,-1.50338 4.21e-4,-0.830299 0.389588,-1.503381 a 2.7715904,2.7715904 0 0 1 1.073841,-1.052368 q 0.683392,-0.379491 1.523142,-0.379707 0.684252,0 1.260905,0.252346 0.131227,0.05739 0.257727,0.127368 0.111034,0.06232 0.213693,0.132301 c 0.02151,0.0148 0.04294,0.03003 0.06446,0.04528 0.4246,0.305612 0.737521,0.742235 0.910401,1.235989 l 0.818912,2.337114 0.791423,2.346995 h 0.7794 l 2.084974,-6.042089 1.73705,5.058229 a 1.4746021,1.4746021 0 0 0 1.1198,0.975485 l 0.0092,0.0018 a 4.1819768,4.1819768 0 0 0 0.553673,0.06205 q 0.107379,0.0054 0.21477,0.0054 0.08437,0 0.167735,-0.0027 0.952935,-0.03416 1.729753,-0.462402 a 3.4431723,3.4431723 0 0 0 1.331567,-1.290331 q 0.485801,-0.824713 0.485801,-1.84701 0,-1.022295 -0.486017,-1.846793 z"
   id="path8"
   style="fill:#ffffff;fill-opacity:1;stroke-width:0.021477" />

</svg>
