<?xml version="1.0" encoding="UTF-8" standalone="no"?>
<svg
   xmlns:dc="http://purl.org/dc/elements/1.1/"
   xmlns:cc="http://creativecommons.org/ns#"
   xmlns:rdf="http://www.w3.org/1999/02/22-rdf-syntax-ns#"
   xmlns:svg="http://www.w3.org/2000/svg"
   xmlns="http://www.w3.org/2000/svg"
   xmlns:sodipodi="http://sodipodi.sourceforge.net/DTD/sodipodi-0.dtd"
   xmlns:inkscape="http://www.inkscape.org/namespaces/inkscape"
   version="1.1"
   id="ic_empty_Dark_transactions"
   inkscape:version="1.0.1 (3bc2e813f5, 2020-09-07)"
   sodipodi:docname="img-empty-dark-transactions.svg"
   x="0px"
   y="0px"
   viewBox="0 0 100 100"
   style="enable-background:new 0 0 100 100;"
   xml:space="preserve"><metadata
   id="metadata34"><rdf:RDF><cc:Work
       rdf:about=""><dc:format>image/svg+xml</dc:format><dc:type
         rdf:resource="http://purl.org/dc/dcmitype/StillImage" /></cc:Work></rdf:RDF></metadata><defs
   id="defs32"><pattern
     id="EMFhbasepattern"
     patternUnits="userSpaceOnUse"
     width="6"
     height="6"
     x="0"
     y="0" /></defs>
<style
   type="text/css"
   id="style2">
	.st0{fill:#2EA1FF;}
	.st1{fill:#A09EA5;}
	.st2{fill:#EFEFEF;}
</style>
<sodipodi:namedview
   bordercolor="#666666"
   borderopacity="1"
   gridtolerance="10"
   guidetolerance="10"
   id="namedview22"
   inkscape:current-layer="Group_9036"
   inkscape:cx="47.145526"
   inkscape:cy="29.835175"
   inkscape:pageopacity="0"
   inkscape:pageshadow="2"
   inkscape:window-height="2066"
   inkscape:window-width="3840"
   inkscape:zoom="12.271765"
   objecttolerance="10"
   pagecolor="#ffffff"
   showgrid="false"
   inkscape:document-rotation="0"
   inkscape:window-x="3829"
   inkscape:window-y="-11"
   inkscape:window-maximized="1">
	</sodipodi:namedview>
<g
   id="Group_9036">
	<circle
   class="st0"
   cx="49.900002"
   cy="50"
   id="circle5"
   r="17.9"
   style="fill:#121228;fill-opacity:1" />
	<path
   id="Path_18988"
   class="st0"
   d="M50,26c-13.3,0-24,10.7-24,24s10.7,24,24,24s24-10.7,24-24S63.3,26,50,26z M50,68   c-9.9,0-18-8.1-18-18s8.1-18,18-18s18,8.1,18,18S59.9,68,50,68z"
   style="fill:#141414;fill-opacity:1" />
	<g
   id="Group_9035">
		<g
   id="Group_9034">
			
			<path
   id="Rectangle_4693"
   class="st1"
   d="M83,56h2v4h-2V56z" />
			<path
   id="Rectangle_4694"
   class="st1"
   d="M83,44h2v8h-2V44z" />
			<path
   id="Rectangle_4695"
   class="st1"
   d="M15,48h2v8h-2V48z" />
			<path
   id="Rectangle_4696"
   class="st1"
   d="M15,40h2v4h-2V40z" />
			<path
   id="Path_18991"
   class="st1"
   d="M95.2,71H85v-7h-2v9h7.8L76,90.5L61.2,73H68v-2h-4.5c11.6-7.5,15-22.9,7.5-34.5     c-6.4-9.9-18.9-14-29.9-9.8L24,6.5L4.8,29H15v7h2v-9H9.2L24,9.5L38.8,27H32v2h4.5c-11.6,7.5-15,22.9-7.5,34.5     c6.4,9.9,18.9,14,29.9,9.8L76,93.5L95.2,71z M27,50c0-12.7,10.3-23,23-23s23,10.3,23,23S62.7,73,50,73S27,62.7,27,50z" />
		</g>
	</g>
	
<g
   id="g895"
   transform="matrix(0.05962093,0,0,0.05962093,28.391835,49.044587)"><path
     style="fill:#f1b533;fill-opacity:1;fill-rule:nonzero;stroke:none"
     d="m 364.9102,-30.712344 c 2.33333,-0.66667 72.66667,-21 111.66667,-32.66667 0,0 33.66666,-9.66667 66.33333,-19.66667 6,-1.66666 12.33333,-3.66666 12.33333,-3.66666 4,-1.33334 8,-2.33334 12.33334,-3.66667 -27.33334,24.66667 -54.66667,49 -82,73.66667 -24.33334,20.66666 -48.66667,41.33333 -73,61.66666 -8,32.33334 -15.66667,64.333344 -23.66667,96.333344 -8,31.66666 -15.66667,63.33333 -23.33333,94.66666 -8.66667,-36.33333 -17.66667,-73 -26.66667,-109.66666 -7,-27.000004 -14.33333,-54.000004 -21.66667,-81.000004 -26,-21.66667 -51.66666,-43.66667 -77.66666,-65.33334 -24.66667,-22.33333 -49.66667,-44.66666 -74.33333,-67 40,11.66667 80.66666,23.33334 121.99999,35 26,7.33334 52,14.33334 77.66667,21.33334 z"
     id="path865" /><path
     style="fill:#e55d35;fill-opacity:1;fill-rule:nonzero;stroke:none"
     d="m 416.9102,86.954316 c 1,-5.33333 2.33333,-10.66666 3.66667,-16 1.66666,-6.33333 3,-12.66666 4.66666,-18.66666 5,-4.33334 9.66667,-8.33334 14.33334,-12.66667 4,-3.33333 8,-6.33333 12,-9.66667 22,16 44.66666,33.33334 67.66666,52 20,16 39,32.000004 56.66667,47.666674 -25.66667,-5.33333 -52.66667,-11.66667 -80.66667,-19.33333 -27.66666,-7.33334 -54,-15.333344 -78.33333,-23.333344 z"
     id="path871" /><path
     style="fill:#e55d35;fill-opacity:1;fill-rule:nonzero;stroke:none"
     d="m 276.9102,29.287656 c 4.33333,3.66666 8.66667,7.33333 13.33333,11 5.33334,4.33333 10.33334,8.66666 15.33334,13 1.66666,6 3.33333,12 4.66666,17.66666 1.33334,4.66667 2.33334,9.66667 3.33334,14.33334 -26.33334,9 -54.33334,18.000004 -83.66667,26.666664 -25.33333,7.66667 -50,14.33334 -74,20 18,-17.33333 37.66667,-35.000004 59,-53.333334 21.33334,-17.66667 42,-34.33333 62,-49.33333 z"
     id="path873" /><path
     style="fill:#e55d35;fill-opacity:1;fill-rule:nonzero;stroke:none"
     d="m 401.57687,-53.379014 c -5.66667,1.66667 -11.33334,3.33333 -17,5 -6.66667,1.66667 -13.66667,3.66667 -20.33334,5.33333 -6.33333,-1.66666 -12.66666,-3.33333 -19,-5 -5.33333,-1.66666 -10.33333,-3 -15.33333,-4.66666 4.66667,-25.33334 10,-51.666666 16.33333,-79.000006 5.66667,-23.66666 12,-46.33333 18,-68.33333 7.66667,23 14.66667,47.33333 21.33334,73.33333 6.66666,25.33334 11.66666,50.000006 16,73.333336 z"
     id="path875" /></g></g>
</svg>
