<svg id="Layer_1" data-name="Layer 1" xmlns="http://www.w3.org/2000/svg" viewBox="0 0 98.45 82.24"><defs><style>.cls-1{fill:#eaeaea;}</style></defs><path class="cls-1" d="M52.87,57.74A11.29,11.29,0,0,0,44.08,53h-.22a8.71,8.71,0,0,1-8.63-7.68,16.38,16.38,0,0,0,3.51-3.54,22.23,22.23,0,0,0,4-10.32,2.39,2.39,0,0,0,.38-.59,17.38,17.38,0,0,0,1.35-6.78c0-9.08-6.86-16.47-15.3-16.47a14.21,14.21,0,0,0-6.3,1.48,10.7,10.7,0,0,0-2.19.4c-7,2-11,10.57-8.89,19A20,20,0,0,0,12.62,31a2.05,2.05,0,0,0,.37.58c.81,6,3.63,10.93,7.49,13.74A8.69,8.69,0,0,1,11.85,53h-.2A11.28,11.28,0,0,0,.78,64.24V76.38a2,2,0,0,0,2.05,2.06H39.06a2.06,2.06,0,0,0,0-4.11H4.88V64.24a7.18,7.18,0,0,1,7.18-7.17h.2a12.73,12.73,0,0,0,4.2-.86l9.71,14a2.05,2.05,0,0,0,3.37,0l9.71-14a12.79,12.79,0,0,0,4.21.86h.2a7.16,7.16,0,0,1,5.86,3,2.07,2.07,0,0,0,2.86.49A2,2,0,0,0,52.87,57.74Zm-31-44.33a7.28,7.28,0,0,1,1.69-.28,2,2,0,0,0,.86-.23,10.27,10.27,0,0,1,4.8-1.21c6,0,11,5.33,11.19,12a7.3,7.3,0,0,0-4.43-1.49H25.21a2.4,2.4,0,0,1-1.46-.49,2.32,2.32,0,0,1-.81-1.05,2.41,2.41,0,0,0-4.57.3,14.14,14.14,0,0,1-2.82,5.47C14.48,20.44,17.16,14.76,21.83,13.41ZM17,30.78A18.47,18.47,0,0,0,21.27,25h0a6.52,6.52,0,0,0,3.92,1.3H35.94a3.25,3.25,0,0,1,2.93,1.84,19.1,19.1,0,0,1-3.43,11.22c-2.07,2.8-4.76,4.34-7.58,4.34a9.36,9.36,0,0,1-7.16-3.8A17.83,17.83,0,0,1,17,30.78ZM27.86,65.45,20,54.12a12.84,12.84,0,0,0,4.29-6.9,11.77,11.77,0,0,0,3.56.55,11.92,11.92,0,0,0,3.56-.55,12.74,12.74,0,0,0,4.29,6.9Z" transform="translate(-0.78 -7.59)"/><path class="cls-1" d="M88.35,64.38h-.2a8.69,8.69,0,0,1-8.63-7.7,18.3,18.3,0,0,0,6-7.9,2,2,0,0,0,1.35,1.35,1.81,1.81,0,0,0,.61.1A2.05,2.05,0,0,0,89,49.43,20.78,20.78,0,0,0,93.23,36a20.86,20.86,0,0,0-4.86-13A15.12,15.12,0,0,0,77,17.41c-.23,0-.79,0-.88,0A15.35,15.35,0,0,0,69.25,16,16.72,16.72,0,0,0,56.48,23a24,24,0,0,0-4.69,15.35A24.69,24.69,0,0,0,52,41,25,25,0,0,0,54,48a2.05,2.05,0,0,0,3.61.22c.17-.27.38-.61.62-.94a20.28,20.28,0,0,0,4.08,7.24,15.17,15.17,0,0,0,2.44,2.2,8.71,8.71,0,0,1-8.63,7.69h-.2A11.28,11.28,0,0,0,45.06,75.65V87.79a2.05,2.05,0,0,0,2,2H97.17a2,2,0,0,0,2-2V75.65A11.28,11.28,0,0,0,88.35,64.38ZM56.56,42.87a24.08,24.08,0,0,1-.48-2.42,22.38,22.38,0,0,1-.19-2.27,19.88,19.88,0,0,1,3.85-12.73,12.69,12.69,0,0,1,9.64-5.31,11.81,11.81,0,0,1,5.46,1.21,2.1,2.1,0,0,0,1,.21l1.12,0a11.12,11.12,0,0,1,8.31,4.13,16.8,16.8,0,0,1,3.87,10.45,17.94,17.94,0,0,1-.87,6.2c-.2-.52-.41-1-.65-1.53a18.36,18.36,0,0,0-9.39-9.19,2.09,2.09,0,0,0-1.61,0,2.12,2.12,0,0,0-1.11,1.17,14.8,14.8,0,0,1-1,2.14,6.13,6.13,0,0,1-5.65,3,9.91,9.91,0,0,0-1.09,0,16,16,0,0,0-5.14,1A18.28,18.28,0,0,0,56.56,42.87Zm5,1.12a11.86,11.86,0,0,1,6.32-2h.81a10.21,10.21,0,0,0,9.37-5.08l.33-.61A14.25,14.25,0,0,1,83.1,41l0,.18a18.22,18.22,0,0,1-3.78,10.06,9.36,9.36,0,0,1-7.16,3.8C67.31,55.07,63,50.48,61.6,44Zm7,14.63a11.8,11.8,0,0,0,7.12,0,12.85,12.85,0,0,0,6.12,8.17,10,10,0,0,1-19.35,0A12.84,12.84,0,0,0,68.58,58.62ZM95.12,85.74h-46V75.65a7.19,7.19,0,0,1,7.18-7.18h.21a13,13,0,0,0,2.07-.23,14.14,14.14,0,0,0,27.05,0,12.86,12.86,0,0,0,2.07.23h.2a7.19,7.19,0,0,1,7.18,7.18Z" transform="translate(-0.78 -7.59)"/></svg>