<?xml version="1.0" encoding="utf-8"?>
<!-- Generator: Adobe Illustrator 25.2.0, SVG Export Plug-In . SVG Version: 6.00 Build 0)  -->
<svg version="1.1"
	 id="ic_empty_multisend" inkscape:version="0.92.4 (5da689c313, 2019-01-14)" sodipodi:docname="img-empty-multisend.svg" xmlns:cc="http://creativecommons.org/ns#" xmlns:dc="http://purl.org/dc/elements/1.1/" xmlns:inkscape="http://www.inkscape.org/namespaces/inkscape" xmlns:rdf="http://www.w3.org/1999/02/22-rdf-syntax-ns#" xmlns:sodipodi="http://sodipodi.sourceforge.net/DTD/sodipodi-0.dtd" xmlns:svg="http://www.w3.org/2000/svg"
	 xmlns="http://www.w3.org/2000/svg" xmlns:xlink="http://www.w3.org/1999/xlink" x="0px" y="0px" viewBox="0 0 100 100"
	 style="enable-background:new 0 0 100 100;" xml:space="preserve">
<style type="text/css">
	.st0{fill:#F4B400;}
	.st1{fill:#666666;}
	.st2{fill:#E50E28;}
</style>
<sodipodi:namedview  bordercolor="#666666" borderopacity="1" gridtolerance="10" guidetolerance="10" id="namedview25" inkscape:current-layer="Group_9031" inkscape:cx="57.892519" inkscape:cy="39.599266" inkscape:pageopacity="0" inkscape:pageshadow="2" inkscape:window-height="480" inkscape:window-width="640" inkscape:zoom="5.0286286" objecttolerance="10" pagecolor="#ffffff" showgrid="false">
	</sodipodi:namedview>
<g id="Group_9031">
	<g id="Group_9029">
		<path id="Rectangle_4683" class="st0" d="M45,18h10v9H45V18z"/>
		<g id="Group_9028">
			<path id="Rectangle_4684" class="st0" d="M14,66h6v10h-6V66z"/>
			<path id="Rectangle_4685" class="st0" d="M80,66h6v10h-6V66z"/>
			<path id="Rectangle_4686" class="st0" d="M47,66h6v10h-6V66z"/>
		</g>
	</g>
	<g id="Group_9030">
		<path id="Rectangle_4688" class="st1" d="M67,40h2v4h-2V40z"/>
		<circle id="Ellipse_626" class="st1" cx="50" cy="73" r="1"/>
		<circle id="Ellipse_627" class="st1" cx="83" cy="73" r="1"/>
		<path id="Rectangle_4689" class="st1" d="M32,58h4v2h-4V58z"/>
		<path id="Path_18986" class="st1" d="M16,65h-3v3H7v4h2v-2h4v7h8v-7h4v21H9V76H7v17h20V68h-6v-3h-3v-5h10v-2H16V65z M19,67v8h-4
			v-8H19z"/>
		<circle id="Ellipse_628" class="st1" cx="17" cy="73" r="1"/>
		
			<path id="Path_18987" inkscape:connector-curvature="0" sodipodi:nodetypes="cccccccccccccccccccscscccccccccccccccccccccccccccccccccccccccccccccccccccccccccccssscsccccccsscsscccccccccccccccc" class="st1" d="
			M87,68v-3h-3v-7H51v-5h18v-5h-2v3H33V28h34v8h2v-8h4V17H59.5c2.3-2.6,2-6.6-0.8-8.7c-2.8-2.1-6.7-1.5-8.7,1.4
			c-1.9-2.9-5.9-3.6-8.7-1.4c-2.8,2.1-3.1,6.2-0.8,8.8H27v11h4v25h18v5h-9v2h9v5h-3v3h-6v16h2V70h4v7h8v-7h4v21H42v-3h-2v5h20V68h-6
			v-3h-3v-5h31v5h-3v3h-6v12h2V70h4v7h8v-7h4v21H75v-7h-2v9h20V68H87z M71,19v7H56v-7H71z M51,13c0-3.6,4.3-5.3,6.8-2.8
			c2.5,2.5,0.7,6.8-2.8,6.8h-4V13z M51,19h3v7h-8v-7H51z M45,9c2.2,0,4,1.8,4,4v4h-4C39.7,17,39.7,9,45,9z M29,26v-7h15v7H29z
			 M52,67v3.2V75h-4v-8H52z M85,75h-4v-8h4V75z"/>
	</g>
</g>
<rect x="33" y="28" class="st0" width="34" height="23"/>
<g>
	<path class="st2" d="M39.1,43.1c0.1-0.1,0.2-0.2,0.3-0.3c0.9-0.8,2-1.3,3.2-1.4c0.9-0.1,1.9,0,2.8,0.3c1.2,0.3,2.3,0.8,3.4,1.3
		c1.3,0.5,2.5,1.1,3.8,1.5c1.3,0.4,2.6,0.6,3.9,0.5c0.5,0,1.1-0.2,1.6-0.2c0,0,0,0,0.1,0c-0.5,0.2-1,0.5-1.4,0.7
		c-1.2,0.6-2.5,1.1-3.8,1.5c-1,0.3-2,0.5-3.1,0.4c-1.2,0-2.2-0.4-3.3-0.9c-0.9-0.5-1.8-1.2-2.6-1.8c-0.4-0.3-0.9-0.7-1.3-0.9
		c-1.1-0.7-2.2-0.8-3.5-0.5C39.3,43.1,39.2,43.1,39.1,43.1C39.2,43.1,39.2,43.1,39.1,43.1z"/>
	<path d="M61.6,42.8c-1.2,0.5-2.4,0.9-3.7,1c-1.1,0.1-2.2,0.1-3.3-0.1c-1.3-0.3-2.5-0.7-3.7-1.2c-1.4-0.6-2.7-1.2-4.1-1.6
		c-1-0.3-2.1-0.6-3.2-0.7c-1.5-0.1-3,0.1-4.5,0.6c-0.7,0.3-1.4,0.6-2.1,0.9c-0.1,0-0.1,0.1-0.2,0.1c0,0,0,0,0-0.1
		c0.8-0.8,1.7-1.6,2.7-2.3c1.6-1,3.2-1.5,5.1-1.3c1.1,0.1,2.2,0.3,3.3,0.7c1.4,0.5,2.8,1.1,4.1,1.7c1.7,0.7,3.3,1.4,5.1,1.8
		c1,0.2,2,0.4,3,0.4C60.7,42.8,61.2,42.8,61.6,42.8z"/>
	<path class="st2" d="M63,40.2c-0.4,0.1-0.8,0.3-1.3,0.4c-0.8,0.2-1.6,0.4-2.4,0.5c-1,0.1-1.9,0-2.9-0.2c-1.1-0.2-2.1-0.6-3.2-1.1
		c-1.1-0.5-2.2-1-3.2-1.4c-1.3-0.5-2.5-1-3.9-1.3c-1.6-0.3-3.2-0.2-4.8,0.2c-0.9,0.3-1.7,0.6-2.5,1c-0.1,0-0.2,0.1-0.3,0.1
		c0-0.1,0.1-0.1,0.1-0.1c0.6-0.6,1.3-1.3,2.1-1.8c1.2-0.8,2.6-1.4,4.1-1.5c1-0.1,2,0,3,0.3c1.3,0.3,2.6,0.9,3.8,1.4
		c1.6,0.7,3.1,1.4,4.7,2c1.4,0.6,2.9,1,4.5,1.2C61.6,40.1,62.3,40.2,63,40.2z"/>
	<path class="st2" d="M60.9,37.6c-0.4,0.2-0.8,0.3-1.3,0.3c-1.2,0.1-2.3-0.1-3.4-0.6c-1.2-0.5-2.4-1.1-3.6-1.6
		c-1.3-0.6-2.6-1.2-4-1.5c-2.2-0.5-4.4-0.4-6.4,0.5c0,0-0.1,0-0.1,0c0.3-0.2,0.6-0.4,0.9-0.7c1.2-0.9,2.6-1.6,4-2
		c2.5-0.7,4.9-0.4,7.1,0.8c0.8,0.4,1.5,1.1,2.2,1.7c0.6,0.6,1.2,1.2,1.8,1.7c0.6,0.6,1.4,1,2.2,1.1C60.4,37.5,60.6,37.5,60.9,37.6z"
		/>
</g>
</svg>
