<?xml version="1.0" encoding="UTF-8" standalone="no"?>
<!-- Generator: Adobe Illustrator 25.2.1, SVG Export Plug-In . SVG Version: 6.00 Build 0)  -->

<svg
   version="1.1"
   id="Layer_1"
   x="0px"
   y="0px"
   viewBox="0 0 188 193.90588"
   xml:space="preserve"
   width="188"
   height="193.90588"
   xmlns="http://www.w3.org/2000/svg"
   xmlns:svg="http://www.w3.org/2000/svg"><defs
   id="defs52" />
<style
   type="text/css"
   id="style2">
	.st0{fill:#F1B533;}
	.st1{fill:none;stroke:#D0D2D3;stroke-width:2;stroke-miterlimit:10;}
	.st2{fill:#E55D35;}
</style>
<g
   id="g47"
   transform="translate(-34,-5.2)">
	<g
   id="g31">
		<g
   id="XMLID_2_">
			<g
   id="g6">
				<path
   class="st0"
   d="m 202.9,61.8 c -10.1,9.1 -20.2,18.2 -30.4,27.4 -9,7.7 -18.1,15.3 -27.1,22.9 -3,11.9 -5.9,23.8 -8.9,35.7 -2.9,11.7 -5.7,23.5 -8.6,35.2 -3.3,-13.6 -6.6,-27.2 -9.9,-40.8 -2.7,-10 -5.4,-20 -8.1,-30.1 C 100.3,104.2 90.7,96.1 81,88 71.8,79.7 62.6,71.4 53.4,63.1 c 14.9,4.4 30,8.7 45.3,13 9.7,2.7 19.3,5.4 28.9,8 0.9,-0.3 27,-7.9 41.5,-12.1 0,0 12.5,-3.7 24.6,-7.3 2.3,-0.7 4.6,-1.4 4.6,-1.4 1.5,-0.5 3.1,-1 4.6,-1.5 z"
   id="path4" />
			</g>
			<g
   id="g8">
			</g>
		</g>
		<g
   id="XMLID_1_">
			<g
   id="g11">
			</g>
			<g
   id="g17">
				<path
   class="st1"
   d="m 53.5,63.1 74.5,39.1 c 17.5,-9.3 35,-18.6 52.5,-27.8 7.5,-4.2 14.9,-8.3 22.4,-12.5"
   id="path13" />
				<path
   class="st1"
   d="m 127.9,183.1 c 0.1,-17 0.2,-34 0.1,-51 0,-10 0,-20 -0.1,-30"
   id="path15" />
			</g>
		</g>
		<path
   class="st2"
   d="m 146.9,127.7 c 0.4,-1.9 0.9,-3.9 1.4,-5.9 0.6,-2.4 1.2,-4.7 1.8,-7 1.8,-1.6 3.6,-3.1 5.3,-4.7 1.5,-1.2 2.9,-2.4 4.4,-3.6 8.2,6 16.6,12.4 25.2,19.3 7.4,6 14.4,11.9 21,17.8 -9.5,-2 -19.5,-4.3 -29.9,-7.2 -10.4,-2.8 -20.1,-5.7 -29.2,-8.7 z"
   id="path20" />
		<g
   id="XMLID_3_">
			<g
   id="g24">
				<path
   class="st2"
   d="m 108.6,127.1 c -9.8,3.4 -20.2,6.7 -31.1,9.9 -9.5,2.8 -18.6,5.3 -27.5,7.5 6.7,-6.4 14,-13.1 21.9,-19.8 7.9,-6.7 15.6,-12.8 23,-18.4 1.6,1.3 3.3,2.7 4.9,4 2,1.6 3.9,3.3 5.8,4.9 0.6,2.2 1.2,4.4 1.7,6.5 0.5,1.9 0.9,3.6 1.3,5.4 z"
   id="path22" />
			</g>
			<g
   id="g26">
			</g>
		</g>
		<path
   class="st2"
   d="m 141.3,75.6 c -2.1,0.6 -4.2,1.2 -6.3,1.8 -2.6,0.7 -5.1,1.4 -7.6,2.1 -2.4,-0.6 -4.7,-1.3 -7.1,-1.9 -1.9,-0.6 -3.8,-1.1 -5.6,-1.7 1.7,-9.4 3.7,-19.2 6.1,-29.4 2.1,-8.8 4.3,-17.3 6.7,-25.3 2.8,8.5 5.4,17.6 7.9,27.2 2.3,9.4 4.3,18.5 5.9,27.2 z"
   id="path29" />
	</g>
	<g
   id="g45">
		<path
   id="path33"
   class="st2"
   d="m 71.564453,204.05078 c 0.0011,0.0267 0.0018,0.0528 -0.002,0.0801 0.06752,0.005 0.13403,0.006 0.201172,0.006 -0.0693,-0.0275 -0.130053,-0.0585 -0.199219,-0.0859 z" />
		<path
   id="path35"
   class="st2"
   d="m 83.0625,207.14453 c 0.0137,0.0297 0.02158,0.0469 0.03516,0.0762 0.01256,-0.0148 0.02451,-0.0301 0.03711,-0.0449 -0.03291,-0.0147 -0.03795,-0.0159 -0.07227,-0.0312 z m 8.486328,5.20899 c -0.03753,0.006 -0.06724,0.0119 -0.103516,0.0176 0.01309,0.0218 0.02798,0.0506 0.04102,0.0723 0.02296,-0.0319 0.03906,-0.0574 0.0625,-0.0898 z m -6.222656,2.45507 c -0.01663,5.7e-4 -0.03148,0.003 -0.04687,0.004 -0.0147,0.24884 -0.02254,0.49027 -0.05078,0.76758 0.09546,0.16348 0.229094,0.37484 0.371093,0.59961 v -0.66016 c -0.103537,-0.26738 -0.161779,-0.37327 -0.273437,-0.71094 z" />
		
		<path
   id="path39"
   class="st2"
   d="m 138.22656,200.79688 c -0.0692,0.12956 -0.12399,0.26684 -0.18945,0.39843 0.0266,-0.0381 0.059,-0.0721 0.084,-0.11133 0.0547,-0.0862 0.15357,-0.37721 0.10547,-0.2871 z m -8.66797,18.13085 c -0.13131,0.0102 -0.26295,0.0205 -0.39453,0.0312 0.0229,0.0232 0.0469,0.0456 0.0703,0.0684 0.047,0.012 0.0857,0.0214 0.15234,0.0371 0.088,0.0207 0.18544,0.0197 0.2793,0.008 3.3e-4,-0.0311 0.001,-0.0626 0.002,-0.0937 -0.04,-0.0192 -0.0656,-0.0301 -0.10938,-0.0508 z" />
		
		<path
   id="path43"
   class="st2"
   d="m 192.17383,218.85938 c -0.0431,0.0277 -0.0628,0.0415 -0.10742,0.0703 -0.022,0.0306 -0.0775,0.0985 -0.0977,0.12695 0.0193,-0.015 0.0283,-0.0128 0.0391,-0.0234 0.0569,-0.0564 0.1083,-0.11794 0.16602,-0.17382 z" />
	</g>
</g>
</svg>
