<?xml version="1.0" encoding="utf-8"?>
<!-- Generator: Adobe Illustrator 25.2.1, SVG Export Plug-In . SVG Version: 6.00 Build 0)  -->
<svg version="1.1" id="Layer_1" xmlns="http://www.w3.org/2000/svg" xmlns:xlink="http://www.w3.org/1999/xlink" x="0px" y="0px"
	 viewBox="0 0 256 256" style="enable-background:new 0 0 256 256;" xml:space="preserve">
<style type="text/css">
	.st0{fill:#6666FF;}
</style>
<g>
	
		<sodipodi:namedview  bordercolor="#666666" borderopacity="1" gridtolerance="10" guidetolerance="10" id="namedview36" objecttolerance="10" pagecolor="#ffffff" showgrid="false">
		</sodipodi:namedview>
	<g id="Layer_2_2_" transform="translate(0,-6)">
		<g id="Layer_1-2_1_">
			<g id="g24_1_" transform="matrix(0.47225393,0,0,0.47530634,5,10.999999)">
				<path id="path8_1_" class="st0" d="M379.9,119.3c-1.3,0-2.6,0-3.9,0.1h-34.8v7.3c12.3,0,24.6,0.1,36.8,0c3,0.1,6.3-0.1,9.1,0.9
					c2.5,1.1,4.6,3.4,6.5,5.2c19.7,20.5,40.1,40.4,59.8,60.9c-65.1,65.6-130.1,131.2-195.2,196.9C193,325,127.9,259.3,62.8,193.5
					c19.5-19.5,38.7-39.2,58.2-58.7c3.6-3.3,6.7-7.9,12.2-7.8c15.8-0.2,31.6,0.1,47.5-0.1c0.3,0,0.6,0,0.9,0h27.3l4-7.6h-55.1v0
					h-17.3c-4.5,0-9.1-0.3-13.4,0.5c-2.8,0.5-5.2,2.8-7.1,4.7c-18.8,18.9-37.5,37.8-56.1,56.9c-3.9,3.9-7.8,8.4-12.3,11.7v0.5
					c10.3,9.7,20,20,30,30c58.9,59.4,117.8,118.8,176.8,178c65.2-65.7,130.4-131.3,195.5-197c3.7-3.6,7-7.3,11-10.6v-0.6
					c-3.7-3.2-7-6.8-10.3-10.3c-19.5-19.8-39.2-39.4-58.6-59.3c-1.8-1.7-4-3.8-6.6-4.2C386.2,119.4,383.1,119.3,379.9,119.3z"/>
				<path id="path10_1_" class="st0" d="M341.2,132.9v7.4h24c5,0.1,9.8,0,14.7,0.5c2.3,0.2,3.8,1.9,5.4,3.3
					c16.1,16.3,32.1,32.7,48.3,48.9c-55.3,55.8-110.6,111.7-165.8,167.6c-3.1,3.2-6.2,6.3-9.4,9.3c-58.3-59-116.6-117.9-175-176.8
					c15.6-16.1,31.4-32,47.1-47.8c1.6-1.7,3.4-3.1,5.4-4.2c2.4-0.5,4.9-0.8,7.3-0.7c20.2,0.1,40.5,0.1,60.7,0.1c0-2,0.4-4,1.2-5.9
					v-0.2c0-0.1,0.1-0.1,0.2-0.4c0.1-0.3,0.3-0.6,0.5-1h-46.1v0c-6.7,0-13.5,0-20.2,0h-0.1c-3.5,0.1-6.8,0-9.8,2.3
					c-3.8,2.9-6.8,6.8-10.2,10.1c-15.7,16-31.5,31.8-47,47.9c62,62.7,124,125.3,186.1,187.9C317.2,321.7,376,262.4,434.8,203
					c3.1-3.2,6.7-6.2,9.3-9.8c-1-1.5-2.1-2.9-3.4-4.1c-14.8-15-29.6-30-44.4-45c-3.1-3.2-6.1-6.7-9.8-9.3c-2.8-1.9-7-1.8-10.3-1.9
					H341.2z M159.7,133c15.2,0,30.3,0,45.4,0L159.7,133L159.7,133z M204.6,135.8c-0.4,1.4-0.7,2.8-0.7,4.3h0
					C203.9,138.7,204.2,137.2,204.6,135.8L204.6,135.8z"/>
				<path id="path12_1_" class="st0" d="M151.6,147.1v0.1c-1.7,0-3.4,0-5.1,0c-0.3,0-0.6,0-1,0c-2.2,0-4.4,0.2-6.6,0.7
					c-2.4,0.8-4.5,2.9-6.3,4.5c-13.4,13.5-26.6,27.1-39.9,40.6c55,55.9,110.4,111.4,165.4,167.3c5.8-5.5,11.3-11.3,16.9-17
					c49.5-50.1,99-100.1,148.6-150.1c-12-12.9-24.7-25.1-37-37.8c-2.3-2.5-4.8-4.8-7.6-6.8c-2.3-1.4-5.4-1.3-8-1.4h-29.8v7.6
					c8.7,0,17.5,0,26.2-0.1c3.1,0.1,6.8-0.2,9.2,1.9c3.2,2.8,6.2,5.8,9.1,8.9c8.8,9.2,18.2,17.9,26.6,27.3c-2.4,3.5-5.8,6.5-8.9,9.6
					c-48.5,48.9-96.8,98-145.4,146.7c-47.8-48.3-95.6-96.6-143.4-144.9c-3.5-3.7-7.5-7.1-10.6-11.1c2.2-3.3,5.4-6,8.2-8.9
					c7.9-8,15.9-15.9,23.7-24c1.7-1.9,3.7-3.5,5.9-4.7c2.3-0.6,4.6-0.8,7-0.7c18.6,0.1,37.2,0.1,55.8,0.1v-0.1h7.5
					c-0.1,0-0.2-0.1-0.3-0.1c-3-1.7-5.4-4.4-6.8-7.5H151.6z"/>
				<path id="path14_1_" class="st0" d="M158.7,161.1c-5.8,0.1-11.7,0.6-16.8,3.5c-4.6,2.6-8,7.3-11.6,11.1
					c-5.4,5.9-11.2,11.5-17.1,17.1c8.8,9.3,18.1,18.4,27.1,27.6c39.2,39.7,78.5,79.4,117.9,119.1c48.3-48.8,96.6-97.6,145-146.3
					c-7.3-7.8-15.1-15-22.4-22.7c-2.2-2.6-4.7-5-7.4-7c-2.8-1.8-6.5-1.7-9.8-1.8h-22.5v7.3c7.9,0.1,15.8,0.2,23.8,0.2
					c4.1-0.1,6.3,2.7,9,5.3c6,6.2,12.1,12.4,18.2,18.5c-44.4,45.3-89.4,90.2-133.9,135.5c-41.7-41.9-83.2-84-124.8-126
					c-3-3.1-6.4-6.1-8.9-9.6c3.3-4.2,7.6-7.9,11.2-11.8c3.6-3.5,6.9-7.5,10.9-10.7c1.7-1.4,3.7-1.2,5.8-1.4
					c17.4-0.5,34.8-0.3,52.2-0.3v-0.1h16c-1.8-2.1-3.1-4.5-3.8-7.2v-0.1h-28.3c-0.5,0-0.9,0-1.4,0
					C177.7,161.3,168.2,161.1,158.7,161.1L158.7,161.1z"/>
				<path id="path16_1_" class="st0" d="M158.5,175.7c-2.6,0.1-5.6-0.1-8,1c-2.9,1.6-5.2,4.3-7.6,6.7c-3,3.1-6.3,6-8.8,9.4
					c1.6,3.1,4.7,5.5,7.1,8c39.1,39.2,77.8,78.8,116.9,118c41.4-41.9,82.9-83.8,124.3-125.7c-4.9-5.1-9.7-10.4-15-14.9
					c-2.6-2.5-5.5-2.2-8.9-2.3h-17.4v7.3h10c4.1,0.1,8.7,0,12.3,2.3c3,2,5.5,5.1,7.9,7.8c-37.8,38.1-75.6,76.3-113.4,114.5
					c-38-38.2-75.7-76.6-113.6-114.7c2.8-3,5.2-5.9,9.1-7.7c4.9-2.4,10.6-2.5,16-2.4c11.7,0.4,23.4,0.2,35.1,0.2v0h26
					c-1-2.3-1.3-4.8-0.9-7.3h-29.9v0C186,175.7,172.3,175.8,158.5,175.7L158.5,175.7z"/>
				<path id="path26_1_" class="st0" d="M327,164.5c-0.2-12.7-0.3-25.8-0.3-37.8v-7.5h-99.3l-2.1,4.1c-0.4,0.8-1.3,2.7-2.2,4.5
					c-0.7,1.4-1.3,2.7-1.6,3.3c-1.1,2.1-2,4-2.7,5.9c-2.5,6.8,1.1,14.4,7.9,16.8c1.4,0.5,2.9,0.8,4.3,0.8h0.9
					c-1.8,4.2-1.1,9.1,2,12.6c2.5,3.2,6.2,5,10.2,5.1c0.3,0,0.7,0,1,0l-0.1,0.3c-3.2,6.4-0.7,13.8,6.1,17.6c2.1,1.2,4.4,1.9,6.8,1.9
					c0.3,0,0.7,0,1,0l-1.1,2.1c-5.2,9.8-10.4,19.6-15.6,29.4c-2.6,4.4-2.3,10,0.9,14.1c2.6,3.4,6.7,5.5,11,5.5c4.7,0,9-2.6,11.2-6.7
					c3.6-6.4,7-13,9.8-18.3c1.7-3.3,3.3-6.2,4.5-8.5c3-5.6,5.6-10.5,8-15.1c3.8-7.3,7.1-13.6,10.6-19.7c0.5-0.9,0.8-0.9,0.9-0.9h0.4
					c1.1,0.2,2,1,2.2,2.1c0.5,2.4,0.8,4.9,0.8,7.4c0,0.7,0,1.3,0,2c0,2.4,0,4.8,0.2,7.4c0.6,7.3,6.5,13.1,13.8,13.4
					c0.3,0,0.6,0,0.9,0c2.6,0.1,5.1-0.9,7-2.7c1.9-2,2.9-4.7,2.8-7.4C327.3,186.1,327.2,175.1,327,164.5z M317.1,198.7
					c-3.6-0.1-6.5-3-6.8-6.6c-0.2-2.9-0.2-5.9-0.2-8.8c0-3-0.4-5.9-1-8.8c-0.8-4.1-4.1-7.3-8.3-8.1c-3.8-0.8-7.6,1.1-9.2,4.6
					c-5.7,10.1-10.9,20.4-18.7,35c-3.2,5.9-8.5,16.4-14.2,26.6c-2.2,4.1-7.3,3.2-9.5,0.3c-1.4-1.8-1.5-4.2-0.3-6.1
					c7-13.2,14-26.4,21-39.6c1.7-3.1,3.3-6.2,4.9-9.3c1.5-2.8,0.8-5.5-1.7-6.9c-2.5-1.4-5-0.7-6.5,2.1c-1.5,2.8-3,5.7-4.6,8.5
					c-1.6,2.8-4.3,3.4-7.2,1.8c-3.2-1.8-4.5-4.8-3.1-7.6c2.6-5.1,5.4-10.1,8-15.2c1.3-2.3,0.5-5.2-1.8-6.5c-0.6-0.4-1.4-0.6-2.1-0.6
					c-1.7-0.2-3.3,0.7-4.1,2.2c-1.1,2-2.1,4-3.2,6c-2.1,3.6-6,3.8-8.8,0.5c-1.4-1.4-1.6-3.6-0.6-5.3c2.1-3.9,4.1-7.8,6.2-11.7
					c1.5-2.8,0.9-5.5-1.6-7c-2.5-1.5-5.1-0.6-6.7,2.3c-0.7,1.2-1.4,2.5-2,3.8c-1.1,2.2-3.8,3.1-6.1,2c-0.1-0.1-0.2-0.1-0.3-0.2
					c-2.4-1.2-3.6-4-2.8-6.6c0.7-1.8,1.5-3.6,2.4-5.3c0.7-1.5,3-6.2,3.7-7.7h87.1c0,22,0.6,47.4,0.7,69.4
					C319.8,198.3,319,198.8,317.1,198.7L317.1,198.7z"/>
				<path id="path30_1_" class="st0" d="M285.7,215.6l-4.6,8.8c0.8,2.6,1.1,5.3,1.1,8c0,16-13,29-29.1,29c-16,0-29-13-29-29.1
					c0-12.1,7.5-22.9,18.8-27.1l4.8-9c-20,3-33.8,21.6-30.8,41.6c3,20,21.6,33.8,41.6,30.8s33.8-21.6,30.8-41.6
					C288.8,223,287.5,219.2,285.7,215.6z"/>
			</g>
		</g>
	</g>
</g>
</svg>
