<?xml version="1.0" encoding="UTF-8" standalone="no"?>
<svg
   xmlns:dc="http://purl.org/dc/elements/1.1/"
   xmlns:cc="http://creativecommons.org/ns#"
   xmlns:rdf="http://www.w3.org/1999/02/22-rdf-syntax-ns#"
   xmlns:svg="http://www.w3.org/2000/svg"
   xmlns="http://www.w3.org/2000/svg"
   xmlns:sodipodi="http://sodipodi.sourceforge.net/DTD/sodipodi-0.dtd"
   xmlns:inkscape="http://www.inkscape.org/namespaces/inkscape"
   version="1.1"
   id="ic_empty_multisend"
   inkscape:version="1.0.1 (3bc2e813f5, 2020-09-07)"
   sodipodi:docname="img-empty-multisend.svg"
   x="0px"
   y="0px"
   viewBox="0 0 100 100"
   style="enable-background:new 0 0 100 100;"
   xml:space="preserve"><metadata
   id="metadata39"><rdf:RDF><cc:Work
       rdf:about=""><dc:format>image/svg+xml</dc:format><dc:type
         rdf:resource="http://purl.org/dc/dcmitype/StillImage" /></cc:Work></rdf:RDF></metadata><defs
   id="defs37"><pattern
     id="EMFhbasepattern"
     patternUnits="userSpaceOnUse"
     width="6"
     height="6"
     x="0"
     y="0" /></defs>
<style
   type="text/css"
   id="style2">
	.st0{fill:#2EA1FF;}
	.st1{fill:#666666;}
	.st2{fill:#EFEFEF;}
</style>
<sodipodi:namedview
   bordercolor="#666666"
   borderopacity="1"
   gridtolerance="10"
   guidetolerance="10"
   id="namedview25"
   inkscape:current-layer="Group_9029"
   inkscape:cx="38.509781"
   inkscape:cy="49.478895"
   inkscape:pageopacity="0"
   inkscape:pageshadow="2"
   inkscape:window-height="2066"
   inkscape:window-width="3840"
   inkscape:zoom="14.22311"
   objecttolerance="10"
   pagecolor="#ffffff"
   showgrid="false"
   inkscape:document-rotation="0"
   inkscape:window-x="3829"
   inkscape:window-y="-11"
   inkscape:window-maximized="1">
	</sodipodi:namedview>
<g
   id="Group_9031">
	<g
   id="Group_9029">
		<path
   id="Rectangle_4683"
   class="st0"
   d="M45,18h10v9H45V18z"
   style="fill:#121228;fill-opacity:1" />
		<g
   id="Group_9028"
   style="fill:#00dd80;fill-opacity:1">
			<path
   id="Rectangle_4684"
   class="st0"
   d="M14,66h6v10h-6V66z"
   style="fill:#00dd80;fill-opacity:1" />
			<path
   id="Rectangle_4685"
   class="st0"
   d="M80,66h6v10h-6V66z"
   style="fill:#00dd80;fill-opacity:1" />
			<path
   id="Rectangle_4686"
   class="st0"
   d="M47,66h6v10h-6V66z"
   style="fill:#00dd80;fill-opacity:1" />
		</g>
	</g>
	<g
   id="Group_9030">
		<path
   id="Rectangle_4688"
   class="st1"
   d="M67,40h2v4h-2V40z" />
		<circle
   id="Ellipse_626"
   class="st1"
   cx="50"
   cy="73"
   r="1" />
		<circle
   id="Ellipse_627"
   class="st1"
   cx="83"
   cy="73"
   r="1" />
		<path
   id="Rectangle_4689"
   class="st1"
   d="M32,58h4v2h-4V58z" />
		<path
   id="Path_18986"
   class="st1"
   d="M16,65h-3v3H7v4h2v-2h4v7h8v-7h4v21H9V76H7v17h20V68h-6v-3h-3v-5h10v-2H16V65z M19,67v8h-4    v-8H19z" />
		<path
   id="Ellipse_628"
   style="fill:#666666"
   d="M 17 72 A 1 1 0 0 0 16 73 A 1 1 0 0 0 17 74 A 1 1 0 0 0 18 73 A 1 1 0 0 0 17 72 z " />
		
			<path
   id="Path_18987"
   inkscape:connector-curvature="0"
   sodipodi:nodetypes="cccccccccccccccccccscscccccccccccccccccccccccccccccccccccccccccccccccccccccccccccssscsccccccsscsscccccccccccccccc"
   class="st1"
   d="    M87,68v-3h-3v-7H51v-5h18v-5h-2v3H33V28h34v8h2v-8h4V17H59.5c2.3-2.6,2-6.6-0.8-8.7S52,6.8,50,9.7c-1.9-2.9-5.9-3.6-8.7-1.4    c-2.8,2.1-3.1,6.2-0.8,8.8H27v11h4v25h18v5h-9v2h9v5h-3v3h-6v16h2V70h4v7h8v-7h4v21H42v-3h-2v5h20V68h-6v-3h-3v-5h31v5h-3v3h-6v12    h2V70h4v7h8v-7h4v21H75v-7h-2v9h20V68H87z M71,19v7H56v-7H71z M51,13c0-3.6,4.3-5.3,6.8-2.8S58.5,17,55,17h-4V13z M51,19h3v7h-8    v-7H51z M45,9c2.2,0,4,1.8,4,4v4h-4C39.7,17,39.7,9,45,9z M29,26v-7h15v7H29z M52,67v3.2V75h-4v-8H52z M85,75h-4v-8h4V75z" />
	</g>
</g>
<rect
   x="33"
   y="28"
   class="st0"
   width="34"
   height="23"
   id="rect20"
   style="fill:#121228;fill-opacity:1" />

<g
   id="g894"
   transform="translate(640.35759,-239.13337)"><g
     id="g876"><g
       id="g920"
       transform="matrix(0.05112636,0,0,0.05115661,-572.73618,261.76692)"><path
         class="cls-2"
         d="m -226.13759,290.46149 a 293,293 0 0 0 -221.43,0.46 13.74,13.74 0 0 0 -8,12.23 v 12.89 l 0.31,116.64 v 12.9 a 13.79,13.79 0 0 0 8.06,12.19 293.06,293.06 0 0 0 221.44,-0.46 13.75,13.75 0 0 0 8,-12.23 v -12.66 l -0.24,-117.11 v -12.66 a 13.79,13.79 0 0 0 -8.14,-12.19 z"
         id="path8"
         style="fill:#f2f2f2;fill-opacity:1" /><path
         class="cls-3"
         d="m -460.77918,294.25224 c -8.77,0 -15.92,6.19 -16,13.89 -0.32,30.79 1.17,66.16 14.85,98.73 a 146.35,146.35 0 0 0 40.17,54.9 c 20.19,17.28 46.64,31 78.61,40.79 a 30.23,30.23 0 0 0 3.22,0.77 28.34,28.34 0 0 0 4.68,0.4 h 0.29 a 28.21,28.21 0 0 0 4.39,-0.4 28.86,28.86 0 0 0 3.24,-0.78 c 31.92,-9.8 58.34,-23.53 78.51,-40.81 a 146.52,146.52 0 0 0 40.18,-54.91 c 13.69,-32.57 15.22,-67.9 14.92,-98.69 -0.07,-7.69 -7.22,-13.89 -16,-13.89 z"
         id="path10"
         style="fill:#00dd80;fill-opacity:1" /><path
         class="cls-2"
         d="m -332.95109,159.00623 c -1.13,0 -2.26,0 -3.38,-0.05 -1.12,-0.05 -2.25,0 -3.39,0.05 -59.37,2.11 -107,48 -107,104.18 v 84.73 c 0,56.15 47.63,102.07 107,104.18 1.14,0 2.26,0.06 3.39,0.07 1.13,0.01 2.25,0 3.38,-0.07 59.38,-2.11 107,-48 107,-104.18 v -84.73 c -0.01,-56.15 -47.62,-102.07 -107,-104.18 z m -3.38,257.4 c -39.81,-0.61 -72,-31.12 -72,-68.56 v -84.59 c 0,-37.44 32.19,-67.95 72,-68.56 39.8,0.61 72,31.12 72,68.56 v 49.81 a 9.89,9.89 0 0 0 -2.05,0.94 l -24,14.68 -21.23,13 a 23.67,23.67 0 1 0 0,21.33 l 21.23,13 14.42,8.83 c -12.83,18.68 -35.05,31.17 -60.37,31.56 z"
         id="path12"
         style="fill:#f2f2f2" /></g></g></g></svg>
