<svg id="Layer_1" data-name="Layer 1" xmlns="http://www.w3.org/2000/svg" viewBox="0 0 203.73 203.48"><defs><style>.cls-1{fill:#db0000;stroke:#d80000;}.cls-1,.cls-2{stroke-miterlimit:10;stroke-width:2px;}.cls-2{fill:#bc0000;stroke:#ff0606;}</style></defs><rect class="cls-1" x="143.83" y="93.1" width="54.34" height="9.52" transform="translate(-48.27 127.35) rotate(-45)"/><rect class="cls-1" x="64.31" y="145.01" width="53.92" height="9.52" transform="translate(-108.32 86.18) rotate(-45)"/><rect class="cls-1" x="100.37" y="56.53" width="9.52" height="54.55" transform="translate(-57.42 78.33) rotate(-45.72)"/><rect class="cls-1" x="113.6" y="85.6" width="74.15" height="9.52" transform="translate(-48.92 110.78) rotate(-45)"/><rect class="cls-1" x="159.65" y="106.05" width="9.52" height="74.15" transform="translate(-82 138.68) rotate(-45.72)"/><rect class="cls-1" x="93.57" y="67.73" width="9.52" height="74.15" transform="translate(-74.52 79.81) rotate(-45.72)"/><rect class="cls-1" x="152.48" y="136.55" width="9.52" height="54.16" transform="translate(-98.84 139.74) rotate(-45.72)"/><rect class="cls-1" x="74.51" y="152.51" width="74.15" height="9.52" transform="translate(-107.68 102.74) rotate(-45)"/><polygon class="cls-2" points="96.93 62.95 86.99 53.34 86.99 12.13 96.93 2.38 96.93 62.95"/><polygon class="cls-2" points="150.55 86.64 191.77 86.64 201.37 96.58 140.81 96.58 150.55 86.64"/><polygon class="cls-2" points="107.26 140.56 117.2 150.3 117.2 191.52 107.26 201.12 107.26 140.56"/><polygon class="cls-2" points="117.2 53.34 107.26 62.95 107.26 2.38 117.2 12.13 117.2 53.34"/><polygon class="cls-2" points="86.99 150.3 96.93 140.56 96.93 201.12 86.99 191.52 86.99 150.3"/><polygon class="cls-2" points="140.81 106.91 201.37 106.91 191.77 116.84 150.55 116.84 140.81 106.91"/><polygon class="cls-2" points="53.34 116.84 12.12 116.84 2.38 106.91 62.95 106.91 53.34 116.84"/><polygon class="cls-2" points="62.95 96.58 2.38 96.58 12.12 86.64 53.34 86.64 62.95 96.58"/></svg>