<?xml version="1.0" encoding="UTF-8" standalone="no"?>
<svg
   version="1.1"
   id="ic_empty_Dark_zpiv"
   x="0px"
   y="0px"
   viewBox="0 0 100 100"
   style="enable-background:new 0 0 100 100;"
   xml:space="preserve"
   sodipodi:docname="img-empty-privacy-dark.svg"
   inkscape:version="1.1 (c68e22c387, 2021-05-23)"
   xmlns:inkscape="http://www.inkscape.org/namespaces/inkscape"
   xmlns:sodipodi="http://sodipodi.sourceforge.net/DTD/sodipodi-0.dtd"
   xmlns="http://www.w3.org/2000/svg"
   xmlns:svg="http://www.w3.org/2000/svg"
   xmlns:rdf="http://www.w3.org/1999/02/22-rdf-syntax-ns#"
   xmlns:cc="http://creativecommons.org/ns#"
   xmlns:dc="http://purl.org/dc/elements/1.1/"><sodipodi:namedview
   pagecolor="#ffffff"
   bordercolor="#666666"
   borderopacity="1"
   objecttolerance="10"
   gridtolerance="10"
   guidetolerance="10"
   inkscape:pageopacity="0"
   inkscape:pageshadow="2"
   inkscape:window-width="2560"
   inkscape:window-height="1387"
   id="namedview24"
   showgrid="false"
   inkscape:zoom="10.39447"
   inkscape:cx="38.433898"
   inkscape:cy="42.282098"
   inkscape:window-x="2552"
   inkscape:window-y="-8"
   inkscape:window-maximized="1"
   inkscape:current-layer="g938"
   inkscape:document-rotation="0"
   inkscape:pagecheckerboard="0" /><metadata
   id="metadata34"><rdf:RDF><cc:Work
       rdf:about=""><dc:format>image/svg+xml</dc:format><dc:type
         rdf:resource="http://purl.org/dc/dcmitype/StillImage" /><dc:title /></cc:Work></rdf:RDF></metadata><defs
   id="defs32"><pattern
     id="EMFhbasepattern"
     patternUnits="userSpaceOnUse"
     width="6"
     height="6"
     x="0"
     y="0" /></defs>
<style
   type="text/css"
   id="style2">
	.st0{fill:#2EA1FF;}
	.st1{fill:#A09EA5;}
	.st2{fill:#EFEFEF;}
</style>

<g
   id="Group_9081">
	
	<g
   id="Group_9080">
		<g
   id="Group_9078">
			
			<path
   id="Rectangle_4744"
   class="st1"
   d="M83,56h2v4h-2V56z" />
			<path
   id="Rectangle_4745"
   class="st1"
   d="M83,44h2v8h-2V44z" />
			<path
   id="Rectangle_4746"
   class="st1"
   d="M15,48h2v8h-2V48z" />
			<path
   id="Rectangle_4747"
   class="st1"
   d="M15,40h2v4h-2V40z" />
			<path
   id="Path_19028"
   class="st1"
   d="M95.2,71H85v-7h-2v9h7.8L76,90.5L61.2,73H68v-2h-4.5c11.6-7.5,15-22.9,7.5-34.5     c-6.4-9.9-18.9-14-29.9-9.8L24,6.5L4.8,29H15v7h2v-9H9.2L24,9.5L38.8,27H32v2h4.5c-11.6,7.5-15,22.9-7.5,34.5     c6.4,9.9,18.9,14,29.9,9.8L76,93.5L95.2,71z M27,50c0-12.7,10.3-23,23-23s23,10.3,23,23S62.7,73,50,73S27,62.7,27,50z" />
		<g
   id="g938"
   transform="matrix(0.06237187,0,0,0.06237187,36.01772,35.579044)"><path
     class="cls-1"
     d="m 495.60184,162.30597 a 110.819,110.819 0 0 0 -42.82458,-41.49153 114.59032,114.59032 0 0 0 -11.52118,-5.52574 117.95413,117.95413 0 0 0 -20.90828,-6.50672 135.38097,135.38097 0 0 0 -28.59579,-2.92854 q -33.84526,0 -61.35655,15.14055 -3.50193,1.926 -6.80343,4.04079 l 7.54249,22.15133 a 91.499579,91.499579 0 0 1 11.64547,-7.67395 q 21.97197,-12.20485 48.99278,-12.2118 a 106.61252,106.61252 0 0 1 21.58503,2.1279 93.557922,93.557922 0 0 1 20.84601,6.8314 q 3.25325,1.50513 6.39594,3.25323 a 88.412063,88.412063 0 0 1 34.17688,33.84528 q 12.35686,21.64699 12.36377,48.35031 0.007,26.7033 -12.36377,48.35035 a 88.412063,88.412063 0 0 1 -34.17688,33.84524 95.263999,95.263999 0 0 1 -35.98658,11.47966 113.11218,113.11218 0 0 1 -12.56415,0.72679 h -0.28844 c -4.35151,0 -12.85425,-1.06986 -17.38542,-1.68388 a 28.222787,28.222787 0 0 1 -8.63385,-2.51467 30.212057,30.212057 0 0 1 -15.25105,-17.35775 L 286.90275,107.80466 H 264.44746 L 196.41151,303.74794 151.34898,172.90499 A 82.46497,82.46497 0 0 0 136.1533,146.11202 110.2526,110.2526 0 0 0 111.64639,124.84473 q -3.29473,-2.11917 -6.76219,-4.0268 a 117.27722,117.27722 0 0 0 -15.478843,-7.11461 120.22659,120.22659 0 0 0 -13.745261,-4.19959 134.31035,134.31035 0 0 0 -31.807754,-3.66757 q -33.845266,0 -61.349622,15.14063 -27.504365,15.14055 -42.969646,41.49843 -15.430687,26.37834 -15.430687,59.23602 0,32.85734 15.458355,59.24288 15.444537,26.35788 42.969659,41.49156 27.525119,15.13365 61.349625,15.13365 33.845263,0 61.031854,-14.96784 A 111.0193,111.0193 0 0 0 138.22539,294.879 l -9.50441,-28.18833 c -0.55939,1.13321 -1.1736,2.25201 -1.81088,3.36382 A 88.412063,88.412063 0 0 1 92.726618,303.8999 q -21.813117,12.2118 -48.820064,12.20485 -27.00724,-0.008 -49.0135497,-12.19795 A 89.102785,89.102785 0 0 1 -39.642873,270.06153 q -12.543383,-21.647 -12.529563,-48.35029 0.01363,-26.70333 12.529563,-48.35038 A 89.137314,89.137314 0 0 1 -5.1069957,139.51562 Q 16.871633,127.31075 43.87887,127.3038 q 22.00631,0 40.552092,8.11575 4.22036,1.84559 8.288735,4.09629 3.570977,2.00423 6.872628,4.25493 c 0.692035,0.47593 1.381235,0.96585 2.073275,1.4562 13.65558,9.82881 23.71943,23.87109 29.27947,39.75072 l 26.33708,75.16409 25.45301,75.48187 h 25.06633 l 67.05499,-194.32004 55.8654,162.67807 a 47.424782,47.424782 0 0 0 36.01398,31.37263 l 0.29718,0.0567 a 134.49685,134.49685 0 0 0 17.80672,1.99548 q 3.45342,0.17472 6.90723,0.17472 2.71352,0 5.39453,-0.0875 30.64742,-1.0987 55.63071,-14.87131 a 110.73611,110.73611 0 0 0 42.82463,-41.49848 q 15.62387,-26.52364 15.62387,-59.40181 0,-32.87811 -15.63083,-59.39485 z"
     id="path8"
     style="fill:#cccccc;fill-opacity:1;stroke-width:0.690723" /></g></g>
	</g>
</g>


</svg>
