<?xml version="1.0" encoding="UTF-8" standalone="no"?>
<svg
   xmlns:dc="http://purl.org/dc/elements/1.1/"
   xmlns:cc="http://creativecommons.org/ns#"
   xmlns:rdf="http://www.w3.org/1999/02/22-rdf-syntax-ns#"
   xmlns:svg="http://www.w3.org/2000/svg"
   xmlns="http://www.w3.org/2000/svg"
   xmlns:sodipodi="http://sodipodi.sourceforge.net/DTD/sodipodi-0.dtd"
   xmlns:inkscape="http://www.inkscape.org/namespaces/inkscape"
   id="Layer_1"
   data-name="Layer 1"
   viewBox="0 0 100 100"
   version="1.1"
   sodipodi:docname="img-empty-dark-masternode.svg"
   inkscape:version="1.0.2 (e86c870879, 2021-01-15, custom)">
  <metadata
     id="metadata21">
    <rdf:RDF>
      <cc:Work
         rdf:about="">
        <dc:format>image/svg+xml</dc:format>
        <dc:type
           rdf:resource="http://purl.org/dc/dcmitype/StillImage" />
      </cc:Work>
    </rdf:RDF>
  </metadata>
  <sodipodi:namedview
     pagecolor="#ffffff"
     bordercolor="#666666"
     borderopacity="1"
     objecttolerance="10"
     gridtolerance="10"
     guidetolerance="10"
     inkscape:pageopacity="0"
     inkscape:pageshadow="2"
     inkscape:window-width="3840"
     inkscape:window-height="2126"
     id="namedview19"
     showgrid="false"
     inkscape:zoom="7.35"
     inkscape:cx="50"
     inkscape:cy="50"
     inkscape:window-x="-11"
     inkscape:window-y="-11"
     inkscape:window-maximized="1"
     inkscape:current-layer="Layer_1" />
  <defs
     id="defs4">
    <style
       id="style2">.cls-1{opacity:0.2;}.cls-2{fill:#eaeaea;}.cls-3{fill:none;}</style>
  </defs>
  <g
     id="Group_9047"
     data-name="Group 9047"
     class="cls-1"
     transform="matrix(0.94237464,0,0,0.94345945,2.8397588,2.854167)"
     style="fill:#333333;opacity:1">
    <g
       id="Group_9045"
       data-name="Group 9045"
       style="fill:#333333">
      <circle
         id="Ellipse_630"
         data-name="Ellipse 630"
         class="cls-2"
         cx="13.25"
         cy="13.16"
         r="8.3999996"
         style="fill:#333333" />
      <circle
         id="Ellipse_631"
         data-name="Ellipse 631"
         class="cls-2"
         cx="86.199997"
         cy="87.800003"
         r="8.3999996"
         style="fill:#333333" />
      <path
         id="Ellipse_632"
         data-name="Ellipse 632"
         class="cls-2"
         d="m 37.28,78.28 a 8.4,8.4 0 0 0 -8.4,8.4 v 0 a 8.4,8.4 0 0 0 8.4,8.4 v 0 a 8.4,8.4 0 0 0 8.4,-8.4 v 0 a 8.4,8.4 0 0 0 -8.4,-8.4 z"
         style="fill:#333333" />
      <path
         class="cls-2"
         d="M 86.5,28.16 A 10,10 0 0 0 78.11,43.65 L 67.28,54.47 A 10,10 0 0 0 56.19,54.58 L 45.25,43.64 a 9.91,9.91 0 0 0 1.63,-5.46 10,10 0 0 0 -20,0 9.91,9.91 0 0 0 1.63,5.46 L 17.65,54.47 a 10.07,10.07 0 1 0 2.92,2.93 L 31.4,46.57 a 10,10 0 0 0 10.92,0 l 11,11 A 10,10 0 1 0 70.21,57.4 L 81,46.57 a 9.91,9.91 0 0 0 5.5,1.63 10,10 0 0 0 0,-20 z M 12.18,68.74 a 5.88,5.88 0 1 1 5.88,-5.88 5.88,5.88 0 0 1 -5.88,5.88 z M 36.86,44.06 a 5.88,5.88 0 1 1 5.88,-5.88 5.89,5.89 0 0 1 -5.88,5.88 z m 25,24.68 a 5.88,5.88 0 1 1 5.88,-5.88 5.89,5.89 0 0 1 -5.92,5.88 z M 86.5,44.06 a 5.88,5.88 0 1 1 5.87,-5.88 5.89,5.89 0 0 1 -5.87,5.88 z"
         id="path9"
         style="fill:#333333" />
      <path
         class="cls-2"
         d="m 34.74,53.6 a 2.07,2.07 0 0 0 -2.93,0 l -4.21,4.21 a 2.07,2.07 0 0 0 0,2.93 2.11,2.11 0 0 0 1.47,0.61 2.07,2.07 0 0 0 1.46,-0.61 l 4.21,-4.21 a 2.07,2.07 0 0 0 0,-2.93 z"
         id="path11"
         style="fill:#333333" />
      <path
         class="cls-2"
         d="m 71.08,40.37 a 2.09,2.09 0 0 0 -2.93,0 l -4.21,4.22 a 2.06,2.06 0 0 0 0,2.92 2,2 0 0 0 1.46,0.61 2.07,2.07 0 0 0 1.47,-0.61 l 4.21,-4.21 a 2.07,2.07 0 0 0 0,-2.93 z"
         id="path13"
         style="fill:#333333" />
    </g>
  </g>
  <path
     id="Rectangle_4704"
     data-name="Rectangle 4704"
     class="cls-3"
     d="M0,0H100V100H0Z"
     transform="translate(0 0)" />
</svg>
