<?xml version="1.0" encoding="UTF-8" standalone="no"?>
<svg
   xmlns:dc="http://purl.org/dc/elements/1.1/"
   xmlns:cc="http://creativecommons.org/ns#"
   xmlns:rdf="http://www.w3.org/1999/02/22-rdf-syntax-ns#"
   xmlns:svg="http://www.w3.org/2000/svg"
   xmlns="http://www.w3.org/2000/svg"
   xml:space="preserve"
   style="enable-background:new 0 0 100 100;"
   viewBox="0 0 100 100"
   y="0px"
   x="0px"
   id="ic_empty_Dark_transactions"
   version="1.1"><metadata
   id="metadata34"><rdf:RDF><cc:Work
       rdf:about=""><dc:format>image/svg+xml</dc:format><dc:type
         rdf:resource="http://purl.org/dc/dcmitype/StillImage" /><dc:title></dc:title></cc:Work></rdf:RDF></metadata><defs
   id="defs32"><pattern
     y="0"
     x="0"
     height="6"
     width="6"
     patternUnits="userSpaceOnUse"
     id="EMFhbasepattern" /></defs>
<style
   id="style2"
   type="text/css">
	.st0{fill:#2EA1FF;}
	.st1{fill:#A09EA5;}
	.st2{fill:#EFEFEF;}
</style>

<g
   id="Group_9036">
	<circle
   style="fill:#009dff;fill-opacity:1;stroke-width:1.06438053"
   r="19.052412"
   id="circle5"
   cy="50.230484"
   cx="50.256264"
   class="st0" /><path
   style="fill:#ffffff;fill-opacity:1;stroke-width:0.0321023"
   id="path8"
   d="M 62.625294,46.991701 A 5.150479,5.150479 0 0 0 60.634957,45.06332 5.3257572,5.3257572 0 0 0 60.099494,44.806503 5.482095,5.482095 0 0 0 59.12775,44.504094 6.2920336,6.2920336 0 0 0 57.798718,44.367984 q -1.573009,0 -2.851638,0.703681 -0.162757,0.08952 -0.3162,0.187802 l 0.350549,1.029516 a 4.2525801,4.2525801 0 0 1 0.54124,-0.356658 q 1.021181,-0.567239 2.277014,-0.567562 a 4.9549765,4.9549765 0 0 1 1.003196,0.0989 4.3482448,4.3482448 0 0 1 0.96885,0.317499 q 0.1512,0.06995 0.29726,0.151201 a 4.1090831,4.1090831 0 0 1 1.588423,1.573009 q 0.574303,1.006076 0.574624,2.247153 3.21e-4,1.241075 -0.574624,2.247156 a 4.1090831,4.1090831 0 0 1 -1.588423,1.573008 4.4275373,4.4275373 0 0 1 -1.672529,0.533534 5.2570583,5.2570583 0 0 1 -0.583938,0.03378 h -0.0134 c -0.202243,0 -0.59742,-0.04972 -0.808013,-0.07826 a 1.3116965,1.3116965 0 0 1 -0.401273,-0.116859 1.4041507,1.4041507 0 0 1 -0.708815,-0.806729 l -2.955325,-8.679466 h -1.043642 l -3.162074,9.106759 -2.094349,-6.081121 a 3.832683,3.832683 0 0 0 -0.706242,-1.245245 5.1241551,5.1241551 0 0 0 -1.138997,-0.98843 q -0.153129,-0.09849 -0.31428,-0.187151 a 5.4506346,5.4506346 0 0 0 -0.719404,-0.330666 5.587711,5.587711 0 0 0 -0.638832,-0.195174 6.242275,6.242275 0 0 0 -1.478313,-0.170455 q -1.573009,0 -2.851316,0.703683 -1.278306,0.703681 -1.997079,1.928702 -0.717165,1.225973 -0.717165,2.753082 0,1.527095 0.718452,2.753402 0.717807,1.225022 1.99708,1.928383 1.27927,0.70336 2.851315,0.70336 1.573009,0 2.836545,-0.695653 a 5.1597885,5.1597885 0 0 0 1.548298,-1.288909 l -0.441738,-1.310111 c -0.026,0.05268 -0.05454,0.10467 -0.08417,0.15634 a 4.1090831,4.1090831 0 0 1 -1.588727,1.573014 q -1.013798,0.567563 -2.268987,0.567239 -1.2552,-3.21e-4 -2.277978,-0.566918 a 4.1411856,4.1411856 0 0 1 -1.605107,-1.57301 q -0.582976,-1.006075 -0.582332,-2.247152 6.3e-4,-1.241077 0.582332,-2.247156 a 4.1427904,4.1427904 0 0 1 1.605105,-1.573008 q 1.021489,-0.567241 2.276692,-0.567563 1.022776,0 1.884718,0.377191 0.19615,0.08578 0.385233,0.190381 0.165966,0.09315 0.319414,0.197755 c 0.03215,0.02212 0.06419,0.04489 0.09636,0.06768 0.634665,0.456808 1.102397,1.109443 1.360808,1.847474 l 1.224054,3.493363 1.182966,3.508133 h 1.164996 l 3.116482,-9.031315 2.596427,7.560708 a 2.2041379,2.2041379 0 0 0 1.673805,1.45809 l 0.01381,0.0027 a 6.2509428,6.2509428 0 0 0 0.827594,0.09274 q 0.160503,0.0082 0.321023,0.0082 0.126113,0 0.250719,-0.0041 1.424385,-0.05106 2.585521,-0.691167 a 5.1466267,5.1466267 0 0 0 1.990338,-1.928704 q 0.726144,-1.232725 0.726144,-2.760787 0,-1.528059 -0.726467,-2.760465 z"
   class="cls-1" />
	<path
   style="fill:#009dff;fill-opacity:1"
   d="M50,26c-13.3,0-24,10.7-24,24s10.7,24,24,24s24-10.7,24-24S63.3,26,50,26z M50,68   c-9.9,0-18-8.1-18-18s8.1-18,18-18s18,8.1,18,18S59.9,68,50,68z"
   class="st0"
   id="Path_18988" />
	<g
   id="Group_9035">
		<g
   id="Group_9034">
			
			<path
   d="M83,56h2v4h-2V56z"
   class="st1"
   id="Rectangle_4693" />
			<path
   d="M83,44h2v8h-2V44z"
   class="st1"
   id="Rectangle_4694" />
			<path
   d="M15,48h2v8h-2V48z"
   class="st1"
   id="Rectangle_4695" />
			<path
   d="M15,40h2v4h-2V40z"
   class="st1"
   id="Rectangle_4696" />
			<path
   d="M95.2,71H85v-7h-2v9h7.8L76,90.5L61.2,73H68v-2h-4.5c11.6-7.5,15-22.9,7.5-34.5     c-6.4-9.9-18.9-14-29.9-9.8L24,6.5L4.8,29H15v7h2v-9H9.2L24,9.5L38.8,27H32v2h4.5c-11.6,7.5-15,22.9-7.5,34.5     c6.4,9.9,18.9,14,29.9,9.8L76,93.5L95.2,71z M27,50c0-12.7,10.3-23,23-23s23,10.3,23,23S62.7,73,50,73S27,62.7,27,50z"
   class="st1"
   id="Path_18991" />
		</g>
	</g>
	
</g>
</svg>