<svg id="Layer_1" data-name="Layer 1" xmlns="http://www.w3.org/2000/svg" viewBox="0 0 72 72"><defs><style>.cls-1{fill:#fff;}.cls-2{fill:none;}</style></defs><rect class="cls-1" width="72" height="72"/><path d="M24.5,6.4V5.68H23.13a.72.72,0,0,0-.72.72V7.77H24.5Z" transform="translate(0)"/><rect x="24.5" y="5.68" width="2.09" height="2.09"/><path d="M28.68,6.4A.72.72,0,0,0,28,5.68H26.59V7.77h2.09Z" transform="translate(0)"/><path d="M35,6.4V5.68H33.58a.72.72,0,0,0-.72.72V7.77H35Z" transform="translate(0)"/><rect x="34.95" y="5.68" width="2.09" height="2.09"/><path d="M39.14,6.4a.72.72,0,0,0-.72-.72H37.05V7.77h2.09Z" transform="translate(0)"/><path d="M45.41,6.53V7.77H43.32V6.53l1-.85Z" transform="translate(0)"/><rect x="22.41" y="7.77" width="2.09" height="2.09"/><rect x="24.5" y="7.77" width="2.09" height="2.09"/><rect x="26.59" y="7.77" width="2.09" height="2.09"/><rect x="28.68" y="7.77" width="2.09" height="2.09"/><rect x="30.77" y="7.77" width="2.09" height="2.09"/><rect x="32.86" y="7.77" width="2.09" height="2.09"/><rect x="34.95" y="7.77" width="2.09" height="2.09"/><path d="M39.14,7.77H37.05V9.86h1.37a.72.72,0,0,0,.72-.72Z" transform="translate(0)"/><path d="M42.08,7.77h1.24V9.86H42.08l-.85-1Z" transform="translate(0)"/><rect x="43.32" y="7.77" width="2.09" height="2.09"/><rect x="45.41" y="7.77" width="2.09" height="2.09"/><path d="M49.59,8.49a.72.72,0,0,0-.72-.72H47.5V9.86h2.09Z" transform="translate(0)"/><path d="M24.5,9.86H22.41v1.38a.72.72,0,0,0,.72.71H24.5Z" transform="translate(0)"/><rect x="24.5" y="9.86" width="2.09" height="2.09"/><rect x="26.59" y="9.86" width="2.09" height="2.09"/><rect x="28.68" y="9.86" width="2.09" height="2.09"/><path d="M35,9.86H32.86v1.38a.72.72,0,0,0,.72.71H35Z" transform="translate(0)"/><rect x="34.95" y="9.86" width="2.09" height="2.09"/><rect x="47.5" y="9.86" width="2.09" height="2.09"/><rect x="24.5" y="11.95" width="2.09" height="2.09"/><rect x="26.59" y="11.95" width="2.09" height="2.09"/><rect x="28.68" y="11.95" width="2.09" height="2.09"/><path d="M32.86,12.67a.71.71,0,0,0-.21-.51.69.69,0,0,0-.51-.21H30.77v2.1h2.09Z" transform="translate(0)"/><path d="M37.05,12H35v1.38a.72.72,0,0,0,.72.72h1.38Z" transform="translate(0)"/><path d="M39.14,12.67a.71.71,0,0,0-.21-.51.69.69,0,0,0-.51-.21H37.05v2.1h2.09Z" transform="translate(0)"/><path d="M43.32,12.8v1.25H41.23V12.8l1-.85Z" transform="translate(0)"/><path d="M47.5,12.67V12H46.13a.69.69,0,0,0-.51.21.71.71,0,0,0-.21.51v1.38H47.5Z" transform="translate(0)"/><path d="M49.59,12H47.5v2.1h1.37a.69.69,0,0,0,.51-.21.71.71,0,0,0,.21-.51Z" transform="translate(0)"/><path d="M23.26,14.05H24.5v2.09H23.26l-.85-1.05Z" transform="translate(0)"/><rect x="24.5" y="14.05" width="2.09" height="2.09"/><path d="M28.68,14.05H26.59v2.09H28a.72.72,0,0,0,.72-.72Z" transform="translate(0)"/><path d="M32.86,14.05H30.77v1.37a.72.72,0,0,0,.72.72h1.37Z" transform="translate(0)"/><path d="M35,14.76a.72.72,0,0,0-.71-.71H32.86v2.09H35Z" transform="translate(0)"/><path d="M39.14,15.29V14.05H37.05v1.24l1,.85Z" transform="translate(0)"/><rect x="41.23" y="14.05" width="2.09" height="2.09"/><rect x="43.32" y="14.05" width="2.09" height="2.09"/><path d="M47.5,14.05H45.41v2.09h1.37a.72.72,0,0,0,.72-.72Z" transform="translate(0)"/><path d="M26.59,17.38V16.14H24.5v1.24l1.05.85Z" transform="translate(0)"/><path d="M35,16.14H32.86v1.37a.72.72,0,0,0,.72.72H35Z" transform="translate(0)"/><path d="M37.05,16.86a.69.69,0,0,0-.21-.51.71.71,0,0,0-.51-.21H35v2.09h2.1Z" transform="translate(0)"/><path d="M43.32,17.38V16.14H41.23v1.24l1,.85Z" transform="translate(0)"/><path d="M49.59,17v1.24H47.5V17l1-.85Z" transform="translate(0)"/><path d="M24.5,19.6a.72.72,0,0,1-.72.72h-.65a.72.72,0,0,1-.72-.72V19a.72.72,0,0,1,.72-.72h.65a.72.72,0,0,1,.72.72Z" transform="translate(0)"/><path d="M28.68,19.6a.72.72,0,0,1-.72.72h-.65a.72.72,0,0,1-.72-.72V19a.72.72,0,0,1,.72-.72H28a.72.72,0,0,1,.72.72Z" transform="translate(0)"/><path d="M32.86,19.08v1.24H30.77V19.08l1.05-.85Z" transform="translate(0)"/><rect x="34.95" y="18.23" width="2.09" height="2.09"/><path d="M41.23,19.6a.72.72,0,0,1-.72.72h-.65a.72.72,0,0,1-.72-.72V19a.72.72,0,0,1,.72-.72h.65a.72.72,0,0,1,.72.72Z" transform="translate(0)"/><path d="M45.41,19.6a.72.72,0,0,1-.72.72H44a.72.72,0,0,1-.72-.72V19a.72.72,0,0,1,.72-.72h.65a.72.72,0,0,1,.72.72Z" transform="translate(0)"/><path d="M49.59,19.47V18.23H47.5v1.24l1,.85Z" transform="translate(0)"/><path d="M26.59,21.17v1.24H24.5V21.17l1.05-.85Z" transform="translate(0)"/><rect x="30.77" y="20.32" width="2.09" height="2.09"/><rect x="34.95" y="20.32" width="2.09" height="2.09"/><path d="M7.77,23.26V24.5H5.68V23.26l1.05-.85Z" transform="translate(0)"/><path d="M12.8,22.41h1.25V24.5H12.8L12,23.45Z" transform="translate(0)"/><rect x="14.05" y="22.41" width="2.09" height="2.09"/><rect x="16.14" y="22.41" width="2.09" height="2.09"/><rect x="18.23" y="22.41" width="2.09" height="2.09"/><rect x="20.32" y="22.41" width="2.09" height="2.09"/><rect x="22.41" y="22.41" width="2.09" height="2.09"/><path d="M26.59,22.41H24.5V24.5h1.37a.72.72,0,0,0,.72-.72Z" transform="translate(0)"/><rect x="30.77" y="22.41" width="2.09" height="2.09"/><rect x="32.86" y="22.41" width="2.09" height="2.09"/><rect x="34.95" y="22.41" width="2.09" height="2.09"/><rect x="37.05" y="22.41" width="2.09" height="2.09"/><rect x="39.14" y="22.41" width="2.09" height="2.09"/><path d="M43.32,23.13a.72.72,0,0,0-.72-.72H41.23V24.5h2.09Z" transform="translate(0)"/><path d="M51.68,23.26V24.5H49.59V23.26l1-.85Z" transform="translate(0)"/><path d="M58,23.26V24.5H55.86V23.26l1-.85Z" transform="translate(0)"/><path d="M62.14,23.13v-.72H60.76a.72.72,0,0,0-.71.72V24.5h2.09Z" transform="translate(0)"/><rect x="62.14" y="22.41" width="2.09" height="2.09"/><path d="M65.47,22.41H64.23V24.5h1.24l.85-1.05Z" transform="translate(0)"/><path d="M7.77,25.74V24.5H5.68v1.24l1.05.85Z" transform="translate(0)"/><path d="M12,25.35v1.24H9.86V25.35l1.05-.85Z" transform="translate(0)"/><path d="M24.5,25.74V24.5H22.41v1.24l1,.85Z" transform="translate(0)"/><path d="M32.86,25.74V24.5H30.77v1.24l1.05.85Z" transform="translate(0)"/><rect x="34.95" y="24.5" width="2.09" height="2.09"/><rect x="41.23" y="24.5" width="2.09" height="2.09"/><path d="M47.5,25.87a.72.72,0,0,1-.72.72h-.65a.72.72,0,0,1-.72-.72v-.65a.72.72,0,0,1,.72-.72h.65a.72.72,0,0,1,.72.72Z" transform="translate(0)"/><rect x="49.59" y="24.5" width="2.09" height="2.09"/><path d="M55.86,25.22V24.5H54.49a.72.72,0,0,0-.72.72v1.37h2.09Z" transform="translate(0)"/><path d="M58,24.5H55.86v2.09h1.38a.72.72,0,0,0,.71-.72Z" transform="translate(0)"/><rect x="60.05" y="24.5" width="2.09" height="2.09"/><path d="M64.23,24.5H62.14v2.09h1.37a.72.72,0,0,0,.72-.72Z" transform="translate(0)"/><path d="M8.62,26.59H9.86v2.09H8.62l-.85-1Z" transform="translate(0)"/><path d="M12,26.59H9.86v2.09h1.38A.72.72,0,0,0,12,28Z" transform="translate(0)"/><path d="M16.14,27.31v-.72H14.76a.72.72,0,0,0-.71.72v1.37h2.09Z" transform="translate(0)"/><rect x="16.14" y="26.59" width="2.09" height="2.09"/><path d="M19.47,26.59H18.23v2.09h1.24l.85-1Z" transform="translate(0)"/><path d="M26.59,27.31v-.72H25.22a.72.72,0,0,0-.72.72v1.37h2.09Z" transform="translate(0)"/><path d="M28.68,27.31a.72.72,0,0,0-.72-.72H26.59v2.09h2.09Z" transform="translate(0)"/><rect x="34.95" y="26.59" width="2.09" height="2.09"/><rect x="41.23" y="26.59" width="2.09" height="2.09"/><path d="M44.56,26.59H43.32v2.09h1.24l.85-1Z" transform="translate(0)"/><rect x="49.59" y="26.59" width="2.09" height="2.09"/><path d="M55.86,27.83V26.59H53.77v1.24l1,.85Z" transform="translate(0)"/><path d="M62.14,27.83V26.59H60.05v1.24l1,.85Z" transform="translate(0)"/><path d="M14.05,29.4v-.72H12.67a.71.71,0,0,0-.51.21.69.69,0,0,0-.21.51v1.37h2.1Z" transform="translate(0)"/><path d="M16.14,28.68H14.05v2.09h1.37a.72.72,0,0,0,.72-.72Z" transform="translate(0)"/><path d="M23.26,28.68H24.5v2.09H23.26l-.85-1Z" transform="translate(0)"/><rect x="24.5" y="28.68" width="2.09" height="2.09"/><rect x="26.59" y="28.68" width="2.09" height="2.09"/><rect x="34.95" y="28.68" width="2.09" height="2.09"/><path d="M38.29,28.68H37.05v2.09h1.24l.85-1Z" transform="translate(0)"/><path d="M43.32,29.92V28.68H41.23v1.24l1,.85Z" transform="translate(0)"/><path d="M49.59,29.4v-.72H48.22a.72.72,0,0,0-.72.72v1.37h2.09Z" transform="translate(0)"/><rect x="49.59" y="28.68" width="2.09" height="2.09"/><path d="M53.77,29.4a.72.72,0,0,0-.72-.72H51.68v2.09h2.09Z" transform="translate(0)"/><path d="M60.05,30.05a.69.69,0,0,1-.21.51.71.71,0,0,1-.51.21h-.66a.71.71,0,0,1-.51-.21.69.69,0,0,1-.21-.51V29.4a.69.69,0,0,1,.21-.51.71.71,0,0,1,.51-.21h.66a.71.71,0,0,1,.51.21.69.69,0,0,1,.21.51Z" transform="translate(0)"/><path d="M66.32,29.53v1.24H64.23V29.53l1-.85Z" transform="translate(0)"/><path d="M6.53,30.77H7.77v2.09H6.53l-.85-1Z" transform="translate(0)"/><rect x="7.77" y="30.77" width="2.09" height="2.09"/><rect x="9.86" y="30.77" width="2.09" height="2.09"/><path d="M14.05,30.77H12v2.09h1.38a.71.71,0,0,0,.51-.21.69.69,0,0,0,.21-.51Z" transform="translate(0)"/><path d="M20.32,32.14a.72.72,0,0,1-.72.72H19a.72.72,0,0,1-.72-.72v-.65a.72.72,0,0,1,.72-.72h.65a.72.72,0,0,1,.72.72Z" transform="translate(0)"/><path d="M28.68,32V30.77H26.59V32l1.05.85Z" transform="translate(0)"/><path d="M32.86,31.49v-.72H31.49a.72.72,0,0,0-.72.72v1.37h2.09Z" transform="translate(0)"/><rect x="32.86" y="30.77" width="2.09" height="2.09"/><path d="M37.05,30.77H35v2.09h1.38a.71.71,0,0,0,.51-.21.69.69,0,0,0,.21-.51Z" transform="translate(0)"/><path d="M45.41,31.62v1.24H43.32V31.62l1-.85Z" transform="translate(0)"/><path d="M49.59,32V30.77H47.5V32l1,.85Z" transform="translate(0)"/><rect x="51.68" y="30.77" width="2.09" height="2.09"/><path d="M55,30.77H53.77v2.09H55l.85-1Z" transform="translate(0)"/><rect x="64.23" y="30.77" width="2.09" height="2.09"/><path d="M12,34.11V32.86H9.86v1.25l1.05.84Z" transform="translate(0)"/><path d="M29.53,32.86h1.24V35H29.53l-.85-1Z" transform="translate(0)"/><path d="M32.86,32.86H30.77V35h1.37a.72.72,0,0,0,.72-.71Z" transform="translate(0)"/><path d="M43.32,33.58v-.72H42a.72.72,0,0,0-.72.72V35h2.09Z" transform="translate(0)"/><path d="M45.41,32.86H43.32V35h1.37a.72.72,0,0,0,.72-.71Z" transform="translate(0)"/><path d="M51.68,33.58v-.72H50.31a.72.72,0,0,0-.72.72V35h2.09Z" transform="translate(0)"/><rect x="51.68" y="32.86" width="2.09" height="2.09"/><path d="M56.71,32.86H58V35H56.71l-.85-1Z" transform="translate(0)"/><rect x="57.95" y="32.86" width="2.09" height="2.09"/><rect x="60.05" y="32.86" width="2.09" height="2.09"/><rect x="62.14" y="32.86" width="2.09" height="2.09"/><rect x="64.23" y="32.86" width="2.09" height="2.09"/><path d="M9.86,35.8v1.25H7.77V35.8L8.82,35Z" transform="translate(0)"/><path d="M17,35h1.24v2.1H17l-.85-1Z" transform="translate(0)"/><rect x="18.23" y="34.95" width="2.09" height="2.09"/><rect x="20.32" y="34.95" width="2.09" height="2.09"/><path d="M23.65,35H22.41v2.1h1.24l.85-1Z" transform="translate(0)"/><path d="M28.68,35.8v1.25H26.59V35.8L27.64,35Z" transform="translate(0)"/><path d="M37.05,35.67V35H35.67a.72.72,0,0,0-.72.72v1.38h2.1Z" transform="translate(0)"/><path d="M38.29,35H37.05v2.1h1.24l.85-1Z" transform="translate(0)"/><path d="M43.32,36.2V35H41.23V36.2l1,.85Z" transform="translate(0)"/><path d="M46.26,35H47.5v2.1H46.26l-.85-1Z" transform="translate(0)"/><rect x="47.5" y="34.95" width="2.09" height="2.09"/><rect x="49.59" y="34.95" width="2.09" height="2.09"/><rect x="51.68" y="34.95" width="2.09" height="2.09"/><path d="M55.86,35.67a.71.71,0,0,0-.21-.51.69.69,0,0,0-.51-.21H53.77v2.1h2.09Z" transform="translate(0)"/><rect x="60.05" y="34.95" width="2.09" height="2.09"/><rect x="64.23" y="34.95" width="2.09" height="2.09"/><path d="M6.53,37.05H7.77v2.09H6.53l-.85-1Z" transform="translate(0)"/><path d="M9.86,37.05H7.77v2.09H9.14a.72.72,0,0,0,.72-.72Z" transform="translate(0)"/><path d="M16.14,37.89v1.25H14.05V37.89l1-.84Z" transform="translate(0)"/><path d="M22.41,38.29V37.05H20.32v1.24l1,.85Z" transform="translate(0)"/><path d="M25.35,37.05h1.24v2.09H25.35l-.85-1Z" transform="translate(0)"/><path d="M28.68,37.05H26.59v2.09H28a.72.72,0,0,0,.72-.72Z" transform="translate(0)"/><path d="M33.71,37.05H35v2.09H33.71l-.85-1Z" transform="translate(0)"/><path d="M37.05,37.05H35v2.09h1.38a.71.71,0,0,0,.51-.21.69.69,0,0,0,.21-.51Z" transform="translate(0)"/><path d="M41.23,38.42a.72.72,0,0,1-.72.72h-.65a.72.72,0,0,1-.72-.72v-.66a.72.72,0,0,1,.72-.71h.65a.72.72,0,0,1,.72.71Z" transform="translate(0)"/><path d="M45.41,38.42a.72.72,0,0,1-.72.72H44a.72.72,0,0,1-.72-.72v-.66a.72.72,0,0,1,.72-.71h.65a.72.72,0,0,1,.72.71Z" transform="translate(0)"/><path d="M55.86,37.05H53.77v1.37a.72.72,0,0,0,.72.72h1.37Z" transform="translate(0)"/><path d="M57.11,37.05H55.86v2.09h1.25l.84-1Z" transform="translate(0)"/><path d="M62.14,38.29V37.05H60.05v1.24l1,.85Z" transform="translate(0)"/><path d="M66.32,38.29V37.05H64.23v1.24l1,.85Z" transform="translate(0)"/><path d="M16.14,40.38V39.14H14.05v1.24l1,.85Z" transform="translate(0)"/><path d="M20.32,40.51a.72.72,0,0,1-.72.72H19a.72.72,0,0,1-.72-.72v-.65a.72.72,0,0,1,.72-.72h.65a.72.72,0,0,1,.72.72Z" transform="translate(0)"/><path d="M32.86,40.51a.72.72,0,0,1-.72.72h-.65a.72.72,0,0,1-.72-.72v-.65a.72.72,0,0,1,.72-.72h.65a.72.72,0,0,1,.72.72Z" transform="translate(0)"/><path d="M39.14,40.51a.72.72,0,0,1-.72.72h-.66a.72.72,0,0,1-.71-.72v-.65a.72.72,0,0,1,.71-.72h.66a.72.72,0,0,1,.72.72Z" transform="translate(0)"/><path d="M47.5,39.86v-.72H46.13a.72.72,0,0,0-.72.72v1.37H47.5Z" transform="translate(0)"/><path d="M48.74,39.14H47.5v2.09h1.24l.85-1Z" transform="translate(0)"/><path d="M60.05,40.51a.69.69,0,0,1-.21.51.71.71,0,0,1-.51.21h-.66a.71.71,0,0,1-.51-.21.69.69,0,0,1-.21-.51v-.65a.69.69,0,0,1,.21-.51.71.71,0,0,1,.51-.21h.66a.71.71,0,0,1,.51.21.69.69,0,0,1,.21.51Z" transform="translate(0)"/><path d="M7.77,42.08v1.24H5.68V42.08l1.05-.85Z" transform="translate(0)"/><path d="M14.05,42.6a.69.69,0,0,1-.21.51.71.71,0,0,1-.51.21h-.66a.71.71,0,0,1-.51-.21A.69.69,0,0,1,12,42.6V42a.69.69,0,0,1,.21-.51.71.71,0,0,1,.51-.21h.66a.71.71,0,0,1,.51.21.69.69,0,0,1,.21.51Z" transform="translate(0)"/><path d="M23.26,41.23H24.5v2.09H23.26l-.85-1Z" transform="translate(0)"/><path d="M26.59,42a.72.72,0,0,0-.72-.72H24.5v2.09h2.09Z" transform="translate(0)"/><path d="M42.08,41.23h1.24v2.09H42.08l-.85-1Z" transform="translate(0)"/><rect x="43.32" y="41.23" width="2.09" height="2.09"/><rect x="45.41" y="41.23" width="2.09" height="2.09"/><path d="M58,42.6a.72.72,0,0,1-.71.72h-.66a.72.72,0,0,1-.72-.72V42a.72.72,0,0,1,.72-.72h.66A.72.72,0,0,1,58,42Z" transform="translate(0)"/><path d="M60.89,41.23h1.25v2.09H60.89l-.84-1Z" transform="translate(0)"/><path d="M63.38,41.23H62.14v2.09h1.24l.85-1Z" transform="translate(0)"/><rect x="5.68" y="43.32" width="2.09" height="2.09"/><rect x="7.77" y="43.32" width="2.09" height="2.09"/><path d="M11.11,43.32H9.86v2.09h1.25l.84-1Z" transform="translate(0)"/><path d="M19.08,43.32h1.24v2.09H19.08l-.85-1Z" transform="translate(0)"/><path d="M22.41,44a.72.72,0,0,0-.72-.72H20.32v2.09h2.09Z" transform="translate(0)"/><rect x="24.5" y="43.32" width="2.09" height="2.09"/><path d="M28.68,44a.72.72,0,0,0-.72-.72H26.59v2.09h2.09Z" transform="translate(0)"/><path d="M35,44v-.72H33.58a.72.72,0,0,0-.72.72v1.37H35Z" transform="translate(0)"/><path d="M36.2,43.32H35v2.09H36.2l.85-1Z" transform="translate(0)"/><path d="M41.23,44.17v1.24H39.14V44.17l1-.85Z" transform="translate(0)"/><path d="M45.41,43.32H43.32v1.37a.72.72,0,0,0,.72.72h1.37Z" transform="translate(0)"/><rect x="45.41" y="43.32" width="2.09" height="2.09"/><path d="M51.68,44v-.72H50.31a.72.72,0,0,0-.72.72v1.37h2.09Z" transform="translate(0)"/><path d="M53.77,44a.72.72,0,0,0-.72-.72H51.68v2.09h2.09Z" transform="translate(0)"/><path d="M60.05,44.17v1.24H58V44.17l1-.85Z" transform="translate(0)"/><path d="M66.32,44.69a.72.72,0,0,1-.72.72H65a.72.72,0,0,1-.72-.72V44a.72.72,0,0,1,.72-.72h.65a.72.72,0,0,1,.72.72Z" transform="translate(0)"/><rect x="5.68" y="45.41" width="2.09" height="2.09"/><rect x="7.77" y="45.41" width="2.09" height="2.09"/><path d="M14.89,45.41h1.25V47.5H14.89l-.84-1Z" transform="translate(0)"/><path d="M18.23,46.13a.72.72,0,0,0-.72-.72H16.14V47.5h2.09Z" transform="translate(0)"/><path d="M22.41,45.41H20.32v1.37a.72.72,0,0,0,.72.72h1.37Z" transform="translate(0)"/><rect x="22.41" y="45.41" width="2.09" height="2.09"/><rect x="24.5" y="45.41" width="2.09" height="2.09"/><rect x="26.59" y="45.41" width="2.09" height="2.09"/><path d="M29.92,45.41H28.68V47.5h1.24l.85-1Z" transform="translate(0)"/><rect x="32.86" y="45.41" width="2.09" height="2.09"/><path d="M37.89,45.41h1.25V47.5H37.89l-.84-1Z" transform="translate(0)"/><path d="M41.23,45.41H39.14V47.5h1.37a.72.72,0,0,0,.72-.72Z" transform="translate(0)"/><rect x="45.41" y="45.41" width="2.09" height="2.09"/><rect x="49.59" y="45.41" width="2.09" height="2.09"/><rect x="51.68" y="45.41" width="2.09" height="2.09"/><rect x="53.77" y="45.41" width="2.09" height="2.09"/><rect x="55.86" y="45.41" width="2.09" height="2.09"/><rect x="57.95" y="45.41" width="2.09" height="2.09"/><path d="M62.14,46.13a.72.72,0,0,0-.72-.72H60.05V47.5h2.09Z" transform="translate(0)"/><path d="M7.77,47.5H5.68v1.37a.72.72,0,0,0,.72.72H7.77Z" transform="translate(0)"/><rect x="7.77" y="47.5" width="2.09" height="2.09"/><path d="M11.11,47.5H9.86v2.09h1.25l.84-1Z" transform="translate(0)"/><path d="M18.23,47.5H16.14v1.37a.72.72,0,0,0,.72.72h1.37Z" transform="translate(0)"/><path d="M19.47,47.5H18.23v2.09h1.24l.85-1Z" transform="translate(0)"/><path d="M26.59,47.5H24.5v1.37a.72.72,0,0,0,.72.72h1.37Z" transform="translate(0)"/><path d="M28.68,47.5H26.59v2.09H28a.72.72,0,0,0,.72-.72Z" transform="translate(0)"/><path d="M31.62,47.5h1.24v2.09H31.62l-.85-1Z" transform="translate(0)"/><rect x="32.86" y="47.5" width="2.09" height="2.09"/><path d="M43.32,48.35v1.24H41.23V48.35l1-.85Z" transform="translate(0)"/><path d="M47.5,47.5H45.41v1.37a.72.72,0,0,0,.72.72H47.5Z" transform="translate(0)"/><rect x="47.5" y="47.5" width="2.09" height="2.09"/><rect x="49.59" y="47.5" width="2.09" height="2.09"/><rect x="51.68" y="47.5" width="2.09" height="2.09"/><rect x="53.77" y="47.5" width="2.09" height="2.09"/><rect x="55.86" y="47.5" width="2.09" height="2.09"/><rect x="57.95" y="47.5" width="2.09" height="2.09"/><rect x="60.05" y="47.5" width="2.09" height="2.09"/><path d="M63.38,47.5H62.14v2.09h1.24l.85-1Z" transform="translate(0)"/><path d="M24.5,50.44v1.24H22.41V50.44l1-.85Z" transform="translate(0)"/><path d="M30.77,51a.72.72,0,0,1-.72.72H29.4a.72.72,0,0,1-.72-.72v-.65a.72.72,0,0,1,.72-.72h.65a.72.72,0,0,1,.72.72Z" transform="translate(0)"/><rect x="32.86" y="49.59" width="2.09" height="2.09"/><path d="M41.23,50.31v-.72H39.86a.72.72,0,0,0-.72.72v1.37h2.09Z" transform="translate(0)"/><rect x="41.23" y="49.59" width="2.09" height="2.09"/><path d="M44.56,49.59H43.32v2.09h1.24l.85-1Z" transform="translate(0)"/><rect x="47.5" y="49.59" width="2.09" height="2.09"/><rect x="55.86" y="49.59" width="2.09" height="2.09"/><rect x="57.95" y="49.59" width="2.09" height="2.09"/><rect x="22.41" y="51.68" width="2.09" height="2.09"/><rect x="32.86" y="51.68" width="2.09" height="2.09"/><path d="M37.89,51.68h1.25v2.09H37.89l-.84-1Z" transform="translate(0)"/><rect x="39.14" y="51.68" width="2.09" height="2.09"/><path d="M47.5,52.4v-.72H46.13a.72.72,0,0,0-.72.72v1.37H47.5Z" transform="translate(0)"/><rect x="47.5" y="51.68" width="2.09" height="2.09"/><path d="M53.77,53.05a.72.72,0,0,1-.72.72H52.4a.72.72,0,0,1-.72-.72V52.4a.72.72,0,0,1,.72-.72h.65a.72.72,0,0,1,.72.72Z" transform="translate(0)"/><rect x="55.86" y="51.68" width="2.09" height="2.09"/><path d="M60.05,51.68H58v2.09h1.38a.71.71,0,0,0,.51-.21.69.69,0,0,0,.21-.51Z" transform="translate(0)"/><rect x="22.41" y="53.77" width="2.09" height="2.09"/><rect x="24.5" y="53.77" width="2.09" height="2.09"/><path d="M27.83,53.77H26.59v2.09h1.24l.85-1Z" transform="translate(0)"/><path d="M32.86,54.49v-.72H31.49a.72.72,0,0,0-.72.72v1.37h2.09Z" transform="translate(0)"/><rect x="32.86" y="53.77" width="2.09" height="2.09"/><rect x="39.14" y="53.77" width="2.09" height="2.09"/><path d="M42.47,53.77H41.23v2.09h1.24l.85-1Z" transform="translate(0)"/><rect x="45.41" y="53.77" width="2.09" height="2.09"/><rect x="47.5" y="53.77" width="2.09" height="2.09"/><rect x="55.86" y="53.77" width="2.09" height="2.09"/><path d="M63,53.77h1.24v2.09H63l-.85-1Z" transform="translate(0)"/><path d="M65.47,53.77H64.23v2.09h1.24l.85-1Z" transform="translate(0)"/><rect x="22.41" y="55.86" width="2.09" height="2.09"/><path d="M29.53,55.86h1.24V58H29.53l-.85-1Z" transform="translate(0)"/><rect x="30.77" y="55.86" width="2.09" height="2.09"/><rect x="32.86" y="55.86" width="2.09" height="2.09"/><path d="M37.89,55.86h1.25V58H37.89l-.84-1Z" transform="translate(0)"/><rect x="39.14" y="55.86" width="2.09" height="2.09"/><rect x="45.41" y="55.86" width="2.09" height="2.09"/><rect x="47.5" y="55.86" width="2.09" height="2.09"/><rect x="49.59" y="55.86" width="2.09" height="2.09"/><rect x="51.68" y="55.86" width="2.09" height="2.09"/><rect x="53.77" y="55.86" width="2.09" height="2.09"/><rect x="55.86" y="55.86" width="2.09" height="2.09"/><path d="M59.2,55.86H58V58H59.2l.85-1Z" transform="translate(0)"/><path d="M24.5,59.2V58H22.41V59.2l1,.85Z" transform="translate(0)"/><path d="M32.86,58H30.77v1.38a.71.71,0,0,0,.21.51.69.69,0,0,0,.51.21h1.37Z" transform="translate(0)"/><rect x="32.86" y="57.95" width="2.09" height="2.09"/><path d="M36.2,58H35v2.1H36.2l.85-1Z" transform="translate(0)"/><rect x="39.14" y="57.95" width="2.09" height="2.09"/><rect x="41.23" y="57.95" width="2.09" height="2.09"/><rect x="43.32" y="57.95" width="2.09" height="2.09"/><rect x="45.41" y="57.95" width="2.09" height="2.09"/><rect x="47.5" y="57.95" width="2.09" height="2.09"/><rect x="49.59" y="57.95" width="2.09" height="2.09"/><rect x="53.77" y="57.95" width="2.09" height="2.09"/><path d="M64.23,58.8v1.25H62.14V58.8l1-.85Z" transform="translate(0)"/><path d="M28.68,61.42a.72.72,0,0,1-.72.72h-.65a.72.72,0,0,1-.72-.72v-.66a.72.72,0,0,1,.72-.71H28a.72.72,0,0,1,.72.71Z" transform="translate(0)"/><rect x="32.86" y="60.05" width="2.09" height="2.09"/><path d="M41.23,61.29V60.05H39.14v1.24l1,.85Z" transform="translate(0)"/><rect x="49.59" y="60.05" width="2.09" height="2.09"/><rect x="53.77" y="60.05" width="2.09" height="2.09"/><path d="M57.11,60.05H55.86v2.09h1.25l.84-1Z" transform="translate(0)"/><path d="M62.14,60.76v-.71H60.76a.72.72,0,0,0-.71.71v1.38h2.09Z" transform="translate(0)"/><rect x="62.14" y="60.05" width="2.09" height="2.09"/><path d="M66.32,60.76a.72.72,0,0,0-.72-.71H64.23v2.09h2.09Z" transform="translate(0)"/><path d="M30.77,63v1.24H28.68V63l1.05-.85Z" transform="translate(0)"/><path d="M35,63.38V62.14H32.86v1.24l1,.85Z" transform="translate(0)"/><path d="M39.14,63.51a.72.72,0,0,1-.72.72h-.66a.72.72,0,0,1-.71-.72v-.65a.72.72,0,0,1,.71-.72h.66a.72.72,0,0,1,.72.72Z" transform="translate(0)"/><path d="M51.68,63.38V62.14H49.59v1.24l1,.85Z" transform="translate(0)"/><path d="M55.86,63.38V62.14H53.77v1.24l1,.85Z" transform="translate(0)"/><path d="M60.05,62.86v-.72H58.67a.71.71,0,0,0-.51.21.69.69,0,0,0-.21.51v1.37h2.1Z" transform="translate(0)"/><path d="M62.14,62.14H60.05v2.09h1.37a.72.72,0,0,0,.72-.72Z" transform="translate(0)"/><path d="M66.32,63.38V62.14H64.23v1.24l1,.85Z" transform="translate(0)"/><path d="M24.5,65.6a.72.72,0,0,1-.72.72h-.65a.72.72,0,0,1-.72-.72V65a.72.72,0,0,1,.72-.72h.65a.72.72,0,0,1,.72.72Z" transform="translate(0)"/><path d="M30.77,64.23H28.68V65.6a.72.72,0,0,0,.72.72h1.37Z" transform="translate(0)"/><path d="M32,64.23H30.77v2.09H32l.85-1Z" transform="translate(0)"/><path d="M42.08,64.23h1.24v2.09H42.08l-.85-1Z" transform="translate(0)"/><rect x="43.32" y="64.23" width="2.09" height="2.09"/><rect x="45.41" y="64.23" width="2.09" height="2.09"/><path d="M48.74,64.23H47.5v2.09h1.24l.85-1Z" transform="translate(0)"/><path d="M53.77,65.6a.72.72,0,0,1-.72.72H52.4a.72.72,0,0,1-.72-.72V65a.72.72,0,0,1,.72-.72h.65a.72.72,0,0,1,.72.72Z" transform="translate(0)"/><path d="M56.71,64.23H58v2.09H56.71l-.85-1Z" transform="translate(0)"/><path d="M60.05,64.23H58v2.09h1.38a.71.71,0,0,0,.51-.21.69.69,0,0,0,.21-.51Z" transform="translate(0)"/><path class="cls-2" d="M13,8a5,5,0,1,0,5,5A5,5,0,0,0,13,8Z" transform="translate(0)"/><path d="M13,5.83A7.17,7.17,0,1,0,20.17,13,7.17,7.17,0,0,0,13,5.83ZM13,18a5,5,0,1,1,5-5A5,5,0,0,1,13,18Z" transform="translate(0)"/><path class="cls-2" d="M59,8a5,5,0,1,0,5,5A5,5,0,0,0,59,8Z" transform="translate(0)"/><path d="M59,5.83A7.17,7.17,0,1,0,66.17,13,7.17,7.17,0,0,0,59,5.83ZM59,18a5,5,0,1,1,5-5A5,5,0,0,1,59,18Z" transform="translate(0)"/><path class="cls-2" d="M13,54a5,5,0,1,0,5,5A5,5,0,0,0,13,54Z" transform="translate(0)"/><path d="M13,51.83A7.17,7.17,0,1,0,20.17,59,7.17,7.17,0,0,0,13,51.83ZM13,64a5,5,0,1,1,5-5A5,5,0,0,1,13,64Z" transform="translate(0)"/><circle cx="12.94" cy="12.94" r="3.07"/><circle cx="58.94" cy="12.94" r="3.07"/><circle cx="12.94" cy="58.94" r="3.07"/></svg>