<?xml version="1.0" encoding="UTF-8" standalone="no"?>
<svg
   id="Layer_1"
   data-name="Layer 1"
   viewBox="0 0 474.29001 599.59003"
   version="1.1"
   width="474.29001"
   height="599.59003"
   xmlns="http://www.w3.org/2000/svg"
   xmlns:svg="http://www.w3.org/2000/svg">
  <defs
     id="defs31" />
  <path
     d="m 449.5,131.1 c -28.64,25.79 -57.27,51.59 -86.18,77.67 -25.52,21.83 -51.32,43.38 -76.83,64.92 -8.5,33.74 -16.73,67.47 -25.23,101.21 -8.22,33.17 -16.16,66.62 -24.38,99.79 q -14,-57.84 -28.07,-115.67 c -7.65,-28.35 -15.31,-56.7 -23,-85.33 C 158.6,251.3 131.38,228.33 103.88,205.37 L 25.64,134.78 q 63.36,18.7 128.42,36.86 c 27.5,7.65 54.71,15.3 81.93,22.67 2.55,-0.85 76.54,-22.39 117.65,-34.3 0,0 35.43,-10.49 69.74,-20.69 l 13,-4 c 4.33,-1.39 8.87,-2.81 13.12,-4.22 z"
     style="fill:#f1b533"
     id="path4" />
  <path
     d="m 25.96,134.78 211.2,110.85 Q 311.57,206.07 386,166.82 c 21.26,-11.91 42.24,-23.53 63.5,-35.44"
     style="fill:none;stroke:#d0d2d3;stroke-width:2px;stroke-miterlimit:10"
     id="path6" />
  <path
     d="m 236.88,474.97 c 0.28,-48.19 0.57,-96.39 0.28,-144.58 0,-28.35 0,-56.7 -0.28,-85.05"
     style="fill:none;stroke:#d0d2d3;stroke-width:2px;stroke-miterlimit:10"
     id="path8" />
  <path
     d="m 290.74,317.92 c 1.14,-5.39 2.55,-11.06 4,-16.73 1.7,-6.8 3.4,-13.32 5.1,-19.84 5.11,-4.54 10.21,-8.79 15,-13.33 4.25,-3.4 8.22,-6.8 12.47,-10.2 23.25,17 47.06,35.15 71.44,54.71 21,17 40.83,33.74 59.54,50.46 -26.94,-5.67 -55.29,-12.19 -84.77,-20.41 -29.48,-7.94 -56.98,-16.16 -82.78,-24.66 z"
     style="fill:#e55d35"
     id="path10" />
  <path
     d="m 182.16,316.22 c -27.78,9.63 -57.26,19 -88.16,28.06 -26.93,7.94 -52.73,15 -78,21.26 19,-18.14 39.69,-37.13 62.08,-56.13 22.39,-19 44.29,-36.25 65.29,-52.16 4.53,3.69 9.35,7.65 13.89,11.34 5.67,4.54 11,9.35 16.44,13.89 1.7,6.24 3.4,12.47 4.82,18.43 1.38,5.38 2.51,10.25 3.64,15.31 z"
     style="fill:#e55d35"
     id="path12" />
  <path
     d="m 274.87,170.22 -17.86,5.1 c -7.37,2 -14.46,4 -21.55,5.95 -6.8,-1.7 -13.32,-3.68 -20.13,-5.38 -5.38,-1.7 -10.77,-3.12 -15.87,-4.82 4.82,-26.65 10.49,-54.43 17.29,-83.35 6,-24.95 12.19,-49 19,-71.72 7.94,24.1 15.31,49.89 22.4,77.11 6.51,26.65 12.22,52.44 16.72,77.11 z"
     style="fill:#e55d35"
     id="path14" />
  <path
     d="m 54.03,522.88 c 17.57,0 24.38,5.1 24.38,16.44 0,7.09 -3.4,11.91 -9.64,14.46 7.37,1.7 10.77,6 10.77,13 0,11.06 -7.94,15.31 -24.1,15.31 H 37.3 V 522.6 h 16.73 z m 14.45,16.44 c 0,-7.93 -2.83,-10.77 -14.45,-10.77 h -7.09 v 23 h 7.37 c 11.34,-0.04 14.17,-4 14.17,-12.23 z m 1.42,27.84 c 0,-7.37 -3.68,-9.93 -14.46,-9.93 h -8.22 v 19.56 h 8.51 c 10.49,-0.05 14.17,-2.31 14.17,-9.63 z"
     style="fill:#e55d35"
     id="path16" />
  <path
     d="m 143.04,522.88 v 5.95 h -26.08 v 23.82 h 21.26 v 5.67 h -21.26 v 18.14 h 26.08 v 6 h -35.67 v -59.58 z"
     style="fill:#e55d35"
     id="path18" />
  <path
     d="m 177.91,522.88 h 22.11 l 11.91,59.53 h -9.92 l -2.84,-14.74 h -20.69 l -2.84,14.74 h -9.92 z M 198.37,562 192.14,528.83 H 185.9 L 179.66,562 Z"
     style="fill:#e55d35"
     id="path20" />
  <path
     d="M 276.57,538.76 276,554.07 h -9.07 v -15.31 c 0,-8.51 -2,-11.06 -10.21,-11.06 -8.21,0 -10.49,2.55 -10.49,11.06 v 25.51 c 0,9.64 5.11,12.19 17.3,12.19 H 276 v 5.7 l -12.47,0.28 c -19,0 -27.22,-4.25 -27.22,-18.42 v -25.55 c 0,-11.62 5.39,-17 20.41,-17 15.31,0.28 19.85,5.69 19.85,17.29 z"
     style="fill:#e55d35"
     id="path22" />
  <path
     d="m 304.37,540.16 c 0,-12.75 6.24,-18.42 21.83,-18.42 15.31,0 21.83,5.67 21.83,18.42 v 25 c 0,12.76 -6.24,18.43 -21.83,18.43 -15.59,0 -21.83,-5.71 -21.83,-18.43 z m 21.83,37.43 c 8.79,0 11.91,-3.12 11.91,-12.48 v -24.95 c 0,-9.35 -3.12,-12.47 -11.91,-12.47 -8.79,0 -11.93,3.13 -11.93,12.47 v 25 c -0.28,9.32 3.1,12.44 11.91,12.44 z"
     style="fill:#e55d35"
     id="path24" />
  <path
     d="m 423.13,522.88 v 59.53 h -15.87 l -15.31,-40 -4.25,-13.25 h -2.27 l 1.42,19.28 v 34 h -9.36 v -59.56 h 15.59 l 14.74,38 4.82,15.28 h 2.27 l -1.13,-20.7 v -32.6 z"
     style="fill:#e55d35"
     id="path26" />
</svg>
