<?xml version="1.0" encoding="UTF-8" standalone="no"?>
<svg
   xmlns:dc="http://purl.org/dc/elements/1.1/"
   xmlns:cc="http://creativecommons.org/ns#"
   xmlns:rdf="http://www.w3.org/1999/02/22-rdf-syntax-ns#"
   xmlns:svg="http://www.w3.org/2000/svg"
   xmlns="http://www.w3.org/2000/svg"
   height="512"
   width="512"
   version="1.1"
   viewBox="0 0 511.99999 512.00001"
   data-name="Layer 1"
   id="Layer_1">
  <metadata
     id="metadata33">
    <rdf:RDF>
      <cc:Work
         rdf:about="">
        <dc:format>image/svg+xml</dc:format>
        <dc:type
           rdf:resource="http://purl.org/dc/dcmitype/StillImage" />
        <dc:title></dc:title>
      </cc:Work>
    </rdf:RDF>
  </metadata>
  <defs
     id="defs4">
    <style
       id="style2">.cls-1,.cls-3{fill:#222333;}.cls-2{fill:#e62fac;}.cls-3{stroke:#019def;stroke-miterlimit:10;stroke-width:8px;}.cls-4{fill:#7d3ecf;}.cls-5{fill:#f2f2f2;}</style>
  </defs>
  <g
     transform="translate(40.446168,33.662581)"
     id="g857">
    <path
       class="cls-2"
       d="m 97.77,340.87001 c -64.32,-51.83 -73.63,-137.86 -23.41,-197.22 -3.07,2.62 -6.07,5.33 -8.94,8.21 -59.17,59.34 -52.31,151.62 15.33,206.09 67.64,54.47 170.42,50.52 229.59,-8.83 2.87,-2.87 5.54,-5.85 8.1,-8.88 -60.15,51.36 -156.31,52.46 -220.67,0.63 z"
       id="path18"
       style="fill:#e62fac" />
    <circle
       class="cls-3"
       cx="253.62"
       cy="239.13"
       r="148.32001"
       id="circle20"
       style="fill:#222333;stroke:#019def;stroke-width:8px;stroke-miterlimit:10" />
    <path
       class="cls-4"
       d="m 173.39,49.920007 a 29,29 0 0 0 -29.89,6.79 l -29,28.46 -59.56,-26.15 -11.49,11.3 48.11,37.450003 -26.4,25.95 -17.04,-5.85 -11.49,11.3 28.34,17.34 16.85,28.63 11.49,-11.27 -5.55,-17.14 26.4,-25.95 36.62,48.75 11.49,-11.3 -25.13,-60 29,-28.470003 a 29,29 0 0 0 7.25,-29.84 z"
       id="path22"
       style="fill:#7d3ecf" />
    <path
       class="cls-4"
       d="m 103.45,56.590007 a 8.06,8.06 0 0 0 -11.4,-0.1 l -7,6.91 15.9,7 2.43,-2.39 a 8.05,8.05 0 0 0 0.07,-11.42 z"
       id="path24"
       style="fill:#7d3ecf" />
    <circle
       class="cls-4"
       cx="165.41"
       cy="119.37001"
       r="9.5"
       id="circle26"
       style="fill:#7d3ecf" />
    <path
       class="cls-5"
       d="m 310.92,296.34001 -19.61,-32.92 h -61.86 l 10.77,-18.55 h 40.12 l -29.14,-48.93 -59.37,100.4 h -26.09 l 75.2,-125.21 c 2.7,-4.5 6.12,-7.38 11.16,-7.38 5.04,0 8.27,2.88 11,7.38 l 75.35,125.21 z"
       id="path28"
       style="fill:#f2f2f2" />
  </g>
</svg>
