<?xml version="1.0" encoding="UTF-8" standalone="no"?>
<svg
   version="1.1"
   id="ic_empty_multisend"
   inkscape:version="1.1 (c68e22c387, 2021-05-23)"
   sodipodi:docname="img-empty-multisend.svg"
   x="0px"
   y="0px"
   viewBox="0 0 100 100"
   style="enable-background:new 0 0 100 100;"
   xml:space="preserve"
   xmlns:inkscape="http://www.inkscape.org/namespaces/inkscape"
   xmlns:sodipodi="http://sodipodi.sourceforge.net/DTD/sodipodi-0.dtd"
   xmlns="http://www.w3.org/2000/svg"
   xmlns:svg="http://www.w3.org/2000/svg"
   xmlns:rdf="http://www.w3.org/1999/02/22-rdf-syntax-ns#"
   xmlns:cc="http://creativecommons.org/ns#"
   xmlns:dc="http://purl.org/dc/elements/1.1/"><metadata
   id="metadata39"><rdf:RDF><cc:Work
       rdf:about=""><dc:format>image/svg+xml</dc:format><dc:type
         rdf:resource="http://purl.org/dc/dcmitype/StillImage" /></cc:Work></rdf:RDF></metadata><defs
   id="defs37"><pattern
     id="EMFhbasepattern"
     patternUnits="userSpaceOnUse"
     width="6"
     height="6"
     x="0"
     y="0" /></defs>
<style
   type="text/css"
   id="style2">
	.st0{fill:#2EA1FF;}
	.st1{fill:#666666;}
	.st2{fill:#EFEFEF;}
</style>
<sodipodi:namedview
   bordercolor="#666666"
   borderopacity="1"
   gridtolerance="10"
   guidetolerance="10"
   id="namedview25"
   inkscape:current-layer="ic_empty_multisend"
   inkscape:cx="27.194292"
   inkscape:cy="49.466766"
   inkscape:pageopacity="0"
   inkscape:pageshadow="2"
   inkscape:window-height="1387"
   inkscape:window-width="2560"
   inkscape:zoom="10.057258"
   objecttolerance="10"
   pagecolor="#ffffff"
   showgrid="false"
   inkscape:document-rotation="0"
   inkscape:window-x="2552"
   inkscape:window-y="-8"
   inkscape:window-maximized="1"
   inkscape:pagecheckerboard="0">
	</sodipodi:namedview>
<g
   id="Group_9031">
	<g
   id="Group_9029">
		<path
   id="Rectangle_4683"
   class="st0"
   d="M45,18h10v9H45V18z"
   style="fill:#009dff;fill-opacity:1" />
		<g
   id="Group_9028"
   style="fill:#009dff;fill-opacity:1">
			<path
   id="Rectangle_4684"
   class="st0"
   d="M14,66h6v10h-6V66z"
   style="fill:#009dff;fill-opacity:1" />
			<path
   id="Rectangle_4685"
   class="st0"
   d="M80,66h6v10h-6V66z"
   style="fill:#009dff;fill-opacity:1" />
			<path
   id="Rectangle_4686"
   class="st0"
   d="M47,66h6v10h-6V66z"
   style="fill:#009dff;fill-opacity:1" />
		</g>
	</g>
	<g
   id="Group_9030">
		<path
   id="Rectangle_4688"
   class="st1"
   d="M67,40h2v4h-2V40z" />
		<circle
   id="Ellipse_626"
   class="st1"
   cx="50"
   cy="73"
   r="1" />
		<circle
   id="Ellipse_627"
   class="st1"
   cx="83"
   cy="73"
   r="1" />
		<path
   id="Rectangle_4689"
   class="st1"
   d="M32,58h4v2h-4V58z" />
		<path
   id="Path_18986"
   class="st1"
   d="M16,65h-3v3H7v4h2v-2h4v7h8v-7h4v21H9V76H7v17h20V68h-6v-3h-3v-5h10v-2H16V65z M19,67v8h-4    v-8H19z" />
		<path
   id="Ellipse_628"
   style="fill:#666666"
   d="M 17 72 A 1 1 0 0 0 16 73 A 1 1 0 0 0 17 74 A 1 1 0 0 0 18 73 A 1 1 0 0 0 17 72 z " />
		
			<path
   id="Path_18987"
   inkscape:connector-curvature="0"
   sodipodi:nodetypes="cccccccccccccccccccscscccccccccccccccccccccccccccccccccccccccccccccccccccccccccccssscsccccccsscsscccccccccccccccc"
   class="st1"
   d="    M87,68v-3h-3v-7H51v-5h18v-5h-2v3H33V28h34v8h2v-8h4V17H59.5c2.3-2.6,2-6.6-0.8-8.7S52,6.8,50,9.7c-1.9-2.9-5.9-3.6-8.7-1.4    c-2.8,2.1-3.1,6.2-0.8,8.8H27v11h4v25h18v5h-9v2h9v5h-3v3h-6v16h2V70h4v7h8v-7h4v21H42v-3h-2v5h20V68h-6v-3h-3v-5h31v5h-3v3h-6v12    h2V70h4v7h8v-7h4v21H75v-7h-2v9h20V68H87z M71,19v7H56v-7H71z M51,13c0-3.6,4.3-5.3,6.8-2.8S58.5,17,55,17h-4V13z M51,19h3v7h-8    v-7H51z M45,9c2.2,0,4,1.8,4,4v4h-4C39.7,17,39.7,9,45,9z M29,26v-7h15v7H29z M52,67v3.2V75h-4v-8H52z M85,75h-4v-8h4V75z" />
	</g>
</g>
<rect
   x="33"
   y="28"
   class="st0"
   width="34"
   height="23"
   id="rect20"
   style="fill:#009dff;fill-opacity:1" /><path
   class="cls-1"
   d="m 60.265864,37.218397 a 4.2343772,4.2343772 0 0 0 -1.636321,-1.585386 4.3784792,4.3784792 0 0 0 -0.440222,-0.211137 4.5070095,4.5070095 0 0 0 -0.798903,-0.248621 5.1728866,5.1728866 0 0 0 -1.09264,-0.1119 q -1.293223,0 -2.344425,0.57852 -0.133808,0.07359 -0.259958,0.154397 l 0.288197,0.846399 a 3.4961852,3.4961852 0 0 1 0.444972,-0.29322 q 0.839546,-0.466346 1.872007,-0.466612 a 4.0736483,4.0736483 0 0 1 0.824761,0.08131 3.5748342,3.5748342 0 0 1 0.796522,0.261027 q 0.124307,0.05751 0.244388,0.124306 a 3.3782117,3.3782117 0 0 1 1.305894,1.293223 q 0.472154,0.827128 0.472418,1.847458 2.64e-4,1.020329 -0.472418,1.847459 a 3.3782117,3.3782117 0 0 1 -1.305894,1.293223 3.6400231,3.6400231 0 0 1 -1.375041,0.438636 4.3219996,4.3219996 0 0 1 -0.480075,0.02777 h -0.01102 c -0.166271,0 -0.491159,-0.04088 -0.664294,-0.06434 a 1.0783885,1.0783885 0 0 1 -0.329898,-0.09609 1.1543982,1.1543982 0 0 1 -0.582741,-0.663238 l -2.429669,-7.135673 h -0.858013 l -2.599644,7.486964 -1.721832,-4.999488 A 3.1509741,3.1509741 0 0 0 46.53139,36.599628 4.2127355,4.2127355 0 0 0 45.594984,35.787007 q -0.125893,-0.08097 -0.258382,-0.153863 a 4.481145,4.481145 0 0 0 -0.591445,-0.271847 4.59384,4.59384 0 0 0 -0.525204,-0.160459 5.1319785,5.1319785 0 0 0 -1.215369,-0.140137 q -1.293223,0 -2.344161,0.57852 -1.050937,0.578519 -1.641863,1.58565 -0.589604,1.007912 -0.589604,2.263399 0,1.255474 0.590661,2.263662 0.590133,1.007131 1.641865,1.585386 1.05173,0.578255 2.344159,0.578255 1.293222,0 2.332019,-0.57192 A 4.242031,4.242031 0 0 0 46.610563,42.284 l -0.363162,-1.077072 c -0.02137,0.0433 -0.04484,0.08605 -0.0692,0.128531 a 3.3782117,3.3782117 0 0 1 -1.306146,1.293227 q -0.833475,0.466612 -1.865407,0.466346 -1.031942,-2.64e-4 -1.8728,-0.466082 a 3.4046041,3.4046041 0 0 1 -1.31961,-1.293222 q -0.479283,-0.827129 -0.478754,-1.847458 5.18e-4,-1.02033 0.478754,-1.84746 a 3.4059235,3.4059235 0 0 1 1.31961,-1.293223 q 0.839799,-0.466346 1.871743,-0.466611 0.840856,0 1.549488,0.310101 0.161261,0.07052 0.316713,0.156519 0.136446,0.07658 0.262601,0.16258 c 0.02643,0.01819 0.05277,0.0369 0.07922,0.05564 0.521778,0.375557 0.906316,0.91211 1.118764,1.518869 l 1.006336,2.872009 0.972555,2.884151 h 0.957781 l 2.562161,-7.42494 2.134609,6.215905 a 1.8120938,1.8120938 0 0 0 1.376089,1.198743 l 0.01136,0.0022 a 5.1391046,5.1391046 0 0 0 0.680392,0.07625 q 0.131955,0.0067 0.263924,0.0067 0.103683,0 0.206124,-0.0033 1.171034,-0.04198 2.125641,-0.568231 a 4.2312101,4.2312101 0 0 0 1.636323,-1.58565 q 0.596986,-1.013464 0.596986,-2.269734 0,-1.256268 -0.597252,-2.269468 z"
   id="path8"
   style="fill:#ffffff;fill-opacity:1;stroke-width:0.0263924" />

</svg>
