<?xml version="1.0" encoding="UTF-8" standalone="no"?>
<svg
   id="Layer_1"
   data-name="Layer 1"
   viewBox="0 0 315.12966 457.19069"
   version="1.1"
   width="315.12967"
   height="457.1907"
   xmlns="http://www.w3.org/2000/svg"
   xmlns:svg="http://www.w3.org/2000/svg">
  <defs
     id="defs4">
    <style
       id="style2">.cls-1{fill:#f1f2f2;}.cls-2{fill:#00dd80;}</style>
  </defs>
  <path
     class="cls-1"
     d="m 266.56711,146.13071 a 293,293 0 0 0 -221.430004,0.46 13.74,13.74 0 0 0 -8,12.23 v 12.89 l 0.31,116.64 v 12.9 a 13.79,13.79 0 0 0 8.06,12.19 293.06,293.06 0 0 0 221.440004,-0.46 13.75,13.75 0 0 0 8,-12.23 v -12.66 l -0.24,-117.11 v -12.66 a 13.79,13.79 0 0 0 -8.14,-12.19 z"
     id="path6" />
  <path
     class="cls-2"
     d="m 32.037106,144.47071 c -8.77,0 -15.92,6.19 -16,13.89 -0.32,30.79 1.17,66.16 14.85,98.73 a 146.35,146.35 0 0 0 40.17,54.9 c 20.19,17.28 46.640004,31 78.610004,40.79 a 30.23,30.23 0 0 0 3.22,0.77 28.34,28.34 0 0 0 4.68,0.4 h 0.29 a 28.21,28.21 0 0 0 4.39,-0.4 28.86,28.86 0 0 0 3.24,-0.78 c 31.92,-9.8 58.34,-23.53 78.51,-40.81 a 146.52,146.52 0 0 0 40.18,-54.91 c 13.69,-32.57 15.22,-67.9 14.92,-98.69 -0.07,-7.69 -7.22,-13.89 -16,-13.89 z"
     id="path8" />
  <path
     class="cls-1"
     d="m 160.95711,16.070711 c -1.13,0 -2.26,0 -3.38,-0.05 -1.12,-0.05 -2.25,0 -3.39,0.05 -59.370004,2.11 -107.000004,48 -107.000004,104.179999 v 84.73 c 0,56.15 47.63,102.07 107.000004,104.18 1.14,0 2.26,0.06 3.39,0.07 1.13,0.01 2.25,0 3.38,-0.07 59.38,-2.11 107,-48 107,-104.18 v -84.73 c -0.01,-56.149999 -47.62,-102.069999 -107,-104.179999 z m -3.38,257.399999 c -39.81,-0.61 -72.000004,-31.12 -72.000004,-68.56 v -84.59 c 0,-37.439999 32.190004,-67.949999 72.000004,-68.559999 39.8,0.61 72,31.12 72,68.559999 v 49.81 a 9.89,9.89 0 0 0 -2.05,0.94 l -24,14.68 -21.23,13 a 23.67,23.67 0 1 0 0,21.33 l 21.23,13 14.42,8.83 c -12.83,18.68 -35.05,31.17 -60.37,31.56 z"
     id="path10" />
  <path
     class="cls-2"
     d="m 49.427106,410.69071 c 16.36,0.15 21.94,4.35 21.94,14.37 0,10.17 -8.18,16.13 -22,16.13 -10.24,0 -17.81,-2.75 -21.94,-8 a 4.35,4.35 0 0 1 -0.84,-2.53 3.39,3.39 0 0 1 3.44,-3.51 3.23,3.23 0 0 1 2.6,1.14 c 3.67,4 9.71,6.27 17.2,6.27 8.79,0 14.3,-3.59 14.3,-9.33 0,-4.89 -3.52,-7.18 -15.45,-7.34 -15.82,-0.23 -21.33,-4.2 -21.33,-13.61 0,-9.78 8.49,-16.13 21.72,-16.13 8.33,0 15,2.29 19.11,6.65 a 3.85,3.85 0 0 1 1,2.68 3.48,3.48 0 0 1 -3.52,3.59 4,4 0 0 1 -2.85,-1.21 q -5.16,-5.06 -14.22,-5.05 c -8.41,0 -13.92,3.67 -13.92,9.33 0.04,4.56 3.44,6.47 14.76,6.55 z"
     id="path12" />
  <path
     class="cls-2"
     d="m 139.94711,412.22071 v 24.64 c 0,2.44 -1.3,3.9 -3.59,3.9 -2.29,0 -3.65,-1.48 -3.65,-3.9 v -12.18 h -32.13 v 12.23 c 0,2.37 -1.300004,3.83 -3.600004,3.83 -2.3,0 -3.51,-1.46 -3.51,-3.83 v -24.69 c 0,-15.6 8.410004,-24.09 23.240004,-24.09 14.83,0 23.24,8.49 23.24,24.09 z m -7.26,-0.31 c 0,-11.32 -5.66,-17.13 -16.06,-17.13 -10.4,0 -16,5.81 -16,17.13 v 6.12 h 32.08 z"
     id="path14" />
  <path
     class="cls-2"
     d="m 214.26711,418.03071 c 0,13.76 -10.25,23.16 -25.23,23.16 -15.68,0 -26.53,-10.78 -26.53,-26.53 0,-15.75 10.85,-26.53 26.53,-26.53 8.94,0 16.21,3.36 20.57,8.87 a 4,4 0 0 1 0.84,2.45 3.35,3.35 0 0 1 -3.44,3.51 3.62,3.62 0 0 1 -2.76,-1.22 18.6,18.6 0 0 0 -15.14,-7 c -11.39,0 -19.19,8.11 -19.19,19.88 0,11.77 7.8,19.88 19.19,19.88 10,0 16.9,-5.66 18.05,-14.37 h -11.93 c -2.29,0 -3.59,-1.23 -3.59,-3.37 0,-2.14 1.3,-3.28 3.59,-3.28 h 15.14 a 3.57,3.57 0 0 1 3.9,3.89 z"
     id="path16" />
  <path
     class="cls-2"
     d="m 282.84711,412.22071 v 24.64 c 0,2.44 -1.3,3.9 -3.59,3.9 -2.29,0 -3.67,-1.46 -3.67,-3.9 v -12.18 h -32.12 v 12.23 c 0,2.37 -1.3,3.83 -3.59,3.83 -2.29,0 -3.52,-1.46 -3.52,-3.83 v -24.69 c 0,-15.6 8.41,-24.09 23.25,-24.09 14.84,0 23.24,8.49 23.24,24.09 z m -7.26,-0.31 c 0,-11.32 -5.66,-17.13 -16.06,-17.13 -10.4,0 -16.06,5.81 -16.06,17.13 v 6.12 h 32.12 z"
     id="path18" />
</svg>
