<?xml version="1.0" encoding="UTF-8" standalone="no"?>
<svg
   version="1.1"
   id="ic_empty_zpiv"
   x="0px"
   y="0px"
   viewBox="0 0 100 100"
   style="enable-background:new 0 0 100 100;"
   xml:space="preserve"
   sodipodi:docname="img-empty-privacy.svg"
   inkscape:version="1.1 (c68e22c387, 2021-05-23)"
   xmlns:inkscape="http://www.inkscape.org/namespaces/inkscape"
   xmlns:sodipodi="http://sodipodi.sourceforge.net/DTD/sodipodi-0.dtd"
   xmlns="http://www.w3.org/2000/svg"
   xmlns:svg="http://www.w3.org/2000/svg"
   xmlns:rdf="http://www.w3.org/1999/02/22-rdf-syntax-ns#"
   xmlns:cc="http://creativecommons.org/ns#"
   xmlns:dc="http://purl.org/dc/elements/1.1/"><sodipodi:namedview
   pagecolor="#ffffff"
   bordercolor="#666666"
   borderopacity="1"
   objecttolerance="10"
   gridtolerance="10"
   guidetolerance="10"
   inkscape:pageopacity="0"
   inkscape:pageshadow="2"
   inkscape:window-width="2560"
   inkscape:window-height="1387"
   id="namedview23"
   showgrid="false"
   inkscape:zoom="3.675"
   inkscape:cx="255.91837"
   inkscape:cy="49.931973"
   inkscape:window-x="2552"
   inkscape:window-y="-8"
   inkscape:window-maximized="1"
   inkscape:current-layer="Group_9086"
   inkscape:document-rotation="0"
   inkscape:pagecheckerboard="0" /><metadata
   id="metadata33"><rdf:RDF><cc:Work
       rdf:about=""><dc:format>image/svg+xml</dc:format><dc:type
         rdf:resource="http://purl.org/dc/dcmitype/StillImage" /><dc:title /></cc:Work></rdf:RDF></metadata><defs
   id="defs31"><pattern
     id="EMFhbasepattern"
     patternUnits="userSpaceOnUse"
     width="6"
     height="6"
     x="0"
     y="0" /><pattern
     id="EMFhbasepattern-1"
     patternUnits="userSpaceOnUse"
     width="6"
     height="6"
     x="0"
     y="0" /><pattern
     id="EMFhbasepattern-5"
     patternUnits="userSpaceOnUse"
     width="6"
     height="6"
     x="0"
     y="0" /></defs>
<style
   type="text/css"
   id="style2">
	.st0{fill:#2EA1FF;}
	.st1{fill:#666666;}
	.st2{fill:#EFEFEF;}
</style>

<g
   id="Group_9086">
	
	<g
   id="Group_9085">
		<g
   id="Group_9083">
			<path
   id="Rectangle_4749"
   class="st1"
   d="M83,56h2v4h-2V56z" />
			<path
   id="Rectangle_4750"
   class="st1"
   d="M83,44h2v8h-2V44z" />
			<path
   id="Rectangle_4751"
   class="st1"
   d="M15,48h2v8h-2V48z" />
			<path
   id="Rectangle_4752"
   class="st1"
   d="M15,40h2v4h-2V40z" />
			<path
   id="Path_19033"
   class="st1"
   d="M95.2,71H85v-7h-2v9h7.8L76,90.5L61.2,73H68v-2h-4.5c11.6-7.5,15-22.9,7.5-34.5     c-6.4-9.9-18.9-14-29.9-9.8L24,6.5L4.8,29H15v7h2v-9H9.2L24,9.5L38.8,27H32v2h4.5c-11.6,7.5-15,22.9-7.5,34.5     c6.4,9.9,18.9,14,29.9,9.8L76,93.5L95.2,71z M27,50c0-12.7,10.3-23,23-23s23,10.3,23,23S62.7,73,50,73S27,62.7,27,50z" />
		</g>
	</g>
<path
   id="path913"
   d="m 52.830933,49.498403 c 0.633699,-0.374231 0.608126,-1.231221 -0.0474,-1.589235 -0.249488,-0.137218 -0.269447,-0.179631 -0.19959,-0.453444 a 0.57506864,0.57506864 0 0 0 -0.295019,-0.671745 c -0.361133,-0.198342 -0.704179,-0.0867 -0.885681,0.288158 -0.08295,0.170899 -0.218301,0.23639 -0.365499,0.175265 a 0.24948748,0.24948748 0 0 1 -0.119754,-0.374231 1.6528546,1.6528546 0 0 1 0.31872,-0.443464 c 0.127863,-0.11414 0.100419,-0.191481 0.0069,-0.280049 -0.220172,-0.207075 -0.498975,-0.244498 -0.793994,-0.263834 v 2.960793 c 0.326829,0.0237 0.523924,-0.06861 0.681725,-0.316225 0.05613,-0.08732 0.09293,-0.187116 0.161543,-0.265081 a 2.2453873,2.2453873 0 0 1 0.374231,-0.35053 c 0.116012,-0.07984 0.243874,-0.02682 0.321839,0.08483 0.07796,0.111646 0.05614,0.223291 -0.03555,0.3287 a 2.7755482,2.7755482 0 0 0 -0.329323,0.415397 c -0.219549,0.382339 -0.548249,0.584424 -0.991089,0.623718 -0.05801,0.005 -0.115388,0.01248 -0.187116,0.02058 v 4.061032 0 l -0.02744,2.860374 v 0.196472 l 0.09792,-0.0842 h 0.366123 l 0.505836,-3.64127 0.01123,-0.04491 a 5.40577,5.40577 0 0 1 -0.471531,-0.338055 c -0.137219,-0.124744 -0.130981,-0.290653 -0.01559,-0.394191 0.115388,-0.103537 0.256348,-0.08919 0.390448,0.03493 0.187115,0.174641 0.354895,0.210817 0.558228,0.119754 a 0.51269677,0.51269677 0 0 0 0.298761,-0.538893 c -0.03119,-0.005 -0.06237,-0.0131 -0.09855,-0.01559 -0.503964,-0.03555 -0.851376,-0.264457 -1.005434,-0.748463 A 0.65677579,0.65677579 0 0 0 50.896158,50.61486 c -0.14096,-0.144703 -0.169652,-0.270071 -0.06674,-0.389825 a 0.26570417,0.26570417 0 0 1 0.416644,0.0062 2.3626464,2.3626464 0 0 1 0.339927,0.530161 c 0.07422,0.153434 0.170899,0.26009 0.336808,0.297513 a 0.92996458,0.92996458 0 0 0 0.742849,-0.124743 c 0.324334,-0.215807 0.352401,-0.60875 0.07921,-0.967388 -0.154058,-0.208322 -0.130357,-0.339927 0.08607,-0.468413 z"
   class="cls-4"
   inkscape:connector-curvature="0"
   style="fill:#ffffff;stroke-width:0.06237187" /><path
   id="path915"
   d="m 46.772754,49.425428 c -0.729128,-0.366746 -0.699189,-1.206272 0.05489,-1.559297 0.288782,-0.134099 0.311859,-0.175888 0.229528,-0.444087 -0.08233,-0.268199 0.04803,-0.520805 0.339927,-0.658024 0.415397,-0.1946 0.810834,-0.08545 1.01978,0.281921 0.09543,0.167781 0.249488,0.2314 0.420387,0.172147 0.170898,-0.05925 0.23826,-0.210194 0.137841,-0.367371 a 1.6360142,1.6360142 0 0 0 -0.36737,-0.436603 c -0.146574,-0.112269 -0.115388,-0.187115 -0.0075,-0.274436 0.253854,-0.203332 0.575693,-0.240132 0.914372,-0.258843 v 2.907776 c -0.374231,0.0237 -0.60376,-0.06674 -0.785262,-0.30874 -0.06237,-0.08607 -0.106656,-0.187116 -0.187115,-0.260091 a 2.481153,2.481153 0 0 0 -0.432237,-0.343669 0.28566316,0.28566316 0 0 0 -0.370489,0.08295 c -0.09044,0.110399 -0.06237,0.218926 0.04117,0.322463 a 2.8217034,2.8217034 0 0 1 0.378597,0.406665 c 0.25323,0.374231 0.631204,0.573197 1.141406,0.611868 0.06674,0.005 0.132852,0.01247 0.21643,0.02058 v 3.978702 0 l 0.03119,2.801744 v 0.192729 l -0.112893,-0.08295 h -0.421634 l -0.583801,-3.5658 c -0.0044,-0.01497 -0.0087,-0.02932 -0.01372,-0.04366 a 6.1748151,6.1748151 0 0 0 0.543259,-0.331819 c 0.157801,-0.11913 0.150317,-0.284415 0.01809,-0.386081 -0.132228,-0.101667 -0.295019,-0.08732 -0.449077,0.0343 -0.218302,0.171523 -0.40916,0.206451 -0.643054,0.117259 -0.233895,-0.08919 -0.369242,-0.287534 -0.343669,-0.527666 0.03618,-0.005 0.07422,-0.0131 0.113517,-0.01559 0.579434,-0.03493 0.979862,-0.258843 1.156998,-0.732869 A 0.6336982,0.6336982 0 0 1 48.99943,50.52317 c 0.162167,-0.141584 0.195224,-0.264457 0.07672,-0.381716 a 0.34055041,0.34055041 0 0 0 -0.47964,0.0062 2.2765733,2.2765733 0 0 0 -0.391072,0.519558 0.53764552,0.53764552 0 0 1 -0.387953,0.291277 1.2293496,1.2293496 0 0 1 -0.855118,-0.124744 c -0.374231,-0.211441 -0.405417,-0.596275 -0.09106,-0.947429 0.176513,-0.205827 0.15094,-0.33556 -0.09855,-0.460928 z"
   class="cls-4"
   inkscape:connector-curvature="0"
   style="fill:#ffffff;stroke-width:0.06237187" /><path
   class="cls-1"
   d="m 63.972817,46.683301 a 5.6687321,5.6687321 0 0 0 -2.190609,-2.122421 5.8616471,5.8616471 0 0 0 -0.589344,-0.282656 6.0337159,6.0337159 0 0 0 -1.069523,-0.33284 6.9251525,6.9251525 0 0 0 -1.462762,-0.149805 q -1.731289,0 -3.138576,0.774488 -0.179134,0.09853 -0.348016,0.206698 l 0.385821,1.133108 a 4.6804846,4.6804846 0 0 1 0.595702,-0.392545 q 1.123934,-0.624317 2.50613,-0.624672 a 5.4535578,5.4535578 0 0 1 1.104142,0.108846 4.7857752,4.7857752 0 0 1 1.066337,0.349448 q 0.166413,0.077 0.327172,0.166414 a 4.5225486,4.5225486 0 0 1 1.748253,1.731289 q 0.632091,1.107311 0.632444,2.473267 3.54e-4,1.365956 -0.632444,2.47327 a 4.5225486,4.5225486 0 0 1 -1.748253,1.731288 4.8730463,4.8730463 0 0 1 -1.840824,0.587221 5.7860357,5.7860357 0 0 1 -0.642696,0.03717 h -0.01475 c -0.222592,0 -0.657534,-0.05473 -0.889317,-0.08613 A 1.4436824,1.4436824 0 0 1 57.330058,54.336104 1.5454396,1.5454396 0 0 1 56.54992,53.448201 l -3.252696,-9.552815 h -1.148657 l -3.480249,10.023102 -2.305087,-6.693017 a 4.2183365,4.2183365 0 0 0 -0.777305,-1.370544 5.6397594,5.6397594 0 0 0 -1.253604,-1.087888 q -0.168537,-0.108397 -0.345907,-0.205983 a 5.99909,5.99909 0 0 0 -0.79179,-0.363933 6.1499595,6.1499595 0 0 0 -0.703112,-0.214814 6.8703872,6.8703872 0 0 0 -1.627064,-0.187607 q -1.731288,0 -3.138223,0.774488 -1.406931,0.774488 -2.198029,2.122774 -0.789328,1.349332 -0.789328,3.030103 0,1.680755 0.790743,3.030457 0.790035,1.348287 2.198032,2.12242 1.407993,0.774134 3.13822,0.774134 1.731289,0 3.121967,-0.765653 a 5.6789786,5.6789786 0 0 0 1.704088,-1.418601 l -0.486178,-1.44192 c -0.02862,0.05798 -0.06002,0.115202 -0.09265,0.172071 a 4.5225486,4.5225486 0 0 1 -1.748589,1.731295 q -1.115808,0.624673 -2.497296,0.624317 -1.381503,-3.54e-4 -2.507195,-0.623963 a 4.5578813,4.5578813 0 0 1 -1.766614,-1.73129 q -0.641636,-1.107311 -0.640927,-2.473267 6.92e-4,-1.365956 0.640927,-2.473269 a 4.5596475,4.5596475 0 0 1 1.766614,-1.731289 q 1.124274,-0.624315 2.505779,-0.624672 1.125689,0 2.074363,0.415146 0.215887,0.0944 0.423996,0.209537 0.182666,0.10252 0.351554,0.217654 c 0.03538,0.02435 0.07064,0.0494 0.106056,0.0745 0.698525,0.502774 1.213324,1.221079 1.497736,2.033373 l 1.347223,3.844873 1.301999,3.86113 h 1.28222 l 3.430068,-9.940068 2.857688,8.321484 a 2.4259233,2.4259233 0 0 0 1.842226,1.604806 l 0.0152,0.0029 a 6.8799271,6.8799271 0 0 0 0.91087,0.102073 q 0.176652,0.0091 0.353324,0.0091 0.138805,0 0.275947,-0.0045 1.56771,-0.0562 2.845683,-0.760714 a 5.6644922,5.6644922 0 0 0 2.19061,-2.122774 q 0.799211,-1.356766 0.799211,-3.038585 0,-1.681816 -0.799566,-3.038229 z"
   id="path8"
   style="fill:#ececec;fill-opacity:1;stroke-width:0.0353327" /></g>


</svg>
