<?xml version="1.0" encoding="utf-8"?>
<!-- Generator: Adobe Illustrator 27.0.1, SVG Export Plug-In . SVG Version: 6.00 Build 0)  -->
<svg version="1.1" id="Layer_1" xmlns="http://www.w3.org/2000/svg" xmlns:xlink="http://www.w3.org/1999/xlink" x="0px" y="0px"
	 viewBox="0 0 326.9 266.8" style="enable-background:new 0 0 326.9 266.8;" xml:space="preserve">
<style type="text/css">
	.st0{fill:#FFFFFF;}
</style>
<path class="st0" d="M119.9,32.1C100.1,31.7,84.2,48,84.6,67.4c0,4.1,2.1,7.1,5.6,9.2c13.8,7.7,27.8,15.4,41.7,23.2
	c21.8,12.1,43.6,24.1,65.3,36.5c11.8,6.6,18.4,17,20.2,30.3c0.3,2.5,0.5,2.7,2.9,1.5c6.7-3.7,13.3-7.4,20-11.1
	c4.1-2.3,8-4.9,11.1-8.5c14.4-17,10.4-41.4-8.6-52.6c-11.4-6.7-23-12.9-34.6-19.3c-23-12.8-46.1-25.5-69.1-38.4
	C132.6,34.5,126.3,31.8,119.9,32.1z M206.8,172.5c-0.7-12.1-5.5-20.4-14.7-26c-3.3-2.1-6.9-3.8-10.3-5.8
	c-16.3-9-32.5-18.1-48.8-27.1c-3.7-2.1-7.5-4.3-11.5-5.3c-20.3-5.2-35.8,10-36.9,25.9c-0.3,4.4,0.8,7,4.9,9.2
	c19.3,10.6,38.5,21.3,57.9,31.9c8.2,4.7,13.8,11.5,17,20.4c0.8,2.5,1.1,2.5,3.4,1.2c11.8-6.6,23.4-13.2,35.4-19.6
	C205.8,176,207.2,174.3,206.8,172.5z M84.6,198.4c0.1,1.8,0.3,3.4,0.5,5.2c3.7,17.7,22.6,26.3,38.7,17.7
	c9.6-5.2,19.2-10.7,28.8-15.9c1.5-0.8,1.8-1.8,1.4-3.4c-1.8-7.1-6-12.5-12.1-16.2c-6.3-3.8-12.8-7.3-19.2-10.7
	C105.5,166.3,84.9,178.9,84.6,198.4z"/>
</svg>
