<?xml version="1.0" encoding="utf-8"?>
<!DOCTYPE svg PUBLIC "-//W3C//DTD SVG 1.1//EN" "http://www.w3.org/Graphics/SVG/1.1/DTD/svg11.dtd">
<svg version="1.1" id="Layer_1" xmlns="http://www.w3.org/2000/svg" xmlns:xlink="http://www.w3.org/1999/xlink" x="0px" y="0px"
width="1160px" height="1160px" viewBox="0 0 1160 1160" enable-background="new 0 0 1160 1160" xml:space="preserve">
<rect x="0" y="0" width="1160" height="1160" fill="rgb(255,255,255)" /><g transform="translate(80,80)"><g transform="translate(320,0) scale(0.4,0.4)"><g transform="" style="fill: rgb(0, 0, 0);">
<g>
	<path d="M100,34.375V0H34.375C24.87,0,16.764,3.353,10.059,10.059S0,24.87,0,34.375v31.25c0,9.505,3.353,17.611,10.059,24.316
		C16.765,96.646,24.87,100,34.375,100H100V34.375z"/>
</g>
</g></g><g transform="translate(360,0) scale(0.4,0.4)"><g transform="" style="fill: rgb(0, 0, 0);">
<g>
	<path d="M65.625,0H0v100h65.625c9.505,0,17.611-3.354,24.316-10.059C96.646,83.236,100,75.13,100,65.625v-31.25
		c0-9.505-3.354-17.611-10.059-24.316C83.236,3.354,75.13,0,65.625,0z"/>
</g>
</g></g><g transform="translate(440,0) scale(0.4,0.4)"><g transform="" style="fill: rgb(0, 0, 0);">
<g>
	<path d="M100,34.375V0H34.375C24.87,0,16.764,3.353,10.059,10.059S0,24.87,0,34.375V100h100V34.375z"/>
</g>
</g></g><g transform="translate(480,0) scale(0.4,0.4)"><g transform="" style="fill: rgb(0, 0, 0);">
<rect width="100" height="100"/>
</g></g><g transform="translate(520,0) scale(0.4,0.4)"><g transform="" style="fill: rgb(0, 0, 0);">
<rect width="100" height="100"/>
</g></g><g transform="translate(560,0) scale(0.4,0.4)"><g transform="" style="fill: rgb(0, 0, 0);">
<g>
	<path d="M65.625,0H0v100h65.625c9.505,0,17.611-3.354,24.316-10.059C96.646,83.236,100,75.13,100,65.625v-31.25
		c0-9.505-3.354-17.611-10.059-24.316C83.236,3.354,75.13,0,65.625,0z"/>
</g>
</g></g><g transform="translate(440,40) scale(0.4,0.4)"><g transform="" style="fill: rgb(0, 0, 0);">
<rect width="100" height="100"/>
</g></g><g transform="translate(520,40) scale(0.4,0.4)"><g transform="" style="fill: rgb(0, 0, 0);">
<rect width="100" height="100"/>
</g></g><g transform="translate(320,80) scale(0.4,0.4)"><g transform="" style="fill: rgb(0, 0, 0);">
<g>
	<path d="M100,65.625c0,9.507-3.355,17.611-10.059,24.316C83.236,96.645,75.132,100,65.625,100h-31.25
		c-9.504,0-17.61-3.355-24.315-10.059C3.354,83.236,0,75.132,0,65.625v-31.25c0-9.504,3.353-17.61,10.059-24.315
		C16.766,3.354,24.871,0,34.375,0h31.25c9.508,0,17.613,3.353,24.316,10.059C96.646,16.766,100,24.871,100,34.375V65.625z"/>
</g>
</g></g><g transform="translate(440,80) scale(0.4,0.4)"><g transform="" style="fill: rgb(0, 0, 0);">
<rect width="100" height="100"/>
</g></g><g transform="translate(520,80) scale(0.4,0.4)"><g transform="" style="fill: rgb(0, 0, 0);">
<rect width="100" height="100"/>
</g></g><g transform="translate(440,120) scale(0.4,0.4)"><g transform="" style="fill: rgb(0, 0, 0);">
<g>
	<path d="M100,0H0v65.625c0,9.505,3.353,17.611,10.059,24.316C16.765,96.646,24.87,100,34.375,100H100V0z"/>
</g>
</g></g><g transform="translate(480,120) scale(0.4,0.4)"><g transform="" style="fill: rgb(0, 0, 0);">
<rect width="100" height="100"/>
</g></g><g transform="translate(520,120) scale(0.4,0.4)"><g transform="" style="fill: rgb(0, 0, 0);">
<rect width="100" height="100"/>
</g></g><g transform="translate(560,120) scale(0.4,0.4)"><g transform="" style="fill: rgb(0, 0, 0);">
<rect width="100" height="100"/>
</g></g><g transform="translate(600,120) scale(0.4,0.4)"><g transform="" style="fill: rgb(0, 0, 0);">
<g>
	<path d="M65.625,0H0v100h65.625c9.505,0,17.611-3.354,24.316-10.059C96.646,83.236,100,75.13,100,65.625v-31.25
		c0-9.505-3.354-17.611-10.059-24.316C83.236,3.354,75.13,0,65.625,0z"/>
</g>
</g></g><g transform="translate(400,160) scale(0.4,0.4)"><g transform="" style="fill: rgb(0, 0, 0);">
<g>
	<path d="M100,65.625c0,9.507-3.355,17.611-10.059,24.316C83.236,96.645,75.132,100,65.625,100h-31.25
		c-9.504,0-17.61-3.355-24.315-10.059C3.354,83.236,0,75.132,0,65.625v-31.25c0-9.504,3.353-17.61,10.059-24.315
		C16.766,3.354,24.871,0,34.375,0h31.25c9.508,0,17.613,3.353,24.316,10.059C96.646,16.766,100,24.871,100,34.375V65.625z"/>
</g>
</g></g><g transform="translate(480,160) scale(0.4,0.4)"><g transform="" style="fill: rgb(0, 0, 0);">
<g>
	<path d="M99.805,32.031H100V0H0v32.031h0.195C0.065,33.073,0,33.854,0,34.375v31.25c0,9.505,3.353,17.611,10.059,24.316
		C16.765,96.646,24.87,100,34.375,100h31.25c9.505,0,17.611-3.354,24.316-10.059C96.646,83.236,100,75.13,100,65.625v-31.25
		C100,33.854,99.937,33.073,99.805,32.031z"/>
</g>
</g></g><g transform="translate(560,160) scale(0.4,0.4)"><g transform="" style="fill: rgb(0, 0, 0);">
<rect width="100" height="100"/>
</g></g><g transform="translate(640,160) scale(0.4,0.4)"><g transform="" style="fill: rgb(0, 0, 0);">
<g>
	<path d="M100,65.625c0,9.507-3.355,17.611-10.059,24.316C83.236,96.645,75.132,100,65.625,100h-31.25
		c-9.504,0-17.61-3.355-24.315-10.059C3.354,83.236,0,75.132,0,65.625v-31.25c0-9.504,3.353-17.61,10.059-24.315
		C16.766,3.354,24.871,0,34.375,0h31.25c9.508,0,17.613,3.353,24.316,10.059C96.646,16.766,100,24.871,100,34.375V65.625z"/>
</g>
</g></g><g transform="translate(320,200) scale(0.4,0.4)"><g transform="" style="fill: rgb(0, 0, 0);">
<g>
	<path d="M100,34.375V0H34.375C24.87,0,16.764,3.353,10.059,10.059S0,24.87,0,34.375V100h100V34.375z"/>
</g>
</g></g><g transform="translate(360,200) scale(0.4,0.4)"><g transform="" style="fill: rgb(0, 0, 0);">
<g>
	<path d="M65.625,0H0v100h65.625c9.505,0,17.611-3.354,24.316-10.059C96.646,83.236,100,75.13,100,65.625v-31.25
		c0-9.505-3.354-17.611-10.059-24.316C83.236,3.354,75.13,0,65.625,0z"/>
</g>
</g></g><g transform="translate(520,200) scale(0.4,0.4)"><g transform="" style="fill: rgb(0, 0, 0);">
<g>
	<path d="M100,34.375V0H34.375C24.87,0,16.764,3.353,10.059,10.059S0,24.87,0,34.375v31.25c0,9.505,3.353,17.611,10.059,24.316
		C16.765,96.646,24.87,100,34.375,100H100V34.375z"/>
</g>
</g></g><g transform="translate(560,200) scale(0.4,0.4)"><g transform="" style="fill: rgb(0, 0, 0);">
<rect width="100" height="100"/>
</g></g><g transform="translate(320,240) scale(0.4,0.4)"><g transform="" style="fill: rgb(0, 0, 0);">
<g>
	<path d="M99.805,32.031H100V0H0v32.031h0.195C0.065,33.073,0,33.854,0,34.375v31.25c0,9.505,3.353,17.611,10.059,24.316
		C16.765,96.646,24.87,100,34.375,100h31.25c9.505,0,17.611-3.354,24.316-10.059C96.646,83.236,100,75.13,100,65.625v-31.25
		C100,33.854,99.937,33.073,99.805,32.031z"/>
</g>
</g></g><g transform="translate(400,240) scale(0.4,0.4)"><g transform="" style="fill: rgb(0, 0, 0);">
<g>
	<path d="M100,34.375c0-9.505-3.354-17.611-10.059-24.316C83.236,3.354,75.13,0,65.625,0h-31.25C24.87,0,16.764,3.353,10.059,10.059
		S0,24.87,0,34.375v31.25c0,0.521,0.065,1.303,0.195,2.344H0V100h100V67.969h-0.195c0.132-1.041,0.195-1.822,0.195-2.344V34.375z"/>
</g>
</g></g><g transform="translate(480,240) scale(0.4,0.4)"><g transform="" style="fill: rgb(0, 0, 0);">
<g>
	<path d="M100,65.625c0,9.507-3.355,17.611-10.059,24.316C83.236,96.645,75.132,100,65.625,100h-31.25
		c-9.504,0-17.61-3.355-24.315-10.059C3.354,83.236,0,75.132,0,65.625v-31.25c0-9.504,3.353-17.61,10.059-24.315
		C16.766,3.354,24.871,0,34.375,0h31.25c9.508,0,17.613,3.353,24.316,10.059C96.646,16.766,100,24.871,100,34.375V65.625z"/>
</g>
</g></g><g transform="translate(560,240) scale(0.4,0.4)"><g transform="" style="fill: rgb(0, 0, 0);">
<rect width="100" height="100"/>
</g></g><g transform="translate(640,240) scale(0.4,0.4)"><g transform="" style="fill: rgb(0, 0, 0);">
<g>
	<path d="M100,34.375c0-9.505-3.354-17.611-10.059-24.316C83.236,3.354,75.13,0,65.625,0h-31.25C24.87,0,16.764,3.353,10.059,10.059
		S0,24.87,0,34.375v31.25c0,0.521,0.065,1.303,0.195,2.344H0V100h100V67.969h-0.195c0.132-1.041,0.195-1.822,0.195-2.344V34.375z"/>
</g>
</g></g><g transform="translate(360,280) scale(0.4,0.4)"><g transform="" style="fill: rgb(0, 0, 0);">
<g>
	<path d="M100,34.375V0H34.375C24.87,0,16.764,3.353,10.059,10.059S0,24.87,0,34.375v31.25c0,9.505,3.353,17.611,10.059,24.316
		C16.765,96.646,24.87,100,34.375,100H100V34.375z"/>
</g>
</g></g><g transform="translate(400,280) scale(0.4,0.4)"><g transform="" style="fill: rgb(0, 0, 0);">
<rect width="100" height="100"/>
</g></g><g transform="translate(560,280) scale(0.4,0.4)"><g transform="" style="fill: rgb(0, 0, 0);">
<g>
	<path d="M100,0H0v65.625c0,9.505,3.353,17.611,10.059,24.316C16.765,96.646,24.87,100,34.375,100H100V0z"/>
</g>
</g></g><g transform="translate(600,280) scale(0.4,0.4)"><g transform="" style="fill: rgb(0, 0, 0);">
<rect width="100" height="100"/>
</g></g><g transform="translate(640,280) scale(0.4,0.4)"><g transform="" style="fill: rgb(0, 0, 0);">
<rect width="100" height="100"/>
</g></g><g transform="translate(0,320) scale(0.4,0.4)"><g transform="" style="fill: rgb(0, 0, 0);">
<g>
	<path d="M100,34.375c0-9.505-3.354-17.611-10.059-24.316C83.236,3.354,75.13,0,65.625,0h-31.25C24.87,0,16.764,3.353,10.059,10.059
		S0,24.87,0,34.375v31.25c0,0.521,0.065,1.303,0.195,2.344H0V100h100V67.969h-0.195c0.132-1.041,0.195-1.822,0.195-2.344V34.375z"/>
</g>
</g></g><g transform="translate(80,320) scale(0.4,0.4)"><g transform="" style="fill: rgb(0, 0, 0);">
<g>
	<path d="M100,34.375c0-9.505-3.354-17.611-10.059-24.316C83.236,3.354,75.13,0,65.625,0h-31.25C24.87,0,16.764,3.353,10.059,10.059
		S0,24.87,0,34.375v31.25c0,0.521,0.065,1.303,0.195,2.344H0V100h100V67.969h-0.195c0.132-1.041,0.195-1.822,0.195-2.344V34.375z"/>
</g>
</g></g><g transform="translate(240,320) scale(0.4,0.4)"><g transform="" style="fill: rgb(0, 0, 0);">
<g>
	<path d="M100,34.375V0H34.375C24.87,0,16.764,3.353,10.059,10.059S0,24.87,0,34.375v31.25c0,9.505,3.353,17.611,10.059,24.316
		C16.765,96.646,24.87,100,34.375,100H100V34.375z"/>
</g>
</g></g><g transform="translate(280,320) scale(0.4,0.4)"><g transform="" style="fill: rgb(0, 0, 0);">
<g>
	<path d="M100,34.375c0-9.505-3.354-17.611-10.059-24.316C83.236,3.354,75.13,0,65.625,0H0v100h100V34.375z"/>
</g>
</g></g><g transform="translate(400,320) scale(0.4,0.4)"><g transform="" style="fill: rgb(0, 0, 0);">
<rect width="100" height="100"/>
</g></g><g transform="translate(640,320) scale(0.4,0.4)"><g transform="" style="fill: rgb(0, 0, 0);">
<rect width="100" height="100"/>
</g></g><g transform="translate(760,320) scale(0.4,0.4)"><g transform="" style="fill: rgb(0, 0, 0);">
<g>
	<path d="M100,34.375c0-9.505-3.354-17.611-10.059-24.316C83.236,3.354,75.13,0,65.625,0h-31.25C24.87,0,16.764,3.353,10.059,10.059
		S0,24.87,0,34.375v31.25c0,0.521,0.065,1.303,0.195,2.344H0V100h100V67.969h-0.195c0.132-1.041,0.195-1.822,0.195-2.344V34.375z"/>
</g>
</g></g><g transform="translate(880,320) scale(0.4,0.4)"><g transform="" style="fill: rgb(0, 0, 0);">
<g>
	<path d="M100,65.625c0,9.507-3.355,17.611-10.059,24.316C83.236,96.645,75.132,100,65.625,100h-31.25
		c-9.504,0-17.61-3.355-24.315-10.059C3.354,83.236,0,75.132,0,65.625v-31.25c0-9.504,3.353-17.61,10.059-24.315
		C16.766,3.354,24.871,0,34.375,0h31.25c9.508,0,17.613,3.353,24.316,10.059C96.646,16.766,100,24.871,100,34.375V65.625z"/>
</g>
</g></g><g transform="translate(960,320) scale(0.4,0.4)"><g transform="" style="fill: rgb(0, 0, 0);">
<g>
	<path d="M100,34.375c0-9.505-3.354-17.611-10.059-24.316C83.236,3.354,75.13,0,65.625,0h-31.25C24.87,0,16.764,3.353,10.059,10.059
		S0,24.87,0,34.375v31.25c0,0.521,0.065,1.303,0.195,2.344H0V100h100V67.969h-0.195c0.132-1.041,0.195-1.822,0.195-2.344V34.375z"/>
</g>
</g></g><g transform="translate(0,360) scale(0.4,0.4)"><g transform="" style="fill: rgb(0, 0, 0);">
<rect width="100" height="100"/>
</g></g><g transform="translate(40,360) scale(0.4,0.4)"><g transform="" style="fill: rgb(0, 0, 0);">
<rect width="100" height="100"/>
</g></g><g transform="translate(80,360) scale(0.4,0.4)"><g transform="" style="fill: rgb(0, 0, 0);">
<g>
	<path d="M100,0H0v100h65.625c9.505,0,17.611-3.354,24.316-10.059C96.646,83.236,100,75.13,100,65.625V0z"/>
</g>
</g></g><g transform="translate(200,360) scale(0.4,0.4)"><g transform="" style="fill: rgb(0, 0, 0);">
<g>
	<path d="M100,65.625c0,9.507-3.355,17.611-10.059,24.316C83.236,96.645,75.132,100,65.625,100h-31.25
		c-9.504,0-17.61-3.355-24.315-10.059C3.354,83.236,0,75.132,0,65.625v-31.25c0-9.504,3.353-17.61,10.059-24.315
		C16.766,3.354,24.871,0,34.375,0h31.25c9.508,0,17.613,3.353,24.316,10.059C96.646,16.766,100,24.871,100,34.375V65.625z"/>
</g>
</g></g><g transform="translate(280,360) scale(0.4,0.4)"><g transform="" style="fill: rgb(0, 0, 0);">
<g>
	<path d="M99.805,32.031H100V0H0v32.031h0.195C0.065,33.073,0,33.854,0,34.375v31.25c0,9.505,3.353,17.611,10.059,24.316
		C16.765,96.646,24.87,100,34.375,100h31.25c9.505,0,17.611-3.354,24.316-10.059C96.646,83.236,100,75.13,100,65.625v-31.25
		C100,33.854,99.937,33.073,99.805,32.031z"/>
</g>
</g></g><g transform="translate(400,360) scale(0.4,0.4)"><g transform="" style="fill: rgb(0, 0, 0);">
<rect width="100" height="100"/>
</g></g><g transform="translate(480,360) scale(0.4,0.4)"><g transform="" style="fill: rgb(0, 0, 0);">
<g>
	<path d="M100,34.375V0H34.375C24.87,0,16.764,3.353,10.059,10.059S0,24.87,0,34.375V100h100V34.375z"/>
</g>
</g></g><g transform="translate(520,360) scale(0.4,0.4)"><g transform="" style="fill: rgb(0, 0, 0);">
<g>
	<path d="M100,34.375c0-9.505-3.354-17.611-10.059-24.316C83.236,3.354,75.13,0,65.625,0H0v100h100V34.375z"/>
</g>
</g></g><g transform="translate(600,360) scale(0.4,0.4)"><g transform="" style="fill: rgb(0, 0, 0);">
<g>
	<path d="M100,34.375V0H34.375C24.87,0,16.764,3.353,10.059,10.059S0,24.87,0,34.375V100h100V34.375z"/>
</g>
</g></g><g transform="translate(640,360) scale(0.4,0.4)"><g transform="" style="fill: rgb(0, 0, 0);">
<g>
	<path d="M100,0H0v100h65.625c9.505,0,17.611-3.354,24.316-10.059C96.646,83.236,100,75.13,100,65.625V0z"/>
</g>
</g></g><g transform="translate(720,360) scale(0.4,0.4)"><g transform="" style="fill: rgb(0, 0, 0);">
<g>
	<path d="M100,34.375V0H34.375C24.87,0,16.764,3.353,10.059,10.059S0,24.87,0,34.375V100h100V34.375z"/>
</g>
</g></g><g transform="translate(760,360) scale(0.4,0.4)"><g transform="" style="fill: rgb(0, 0, 0);">
<g>
	<path d="M100,0H0v100h65.625c9.505,0,17.611-3.354,24.316-10.059C96.646,83.236,100,75.13,100,65.625V0z"/>
</g>
</g></g><g transform="translate(840,360) scale(0.4,0.4)"><g transform="" style="fill: rgb(0, 0, 0);">
<g>
	<path d="M100,34.375c0-9.505-3.354-17.611-10.059-24.316C83.236,3.354,75.13,0,65.625,0h-31.25C24.87,0,16.764,3.353,10.059,10.059
		S0,24.87,0,34.375v31.25c0,0.521,0.065,1.303,0.195,2.344H0V100h100V67.969h-0.195c0.132-1.041,0.195-1.822,0.195-2.344V34.375z"/>
</g>
</g></g><g transform="translate(920,360) scale(0.4,0.4)"><g transform="" style="fill: rgb(0, 0, 0);">
<g>
	<path d="M100,34.375V0H34.375C24.87,0,16.764,3.353,10.059,10.059S0,24.87,0,34.375v31.25c0,9.505,3.353,17.611,10.059,24.316
		C16.765,96.646,24.87,100,34.375,100H100V34.375z"/>
</g>
</g></g><g transform="translate(960,360) scale(0.4,0.4)"><g transform="" style="fill: rgb(0, 0, 0);">
<rect width="100" height="100"/>
</g></g><g transform="translate(0,400) scale(0.4,0.4)"><g transform="" style="fill: rgb(0, 0, 0);">
<g>
	<path d="M100,0H0v65.625c0,9.505,3.353,17.611,10.059,24.316C16.765,96.646,24.87,100,34.375,100H100V0z"/>
</g>
</g></g><g transform="translate(40,400) scale(0.4,0.4)"><g transform="" style="fill: rgb(0, 0, 0);">
<rect width="100" height="100"/>
</g></g><g transform="translate(120,400) scale(0.4,0.4)"><g transform="" style="fill: rgb(0, 0, 0);">
<g>
	<path d="M100,65.625c0,9.507-3.355,17.611-10.059,24.316C83.236,96.645,75.132,100,65.625,100h-31.25
		c-9.504,0-17.61-3.355-24.315-10.059C3.354,83.236,0,75.132,0,65.625v-31.25c0-9.504,3.353-17.61,10.059-24.315
		C16.766,3.354,24.871,0,34.375,0h31.25c9.508,0,17.613,3.353,24.316,10.059C96.646,16.766,100,24.871,100,34.375V65.625z"/>
</g>
</g></g><g transform="translate(240,400) scale(0.4,0.4)"><g transform="" style="fill: rgb(0, 0, 0);">
<g>
	<path d="M100,65.625c0,9.507-3.355,17.611-10.059,24.316C83.236,96.645,75.132,100,65.625,100h-31.25
		c-9.504,0-17.61-3.355-24.315-10.059C3.354,83.236,0,75.132,0,65.625v-31.25c0-9.504,3.353-17.61,10.059-24.315
		C16.766,3.354,24.871,0,34.375,0h31.25c9.508,0,17.613,3.353,24.316,10.059C96.646,16.766,100,24.871,100,34.375V65.625z"/>
</g>
</g></g><g transform="translate(320,400) scale(0.4,0.4)"><g transform="" style="fill: rgb(0, 0, 0);">
<g>
	<path d="M100,34.375V0H34.375C24.87,0,16.764,3.353,10.059,10.059S0,24.87,0,34.375V100h100V34.375z"/>
</g>
</g></g><g transform="translate(360,400) scale(0.4,0.4)"><g transform="" style="fill: rgb(0, 0, 0);">
<rect width="100" height="100"/>
</g></g><g transform="translate(400,400) scale(0.4,0.4)"><g transform="" style="fill: rgb(0, 0, 0);">
<rect width="100" height="100"/>
</g></g><g transform="translate(440,400) scale(0.4,0.4)"><g transform="" style="fill: rgb(0, 0, 0);">
<rect width="100" height="100"/>
</g></g><g transform="translate(480,400) scale(0.4,0.4)"><g transform="" style="fill: rgb(0, 0, 0);">
<rect width="100" height="100"/>
</g></g><g transform="translate(520,400) scale(0.4,0.4)"><g transform="" style="fill: rgb(0, 0, 0);">
<g>
	<path d="M100,0H0v100h65.625c9.505,0,17.611-3.354,24.316-10.059C96.646,83.236,100,75.13,100,65.625V0z"/>
</g>
</g></g><g transform="translate(600,400) scale(0.4,0.4)"><g transform="" style="fill: rgb(0, 0, 0);">
<g>
	<path d="M99.805,32.031H100V0H0v32.031h0.195C0.065,33.073,0,33.854,0,34.375v31.25c0,9.505,3.353,17.611,10.059,24.316
		C16.765,96.646,24.87,100,34.375,100h31.25c9.505,0,17.611-3.354,24.316-10.059C96.646,83.236,100,75.13,100,65.625v-31.25
		C100,33.854,99.937,33.073,99.805,32.031z"/>
</g>
</g></g><g transform="translate(680,400) scale(0.4,0.4)"><g transform="" style="fill: rgb(0, 0, 0);">
<g>
	<path d="M100,34.375V0H34.375C24.87,0,16.764,3.353,10.059,10.059S0,24.87,0,34.375V100h100V34.375z"/>
</g>
</g></g><g transform="translate(720,400) scale(0.4,0.4)"><g transform="" style="fill: rgb(0, 0, 0);">
<g>
	<path d="M100,0H0v100h65.625c9.505,0,17.611-3.354,24.316-10.059C96.646,83.236,100,75.13,100,65.625V0z"/>
</g>
</g></g><g transform="translate(840,400) scale(0.4,0.4)"><g transform="" style="fill: rgb(0, 0, 0);">
<rect width="100" height="100"/>
</g></g><g transform="translate(880,400) scale(0.4,0.4)"><g transform="" style="fill: rgb(0, 0, 0);">
<g>
	<path d="M65.625,0H0v100h65.625c9.505,0,17.611-3.354,24.316-10.059C96.646,83.236,100,75.13,100,65.625v-31.25
		c0-9.505-3.354-17.611-10.059-24.316C83.236,3.354,75.13,0,65.625,0z"/>
</g>
</g></g><g transform="translate(960,400) scale(0.4,0.4)"><g transform="" style="fill: rgb(0, 0, 0);">
<g>
	<path d="M99.805,32.031H100V0H0v32.031h0.195C0.065,33.073,0,33.854,0,34.375v31.25c0,9.505,3.353,17.611,10.059,24.316
		C16.765,96.646,24.87,100,34.375,100h31.25c9.505,0,17.611-3.354,24.316-10.059C96.646,83.236,100,75.13,100,65.625v-31.25
		C100,33.854,99.937,33.073,99.805,32.031z"/>
</g>
</g></g><g transform="translate(40,440) scale(0.4,0.4)"><g transform="" style="fill: rgb(0, 0, 0);">
<rect width="100" height="100"/>
</g></g><g transform="translate(200,440) scale(0.4,0.4)"><g transform="" style="fill: rgb(0, 0, 0);">
<g>
	<path d="M100,34.375c0-9.505-3.354-17.611-10.059-24.316C83.236,3.354,75.13,0,65.625,0h-31.25C24.87,0,16.764,3.353,10.059,10.059
		S0,24.87,0,34.375v31.25c0,0.521,0.065,1.303,0.195,2.344H0V100h100V67.969h-0.195c0.132-1.041,0.195-1.822,0.195-2.344V34.375z"/>
</g>
</g></g><g transform="translate(280,440) scale(0.4,0.4)"><g transform="" style="fill: rgb(0, 0, 0);">
<g>
	<path d="M100,34.375V0H34.375C24.87,0,16.764,3.353,10.059,10.059S0,24.87,0,34.375V100h100V34.375z"/>
</g>
</g></g><g transform="translate(320,440) scale(0.4,0.4)"><g transform="" style="fill: rgb(0, 0, 0);">
<g>
	<path d="M100,0H0v100h65.625c9.505,0,17.611-3.354,24.316-10.059C96.646,83.236,100,75.13,100,65.625V0z"/>
</g>
</g></g><g transform="translate(400,440) scale(0.4,0.4)"><g transform="" style="fill: rgb(0, 0, 0);">
<g>
	<path d="M100,0H0v65.625c0,9.505,3.353,17.611,10.059,24.316C16.765,96.646,24.87,100,34.375,100H100V0z"/>
</g>
</g></g><g transform="translate(440,440) scale(0.4,0.4)"><g transform="" style="fill: rgb(0, 0, 0);">
<rect width="100" height="100"/>
</g></g><g transform="translate(560,440) scale(0.4,0.4)"><g transform="" style="fill: rgb(0, 0, 0);">
<g>
	<path d="M100,34.375c0-9.505-3.354-17.611-10.059-24.316C83.236,3.354,75.13,0,65.625,0h-31.25C24.87,0,16.764,3.353,10.059,10.059
		S0,24.87,0,34.375v31.25c0,0.521,0.065,1.303,0.195,2.344H0V100h100V67.969h-0.195c0.132-1.041,0.195-1.822,0.195-2.344V34.375z"/>
</g>
</g></g><g transform="translate(680,440) scale(0.4,0.4)"><g transform="" style="fill: rgb(0, 0, 0);">
<g>
	<path d="M99.805,32.031H100V0H0v32.031h0.195C0.065,33.073,0,33.854,0,34.375v31.25c0,9.505,3.353,17.611,10.059,24.316
		C16.765,96.646,24.87,100,34.375,100h31.25c9.505,0,17.611-3.354,24.316-10.059C96.646,83.236,100,75.13,100,65.625v-31.25
		C100,33.854,99.937,33.073,99.805,32.031z"/>
</g>
</g></g><g transform="translate(840,440) scale(0.4,0.4)"><g transform="" style="fill: rgb(0, 0, 0);">
<g>
	<path d="M99.805,32.031H100V0H0v32.031h0.195C0.065,33.073,0,33.854,0,34.375v31.25c0,9.505,3.353,17.611,10.059,24.316
		C16.765,96.646,24.87,100,34.375,100h31.25c9.505,0,17.611-3.354,24.316-10.059C96.646,83.236,100,75.13,100,65.625v-31.25
		C100,33.854,99.937,33.073,99.805,32.031z"/>
</g>
</g></g><g transform="translate(0,480) scale(0.4,0.4)"><g transform="" style="fill: rgb(0, 0, 0);">
<g>
	<path d="M100,34.375V0H34.375C24.87,0,16.764,3.353,10.059,10.059S0,24.87,0,34.375v31.25c0,9.505,3.353,17.611,10.059,24.316
		C16.765,96.646,24.87,100,34.375,100H100V34.375z"/>
</g>
</g></g><g transform="translate(40,480) scale(0.4,0.4)"><g transform="" style="fill: rgb(0, 0, 0);">
<rect width="100" height="100"/>
</g></g><g transform="translate(80,480) scale(0.4,0.4)"><g transform="" style="fill: rgb(0, 0, 0);">
<g>
	<path d="M100,34.375c0-9.505-3.354-17.611-10.059-24.316C83.236,3.354,75.13,0,65.625,0H0v100h100V34.375z"/>
</g>
</g></g><g transform="translate(200,480) scale(0.4,0.4)"><g transform="" style="fill: rgb(0, 0, 0);">
<rect width="100" height="100"/>
</g></g><g transform="translate(240,480) scale(0.4,0.4)"><g transform="" style="fill: rgb(0, 0, 0);">
<rect width="100" height="100"/>
</g></g><g transform="translate(280,480) scale(0.4,0.4)"><g transform="" style="fill: rgb(0, 0, 0);">
<g>
	<path d="M100,0H0v100h65.625c9.505,0,17.611-3.354,24.316-10.059C96.646,83.236,100,75.13,100,65.625V0z"/>
</g>
</g></g><g transform="translate(360,480) scale(0.4,0.4)"><g transform="" style="fill: rgb(0, 0, 0);">
<g>
	<path d="M100,65.625c0,9.507-3.355,17.611-10.059,24.316C83.236,96.645,75.132,100,65.625,100h-31.25
		c-9.504,0-17.61-3.355-24.315-10.059C3.354,83.236,0,75.132,0,65.625v-31.25c0-9.504,3.353-17.61,10.059-24.315
		C16.766,3.354,24.871,0,34.375,0h31.25c9.508,0,17.613,3.353,24.316,10.059C96.646,16.766,100,24.871,100,34.375V65.625z"/>
</g>
</g></g><g transform="translate(440,480) scale(0.4,0.4)"><g transform="" style="fill: rgb(0, 0, 0);">
<g>
	<path d="M100,0H0v65.625c0,9.505,3.353,17.611,10.059,24.316C16.765,96.646,24.87,100,34.375,100H100V0z"/>
</g>
</g></g><g transform="translate(480,480) scale(0.4,0.4)"><g transform="" style="fill: rgb(0, 0, 0);">
<g>
	<path d="M100,34.375c0-9.505-3.354-17.611-10.059-24.316C83.236,3.354,75.13,0,65.625,0H0v100h100V34.375z"/>
</g>
</g></g><g transform="translate(560,480) scale(0.4,0.4)"><g transform="" style="fill: rgb(0, 0, 0);">
<g>
	<path d="M99.805,32.031H100V0H0v32.031h0.195C0.065,33.073,0,33.854,0,34.375v31.25c0,9.505,3.353,17.611,10.059,24.316
		C16.765,96.646,24.87,100,34.375,100h31.25c9.505,0,17.611-3.354,24.316-10.059C96.646,83.236,100,75.13,100,65.625v-31.25
		C100,33.854,99.937,33.073,99.805,32.031z"/>
</g>
</g></g><g transform="translate(640,480) scale(0.4,0.4)"><g transform="" style="fill: rgb(0, 0, 0);">
<g>
	<path d="M100,34.375c0-9.505-3.354-17.611-10.059-24.316C83.236,3.354,75.13,0,65.625,0h-31.25C24.87,0,16.764,3.353,10.059,10.059
		S0,24.87,0,34.375v31.25c0,0.521,0.065,1.303,0.195,2.344H0V100h100V67.969h-0.195c0.132-1.041,0.195-1.822,0.195-2.344V34.375z"/>
</g>
</g></g><g transform="translate(720,480) scale(0.4,0.4)"><g transform="" style="fill: rgb(0, 0, 0);">
<g>
	<path d="M100,34.375c0-9.505-3.354-17.611-10.059-24.316C83.236,3.354,75.13,0,65.625,0h-31.25C24.87,0,16.764,3.353,10.059,10.059
		S0,24.87,0,34.375v31.25c0,0.521,0.065,1.303,0.195,2.344H0V100h100V67.969h-0.195c0.132-1.041,0.195-1.822,0.195-2.344V34.375z"/>
</g>
</g></g><g transform="translate(960,480) scale(0.4,0.4)"><g transform="" style="fill: rgb(0, 0, 0);">
<g>
	<path d="M100,34.375c0-9.505-3.354-17.611-10.059-24.316C83.236,3.354,75.13,0,65.625,0h-31.25C24.87,0,16.764,3.353,10.059,10.059
		S0,24.87,0,34.375v31.25c0,0.521,0.065,1.303,0.195,2.344H0V100h100V67.969h-0.195c0.132-1.041,0.195-1.822,0.195-2.344V34.375z"/>
</g>
</g></g><g transform="translate(80,520) scale(0.4,0.4)"><g transform="" style="fill: rgb(0, 0, 0);">
<g>
	<path d="M99.805,32.031H100V0H0v32.031h0.195C0.065,33.073,0,33.854,0,34.375v31.25c0,9.505,3.353,17.611,10.059,24.316
		C16.765,96.646,24.87,100,34.375,100h31.25c9.505,0,17.611-3.354,24.316-10.059C96.646,83.236,100,75.13,100,65.625v-31.25
		C100,33.854,99.937,33.073,99.805,32.031z"/>
</g>
</g></g><g transform="translate(200,520) scale(0.4,0.4)"><g transform="" style="fill: rgb(0, 0, 0);">
<rect width="100" height="100"/>
</g></g><g transform="translate(480,520) scale(0.4,0.4)"><g transform="" style="fill: rgb(0, 0, 0);">
<rect width="100" height="100"/>
</g></g><g transform="translate(520,520) scale(0.4,0.4)"><g transform="" style="fill: rgb(0, 0, 0);">
<g>
	<path d="M65.625,0H0v100h65.625c9.505,0,17.611-3.354,24.316-10.059C96.646,83.236,100,75.13,100,65.625v-31.25
		c0-9.505-3.354-17.611-10.059-24.316C83.236,3.354,75.13,0,65.625,0z"/>
</g>
</g></g><g transform="translate(600,520) scale(0.4,0.4)"><g transform="" style="fill: rgb(0, 0, 0);">
<g>
	<path d="M100,34.375V0H34.375C24.87,0,16.764,3.353,10.059,10.059S0,24.87,0,34.375V100h100V34.375z"/>
</g>
</g></g><g transform="translate(640,520) scale(0.4,0.4)"><g transform="" style="fill: rgb(0, 0, 0);">
<rect width="100" height="100"/>
</g></g><g transform="translate(680,520) scale(0.4,0.4)"><g transform="" style="fill: rgb(0, 0, 0);">
<rect width="100" height="100"/>
</g></g><g transform="translate(720,520) scale(0.4,0.4)"><g transform="" style="fill: rgb(0, 0, 0);">
<rect width="100" height="100"/>
</g></g><g transform="translate(760,520) scale(0.4,0.4)"><g transform="" style="fill: rgb(0, 0, 0);">
<g>
	<path d="M65.625,0H0v100h65.625c9.505,0,17.611-3.354,24.316-10.059C96.646,83.236,100,75.13,100,65.625v-31.25
		c0-9.505-3.354-17.611-10.059-24.316C83.236,3.354,75.13,0,65.625,0z"/>
</g>
</g></g><g transform="translate(920,520) scale(0.4,0.4)"><g transform="" style="fill: rgb(0, 0, 0);">
<g>
	<path d="M100,34.375V0H34.375C24.87,0,16.764,3.353,10.059,10.059S0,24.87,0,34.375v31.25c0,9.505,3.353,17.611,10.059,24.316
		C16.765,96.646,24.87,100,34.375,100H100V34.375z"/>
</g>
</g></g><g transform="translate(960,520) scale(0.4,0.4)"><g transform="" style="fill: rgb(0, 0, 0);">
<rect width="100" height="100"/>
</g></g><g transform="translate(0,560) scale(0.4,0.4)"><g transform="" style="fill: rgb(0, 0, 0);">
<g>
	<path d="M100,34.375V0H34.375C24.87,0,16.764,3.353,10.059,10.059S0,24.87,0,34.375v31.25c0,9.505,3.353,17.611,10.059,24.316
		C16.765,96.646,24.87,100,34.375,100H100V34.375z"/>
</g>
</g></g><g transform="translate(40,560) scale(0.4,0.4)"><g transform="" style="fill: rgb(0, 0, 0);">
<g>
	<path d="M65.625,0H0v100h65.625c9.505,0,17.611-3.354,24.316-10.059C96.646,83.236,100,75.13,100,65.625v-31.25
		c0-9.505-3.354-17.611-10.059-24.316C83.236,3.354,75.13,0,65.625,0z"/>
</g>
</g></g><g transform="translate(120,560) scale(0.4,0.4)"><g transform="" style="fill: rgb(0, 0, 0);">
<g>
	<path d="M100,34.375c0-9.505-3.354-17.611-10.059-24.316C83.236,3.354,75.13,0,65.625,0h-31.25C24.87,0,16.764,3.353,10.059,10.059
		S0,24.87,0,34.375v31.25c0,0.521,0.065,1.303,0.195,2.344H0V100h100V67.969h-0.195c0.132-1.041,0.195-1.822,0.195-2.344V34.375z"/>
</g>
</g></g><g transform="translate(200,560) scale(0.4,0.4)"><g transform="" style="fill: rgb(0, 0, 0);">
<g>
	<path d="M100,0H0v65.625c0,9.505,3.353,17.611,10.059,24.316C16.765,96.646,24.87,100,34.375,100H100V0z"/>
</g>
</g></g><g transform="translate(240,560) scale(0.4,0.4)"><g transform="" style="fill: rgb(0, 0, 0);">
<rect width="100" height="100"/>
</g></g><g transform="translate(280,560) scale(0.4,0.4)"><g transform="" style="fill: rgb(0, 0, 0);">
<g>
	<path d="M65.625,0H0v100h65.625c9.505,0,17.611-3.354,24.316-10.059C96.646,83.236,100,75.13,100,65.625v-31.25
		c0-9.505-3.354-17.611-10.059-24.316C83.236,3.354,75.13,0,65.625,0z"/>
</g>
</g></g><g transform="translate(400,560) scale(0.4,0.4)"><g transform="" style="fill: rgb(0, 0, 0);">
<g>
	<path d="M100,65.625c0,9.507-3.355,17.611-10.059,24.316C83.236,96.645,75.132,100,65.625,100h-31.25
		c-9.504,0-17.61-3.355-24.315-10.059C3.354,83.236,0,75.132,0,65.625v-31.25c0-9.504,3.353-17.61,10.059-24.315
		C16.766,3.354,24.871,0,34.375,0h31.25c9.508,0,17.613,3.353,24.316,10.059C96.646,16.766,100,24.871,100,34.375V65.625z"/>
</g>
</g></g><g transform="translate(480,560) scale(0.4,0.4)"><g transform="" style="fill: rgb(0, 0, 0);">
<rect width="100" height="100"/>
</g></g><g transform="translate(600,560) scale(0.4,0.4)"><g transform="" style="fill: rgb(0, 0, 0);">
<rect width="100" height="100"/>
</g></g><g transform="translate(680,560) scale(0.4,0.4)"><g transform="" style="fill: rgb(0, 0, 0);">
<g>
	<path d="M100,0H0v65.625c0,9.505,3.353,17.611,10.059,24.316C16.765,96.646,24.87,100,34.375,100H100V0z"/>
</g>
</g></g><g transform="translate(720,560) scale(0.4,0.4)"><g transform="" style="fill: rgb(0, 0, 0);">
<g>
	<path d="M100,0H0v100h65.625c9.505,0,17.611-3.354,24.316-10.059C96.646,83.236,100,75.13,100,65.625V0z"/>
</g>
</g></g><g transform="translate(840,560) scale(0.4,0.4)"><g transform="" style="fill: rgb(0, 0, 0);">
<g>
	<path d="M100,34.375V0H34.375C24.87,0,16.764,3.353,10.059,10.059S0,24.87,0,34.375V100h100V34.375z"/>
</g>
</g></g><g transform="translate(880,560) scale(0.4,0.4)"><g transform="" style="fill: rgb(0, 0, 0);">
<g>
	<path d="M65.625,0H0v100h65.625c9.505,0,17.611-3.354,24.316-10.059C96.646,83.236,100,75.13,100,65.625v-31.25
		c0-9.505-3.354-17.611-10.059-24.316C83.236,3.354,75.13,0,65.625,0z"/>
</g>
</g></g><g transform="translate(960,560) scale(0.4,0.4)"><g transform="" style="fill: rgb(0, 0, 0);">
<g>
	<path d="M99.805,32.031H100V0H0v32.031h0.195C0.065,33.073,0,33.854,0,34.375v31.25c0,9.505,3.353,17.611,10.059,24.316
		C16.765,96.646,24.87,100,34.375,100h31.25c9.505,0,17.611-3.354,24.316-10.059C96.646,83.236,100,75.13,100,65.625v-31.25
		C100,33.854,99.937,33.073,99.805,32.031z"/>
</g>
</g></g><g transform="translate(80,600) scale(0.4,0.4)"><g transform="" style="fill: rgb(0, 0, 0);">
<g>
	<path d="M100,34.375V0H34.375C24.87,0,16.764,3.353,10.059,10.059S0,24.87,0,34.375V100h100V34.375z"/>
</g>
</g></g><g transform="translate(120,600) scale(0.4,0.4)"><g transform="" style="fill: rgb(0, 0, 0);">
<rect width="100" height="100"/>
</g></g><g transform="translate(320,600) scale(0.4,0.4)"><g transform="" style="fill: rgb(0, 0, 0);">
<g>
	<path d="M100,65.625c0,9.507-3.355,17.611-10.059,24.316C83.236,96.645,75.132,100,65.625,100h-31.25
		c-9.504,0-17.61-3.355-24.315-10.059C3.354,83.236,0,75.132,0,65.625v-31.25c0-9.504,3.353-17.61,10.059-24.315
		C16.766,3.354,24.871,0,34.375,0h31.25c9.508,0,17.613,3.353,24.316,10.059C96.646,16.766,100,24.871,100,34.375V65.625z"/>
</g>
</g></g><g transform="translate(440,600) scale(0.4,0.4)"><g transform="" style="fill: rgb(0, 0, 0);">
<g>
	<path d="M100,34.375V0H34.375C24.87,0,16.764,3.353,10.059,10.059S0,24.87,0,34.375v31.25c0,9.505,3.353,17.611,10.059,24.316
		C16.765,96.646,24.87,100,34.375,100H100V34.375z"/>
</g>
</g></g><g transform="translate(480,600) scale(0.4,0.4)"><g transform="" style="fill: rgb(0, 0, 0);">
<g>
	<path d="M100,0H0v100h65.625c9.505,0,17.611-3.354,24.316-10.059C96.646,83.236,100,75.13,100,65.625V0z"/>
</g>
</g></g><g transform="translate(560,600) scale(0.4,0.4)"><g transform="" style="fill: rgb(0, 0, 0);">
<g>
	<path d="M100,34.375V0H34.375C24.87,0,16.764,3.353,10.059,10.059S0,24.87,0,34.375V100h100V34.375z"/>
</g>
</g></g><g transform="translate(600,600) scale(0.4,0.4)"><g transform="" style="fill: rgb(0, 0, 0);">
<rect width="100" height="100"/>
</g></g><g transform="translate(640,600) scale(0.4,0.4)"><g transform="" style="fill: rgb(0, 0, 0);">
<g>
	<path d="M100,34.375c0-9.505-3.354-17.611-10.059-24.316C83.236,3.354,75.13,0,65.625,0H0v100h100V34.375z"/>
</g>
</g></g><g transform="translate(760,600) scale(0.4,0.4)"><g transform="" style="fill: rgb(0, 0, 0);">
<g>
	<path d="M100,34.375V0H34.375C24.87,0,16.764,3.353,10.059,10.059S0,24.87,0,34.375V100h100V34.375z"/>
</g>
</g></g><g transform="translate(800,600) scale(0.4,0.4)"><g transform="" style="fill: rgb(0, 0, 0);">
<rect width="100" height="100"/>
</g></g><g transform="translate(840,600) scale(0.4,0.4)"><g transform="" style="fill: rgb(0, 0, 0);">
<g>
	<path d="M100,0H0v100h65.625c9.505,0,17.611-3.354,24.316-10.059C96.646,83.236,100,75.13,100,65.625V0z"/>
</g>
</g></g><g transform="translate(0,640) scale(0.4,0.4)"><g transform="" style="fill: rgb(0, 0, 0);">
<g>
	<path d="M100,34.375V0H34.375C24.87,0,16.764,3.353,10.059,10.059S0,24.87,0,34.375v31.25c0,9.505,3.353,17.611,10.059,24.316
		C16.765,96.646,24.87,100,34.375,100H100V34.375z"/>
</g>
</g></g><g transform="translate(40,640) scale(0.4,0.4)"><g transform="" style="fill: rgb(0, 0, 0);">
<rect width="100" height="100"/>
</g></g><g transform="translate(80,640) scale(0.4,0.4)"><g transform="" style="fill: rgb(0, 0, 0);">
<rect width="100" height="100"/>
</g></g><g transform="translate(120,640) scale(0.4,0.4)"><g transform="" style="fill: rgb(0, 0, 0);">
<g>
	<path d="M100,0H0v100h65.625c9.505,0,17.611-3.354,24.316-10.059C96.646,83.236,100,75.13,100,65.625V0z"/>
</g>
</g></g><g transform="translate(200,640) scale(0.4,0.4)"><g transform="" style="fill: rgb(0, 0, 0);">
<g>
	<path d="M100,34.375V0H34.375C24.87,0,16.764,3.353,10.059,10.059S0,24.87,0,34.375v31.25c0,9.505,3.353,17.611,10.059,24.316
		C16.765,96.646,24.87,100,34.375,100H100V34.375z"/>
</g>
</g></g><g transform="translate(240,640) scale(0.4,0.4)"><g transform="" style="fill: rgb(0, 0, 0);">
<g>
	<path d="M65.625,0H0v100h65.625c9.505,0,17.611-3.354,24.316-10.059C96.646,83.236,100,75.13,100,65.625v-31.25
		c0-9.505-3.354-17.611-10.059-24.316C83.236,3.354,75.13,0,65.625,0z"/>
</g>
</g></g><g transform="translate(400,640) scale(0.4,0.4)"><g transform="" style="fill: rgb(0, 0, 0);">
<g>
	<path d="M100,34.375c0-9.505-3.354-17.611-10.059-24.316C83.236,3.354,75.13,0,65.625,0h-31.25C24.87,0,16.764,3.353,10.059,10.059
		S0,24.87,0,34.375v31.25c0,0.521,0.065,1.303,0.195,2.344H0V100h100V67.969h-0.195c0.132-1.041,0.195-1.822,0.195-2.344V34.375z"/>
</g>
</g></g><g transform="translate(520,640) scale(0.4,0.4)"><g transform="" style="fill: rgb(0, 0, 0);">
<g>
	<path d="M100,34.375V0H34.375C24.87,0,16.764,3.353,10.059,10.059S0,24.87,0,34.375V100h100V34.375z"/>
</g>
</g></g><g transform="translate(560,640) scale(0.4,0.4)"><g transform="" style="fill: rgb(0, 0, 0);">
<g>
	<path d="M100,0H0v100h65.625c9.505,0,17.611-3.354,24.316-10.059C96.646,83.236,100,75.13,100,65.625V0z"/>
</g>
</g></g><g transform="translate(640,640) scale(0.4,0.4)"><g transform="" style="fill: rgb(0, 0, 0);">
<rect width="100" height="100"/>
</g></g><g transform="translate(680,640) scale(0.4,0.4)"><g transform="" style="fill: rgb(0, 0, 0);">
<rect width="100" height="100"/>
</g></g><g transform="translate(720,640) scale(0.4,0.4)"><g transform="" style="fill: rgb(0, 0, 0);">
<rect width="100" height="100"/>
</g></g><g transform="translate(760,640) scale(0.4,0.4)"><g transform="" style="fill: rgb(0, 0, 0);">
<rect width="100" height="100"/>
</g></g><g transform="translate(800,640) scale(0.4,0.4)"><g transform="" style="fill: rgb(0, 0, 0);">
<rect width="100" height="100"/>
</g></g><g transform="translate(920,640) scale(0.4,0.4)"><g transform="" style="fill: rgb(0, 0, 0);">
<g>
	<path d="M100,65.625c0,9.507-3.355,17.611-10.059,24.316C83.236,96.645,75.132,100,65.625,100h-31.25
		c-9.504,0-17.61-3.355-24.315-10.059C3.354,83.236,0,75.132,0,65.625v-31.25c0-9.504,3.353-17.61,10.059-24.315
		C16.766,3.354,24.871,0,34.375,0h31.25c9.508,0,17.613,3.353,24.316,10.059C96.646,16.766,100,24.871,100,34.375V65.625z"/>
</g>
</g></g><g transform="translate(320,680) scale(0.4,0.4)"><g transform="" style="fill: rgb(0, 0, 0);">
<g>
	<path d="M100,34.375c0-9.505-3.354-17.611-10.059-24.316C83.236,3.354,75.13,0,65.625,0h-31.25C24.87,0,16.764,3.353,10.059,10.059
		S0,24.87,0,34.375v31.25c0,0.521,0.065,1.303,0.195,2.344H0V100h100V67.969h-0.195c0.132-1.041,0.195-1.822,0.195-2.344V34.375z"/>
</g>
</g></g><g transform="translate(400,680) scale(0.4,0.4)"><g transform="" style="fill: rgb(0, 0, 0);">
<rect width="100" height="100"/>
</g></g><g transform="translate(520,680) scale(0.4,0.4)"><g transform="" style="fill: rgb(0, 0, 0);">
<g>
	<path d="M99.805,32.031H100V0H0v32.031h0.195C0.065,33.073,0,33.854,0,34.375v31.25c0,9.505,3.353,17.611,10.059,24.316
		C16.765,96.646,24.87,100,34.375,100h31.25c9.505,0,17.611-3.354,24.316-10.059C96.646,83.236,100,75.13,100,65.625v-31.25
		C100,33.854,99.937,33.073,99.805,32.031z"/>
</g>
</g></g><g transform="translate(640,680) scale(0.4,0.4)"><g transform="" style="fill: rgb(0, 0, 0);">
<rect width="100" height="100"/>
</g></g><g transform="translate(800,680) scale(0.4,0.4)"><g transform="" style="fill: rgb(0, 0, 0);">
<rect width="100" height="100"/>
</g></g><g transform="translate(960,680) scale(0.4,0.4)"><g transform="" style="fill: rgb(0, 0, 0);">
<g>
	<path d="M100,34.375c0-9.505-3.354-17.611-10.059-24.316C83.236,3.354,75.13,0,65.625,0h-31.25C24.87,0,16.764,3.353,10.059,10.059
		S0,24.87,0,34.375v31.25c0,0.521,0.065,1.303,0.195,2.344H0V100h100V67.969h-0.195c0.132-1.041,0.195-1.822,0.195-2.344V34.375z"/>
</g>
</g></g><g transform="translate(320,720) scale(0.4,0.4)"><g transform="" style="fill: rgb(0, 0, 0);">
<g>
	<path d="M100,0H0v65.625c0,9.505,3.353,17.611,10.059,24.316C16.765,96.646,24.87,100,34.375,100H100V0z"/>
</g>
</g></g><g transform="translate(360,720) scale(0.4,0.4)"><g transform="" style="fill: rgb(0, 0, 0);">
<rect width="100" height="100"/>
</g></g><g transform="translate(400,720) scale(0.4,0.4)"><g transform="" style="fill: rgb(0, 0, 0);">
<rect width="100" height="100"/>
</g></g><g transform="translate(440,720) scale(0.4,0.4)"><g transform="" style="fill: rgb(0, 0, 0);">
<g>
	<path d="M65.625,0H0v100h65.625c9.505,0,17.611-3.354,24.316-10.059C96.646,83.236,100,75.13,100,65.625v-31.25
		c0-9.505-3.354-17.611-10.059-24.316C83.236,3.354,75.13,0,65.625,0z"/>
</g>
</g></g><g transform="translate(640,720) scale(0.4,0.4)"><g transform="" style="fill: rgb(0, 0, 0);">
<rect width="100" height="100"/>
</g></g><g transform="translate(720,720) scale(0.4,0.4)"><g transform="" style="fill: rgb(0, 0, 0);">
<g>
	<path d="M100,65.625c0,9.507-3.355,17.611-10.059,24.316C83.236,96.645,75.132,100,65.625,100h-31.25
		c-9.504,0-17.61-3.355-24.315-10.059C3.354,83.236,0,75.132,0,65.625v-31.25c0-9.504,3.353-17.61,10.059-24.315
		C16.766,3.354,24.871,0,34.375,0h31.25c9.508,0,17.613,3.353,24.316,10.059C96.646,16.766,100,24.871,100,34.375V65.625z"/>
</g>
</g></g><g transform="translate(800,720) scale(0.4,0.4)"><g transform="" style="fill: rgb(0, 0, 0);">
<rect width="100" height="100"/>
</g></g><g transform="translate(960,720) scale(0.4,0.4)"><g transform="" style="fill: rgb(0, 0, 0);">
<g>
	<path d="M99.805,32.031H100V0H0v32.031h0.195C0.065,33.073,0,33.854,0,34.375v31.25c0,9.505,3.353,17.611,10.059,24.316
		C16.765,96.646,24.87,100,34.375,100h31.25c9.505,0,17.611-3.354,24.316-10.059C96.646,83.236,100,75.13,100,65.625v-31.25
		C100,33.854,99.937,33.073,99.805,32.031z"/>
</g>
</g></g><g transform="translate(400,760) scale(0.4,0.4)"><g transform="" style="fill: rgb(0, 0, 0);">
<g>
	<path d="M99.805,32.031H100V0H0v32.031h0.195C0.065,33.073,0,33.854,0,34.375v31.25c0,9.505,3.353,17.611,10.059,24.316
		C16.765,96.646,24.87,100,34.375,100h31.25c9.505,0,17.611-3.354,24.316-10.059C96.646,83.236,100,75.13,100,65.625v-31.25
		C100,33.854,99.937,33.073,99.805,32.031z"/>
</g>
</g></g><g transform="translate(520,760) scale(0.4,0.4)"><g transform="" style="fill: rgb(0, 0, 0);">
<g>
	<path d="M100,34.375c0-9.505-3.354-17.611-10.059-24.316C83.236,3.354,75.13,0,65.625,0h-31.25C24.87,0,16.764,3.353,10.059,10.059
		S0,24.87,0,34.375v31.25c0,0.521,0.065,1.303,0.195,2.344H0V100h100V67.969h-0.195c0.132-1.041,0.195-1.822,0.195-2.344V34.375z"/>
</g>
</g></g><g transform="translate(600,760) scale(0.4,0.4)"><g transform="" style="fill: rgb(0, 0, 0);">
<g>
	<path d="M100,34.375V0H34.375C24.87,0,16.764,3.353,10.059,10.059S0,24.87,0,34.375V100h100V34.375z"/>
</g>
</g></g><g transform="translate(640,760) scale(0.4,0.4)"><g transform="" style="fill: rgb(0, 0, 0);">
<rect width="100" height="100"/>
</g></g><g transform="translate(800,760) scale(0.4,0.4)"><g transform="" style="fill: rgb(0, 0, 0);">
<rect width="100" height="100"/>
</g></g><g transform="translate(920,760) scale(0.4,0.4)"><g transform="" style="fill: rgb(0, 0, 0);">
<g>
	<path d="M100,65.625c0,9.507-3.355,17.611-10.059,24.316C83.236,96.645,75.132,100,65.625,100h-31.25
		c-9.504,0-17.61-3.355-24.315-10.059C3.354,83.236,0,75.132,0,65.625v-31.25c0-9.504,3.353-17.61,10.059-24.315
		C16.766,3.354,24.871,0,34.375,0h31.25c9.508,0,17.613,3.353,24.316,10.059C96.646,16.766,100,24.871,100,34.375V65.625z"/>
</g>
</g></g><g transform="translate(440,800) scale(0.4,0.4)"><g transform="" style="fill: rgb(0, 0, 0);">
<g>
	<path d="M100,34.375V0H34.375C24.87,0,16.764,3.353,10.059,10.059S0,24.87,0,34.375v31.25c0,9.505,3.353,17.611,10.059,24.316
		C16.765,96.646,24.87,100,34.375,100H100V34.375z"/>
</g>
</g></g><g transform="translate(480,800) scale(0.4,0.4)"><g transform="" style="fill: rgb(0, 0, 0);">
<rect width="100" height="100"/>
</g></g><g transform="translate(520,800) scale(0.4,0.4)"><g transform="" style="fill: rgb(0, 0, 0);">
<g>
	<path d="M100,0H0v100h65.625c9.505,0,17.611-3.354,24.316-10.059C96.646,83.236,100,75.13,100,65.625V0z"/>
</g>
</g></g><g transform="translate(600,800) scale(0.4,0.4)"><g transform="" style="fill: rgb(0, 0, 0);">
<rect width="100" height="100"/>
</g></g><g transform="translate(640,800) scale(0.4,0.4)"><g transform="" style="fill: rgb(0, 0, 0);">
<rect width="100" height="100"/>
</g></g><g transform="translate(680,800) scale(0.4,0.4)"><g transform="" style="fill: rgb(0, 0, 0);">
<rect width="100" height="100"/>
</g></g><g transform="translate(720,800) scale(0.4,0.4)"><g transform="" style="fill: rgb(0, 0, 0);">
<rect width="100" height="100"/>
</g></g><g transform="translate(760,800) scale(0.4,0.4)"><g transform="" style="fill: rgb(0, 0, 0);">
<rect width="100" height="100"/>
</g></g><g transform="translate(800,800) scale(0.4,0.4)"><g transform="" style="fill: rgb(0, 0, 0);">
<rect width="100" height="100"/>
</g></g><g transform="translate(960,800) scale(0.4,0.4)"><g transform="" style="fill: rgb(0, 0, 0);">
<g>
	<path d="M100,65.625c0,9.507-3.355,17.611-10.059,24.316C83.236,96.645,75.132,100,65.625,100h-31.25
		c-9.504,0-17.61-3.355-24.315-10.059C3.354,83.236,0,75.132,0,65.625v-31.25c0-9.504,3.353-17.61,10.059-24.315
		C16.766,3.354,24.871,0,34.375,0h31.25c9.508,0,17.613,3.353,24.316,10.059C96.646,16.766,100,24.871,100,34.375V65.625z"/>
</g>
</g></g><g transform="translate(360,840) scale(0.4,0.4)"><g transform="" style="fill: rgb(0, 0, 0);">
<g>
	<path d="M100,34.375c0-9.505-3.354-17.611-10.059-24.316C83.236,3.354,75.13,0,65.625,0h-31.25C24.87,0,16.764,3.353,10.059,10.059
		S0,24.87,0,34.375v31.25c0,0.521,0.065,1.303,0.195,2.344H0V100h100V67.969h-0.195c0.132-1.041,0.195-1.822,0.195-2.344V34.375z"/>
</g>
</g></g><g transform="translate(480,840) scale(0.4,0.4)"><g transform="" style="fill: rgb(0, 0, 0);">
<rect width="100" height="100"/>
</g></g><g transform="translate(600,840) scale(0.4,0.4)"><g transform="" style="fill: rgb(0, 0, 0);">
<rect width="100" height="100"/>
</g></g><g transform="translate(640,840) scale(0.4,0.4)"><g transform="" style="fill: rgb(0, 0, 0);">
<rect width="100" height="100"/>
</g></g><g transform="translate(680,840) scale(0.4,0.4)"><g transform="" style="fill: rgb(0, 0, 0);">
<g>
	<path d="M100,0H0v100h65.625c9.505,0,17.611-3.354,24.316-10.059C96.646,83.236,100,75.13,100,65.625V0z"/>
</g>
</g></g><g transform="translate(800,840) scale(0.4,0.4)"><g transform="" style="fill: rgb(0, 0, 0);">
<rect width="100" height="100"/>
</g></g><g transform="translate(880,840) scale(0.4,0.4)"><g transform="" style="fill: rgb(0, 0, 0);">
<g>
	<path d="M100,34.375V0H34.375C24.87,0,16.764,3.353,10.059,10.059S0,24.87,0,34.375v31.25c0,9.505,3.353,17.611,10.059,24.316
		C16.765,96.646,24.87,100,34.375,100H100V34.375z"/>
</g>
</g></g><g transform="translate(920,840) scale(0.4,0.4)"><g transform="" style="fill: rgb(0, 0, 0);">
<g>
	<path d="M100,34.375c0-9.505-3.354-17.611-10.059-24.316C83.236,3.354,75.13,0,65.625,0H0v100h100V34.375z"/>
</g>
</g></g><g transform="translate(320,880) scale(0.4,0.4)"><g transform="" style="fill: rgb(0, 0, 0);">
<g>
	<path d="M100,34.375V0H34.375C24.87,0,16.764,3.353,10.059,10.059S0,24.87,0,34.375v31.25c0,9.505,3.353,17.611,10.059,24.316
		C16.765,96.646,24.87,100,34.375,100H100V34.375z"/>
</g>
</g></g><g transform="translate(360,880) scale(0.4,0.4)"><g transform="" style="fill: rgb(0, 0, 0);">
<rect width="100" height="100"/>
</g></g><g transform="translate(400,880) scale(0.4,0.4)"><g transform="" style="fill: rgb(0, 0, 0);">
<g>
	<path d="M65.625,0H0v100h65.625c9.505,0,17.611-3.354,24.316-10.059C96.646,83.236,100,75.13,100,65.625v-31.25
		c0-9.505-3.354-17.611-10.059-24.316C83.236,3.354,75.13,0,65.625,0z"/>
</g>
</g></g><g transform="translate(480,880) scale(0.4,0.4)"><g transform="" style="fill: rgb(0, 0, 0);">
<rect width="100" height="100"/>
</g></g><g transform="translate(520,880) scale(0.4,0.4)"><g transform="" style="fill: rgb(0, 0, 0);">
<rect width="100" height="100"/>
</g></g><g transform="translate(560,880) scale(0.4,0.4)"><g transform="" style="fill: rgb(0, 0, 0);">
<rect width="100" height="100"/>
</g></g><g transform="translate(600,880) scale(0.4,0.4)"><g transform="" style="fill: rgb(0, 0, 0);">
<rect width="100" height="100"/>
</g></g><g transform="translate(640,880) scale(0.4,0.4)"><g transform="" style="fill: rgb(0, 0, 0);">
<rect width="100" height="100"/>
</g></g><g transform="translate(760,880) scale(0.4,0.4)"><g transform="" style="fill: rgb(0, 0, 0);">
<g>
	<path d="M100,34.375V0H34.375C24.87,0,16.764,3.353,10.059,10.059S0,24.87,0,34.375V100h100V34.375z"/>
</g>
</g></g><g transform="translate(800,880) scale(0.4,0.4)"><g transform="" style="fill: rgb(0, 0, 0);">
<rect width="100" height="100"/>
</g></g><g transform="translate(840,880) scale(0.4,0.4)"><g transform="" style="fill: rgb(0, 0, 0);">
<g>
	<path d="M65.625,0H0v100h65.625c9.505,0,17.611-3.354,24.316-10.059C96.646,83.236,100,75.13,100,65.625v-31.25
		c0-9.505-3.354-17.611-10.059-24.316C83.236,3.354,75.13,0,65.625,0z"/>
</g>
</g></g><g transform="translate(920,880) scale(0.4,0.4)"><g transform="" style="fill: rgb(0, 0, 0);">
<g>
	<path d="M100,0H0v65.625c0,9.505,3.353,17.611,10.059,24.316C16.765,96.646,24.87,100,34.375,100H100V0z"/>
</g>
</g></g><g transform="translate(960,880) scale(0.4,0.4)"><g transform="" style="fill: rgb(0, 0, 0);">
<g>
	<path d="M65.625,0H0v100h65.625c9.505,0,17.611-3.354,24.316-10.059C96.646,83.236,100,75.13,100,65.625v-31.25
		c0-9.505-3.354-17.611-10.059-24.316C83.236,3.354,75.13,0,65.625,0z"/>
</g>
</g></g><g transform="translate(360,920) scale(0.4,0.4)"><g transform="" style="fill: rgb(0, 0, 0);">
<rect width="100" height="100"/>
</g></g><g transform="translate(440,920) scale(0.4,0.4)"><g transform="" style="fill: rgb(0, 0, 0);">
<g>
	<path d="M100,34.375V0H34.375C24.87,0,16.764,3.353,10.059,10.059S0,24.87,0,34.375v31.25c0,9.505,3.353,17.611,10.059,24.316
		C16.765,96.646,24.87,100,34.375,100H100V34.375z"/>
</g>
</g></g><g transform="translate(480,920) scale(0.4,0.4)"><g transform="" style="fill: rgb(0, 0, 0);">
<g>
	<path d="M100,0H0v100h65.625c9.505,0,17.611-3.354,24.316-10.059C96.646,83.236,100,75.13,100,65.625V0z"/>
</g>
</g></g><g transform="translate(560,920) scale(0.4,0.4)"><g transform="" style="fill: rgb(0, 0, 0);">
<rect width="100" height="100"/>
</g></g><g transform="translate(640,920) scale(0.4,0.4)"><g transform="" style="fill: rgb(0, 0, 0);">
<rect width="100" height="100"/>
</g></g><g transform="translate(760,920) scale(0.4,0.4)"><g transform="" style="fill: rgb(0, 0, 0);">
<g>
	<path d="M100,0H0v65.625c0,9.505,3.353,17.611,10.059,24.316C16.765,96.646,24.87,100,34.375,100H100V0z"/>
</g>
</g></g><g transform="translate(800,920) scale(0.4,0.4)"><g transform="" style="fill: rgb(0, 0, 0);">
<g>
	<path d="M100,0H0v100h65.625c9.505,0,17.611-3.354,24.316-10.059C96.646,83.236,100,75.13,100,65.625V0z"/>
</g>
</g></g><g transform="translate(320,960) scale(0.4,0.4)"><g transform="" style="fill: rgb(0, 0, 0);">
<g>
	<path d="M100,34.375V0H34.375C24.87,0,16.764,3.353,10.059,10.059S0,24.87,0,34.375v31.25c0,9.505,3.353,17.611,10.059,24.316
		C16.765,96.646,24.87,100,34.375,100H100V34.375z"/>
</g>
</g></g><g transform="translate(360,960) scale(0.4,0.4)"><g transform="" style="fill: rgb(0, 0, 0);">
<rect width="100" height="100"/>
</g></g><g transform="translate(400,960) scale(0.4,0.4)"><g transform="" style="fill: rgb(0, 0, 0);">
<g>
	<path d="M65.625,0H0v100h65.625c9.505,0,17.611-3.354,24.316-10.059C96.646,83.236,100,75.13,100,65.625v-31.25
		c0-9.505-3.354-17.611-10.059-24.316C83.236,3.354,75.13,0,65.625,0z"/>
</g>
</g></g><g transform="translate(520,960) scale(0.4,0.4)"><g transform="" style="fill: rgb(0, 0, 0);">
<g>
	<path d="M100,34.375V0H34.375C24.87,0,16.764,3.353,10.059,10.059S0,24.87,0,34.375v31.25c0,9.505,3.353,17.611,10.059,24.316
		C16.765,96.646,24.87,100,34.375,100H100V34.375z"/>
</g>
</g></g><g transform="translate(560,960) scale(0.4,0.4)"><g transform="" style="fill: rgb(0, 0, 0);">
<g>
	<path d="M100,0H0v100h65.625c9.505,0,17.611-3.354,24.316-10.059C96.646,83.236,100,75.13,100,65.625V0z"/>
</g>
</g></g><g transform="translate(640,960) scale(0.4,0.4)"><g transform="" style="fill: rgb(0, 0, 0);">
<g>
	<path d="M100,0H0v65.625c0,9.505,3.353,17.611,10.059,24.316C16.765,96.646,24.87,100,34.375,100H100V0z"/>
</g>
</g></g><g transform="translate(680,960) scale(0.4,0.4)"><g transform="" style="fill: rgb(0, 0, 0);">
<rect width="100" height="100"/>
</g></g><g transform="translate(720,960) scale(0.4,0.4)"><g transform="" style="fill: rgb(0, 0, 0);">
<g>
	<path d="M65.625,0H0v100h65.625c9.505,0,17.611-3.354,24.316-10.059C96.646,83.236,100,75.13,100,65.625v-31.25
		c0-9.505-3.354-17.611-10.059-24.316C83.236,3.354,75.13,0,65.625,0z"/>
</g>
</g></g><g transform="translate(840,960) scale(0.4,0.4)"><g transform="" style="fill: rgb(0, 0, 0);">
<g>
	<path d="M100,65.625c0,9.507-3.355,17.611-10.059,24.316C83.236,96.645,75.132,100,65.625,100h-31.25
		c-9.504,0-17.61-3.355-24.315-10.059C3.354,83.236,0,75.132,0,65.625v-31.25c0-9.504,3.353-17.61,10.059-24.315
		C16.766,3.354,24.871,0,34.375,0h31.25c9.508,0,17.613,3.353,24.316,10.059C96.646,16.766,100,24.871,100,34.375V65.625z"/>
</g>
</g></g><g transform="translate(960,960) scale(0.4,0.4)"><g transform="" style="fill: rgb(0, 0, 0);">
<g>
	<path d="M100,65.625c0,9.507-3.355,17.611-10.059,24.316C83.236,96.645,75.132,100,65.625,100h-31.25
		c-9.504,0-17.61-3.355-24.315-10.059C3.354,83.236,0,75.132,0,65.625v-31.25c0-9.504,3.353-17.61,10.059-24.315
		C16.766,3.354,24.871,0,34.375,0h31.25c9.508,0,17.613,3.353,24.316,10.059C96.646,16.766,100,24.871,100,34.375V65.625z"/>
</g>
</g></g><g transform="translate(0,0) scale(2.7450980392157, 2.7450980392157)"><g transform="" style="fill: rgb(0, 0, 0);">
<g>
	<path style="fill:none;" d="M51,16c-19.299,0-35,15.701-35,35s15.701,35,35,35s35-15.701,35-35S70.299,16,51,16z"/>
	<path d="M51,1C23.387,1,1,23.387,1,51s22.387,50,50,50s50-22.387,50-50S78.613,1,51,1z M51,86c-19.299,0-35-15.701-35-35
		s15.701-35,35-35s35,15.701,35,35S70.299,86,51,86z"/>
</g>
</g></g><g transform="translate(720,0) scale(2.7450980392157, 2.7450980392157)"><g transform="" style="fill: rgb(0, 0, 0);">
<g>
	<path style="fill:none;" d="M51,16c-19.299,0-35,15.701-35,35s15.701,35,35,35s35-15.701,35-35S70.299,16,51,16z"/>
	<path d="M51,1C23.387,1,1,23.387,1,51s22.387,50,50,50s50-22.387,50-50S78.613,1,51,1z M51,86c-19.299,0-35-15.701-35-35
		s15.701-35,35-35s35,15.701,35,35S70.299,86,51,86z"/>
</g>
</g></g><g transform="translate(0,720) scale(2.7450980392157, 2.7450980392157)"><g transform="" style="fill: rgb(0, 0, 0);">
<g>
	<path style="fill:none;" d="M51,16c-19.299,0-35,15.701-35,35s15.701,35,35,35s35-15.701,35-35S70.299,16,51,16z"/>
	<path d="M51,1C23.387,1,1,23.387,1,51s22.387,50,50,50s50-22.387,50-50S78.613,1,51,1z M51,86c-19.299,0-35-15.701-35-35
		s15.701-35,35-35s35,15.701,35,35S70.299,86,51,86z"/>
</g>
</g></g><g transform="translate(80,80) scale(1.1764705882353, 1.1764705882353)"><g transform="" style="fill: rgb(0, 0, 0);">
<circle cx="50" cy="50" r="50"/>
</g></g><g transform="translate(800,80) scale(1.1764705882353, 1.1764705882353)"><g transform="" style="fill: rgb(0, 0, 0);">
<circle cx="50" cy="50" r="50"/>
</g></g><g transform="translate(80,800) scale(1.1764705882353, 1.1764705882353)"><g transform="" style="fill: rgb(0, 0, 0);">
<circle cx="50" cy="50" r="50"/>
</g></g></g></svg>