<?xml version="1.0" encoding="UTF-8" standalone="no"?>
<svg
   xmlns:dc="http://purl.org/dc/elements/1.1/"
   xmlns:cc="http://creativecommons.org/ns#"
   xmlns:rdf="http://www.w3.org/1999/02/22-rdf-syntax-ns#"
   xmlns:svg="http://www.w3.org/2000/svg"
   xmlns="http://www.w3.org/2000/svg"
   xml:space="preserve"
   style="enable-background:new 0 0 100 100;"
   viewBox="0 0 100 100"
   y="0px"
   x="0px"
   id="ic_dark_staking_on"
   version="1.1"><metadata
   id="metadata30"><rdf:RDF><cc:Work
       rdf:about=""><dc:format>image/svg+xml</dc:format><dc:type
         rdf:resource="http://purl.org/dc/dcmitype/StillImage" /><dc:title></dc:title></cc:Work></rdf:RDF></metadata><defs
   id="defs28"><pattern
     y="0"
     x="0"
     height="6"
     width="6"
     patternUnits="userSpaceOnUse"
     id="EMFhbasepattern" /></defs>
<style
   id="style2"
   type="text/css">
	.st0{fill:#2EA1FF;}
	.st1{fill:#A09EA5;}
</style>

<g
   id="Group_9053">
	<g
   style="stroke:#6666ff;stroke-opacity:1;fill:#009dff;fill-opacity:1"
   id="Group_9051">
		<ellipse
   style="fill:#009dff;fill-opacity:1;stroke:#6666ff;stroke-opacity:1"
   ry="4"
   rx="12"
   cy="56"
   cx="80"
   class="st0"
   id="Ellipse_640" />
		<ellipse
   style="fill:#009dff;fill-opacity:1;stroke:#6666ff;stroke-opacity:1"
   ry="4"
   rx="12"
   cy="68"
   cx="64"
   class="st0"
   id="Ellipse_641" />
		<path
   style="fill:#009dff;fill-opacity:1;stroke:#6666ff;stroke-opacity:1"
   d="M32,24h14v14H32V24z"
   class="st0"
   id="Rectangle_4706" />
	</g>
	<g
   id="Group_9052">
		<path
   d="M12,60h2v4h-2V60z"
   class="st1"
   id="Rectangle_4707" />
		<path
   d="M92,58c0.6-0.5,0.9-1.2,1-2c0-3.3-6.5-5-13-5s-13,1.7-13,5c0,0.8,0.4,1.5,1,2    c-1.1,0.9-1.3,2.5-0.4,3.6c0.1,0.1,0.2,0.3,0.4,0.4c-0.3,0.3-0.6,0.7-0.8,1.2c-0.4,0-0.8-0.1-1.2-0.1V39h5V23H52.6    c3.9-3.1,4.5-8.8,1.4-12.6S45.2,5.9,41.4,9c-1,0.8-1.8,1.8-2.4,2.9C36.7,7.5,31.3,5.7,26.9,8s-6.2,7.7-3.9,12.1    c0.6,1.1,1.4,2.1,2.4,2.9H7v16h5v17h2V39h50v24c-6.5,0-13,1.7-13,5c0,0.8,0.4,1.5,1,2c-1.1,0.9-1.3,2.5-0.4,3.6    c0.1,0.1,0.2,0.3,0.4,0.4c-0.3,0.3-0.6,0.6-0.7,1H14v-7h-2v9h39.2c0.2,0.4,0.4,0.7,0.7,1c-1.1,0.9-1.3,2.5-0.4,3.6    c0.1,0.1,0.2,0.3,0.4,0.4c-1.1,0.9-1.3,2.5-0.4,3.6c0.1,0.1,0.2,0.3,0.4,0.4c-0.6,0.5-0.9,1.2-1,2c0,3.3,6.5,5,13,5    c5.9,0,11.8-1.4,12.8-4.2c1,0.1,2.1,0.2,3.2,0.2c6.5,0,13-1.7,13-5c0-0.8-0.4-1.5-1-2c1.1-0.9,1.3-2.5,0.4-3.6    c-0.1-0.1-0.2-0.3-0.4-0.4c1.1-0.9,1.3-2.5,0.4-3.6c-0.1-0.1-0.2-0.3-0.4-0.4c1.1-0.9,1.3-2.5,0.4-3.6c-0.1-0.1-0.2-0.3-0.4-0.4    c1.1-0.9,1.3-2.5,0.4-3.6c-0.1-0.1-0.2-0.3-0.4-0.4c1.1-0.9,1.3-2.5,0.4-3.6c-0.1-0.1-0.2-0.3-0.4-0.4c1.1-0.9,1.3-2.5,0.4-3.6    C92.3,58.2,92.2,58.1,92,58z M31,37H9V25h22V37z M24,16c0-3.9,3.1-7,7-7s7,3.1,7,7v7h-7C27.1,23,24,19.9,24,16z M45,37H33V25h12    V37z M40,23v-7c0-3.9,3.1-7,7-7s7,3.1,7,7s-3.1,7-7,7H40z M47,37V25h22v12H47z M51,76c0,0.2,0,0.3,0.1,0.5C51,76.3,51,76.2,51,76z     M64,91c-7.1,0-11-2-11-3c0-0.2,0.2-0.5,0.7-0.8C56.2,88.4,60.1,89,64,89s7.8-0.6,10.3-1.8c0.4,0.3,0.7,0.6,0.7,0.8    C75,89,71.1,91,64,91z M64,87c-7.1,0-11-2-11-3c0-0.2,0.2-0.5,0.7-0.8C56.2,84.4,60.1,85,64,85s7.8-0.6,10.3-1.8    c0.4,0.3,0.7,0.6,0.7,0.8C75,85,71.1,87,64,87z M64,83c-7.1,0-11-2-11-3c0-0.2,0.2-0.5,0.7-0.8C56.2,80.4,60.1,81,64,81    s7.8-0.6,10.3-1.8c0.4,0.3,0.7,0.6,0.7,0.8C75,81,71.1,83,64,83z M64,79c-7.1,0-11-2-11-3c0-0.2,0.2-0.5,0.7-0.8    C56.2,76.4,60.1,77,64,77s7.8-0.6,10.3-1.8c0.4,0.3,0.7,0.6,0.7,0.8C75,77,71.1,79,64,79z M64,75c-7.1,0-11-2-11-3    c0-0.2,0.2-0.5,0.7-0.8C56.2,72.4,60.1,73,64,73s7.8-0.6,10.3-1.8c0.4,0.3,0.7,0.6,0.7,0.8C75,73,71.1,75,64,75z M64,71    c-7.1,0-11-2-11-3s3.9-3,11-3s11,2,11,3S71.1,71,64,71z M80,87c-1.2,0-2.3-0.1-3.3-0.2c-0.2-0.3-0.4-0.6-0.6-0.8    c0.3-0.3,0.6-0.7,0.8-1.2c1,0.1,2.1,0.2,3.2,0.2c3.9,0,7.8-0.6,10.3-1.8c0.4,0.3,0.7,0.6,0.7,0.8C91,85,87.1,87,80,87z M80,83    c-1.2,0-2.3-0.1-3.3-0.2c-0.2-0.3-0.4-0.6-0.6-0.8c0.3-0.3,0.6-0.7,0.8-1.2c1,0.1,2.1,0.2,3.2,0.2c3.9,0,7.8-0.6,10.3-1.8    c0.4,0.3,0.7,0.6,0.7,0.8C91,81,87.1,83,80,83z M80,79c-1.2,0-2.3-0.1-3.3-0.2c-0.2-0.3-0.4-0.6-0.6-0.8c0.3-0.3,0.6-0.7,0.8-1.2    c1,0.1,2.1,0.2,3.2,0.2c3.9,0,7.8-0.6,10.3-1.8c0.4,0.3,0.7,0.6,0.7,0.8C91,77,87.1,79,80,79z M80,75c-1.2,0-2.3-0.1-3.3-0.2    c-0.2-0.3-0.4-0.6-0.6-0.8c0.3-0.3,0.6-0.7,0.8-1.2c1,0.1,2.1,0.2,3.2,0.2c3.9,0,7.8-0.6,10.3-1.8c0.4,0.3,0.7,0.6,0.7,0.8    C91,73,87.1,75,80,75z M80,71c-1.2,0-2.3-0.1-3.3-0.2c-0.2-0.3-0.4-0.6-0.6-0.8c0.3-0.3,0.6-0.7,0.8-1.2c1,0.1,2.1,0.2,3.2,0.2    c3.9,0,7.8-0.6,10.3-1.8c0.4,0.3,0.7,0.6,0.7,0.8C91,69,87.1,71,80,71z M80,67c-1.2,0-2.3-0.1-3.3-0.2c-0.6-1.2-2.2-2.1-4.2-2.7    c2.5,0.6,5,0.9,7.5,0.9c3.9,0,7.8-0.6,10.3-1.8c0.4,0.3,0.7,0.6,0.7,0.8C91,65,87.1,67,80,67z M69.4,63.4c0.1-0.1,0.2-0.2,0.3-0.3    c0.6,0.3,1.2,0.5,1.8,0.7C70.8,63.7,70.1,63.5,69.4,63.4z M80,63c-7.1,0-11-2-11-3c0-0.2,0.2-0.5,0.7-0.8C72.2,60.4,76.1,61,80,61    s7.8-0.6,10.3-1.8c0.4,0.3,0.7,0.6,0.7,0.8C91,61,87.1,63,80,63z M80,59c-7.1,0-11-2-11-3s3.9-3,11-3s11,2,11,3S87.1,59,80,59z"
   class="st1"
   id="Path_19001" />
	</g>
<path
   style="fill:#009dff;fill-opacity:1;stroke-width:0.0349087"
   id="path8"
   d="M 52.725425,52.770825 A 5.6007251,5.6007251 0 0 0 50.561096,50.673867 5.7913258,5.7913258 0 0 0 49.978823,50.3946 5.9613303,5.9613303 0 0 0 48.922131,50.065754 6.8420724,6.8420724 0 0 0 47.476917,49.917747 q -1.710519,0 -3.100923,0.765196 -0.176985,0.09734 -0.343841,0.204219 l 0.381193,1.119514 a 4.6243335,4.6243335 0 0 1 0.588555,-0.387836 q 1.11045,-0.616827 2.476065,-0.617178 a 5.3881321,5.3881321 0 0 1 1.090895,0.107543 4.7283609,4.7283609 0 0 1 1.053544,0.345255 q 0.164418,0.07607 0.323247,0.164417 a 4.4682923,4.4682923 0 0 1 1.727279,1.710519 q 0.624509,1.094027 0.624858,2.443596 3.49e-4,1.349569 -0.624858,2.443597 a 4.4682923,4.4682923 0 0 1 -1.727279,1.710519 4.814585,4.814585 0 0 1 -1.81874,0.580175 5.7166214,5.7166214 0 0 1 -0.634984,0.03673 h -0.01458 c -0.219923,0 -0.649646,-0.05407 -0.878649,-0.0851 A 1.4263627,1.4263627 0 0 1 46.16235,60.331823 1.5268992,1.5268992 0 0 1 45.391571,59.454572 L 42.177897,50.016361 H 41.04302 l -3.438496,9.902857 -2.277433,-6.612723 A 4.1677297,4.1677297 0 0 0 34.559112,51.952393 5.5721,5.5721 0 0 0 33.320547,50.877556 Q 33.154031,50.770455 32.978791,50.674044 A 5.9271198,5.9271198 0 0 0 32.1965,50.314477 6.0761792,6.0761792 0 0 0 31.501823,50.10224 6.7879642,6.7879642 0 0 0 29.894279,49.916884 q -1.71052,0 -3.100575,0.765197 -1.390053,0.765196 -2.171659,2.097307 -0.779859,1.333145 -0.779859,2.993752 0,1.660591 0.781257,2.9941 0.780557,1.332111 2.171662,2.096958 1.391102,0.764846 3.100572,0.764846 1.710519,0 3.084512,-0.756466 a 5.6108486,5.6108486 0 0 0 1.683646,-1.401583 l -0.480347,-1.42463 c -0.02827,0.05727 -0.05931,0.113816 -0.09153,0.170006 a 4.4682923,4.4682923 0 0 1 -1.727612,1.710525 q -1.102422,0.617178 -2.467337,0.616827 -1.364929,-3.49e-4 -2.477115,-0.616478 a 4.503201,4.503201 0 0 1 -1.745422,-1.710519 q -0.633937,-1.094026 -0.633237,-2.443595 6.85e-4,-1.349569 0.633237,-2.443598 a 4.5049461,4.5049461 0 0 1 1.745422,-1.710519 q 1.110786,-0.616826 2.475716,-0.617178 1.112185,0 2.049477,0.410165 0.213297,0.09327 0.41891,0.207024 0.180475,0.101292 0.347337,0.215042 c 0.03496,0.02405 0.0698,0.04881 0.104782,0.07359 0.690145,0.496742 1.198766,1.20643 1.479767,2.008977 l 1.33106,3.798748 1.28638,3.814808 h 1.266837 l 3.388919,-9.820817 2.823403,8.221651 a 2.3968198,2.3968198 0 0 0 1.820125,1.585554 l 0.01502,0.0029 a 6.7973897,6.7973897 0 0 0 0.899941,0.10085 q 0.174534,0.0088 0.349087,0.0088 0.13714,0 0.272637,-0.0044 1.548902,-0.05553 2.811542,-0.751588 a 5.596536,5.596536 0 0 0 2.164331,-2.097306 q 0.789622,-1.340489 0.789622,-3.002132 0,-1.66164 -0.789973,-3.00178 z"
   class="cls-1" /></g>

</svg>