<?xml version="1.0" encoding="UTF-8" standalone="no"?>
<svg
   xmlns:dc="http://purl.org/dc/elements/1.1/"
   xmlns:cc="http://creativecommons.org/ns#"
   xmlns:rdf="http://www.w3.org/1999/02/22-rdf-syntax-ns#"
   xmlns:svg="http://www.w3.org/2000/svg"
   xmlns="http://www.w3.org/2000/svg"
   id="Layer_1"
   data-name="Layer 1"
   viewBox="0 0 511.99999 512.00001"
   version="1.1"
   width="512"
   height="512">
  <metadata
     id="metadata33">
    <rdf:RDF>
      <cc:Work
         rdf:about="">
        <dc:format>image/svg+xml</dc:format>
        <dc:type
           rdf:resource="http://purl.org/dc/dcmitype/StillImage" />
        <dc:title></dc:title>
      </cc:Work>
    </rdf:RDF>
  </metadata>
  <defs
     id="defs4">
    <style
       id="style2">.cls-1,.cls-3{fill:#222333;}.cls-2{fill:#e62fac;}.cls-3{stroke:#019def;stroke-miterlimit:10;stroke-width:8px;}.cls-4{fill:#7d3ecf;}.cls-5{fill:#f2f2f2;}</style>
  </defs>
  <g
     transform="matrix(0.89294495,0,0,0.89294495,27.406093,49.406093)"
     id="g1642">
    <g
       id="g849"
       transform="translate(21.62,-24.166438)"
       style="fill:#ffffff">
      <path
         class="cls-1"
         d="m 56.89,512.00001 -7.68,-12.9 H 24.96 l 4.23,-7.23 h 15.72 l -11.46,-19.21 -23.23,39.34 H 0 l 29.45,-49.07 c 1.06,-1.76 2.4,-2.89 4.37,-2.89 1.97,0 3.24,1.13 4.3,2.89 l 29.54,49.07 z"
         id="path6"
         style="fill:#ffffff" />
      <path
         class="cls-1"
         d="m 90.81,512.00001 v -51.25 h 45.75 v 8.95 H 99.69 v 33.35 h 36.94 v 8.95 z m 15.44,-22.28 v -7.54 h 28.41 v 7.54 z"
         id="path8"
         style="fill:#ffffff" />
      <path
         class="cls-1"
         d="m 165.45,512.00001 c -2.68,0 -5.08,-1.55 -5.08,-4.58 a 5.42,5.42 0 0 1 1.84,-3.81 l 34,-34.33 h -35.25 v -8.53 h 44.83 c 2.61,0 5.08,1.55 5.08,4.58 a 5.44,5.44 0 0 1 -1.83,3.81 l -34.05,34.33 h 35.67 v 8.53 z"
         id="path10"
         style="fill:#ffffff" />
      <path
         class="cls-1"
         d="m 259.52,512.00001 c -14.31,0 -24.89,-11.28 -24.89,-26.15 0,-15.09 10.58,-25.1 24.89,-25.1 h 12.47 c 14.81,0 25.1,10.22 25.1,25.1 0,14.88 -10.5,26.15 -25.1,26.15 z m 12.47,-8.95 c 9.45,0 16.15,-7.12 16.15,-16.78 0,-9.66 -6.7,-16.57 -16.15,-16.57 h -12.47 c -9.17,0 -15.94,6.84 -15.94,16.57 0,9.73 6.7,16.78 15.94,16.78 z"
         id="path12"
         style="fill:#ffffff" />
      <path
         class="cls-1"
         d="m 369.57,512.00001 -13,-14.24 h -19.12 v -7.89 h 21.36 c 6.42,0 9.8,-3.66 9.8,-10.29 0,-6.63 -3.67,-9.87 -9.8,-9.87 h -27.94 v 42.3 h -8.89 v -51.26 h 36.8 c 11.7,0 18.61,7.26 18.61,18.68 0,8.46 -3.94,14.45 -10.57,17 l 15.44,15.58 z"
         id="path14"
         style="fill:#ffffff" />
      <path
         class="cls-1"
         d="m 457.98,512.00001 -7.69,-12.9 h -24.25 l 4.23,-7.26 h 15.72 l -11.42,-19.18 -23.26,39.34 h -10.22 l 29.46,-49.07 c 1.06,-1.76 2.4,-2.89 4.37,-2.89 1.97,0 3.25,1.13 4.3,2.89 l 29.54,49.07 z"
         id="path16"
         style="fill:#ffffff" />
    </g>
    <g
       id="g857"
       transform="translate(21.62,-24.166438)">
      <path
         class="cls-2"
         d="m 97.77,340.87001 c -64.32,-51.83 -73.63,-137.86 -23.41,-197.22 -3.07,2.62 -6.07,5.33 -8.94,8.21 -59.17,59.34 -52.31,151.62 15.33,206.09 67.64,54.47 170.42,50.52 229.59,-8.83 2.87,-2.87 5.54,-5.85 8.1,-8.88 -60.15,51.36 -156.31,52.46 -220.67,0.63 z"
         id="path18"
         style="fill:#e62fac" />
      <circle
         class="cls-3"
         cx="253.62"
         cy="239.13"
         r="148.32001"
         id="circle20"
         style="fill:#222333;stroke:#019def;stroke-width:8px;stroke-miterlimit:10" />
      <path
         class="cls-4"
         d="m 173.39,49.920007 a 29,29 0 0 0 -29.89,6.79 l -29,28.46 -59.56,-26.15 -11.49,11.3 48.11,37.450003 -26.4,25.95 -17.04,-5.85 -11.49,11.3 28.34,17.34 16.85,28.63 11.49,-11.27 -5.55,-17.14 26.4,-25.95 36.62,48.75 11.49,-11.3 -25.13,-60 29,-28.470003 a 29,29 0 0 0 7.25,-29.84 z"
         id="path22"
         style="fill:#7d3ecf" />
      <path
         class="cls-4"
         d="m 103.45,56.590007 a 8.06,8.06 0 0 0 -11.4,-0.1 l -7,6.91 15.9,7 2.43,-2.39 a 8.05,8.05 0 0 0 0.07,-11.42 z"
         id="path24"
         style="fill:#7d3ecf" />
      <circle
         class="cls-4"
         cx="165.41"
         cy="119.37001"
         r="9.5"
         id="circle26"
         style="fill:#7d3ecf" />
      <path
         class="cls-5"
         d="m 310.92,296.34001 -19.61,-32.92 h -61.86 l 10.77,-18.55 h 40.12 l -29.14,-48.93 -59.37,100.4 h -26.09 l 75.2,-125.21 c 2.7,-4.5 6.12,-7.38 11.16,-7.38 5.04,0 8.27,2.88 11,7.38 l 75.35,125.21 z"
         id="path28"
         style="fill:#f2f2f2" />
    </g>
  </g>
</svg>
