<?xml version="1.0" encoding="UTF-8" standalone="no"?>
<svg
   xmlns:dc="http://purl.org/dc/elements/1.1/"
   xmlns:cc="http://creativecommons.org/ns#"
   xmlns:rdf="http://www.w3.org/1999/02/22-rdf-syntax-ns#"
   xmlns:svg="http://www.w3.org/2000/svg"
   xmlns="http://www.w3.org/2000/svg"
   height="512"
   width="512"
   version="1.1"
   viewBox="0 0 512.00001 511.99999"
   data-name="Layer 1"
   id="Layer_1">
  <metadata
     id="metadata17">
    <rdf:RDF>
      <cc:Work
         rdf:about="">
        <dc:format>image/svg+xml</dc:format>
        <dc:type
           rdf:resource="http://purl.org/dc/dcmitype/StillImage" />
        <dc:title></dc:title>
      </cc:Work>
    </rdf:RDF>
  </metadata>
  <defs
     id="defs4">
    <style
       id="style2">.cls-1{fill:#8e1baa;}</style>
  </defs>
  <g
     transform="matrix(0.8416754,0,0,0.8416754,27.22421,-7.3349718)"
     id="g834">
    <path
       class="cls-1"
       d="m 270.64,129.73999 c 66.77,109.5 62.65,231.28 3.38,330.87 -55.07,-78.36 -75.5,-211.85 -3.38,-330.87 z"
       id="path6"
       style="fill:#8e1baa" />
    <path
       class="cls-1"
       d="m 251.32,470.09999 c -123.57,5.73 -201.15,-77 -235.32,-164.55 21.33,-5.4 42.6,-3.32 63.74,1 13.82,2.82 27.42,7 41.21,10.07 7.6,1.68 9.57,8.77 12.84,15.13 10.06,19.55 19.34,39.81 30.91,58.1 16.83,26.59 39.22,46.59 63.12,64.17 7.29,5.37 14.88,10.23 23.5,16.08 z"
       id="path8"
       style="fill:#8e1baa" />
    <path
       class="cls-1"
       d="m 123.13,177.61999 c 25.79,14.36 49.78,30.42 69.65,53.68 6.16,7.21 12.95,13.85 18.32,21.78 2.47,3.64 2.94,9.75 3,14.77 0.33,17.67 0,35.36 0.12,53 0.16,23.51 5.4,46 12.72,67.49 7.86,23.16 17.48,45.51 25.39,65.81 -84.83,-46.6 -139.93,-154.02 -129.2,-276.53 z"
       id="path10"
       style="fill:#8e1baa" />
    <path
       class="cls-1"
       d="m 293.56,453.88999 c 7,-17.91 15,-35.14 20.51,-53.4 a 441.53,441.53 0 0 0 13.64,-60.49 c 2.73,-18 2.87,-36.57 3.6,-54.92 a 83.4,83.4 0 0 0 -1.74,-21.25 c -2,-8.77 2.14,-14.2 6.54,-19.08 11.49,-12.74 22.76,-26 35.46,-37 15,-13 31.45,-23.74 48,-36 10.24,146.08 -54.34,240.1 -126.01,282.14 z"
       id="path12"
       style="fill:#8e1baa" />
    <path
       class="cls-1"
       d="m 297.54,467.63999 a 256.48,256.48 0 0 0 71.93,-64.48 c 17,-22.21 32.59,-46.08 41.07,-74.63 4.35,-14.65 15.22,-16.81 25.11,-19.77 19.37,-5.8 39,-10.67 59.3,-9.91 10.84,0.41 21.7,0.07 32.67,0.07 -28.03,87.04 -114.88,177.33 -230.08,168.72 z"
       id="path14"
       style="fill:#8e1baa" />
    <path
       class="cls-1"
       d="m 191.05,140.14999 c 9.43,10.9 16.53,21 25.23,28.7 11.83,10.47 15,21.75 7.77,37.1 -2.26,4.8 -3.54,10.29 -4.85,15.61 -1.31,5.32 -2,10.56 -2.93,15.39 -11.32,-11.65 -22.36,-22.69 -33,-34.24 -2.13,-2.31 -4.31,-7 -3.77,-9.82 3.2,-16.75 7.19,-33.29 11.55,-52.74 z"
       id="path16"
       style="fill:#8e1baa" />
    <path
       class="cls-1"
       d="m 350.18,139.24999 c 4.63,20.41 8.63,37.82 12.42,55.28 a 6.69,6.69 0 0 1 -1.22,5 c -11.67,12 -23.5,23.83 -35.14,35.56 -4.64,-15.07 -9.52,-30.75 -14.22,-46.5 a 5.67,5.67 0 0 1 0.94,-4.27 c 8.57,-10.24 17.32,-20.26 25.92,-30.47 3.39,-4 6.5,-8.34 11.3,-14.6 z"
       id="path18"
       style="fill:#8e1baa" />
    <path
       class="cls-1"
       d="m 56.86,233.64999 c 13.72,4.61 27.35,9.65 41.2,13.67 7.48,2.18 11,5.86 11.94,15.49 1.24,12.58 4.91,24.84 7.64,37.75 l -49.83,-10.78 c -4.11,-16.44 -8.83,-35.36 -13.56,-54.27 z"
       id="path20"
       style="fill:#8e1baa" />
    <path
       class="cls-1"
       d="m 487.6,232.76999 c -3.87,17.24 -6.81,32.35 -10.89,47 -1,3.47 -5.5,6.95 -8.92,7.93 -13.3,3.79 -26.8,6.58 -40.23,9.7 a 7.83,7.83 0 0 1 -2.38,-0.2 c 2.6,-15 5.08,-29.82 7.9,-44.58 0.27,-1.4 2.64,-2.69 4.23,-3.23 16.15,-5.41 32.34,-10.7 50.29,-16.62 z"
       id="path22"
       style="fill:#8e1baa" />
    <rect
       class="cls-1"
       x="269.71002"
       y="179.74998"
       width="7.1999998"
       height="316.25"
       id="rect24"
       style="fill:#8e1baa" />
  </g>
</svg>
