<?xml version="1.0" encoding="utf-8"?>
<!-- Generator: Adobe Illustrator 26.1.0, SVG Export Plug-In . SVG Version: 6.00 Build 0)  -->
<svg version="1.1" id="Layer_1" xmlns="http://www.w3.org/2000/svg" xmlns:xlink="http://www.w3.org/1999/xlink" x="0px" y="0px"
	 viewBox="0 0 256 256" style="enable-background:new 0 0 256 256;" xml:space="preserve">
<style type="text/css">
	.st0{fill:#FFFFFF;}
</style>
<path class="st0" d="M91.9,45c-14.4-0.3-26,11.6-25.7,25.8c0,3,1.5,5.2,4.1,6.7c10.1,5.6,20.3,11.2,30.4,16.9
	c15.9,8.8,31.8,17.6,47.6,26.6c8.6,4.8,13.4,12.4,14.7,22.1c0.2,1.8,0.4,2,2.1,1.1c4.9-2.7,9.7-5.4,14.6-8.1c3-1.7,5.8-3.6,8.1-6.2
	c10.5-12.4,7.6-30.2-6.3-38.4c-8.3-4.9-16.8-9.4-25.2-14.1c-16.8-9.3-33.6-18.6-50.4-28C101.2,46.8,96.6,44.8,91.9,45z M155.3,147.4
	c-0.5-8.8-4-14.9-10.7-19c-2.4-1.5-5-2.8-7.5-4.2c-11.9-6.6-23.7-13.2-35.6-19.8c-2.7-1.5-5.5-3.1-8.4-3.9
	c-14.8-3.8-26.1,7.3-26.9,18.9c-0.2,3.2,0.6,5.1,3.6,6.7c14.1,7.7,28.1,15.5,42.2,23.3c6,3.4,10.1,8.4,12.4,14.9
	c0.6,1.8,0.8,1.8,2.5,0.9c8.6-4.8,17.1-9.6,25.8-14.3C154.6,150,155.6,148.7,155.3,147.4z M66.2,166.3c0.1,1.3,0.2,2.5,0.4,3.8
	c2.7,12.9,16.5,19.2,28.2,12.9c7-3.8,14-7.8,21-11.6c1.1-0.6,1.3-1.3,1-2.5c-1.3-5.2-4.4-9.1-8.8-11.8c-4.6-2.8-9.3-5.3-14-7.8
	C81.4,142.9,66.4,152.1,66.2,166.3z"/>
</svg>
