<?xml version="1.0" encoding="UTF-8" standalone="no"?>
<svg
   version="1.1"
   id="ic_empty_Dark_transactions"
   inkscape:version="1.1 (c68e22c387, 2021-05-23)"
   sodipodi:docname="img-empty-dark-transactions.svg"
   x="0px"
   y="0px"
   viewBox="0 0 100 100"
   style="enable-background:new 0 0 100 100;"
   xml:space="preserve"
   xmlns:inkscape="http://www.inkscape.org/namespaces/inkscape"
   xmlns:sodipodi="http://sodipodi.sourceforge.net/DTD/sodipodi-0.dtd"
   xmlns="http://www.w3.org/2000/svg"
   xmlns:svg="http://www.w3.org/2000/svg"
   xmlns:rdf="http://www.w3.org/1999/02/22-rdf-syntax-ns#"
   xmlns:cc="http://creativecommons.org/ns#"
   xmlns:dc="http://purl.org/dc/elements/1.1/"><metadata
   id="metadata34"><rdf:RDF><cc:Work
       rdf:about=""><dc:format>image/svg+xml</dc:format><dc:type
         rdf:resource="http://purl.org/dc/dcmitype/StillImage" /></cc:Work></rdf:RDF></metadata><defs
   id="defs32"><pattern
     id="EMFhbasepattern"
     patternUnits="userSpaceOnUse"
     width="6"
     height="6"
     x="0"
     y="0" /></defs>
<style
   type="text/css"
   id="style2">
	.st0{fill:#2EA1FF;}
	.st1{fill:#A09EA5;}
	.st2{fill:#EFEFEF;}
</style>
<sodipodi:namedview
   bordercolor="#666666"
   borderopacity="1"
   gridtolerance="10"
   guidetolerance="10"
   id="namedview22"
   inkscape:current-layer="Group_9036"
   inkscape:cx="33.939698"
   inkscape:cy="42.86262"
   inkscape:pageopacity="0"
   inkscape:pageshadow="2"
   inkscape:window-height="2066"
   inkscape:window-width="3840"
   inkscape:zoom="12.271765"
   objecttolerance="10"
   pagecolor="#ffffff"
   showgrid="false"
   inkscape:document-rotation="0"
   inkscape:window-x="3829"
   inkscape:window-y="-11"
   inkscape:window-maximized="1"
   inkscape:pagecheckerboard="0">
	</sodipodi:namedview>
<g
   id="Group_9036">
	<circle
   class="st0"
   cx="50.02578"
   cy="50"
   id="circle5"
   r="17.9"
   style="fill:#22252e;fill-opacity:1" /><path
   class="cls-1"
   d="m 57.625025,51.463515 q -0.896729,-1.146078 -2.823374,-1.836819 2.425345,-1.393876 2.425345,-3.661246 0,-1.793455 -1.448083,-3.123832 -1.448081,-1.330375 -3.75572,-1.330375 h -2.273567 v -4.980782 c 0,-0.07123 -0.235409,-0.1301 -0.525025,-0.1301 -0.289617,0 -0.52038,0.0573 -0.52038,0.12855 v 4.982334 H 47.15547 V 38.54229 c 0,-0.06351 -0.23541,-0.113049 -0.525027,-0.113049 -0.289616,0 -0.52038,0.04955 -0.52038,0.111524 v 2.970495 h -1.847658 a 0.94473789,0.94473789 0 0 0 -0.631891,0.168824 0.61950025,0.61950025 0 0 0 0,0.896726 0.94473789,0.94473789 0 0 0 0.631891,0.168823 h 1.660259 v 14.731719 h -1.660259 a 0.94473789,0.94473789 0 0 0 -0.631891,0.168824 0.56994022,0.56994022 0 0 0 -0.190501,0.447591 0.57613525,0.57613525 0 0 0 0.190501,0.441392 0.9168604,0.9168604 0 0 0 0.631891,0.176553 h 1.849207 v 3.562123 c 0,0.06199 0.230765,0.111582 0.514186,0.111582 h 0.0217 c 0.281872,0 0.509538,-0.04959 0.509538,-0.109931 v -3.562159 h 1.548751 v 4.907994 c 0,0.06966 0.229215,0.126922 0.512638,0.126922 h 0.02322 c 0.280325,0 0.50954,-0.05577 0.50954,-0.12545 v -4.909549 h 3.741779 a 5.0752557,5.0752557 0 0 0 2.632878,-0.720167 4.8894059,4.8894059 0 0 0 1.801198,-1.742346 4.4480118,4.4480118 0 0 0 0.588523,-2.256529 4.0128128,4.0128128 0 0 0 -0.890533,-2.530658 z m -5.575502,-8.717919 q 1.750087,0 2.83731,0.97881 1.087223,0.978811 1.084126,2.138827 a 2.9147486,2.9147486 0 0 1 -0.500246,1.587468 3.2043651,3.2043651 0 0 1 -1.393874,1.190988 6.2615987,6.2615987 0 0 1 -2.558538,0.514187 h -1.768675 v -6.41028 z m -3.348399,0 v 6.41028 h -1.54875 v -6.41028 z m -1.54875,14.731717 v -7.071595 h 1.54875 v 7.071595 z m 9.659556,-1.838369 a 3.7433303,3.7433303 0 0 1 -1.338123,1.308695 3.9524116,3.9524116 0 0 1 -2.073775,0.529674 h -3.650406 v -7.071595 h 1.84766 q 2.042804,0 3.204365,0.455331 a 4.0128128,4.0128128 0 0 1 1.815137,1.338121 3.0231611,3.0231611 0 0 1 0.655121,1.822881 3.1594514,3.1594514 0 0 1 -0.455334,1.616893 z"
   id="path6"
   style="fill:#eeb91c;stroke:#eeb91c;stroke-width:0.743484;stroke-miterlimit:4;stroke-dasharray:none;stroke-opacity:1" />
	<path
   id="Path_18988"
   class="st0"
   d="M50,26c-13.3,0-24,10.7-24,24s10.7,24,24,24s24-10.7,24-24S63.3,26,50,26z M50,68   c-9.9,0-18-8.1-18-18s8.1-18,18-18s18,8.1,18,18S59.9,68,50,68z"
   style="fill:#22252e;fill-opacity:1" />
	<g
   id="Group_9035">
		<g
   id="Group_9034">
			
			<path
   id="Rectangle_4693"
   class="st1"
   d="M83,56h2v4h-2V56z" />
			<path
   id="Rectangle_4694"
   class="st1"
   d="M83,44h2v8h-2V44z" />
			<path
   id="Rectangle_4695"
   class="st1"
   d="M15,48h2v8h-2V48z" />
			<path
   id="Rectangle_4696"
   class="st1"
   d="M15,40h2v4h-2V40z" />
			<path
   id="Path_18991"
   class="st1"
   d="M95.2,71H85v-7h-2v9h7.8L76,90.5L61.2,73H68v-2h-4.5c11.6-7.5,15-22.9,7.5-34.5     c-6.4-9.9-18.9-14-29.9-9.8L24,6.5L4.8,29H15v7h2v-9H9.2L24,9.5L38.8,27H32v2h4.5c-11.6,7.5-15,22.9-7.5,34.5     c6.4,9.9,18.9,14,29.9,9.8L76,93.5L95.2,71z M27,50c0-12.7,10.3-23,23-23s23,10.3,23,23S62.7,73,50,73S27,62.7,27,50z" />
		</g>
	</g>
	
</g>
</svg>
