<?xml version="1.0" encoding="UTF-8" standalone="no"?>
<svg
   xmlns:dc="http://purl.org/dc/elements/1.1/"
   xmlns:cc="http://creativecommons.org/ns#"
   xmlns:rdf="http://www.w3.org/1999/02/22-rdf-syntax-ns#"
   xmlns:svg="http://www.w3.org/2000/svg"
   xmlns="http://www.w3.org/2000/svg"
   xmlns:sodipodi="http://sodipodi.sourceforge.net/DTD/sodipodi-0.dtd"
   xmlns:inkscape="http://www.inkscape.org/namespaces/inkscape"
   version="1.1"
   id="ic_empty_zpiv"
   x="0px"
   y="0px"
   viewBox="0 0 100 100"
   style="enable-background:new 0 0 100 100;"
   xml:space="preserve"
   sodipodi:docname="img-empty-privacy.svg"
   inkscape:version="0.92.4 (5da689c313, 2019-01-14)"><sodipodi:namedview
   pagecolor="#ffffff"
   bordercolor="#666666"
   borderopacity="1"
   objecttolerance="10"
   gridtolerance="10"
   guidetolerance="10"
   inkscape:pageopacity="0"
   inkscape:pageshadow="2"
   inkscape:window-width="2560"
   inkscape:window-height="1377"
   id="namedview23"
   showgrid="false"
   inkscape:zoom="1.8375"
   inkscape:cx="-14.228341"
   inkscape:cy="30.089615"
   inkscape:window-x="2552"
   inkscape:window-y="-8"
   inkscape:window-maximized="1"
   inkscape:current-layer="Group_9086"
   inkscape:document-rotation="0" /><metadata
   id="metadata33"><rdf:RDF><cc:Work
       rdf:about=""><dc:format>image/svg+xml</dc:format><dc:type
         rdf:resource="http://purl.org/dc/dcmitype/StillImage" /><dc:title /></cc:Work></rdf:RDF></metadata><defs
   id="defs31"><pattern
     id="EMFhbasepattern"
     patternUnits="userSpaceOnUse"
     width="6"
     height="6"
     x="0"
     y="0" /><pattern
     id="EMFhbasepattern-1"
     patternUnits="userSpaceOnUse"
     width="6"
     height="6"
     x="0"
     y="0" /><pattern
     id="EMFhbasepattern-5"
     patternUnits="userSpaceOnUse"
     width="6"
     height="6"
     x="0"
     y="0" /></defs>
<style
   type="text/css"
   id="style2">
	.st0{fill:#2EA1FF;}
	.st1{fill:#666666;}
	.st2{fill:#EFEFEF;}
</style>

<g
   id="Group_9086">
	
	<g
   id="Group_9085">
		<g
   id="Group_9083">
			<path
   id="Rectangle_4749"
   class="st1"
   d="M83,56h2v4h-2V56z" />
			<path
   id="Rectangle_4750"
   class="st1"
   d="M83,44h2v8h-2V44z" />
			<path
   id="Rectangle_4751"
   class="st1"
   d="M15,48h2v8h-2V48z" />
			<path
   id="Rectangle_4752"
   class="st1"
   d="M15,40h2v4h-2V40z" />
			<path
   id="Path_19033"
   class="st1"
   d="M95.2,71H85v-7h-2v9h7.8L76,90.5L61.2,73H68v-2h-4.5c11.6-7.5,15-22.9,7.5-34.5     c-6.4-9.9-18.9-14-29.9-9.8L24,6.5L4.8,29H15v7h2v-9H9.2L24,9.5L38.8,27H32v2h4.5c-11.6,7.5-15,22.9-7.5,34.5     c6.4,9.9,18.9,14,29.9,9.8L76,93.5L95.2,71z M27,50c0-12.7,10.3-23,23-23s23,10.3,23,23S62.7,73,50,73S27,62.7,27,50z" />
		</g>
	</g>
<ellipse
   id="ellipse893"
   ry="14.999187"
   rx="12.287258"
   cy="49.795918"
   cx="49.827103"
   class="cls-1"
   style="fill:#cccccc;stroke-width:0.06237187" /><circle
   id="circle895"
   r="13.85903"
   cy="49.795918"
   cx="49.795918"
   class="cls-2"
   style="fill:#e6e6e6;fill-opacity:1;stroke-width:0.06237187" /><path
   id="path897"
   d="m 41.666369,50.59303 h -2.445601 c -0.454068,0 -0.821438,-0.205204 -0.821438,-0.458434 0,-0.25323 0.36737,-0.458433 0.821438,-0.458433 h 2.445601 c 0.453443,0 0.820813,0.205203 0.820813,0.458433 0,0.25323 -0.36737,0.458434 -0.820813,0.458434 z"
   class="cls-1"
   inkscape:connector-curvature="0"
   style="fill:#b3b3b3;stroke-width:0.06237187" /><path
   id="path899"
   d="m 60.245078,50.59303 h -2.141227 c -0.396685,0 -0.718524,-0.205204 -0.718524,-0.458434 0,-0.25323 0.321839,-0.458433 0.718524,-0.458433 h 2.141227 c 0.396685,0 0.718523,0.205203 0.718523,0.458433 0,0.25323 -0.324957,0.458434 -0.718523,0.458434 z"
   class="cls-1"
   inkscape:connector-curvature="0"
   style="fill:#b3b3b3;stroke-width:0.06237187" /><path
   id="path901"
   d="m 57.719641,56.876995 a 0.45905696,0.45905696 0 0 1 -0.324334,-0.134099 l -0.964893,-0.965517 a 0.45843324,0.45843324 0 1 1 0.648044,-0.648043 l 0.965516,0.964892 a 0.45843324,0.45843324 0 0 1 -0.324333,0.782767 z"
   class="cls-1"
   inkscape:connector-curvature="0"
   style="fill:#b3b3b3;stroke-width:0.06237187" /><path
   id="path903"
   d="m 42.375537,56.876995 a 0.45843324,0.45843324 0 0 1 -0.324334,-0.782767 l 0.965517,-0.964892 a 0.45843324,0.45843324 0 0 1 0.648043,0.648043 l -0.964892,0.965517 a 0.45905696,0.45905696 0 0 1 -0.324334,0.134099 z"
   class="cls-1"
   inkscape:connector-curvature="0"
   style="fill:#b3b3b3;fill-opacity:1;stroke-width:0.06237187" /><path
   id="path907"
   d="m 43.472034,44.32341 -1.953487,-1.470729 c -0.36238,-0.273189 -0.532655,-0.658023 -0.380468,-0.860732 0.152187,-0.202708 0.569455,-0.144703 0.931836,0.127862 l 1.953487,1.471353 c 0.36238,0.272565 0.532655,0.658023 0.380468,0.860108 -0.152187,0.202085 -0.569455,0.145326 -0.931836,-0.127862 z"
   class="cls-1"
   inkscape:connector-curvature="0"
   style="fill:#b3b3b3;stroke-width:0.06237187" /><path
   id="path909"
   d="m 56.18155,44.32341 1.954111,-1.470729 c 0.36238,-0.273189 0.532656,-0.658023 0.379845,-0.860732 -0.152812,-0.202708 -0.569456,-0.144703 -0.931836,0.127862 l -1.954111,1.471353 c -0.36238,0.272565 -0.532656,0.658023 -0.380468,0.860108 0.152187,0.202085 0.570702,0.145326 0.932459,-0.127862 z"
   class="cls-1"
   inkscape:connector-curvature="0"
   style="fill:#b3b3b3;stroke-width:0.06237187" /><path
   id="path911"
   d="M 53.197056,45.171043 A 4.7496179,4.7496179 0 0 0 49.99925,43.745846 v -0.005 h -0.03493 c -0.02495,0 -0.05052,0 -0.07547,0 -0.02495,0 -0.06237,0 -0.0948,0 v 0.005 c -2.562863,0.111022 -4.623006,2.280315 -4.625501,4.916774 a 4.9485842,4.9485842 0 0 0 0.976744,2.976386 c 0.967387,1.302948 1.399001,2.137484 1.399001,3.63628 v 0.54513 a 0.51581536,0.51581536 0 0 0 0.510825,0.520805 h 3.683683 a 0.51581536,0.51581536 0 0 0 0.510202,-0.520805 v -0.561347 c 0,-1.478837 0.432861,-2.312749 1.402743,-3.622558 a 5.002224,5.002224 0 0 0 -0.454691,-6.465468 z"
   class="cls-1"
   inkscape:connector-curvature="0"
   style="fill:#b3b3b3;stroke-width:0.06237187" /><path
   id="path913"
   d="m 52.830933,49.498403 c 0.633699,-0.374231 0.608126,-1.231221 -0.0474,-1.589235 -0.249488,-0.137218 -0.269447,-0.179631 -0.19959,-0.453444 a 0.57506864,0.57506864 0 0 0 -0.295019,-0.671745 c -0.361133,-0.198342 -0.704179,-0.0867 -0.885681,0.288158 -0.08295,0.170899 -0.218301,0.23639 -0.365499,0.175265 a 0.24948748,0.24948748 0 0 1 -0.119754,-0.374231 1.6528546,1.6528546 0 0 1 0.31872,-0.443464 c 0.127863,-0.11414 0.100419,-0.191481 0.0069,-0.280049 -0.220172,-0.207075 -0.498975,-0.244498 -0.793994,-0.263834 v 2.960793 c 0.326829,0.0237 0.523924,-0.06861 0.681725,-0.316225 0.05613,-0.08732 0.09293,-0.187116 0.161543,-0.265081 a 2.2453873,2.2453873 0 0 1 0.374231,-0.35053 c 0.116012,-0.07984 0.243874,-0.02682 0.321839,0.08483 0.07796,0.111646 0.05614,0.223291 -0.03555,0.3287 a 2.7755482,2.7755482 0 0 0 -0.329323,0.415397 c -0.219549,0.382339 -0.548249,0.584424 -0.991089,0.623718 -0.05801,0.005 -0.115388,0.01248 -0.187116,0.02058 v 4.061032 0 l -0.02744,2.860374 v 0.196472 l 0.09792,-0.0842 h 0.366123 l 0.505836,-3.64127 0.01123,-0.04491 a 5.40577,5.40577 0 0 1 -0.471531,-0.338055 c -0.137219,-0.124744 -0.130981,-0.290653 -0.01559,-0.394191 0.115388,-0.103537 0.256348,-0.08919 0.390448,0.03493 0.187115,0.174641 0.354895,0.210817 0.558228,0.119754 a 0.51269677,0.51269677 0 0 0 0.298761,-0.538893 c -0.03119,-0.005 -0.06237,-0.0131 -0.09855,-0.01559 -0.503964,-0.03555 -0.851376,-0.264457 -1.005434,-0.748463 A 0.65677579,0.65677579 0 0 0 50.896158,50.61486 c -0.14096,-0.144703 -0.169652,-0.270071 -0.06674,-0.389825 a 0.26570417,0.26570417 0 0 1 0.416644,0.0062 2.3626464,2.3626464 0 0 1 0.339927,0.530161 c 0.07422,0.153434 0.170899,0.26009 0.336808,0.297513 a 0.92996458,0.92996458 0 0 0 0.742849,-0.124743 c 0.324334,-0.215807 0.352401,-0.60875 0.07921,-0.967388 -0.154058,-0.208322 -0.130357,-0.339927 0.08607,-0.468413 z"
   class="cls-4"
   inkscape:connector-curvature="0"
   style="fill:#ffffff;stroke-width:0.06237187" /><path
   id="path915"
   d="m 46.772754,49.425428 c -0.729128,-0.366746 -0.699189,-1.206272 0.05489,-1.559297 0.288782,-0.134099 0.311859,-0.175888 0.229528,-0.444087 -0.08233,-0.268199 0.04803,-0.520805 0.339927,-0.658024 0.415397,-0.1946 0.810834,-0.08545 1.01978,0.281921 0.09543,0.167781 0.249488,0.2314 0.420387,0.172147 0.170898,-0.05925 0.23826,-0.210194 0.137841,-0.367371 a 1.6360142,1.6360142 0 0 0 -0.36737,-0.436603 c -0.146574,-0.112269 -0.115388,-0.187115 -0.0075,-0.274436 0.253854,-0.203332 0.575693,-0.240132 0.914372,-0.258843 v 2.907776 c -0.374231,0.0237 -0.60376,-0.06674 -0.785262,-0.30874 -0.06237,-0.08607 -0.106656,-0.187116 -0.187115,-0.260091 a 2.481153,2.481153 0 0 0 -0.432237,-0.343669 0.28566316,0.28566316 0 0 0 -0.370489,0.08295 c -0.09044,0.110399 -0.06237,0.218926 0.04117,0.322463 a 2.8217034,2.8217034 0 0 1 0.378597,0.406665 c 0.25323,0.374231 0.631204,0.573197 1.141406,0.611868 0.06674,0.005 0.132852,0.01247 0.21643,0.02058 v 3.978702 0 l 0.03119,2.801744 v 0.192729 l -0.112893,-0.08295 h -0.421634 l -0.583801,-3.5658 c -0.0044,-0.01497 -0.0087,-0.02932 -0.01372,-0.04366 a 6.1748151,6.1748151 0 0 0 0.543259,-0.331819 c 0.157801,-0.11913 0.150317,-0.284415 0.01809,-0.386081 -0.132228,-0.101667 -0.295019,-0.08732 -0.449077,0.0343 -0.218302,0.171523 -0.40916,0.206451 -0.643054,0.117259 -0.233895,-0.08919 -0.369242,-0.287534 -0.343669,-0.527666 0.03618,-0.005 0.07422,-0.0131 0.113517,-0.01559 0.579434,-0.03493 0.979862,-0.258843 1.156998,-0.732869 A 0.6336982,0.6336982 0 0 1 48.99943,50.52317 c 0.162167,-0.141584 0.195224,-0.264457 0.07672,-0.381716 a 0.34055041,0.34055041 0 0 0 -0.47964,0.0062 2.2765733,2.2765733 0 0 0 -0.391072,0.519558 0.53764552,0.53764552 0 0 1 -0.387953,0.291277 1.2293496,1.2293496 0 0 1 -0.855118,-0.124744 c -0.374231,-0.211441 -0.405417,-0.596275 -0.09106,-0.947429 0.176513,-0.205827 0.15094,-0.33556 -0.09855,-0.460928 z"
   class="cls-4"
   inkscape:connector-curvature="0"
   style="fill:#ffffff;stroke-width:0.06237187" /><path
   id="path917"
   d="m 52.261478,55.741204 h -4.737143 c -0.287535,0 -0.520182,0.249487 -0.520182,0.557604 v 2.008374 a 0.5937802,0.5937802 0 0 0 0.04553,0.228281 l 1.040363,2.494875 a 0.51955768,0.51955768 0 0 0 0.474649,0.329324 h 0.561347 c 0.09231,0.271317 0.457186,0.474026 0.893789,0.474026 0.436603,0 0.801479,-0.202709 0.893789,-0.474026 h 0.311859 a 0.51955768,0.51955768 0 0 0 0.47465,-0.329324 l 1.040987,-2.494875 a 0.5937802,0.5937802 0 0 0 0.04553,-0.228281 v -2.008374 c -0.0044,-0.308117 -0.237637,-0.557604 -0.525171,-0.557604 z"
   class="cls-5"
   inkscape:connector-curvature="0"
   style="fill:#b3b3b3;stroke-width:0.06237187" /></g>


</svg>