<?xml version="1.0" encoding="UTF-8" standalone="no"?>
<svg
   id="Layer_1"
   data-name="Layer 1"
   viewBox="0 0 96 96"
   version="1.1"
   sodipodi:docname="img-nav-logo.svg"
   inkscape:version="1.1.2 (b8e25be833, 2022-02-05)"
   width="96"
   height="96"
   inkscape:export-filename="/home/pedro/img-nav-logo.png"
   inkscape:export-xdpi="96"
   inkscape:export-ydpi="96"
   xmlns:inkscape="http://www.inkscape.org/namespaces/inkscape"
   xmlns:sodipodi="http://sodipodi.sourceforge.net/DTD/sodipodi-0.dtd"
   xmlns="http://www.w3.org/2000/svg"
   xmlns:svg="http://www.w3.org/2000/svg">
  <sodipodi:namedview
     id="namedview23"
     pagecolor="#ffffff"
     bordercolor="#666666"
     borderopacity="1.0"
     inkscape:pageshadow="2"
     inkscape:pageopacity="0.0"
     inkscape:pagecheckerboard="0"
     showgrid="false"
     width="96px"
     inkscape:zoom="2.203125"
     inkscape:cx="226.2695"
     inkscape:cy="88.056738"
     inkscape:window-width="1299"
     inkscape:window-height="713"
     inkscape:window-x="67"
     inkscape:window-y="27"
     inkscape:window-maximized="1"
     inkscape:current-layer="Layer_1" />
  <defs
     id="defs4">
    <style
       id="style2">.cls-1,.cls-2{fill:#eef76a;}.cls-2{stroke:#eef76a;stroke-miterlimit:10;}</style>
  </defs>
  <g
     id="g619"
     transform="matrix(0.53879938,0,0,0.53879938,-21.041767,-9.360582)"
     inkscape:export-filename="/home/pedro/img-nav-logo.png"
     inkscape:export-xdpi="96"
     inkscape:export-ydpi="96">
    <path
       class="cls-1"
       d="m 154.72,71.16 5.86,-5.52 c -21.17,-17 -50.06,-13.45 -65.7,0.5 l 5.78,5.42 c 17.96,-12.16 35.86,-12.31 54.06,-0.4 z"
       id="path6" />
    <path
       class="cls-1"
       d="m 102,142.77 -5.89,5.53 c 20,15.69 48.33,13.36 64.86,-1 l -5.82,-5.44 C 137.58,153.7 120,154 102,142.77 Z"
       id="path8" />
    <path
       class="cls-1"
       d="M 128.14,37.6 A 68.86,68.86 0 1 0 197,106.52 68.86,68.86 0 0 0 128.14,37.6 Z m 1,5.65 a 63.17,63.17 0 0 1 46.23,21.18 l -8.76,7.79 v 0 l -38.23,34.06 -38.26,-34.1 v 0 L 81.2,64.12 A 63,63 0 0 1 129.14,43.25 Z M 75.69,141.73 A 63.22,63.22 0 0 1 65,106.38 62.23,62.23 0 0 1 73.66,74.45 l 6.12,5.19 c -0.24,0.49 -2.7,5.83 -2.7,5.83 a 56.12,56.12 0 0 0 4.47,51 z M 128,169.67 A 62.84,62.84 0 0 1 80.84,148.35 L 95.55,134.59 A 43.15,43.15 0 0 1 85.09,105.16 42.28,42.28 0 0 1 89.27,87.69 l 39.06,33.17 39.22,-33.14 a 42.16,42.16 0 0 1 4.16,17.44 43.06,43.06 0 0 1 -10.46,29.43 c 1.17,1.1 14.19,13.87 14.19,13.87 A 63.34,63.34 0 0 1 128,169.67 Z M 174.55,136.1 A 56,56 0 0 0 179,85 h 0.05 c -0.14,-0.35 -2.26,-4.77 -2.39,-5.06 l 6.14,-5.2 a 63.4,63.4 0 0 1 -2.32,67.11 z"
       id="path10" />
  </g>
</svg>
