<?xml version="1.0" encoding="utf-8"?>
<!-- Generator: Adobe Illustrator 25.2.0, SVG Export Plug-In . SVG Version: 6.00 Build 0)  -->
<svg version="1.1"
	 id="ic_empty_multisend" inkscape:version="0.92.4 (5da689c313, 2019-01-14)" sodipodi:docname="img-empty-multisend.svg" xmlns:cc="http://creativecommons.org/ns#" xmlns:dc="http://purl.org/dc/elements/1.1/" xmlns:inkscape="http://www.inkscape.org/namespaces/inkscape" xmlns:rdf="http://www.w3.org/1999/02/22-rdf-syntax-ns#" xmlns:sodipodi="http://sodipodi.sourceforge.net/DTD/sodipodi-0.dtd" xmlns:svg="http://www.w3.org/2000/svg"
	 xmlns="http://www.w3.org/2000/svg" xmlns:xlink="http://www.w3.org/1999/xlink" x="0px" y="0px" viewBox="0 0 100 100"
	 style="enable-background:new 0 0 100 100;" xml:space="preserve">
<style type="text/css">
	.st0{fill:#810890;}
	.st1{fill:#666666;}
	.st2{fill:#EFEFEF;}
</style>
<sodipodi:namedview  bordercolor="#666666" borderopacity="1" gridtolerance="10" guidetolerance="10" id="namedview25" inkscape:current-layer="Group_9031" inkscape:cx="57.892519" inkscape:cy="39.599266" inkscape:pageopacity="0" inkscape:pageshadow="2" inkscape:window-height="480" inkscape:window-width="640" inkscape:zoom="5.0286286" objecttolerance="10" pagecolor="#ffffff" showgrid="false">
	</sodipodi:namedview>
<g id="Group_9031">
	<g id="Group_9029">
		<path id="Rectangle_4683" class="st0" d="M45,18h10v9H45V18z"/>
		<g id="Group_9028">
			<path id="Rectangle_4684" class="st0" d="M14,66h6v10h-6V66z"/>
			<path id="Rectangle_4685" class="st0" d="M80,66h6v10h-6V66z"/>
			<path id="Rectangle_4686" class="st0" d="M47,66h6v10h-6V66z"/>
		</g>
	</g>
	<g id="Group_9030">
		<path id="Rectangle_4688" class="st1" d="M67,40h2v4h-2V40z"/>
		<circle id="Ellipse_626" class="st1" cx="50" cy="73" r="1"/>
		<circle id="Ellipse_627" class="st1" cx="83" cy="73" r="1"/>
		<path id="Rectangle_4689" class="st1" d="M32,58h4v2h-4V58z"/>
		<path id="Path_18986" class="st1" d="M16,65h-3v3H7v4h2v-2h4v7h8v-7h4v21H9V76H7v17h20V68h-6v-3h-3v-5h10v-2H16V65z M19,67v8h-4
			v-8H19z"/>
		<circle id="Ellipse_628" class="st1" cx="17" cy="73" r="1"/>
		
			<path id="Path_18987" inkscape:connector-curvature="0" sodipodi:nodetypes="cccccccccccccccccccscscccccccccccccccccccccccccccccccccccccccccccccccccccccccccccssscsccccccsscsscccccccccccccccc" class="st1" d="
			M87,68v-3h-3v-7H51v-5h18v-5h-2v3H33V28h34v8h2v-8h4V17H59.5c2.3-2.6,2-6.6-0.8-8.7S52,6.8,50,9.7c-1.9-2.9-5.9-3.6-8.7-1.4
			c-2.8,2.1-3.1,6.2-0.8,8.8H27v11h4v25h18v5h-9v2h9v5h-3v3h-6v16h2V70h4v7h8v-7h4v21H42v-3h-2v5h20V68h-6v-3h-3v-5h31v5h-3v3h-6v12
			h2V70h4v7h8v-7h4v21H75v-7h-2v9h20V68H87z M71,19v7H56v-7H71z M51,13c0-3.6,4.3-5.3,6.8-2.8S58.5,17,55,17h-4V13z M51,19h3v7h-8
			v-7H51z M45,9c2.2,0,4,1.8,4,4v4h-4C39.7,17,39.7,9,45,9z M29,26v-7h15v7H29z M52,67v3.2V75h-4v-8H52z M85,75h-4v-8h4V75z"/>
	</g>
</g>
<rect x="33" y="28" class="st0" width="34" height="23"/>
<g>
	<polyline class="st2" points="45.7,34.5 43.9,34.5 39.4,39 49.5,48 49.5,48 42.6,39.1 	"/>
	<polyline class="st2" points="55.7,35 57.4,35.2 61.4,39.6 51,47 50.9,47 58.3,39.4 	"/>
	<path class="st2" d="M45.3,39.9l-1.3-1.4L44,31.8l12.8,1.8c0,0,0,0,0,0l-10.5,0.6"/>
	<g>
		<path class="st2" d="M51.1,36.7h-2.1l-0.2,1.2l1.9,0c0.9,0,1.2,0.4,1.2,1.1c0,0.3-0.1,0.9-0.2,1.1c-0.1,0.5-0.4,1.1-1.5,1.1
			l-1.8,0l-0.2,1.2h2.1c0.7,0,1-0.1,1.4-0.3c0.7-0.4,1.2-1.3,1.3-2.4C53.3,37.9,53,36.7,51.1,36.7"/>
		<path class="st2" d="M48.2,39.1c-0.5,0-0.6,0.4-0.7,0.7c-0.1,0.3-0.1,0.5-0.1,0.5h2.1c0.5,0,0.6-0.4,0.7-0.7
			c0.1-0.3,0.1-0.5,0.1-0.5H48.2z"/>
	</g>
</g>
</svg>
