<?xml version="1.0" encoding="UTF-8" standalone="no"?>
<svg
   xmlns:dc="http://purl.org/dc/elements/1.1/"
   xmlns:cc="http://creativecommons.org/ns#"
   xmlns:rdf="http://www.w3.org/1999/02/22-rdf-syntax-ns#"
   xmlns:svg="http://www.w3.org/2000/svg"
   xmlns="http://www.w3.org/2000/svg"
   xml:space="preserve"
   style="enable-background:new 0 0 100 100;"
   viewBox="0 0 100 100"
   y="0px"
   x="0px"
   id="ic_staking_on"
   version="1.1"><metadata
   id="metadata36"><rdf:RDF><cc:Work
       rdf:about=""><dc:format>image/svg+xml</dc:format><dc:type
         rdf:resource="http://purl.org/dc/dcmitype/StillImage" /><dc:title></dc:title></cc:Work></rdf:RDF></metadata><defs
   id="defs34"><pattern
   y="0"
   x="0"
   height="6"
   width="6"
   patternUnits="userSpaceOnUse"
   id="EMFhbasepattern" />
	
	

		
		
	
		
		
		
	</defs>
<style
   id="style2"
   type="text/css">
	.st0{fill:#2EA1FF;}
	.st1{fill:#666666;}
	.st2{fill:#EFEFEF;}
</style>




<path
   class="st0"
   d="M 92,56 A 12,4 0 0 1 80,60 12,4 0 0 1 68,56 12,4 0 0 1 80,52 12,4 0 0 1 92,56 Z"
   style="fill:#009dff;fill-opacity:1"
   id="Ellipse_613" /><path
   class="st0"
   d="M 76,68 A 12,4 0 0 1 64,72 12,4 0 0 1 52,68 12,4 0 0 1 64,64 12,4 0 0 1 76,68 Z"
   style="fill:#009dff;fill-opacity:1"
   id="Ellipse_614" /><path
   style="fill:#009dff;fill-opacity:1"
   d="M 32,24 H 46 V 38 H 32 Z"
   class="st0"
   id="Rectangle_4669" /><path
   style="fill:#666666"
   d="m 11.7,59.8 h 2 v 4 h -2 z"
   class="st1"
   id="Rectangle_4670" /><path
   style="fill:#666666"
   d="m 91.7,57.8 c 0.6,-0.5 0.9,-1.2 1,-2 0,-3.3 -6.5,-5 -13,-5 -6.5,0 -13,1.7 -13,5 0,0.8 0.4,1.5 1,2 -1.1,0.9 -1.3,2.5 -0.4,3.6 0.1,0.1 0.2,0.3 0.4,0.4 -0.3,0.3 -0.6,0.7 -0.8,1.2 -0.4,0 -0.8,-0.1 -1.2,-0.1 V 38.8 h 5 v -16 H 52.3 C 56.2,19.7 56.8,14 53.7,10.2 50.6,6.4 44.9,5.7 41.1,8.8 40.1,9.6 39.3,10.6 38.7,11.7 36.4,7.3 31,5.5 26.6,7.8 c -4.4,2.3 -6.2,7.7 -3.9,12.1 0.6,1.1 1.4,2.1 2.4,2.9 H 6.7 v 16 h 5 v 17 h 2 v -17 h 50 v 24 c -6.5,0 -13,1.7 -13,5 0,0.8 0.4,1.5 1,2 -1.1,0.9 -1.3,2.5 -0.4,3.6 0.1,0.1 0.2,0.3 0.4,0.4 -0.3,0.3 -0.6,0.6 -0.7,1 H 13.7 v -7 h -2 v 9 h 39.2 c 0.2,0.4 0.4,0.7 0.7,1 -1.1,0.9 -1.3,2.5 -0.4,3.6 0.1,0.1 0.2,0.3 0.4,0.4 -1.1,0.9 -1.3,2.5 -0.4,3.6 0.1,0.1 0.2,0.3 0.4,0.4 -0.6,0.5 -0.9,1.2 -1,2 0,3.3 6.5,5 13,5 5.9,0 11.8,-1.4 12.8,-4.2 1,0.1 2.1,0.2 3.2,0.2 6.5,0 13,-1.7 13,-5 0,-0.8 -0.4,-1.5 -1,-2 1.1,-0.9 1.3,-2.5 0.4,-3.6 -0.1,-0.1 -0.2,-0.3 -0.4,-0.4 1.1,-0.9 1.3,-2.5 0.4,-3.6 -0.1,-0.1 -0.2,-0.3 -0.4,-0.4 1.1,-0.9 1.3,-2.5 0.4,-3.6 -0.1,-0.1 -0.2,-0.3 -0.4,-0.4 1.1,-0.9 1.3,-2.5 0.4,-3.6 -0.1,-0.1 -0.2,-0.3 -0.4,-0.4 1.1,-0.9 1.3,-2.5 0.4,-3.6 -0.1,-0.1 -0.2,-0.3 -0.4,-0.4 1.1,-0.9 1.3,-2.5 0.4,-3.6 0,-0.2 -0.1,-0.3 -0.3,-0.4 z m -61,-21 h -22 v -12 h 22 z m -7,-21 c 0,-3.9 3.1,-7 7,-7 3.9,0 7,3.1 7,7 v 7 h -7 c -3.9,0 -7,-3.1 -7,-7 z m 21,21 h -12 v -12 h 12 z m -5,-14 v -7 c 0,-3.9 3.1,-7 7,-7 3.9,0 7,3.1 7,7 0,3.9 -3.1,7 -7,7 z m 7,14 v -12 h 22 v 12 z m 4,39 c 0,0.2 0,0.3 0.1,0.5 -0.1,-0.2 -0.1,-0.3 -0.1,-0.5 z m 13,15 c -7.1,0 -11,-2 -11,-3 0,-0.2 0.2,-0.5 0.7,-0.8 2.5,1.2 6.4,1.8 10.3,1.8 3.9,0 7.8,-0.6 10.3,-1.8 0.4,0.3 0.7,0.6 0.7,0.8 0,1 -3.9,3 -11,3 z m 0,-4 c -7.1,0 -11,-2 -11,-3 0,-0.2 0.2,-0.5 0.7,-0.8 2.5,1.2 6.4,1.8 10.3,1.8 3.9,0 7.8,-0.6 10.3,-1.8 0.4,0.3 0.7,0.6 0.7,0.8 0,1 -3.9,3 -11,3 z m 0,-4 c -7.1,0 -11,-2 -11,-3 0,-0.2 0.2,-0.5 0.7,-0.8 2.5,1.2 6.4,1.8 10.3,1.8 3.9,0 7.8,-0.6 10.3,-1.8 0.4,0.3 0.7,0.6 0.7,0.8 0,1 -3.9,3 -11,3 z m 0,-4 c -7.1,0 -11,-2 -11,-3 0,-0.2 0.2,-0.5 0.7,-0.8 2.5,1.2 6.4,1.8 10.3,1.8 3.9,0 7.8,-0.6 10.3,-1.8 0.4,0.3 0.7,0.6 0.7,0.8 0,1 -3.9,3 -11,3 z m 0,-4 c -7.1,0 -11,-2 -11,-3 0,-0.2 0.2,-0.5 0.7,-0.8 2.5,1.2 6.4,1.8 10.3,1.8 3.9,0 7.8,-0.6 10.3,-1.8 0.4,0.3 0.7,0.6 0.7,0.8 0,0.797609 -2.481104,2.231399 -7.088117,2.779099 -0.55136,0.06555 -1.13317,0.118404 -1.744819,0.15596 C 65.181871,74.77713 64.459232,74.8 63.7,74.8 Z m 0,-4 c -7.1,0 -11,-2 -11,-3 0,-1 3.9,-3 11,-3 7.1,0 11,2 11,3 0,1 -3.9,3 -11,3 z m 16,16 c -1.2,0 -2.3,-0.1 -3.3,-0.2 -0.2,-0.3 -0.4,-0.6 -0.6,-0.8 0.3,-0.3 0.6,-0.7 0.8,-1.2 1,0.1 2.1,0.2 3.2,0.2 3.9,0 7.8,-0.6 10.3,-1.8 0.4,0.3 0.7,0.6 0.7,0.8 -0.1,1 -4,3 -11.1,3 z m 0,-4 c -1.2,0 -2.3,-0.1 -3.3,-0.2 -0.2,-0.3 -0.4,-0.6 -0.6,-0.8 0.3,-0.3 0.6,-0.7 0.8,-1.2 1,0.1 2.1,0.2 3.2,0.2 3.9,0 7.8,-0.6 10.3,-1.8 0.4,0.3 0.7,0.6 0.7,0.8 -0.07096,0.709557 -2.0551,1.922583 -5.738084,2.567358 -0.665985,0.116594 -1.38752,0.214606 -2.163338,0.2877 C 81.918212,82.747424 80.851167,82.8 79.7,82.8 Z m 0,-4 c -1.2,0 -2.3,-0.1 -3.3,-0.2 -0.2,-0.3 -0.4,-0.6 -0.6,-0.8 0.3,-0.3 0.6,-0.7 0.8,-1.2 1,0.1 2.1,0.2 3.2,0.2 3.9,0 7.8,-0.6 10.3,-1.8 0.4,0.3 0.7,0.6 0.7,0.8 -0.1,1 -4,3 -11.1,3 z m 0,-4 c -1.2,0 -2.3,-0.1 -3.3,-0.2 -0.2,-0.3 -0.4,-0.6 -0.6,-0.8 0.3,-0.3 0.6,-0.7 0.8,-1.2 1,0.1 2.1,0.2 3.2,0.2 3.9,0 7.8,-0.6 10.3,-1.8 0.4,0.3 0.7,0.6 0.7,0.8 -0.1,1 -4,3 -11.1,3 z m 0,-4 c -1.2,0 -2.3,-0.1 -3.3,-0.2 -0.2,-0.3 -0.4,-0.6 -0.6,-0.8 0.3,-0.3 0.6,-0.7 0.8,-1.2 1,0.1 2.1,0.2 3.2,0.2 3.9,0 7.8,-0.6 10.3,-1.8 0.4,0.3 0.7,0.6 0.7,0.8 -0.1,1 -4,3 -11.1,3 z m 0,-4 c -1.2,0 -2.3,-0.1 -3.3,-0.2 -0.6,-1.2 -2.2,-2.1 -4.2,-2.7 2.5,0.6 5,0.9 7.5,0.9 3.9,0 7.8,-0.6 10.3,-1.8 0.4,0.3 0.7,0.6 0.7,0.8 0,1 -3.9,3 -11,3 z m -10.6,-3.6 0.3,-0.3 c 0.6,0.3 1.2,0.5 1.8,0.7 -0.7,-0.1 -1.4,-0.3 -2.1,-0.4 z m 10.6,-0.4 c -7.1,0 -11,-2 -11,-3 0,-0.2 0.2,-0.5 0.7,-0.8 2.5,1.2 6.4,1.8 10.3,1.8 3.9,0 7.8,-0.6 10.3,-1.8 0.4,0.3 0.7,0.6 0.7,0.8 0,1 -3.9,3 -11,3 z m 0,-4 c -7.1,0 -11,-2 -11,-3 0,-1 3.9,-3 11,-3 7.1,0 11,2 11,3 0,1 -3.9,3 -11,3 z"
   class="st1"
   id="Path_18975" />

<path
   style="fill:#009dff;fill-opacity:1;stroke-width:0.036481"
   id="path8"
   d="M 53.599596,52.399836 A 5.8529848,5.8529848 0 0 0 51.337786,50.20843 6.0521703,6.0521703 0 0 0 50.729286,49.916585 6.2298319,6.2298319 0 0 0 49.625,49.572927 7.1502432,7.1502432 0 0 0 48.114693,49.418255 q -1.787561,0 -3.24059,0.79966 -0.184957,0.101717 -0.359328,0.213417 l 0.398362,1.169938 A 4.8326159,4.8326159 0 0 1 45.5282,51.195965 q 1.160467,-0.644609 2.58759,-0.644976 a 5.6308165,5.6308165 0 0 1 1.140029,0.112392 4.9413289,4.9413289 0 0 1 1.100997,0.360806 q 0.171822,0.0795 0.337806,0.171823 a 4.6695466,4.6695466 0 0 1 1.805077,1.787562 q 0.652636,1.143302 0.653001,2.553657 3.64e-4,1.410353 -0.653001,2.553657 a 4.6695466,4.6695466 0 0 1 -1.805077,1.787563 5.0314365,5.0314365 0 0 1 -1.900658,0.606306 5.9741011,5.9741011 0 0 1 -0.663583,0.03839 h -0.01523 c -0.229827,0 -0.678906,-0.05651 -0.918223,-0.08894 A 1.4906069,1.4906069 0 0 1 46.740925,60.30139 1.5956715,1.5956715 0 0 1 45.935429,59.384627 L 42.57701,49.521314 H 41.391018 L 37.79765,59.870201 35.41764,52.959637 a 4.3554465,4.3554465 0 0 0 -0.802571,-1.41509 5.8230704,5.8230704 0 0 0 -1.29435,-1.123248 Q 33.146699,50.30937 32.963565,50.208617 A 6.1940806,6.1940806 0 0 0 32.14604,49.832855 6.3498537,6.3498537 0 0 0 31.420074,49.611059 7.0936977,7.0936977 0 0 0 29.740125,49.417355 q -1.787561,0 -3.240225,0.799662 -1.452662,0.79966 -2.269473,2.191771 -0.814984,1.39319 -0.814984,3.128591 0,1.735385 0.816445,3.128956 0.815714,1.39211 2.269475,2.191406 1.453758,0.799296 3.240224,0.799296 1.787561,0 3.22344,-0.790538 a 5.8635643,5.8635643 0 0 0 1.759475,-1.464713 l -0.501981,-1.488787 c -0.02955,0.05985 -0.06198,0.118941 -0.09566,0.177663 a 4.6695466,4.6695466 0 0 1 -1.805425,1.787568 q -1.152072,0.644976 -2.578465,0.644609 -1.426406,-3.65e-4 -2.588685,-0.644243 A 4.7060277,4.7060277 0 0 1 25.33025,58.091033 q -0.662491,-1.143302 -0.661759,-2.553656 7.16e-4,-1.410355 0.661759,-2.553658 a 4.7078514,4.7078514 0 0 1 1.824036,-1.787563 q 1.160816,-0.644608 2.587225,-0.644975 1.162277,0 2.141786,0.428639 0.222903,0.09747 0.437777,0.216348 0.188603,0.105857 0.362982,0.224727 c 0.03656,0.02513 0.07294,0.05101 0.1095,0.07691 0.721229,0.519116 1.252759,1.260768 1.546417,2.099463 l 1.391011,3.969845 1.344319,3.98663 h 1.323896 l 3.541558,-10.263153 2.950571,8.591959 a 2.5047739,2.5047739 0 0 0 1.902104,1.656967 l 0.01569,0.003 a 7.1035478,7.1035478 0 0 0 0.940474,0.105395 q 0.182396,0.0093 0.364811,0.0093 0.143317,0 0.284915,-0.0046 1.618666,-0.05802 2.938176,-0.785439 a 5.8486071,5.8486071 0 0 0 2.261814,-2.191771 q 0.825187,-1.400865 0.825187,-3.137349 0,-1.736481 -0.825554,-3.136982 z"
   class="cls-1" /></svg>