<?xml version="1.0" encoding="utf-8"?>
<!-- Generator: Adobe Illustrator 25.2.0, SVG Export Plug-In . SVG Version: 6.00 Build 0)  -->
<svg version="1.1"
	 id="ic_empty_Dark_zpiv" inkscape:version="0.92.4 (5da689c313, 2019-01-14)" sodipodi:docname="img-empty-privacy-dark.svg" xmlns:cc="http://creativecommons.org/ns#" xmlns:dc="http://purl.org/dc/elements/1.1/" xmlns:inkscape="http://www.inkscape.org/namespaces/inkscape" xmlns:rdf="http://www.w3.org/1999/02/22-rdf-syntax-ns#" xmlns:sodipodi="http://sodipodi.sourceforge.net/DTD/sodipodi-0.dtd" xmlns:svg="http://www.w3.org/2000/svg"
	 xmlns="http://www.w3.org/2000/svg" xmlns:xlink="http://www.w3.org/1999/xlink" x="0px" y="0px" viewBox="0 0 100 100"
	 style="enable-background:new 0 0 100 100;" xml:space="preserve">
<style type="text/css">
	.st0{fill:#F4B400;}
	.st1{fill:#A09EA5;}
	.st2{fill:#E50E28;}
</style>
<sodipodi:namedview  bordercolor="#666666" borderopacity="1" gridtolerance="10" guidetolerance="10" id="namedview21" inkscape:current-layer="ic_empty_Dark_zpiv" inkscape:cx="58.472673" inkscape:cy="48.851695" inkscape:pageopacity="0" inkscape:pageshadow="2" inkscape:window-height="480" inkscape:window-width="640" inkscape:zoom="8.8707665" objecttolerance="10" pagecolor="#ffffff" showgrid="false">
	</sodipodi:namedview>
<g id="Group_9081">
	<path id="Path_19026" class="st0" d="M50,26c-13.3,0-24,10.7-24,24s10.7,24,24,24s24-10.7,24-24S63.3,26,50,26z M50,68
		c-9.9,0-18-8.1-18-18s8.1-18,18-18s18,8.1,18,18S59.9,68,50,68z"/>
	<g id="Group_9080">
		<g id="Group_9078">
			<path id="Path_19027" class="st1" d="M50,31c-10.5,0-19,8.5-19,19s8.5,19,19,19s19-8.5,19-19C69,39.5,60.5,31,50,31z M50,67
				c-9.4,0-17-7.6-17-17s7.6-17,17-17s17,7.6,17,17C67,59.4,59.4,67,50,67z"/>
			<path id="Rectangle_4744" class="st1" d="M83,56h2v4h-2V56z"/>
			<path id="Rectangle_4745" class="st1" d="M83,44h2v8h-2V44z"/>
			<path id="Rectangle_4746" class="st1" d="M15,48h2v8h-2V48z"/>
			<path id="Rectangle_4747" class="st1" d="M15,40h2v4h-2V40z"/>
			<path id="Path_19028" class="st1" d="M95.2,71H85v-7h-2v9h7.8L76,90.5L61.2,73H68v-2h-4.5c11.6-7.5,15-22.9,7.5-34.5
				c-6.4-9.9-18.9-14-29.9-9.8L24,6.5L4.8,29H15v7h2v-9H9.2L24,9.5L38.8,27H32v2h4.5c-11.6,7.5-15,22.9-7.5,34.5
				c6.4,9.9,18.9,14,29.9,9.8L76,93.5L95.2,71z M27,50c0-12.7,10.3-23,23-23s23,10.3,23,23S62.7,73,50,73C37.3,73,27,62.7,27,50z"/>
		</g>
	</g>
</g>
<circle class="st0" cx="50" cy="50" r="15.1"/>
<g>
	<path class="st2" d="M37.7,54.3c0.1-0.1,0.2-0.2,0.3-0.3c1.1-1,2.3-1.6,3.7-1.7c1.1-0.1,2.1,0,3.2,0.3c1.4,0.4,2.6,1,3.9,1.5
		c1.5,0.7,2.9,1.3,4.4,1.8c1.5,0.5,2.9,0.7,4.5,0.6c0.6,0,1.2-0.2,1.9-0.3c0,0,0.1,0,0.1,0c-0.5,0.3-1.1,0.6-1.6,0.8
		c-1.4,0.7-2.8,1.4-4.3,1.9c-1.2,0.4-2.3,0.6-3.5,0.5c-1.3-0.1-2.6-0.5-3.7-1.1c-1.1-0.6-2-1.4-3-2.2c-0.5-0.4-1-0.8-1.5-1.2
		c-1.2-0.8-2.6-1-4-0.7C37.8,54.3,37.8,54.3,37.7,54.3C37.7,54.3,37.7,54.3,37.7,54.3z"/>
	<path d="M63.5,54c-1.3,0.6-2.7,1.1-4.2,1.3c-1.3,0.2-2.5,0.1-3.8-0.2c-1.5-0.3-2.8-0.9-4.2-1.5c-1.6-0.7-3.1-1.4-4.8-2
		c-1.2-0.4-2.4-0.7-3.6-0.8c-1.8-0.2-3.5,0.1-5.1,0.8c-0.8,0.3-1.6,0.7-2.4,1.1c-0.1,0-0.1,0.1-0.2,0.1c0,0,0-0.1,0-0.1
		c0.9-1,1.9-2,3-2.8c1.8-1.2,3.7-1.8,5.9-1.6c1.3,0.1,2.6,0.4,3.8,0.9c1.6,0.7,3.2,1.4,4.7,2.1c1.9,0.9,3.8,1.7,5.8,2.2
		c1.1,0.3,2.3,0.5,3.4,0.6C62.4,54,63,54,63.5,54z"/>
	<path class="st2" d="M65.1,50.8c-0.5,0.2-1,0.3-1.5,0.5c-0.9,0.3-1.8,0.5-2.7,0.6c-1.1,0.1-2.2,0.1-3.3-0.2
		c-1.3-0.3-2.5-0.8-3.6-1.3c-1.2-0.6-2.5-1.2-3.7-1.8c-1.4-0.7-2.9-1.3-4.5-1.6c-1.9-0.4-3.7-0.3-5.5,0.3c-1,0.3-2,0.7-2.9,1.2
		c-0.1,0-0.2,0.1-0.3,0.1c0-0.1,0.1-0.1,0.1-0.1c0.7-0.8,1.5-1.6,2.4-2.2c1.4-1,2.9-1.7,4.7-1.9c1.2-0.1,2.3,0,3.5,0.4
		c1.5,0.4,3,1.1,4.4,1.8c1.8,0.8,3.6,1.7,5.4,2.5c1.7,0.7,3.4,1.3,5.2,1.5C63.5,50.7,64.3,50.7,65.1,50.8z"/>
	<path class="st2" d="M62.6,47.5c-0.5,0.2-1,0.4-1.4,0.4c-1.4,0.2-2.7-0.1-4-0.7c-1.4-0.6-2.8-1.3-4.2-2c-1.5-0.7-3-1.4-4.6-1.8
		c-2.5-0.7-5-0.5-7.4,0.7c0,0-0.1,0-0.1,0c0.3-0.3,0.7-0.6,1-0.8c1.4-1.1,2.9-2,4.6-2.5c2.8-0.8,5.6-0.5,8.2,1
		c1,0.5,1.8,1.3,2.5,2.1c0.7,0.7,1.4,1.5,2.1,2.2c0.7,0.7,1.6,1.2,2.6,1.4C62.1,47.4,62.4,47.5,62.6,47.5z"/>
</g>
</svg>
