<?xml version="1.0" encoding="UTF-8" standalone="no"?>
<svg
   xmlns:dc="http://purl.org/dc/elements/1.1/"
   xmlns:cc="http://creativecommons.org/ns#"
   xmlns:rdf="http://www.w3.org/1999/02/22-rdf-syntax-ns#"
   xmlns:svg="http://www.w3.org/2000/svg"
   xmlns="http://www.w3.org/2000/svg"
   height="247.35739"
   width="189.01866"
   version="1.1"
   viewBox="0 0 189.01866 247.35739"
   data-name="Layer 1"
   id="Layer_1">
  <metadata
     id="metadata23">
    <rdf:RDF>
      <cc:Work
         rdf:about="">
        <dc:format>image/svg+xml</dc:format>
        <dc:type
           rdf:resource="http://purl.org/dc/dcmitype/StillImage" />
        <dc:title></dc:title>
      </cc:Work>
    </rdf:RDF>
  </metadata>
  <defs
     id="defs4">
    <style
       id="style2">.cls-1{fill:#c4c4ce;}.cls-2{fill:#d12c00;}</style>
  </defs>
  <path
     style="fill:#c4c4ce"
     id="path6"
     d="m 28.295139,167.1374 c 8.91,0.28 14.67,-0.56 18.24,-2 a 8,8 0 0 1 0,-14.12 c -6.13,-4.72 -24.74,-19 -24.74,-19 a 1.84,1.84 0 0 0 -0.15,0.18 q -1.36,-0.92 -2.79,-1.83 c 11.06,-28.14 51.29,-46.900002 37.2,-83.080002 25,2.23 68.000001,13.15 66.740001,30.39 19.14,5 23.24,20.86 23.24,20.86 18.18,5.100002 47.2,29.340002 5.93,35.000002 l -6.08,6.19 -1.21,-6.17 c -32.75,-13.33 -48.000001,4.72 -5,10.76 l 5.62,-3 -1.72,5.65 c 0,0 6.12,1.42 3.39,5.78 -5.47,6.73 -23.7,-2.36 -23.7,-2.36 0,0 14.12,39.34 -26.420001,30.63 25.070001,-9.43 2.29,-23.9 2.29,-23.9 -3,15.84 -15.23,28.43 -51.39,18.31 -16.6,-3.5 -37.29,-9.61 -19.45,-8.29 z M 138.77514,97.207398 c 0.77,-8.57 -14.62,-3.07 -19.16,-1.87 -2.77,1.09 18.29,4.31 19.16,1.87 z"
     class="cls-1" />
  <path
     style="fill:#d12c00"
     id="path8"
     d="m 16.235139,113.0874 a 75.49,75.49 0 0 1 4.88,-20.850002 83.61,83.61 0 0 1 9.27,-17.44 c 1.06,-1.53 2.14,-3 2.7,-3.67 l 1.28,-1.65 c 0.31,-0.43 0.57,-0.77 0.83,-1.07 l 0.39,-0.45 c 0.42,-0.5 0.85,-1 1.21,-1.53 a 0.47,0.47 0 0 1 0.09,-0.12 c 0.17,-0.23 0.36,-0.45 0.57,-0.7 a 13.16,13.16 0 0 0 0.85,-1.1 l 0.11,-0.15 c 2,-2.53 3.6,-4.83 5,-7 a 48.57,48.57 0 0 0 3.82,-7 35.68,35.68 0 0 0 2.52,-8.42 60.28,60.28 0 0 0 0.89,-9.45 c 0.07,-3.11 -0.09,-6.11 -0.25,-8.6 -0.12,-1.66 -0.26,-3.14 -0.39,-4.44 a 3.34,3.34 0 0 1 0.88,-2.69 2.32,2.32 0 0 1 2.38,-0.66 27.68,27.68 0 0 1 3.79,1.51 33.83,33.83 0 0 1 7.78,5.29 41.18,41.18 0 0 1 8.32,10.49 50.74,50.74 0 0 1 5.84,17 63.44,63.44 0 0 1 -0.32,21.34 72.41,72.41 0 0 1 -7,20.16 74.18,74.18 0 0 1 -5.14,8.420002 c -0.5,0.74 -1.88,2.63 -1.9,2.65 l -0.54,0.74 c -0.39,0.52 -0.66,0.9 -0.94,1.3 -0.28,0.4 -0.48,0.66 -0.71,1 v 0 c -2.61,3.69 -4.46,6.4 -6,8.79 -1.68,2.64 -3.16,5.19 -4.52,7.81 a 47.85,47.85 0 0 0 -3.26,7.69 41.94,41.94 0 0 0 -1.71,9 63.28,63.28 0 0 0 0,9.56 c 0.24,3.29 0.67,6.29 1,8.49 0.26,1.51 0.51,2.9 0.74,4.1 a 3.49,3.49 0 0 1 -0.67,2.82 2.44,2.44 0 0 1 -1.88,0.94 2.07,2.07 0 0 1 -0.5,-0.06 24.06,24.06 0 0 1 -3.59,-1.12 33,33 0 0 1 -8,-4.52 40,40 0 0 1 -9,-9.49 50.71,50.71 0 0 1 -7.13,-16 63.16,63.16 0 0 1 -1.69,-20.92 z"
     class="cls-2" />
  <path
     style="fill:#d12c00"
     id="path10"
     d="m 60.095139,138.1274 a 32,32 0 0 1 3.49,-6.62 c 0.36,-0.52 0.79,-1.11 1,-1.37 l 0.5,-0.65 c 0.12,-0.17 0.22,-0.29 0.32,-0.41 l 0.13,-0.16 c 0.16,-0.19 0.32,-0.38 0.45,-0.57 l 0.08,-0.1 0.18,-0.23 c 0.11,-0.14 0.22,-0.27 0.31,-0.4 a 0.39,0.39 0 0 1 0.08,-0.1 c 0.71,-0.93 1.32,-1.79 1.86,-2.63 a 19.07,19.07 0 0 0 1.44,-2.65 13.57,13.57 0 0 0 1,-3.2 23.37,23.37 0 0 0 0.33,-3.58 c 0,-1.11 0,-2.15 -0.06,-2.84 a 2.74,2.74 0 0 1 0.93,-2.3 1.88,1.88 0 0 1 2.14,-0.2 13,13 0 0 1 2.34,1.7 15.55,15.55 0 0 1 3.12,4 19.33,19.33 0 0 1 2.2,6.45 24.31,24.31 0 0 1 -0.13,8.11 27.49,27.49 0 0 1 -2.64,7.67 29.23,29.23 0 0 1 -1.92,3.17 l -0.74,1 v 0 l -0.19,0.25 -0.36,0.51 -0.24,0.33 v 0 c -0.66,1 -1.52,2.18 -2.25,3.35 a 33.37,33.37 0 0 0 -1.7,3 17.25,17.25 0 0 0 -1.23,2.91 16.36,16.36 0 0 0 -0.64,3.41 24.07,24.07 0 0 0 0,3.61 c 0.05,0.81 0.15,1.67 0.29,2.61 a 2.83,2.83 0 0 1 -0.78,2.43 1.93,1.93 0 0 1 -1.35,0.57 1.81,1.81 0 0 1 -0.81,-0.19 12.39,12.39 0 0 1 -2.19,-1.36 15.2,15.2 0 0 1 -3.39,-3.6 19.52,19.52 0 0 1 -2.68,-6.07 24.67,24.67 0 0 1 -0.63,-8 28.91,28.91 0 0 1 1.74,-7.85 z"
     class="cls-2" />
  <path
     style="fill:#c4c4ce"
     id="path12"
     d="m 30.575139,231.1074 c -1,0 -1.84,-0.59 -1.84,-1.35 v -19.37 c 0,-0.77 0.85,-1.36 1.84,-1.36 h 15.32 c 0.9,0 1.65,0.56 1.65,1.22 0,0.66 -0.75,1.21 -1.65,1.21 h -13.66 v 7.4 h 12.22 c 0.9,0 1.66,0.55 1.66,1.21 0,0.66 -0.76,1.22 -1.66,1.22 h -12.22 v 7.44 h 13.66 c 0.9,0 1.65,0.56 1.65,1.22 0,0.66 -0.75,1.21 -1.65,1.21 z"
     class="cls-1" />
  <path
     style="fill:#c4c4ce"
     id="path14"
     d="m 60.735139,231.1074 c -0.9,0 -1.65,-0.55 -1.65,-1.21 0,-0.66 0.75,-1.22 1.65,-1.22 h 11.06 c 3.17,0 5.25,-1.66 5.25,-3.71 0,-2.05 -2.08,-3.65 -5.25,-3.65 h -5.24 c -5.16,0 -8.7,-2.74 -8.7,-6.14 0,-3.4 3.54,-6.15 8.7,-6.15 h 11.11 c 0.89,0 1.65,0.56 1.65,1.22 0,0.66 -0.76,1.21 -1.65,1.21 h -11.06 c -3.17,0 -5.25,1.67 -5.25,3.72 0,2.05 2.08,3.64 5.25,3.64 h 5.24 c 5.15,0 8.7,2.75 8.7,6.15 0,3.4 -3.55,6.14 -8.7,6.14 z"
     class="cls-1" />
  <path
     style="fill:#c4c4ce"
     id="path16"
     d="m 95.675139,220.3174 v 9.75 c 0,0.7 -0.81,1.29 -1.75,1.29 -0.94,0 -1.75,-0.59 -1.75,-1.29 v -20 c 0,-0.7 0.8,-1.29 1.75,-1.29 0.95,0 1.75,0.59 1.75,1.29 v 9.75 l 15.600001,-10.66 a 2.27,2.27 0 0 1 2.5,0 1.08,1.08 0 0 1 0,1.81 l -13.48,9.09 13.48,9.1 a 1.07,1.07 0 0 1 0,1.8 2.25,2.25 0 0 1 -2.5,0 z"
     class="cls-1" />
  <path
     style="fill:#c4c4ce"
     id="path18"
     d="m 143.89514,222.1174 h -11.44 c -0.9,0 -1.66,-0.55 -1.66,-1.21 0,-0.66 0.76,-1.25 1.66,-1.25 h 11.49 v -2.81 c 0,-3.37 -3.46,-5.84 -7.71,-5.84 -4.25,0 -7.7,2.47 -7.7,5.84 v 13.22 c 0,0.7 -0.81,1.29 -1.75,1.29 -0.94,0 -1.75,-0.59 -1.75,-1.29 v -13.22 c 0,-4.76 5,-8.27 11.2,-8.27 6.2,0 11.2,3.51 11.2,8.27 v 13.22 c 0,0.7 -0.8,1.29 -1.75,1.29 -0.95,0 -1.74,-0.59 -1.74,-1.29 z"
     class="cls-1" />
</svg>
