<?xml version="1.0" encoding="UTF-8" standalone="no"?>
<svg
   version="1.1"
   id="ic_empty_zpiv"
   x="0px"
   y="0px"
   viewBox="0 0 100 100"
   style="enable-background:new 0 0 100 100;"
   xml:space="preserve"
   sodipodi:docname="img-empty-privacy.svg"
   inkscape:version="1.1 (c68e22c387, 2021-05-23)"
   xmlns:inkscape="http://www.inkscape.org/namespaces/inkscape"
   xmlns:sodipodi="http://sodipodi.sourceforge.net/DTD/sodipodi-0.dtd"
   xmlns="http://www.w3.org/2000/svg"
   xmlns:svg="http://www.w3.org/2000/svg"
   xmlns:rdf="http://www.w3.org/1999/02/22-rdf-syntax-ns#"
   xmlns:cc="http://creativecommons.org/ns#"
   xmlns:dc="http://purl.org/dc/elements/1.1/"><sodipodi:namedview
   pagecolor="#ffffff"
   bordercolor="#666666"
   borderopacity="1"
   objecttolerance="10"
   gridtolerance="10"
   guidetolerance="10"
   inkscape:pageopacity="0"
   inkscape:pageshadow="2"
   inkscape:window-width="3840"
   inkscape:window-height="2066"
   id="namedview23"
   showgrid="false"
   inkscape:zoom="14.7"
   inkscape:cx="49.081633"
   inkscape:cy="43.197279"
   inkscape:window-x="3829"
   inkscape:window-y="-11"
   inkscape:window-maximized="1"
   inkscape:current-layer="Group_9086"
   inkscape:document-rotation="0"
   inkscape:pagecheckerboard="0"
   inkscape:lockguides="true" /><metadata
   id="metadata33"><rdf:RDF><cc:Work
       rdf:about=""><dc:format>image/svg+xml</dc:format><dc:type
         rdf:resource="http://purl.org/dc/dcmitype/StillImage" /><dc:title /></cc:Work></rdf:RDF></metadata><defs
   id="defs31"><pattern
     id="EMFhbasepattern"
     patternUnits="userSpaceOnUse"
     width="6"
     height="6"
     x="0"
     y="0" /><pattern
     id="EMFhbasepattern-1"
     patternUnits="userSpaceOnUse"
     width="6"
     height="6"
     x="0"
     y="0" /><pattern
     id="EMFhbasepattern-5"
     patternUnits="userSpaceOnUse"
     width="6"
     height="6"
     x="0"
     y="0" /></defs>
<style
   type="text/css"
   id="style2">
	.st0{fill:#2EA1FF;}
	.st1{fill:#666666;}
	.st2{fill:#EFEFEF;}
</style>

<g
   id="Group_9086">
	
	<g
   id="Group_9085">
		<g
   id="Group_9083">
			<path
   id="Rectangle_4749"
   class="st1"
   d="M83,56h2v4h-2V56z" />
			<path
   id="Rectangle_4750"
   class="st1"
   d="M83,44h2v8h-2V44z" />
			<path
   id="Rectangle_4751"
   class="st1"
   d="M15,48h2v8h-2V48z" />
			<path
   id="Rectangle_4752"
   class="st1"
   d="M15,40h2v4h-2V40z" />
			<path
   id="Path_19033"
   class="st1"
   d="M95.2,71H85v-7h-2v9h7.8L76,90.5L61.2,73H68v-2h-4.5c11.6-7.5,15-22.9,7.5-34.5     c-6.4-9.9-18.9-14-29.9-9.8L24,6.5L4.8,29H15v7h2v-9H9.2L24,9.5L38.8,27H32v2h4.5c-11.6,7.5-15,22.9-7.5,34.5     c6.4,9.9,18.9,14,29.9,9.8L76,93.5L95.2,71z M27,50c0-12.7,10.3-23,23-23s23,10.3,23,23S62.7,73,50,73S27,62.7,27,50z" />
		</g>
	</g>
<path
   class="cls-1"
   d="m 58.333979,51.304021 q -1.017378,-1.300277 -3.203246,-2.083955 2.751665,-1.581415 2.751665,-4.153849 0,-2.034758 -1.642917,-3.544131 -1.642914,-1.509372 -4.261035,-1.509372 H 49.398981 V 34.36179 c 0,-0.08081 -0.267083,-0.147604 -0.595665,-0.147604 -0.328584,0 -0.590395,0.06501 -0.590395,0.145846 v 5.652684 h -1.757129 v -3.368414 c 0,-0.07204 -0.267083,-0.128264 -0.595667,-0.128264 -0.328582,0 -0.590395,0.05622 -0.590395,0.126528 v 3.370162 h -2.096252 a 1.0718482,1.0718482 0 0 0 -0.716909,0.191538 0.7028513,0.7028513 0 0 0 0,1.017377 1.0718482,1.0718482 0 0 0 0.716909,0.191538 h 1.883639 v 16.713807 h -1.883639 a 1.0718482,1.0718482 0 0 0 -0.716909,0.191538 0.64662318,0.64662318 0 0 0 -0.216131,0.507813 0.65365172,0.65365172 0 0 0 0.216131,0.500779 1.0402199,1.0402199 0 0 0 0.716909,0.200307 h 2.09801 v 4.041392 c 0,0.07033 0.261813,0.126595 0.583366,0.126595 h 0.02462 c 0.319797,0 0.578094,-0.05626 0.578094,-0.124725 v -4.041423 h 1.757129 v 5.568343 c 0,0.07903 0.260055,0.143999 0.58161,0.143999 h 0.02635 c 0.318041,0 0.578096,-0.06327 0.578096,-0.142329 V 59.52917 h 4.24522 a 5.7581091,5.7581091 0 0 0 2.987119,-0.817062 5.547254,5.547254 0 0 0 2.043542,-1.976771 5.0464723,5.0464723 0 0 0 0.667707,-2.560135 4.5527192,4.5527192 0 0 0 -1.010351,-2.871147 z m -6.325661,-9.890876 q 1.985553,0 3.219059,1.110504 1.233504,1.110506 1.22999,2.426597 A 3.3069153,3.3069153 0 0 1 55.889816,46.7513 3.6354983,3.6354983 0 0 1 54.308401,48.102531 7.1040694,7.1040694 0 0 1 51.405622,48.6859 h -2.006641 v -7.272755 z m -3.798911,0 V 48.6859 H 46.45228 V 41.413145 Z M 46.45228,58.12695 v -8.023048 h 1.757127 v 8.023048 z m 10.959206,-2.085714 a 4.246979,4.246979 0 0 1 -1.51816,1.484774 4.4841914,4.4841914 0 0 1 -2.352792,0.60094 h -4.141553 v -8.023048 h 2.096254 q 2.317654,0 3.635498,0.516595 a 4.5527192,4.5527192 0 0 1 2.059356,1.518158 3.4299142,3.4299142 0 0 1 0.743265,2.068142 3.5845417,3.5845417 0 0 1 -0.516597,1.834439 z"
   id="path6"
   style="fill:#ececec;stroke:#eeeeee;stroke-width:0.843516;stroke-miterlimit:4;stroke-dasharray:none;stroke-opacity:1" /></g>


</svg>
