<?xml version="1.0" encoding="UTF-8" standalone="no"?>
<svg
   xmlns:dc="http://purl.org/dc/elements/1.1/"
   xmlns:cc="http://creativecommons.org/ns#"
   xmlns:rdf="http://www.w3.org/1999/02/22-rdf-syntax-ns#"
   xmlns:svg="http://www.w3.org/2000/svg"
   xmlns="http://www.w3.org/2000/svg"
   xml:space="preserve"
   style="enable-background:new 0 0 100 100;"
   viewBox="0 0 100 100"
   y="0px"
   x="0px"
   id="ic_empty_Dark_transactions"
   version="1.1"><metadata
   id="metadata34"><rdf:RDF><cc:Work
       rdf:about=""><dc:format>image/svg+xml</dc:format><dc:type
         rdf:resource="http://purl.org/dc/dcmitype/StillImage" /><dc:title></dc:title></cc:Work></rdf:RDF></metadata><defs
   id="defs32">
		
	
			
			
			
			
			
			
		</defs>
<style
   id="style2"
   type="text/css">
	.st0{fill:#DB0000;}
	.st1{fill:#A09EA5;}
	.st2{fill:#EFEFEF;}
</style>

<g
   id="Group_9036">
	
	<path
   style="fill:#a09ea5;fill-opacity:0.14901961"
   d="m 50,25.999999 c -13.3,0 -24,10.7 -24,24 C 26,63.3 36.7,74 50,74 63.3,74 74,63.3 74,49.999999 c 0,-13.3 -10.7,-24 -24,-24 z M 50,68 c -9.9,0 -18,-8.100001 -18,-18.000001 0,-9.9 8.1,-18 18,-18 9.9,0 18,8.1 18,18 C 68,59.899999 59.9,68 50,68 Z"
   class="st0"
   id="Path_18988" />
	<path
   style="fill:#a09ea5;fill-opacity:1"
   d="M 50,31 C 39.5,31 31,39.5 31,50 31,60.5 39.5,69 50,69 60.5,69 69,60.5 69,50 69,39.5 60.5,31 50,31 Z m 0,36 c -9.4,0 -17,-7.6 -17,-17 0,-9.4 7.6,-17 17,-17 9.4,0 17,7.6 17,17 0,9.4 -7.6,17 -17,17 z"
   class="st0"
   id="Path_18990" /><path
   style="fill:#a09ea5"
   d="m 83,56 h 2 v 4 h -2 z"
   class="st1"
   id="Rectangle_4693" /><path
   style="fill:#a09ea5"
   d="m 83,44 h 2 v 8 h -2 z"
   class="st1"
   id="Rectangle_4694" /><path
   style="fill:#a09ea5"
   d="m 15,48 h 2 v 8 h -2 z"
   class="st1"
   id="Rectangle_4695" /><path
   style="fill:#a09ea5"
   d="m 15,40 h 2 v 4 h -2 z"
   class="st1"
   id="Rectangle_4696" /><path
   style="fill:#a09ea5"
   d="M 95.2,71 H 85 v -7 h -2 v 9 h 7.8 L 76,90.5 61.2,73 H 68 V 71 H 63.5 C 75.1,63.5 78.5,48.1 71,36.5 64.6,26.6 52.1,22.5 41.1,26.7 L 24,6.5 4.8,29 H 15 v 7 h 2 V 27 H 9.2 L 24,9.5 38.8,27 H 32 v 2 h 4.5 c -11.6,7.5 -15,22.9 -7.5,34.5 6.4,9.9 18.9,14 29.9,9.8 L 76,93.5 Z M 27,50 C 27,37.3 37.3,27 50,27 62.7,27 73,37.3 73,50 73,62.7 62.7,73 50,73 37.3,73 27,62.7 27,50 Z"
   class="st1"
   id="Path_18991" />
	
</g>
</svg>