<?xml version="1.0" encoding="UTF-8" standalone="no"?>
<svg
   xmlns:dc="http://purl.org/dc/elements/1.1/"
   xmlns:cc="http://creativecommons.org/ns#"
   xmlns:rdf="http://www.w3.org/1999/02/22-rdf-syntax-ns#"
   xmlns:svg="http://www.w3.org/2000/svg"
   xmlns="http://www.w3.org/2000/svg"
   height="512"
   width="512"
   version="1.1"
   viewBox="0 0 512 511.99999"
   data-name="Layer 1"
   id="Layer_1">
  <metadata
     id="metadata27">
    <rdf:RDF>
      <cc:Work
         rdf:about="">
        <dc:format>image/svg+xml</dc:format>
        <dc:type
           rdf:resource="http://purl.org/dc/dcmitype/StillImage" />
        <dc:title></dc:title>
      </cc:Work>
    </rdf:RDF>
  </metadata>
  <defs
     id="defs4">
    <style
       id="style2">.cls-1{fill:#fff;}</style>
  </defs>
  <path
     style="fill:#ffffff;stroke-width:2.03262973"
     id="path6"
     d="m 455.55941,213.3546 a 79.536805,79.536805 0 0 0 -30.81466,-29.77803 83.602065,83.602065 0 0 0 -8.27281,-4.06526 84.598053,84.598053 0 0 0 -15.0008,-4.67505 97.56623,97.56623 0 0 0 -20.52956,-2.03262 89.659297,89.659297 0 0 0 -44.04709,10.87457 c -1.68709,0.91468 -3.31318,1.87002 -4.87833,2.88632 l 5.40681,15.9155 a 65.816552,65.816552 0 0 1 8.35411,-5.4881 71.142043,71.142043 0 0 1 35.1645,-8.76063 75.207304,75.207304 0 0 1 15.48863,1.52447 65.83688,65.83688 0 0 1 15.04147,4.87831 c 1.56513,0.71142 3.08959,1.50415 4.59375,2.33752 a 63.316419,63.316419 0 0 1 24.53384,24.39156 72.239663,72.239663 0 0 1 0,69.41431 63.316419,63.316419 0 0 1 -24.53384,24.28993 68.519951,68.519951 0 0 1 -25.8144,8.25247 82.199551,82.199551 0 0 1 -9.02487,0.50815 h -0.20327 c -3.13025,0 -9.22813,-0.77239 -12.48036,-1.19924 a 20.529561,20.529561 0 0 1 -6.09789,-1.80904 21.749139,21.749139 0 0 1 -10.95586,-12.46003 L 305.75459,174.30779 h -16.11874 l -48.78312,140.65797 -32.40011,-93.9075 a 59.108875,59.108875 0 0 0 -10.91523,-19.249 79.272562,79.272562 0 0 0 -17.58224,-15.3057 c -1.58546,-1.01632 -3.19123,-2.03263 -4.85799,-2.88633 a 83.175211,83.175211 0 0 0 -11.11849,-5.1019 85.106212,85.106212 0 0 0 -9.85826,-3.02862 96.875137,96.875137 0 0 0 -22.82643,-2.62209 89.659297,89.659297 0 0 0 -43.965777,10.83391 79.272562,79.272562 0 0 0 -30.936625,29.77803 82.565422,82.565422 0 0 0 -11.098159,42.54294 82.504444,82.504444 0 0 0 11.098159,42.52262 79.272562,79.272562 0 0 0 30.936625,29.77802 89.659297,89.659297 0 0 0 44.047087,10.87456 89.130815,89.130815 0 0 0 43.80318,-10.75261 79.841699,79.841699 0 0 0 23.82241,-19.98075 l -6.82964,-20.3263 c -0.40652,0.81306 -0.85369,1.6261 -1.30087,2.41884 a 63.458703,63.458703 0 0 1 -24.53385,24.28993 70.450949,70.450949 0 0 1 -35.04254,8.76064 71.142043,71.142043 0 0 1 -35.184806,-8.76064 64.027839,64.027839 0 0 1 -24.757441,-24.28993 71.385959,71.385959 0 0 1 0,-69.41431 64.027839,64.027839 0 0 1 24.757441,-24.39156 71.32498,71.32498 0 0 1 35.184806,-8.76063 71.853463,71.853463 0 0 1 29.20889,6.07757 c 2.03264,0.87403 4.06527,1.87001 5.93528,2.94731 1.87002,1.0773 3.35383,2.03262 4.93929,3.04894 l 1.50415,1.05697 a 59.169853,59.169853 0 0 1 21.01739,28.45681 l 18.90347,53.946 18.29365,54.18992 h 17.98878 L 297.0956,198.29282 337.19938,315.0674 a 34.066875,34.066875 0 0 0 25.85507,22.54185 h 0.22357 a 100.39159,100.39159 0 0 0 12.78523,1.42285 c 1.62612,0 3.29289,0.12191 4.95964,0.12191 1.30087,0 2.58144,0 3.86199,0 a 88.134831,88.134831 0 0 0 39.85987,-10.71195 79.536805,79.536805 0 0 0 30.73336,-29.77803 86.691662,86.691662 0 0 0 0,-85.37045 z"
     class="cls-1" />
</svg>
