<?xml version="1.0" encoding="UTF-8" standalone="no"?>
<svg
   xmlns:dc="http://purl.org/dc/elements/1.1/"
   xmlns:cc="http://creativecommons.org/ns#"
   xmlns:rdf="http://www.w3.org/1999/02/22-rdf-syntax-ns#"
   xmlns:svg="http://www.w3.org/2000/svg"
   xmlns="http://www.w3.org/2000/svg"
   xmlns:sodipodi="http://sodipodi.sourceforge.net/DTD/sodipodi-0.dtd"
   xmlns:inkscape="http://www.inkscape.org/namespaces/inkscape"
   version="1.1"
   id="ic_staking_on"
   inkscape:version="1.0.1 (3bc2e813f5, 2020-09-07)"
   sodipodi:docname="img-empty-staking-on.svg"
   x="0px"
   y="0px"
   viewBox="0 0 100 100"
   style="enable-background:new 0 0 100 100;"
   xml:space="preserve"><metadata
   id="metadata36"><rdf:RDF><cc:Work
       rdf:about=""><dc:format>image/svg+xml</dc:format><dc:type
         rdf:resource="http://purl.org/dc/dcmitype/StillImage" /></cc:Work></rdf:RDF></metadata><defs
   id="defs34"><pattern
     id="EMFhbasepattern"
     patternUnits="userSpaceOnUse"
     width="6"
     height="6"
     x="0"
     y="0" /></defs>
<style
   type="text/css"
   id="style2">
	.st0{fill:#2EA1FF;}
	.st1{fill:#666666;}
	.st2{fill:#EFEFEF;}
</style>
<polygon
   class="st0"
   points="76.7,79.8 79.4,79.8 84.3,79.8 88.2,79 90.4,78.2 91.4,79.2 92,80.7 90.1,83 83.5,83.6 78.8,84.1   77.3,83.7 75.7,82.4 "
   id="polygon4"
   style="fill:#8e1baa;fill-opacity:1" />
<path
   class="st0"
   d="M64.6,72l8.7-1l1-0.8l1.4,2.4l-3.5,1.9c0,0-4.8,1.7-5,1.5s-3.7-0.3-3.7-0.3"
   id="path6"
   style="fill:#8e1baa;fill-opacity:1" />

<sodipodi:namedview
   bordercolor="#666666"
   borderopacity="1"
   gridtolerance="10"
   guidetolerance="10"
   id="namedview18"
   inkscape:current-layer="ic_staking_on"
   inkscape:cx="46.64322"
   inkscape:cy="51.170734"
   inkscape:pageopacity="0"
   inkscape:pageshadow="2"
   inkscape:window-height="2066"
   inkscape:window-width="3840"
   inkscape:zoom="15.249099"
   objecttolerance="10"
   pagecolor="#ffffff"
   showgrid="false"
   inkscape:document-rotation="0"
   inkscape:window-x="3829"
   inkscape:window-y="-11"
   inkscape:window-maximized="1">
	</sodipodi:namedview>
<g
   id="Group_9018">
	<g
   id="Group_9016"
   style="fill:#000000;fill-opacity:1">
		<path
   id="Ellipse_613"
   style="fill:#000000;fill-opacity:1"
   d="M 92,56 A 12,4 0 0 1 80,60 12,4 0 0 1 68,56 12,4 0 0 1 80,52 12,4 0 0 1 92,56 Z"
   class="st0" />
		<path
   id="Ellipse_614"
   style="fill:#000000;fill-opacity:1"
   d="M 76,68 A 12,4 0 0 1 64,72 12,4 0 0 1 52,68 12,4 0 0 1 64,64 12,4 0 0 1 76,68 Z"
   class="st0" />
		<path
   id="Rectangle_4669"
   class="st0"
   d="M32,24h14v14H32V24z"
   style="fill:#000000;fill-opacity:1" />
	</g>
	<g
   id="Group_9017"
   transform="translate(-0.3,-0.2)">
		<path
   id="Rectangle_4670"
   class="st1"
   d="m 12,60 h 2 v 4 h -2 z" />
		<path
   id="Path_18975"
   class="st1"
   d="m 92,58 c 0.6,-0.5 0.9,-1.2 1,-2 0,-3.3 -6.5,-5 -13,-5 -6.5,0 -13,1.7 -13,5 0,0.8 0.4,1.5 1,2 -1.1,0.9 -1.3,2.5 -0.4,3.6 0.1,0.1 0.2,0.3 0.4,0.4 -0.3,0.3 -0.6,0.7 -0.8,1.2 -0.4,0 -0.8,-0.1 -1.2,-0.1 V 39 h 5 V 23 H 52.6 C 56.5,19.9 57.1,14.2 54,10.4 50.9,6.6 45.2,5.9 41.4,9 40.4,9.8 39.6,10.8 39,11.9 36.7,7.5 31.3,5.7 26.9,8 c -4.4,2.3 -6.2,7.7 -3.9,12.1 0.6,1.1 1.4,2.1 2.4,2.9 H 7 v 16 h 5 v 17 h 2 V 39 h 50 v 24 c -6.5,0 -13,1.7 -13,5 0,0.8 0.4,1.5 1,2 -1.1,0.9 -1.3,2.5 -0.4,3.6 0.1,0.1 0.2,0.3 0.4,0.4 -0.3,0.3 -0.6,0.6 -0.7,1 H 14 v -7 h -2 v 9 h 39.2 c 0.2,0.4 0.4,0.7 0.7,1 -1.1,0.9 -1.3,2.5 -0.4,3.6 0.1,0.1 0.2,0.3 0.4,0.4 -1.1,0.9 -1.3,2.5 -0.4,3.6 0.1,0.1 0.2,0.3 0.4,0.4 -0.6,0.5 -0.9,1.2 -1,2 0,3.3 6.5,5 13,5 5.9,0 11.8,-1.4 12.8,-4.2 1,0.1 2.1,0.2 3.2,0.2 6.5,0 13,-1.7 13,-5 0,-0.8 -0.4,-1.5 -1,-2 1.1,-0.9 1.3,-2.5 0.4,-3.6 C 92.2,78.3 92.1,78.1 91.9,78 93,77.1 93.2,75.5 92.3,74.4 92.2,74.3 92.1,74.1 91.9,74 93,73.1 93.2,71.5 92.3,70.4 92.2,70.3 92.1,70.1 91.9,70 93,69.1 93.2,67.5 92.3,66.4 92.2,66.3 92.1,66.1 91.9,66 93,65.1 93.2,63.5 92.3,62.4 92.2,62.3 92.1,62.1 91.9,62 93,61.1 93.2,59.5 92.3,58.4 92.3,58.2 92.2,58.1 92,58 Z M 31,37 H 9 V 25 H 31 Z M 24,16 c 0,-3.9 3.1,-7 7,-7 3.9,0 7,3.1 7,7 v 7 h -7 c -3.9,0 -7,-3.1 -7,-7 z M 45,37 H 33 V 25 H 45 Z M 40,23 v -7 c 0,-3.9 3.1,-7 7,-7 3.9,0 7,3.1 7,7 0,3.9 -3.1,7 -7,7 z m 7,14 V 25 h 22 v 12 z m 4,39 c 0,0.2 0,0.3 0.1,0.5 C 51,76.3 51,76.2 51,76 Z m 13,15 c -7.1,0 -11,-2 -11,-3 0,-0.2 0.2,-0.5 0.7,-0.8 2.5,1.2 6.4,1.8 10.3,1.8 3.9,0 7.8,-0.6 10.3,-1.8 0.4,0.3 0.7,0.6 0.7,0.8 0,1 -3.9,3 -11,3 z m 0,-4 c -7.1,0 -11,-2 -11,-3 0,-0.2 0.2,-0.5 0.7,-0.8 2.5,1.2 6.4,1.8 10.3,1.8 3.9,0 7.8,-0.6 10.3,-1.8 0.4,0.3 0.7,0.6 0.7,0.8 0,1 -3.9,3 -11,3 z m 0,-4 c -7.1,0 -11,-2 -11,-3 0,-0.2 0.2,-0.5 0.7,-0.8 2.5,1.2 6.4,1.8 10.3,1.8 3.9,0 7.8,-0.6 10.3,-1.8 0.4,0.3 0.7,0.6 0.7,0.8 0,1 -3.9,3 -11,3 z m 0,-4 c -7.1,0 -11,-2 -11,-3 0,-0.2 0.2,-0.5 0.7,-0.8 2.5,1.2 6.4,1.8 10.3,1.8 3.9,0 7.8,-0.6 10.3,-1.8 0.4,0.3 0.7,0.6 0.7,0.8 0,1 -3.9,3 -11,3 z m 0,-4 c -7.1,0 -11,-2 -11,-3 0,-0.2 0.2,-0.5 0.7,-0.8 2.5,1.2 6.4,1.8 10.3,1.8 3.9,0 7.8,-0.6 10.3,-1.8 0.4,0.3 0.7,0.6 0.7,0.8 0,0.797609 -2.481104,2.231399 -7.088117,2.779099 C 66.742869,74.918076 65.436974,75 64,75 Z m 0,-4 c -7.1,0 -11,-2 -11,-3 0,-1 3.9,-3 11,-3 7.1,0 11,2 11,3 0,1 -3.9,3 -11,3 z m 16,16 c -1.2,0 -2.3,-0.1 -3.3,-0.2 -0.2,-0.3 -0.4,-0.6 -0.6,-0.8 0.3,-0.3 0.6,-0.7 0.8,-1.2 1,0.1 2.1,0.2 3.2,0.2 3.9,0 7.8,-0.6 10.3,-1.8 0.4,0.3 0.7,0.6 0.7,0.8 -0.1,1 -4,3 -11.1,3 z m 0,-4 c -1.2,0 -2.3,-0.1 -3.3,-0.2 -0.2,-0.3 -0.4,-0.6 -0.6,-0.8 0.3,-0.3 0.6,-0.7 0.8,-1.2 1,0.1 2.1,0.2 3.2,0.2 3.9,0 7.8,-0.6 10.3,-1.8 0.4,0.3 0.7,0.6 0.7,0.8 -0.07096,0.709557 -2.0551,1.922583 -5.738084,2.567358 -0.665985,0.116594 -1.38752,0.214606 -2.163338,0.2877 C 82.218212,82.947424 81.151167,83 80,83 Z m 0,-4 c -1.2,0 -2.3,-0.1 -3.3,-0.2 -0.2,-0.3 -0.4,-0.6 -0.6,-0.8 0.3,-0.3 0.6,-0.7 0.8,-1.2 1,0.1 2.1,0.2 3.2,0.2 3.9,0 7.8,-0.6 10.3,-1.8 0.4,0.3 0.7,0.6 0.7,0.8 -0.1,1 -4,3 -11.1,3 z m 0,-4 c -1.2,0 -2.3,-0.1 -3.3,-0.2 -0.2,-0.3 -0.4,-0.6 -0.6,-0.8 0.3,-0.3 0.6,-0.7 0.8,-1.2 1,0.1 2.1,0.2 3.2,0.2 3.9,0 7.8,-0.6 10.3,-1.8 0.4,0.3 0.7,0.6 0.7,0.8 -0.1,1 -4,3 -11.1,3 z m 0,-4 c -1.2,0 -2.3,-0.1 -3.3,-0.2 -0.2,-0.3 -0.4,-0.6 -0.6,-0.8 0.3,-0.3 0.6,-0.7 0.8,-1.2 1,0.1 2.1,0.2 3.2,0.2 3.9,0 7.8,-0.6 10.3,-1.8 0.4,0.3 0.7,0.6 0.7,0.8 -0.1,1 -4,3 -11.1,3 z m 0,-4 c -1.2,0 -2.3,-0.1 -3.3,-0.2 -0.6,-1.2 -2.2,-2.1 -4.2,-2.7 2.5,0.6 5,0.9 7.5,0.9 3.9,0 7.8,-0.6 10.3,-1.8 0.4,0.3 0.7,0.6 0.7,0.8 0,1 -3.9,3 -11,3 z m -10.6,-3.6 0.3,-0.3 c 0.6,0.3 1.2,0.5 1.8,0.7 -0.7,-0.1 -1.4,-0.3 -2.1,-0.4 z M 80,63 c -7.1,0 -11,-2 -11,-3 0,-0.2 0.2,-0.5 0.7,-0.8 2.5,1.2 6.4,1.8 10.3,1.8 3.9,0 7.8,-0.6 10.3,-1.8 0.4,0.3 0.7,0.6 0.7,0.8 0,1 -3.9,3 -11,3 z m 0,-4 c -7.1,0 -11,-2 -11,-3 0,-1 3.9,-3 11,-3 7.1,0 11,2 11,3 0,1 -3.9,3 -11,3 z"
   sodipodi:nodetypes="ccsscccccccccsccsccccccccccscccccccccccccccscssccccccccccccccccccssscssccccccsssscccccccccsscscsssscscsssscscsssscscsssscscssssssssscccsccsscccsccsssscccsccsscccsccsscccsccssccscssccccsscscsssssss" />
	</g>
</g>

<g
   id="g937"
   transform="matrix(0.30519259,0,0,0.27991593,-97.326121,-1.1225738)"><path
     style="fill:#8e1baa;fill-opacity:1;fill-rule:nonzero;stroke:none;stroke-width:0.205054"
     d="m 434.42267,160.4966 c 15.03782,28.37487 14.08203,59.90251 0.76464,85.71118 -12.42532,-20.30967 -17.01313,-54.84343 -0.76464,-85.71118 z"
     id="path890" /><path
     style="fill:#8e1baa;fill-opacity:1;fill-rule:nonzero;stroke:none;stroke-width:0.205054"
     d="m 430.08974,248.62734 c -27.84545,1.53972 -45.30462,-19.94306 -52.95096,-42.59897 4.77896,-1.39308 9.55793,-0.87984 14.3369,0.29328 3.05854,0.7332 6.1808,1.75968 9.23934,2.5662 1.72043,0.43992 2.16646,2.27293 2.9311,3.95929 2.23018,5.05908 4.33293,10.26481 6.94543,15.03062 3.75946,6.89208 8.7933,12.02449 14.20947,16.57033 1.59299,1.39309 3.31341,2.71285 5.28872,4.17925 z"
     id="path892" /><path
     style="fill:#8e1baa;fill-opacity:1;fill-rule:nonzero;stroke:none;stroke-width:0.205054"
     d="m 401.22477,172.88769 c 5.79849,3.73933 11.21465,7.91857 15.67502,13.93082 1.40183,1.833 2.9311,3.59268 4.14177,5.64565 0.50976,0.95316 0.6372,2.49288 0.6372,3.81264 0.0637,4.54585 0,9.16501 0.0637,13.71085 0,6.08557 1.21067,11.95118 2.86738,17.52351 1.72043,5.93892 3.88689,11.73121 5.67104,17.01025 -19.05215,-12.09781 -31.47747,-39.88612 -29.05613,-71.63372 z"
     id="path894" /><path
     style="fill:#8e1baa;fill-opacity:1;fill-rule:nonzero;stroke:none;stroke-width:0.205054"
     d="m 439.58396,244.44809 c 1.52927,-4.61916 3.37714,-9.09169 4.58781,-13.85749 1.33811,-5.05909 2.35762,-10.33813 3.05854,-15.61718 0.63719,-4.69248 0.63719,-9.45829 0.82835,-14.2241 0.0637,-1.833 -0.0637,-3.73932 -0.38232,-5.499 -0.44603,-2.27292 0.44604,-3.66601 1.46555,-4.98577 2.61251,-3.22608 5.09757,-6.67213 7.96495,-9.53161 3.37714,-3.37272 7.07287,-6.15889 10.83233,-9.31165 2.2939,37.83316 -12.23416,62.17543 -28.35521,73.0268 z"
     id="path896" /><path
     style="fill:#8e1baa;fill-opacity:1;fill-rule:nonzero;stroke:none;stroke-width:0.205054"
     d="m 440.47603,248.04078 c 6.30824,-4.47253 11.66068,-9.97153 16.18477,-16.71698 3.82318,-5.79229 7.32775,-11.95117 9.23934,-19.3565 0.9558,-3.73933 3.44086,-4.32589 5.60732,-5.05909 4.39665,-1.53972 8.7933,-2.78616 13.38111,-2.5662 2.42135,0.0733 4.90641,0 7.32775,0 -6.30823,22.50926 -25.80642,45.89837 -51.74029,43.69877 z"
     id="path898" /><path
     style="fill:#8e1baa;fill-opacity:1;fill-rule:nonzero;stroke:none;stroke-width:0.205054"
     d="m 416.51747,163.20944 c 2.10275,2.85949 3.69574,5.42569 5.67104,7.40533 2.67623,2.71284 3.37714,5.64565 1.72043,9.60493 -0.50975,1.24644 -0.76463,2.71284 -1.08323,4.10593 -0.25488,1.31976 -0.44604,2.71284 -0.6372,3.95928 -2.54878,-3.00612 -5.03384,-5.86561 -7.45519,-8.87173 -0.44603,-0.58656 -0.95579,-1.833 -0.82835,-2.5662 0.70091,-4.32589 1.59299,-8.57845 2.6125,-13.63754 z"
     id="path900" /><path
     style="fill:#8e1baa;fill-opacity:1;fill-rule:nonzero;stroke:none;stroke-width:0.205054"
     d="m 452.32787,162.98948 c 1.01952,5.27905 1.91159,9.82489 2.80366,14.29742 0.0637,0.43992 -0.0637,1.02648 -0.31859,1.31976 -2.61251,3.07944 -5.28873,6.15889 -7.90123,9.16501 -1.01951,-3.88596 -2.10275,-7.91857 -3.18598,-12.02449 -0.0637,-0.29328 0,-0.87984 0.19116,-1.0998 1.91159,-2.63953 3.88689,-5.20573 5.8622,-7.84525 0.76463,-1.09981 1.46555,-2.19961 2.54878,-3.81265 z"
     id="path902" /><path
     style="fill:#8e1baa;fill-opacity:1;fill-rule:nonzero;stroke:none;stroke-width:0.205054"
     d="m 386.31439,187.40507 c 3.05854,1.24644 6.11708,2.49288 9.23934,3.59268 1.72043,0.51324 2.48507,1.46641 2.73994,3.95929 0.25488,3.2994 1.08324,6.45216 1.65671,9.82489 -3.63201,-0.95316 -7.07287,-1.833 -11.15092,-2.78616 -0.9558,-4.32589 -2.03903,-9.16502 -3.05854,-14.07746 0.19116,-0.14664 0.38232,-0.3666 0.57347,-0.51324 z"
     id="path904" /><path
     style="fill:#8e1baa;fill-opacity:1;fill-rule:nonzero;stroke:none;stroke-width:0.205054"
     d="m 483.23186,187.18511 c -0.89207,4.47252 -1.52927,8.35849 -2.48506,12.17113 -0.19116,0.95316 -1.21067,1.833 -1.9753,2.05296 -2.99483,1.02649 -6.05337,1.75969 -9.04818,2.56621 -0.19116,0 -0.38232,-0.0733 -0.50976,-0.0733 0.57348,-3.88597 1.08323,-7.69861 1.72043,-11.58458 0.0637,-0.3666 0.63719,-0.65988 0.95579,-0.80652 3.63202,-1.39308 7.32775,-2.78616 11.34208,-4.32588 z"
     id="path906" /><path
     style="fill:#8e1baa;fill-opacity:1;fill-rule:nonzero;stroke:none;stroke-width:0.205054"
     d="m 435.8245,255.37279 h -1.59299 v -81.89854 h 1.59299 z"
     id="path908" /></g></svg>
