<?xml version="1.0" encoding="UTF-8" standalone="no"?>
<svg
   xmlns:dc="http://purl.org/dc/elements/1.1/"
   xmlns:cc="http://creativecommons.org/ns#"
   xmlns:rdf="http://www.w3.org/1999/02/22-rdf-syntax-ns#"
   xmlns:svg="http://www.w3.org/2000/svg"
   xmlns="http://www.w3.org/2000/svg"
   version="1.1"
   id="ic_empty_dark_multisend"
   x="0px"
   y="0px"
   viewBox="0 0 100 100"
   style="enable-background:new 0 0 100 100;"
   xml:space="preserve"><metadata
   id="metadata39"><rdf:RDF><cc:Work
       rdf:about=""><dc:format>image/svg+xml</dc:format><dc:type
         rdf:resource="http://purl.org/dc/dcmitype/StillImage" /><dc:title></dc:title></cc:Work></rdf:RDF></metadata><defs
   id="defs37">
	
	

		
		
		
		
		
		
		
	
		
		
	
			
			
			
		</defs>
<style
   type="text/css"
   id="style2">
	.st0{fill:#810890;}
	.st1{fill:#A09EA5;}
	.st2{fill:#EFEFEF;}
</style>

<path
   id="Rectangle_4717"
   class="st0"
   d="m 45,18 h 10 v 9 H 45 Z"
   style="fill:#a09ea5;fill-opacity:0.14901961" /><path
   style="fill:#a09ea5;fill-opacity:0.14901961"
   d="m 14,66 h 6 v 10 h -6 z"
   class="st0"
   id="Rectangle_4718" /><path
   style="fill:#a09ea5;fill-opacity:0.14901961"
   d="m 80,66 h 6 v 10 h -6 z"
   class="st0"
   id="Rectangle_4719" /><path
   style="fill:#a09ea5;fill-opacity:0.14901961"
   d="m 47,66 h 6 v 10 h -6 z"
   class="st0"
   id="Rectangle_4720" /><path
   id="Rectangle_4722"
   class="st1"
   d="m 67,40 h 2 v 4 h -2 z"
   style="fill:#a09ea5" /><circle
   id="Ellipse_643"
   class="st1"
   cx="50"
   cy="73"
   r="1"
   style="fill:#a09ea5" /><circle
   id="Ellipse_644"
   class="st1"
   cx="83"
   cy="73"
   r="1"
   style="fill:#a09ea5" /><path
   id="Rectangle_4723"
   class="st1"
   d="m 32,58 h 4 v 2 h -4 z"
   style="fill:#a09ea5" /><path
   id="Path_19007"
   class="st1"
   d="m 16,65 h -3 v 3 H 7 v 4 h 2 v -2 h 4 v 7 h 8 v -7 h 4 V 91 H 9 V 76 H 7 V 93 H 27 V 68 H 21 V 65 H 18 V 60 H 28 V 58 H 16 Z m 3,2 v 8 h -4 v -8 z"
   style="fill:#a09ea5" /><circle
   id="Ellipse_645"
   class="st1"
   cx="17"
   cy="73"
   r="1"
   style="fill:#a09ea5" /><path
   id="Path_19008"
   class="st1"
   d="M 87,68 V 65 H 84 V 58 H 51 v -5 h 18 v -5 h -2 v 3 H 33 V 28 h 34 v 8 h 2 v -8 h 4 V 17 H 59.5 C 61.7,14.5 61.5,10.7 59,8.5 56.5,6.3 52.7,6.5 50.5,9 50.3,9.2 50.1,9.5 50,9.7 48.2,6.9 44.5,6.2 41.7,8 c -2.8,1.8 -3.5,5.5 -1.7,8.3 0.2,0.3 0.4,0.5 0.6,0.7 H 27 v 11 h 4 v 25 h 18 v 5 h -9 v 2 h 9 v 5 h -3 v 3 h -6 v 16 h 2 V 70 h 4 v 7 h 8 v -7 h 4 V 91 H 42 v -3 h -2 v 5 H 60 V 68 h -6 v -3 h -3 v -5 h 31 v 5 h -3 v 3 h -6 v 12 h 2 V 70 h 4 v 7 h 8 v -7 h 4 V 91 H 75 v -7 h -2 v 9 H 93 V 68 Z M 71,19 v 7 H 56 V 19 Z M 51,13 c 0,-2.2 1.8,-4 4,-4 2.2,0 4,1.8 4,4 0,2.2 -1.8,4 -4,4 h -4 z m 0,6 h 3 v 7 H 46 V 19 Z M 45,9 c 2.2,0 4,1.8 4,4 v 4 h -4 c -2.2,0 -4,-1.8 -4,-4 0,-2.2 1.8,-4 4,-4 z M 29,26 v -7 h 15 v 7 z m 23,41 v 8 h -4 v -8 z m 33,8 h -4 v -8 h 4 z"
   style="fill:#a09ea5" />
<rect
   x="33"
   y="28"
   class="st0"
   width="34"
   height="23"
   id="rect20"
   style="fill:#a09ea5;fill-opacity:0.14901961" />

<g
   transform="matrix(0.04784216,0,0,0.04701545,37.578407,26.725609)"
   id="g832"
   style="fill:#00ffff;fill-opacity:1;stroke:#000000;stroke-opacity:0"><path
     d="m 402.71869,94.847487 a 128.32833,135.91504 0 0 0 -4.55756,0.130654 h -7.91689 v 9.101209 c 3.45346,-0.006 6.90233,-0.0145 10.35614,-0.0435 3.51643,0.0758 7.39735,-0.097 10.69851,1.0887 2.94231,1.41373 5.37124,4.20617 7.59593,6.53196 23.20847,25.53824 47.13779,50.37847 70.33193,75.9015 C 412.67852,269.29024 336.14242,351.06189 259.59416,432.85515 182.91198,351.09217 106.29584,269.24338 29.747613,187.31841 52.683378,163.07229 75.232141,138.54779 98.19661,114.22567 c 4.19102,-4.13476 7.85556,-9.90191 14.35738,-9.68909 12.07797,-0.16811 24.20522,-0.0613 36.33211,-0.0435 v -9.558457 h -7.42476 v 0.04348 h -20.30575 c -5.23877,0.04571 -10.68139,-0.339454 -15.79099,0.587822 -3.32981,0.68404 -6.062469,3.47246 -8.387618,5.813455 -22.0746,23.60768 -44.085713,47.1426 -66.031137,70.87187 -4.60725,4.89479 -9.175489,10.45336 -14.442974,14.58812 v 0.60968 c 12.142464,12.06984 23.471034,24.97583 35.326444,37.31931 69.256995,74.05068 138.578235,147.97313 207.978825,221.76037 76.73005,-81.79327 153.41433,-163.62902 230.03912,-245.49319 4.30586,-4.51479 8.24476,-9.05982 12.92379,-13.19458 v -0.71848 c -4.3489,-3.93716 -8.22786,-8.43332 -12.17489,-12.78089 -22.96448,-24.61094 -46.06301,-49.13745 -68.89834,-73.85481 -2.13856,-2.143385 -4.64548,-4.695595 -7.74571,-5.182033 a 128.32833,135.91504 0 0 0 -10.31335,-0.457175 128.32833,135.91504 0 0 0 -0.92002,0 z"
     style="opacity:1;fill:#f0b900;fill-opacity:1;stroke:#f0b900;stroke-width:8.9514389;stroke-miterlimit:4;stroke-dasharray:none;stroke-opacity:1"
     id="path8" /><path
     d="m 12.884766,14.980469 c -0.655423,0.007 -1.318224,0.0669 -1.892578,0.40039 -0.522143,0.295819 -0.903464,0.835291 -1.304688,1.273438 -0.6128268,0.673966 -1.2670314,1.315439 -1.9238281,1.953125 0.9934393,1.067461 2.039265,2.100232 3.0546871,3.152344 4.418036,4.542404 8.844896,9.081292 13.28125,13.617187 5.44033,-5.582425 10.883217,-11.161345 16.328125,-16.736328 -0.818935,-0.893039 -1.704139,-1.719409 -2.517578,-2.595703 a 5.0839908,5.162882 0 0 0 -0.832031,-0.800781 c -0.311909,-0.207911 -0.73686,-0.197265 -1.099609,-0.207032 h -0.94336 v 0.857422 c 0.360173,0.0044 0.719674,0.0078 1.080078,0.0078 0.467178,-0.01256 0.709791,0.31272 1.017578,0.601562 0.674663,0.70885 1.361804,1.417548 2.048829,2.115235 -5.001549,5.185204 -10.066381,10.320374 -15.076172,15.5 C 19.407587,29.32602 14.740419,24.513798 10.050781,19.710925 9.7100178,19.360686 9.3275448,19.015693 9.0527344,18.615221 9.4251024,18.131027 9.906145,17.71548 10.318359,17.267565 c 0.406719,-0.403263 0.774716,-0.860139 1.222657,-1.21875 0.193741,-0.157677 0.418538,-0.136714 0.65625,-0.15625 0.972269,-0.02635 1.944675,-0.03401 2.917968,-0.03516 V 15 C 14.371597,14.98992 13.62926,14.98047 12.884766,14.98047 Z"
     transform="matrix(10.955263,0,0,11.147895,-4.7314113,-15.458223)"
     style="opacity:1;fill:#f0b900;fill-opacity:1;stroke:#f0b900;stroke-width:1;stroke-miterlimit:4;stroke-dasharray:none;stroke-opacity:1"
     id="path14" /><rect
     y="99.840103"
     x="219.90202"
     height="100.85415"
     width="102.88555"
     id="rect993"
     style="fill:none;fill-opacity:1;stroke:#f0b900;stroke-width:18.78697014;stroke-miterlimit:4;stroke-dasharray:none;stroke-opacity:1" /><rect
     transform="matrix(0.55524729,-0.8316853,0.82257929,0.56865044,0,0)"
     y="347.22757"
     x="-79.677498"
     height="10.819735"
     width="70.781349"
     id="rect1007"
     style="fill:#1a1a1a;fill-opacity:1;stroke:#f0b900;stroke-width:13.26226139;stroke-miterlimit:4;stroke-dasharray:none;stroke-opacity:1" /></g></svg>