<?xml version="1.0" encoding="UTF-8" standalone="no"?>
<svg
   xmlns:dc="http://purl.org/dc/elements/1.1/"
   xmlns:cc="http://creativecommons.org/ns#"
   xmlns:rdf="http://www.w3.org/1999/02/22-rdf-syntax-ns#"
   xmlns:svg="http://www.w3.org/2000/svg"
   xmlns="http://www.w3.org/2000/svg"
   xmlns:sodipodi="http://sodipodi.sourceforge.net/DTD/sodipodi-0.dtd"
   xmlns:inkscape="http://www.inkscape.org/namespaces/inkscape"
   version="1.1"
   id="ic_dark_staking_on"
   inkscape:version="1.0.1 (3bc2e813f5, 2020-09-07)"
   sodipodi:docname="img-empty-dark-staking-on.svg"
   x="0px"
   y="0px"
   viewBox="0 0 100 100"
   style="enable-background:new 0 0 100 100;"
   xml:space="preserve"><metadata
   id="metadata30"><rdf:RDF><cc:Work
       rdf:about=""><dc:format>image/svg+xml</dc:format><dc:type
         rdf:resource="http://purl.org/dc/dcmitype/StillImage" /></cc:Work></rdf:RDF></metadata><defs
   id="defs28" />
<style
   type="text/css"
   id="style2">
	.st0{fill:#2EA1FF;}
	.st1{fill:#A09EA5;}
</style>
<sodipodi:namedview
   bordercolor="#666666"
   borderopacity="1"
   gridtolerance="10"
   guidetolerance="10"
   id="namedview18"
   inkscape:current-layer="Group_9051"
   inkscape:cx="59.289177"
   inkscape:cy="51.995714"
   inkscape:pageopacity="0"
   inkscape:pageshadow="2"
   inkscape:window-height="2066"
   inkscape:window-width="3840"
   inkscape:zoom="7.2667528"
   objecttolerance="10"
   pagecolor="#ffffff"
   showgrid="false"
   inkscape:document-rotation="0"
   inkscape:window-x="3829"
   inkscape:window-y="-11"
   inkscape:window-maximized="1">
	</sodipodi:namedview>
<g
   id="Group_9053">
	<g
   id="Group_9051">
		<ellipse
   id="Ellipse_640"
   class="st0"
   cx="80"
   cy="56"
   rx="12"
   ry="4"
   style="fill:#27cafc;fill-opacity:1" />
		<ellipse
   id="Ellipse_641"
   class="st0"
   cx="64"
   cy="68"
   rx="12"
   ry="4"
   style="fill:#27cafc;fill-opacity:1" />
		<path
   id="Rectangle_4706"
   class="st0"
   d="M32,24h14v14H32V24z"
   style="fill:#27cafc;fill-opacity:1" />
	</g>
	<g
   id="Group_9052">
		<path
   id="Rectangle_4707"
   class="st1"
   d="M12,60h2v4h-2V60z" />
		<path
   id="Path_19001"
   class="st1"
   d="M92,58c0.6-0.5,0.9-1.2,1-2c0-3.3-6.5-5-13-5s-13,1.7-13,5c0,0.8,0.4,1.5,1,2    c-1.1,0.9-1.3,2.5-0.4,3.6c0.1,0.1,0.2,0.3,0.4,0.4c-0.3,0.3-0.6,0.7-0.8,1.2c-0.4,0-0.8-0.1-1.2-0.1V39h5V23H52.6    c3.9-3.1,4.5-8.8,1.4-12.6S45.2,5.9,41.4,9c-1,0.8-1.8,1.8-2.4,2.9C36.7,7.5,31.3,5.7,26.9,8s-6.2,7.7-3.9,12.1    c0.6,1.1,1.4,2.1,2.4,2.9H7v16h5v17h2V39h50v24c-6.5,0-13,1.7-13,5c0,0.8,0.4,1.5,1,2c-1.1,0.9-1.3,2.5-0.4,3.6    c0.1,0.1,0.2,0.3,0.4,0.4c-0.3,0.3-0.6,0.6-0.7,1H14v-7h-2v9h39.2c0.2,0.4,0.4,0.7,0.7,1c-1.1,0.9-1.3,2.5-0.4,3.6    c0.1,0.1,0.2,0.3,0.4,0.4c-1.1,0.9-1.3,2.5-0.4,3.6c0.1,0.1,0.2,0.3,0.4,0.4c-0.6,0.5-0.9,1.2-1,2c0,3.3,6.5,5,13,5    c5.9,0,11.8-1.4,12.8-4.2c1,0.1,2.1,0.2,3.2,0.2c6.5,0,13-1.7,13-5c0-0.8-0.4-1.5-1-2c1.1-0.9,1.3-2.5,0.4-3.6    c-0.1-0.1-0.2-0.3-0.4-0.4c1.1-0.9,1.3-2.5,0.4-3.6c-0.1-0.1-0.2-0.3-0.4-0.4c1.1-0.9,1.3-2.5,0.4-3.6c-0.1-0.1-0.2-0.3-0.4-0.4    c1.1-0.9,1.3-2.5,0.4-3.6c-0.1-0.1-0.2-0.3-0.4-0.4c1.1-0.9,1.3-2.5,0.4-3.6c-0.1-0.1-0.2-0.3-0.4-0.4c1.1-0.9,1.3-2.5,0.4-3.6    C92.3,58.2,92.2,58.1,92,58z M31,37H9V25h22V37z M24,16c0-3.9,3.1-7,7-7s7,3.1,7,7v7h-7C27.1,23,24,19.9,24,16z M45,37H33V25h12    V37z M40,23v-7c0-3.9,3.1-7,7-7s7,3.1,7,7s-3.1,7-7,7H40z M47,37V25h22v12H47z M51,76c0,0.2,0,0.3,0.1,0.5C51,76.3,51,76.2,51,76z     M64,91c-7.1,0-11-2-11-3c0-0.2,0.2-0.5,0.7-0.8C56.2,88.4,60.1,89,64,89s7.8-0.6,10.3-1.8c0.4,0.3,0.7,0.6,0.7,0.8    C75,89,71.1,91,64,91z M64,87c-7.1,0-11-2-11-3c0-0.2,0.2-0.5,0.7-0.8C56.2,84.4,60.1,85,64,85s7.8-0.6,10.3-1.8    c0.4,0.3,0.7,0.6,0.7,0.8C75,85,71.1,87,64,87z M64,83c-7.1,0-11-2-11-3c0-0.2,0.2-0.5,0.7-0.8C56.2,80.4,60.1,81,64,81    s7.8-0.6,10.3-1.8c0.4,0.3,0.7,0.6,0.7,0.8C75,81,71.1,83,64,83z M64,79c-7.1,0-11-2-11-3c0-0.2,0.2-0.5,0.7-0.8    C56.2,76.4,60.1,77,64,77s7.8-0.6,10.3-1.8c0.4,0.3,0.7,0.6,0.7,0.8C75,77,71.1,79,64,79z M64,75c-7.1,0-11-2-11-3    c0-0.2,0.2-0.5,0.7-0.8C56.2,72.4,60.1,73,64,73s7.8-0.6,10.3-1.8c0.4,0.3,0.7,0.6,0.7,0.8C75,73,71.1,75,64,75z M64,71    c-7.1,0-11-2-11-3s3.9-3,11-3s11,2,11,3S71.1,71,64,71z M80,87c-1.2,0-2.3-0.1-3.3-0.2c-0.2-0.3-0.4-0.6-0.6-0.8    c0.3-0.3,0.6-0.7,0.8-1.2c1,0.1,2.1,0.2,3.2,0.2c3.9,0,7.8-0.6,10.3-1.8c0.4,0.3,0.7,0.6,0.7,0.8C91,85,87.1,87,80,87z M80,83    c-1.2,0-2.3-0.1-3.3-0.2c-0.2-0.3-0.4-0.6-0.6-0.8c0.3-0.3,0.6-0.7,0.8-1.2c1,0.1,2.1,0.2,3.2,0.2c3.9,0,7.8-0.6,10.3-1.8    c0.4,0.3,0.7,0.6,0.7,0.8C91,81,87.1,83,80,83z M80,79c-1.2,0-2.3-0.1-3.3-0.2c-0.2-0.3-0.4-0.6-0.6-0.8c0.3-0.3,0.6-0.7,0.8-1.2    c1,0.1,2.1,0.2,3.2,0.2c3.9,0,7.8-0.6,10.3-1.8c0.4,0.3,0.7,0.6,0.7,0.8C91,77,87.1,79,80,79z M80,75c-1.2,0-2.3-0.1-3.3-0.2    c-0.2-0.3-0.4-0.6-0.6-0.8c0.3-0.3,0.6-0.7,0.8-1.2c1,0.1,2.1,0.2,3.2,0.2c3.9,0,7.8-0.6,10.3-1.8c0.4,0.3,0.7,0.6,0.7,0.8    C91,73,87.1,75,80,75z M80,71c-1.2,0-2.3-0.1-3.3-0.2c-0.2-0.3-0.4-0.6-0.6-0.8c0.3-0.3,0.6-0.7,0.8-1.2c1,0.1,2.1,0.2,3.2,0.2    c3.9,0,7.8-0.6,10.3-1.8c0.4,0.3,0.7,0.6,0.7,0.8C91,69,87.1,71,80,71z M80,67c-1.2,0-2.3-0.1-3.3-0.2c-0.6-1.2-2.2-2.1-4.2-2.7    c2.5,0.6,5,0.9,7.5,0.9c3.9,0,7.8-0.6,10.3-1.8c0.4,0.3,0.7,0.6,0.7,0.8C91,65,87.1,67,80,67z M69.4,63.4c0.1-0.1,0.2-0.2,0.3-0.3    c0.6,0.3,1.2,0.5,1.8,0.7C70.8,63.7,70.1,63.5,69.4,63.4z M80,63c-7.1,0-11-2-11-3c0-0.2,0.2-0.5,0.7-0.8C72.2,60.4,76.1,61,80,61    s7.8-0.6,10.3-1.8c0.4,0.3,0.7,0.6,0.7,0.8C91,61,87.1,63,80,63z M80,59c-7.1,0-11-2-11-3s3.9-3,11-3s11,2,11,3S87.1,59,80,59z" />
	</g>
</g>

<path
   id="path850"
   style="fill:#27cafc;fill-opacity:1;fill-rule:nonzero;stroke:none;stroke-width:0.239774"
   d="m 38.575404,42.004484 c -0.07992,0 -0.237879,0.317821 -0.957196,2.475776 -0.399622,1.358711 -0.960329,2.797932 -1.120178,3.197552 -0.479546,1.11894 -1.198627,2.319225 -2.956959,4.956725 -1.758332,2.637498 -2.236822,3.516994 -2.716368,4.635933 -1.518562,3.436742 -0.80099,7.190852 1.756585,9.908275 1.198862,1.198862 2.957252,2.238589 4.555733,2.478361 0.239774,0 0.559344,0.0802 0.719191,0.0802 h 1.120179 c 2.078028,-0.07992 3.917036,-0.879881 5.51552,-2.478362 1.358712,-1.358713 2.236274,-2.95576 2.555972,-4.873941 0.159841,-0.719317 0.159841,-2.558156 0,-3.19755 -0.399623,-1.758334 -1.117484,-3.196097 -3.355361,-6.552914 -2.637498,-3.916292 -2.878549,-4.475454 -4.157335,-8.231893 -0.639395,-2.07803 -0.799934,-2.398166 -0.959783,-2.398166 z m -5.034333,13.186025 c 0,0 0.241138,2.73e-4 0.400987,0.0802 0.399621,0.159861 0.3984,0.161218 0.3984,0.400989 0,0.319696 0.239648,0.639812 0.719191,0.879585 0.159841,0.07992 0.398673,0.157816 0.478598,0.157816 0,0 0.0802,0.08101 0.0802,0.320792 0,0.319694 8.18e-4,0.39922 0.240591,0.638991 0.159841,0.159841 0.399222,0.321065 0.638994,0.400988 0.159841,0.07992 0.400987,0.158079 0.400987,0.238006 0,0 -0.399766,0.560982 -0.799387,1.200374 -0.639394,1.039015 -0.799389,1.278807 -0.799389,1.518581 0,0.879168 1.358602,1.43674 2.23777,0.957195 0.239771,-0.159841 0.478344,-0.478217 1.916978,-2.636169 0.879168,-1.358714 1.679247,-2.398164 1.75917,-2.398164 0,0 0.0802,0.239099 0.0802,0.558796 0.07992,0.879165 0.158909,1.038484 0.478597,1.358182 0.319699,0.239772 0.800756,0.400988 1.200377,0.400988 0.319696,0 0.719736,-0.161218 0.879587,-0.400988 0.159841,-0.159841 0.157816,-0.317402 0.157816,-1.596188 0,-1.198862 2.76e-4,-1.440695 0.0802,-1.360773 0.07992,0 0.319298,0.480511 0.638994,1.039983 0.879166,1.758332 1.19983,3.197298 1.03998,4.635933 -0.239771,1.918183 -0.959256,3.437341 -2.317965,4.716131 -1.118966,1.11892 -2.23781,1.757389 -3.756371,1.99716 -2.237885,0.319696 -4.315716,-0.398695 -5.994122,-1.997176 -1.039015,-1.039017 -1.677481,-2.079708 -1.997178,-3.518342 -0.239771,-0.719319 -0.320242,-2.398038 -0.160387,-3.117355 0.07992,-0.719319 0.479966,-1.836655 0.879587,-2.555973 0.319698,-0.719319 1.037666,-1.839642 1.117591,-1.919566 z m 1.518578,3.037157 c -0.239773,0 -0.878364,0.480511 -1.277987,1.03998 -1.358711,1.918183 -0.320623,4.715463 1.997176,5.274927 0.879166,0.239772 1.599198,0.158748 2.478362,-0.32079 1.118943,-0.479545 1.836782,-1.758094 1.836782,-2.956959 0,-0.319698 -0.07897,-0.479146 -0.478598,-0.638993 -0.39962,-0.239774 -0.478597,-0.08061 -0.478597,0.558796 0.07992,0.639392 -0.0813,0.959108 -0.400988,1.518578 -0.479545,0.719317 -1.278681,1.039981 -2.237769,1.039981 -0.959091,-0.07992 -1.837874,-0.639415 -2.157572,-1.518581 -0.239772,-0.399618 -0.240592,-0.560435 -0.240592,-1.039978 0,-0.55947 8.2e-4,-0.638048 0.240592,-1.117591 0.239773,-0.479548 0.638319,-0.880681 1.197789,-1.200377 0.07992,-0.07992 0.240591,-0.158079 0.240591,-0.238004 0,-0.159841 -0.479417,-0.400989 -0.719189,-0.400989 z" /></svg>
