<?xml version="1.0" encoding="UTF-8" standalone="no"?>
<svg
   xmlns:dc="http://purl.org/dc/elements/1.1/"
   xmlns:cc="http://creativecommons.org/ns#"
   xmlns:rdf="http://www.w3.org/1999/02/22-rdf-syntax-ns#"
   xmlns:svg="http://www.w3.org/2000/svg"
   xmlns="http://www.w3.org/2000/svg"
   xmlns:sodipodi="http://sodipodi.sourceforge.net/DTD/sodipodi-0.dtd"
   xmlns:inkscape="http://www.inkscape.org/namespaces/inkscape"
   id="Layer_1"
   data-name="Layer 1"
   viewBox="0 0 98.45 82.24"
   version="1.1"
   sodipodi:docname="img-empty-contacts.svg"
   inkscape:version="1.0.2 (e86c870879, 2021-01-15, custom)">
  <metadata
     id="metadata13">
    <rdf:RDF>
      <cc:Work
         rdf:about="">
        <dc:format>image/svg+xml</dc:format>
        <dc:type
           rdf:resource="http://purl.org/dc/dcmitype/StillImage" />
      </cc:Work>
    </rdf:RDF>
  </metadata>
  <sodipodi:namedview
     pagecolor="#ffffff"
     bordercolor="#666666"
     borderopacity="1"
     objecttolerance="10"
     gridtolerance="10"
     guidetolerance="10"
     inkscape:pageopacity="0"
     inkscape:pageshadow="2"
     inkscape:window-width="3840"
     inkscape:window-height="2126"
     id="namedview11"
     showgrid="false"
     inkscape:zoom="8.937257"
     inkscape:cx="49.224998"
     inkscape:cy="41.119999"
     inkscape:window-x="-11"
     inkscape:window-y="-11"
     inkscape:window-maximized="1"
     inkscape:current-layer="Layer_1" />
  <defs
     id="defs4">
    <style
       id="style2">.cls-1{fill:#eaeaea;}</style>
  </defs>
  <path
     class="cls-1"
     d="M 51.312912,47.861644 A 8.2599718,8.4305049 0 0 0 44.881986,44.322176 H 44.72103 a 6.3723963,6.5039591 0 0 1 -6.313867,-5.734834 11.983909,12.231326 0 0 0 2.567981,-2.6434 16.263877,16.599657 0 0 0 2.926473,-7.706184 1.748568,1.7846685 0 0 0 0.278015,-0.440566 12.715528,12.978049 0 0 0 0.987685,-5.062784 c 0,-6.780246 -5.018902,-12.298531 -11.193761,-12.298531 a 10.396297,10.610937 0 0 0 -4.609196,1.105151 7.8283169,7.9899383 0 0 0 -1.602245,0.298689 c -5.121328,1.493446 -8.047802,7.892864 -6.504087,14.187741 a 14.632368,14.934464 0 0 0 0.607243,1.866808 1.4998177,1.5307826 0 0 0 0.270699,0.433099 c 0.592611,4.480339 2.655775,8.161685 5.479822,10.259977 a 6.3577639,6.4890246 0 0 1 -6.313867,5.734834 h -0.146324 a 8.2526556,8.4230377 0 0 0 -7.952692,8.393169 v 9.06522 a 1.4632368,1.4934464 0 0 0 1.499818,1.538249 h 26.506535 a 1.5071339,1.5382498 0 0 0 0,-3.069032 H 16.202545 v -7.534437 a 5.2530201,5.3614726 0 0 1 5.25302,-5.354005 h 0.146324 a 9.3135023,9.5057864 0 0 0 3.072797,-0.642182 l 7.104015,10.454124 a 1.4998177,1.5307826 0 0 0 2.465554,0 l 7.104014,-10.454124 a 9.3573994,9.5505897 0 0 0 3.080114,0.642182 h 0.146323 a 5.2383878,5.3465381 0 0 1 4.287284,2.240169 1.5144501,1.545717 0 0 0 2.092429,0.365895 1.4632368,1.4934464 0 0 0 0.358493,-2.10576 z M 28.632741,14.759405 a 5.326182,5.4361449 0 0 1 1.236435,-0.209083 1.4632368,1.4934464 0 0 0 0.629192,-0.171746 7.513721,7.6688473 0 0 1 3.511769,-0.903535 c 4.38971,0 8.047802,3.980034 8.18681,8.960678 a 5.3408143,5.4510794 0 0 0 -3.24107,-1.112617 h -7.87953 a 1.7558842,1.7921357 0 0 1 -1.068163,-0.365895 1.6973547,1.7323978 0 0 1 -0.592611,-0.784059 1.7632003,1.7996029 0 0 0 -3.343496,0.224017 10.345084,10.558666 0 0 1 -2.063164,4.084576 c -0.782832,-4.472872 1.177906,-8.71426 4.594564,-9.722336 z M 25.06976,27.729987 a 13.512992,13.791978 0 0 0 3.12401,-4.31606 v 0 a 4.770152,4.8686353 0 0 0 2.867944,0.97074 h 7.864898 a 2.3777598,2.4268504 0 0 1 2.143642,1.37397 13.973911,14.262413 0 0 1 -2.509451,8.378235 C 37.046353,36.227697 35.0783,37.37765 33.015136,37.37765 A 6.8479482,6.9893292 0 0 1 27.776748,34.540102 13.044756,13.314075 0 0 1 25.06976,27.729987 Z m 7.945376,25.888893 -5.750521,-8.460374 a 9.3939803,9.5879259 0 0 0 3.138643,-5.15239 8.6111486,8.7889321 0 0 0 2.604561,0.410698 8.7208914,8.9009406 0 0 0 2.604562,-0.410698 9.3208184,9.5132536 0 0 0 3.138643,5.15239 z"
     id="path6"
     style="stroke-width:0.739132;fill:#f2f2f2" />
  <path
     class="cls-1"
     d="m 77.270733,52.819886 h -0.146324 a 6.3577639,6.4890246 0 0 1 -6.313867,-5.749768 13.388617,13.665035 0 0 0 4.389711,-5.899114 1.4632368,1.4934464 0 0 0 0.987685,1.008077 1.3242293,1.351569 0 0 0 0.446287,0.07467 1.4998177,1.5307826 0 0 0 1.11206,-0.597379 15.20303,15.516908 0 0 0 3.094746,-10.028492 15.26156,15.576646 0 0 0 -3.555666,-9.707402 11.06207,11.290455 0 0 0 -8.318501,-4.174183 c -0.168272,0 -0.577979,0 -0.643824,0 a 11.230342,11.462201 0 0 0 -5.026219,-1.052879 12.23266,12.485212 0 0 0 -9.342767,5.227062 17.558842,17.921357 0 0 0 -3.43129,11.462201 18.063658,18.436596 0 0 0 0.15364,1.978817 18.29046,18.66808 0 0 0 1.463237,5.227062 1.4998177,1.5307826 0 0 0 2.641142,0.164279 c 0.124375,-0.201615 0.278015,-0.455501 0.453603,-0.70192 a 14.837221,15.143547 0 0 0 2.985004,5.406276 11.098651,11.327791 0 0 0 1.785148,1.642791 6.3723963,6.5039591 0 0 1 -6.313866,5.742302 h -0.146324 a 8.2526556,8.4230377 0 0 0 -7.945376,8.393169 v 9.065219 a 1.4998177,1.5307826 0 0 0 1.463237,1.493447 h 36.661398 a 1.4632368,1.4934464 0 0 0 1.463237,-1.493447 V 61.235457 A 8.2526556,8.4230377 0 0 0 77.270733,52.819886 Z M 54.012584,36.75787 a 17.617371,17.981095 0 0 1 -0.351177,-1.80707 16.37362,16.711665 0 0 1 -0.139008,-1.695062 14.544574,14.844857 0 0 1 2.816731,-9.505786 9.2842375,9.4759174 0 0 1 7.052802,-3.9651 8.6404133,8.818801 0 0 1 3.994636,0.903535 1.5363986,1.5681187 0 0 0 0.731619,0.156812 h 0.819412 a 8.1355966,8.303562 0 0 1 6.079749,3.083967 12.291189,12.54495 0 0 1 2.831363,7.803257 13.125234,13.396214 0 0 1 -0.636508,4.629684 C 77.06588,35.973811 76.91224,35.615384 76.736651,35.21962 a 13.432514,13.709838 0 0 0 -6.869896,-6.862386 1.5290825,1.5606515 0 0 0 -1.177906,0 1.551031,1.5830532 0 0 0 -0.812097,0.873666 10.827952,11.051503 0 0 1 -0.731618,1.597988 4.4848208,4.5774132 0 0 1 -4.133644,2.24017 7.2503384,7.4000269 0 0 0 -0.797464,0 11.705894,11.947571 0 0 0 -3.760519,0.746723 13.373984,13.6501 0 0 0 -4.440923,2.942089 z m 3.658092,0.83633 a 8.6769943,8.8561372 0 0 1 4.623828,-1.493446 h 0.592611 A 7.4698239,7.6240439 0 0 0 69.742379,32.3074 l 0.241434,-0.455501 a 10.425562,10.640806 0 0 1 3.445923,3.509599 v 0.13441 a 13.330087,13.605297 0 0 1 -2.765517,7.512035 6.8479482,6.9893292 0 0 1 -5.238388,2.837548 c -3.548349,0.0224 -6.701625,-3.405057 -7.72589,-8.243824 z m 5.121329,10.924561 a 8.6330971,8.8113338 0 0 0 5.209123,0 9.4012965,9.5953931 0 0 0 4.477504,6.100728 7.316184,7.467232 0 0 1 -14.156816,0 9.3939803,9.5879259 0 0 0 4.484821,-6.100728 z M 82.223789,68.769894 H 48.569343 v -7.534437 a 5.2603363,5.3689398 0 0 1 5.25302,-5.361473 h 0.15364 a 9.5110392,9.7074016 0 0 0 1.51445,-0.171746 10.345084,10.558666 0 0 0 19.790278,0 9.4086127,9.6028604 0 0 0 1.51445,0.171746 h 0.146323 a 5.2603363,5.3689398 0 0 1 5.253021,5.361473 z"
     id="path8"
     style="stroke-width:0.739132;fill:#f2f2f2" />
</svg>
