<?xml version="1.0" encoding="UTF-8" standalone="no"?>
<svg
   xmlns:dc="http://purl.org/dc/elements/1.1/"
   xmlns:cc="http://creativecommons.org/ns#"
   xmlns:rdf="http://www.w3.org/1999/02/22-rdf-syntax-ns#"
   xmlns:svg="http://www.w3.org/2000/svg"
   xmlns="http://www.w3.org/2000/svg"
   xml:space="preserve"
   style="enable-background:new 0 0 100 100;"
   viewBox="0 0 100 100"
   y="0px"
   x="0px"
   id="ic_empty_Dark_zpiv"
   version="1.1"><metadata
   id="metadata34"><rdf:RDF><cc:Work
       rdf:about=""><dc:format>image/svg+xml</dc:format><dc:type
         rdf:resource="http://purl.org/dc/dcmitype/StillImage" /><dc:title></dc:title></cc:Work></rdf:RDF></metadata><defs
   id="defs32"><pattern
     y="0"
     x="0"
     height="6"
     width="6"
     patternUnits="userSpaceOnUse"
     id="EMFhbasepattern" /></defs>
<style
   id="style2"
   type="text/css">
	.st0{fill:#2EA1FF;}
	.st1{fill:#A09EA5;}
	.st2{fill:#EFEFEF;}
</style>

<g
   id="Group_9081">
	
	<g
   id="Group_9080">
		<g
   id="Group_9078">
			
			<path
   d="M83,56h2v4h-2V56z"
   class="st1"
   id="Rectangle_4744" />
			<path
   d="M83,44h2v8h-2V44z"
   class="st1"
   id="Rectangle_4745" />
			<path
   d="M15,48h2v8h-2V48z"
   class="st1"
   id="Rectangle_4746" />
			<path
   d="M15,40h2v4h-2V40z"
   class="st1"
   id="Rectangle_4747" />
			<path
   d="M95.2,71H85v-7h-2v9h7.8L76,90.5L61.2,73H68v-2h-4.5c11.6-7.5,15-22.9,7.5-34.5     c-6.4-9.9-18.9-14-29.9-9.8L24,6.5L4.8,29H15v7h2v-9H9.2L24,9.5L38.8,27H32v2h4.5c-11.6,7.5-15,22.9-7.5,34.5     c6.4,9.9,18.9,14,29.9,9.8L76,93.5L95.2,71z M27,50c0-12.7,10.3-23,23-23s23,10.3,23,23S62.7,73,50,73S27,62.7,27,50z"
   class="st1"
   id="Path_19028" />
		<g
   transform="matrix(0.06237187,0,0,0.06237187,36.01772,35.579044)"
   id="g938"><g
     transform="matrix(0.76704707,0,0,0.75379254,25.022289,57.248)"
     id="g832"
     style="fill:#00ffff;fill-opacity:1;stroke:#000000;stroke-opacity:0"><path
       d="m 402.71869,94.847487 a 128.32833,135.91504 0 0 0 -4.55756,0.130654 h -7.91689 v 9.101209 c 3.45346,-0.006 6.90233,-0.0145 10.35614,-0.0435 3.51643,0.0758 7.39735,-0.097 10.69851,1.0887 2.94231,1.41373 5.37124,4.20617 7.59593,6.53196 23.20847,25.53824 47.13779,50.37847 70.33193,75.9015 C 412.67852,269.29024 336.14242,351.06189 259.59416,432.85515 182.91198,351.09217 106.29584,269.24338 29.747613,187.31841 52.683378,163.07229 75.232141,138.54779 98.19661,114.22567 c 4.19102,-4.13476 7.85556,-9.90191 14.35738,-9.68909 12.07797,-0.16811 24.20522,-0.0613 36.33211,-0.0435 v -9.558457 h -7.42476 v 0.04348 h -20.30575 c -5.23877,0.04571 -10.68139,-0.339454 -15.79099,0.587822 -3.32981,0.68404 -6.062469,3.47246 -8.387618,5.813455 -22.0746,23.60768 -44.085713,47.1426 -66.031137,70.87187 -4.60725,4.89479 -9.175489,10.45336 -14.442974,14.58812 v 0.60968 c 12.142464,12.06984 23.471034,24.97583 35.326444,37.31931 69.256995,74.05068 138.578235,147.97313 207.978825,221.76037 76.73005,-81.79327 153.41433,-163.62902 230.03912,-245.49319 4.30586,-4.51479 8.24476,-9.05982 12.92379,-13.19458 v -0.71848 c -4.3489,-3.93716 -8.22786,-8.43332 -12.17489,-12.78089 -22.96448,-24.61094 -46.06301,-49.13745 -68.89834,-73.85481 -2.13856,-2.143385 -4.64548,-4.695595 -7.74571,-5.182033 a 128.32833,135.91504 0 0 0 -10.31335,-0.457175 128.32833,135.91504 0 0 0 -0.92002,0 z"
       style="opacity:1;fill:#f0b900;fill-opacity:1;stroke:#f0b900;stroke-width:8.9514389;stroke-miterlimit:4;stroke-dasharray:none;stroke-opacity:1"
       id="path8" /><path
       d="m 12.884766,14.980469 c -0.655423,0.007 -1.318224,0.0669 -1.892578,0.40039 -0.522143,0.295819 -0.903464,0.835291 -1.304688,1.273438 -0.6128268,0.673966 -1.2670314,1.315439 -1.9238281,1.953125 0.9934393,1.067461 2.039265,2.100232 3.0546871,3.152344 4.418036,4.542404 8.844896,9.081292 13.28125,13.617187 5.44033,-5.582425 10.883217,-11.161345 16.328125,-16.736328 -0.818935,-0.893039 -1.704139,-1.719409 -2.517578,-2.595703 a 5.0839908,5.162882 0 0 0 -0.832031,-0.800781 c -0.311909,-0.207911 -0.73686,-0.197265 -1.099609,-0.207032 h -0.94336 v 0.857422 c 0.360173,0.0044 0.719674,0.0078 1.080078,0.0078 0.467178,-0.01256 0.709791,0.31272 1.017578,0.601562 0.674663,0.70885 1.361804,1.417548 2.048829,2.115235 -5.001549,5.185204 -10.066381,10.320374 -15.076172,15.5 C 19.407587,29.32602 14.740419,24.513798 10.050781,19.710925 9.7100178,19.360686 9.3275448,19.015693 9.0527344,18.615221 9.4251024,18.131027 9.906145,17.71548 10.318359,17.267565 c 0.406719,-0.403263 0.774716,-0.860139 1.222657,-1.21875 0.193741,-0.157677 0.418538,-0.136714 0.65625,-0.15625 0.972269,-0.02635 1.944675,-0.03401 2.917968,-0.03516 V 15 C 14.371597,14.98992 13.62926,14.98047 12.884766,14.98047 Z"
       transform="matrix(10.955263,0,0,11.147895,-4.7314113,-15.458223)"
       style="opacity:1;fill:#f0b900;fill-opacity:1;stroke:#f0b900;stroke-width:1;stroke-miterlimit:4;stroke-dasharray:none;stroke-opacity:1"
       id="path14" /><rect
       y="99.840103"
       x="219.90202"
       height="100.85415"
       width="102.88555"
       id="rect993"
       style="fill:none;fill-opacity:1;stroke:#f0b900;stroke-width:18.78697014;stroke-miterlimit:4;stroke-dasharray:none;stroke-opacity:1" /><rect
       transform="matrix(0.55524729,-0.8316853,0.82257929,0.56865044,0,0)"
       y="347.22757"
       x="-79.677498"
       height="10.819735"
       width="70.781349"
       id="rect1007"
       style="fill:#1a1a1a;fill-opacity:1;stroke:#f0b900;stroke-width:13.26226139;stroke-miterlimit:4;stroke-dasharray:none;stroke-opacity:1" /></g></g></g>
	</g>
</g>


</svg>