<svg id="Layer_1" data-name="Layer 1" xmlns="http://www.w3.org/2000/svg" viewBox="0 0 71.84 71.84"><defs><style>.cls-1{font-size:0.74px;font-family:MyriadPro-Regular, Myriad Pro;letter-spacing:0em;}.cls-2{fill:#fff;}.cls-3{fill:none;}</style></defs><text class="cls-1" transform="translate(10.53 11.46)">https://dashdiamond.net/</text><rect class="cls-2" width="71.84" height="71.84"/><path d="M24.77,5.12V7.6h2.48V5.12L26,5.81Z" transform="translate(0 -0.16)"/><path d="M29.73,7.6H32.2V5.12H29.73l.69,1.24Z" transform="translate(0 -0.16)"/><path d="M34.68,5.12H32.2V7.6h2.48L34,6.36Z" transform="translate(0 -0.16)"/><path d="M37.16,5.12V7.6h2.47V5.12l-1.23.69Z" transform="translate(0 -0.16)"/><path d="M44.59,5.12V7.6h2.47V5.12l-1.23.69Z" transform="translate(0 -0.16)"/><path d="M27.25,10.07V7.6H24.77v2.47L26,9.38Z" transform="translate(0 -0.16)"/><path d="M34.68,10.07h2.48V7.6H34.68l.7,1.23Z" transform="translate(0 -0.16)"/><rect x="37.16" y="7.43" width="2.48" height="2.48"/><path d="M47.06,10.07V7.6H44.59v2.47l1.24-.69Z" transform="translate(0 -0.16)"/><rect x="37.16" y="9.91" width="2.48" height="2.48"/><rect x="42.11" y="9.91" width="2.48" height="2.48"/><rect x="24.77" y="12.39" width="2.48" height="2.48"/><rect x="29.73" y="12.39" width="2.48" height="2.48"/><path d="M34.68,15h2.48V12.55H34.68l.7,1.24Z" transform="translate(0 -0.16)"/><rect x="37.16" y="12.39" width="2.48" height="2.48"/><rect x="39.63" y="12.39" width="2.48" height="2.48"/><rect x="27.25" y="14.86" width="2.48" height="2.48"/><rect x="39.63" y="14.86" width="2.48" height="2.48"/><rect x="42.11" y="14.86" width="2.48" height="2.48"/><path d="M47.06,15H44.59V17.5h2.47l-.69-1.23Z" transform="translate(0 -0.16)"/><path d="M37.16,20h2.47V17.5H37.16l.69,1.24Z" transform="translate(0 -0.16)"/><rect x="39.63" y="17.34" width="2.48" height="2.48"/><path d="M24.77,20v2.48h2.48V20l-1.24.7Z" transform="translate(0 -0.16)"/><path d="M29.73,20v2.48H32.2V20l-1.24.7Z" transform="translate(0 -0.16)"/><path d="M34.68,20v2.48h2.48V20l-1.24.7Z" transform="translate(0 -0.16)"/><rect x="39.63" y="19.82" width="2.48" height="2.48"/><path d="M44.59,20v2.48h2.47V20l-1.23.7Z" transform="translate(0 -0.16)"/><rect x="24.77" y="22.29" width="2.48" height="2.48"/><rect x="27.25" y="22.29" width="2.48" height="2.48"/><rect x="29.73" y="22.29" width="2.48" height="2.48"/><rect x="34.68" y="22.29" width="2.48" height="2.48"/><path d="M42.11,24.94V22.46H39.63v2.48l1.24-.7Z" transform="translate(0 -0.16)"/><rect x="44.59" y="22.29" width="2.48" height="2.48"/><rect x="4.95" y="24.77" width="2.48" height="2.48"/><path d="M9.91,27.41h2.48V24.94H9.91l.7,1.23Z" transform="translate(0 -0.16)"/><rect x="12.39" y="24.77" width="2.48" height="2.48"/><path d="M17.34,27.41h2.48V24.94H17.34l.7,1.23Z" transform="translate(0 -0.16)"/><rect x="19.82" y="24.77" width="2.48" height="2.48"/><rect x="22.29" y="24.77" width="2.48" height="2.48"/><rect x="29.73" y="24.77" width="2.48" height="2.48"/><rect x="34.68" y="24.77" width="2.48" height="2.48"/><path d="M42.11,27.41h2.48V24.94H42.11l.7,1.23Z" transform="translate(0 -0.16)"/><rect x="44.59" y="24.77" width="2.48" height="2.48"/><rect x="49.54" y="24.77" width="2.48" height="2.48"/><rect x="56.97" y="24.77" width="2.48" height="2.48"/><rect x="61.93" y="24.77" width="2.48" height="2.48"/><path d="M66.88,24.94H64.4v2.47h2.48l-.69-1.24Z" transform="translate(0 -0.16)"/><rect x="12.39" y="27.25" width="2.48" height="2.48"/><path d="M17.34,27.41H14.86v2.48h2.48l-.7-1.24Z" transform="translate(0 -0.16)"/><rect x="22.29" y="27.25" width="2.48" height="2.48"/><path d="M27.25,27.41H24.77v2.48h2.48l-.7-1.24Z" transform="translate(0 -0.16)"/><rect x="29.73" y="27.25" width="2.48" height="2.48"/><rect x="32.2" y="27.25" width="2.48" height="2.48"/><rect x="34.68" y="27.25" width="2.48" height="2.48"/><rect x="37.16" y="27.25" width="2.48" height="2.48"/><rect x="44.59" y="27.25" width="2.48" height="2.48"/><rect x="52.02" y="27.25" width="2.48" height="2.48"/><path d="M64.4,29.89V27.41H61.93v2.48l1.24-.7Z" transform="translate(0 -0.16)"/><path d="M7.43,29.89v2.48H9.91V29.89l-1.24.7Z" transform="translate(0 -0.16)"/><rect x="12.39" y="29.73" width="2.48" height="2.48"/><rect x="19.82" y="29.73" width="2.48" height="2.48"/><rect x="27.25" y="29.73" width="2.48" height="2.48"/><rect x="32.2" y="29.73" width="2.48" height="2.48"/><rect x="37.16" y="29.73" width="2.48" height="2.48"/><rect x="44.59" y="29.73" width="2.48" height="2.48"/><rect x="47.06" y="29.73" width="2.48" height="2.48"/><rect x="54.5" y="29.73" width="2.48" height="2.48"/><path d="M9.91,34.84V32.37H7.43v2.47l1.24-.69Z" transform="translate(0 -0.16)"/><path d="M14.86,34.84V32.37H12.39v2.47l1.23-.69Z" transform="translate(0 -0.16)"/><rect x="17.34" y="32.2" width="2.48" height="2.48"/><rect x="24.77" y="32.2" width="2.48" height="2.48"/><rect x="32.2" y="32.2" width="2.48" height="2.48"/><rect x="34.68" y="32.2" width="2.48" height="2.48"/><rect x="37.16" y="32.2" width="2.48" height="2.48"/><rect x="44.59" y="32.2" width="2.48" height="2.48"/><rect x="47.06" y="32.2" width="2.48" height="2.48"/><path d="M57,34.84h2.48V32.37H57l.7,1.23Z" transform="translate(0 -0.16)"/><rect x="59.45" y="32.2" width="2.48" height="2.48"/><path d="M9.91,34.84v2.48h2.48V34.84l-1.24.7Z" transform="translate(0 -0.16)"/><path d="M14.86,34.84v2.48h2.48V34.84l-1.24.7Z" transform="translate(0 -0.16)"/><path d="M19.82,37.32h2.47V34.84H19.82l.69,1.24Z" transform="translate(0 -0.16)"/><path d="M24.77,34.84H22.29v2.48h2.48l-.7-1.24Z" transform="translate(0 -0.16)"/><path d="M27.25,37.32h2.48V34.84H27.25l.69,1.24Z" transform="translate(0 -0.16)"/><rect x="29.73" y="34.68" width="2.48" height="2.48"/><rect x="32.2" y="34.68" width="2.48" height="2.48"/><rect x="37.16" y="34.68" width="2.48" height="2.48"/><rect x="39.63" y="34.68" width="2.48" height="2.48"/><rect x="42.11" y="34.68" width="2.48" height="2.48"/><rect x="47.06" y="34.68" width="2.48" height="2.48"/><rect x="49.54" y="34.68" width="2.48" height="2.48"/><path d="M54.5,34.84v2.48H57V34.84l-1.24.7Z" transform="translate(0 -0.16)"/><rect x="59.45" y="34.68" width="2.48" height="2.48"/><rect x="61.93" y="34.68" width="2.48" height="2.48"/><rect x="64.4" y="34.68" width="2.48" height="2.48"/><rect x="9.91" y="37.16" width="2.48" height="2.48"/><rect x="12.39" y="37.16" width="2.48" height="2.48"/><rect x="14.86" y="37.16" width="2.48" height="2.48"/><path d="M19.82,37.32H17.34V39.8h2.48l-.7-1.24Z" transform="translate(0 -0.16)"/><path d="M34.68,39.8V37.32H32.2V39.8l1.24-.7Z" transform="translate(0 -0.16)"/><rect x="37.16" y="37.16" width="2.48" height="2.48"/><rect x="39.63" y="37.16" width="2.48" height="2.48"/><rect x="42.11" y="37.16" width="2.48" height="2.48"/><path d="M47.06,37.32H44.59V39.8h2.47l-.69-1.24Z" transform="translate(0 -0.16)"/><rect x="49.54" y="37.16" width="2.48" height="2.48"/><rect x="52.02" y="37.16" width="2.48" height="2.48"/><rect x="54.5" y="37.16" width="2.48" height="2.48"/><path d="M66.88,39.8V37.32H64.4V39.8l1.24-.7Z" transform="translate(0 -0.16)"/><path d="M7.43,42.27H9.91V39.8H7.43L8.13,41Z" transform="translate(0 -0.16)"/><rect x="9.91" y="39.63" width="2.48" height="2.48"/><path d="M19.82,42.27h2.47V39.8H19.82L20.51,41Z" transform="translate(0 -0.16)"/><rect x="22.29" y="39.63" width="2.48" height="2.48"/><path d="M27.25,39.8v2.47h2.48V39.8l-1.24.69Z" transform="translate(0 -0.16)"/><path d="M34.68,39.8v2.47h2.48V39.8l-1.24.69Z" transform="translate(0 -0.16)"/><path d="M42.11,42.27V39.8H39.63v2.47l1.24-.69Z" transform="translate(0 -0.16)"/><rect x="54.5" y="39.63" width="2.48" height="2.48"/><path d="M59.45,42.27h2.48V39.8H59.45l.7,1.24Z" transform="translate(0 -0.16)"/><path d="M64.4,39.8H61.93v2.47H64.4L63.71,41Z" transform="translate(0 -0.16)"/><rect x="4.95" y="42.11" width="2.48" height="2.48"/><rect x="9.91" y="42.11" width="2.48" height="2.48"/><path d="M17.34,42.27v2.48h2.48V42.27l-1.24.7Z" transform="translate(0 -0.16)"/><path d="M24.77,44.75V42.27H22.29v2.48l1.24-.69Z" transform="translate(0 -0.16)"/><path d="M29.73,44.75V42.27H27.25v2.48l1.24-.69Z" transform="translate(0 -0.16)"/><path d="M37.16,44.75V42.27H34.68v2.48l1.24-.69Z" transform="translate(0 -0.16)"/><path d="M42.11,42.27v2.48h2.48V42.27l-1.24.7Z" transform="translate(0 -0.16)"/><path d="M47.06,42.27v2.48h2.48V42.27L48.3,43Z" transform="translate(0 -0.16)"/><rect x="52.02" y="42.11" width="2.48" height="2.48"/><rect x="54.5" y="42.11" width="2.48" height="2.48"/><path d="M64.4,42.27v2.48h2.48V42.27l-1.24.7Z" transform="translate(0 -0.16)"/><path d="M12.39,47.23V44.75H9.91v2.48l1.24-.7Z" transform="translate(0 -0.16)"/><path d="M14.86,47.23h2.48V44.75H14.86l.7,1.24Z" transform="translate(0 -0.16)"/><rect x="17.34" y="44.59" width="2.48" height="2.48"/><path d="M22.29,44.75H19.82v2.48h2.47L21.6,46Z" transform="translate(0 -0.16)"/><path d="M24.77,44.75v2.48h2.48V44.75l-1.24.7Z" transform="translate(0 -0.16)"/><path d="M29.73,47.23H32.2V44.75H29.73L30.42,46Z" transform="translate(0 -0.16)"/><path d="M34.68,44.75H32.2v2.48h2.48L34,46Z" transform="translate(0 -0.16)"/><path d="M37.16,44.75v2.48h2.47V44.75l-1.23.7Z" transform="translate(0 -0.16)"/><rect x="42.11" y="44.59" width="2.48" height="2.48"/><rect x="44.59" y="44.59" width="2.48" height="2.48"/><rect x="47.06" y="44.59" width="2.48" height="2.48"/><rect x="49.54" y="44.59" width="2.48" height="2.48"/><rect x="52.02" y="44.59" width="2.48" height="2.48"/><rect x="54.5" y="44.59" width="2.48" height="2.48"/><rect x="56.97" y="44.59" width="2.48" height="2.48"/><rect x="59.45" y="44.59" width="2.48" height="2.48"/><rect x="61.93" y="44.59" width="2.48" height="2.48"/><rect x="64.4" y="44.59" width="2.48" height="2.48"/><rect x="24.77" y="47.06" width="2.48" height="2.48"/><rect x="27.25" y="47.06" width="2.48" height="2.48"/><rect x="34.68" y="47.06" width="2.48" height="2.48"/><rect x="37.16" y="47.06" width="2.48" height="2.48"/><rect x="44.59" y="47.06" width="2.48" height="2.48"/><rect x="54.5" y="47.06" width="2.48" height="2.48"/><rect x="59.45" y="47.06" width="2.48" height="2.48"/><rect x="64.4" y="47.06" width="2.48" height="2.48"/><rect x="24.77" y="49.54" width="2.48" height="2.48"/><rect x="27.25" y="49.54" width="2.48" height="2.48"/><rect x="29.73" y="49.54" width="2.48" height="2.48"/><rect x="32.2" y="49.54" width="2.48" height="2.48"/><rect x="34.68" y="49.54" width="2.48" height="2.48"/><rect x="39.63" y="49.54" width="2.48" height="2.48"/><rect x="44.59" y="49.54" width="2.48" height="2.48"/><rect x="49.54" y="49.54" width="2.48" height="2.48"/><rect x="54.5" y="49.54" width="2.48" height="2.48"/><rect x="59.45" y="49.54" width="2.48" height="2.48"/><rect x="61.93" y="49.54" width="2.48" height="2.48"/><rect x="64.4" y="49.54" width="2.48" height="2.48"/><rect x="24.77" y="52.02" width="2.48" height="2.48"/><rect x="27.25" y="52.02" width="2.48" height="2.48"/><rect x="29.73" y="52.02" width="2.48" height="2.48"/><path d="M37.16,54.66V52.18H34.68v2.48l1.24-.7Z" transform="translate(0 -0.16)"/><path d="M42.11,54.66h2.48V52.18H42.11l.7,1.24Z" transform="translate(0 -0.16)"/><rect x="44.59" y="52.02" width="2.48" height="2.48"/><rect x="54.5" y="52.02" width="2.48" height="2.48"/><path d="M64.4,54.66V52.18H61.93v2.48l1.24-.7Z" transform="translate(0 -0.16)"/><rect x="27.25" y="54.5" width="2.48" height="2.48"/><rect x="32.2" y="54.5" width="2.48" height="2.48"/><path d="M39.63,54.66v2.48h2.48V54.66l-1.24.7Z" transform="translate(0 -0.16)"/><rect x="44.59" y="54.5" width="2.48" height="2.48"/><rect x="47.06" y="54.5" width="2.48" height="2.48"/><rect x="49.54" y="54.5" width="2.48" height="2.48"/><rect x="52.02" y="54.5" width="2.48" height="2.48"/><rect x="54.5" y="54.5" width="2.48" height="2.48"/><rect x="56.97" y="54.5" width="2.48" height="2.48"/><path d="M64.4,54.66v2.48h2.48V54.66l-1.24.7Z" transform="translate(0 -0.16)"/><rect x="24.77" y="56.97" width="2.48" height="2.48"/><rect x="27.25" y="56.97" width="2.48" height="2.48"/><path d="M34.68,57.14v2.47h2.48V57.14l-1.24.69Z" transform="translate(0 -0.16)"/><rect x="39.63" y="56.97" width="2.48" height="2.48"/><rect x="42.11" y="56.97" width="2.48" height="2.48"/><rect x="47.06" y="56.97" width="2.48" height="2.48"/><rect x="49.54" y="56.97" width="2.48" height="2.48"/><rect x="54.5" y="56.97" width="2.48" height="2.48"/><rect x="56.97" y="56.97" width="2.48" height="2.48"/><rect x="59.45" y="56.97" width="2.48" height="2.48"/><rect x="61.93" y="56.97" width="2.48" height="2.48"/><rect x="64.4" y="56.97" width="2.48" height="2.48"/><rect x="24.77" y="59.45" width="2.48" height="2.48"/><rect x="27.25" y="59.45" width="2.48" height="2.48"/><rect x="29.73" y="59.45" width="2.48" height="2.48"/><rect x="32.2" y="59.45" width="2.48" height="2.48"/><rect x="34.68" y="59.45" width="2.48" height="2.48"/><path d="M44.59,62.09V59.61H42.11v2.48l1.24-.7Z" transform="translate(0 -0.16)"/><rect x="47.06" y="59.45" width="2.48" height="2.48"/><rect x="49.54" y="59.45" width="2.48" height="2.48"/><rect x="54.5" y="59.45" width="2.48" height="2.48"/><rect x="59.45" y="59.45" width="2.48" height="2.48"/><rect x="61.93" y="59.45" width="2.48" height="2.48"/><path d="M29.73,64.57V62.09H27.25v2.48l1.24-.7Z" transform="translate(0 -0.16)"/><rect x="32.2" y="61.93" width="2.48" height="2.48"/><rect x="34.68" y="61.93" width="2.48" height="2.48"/><rect x="37.16" y="61.93" width="2.48" height="2.48"/><rect x="49.54" y="61.93" width="2.48" height="2.48"/><rect x="54.5" y="61.93" width="2.48" height="2.48"/><rect x="59.45" y="61.93" width="2.48" height="2.48"/><rect x="24.77" y="64.4" width="2.48" height="2.48"/><rect x="32.2" y="64.4" width="2.48" height="2.48"/><rect x="34.68" y="64.4" width="2.48" height="2.48"/><rect x="37.16" y="64.4" width="2.48" height="2.48"/><rect x="49.54" y="64.4" width="2.48" height="2.48"/><rect x="52.02" y="64.4" width="2.48" height="2.48"/><rect x="54.5" y="64.4" width="2.48" height="2.48"/><rect x="56.97" y="64.4" width="2.48" height="2.48"/><rect x="59.45" y="64.4" width="2.48" height="2.48"/><rect x="61.93" y="64.4" width="2.48" height="2.48"/><path d="M66.88,64.57H64.4v2.48h2.48l-.69-1.24Z" transform="translate(0 -0.16)"/><rect class="cls-3" x="7.56" y="7.56" width="12.14" height="12.14"/><path d="M19.69,5.12H5V22.46H22.29V5.12Zm0,14.74H7.56V7.72H19.69Z" transform="translate(0 -0.16)"/><rect class="cls-3" x="52.14" y="7.56" width="12.14" height="12.14"/><path d="M64.28,5.12H49.54V22.46H66.88V5.12Zm0,14.74H52.14V7.72H64.28Z" transform="translate(0 -0.16)"/><rect class="cls-3" x="7.56" y="52.14" width="12.14" height="12.14"/><path d="M19.69,49.71H5V67.05H22.29V49.71Zm0,14.73H7.56V52.31H19.69Z" transform="translate(0 -0.16)"/><path d="M11.5,17.5a1.19,1.19,0,0,1-1-1l-.56-6.45,6.55.42a1,1,0,0,1,.82,1l.06,6Z" transform="translate(0 -0.16)"/><path d="M60.33,17.5a1.19,1.19,0,0,0,1-1l.56-6.45-6.55.42a1,1,0,0,0-.83,1l0,6Z" transform="translate(0 -0.16)"/><path d="M11.5,54.66a1.19,1.19,0,0,0-1,1l-.56,6.45,6.55-.42a1,1,0,0,0,.82-1l.06-6Z" transform="translate(0 -0.16)"/></svg>
