<?xml version="1.0" encoding="UTF-8" standalone="no"?>
<svg
   xmlns:dc="http://purl.org/dc/elements/1.1/"
   xmlns:cc="http://creativecommons.org/ns#"
   xmlns:rdf="http://www.w3.org/1999/02/22-rdf-syntax-ns#"
   xmlns:svg="http://www.w3.org/2000/svg"
   xmlns="http://www.w3.org/2000/svg"
   xmlns:sodipodi="http://sodipodi.sourceforge.net/DTD/sodipodi-0.dtd"
   xmlns:inkscape="http://www.inkscape.org/namespaces/inkscape"
   version="1.1"
   id="ic_staking_on"
   inkscape:version="1.0.1 (3bc2e813f5, 2020-09-07)"
   sodipodi:docname="img-empty-staking-on.svg"
   x="0px"
   y="0px"
   viewBox="0 0 100 100"
   style="enable-background:new 0 0 100 100;"
   xml:space="preserve"><metadata
   id="metadata36"><rdf:RDF><cc:Work
       rdf:about=""><dc:format>image/svg+xml</dc:format><dc:type
         rdf:resource="http://purl.org/dc/dcmitype/StillImage" /></cc:Work></rdf:RDF></metadata><defs
   id="defs34"><pattern
     id="EMFhbasepattern"
     patternUnits="userSpaceOnUse"
     width="6"
     height="6"
     x="0"
     y="0" /></defs>
<style
   type="text/css"
   id="style2">
	.st0{fill:#2EA1FF;}
	.st1{fill:#666666;}
	.st2{fill:#EFEFEF;}
</style>
<polygon
   class="st0"
   points="76.7,79.8 79.4,79.8 84.3,79.8 88.2,79 90.4,78.2 91.4,79.2 92,80.7 90.1,83 83.5,83.6 78.8,84.1   77.3,83.7 75.7,82.4 "
   id="polygon4"
   style="fill:#f1b533;fill-opacity:1" />
<path
   class="st0"
   d="M64.6,72l8.7-1l1-0.8l1.4,2.4l-3.5,1.9c0,0-4.8,1.7-5,1.5s-3.7-0.3-3.7-0.3"
   id="path6"
   style="fill:#e55d35;fill-opacity:1" />

<sodipodi:namedview
   bordercolor="#666666"
   borderopacity="1"
   gridtolerance="10"
   guidetolerance="10"
   id="namedview18"
   inkscape:current-layer="ic_staking_on"
   inkscape:cx="46.64322"
   inkscape:cy="51.170734"
   inkscape:pageopacity="0"
   inkscape:pageshadow="2"
   inkscape:window-height="2066"
   inkscape:window-width="3840"
   inkscape:zoom="15.249099"
   objecttolerance="10"
   pagecolor="#ffffff"
   showgrid="false"
   inkscape:document-rotation="0"
   inkscape:window-x="3829"
   inkscape:window-y="-11"
   inkscape:window-maximized="1">
	</sodipodi:namedview>
<g
   id="Group_9018">
	<g
   id="Group_9016"
   style="fill:#000000;fill-opacity:1">
		<path
   id="Ellipse_613"
   style="fill:#121228;fill-opacity:1"
   d="M 92,56 A 12,4 0 0 1 80,60 12,4 0 0 1 68,56 12,4 0 0 1 80,52 12,4 0 0 1 92,56 Z"
   class="st0" />
		<path
   id="Ellipse_614"
   style="fill:#121228;fill-opacity:1"
   d="M 76,68 A 12,4 0 0 1 64,72 12,4 0 0 1 52,68 12,4 0 0 1 64,64 12,4 0 0 1 76,68 Z"
   class="st0" />
		<path
   id="Rectangle_4669"
   class="st0"
   d="M32,24h14v14H32V24z"
   style="fill:#121228;fill-opacity:1" />
	</g>
	<g
   id="Group_9017"
   transform="translate(-0.3,-0.2)">
		<path
   id="Rectangle_4670"
   class="st1"
   d="m 12,60 h 2 v 4 h -2 z" />
		<path
   id="Path_18975"
   class="st1"
   d="m 92,58 c 0.6,-0.5 0.9,-1.2 1,-2 0,-3.3 -6.5,-5 -13,-5 -6.5,0 -13,1.7 -13,5 0,0.8 0.4,1.5 1,2 -1.1,0.9 -1.3,2.5 -0.4,3.6 0.1,0.1 0.2,0.3 0.4,0.4 -0.3,0.3 -0.6,0.7 -0.8,1.2 -0.4,0 -0.8,-0.1 -1.2,-0.1 V 39 h 5 V 23 H 52.6 C 56.5,19.9 57.1,14.2 54,10.4 50.9,6.6 45.2,5.9 41.4,9 40.4,9.8 39.6,10.8 39,11.9 36.7,7.5 31.3,5.7 26.9,8 c -4.4,2.3 -6.2,7.7 -3.9,12.1 0.6,1.1 1.4,2.1 2.4,2.9 H 7 v 16 h 5 v 17 h 2 V 39 h 50 v 24 c -6.5,0 -13,1.7 -13,5 0,0.8 0.4,1.5 1,2 -1.1,0.9 -1.3,2.5 -0.4,3.6 0.1,0.1 0.2,0.3 0.4,0.4 -0.3,0.3 -0.6,0.6 -0.7,1 H 14 v -7 h -2 v 9 h 39.2 c 0.2,0.4 0.4,0.7 0.7,1 -1.1,0.9 -1.3,2.5 -0.4,3.6 0.1,0.1 0.2,0.3 0.4,0.4 -1.1,0.9 -1.3,2.5 -0.4,3.6 0.1,0.1 0.2,0.3 0.4,0.4 -0.6,0.5 -0.9,1.2 -1,2 0,3.3 6.5,5 13,5 5.9,0 11.8,-1.4 12.8,-4.2 1,0.1 2.1,0.2 3.2,0.2 6.5,0 13,-1.7 13,-5 0,-0.8 -0.4,-1.5 -1,-2 1.1,-0.9 1.3,-2.5 0.4,-3.6 C 92.2,78.3 92.1,78.1 91.9,78 93,77.1 93.2,75.5 92.3,74.4 92.2,74.3 92.1,74.1 91.9,74 93,73.1 93.2,71.5 92.3,70.4 92.2,70.3 92.1,70.1 91.9,70 93,69.1 93.2,67.5 92.3,66.4 92.2,66.3 92.1,66.1 91.9,66 93,65.1 93.2,63.5 92.3,62.4 92.2,62.3 92.1,62.1 91.9,62 93,61.1 93.2,59.5 92.3,58.4 92.3,58.2 92.2,58.1 92,58 Z M 31,37 H 9 V 25 H 31 Z M 24,16 c 0,-3.9 3.1,-7 7,-7 3.9,0 7,3.1 7,7 v 7 h -7 c -3.9,0 -7,-3.1 -7,-7 z M 45,37 H 33 V 25 H 45 Z M 40,23 v -7 c 0,-3.9 3.1,-7 7,-7 3.9,0 7,3.1 7,7 0,3.9 -3.1,7 -7,7 z m 7,14 V 25 h 22 v 12 z m 4,39 c 0,0.2 0,0.3 0.1,0.5 C 51,76.3 51,76.2 51,76 Z m 13,15 c -7.1,0 -11,-2 -11,-3 0,-0.2 0.2,-0.5 0.7,-0.8 2.5,1.2 6.4,1.8 10.3,1.8 3.9,0 7.8,-0.6 10.3,-1.8 0.4,0.3 0.7,0.6 0.7,0.8 0,1 -3.9,3 -11,3 z m 0,-4 c -7.1,0 -11,-2 -11,-3 0,-0.2 0.2,-0.5 0.7,-0.8 2.5,1.2 6.4,1.8 10.3,1.8 3.9,0 7.8,-0.6 10.3,-1.8 0.4,0.3 0.7,0.6 0.7,0.8 0,1 -3.9,3 -11,3 z m 0,-4 c -7.1,0 -11,-2 -11,-3 0,-0.2 0.2,-0.5 0.7,-0.8 2.5,1.2 6.4,1.8 10.3,1.8 3.9,0 7.8,-0.6 10.3,-1.8 0.4,0.3 0.7,0.6 0.7,0.8 0,1 -3.9,3 -11,3 z m 0,-4 c -7.1,0 -11,-2 -11,-3 0,-0.2 0.2,-0.5 0.7,-0.8 2.5,1.2 6.4,1.8 10.3,1.8 3.9,0 7.8,-0.6 10.3,-1.8 0.4,0.3 0.7,0.6 0.7,0.8 0,1 -3.9,3 -11,3 z m 0,-4 c -7.1,0 -11,-2 -11,-3 0,-0.2 0.2,-0.5 0.7,-0.8 2.5,1.2 6.4,1.8 10.3,1.8 3.9,0 7.8,-0.6 10.3,-1.8 0.4,0.3 0.7,0.6 0.7,0.8 0,0.797609 -2.481104,2.231399 -7.088117,2.779099 C 66.742869,74.918076 65.436974,75 64,75 Z m 0,-4 c -7.1,0 -11,-2 -11,-3 0,-1 3.9,-3 11,-3 7.1,0 11,2 11,3 0,1 -3.9,3 -11,3 z m 16,16 c -1.2,0 -2.3,-0.1 -3.3,-0.2 -0.2,-0.3 -0.4,-0.6 -0.6,-0.8 0.3,-0.3 0.6,-0.7 0.8,-1.2 1,0.1 2.1,0.2 3.2,0.2 3.9,0 7.8,-0.6 10.3,-1.8 0.4,0.3 0.7,0.6 0.7,0.8 -0.1,1 -4,3 -11.1,3 z m 0,-4 c -1.2,0 -2.3,-0.1 -3.3,-0.2 -0.2,-0.3 -0.4,-0.6 -0.6,-0.8 0.3,-0.3 0.6,-0.7 0.8,-1.2 1,0.1 2.1,0.2 3.2,0.2 3.9,0 7.8,-0.6 10.3,-1.8 0.4,0.3 0.7,0.6 0.7,0.8 -0.07096,0.709557 -2.0551,1.922583 -5.738084,2.567358 -0.665985,0.116594 -1.38752,0.214606 -2.163338,0.2877 C 82.218212,82.947424 81.151167,83 80,83 Z m 0,-4 c -1.2,0 -2.3,-0.1 -3.3,-0.2 -0.2,-0.3 -0.4,-0.6 -0.6,-0.8 0.3,-0.3 0.6,-0.7 0.8,-1.2 1,0.1 2.1,0.2 3.2,0.2 3.9,0 7.8,-0.6 10.3,-1.8 0.4,0.3 0.7,0.6 0.7,0.8 -0.1,1 -4,3 -11.1,3 z m 0,-4 c -1.2,0 -2.3,-0.1 -3.3,-0.2 -0.2,-0.3 -0.4,-0.6 -0.6,-0.8 0.3,-0.3 0.6,-0.7 0.8,-1.2 1,0.1 2.1,0.2 3.2,0.2 3.9,0 7.8,-0.6 10.3,-1.8 0.4,0.3 0.7,0.6 0.7,0.8 -0.1,1 -4,3 -11.1,3 z m 0,-4 c -1.2,0 -2.3,-0.1 -3.3,-0.2 -0.2,-0.3 -0.4,-0.6 -0.6,-0.8 0.3,-0.3 0.6,-0.7 0.8,-1.2 1,0.1 2.1,0.2 3.2,0.2 3.9,0 7.8,-0.6 10.3,-1.8 0.4,0.3 0.7,0.6 0.7,0.8 -0.1,1 -4,3 -11.1,3 z m 0,-4 c -1.2,0 -2.3,-0.1 -3.3,-0.2 -0.6,-1.2 -2.2,-2.1 -4.2,-2.7 2.5,0.6 5,0.9 7.5,0.9 3.9,0 7.8,-0.6 10.3,-1.8 0.4,0.3 0.7,0.6 0.7,0.8 0,1 -3.9,3 -11,3 z m -10.6,-3.6 0.3,-0.3 c 0.6,0.3 1.2,0.5 1.8,0.7 -0.7,-0.1 -1.4,-0.3 -2.1,-0.4 z M 80,63 c -7.1,0 -11,-2 -11,-3 0,-0.2 0.2,-0.5 0.7,-0.8 2.5,1.2 6.4,1.8 10.3,1.8 3.9,0 7.8,-0.6 10.3,-1.8 0.4,0.3 0.7,0.6 0.7,0.8 0,1 -3.9,3 -11,3 z m 0,-4 c -7.1,0 -11,-2 -11,-3 0,-1 3.9,-3 11,-3 7.1,0 11,2 11,3 0,1 -3.9,3 -11,3 z"
   sodipodi:nodetypes="ccsscccccccccsccsccccccccccscccccccccccccccscssccccccccccccccccccssscssccccccsssscccccccccsscscsssscscsssscscsssscscsssscscssssssssscccsccsscccsccsssscccsccsscccsccsscccsccssccscssccccsscscsssssss" />
	</g>
</g>

<g
   id="g895"
   transform="matrix(0.0584405,0,0,0.0584405,17.410916,55.085205)"><path
     style="fill:#f1b533;fill-opacity:1;fill-rule:nonzero;stroke:none"
     d="m 364.9102,-30.712344 c 2.33333,-0.66667 72.66667,-21 111.66667,-32.66667 0,0 33.66666,-9.66667 66.33333,-19.66667 6,-1.66666 12.33333,-3.66666 12.33333,-3.66666 4,-1.33334 8,-2.33334 12.33334,-3.66667 -27.33334,24.66667 -54.66667,49 -82,73.66667 -24.33334,20.66666 -48.66667,41.33333 -73,61.66666 -8,32.33334 -15.66667,64.333344 -23.66667,96.333344 -8,31.66666 -15.66667,63.33333 -23.33333,94.66666 -8.66667,-36.33333 -17.66667,-73 -26.66667,-109.66666 -7,-27.000004 -14.33333,-54.000004 -21.66667,-81.000004 -26,-21.66667 -51.66666,-43.66667 -77.66666,-65.33334 -24.66667,-22.33333 -49.66667,-44.66666 -74.33333,-67 40,11.66667 80.66666,23.33334 121.99999,35 26,7.33334 52,14.33334 77.66667,21.33334 z"
     id="path865" /><path
     style="fill:#e55d35;fill-opacity:1;fill-rule:nonzero;stroke:none"
     d="m 416.9102,86.954316 c 1,-5.33333 2.33333,-10.66666 3.66667,-16 1.66666,-6.33333 3,-12.66666 4.66666,-18.66666 5,-4.33334 9.66667,-8.33334 14.33334,-12.66667 4,-3.33333 8,-6.33333 12,-9.66667 22,16 44.66666,33.33334 67.66666,52 20,16 39,32.000004 56.66667,47.666674 -25.66667,-5.33333 -52.66667,-11.66667 -80.66667,-19.33333 -27.66666,-7.33334 -54,-15.333344 -78.33333,-23.333344 z"
     id="path871" /><path
     style="fill:#e55d35;fill-opacity:1;fill-rule:nonzero;stroke:none"
     d="m 276.9102,29.287656 c 4.33333,3.66666 8.66667,7.33333 13.33333,11 5.33334,4.33333 10.33334,8.66666 15.33334,13 1.66666,6 3.33333,12 4.66666,17.66666 1.33334,4.66667 2.33334,9.66667 3.33334,14.33334 -26.33334,9 -54.33334,18.000004 -83.66667,26.666664 -25.33333,7.66667 -50,14.33334 -74,20 18,-17.33333 37.66667,-35.000004 59,-53.333334 21.33334,-17.66667 42,-34.33333 62,-49.33333 z"
     id="path873" /><path
     style="fill:#e55d35;fill-opacity:1;fill-rule:nonzero;stroke:none"
     d="m 401.57687,-53.379014 c -5.66667,1.66667 -11.33334,3.33333 -17,5 -6.66667,1.66667 -13.66667,3.66667 -20.33334,5.33333 -6.33333,-1.66666 -12.66666,-3.33333 -19,-5 -5.33333,-1.66666 -10.33333,-3 -15.33333,-4.66666 4.66667,-25.33334 10,-51.666666 16.33333,-79.000006 5.66667,-23.66666 12,-46.33333 18,-68.33333 7.66667,23 14.66667,47.33333 21.33334,73.33333 6.66666,25.33334 11.66666,50.000006 16,73.333336 z"
     id="path875" /></g></svg>
