<?xml version="1.0" encoding="UTF-8" standalone="no"?>
<svg
   xmlns:dc="http://purl.org/dc/elements/1.1/"
   xmlns:cc="http://creativecommons.org/ns#"
   xmlns:rdf="http://www.w3.org/1999/02/22-rdf-syntax-ns#"
   xmlns:svg="http://www.w3.org/2000/svg"
   xmlns="http://www.w3.org/2000/svg"
   xmlns:sodipodi="http://sodipodi.sourceforge.net/DTD/sodipodi-0.dtd"
   xmlns:inkscape="http://www.inkscape.org/namespaces/inkscape"
   version="1.1"
   id="ic_empty_transactions"
   inkscape:version="1.0.1 (3bc2e813f5, 2020-09-07)"
   sodipodi:docname="img-empty-transactions.svg"
   x="0px"
   y="0px"
   viewBox="0 0 100 100"
   style="enable-background:new 0 0 100 100;"
   xml:space="preserve"><metadata
   id="metadata34"><rdf:RDF><cc:Work
       rdf:about=""><dc:format>image/svg+xml</dc:format><dc:type
         rdf:resource="http://purl.org/dc/dcmitype/StillImage" /></cc:Work></rdf:RDF></metadata><defs
   id="defs32"><pattern
     id="EMFhbasepattern"
     patternUnits="userSpaceOnUse"
     width="6"
     height="6"
     x="0"
     y="0" /></defs>
<style
   type="text/css"
   id="style2">
	.st0{fill:#2EA1FF;}
	.st1{fill:#666666;}
	.st2{fill:#EFEFEF;}
</style>
<circle
   class="st0"
   cx="50"
   cy="50"
   id="circle4"
   style="fill:#1a1a1a;fill-opacity:1"
   r="18" />
<sodipodi:namedview
   bordercolor="#666666"
   borderopacity="1"
   gridtolerance="10"
   guidetolerance="10"
   id="namedview22"
   inkscape:current-layer="ic_empty_transactions"
   inkscape:cx="-157.15581"
   inkscape:cy="130.41644"
   inkscape:pageopacity="0"
   inkscape:pageshadow="2"
   inkscape:window-height="2066"
   inkscape:window-width="3840"
   inkscape:zoom="2.1177989"
   objecttolerance="10"
   pagecolor="#ffffff"
   showgrid="false"
   inkscape:document-rotation="0"
   inkscape:window-x="3829"
   inkscape:window-y="-11"
   inkscape:window-maximized="1">
	</sodipodi:namedview>
<g
   id="Group_9015">
	<path
   id="Path_18970"
   class="st0"
   d="M50,26c-13.3,0-24,10.7-24,24s10.7,24,24,24s24-10.7,24-24S63.3,26,50,26z M50,68   c-9.9,0-18-8.1-18-18s8.1-18,18-18s18,8.1,18,18S59.9,68,50,68z"
   style="fill:#1a1a1a;fill-opacity:1" />
	<g
   id="Group_9014">
		<g
   id="Group_9013">
			<path
   id="Path_18972"
   class="st0"
   d="M50,31c-10.5,0-19,8.5-19,19s8.5,19,19,19s19-8.5,19-19S60.5,31,50,31z M50,67     c-9.4,0-17-7.6-17-17s7.6-17,17-17s17,7.6,17,17S59.4,67,50,67z"
   style="fill:#141414;fill-opacity:1" />
			<path
   id="Rectangle_4664"
   class="st1"
   d="M83,56h2v4h-2V56z" />
			<path
   id="Rectangle_4665"
   class="st1"
   d="M83,44h2v8h-2V44z" />
			<path
   id="Rectangle_4666"
   class="st1"
   d="M15,48h2v8h-2V48z" />
			<path
   id="Rectangle_4667"
   class="st1"
   d="M15,40h2v4h-2V40z" />
			<path
   id="Path_18973"
   class="st1"
   d="M95.2,71H85v-7h-2v9h7.8L76,90.5L61.2,73H68v-2h-4.5c11.6-7.5,15-22.9,7.5-34.5     c-6.4-9.9-18.9-14-29.9-9.8L24,6.5L4.8,29H15v7h2v-9H9.2L24,9.5L38.8,27H32v2h4.5c-11.6,7.5-15,22.9-7.5,34.5     c6.4,9.9,18.9,14,29.9,9.8L76,93.5L95.2,71z M27,50c0-12.7,10.3-23,23-23s23,10.3,23,23S62.7,73,50,73S27,62.7,27,50z" />
		</g>
	</g>
</g>

<g
   id="g894"
   transform="matrix(1.147315,0,0,1.1201143,727.05982,-261.73053)"
   style="fill:#ececec"><g
     id="g876"
     style="fill:#ececec"><path
       style="fill:#ececec;fill-opacity:1;fill-rule:nonzero;stroke:none;stroke-width:0.525802"
       d="m -580.11686,282.4329 c 0.51877,0.35529 1.38341,0.88821 1.55634,0.71057 -1.03757,-1.06584 -2.07512,-2.30932 -2.76683,-3.73044 -1.90219,-3.19752 -2.76682,-6.57267 -2.5939,-9.05962 0,0 0,0 0,-0.17764 -1.72926,-0.8882 -3.45852,-4.08572 -7.95461,-3.37515 -3.11268,0.53291 -4.15024,1.95403 -4.15024,1.95403 0,0 2.24805,-1.06584 3.63146,-0.53292 -7.08999,0.71056 -6.57121,5.68447 -6.05242,7.63851 0,0 0,0 0,0 0,0 0,0 0,0 0.6917,1.42111 0,3.55279 -1.9022,4.97391 -0.69171,0.53292 -1.38342,0.8882 -2.07512,1.06584 1.72926,3.73043 4.84194,6.39503 8.64633,7.46087 0.34585,0.17764 0.51877,0.17764 0.86462,0.17764 1.72928,0.35527 1.72928,0.35527 1.72928,0.35527 0.34585,0 0.6917,0 1.03755,0 -0.34585,-0.53291 -0.34585,-1.06584 -0.51878,-1.59875 -0.34585,-3.19752 1.03756,-6.75031 0.51878,-11.72422 -0.6917,-6.57267 -5.8795,-5.3292 -5.8795,-5.3292 0,0 0,0 -0.17293,0.17764 0,0 0.51878,-0.35528 1.21049,-0.35528 1.21049,-0.17764 5.01487,-0.35527 5.53365,5.50684 0.34585,2.84223 0.17293,5.15155 0,7.28322 -0.34586,1.42112 -0.17293,3.01988 0.17293,4.26336 0,0.35528 0,0.53291 0.17292,0.71055 0,0 0,0 0,0 0.17293,0.88821 0.17293,0.88821 0.17293,0.88821 0,0 0,0 0,0 1.55634,-0.17764 1.55634,-0.17764 1.55634,-0.17764 3.2856,-0.71057 6.22535,-2.6646 8.30047,-5.50684 -0.51879,-0.35528 -0.86464,-0.71055 -1.38341,-1.06583 -1.21049,-1.42112 -2.24805,-3.01988 -2.24805,-3.01988 0.69171,0.71056 1.72926,1.59876 2.5939,2.48695 z m -16.08217,-8.17142 c 0.17293,0 0.51878,0.53292 0.86464,0.53292 0.51878,-0.17764 0.86463,-0.71056 0.86463,-0.71056 0.17292,0.17764 -0.34585,3.37515 -0.34585,3.37515 0.17292,0.17764 0.69171,-0.17764 0.86463,0 0.17293,0 0.34585,0.53293 0.51878,0.71057 0,0.17764 -0.86464,0.53291 -0.86464,0.71055 0.17294,0 1.21049,-0.17764 1.21049,0 0.17292,0.35528 -0.17293,0.17764 0.17292,1.06584 0.17293,0.8882 0.51879,0.53292 0.69172,0.8882 0,0.35527 -1.38342,0.8882 -1.55634,0.71056 -0.34585,-0.17764 -0.17293,-0.8882 -0.34585,-1.24348 -0.34586,-0.35528 -0.86464,-1.7764 -1.03756,-2.13167 -0.17293,-0.53293 -0.51879,-1.06584 -0.86464,-1.59876 -0.17293,-0.8882 -0.17293,-2.30932 -0.17293,-2.30932 z"
       id="path861" /><path
       style="fill:#ececec;fill-opacity:1;fill-rule:nonzero;stroke:none;stroke-width:0.525802"
       d="m -580.11686,282.4329 c 0.51877,0.35529 1.38341,0.88821 1.55634,0.71057 -1.03757,-1.06584 -2.07512,-2.30932 -2.76683,-3.73044 -1.90219,-3.19752 -2.76682,-6.57267 -2.5939,-9.05962 0,0 0,0 0,-0.17764 -1.72926,-0.8882 -3.45852,-4.08572 -7.95461,-3.37515 -3.11268,0.53291 -4.15024,1.95403 -4.15024,1.95403 0,0 2.24805,-1.06584 3.63146,-0.53292 -7.08999,0.71056 -6.57121,5.68447 -6.05242,7.63851 0,0 0,0 0,0 0,0 0,0 0,0 0.6917,1.42111 0,3.55279 -1.9022,4.97391 -0.69171,0.53292 -1.38342,0.8882 -2.07512,1.06584 1.72926,3.73043 4.84194,6.39503 8.64633,7.46087 0.34585,0.17764 0.51877,0.17764 0.86462,0.17764 1.72928,0.35527 1.72928,0.35527 1.72928,0.35527 0.34585,0 0.6917,0 1.03755,0 -0.34585,-0.53291 -0.34585,-1.06584 -0.51878,-1.59875 -0.34585,-3.19752 1.03756,-6.75031 0.51878,-11.72422 -0.6917,-6.57267 -5.8795,-5.3292 -5.8795,-5.3292 0,0 0,0 -0.17293,0.17764 0,0 0.51878,-0.35528 1.21049,-0.35528 1.21049,-0.17764 5.01487,-0.35527 5.53365,5.50684 0.34585,2.84223 0.17293,5.15155 0,7.28322 -0.34586,1.42112 -0.17293,3.01988 0.17293,4.26336 0,0.35528 0,0.53291 0.17292,0.71055 0,0 0,0 0,0 0.17293,0.88821 0.17293,0.88821 0.17293,0.88821 0,0 0,0 0,0 1.55634,-0.17764 1.55634,-0.17764 1.55634,-0.17764 3.2856,-0.71057 6.22535,-2.6646 8.30047,-5.50684 -0.51879,-0.35528 -0.86464,-0.71055 -1.38341,-1.06583 -1.21049,-1.42112 -2.24805,-3.01988 -2.24805,-3.01988 0.69171,0.71056 1.72926,1.59876 2.5939,2.48695 z m -16.08217,-8.17142 c 0.17293,0 0.51878,0.53292 0.86464,0.53292 0.51878,-0.17764 0.86463,-0.71056 0.86463,-0.71056 0.17292,0.17764 -0.34585,3.37515 -0.34585,3.37515 0.17292,0.17764 0.69171,-0.17764 0.86463,0 0.17293,0 0.34585,0.53293 0.51878,0.71057 0,0.17764 -0.86464,0.53291 -0.86464,0.71055 0.17294,0 1.21049,-0.17764 1.21049,0 0.17292,0.35528 -0.17293,0.17764 0.17292,1.06584 0.17293,0.8882 0.51879,0.53292 0.69172,0.8882 0,0.35527 -1.38342,0.8882 -1.55634,0.71056 -0.34585,-0.17764 -0.17293,-0.8882 -0.34585,-1.24348 -0.34586,-0.35528 -0.86464,-1.7764 -1.03756,-2.13167 -0.17293,-0.53293 -0.51879,-1.06584 -0.86464,-1.59876 -0.17293,-0.8882 -0.17293,-2.30932 -0.17293,-2.30932 z"
       id="path863-2" /></g></g></svg>
