<?xml version="1.0" encoding="UTF-8" standalone="no"?>
<svg
   xmlns:dc="http://purl.org/dc/elements/1.1/"
   xmlns:cc="http://creativecommons.org/ns#"
   xmlns:rdf="http://www.w3.org/1999/02/22-rdf-syntax-ns#"
   xmlns:svg="http://www.w3.org/2000/svg"
   xmlns="http://www.w3.org/2000/svg"
   xmlns:sodipodi="http://sodipodi.sourceforge.net/DTD/sodipodi-0.dtd"
   xmlns:inkscape="http://www.inkscape.org/namespaces/inkscape"
   version="1.1"
   id="ic_empty_transactions"
   inkscape:version="1.0.1 (3bc2e813f5, 2020-09-07)"
   sodipodi:docname="img-empty-transactions.svg"
   x="0px"
   y="0px"
   viewBox="0 0 100 100"
   style="enable-background:new 0 0 100 100;"
   xml:space="preserve"><metadata
   id="metadata34"><rdf:RDF><cc:Work
       rdf:about=""><dc:format>image/svg+xml</dc:format><dc:type
         rdf:resource="http://purl.org/dc/dcmitype/StillImage" /></cc:Work></rdf:RDF></metadata><defs
   id="defs32" />
<style
   type="text/css"
   id="style2">
	.st0{fill:#2EA1FF;}
	.st1{fill:#666666;}
	.st2{fill:#EFEFEF;}
</style>
<circle
   class="st0"
   cx="50"
   cy="50"
   r="18"
   id="circle4"
   style="fill:#0c1e2d;fill-opacity:1" />
<sodipodi:namedview
   bordercolor="#666666"
   borderopacity="1"
   gridtolerance="10"
   guidetolerance="10"
   id="namedview22"
   inkscape:current-layer="ic_empty_transactions"
   inkscape:cx="29.224692"
   inkscape:cy="57.544555"
   inkscape:pageopacity="0"
   inkscape:pageshadow="2"
   inkscape:window-height="2066"
   inkscape:window-width="3840"
   inkscape:zoom="8.4711955"
   objecttolerance="10"
   pagecolor="#ffffff"
   showgrid="false"
   inkscape:document-rotation="0"
   inkscape:window-x="3829"
   inkscape:window-y="-11"
   inkscape:window-maximized="1">
	</sodipodi:namedview>
<g
   id="Group_9015">
	<path
   id="Path_18970"
   class="st0"
   d="M50,26c-13.3,0-24,10.7-24,24s10.7,24,24,24s24-10.7,24-24S63.3,26,50,26z M50,68   c-9.9,0-18-8.1-18-18s8.1-18,18-18s18,8.1,18,18S59.9,68,50,68z"
   style="fill:#0c1e2d;fill-opacity:1" />
	<g
   id="Group_9014">
		<g
   id="Group_9013">
			<path
   id="Path_18972"
   class="st0"
   d="M50,31c-10.5,0-19,8.5-19,19s8.5,19,19,19s19-8.5,19-19S60.5,31,50,31z M50,67     c-9.4,0-17-7.6-17-17s7.6-17,17-17s17,7.6,17,17S59.4,67,50,67z"
   style="fill:#0c1e2d;fill-opacity:1" />
			<path
   id="Rectangle_4664"
   class="st1"
   d="M83,56h2v4h-2V56z" />
			<path
   id="Rectangle_4665"
   class="st1"
   d="M83,44h2v8h-2V44z" />
			<path
   id="Rectangle_4666"
   class="st1"
   d="M15,48h2v8h-2V48z" />
			<path
   id="Rectangle_4667"
   class="st1"
   d="M15,40h2v4h-2V40z" />
			<path
   id="Path_18973"
   class="st1"
   d="M95.2,71H85v-7h-2v9h7.8L76,90.5L61.2,73H68v-2h-4.5c11.6-7.5,15-22.9,7.5-34.5     c-6.4-9.9-18.9-14-29.9-9.8L24,6.5L4.8,29H15v7h2v-9H9.2L24,9.5L38.8,27H32v2h4.5c-11.6,7.5-15,22.9-7.5,34.5     c6.4,9.9,18.9,14,29.9,9.8L76,93.5L95.2,71z M27,50c0-12.7,10.3-23,23-23s23,10.3,23,23S62.7,73,50,73S27,62.7,27,50z" />
		</g>
	</g>
</g>

<path
   id="path850"
   style="fill:#27cafc;fill-opacity:1;fill-rule:nonzero;stroke:none;stroke-width:0.271559"
   d="m 49.840544,33.041294 c -0.09058,0 -0.269413,0.359953 -1.084069,2.803969 -0.452596,1.538822 -1.087646,3.168829 -1.268676,3.621425 -0.543116,1.267269 -1.357516,2.626666 -3.34894,5.6138 -1.991415,2.98713 -2.533335,3.983213 -3.076451,5.250482 -1.719875,3.892323 -0.907188,8.144086 1.989428,11.221735 1.357789,1.357785 3.349275,2.535342 5.159642,2.806898 0.271576,0 0.633512,0.09084 0.814551,0.09084 h 1.268676 c 2.353474,-0.09052 4.436279,-0.996519 6.246647,-2.806897 1.538827,-1.538827 2.53272,-3.347582 2.894805,-5.520041 0.180933,-0.814671 0.180933,-2.89727 0,-3.621425 C 58.983561,50.510658 58.170531,48.882303 55.636001,45.0805 52.648865,40.645054 52.375875,40.011768 50.927575,35.757367 50.203403,33.403873 50.0216,33.041299 49.840544,33.041299 Z m -5.701685,14.93399 c 0,0 0.273105,3.1e-4 0.454134,0.09084 0.452597,0.181052 0.451225,0.182589 0.451225,0.454145 0,0.362075 0.271409,0.724626 0.814516,0.996185 0.180941,0.09052 0.451523,0.178736 0.542034,0.178736 0,0 0.09082,0.09175 0.09082,0.363317 0,0.362073 8.79e-4,0.452141 0.272481,0.723697 0.180942,0.181029 0.452165,0.363625 0.723706,0.454143 0.180941,0.09051 0.454161,0.179034 0.454161,0.269556 0,0 -0.452781,0.635347 -0.90536,1.359499 -0.724163,1.176749 -0.905377,1.448328 -0.905377,1.719886 0,0.995713 1.538713,1.627198 2.534416,1.084083 0.271567,-0.18103 0.541762,-0.54161 2.1711,-2.985625 0.995712,-1.538827 1.901871,-2.716069 1.992382,-2.716069 0,0 0.09081,0.270795 0.09081,0.632871 0.09059,0.995709 0.180028,1.176147 0.542043,1.538226 0.362078,0.271556 0.906907,0.454143 1.359486,0.454143 0.362086,0 0.815166,-0.182589 0.996195,-0.454143 0.180933,-0.18103 0.178639,-0.359478 0.178639,-1.807782 0,-1.357787 3.25e-4,-1.631677 0.09082,-1.54116 0.09058,0 0.36162,0.544208 0.723706,1.177845 0.995703,1.99142 1.35887,3.621138 1.17784,5.250482 -0.271549,2.172461 -1.086406,3.893001 -2.625234,5.341311 -1.267296,1.267245 -2.53446,1.990351 -4.254335,2.261908 -2.534531,0.362075 -4.887803,-0.451548 -6.788716,-2.261926 -1.176733,-1.176752 -1.89985,-2.355399 -2.261927,-3.984741 -0.271549,-0.814673 -0.362684,-2.715926 -0.181628,-3.530597 0.09058,-0.814674 0.54359,-2.080126 0.996196,-2.894799 0.362059,-0.814673 1.175221,-2.083508 1.26574,-2.174028 z m 1.719875,3.439769 c -0.271541,0 -0.994789,0.544208 -1.447386,1.177842 -1.538827,2.172462 -0.36314,5.340555 2.261909,5.974182 0.995712,0.271556 1.811194,0.179791 2.806898,-0.363314 1.267278,-0.543114 2.08029,-1.991151 2.08029,-3.348939 0,-0.362078 -0.08944,-0.542663 -0.542061,-0.7237 -0.452596,-0.271558 -0.542034,-0.09129 -0.542034,0.63287 0.09058,0.724152 -0.09219,1.086251 -0.454135,1.719885 -0.543115,0.814671 -1.448194,1.177843 -2.534416,1.177843 -1.086222,-0.09051 -2.081521,-0.724177 -2.443581,-1.719887 -0.271566,-0.452593 -0.272489,-0.634728 -0.272489,-1.177841 0,-0.633634 8.79e-4,-0.722628 0.272489,-1.265741 0.271541,-0.543116 0.722924,-0.997425 1.35655,-1.3595 0.09059,-0.09052 0.272489,-0.179035 0.272489,-0.269555 0,-0.181029 -0.542957,-0.454145 -0.814523,-0.454145 z" /></svg>
