<?xml version="1.0" encoding="utf-8"?>
<!-- Generator: Adobe Illustrator 25.2.0, SVG Export Plug-In . SVG Version: 6.00 Build 0)  -->
<svg version="1.1"
	 id="ic_staking_on" inkscape:version="0.92.4 (5da689c313, 2019-01-14)" sodipodi:docname="img-empty-staking-on.svg" xmlns:cc="http://creativecommons.org/ns#" xmlns:dc="http://purl.org/dc/elements/1.1/" xmlns:inkscape="http://www.inkscape.org/namespaces/inkscape" xmlns:rdf="http://www.w3.org/1999/02/22-rdf-syntax-ns#" xmlns:sodipodi="http://sodipodi.sourceforge.net/DTD/sodipodi-0.dtd" xmlns:svg="http://www.w3.org/2000/svg"
	 xmlns="http://www.w3.org/2000/svg" xmlns:xlink="http://www.w3.org/1999/xlink" x="0px" y="0px" viewBox="0 0 100 100"
	 style="enable-background:new 0 0 100 100;" xml:space="preserve">
<style type="text/css">
	.st0{fill:#F4B400;}
	.st1{fill:#666666;}
	.st2{fill:#E50E28;}
</style>
<polygon class="st0" points="76.7,79.8 79.4,79.8 84.3,79.8 88.2,79 90.4,78.2 91.4,79.2 92,80.7 90.1,83 83.5,83.6 78.8,84.1 
	77.3,83.7 75.7,82.4 "/>
<path class="st0" d="M64.6,72l8.7-1l1-0.8l1.4,2.4l-3.5,1.9c0,0-4.8,1.7-5,1.5c-0.2-0.2-3.7-0.3-3.7-0.3"/>
<rect x="14" y="39" class="st0" width="50.6" height="36"/>
<sodipodi:namedview  bordercolor="#666666" borderopacity="1" gridtolerance="10" guidetolerance="10" id="namedview18" inkscape:current-layer="Group_9016" inkscape:cx="35.345373" inkscape:cy="50.554864" inkscape:pageopacity="0" inkscape:pageshadow="2" inkscape:window-height="480" inkscape:window-width="640" inkscape:zoom="5.3913705" objecttolerance="10" pagecolor="#ffffff" showgrid="false">
	</sodipodi:namedview>
<g id="Group_9018">
	<g id="Group_9016">
		<ellipse id="Ellipse_613" class="st0" cx="80" cy="56" rx="12" ry="4"/>
		<ellipse id="Ellipse_614" class="st0" cx="64" cy="68" rx="12" ry="4"/>
		<path id="Rectangle_4669" class="st0" d="M32,24h14v14H32V24z"/>
	</g>
	<g id="Group_9017">
		<path id="Rectangle_4670" class="st1" d="M12,60h2v4h-2V60z"/>
		<path id="Path_18975" class="st1" d="M92,58c0.6-0.5,0.9-1.2,1-2c0-3.3-6.5-5-13-5s-13,1.7-13,5c0,0.8,0.4,1.5,1,2
			c-1.1,0.9-1.3,2.5-0.4,3.6c0.1,0.1,0.2,0.3,0.4,0.4c-0.3,0.3-0.6,0.7-0.8,1.2c-0.4,0-0.8-0.1-1.2-0.1V39h5V23H52.6
			c3.9-3.1,4.5-8.8,1.4-12.6S45.2,5.9,41.4,9c-1,0.8-1.8,1.8-2.4,2.9C36.7,7.5,31.3,5.7,26.9,8s-6.2,7.7-3.9,12.1
			c0.6,1.1,1.4,2.1,2.4,2.9H7v16h5v17h2V39h50v24c-6.5,0-13,1.7-13,5c0,0.8,0.4,1.5,1,2c-1.1,0.9-1.3,2.5-0.4,3.6
			c0.1,0.1,0.2,0.3,0.4,0.4c-0.3,0.3-0.6,0.6-0.7,1H14v-7h-2v9h39.2c0.2,0.4,0.4,0.7,0.7,1c-1.1,0.9-1.3,2.5-0.4,3.6
			c0.1,0.1,0.2,0.3,0.4,0.4c-1.1,0.9-1.3,2.5-0.4,3.6c0.1,0.1,0.2,0.3,0.4,0.4c-0.6,0.5-0.9,1.2-1,2c0,3.3,6.5,5,13,5
			c5.9,0,11.8-1.4,12.8-4.2c1,0.1,2.1,0.2,3.2,0.2c6.5,0,13-1.7,13-5c0-0.8-0.4-1.5-1-2c1.1-0.9,1.3-2.5,0.4-3.6
			c-0.1-0.1-0.2-0.3-0.4-0.4c1.1-0.9,1.3-2.5,0.4-3.6c-0.1-0.1-0.2-0.3-0.4-0.4c1.1-0.9,1.3-2.5,0.4-3.6c-0.1-0.1-0.2-0.3-0.4-0.4
			c1.1-0.9,1.3-2.5,0.4-3.6c-0.1-0.1-0.2-0.3-0.4-0.4c1.1-0.9,1.3-2.5,0.4-3.6c-0.1-0.1-0.2-0.3-0.4-0.4c1.1-0.9,1.3-2.5,0.4-3.6
			C92.3,58.2,92.2,58.1,92,58z M31,37H9V25h22V37z M24,16c0-3.9,3.1-7,7-7s7,3.1,7,7v7h-7C27.1,23,24,19.9,24,16z M45,37H33V25h12
			V37z M40,23v-7c0-3.9,3.1-7,7-7s7,3.1,7,7s-3.1,7-7,7H40z M47,37V25h22v12H47z M51,76c0,0.2,0,0.3,0.1,0.5C51,76.3,51,76.2,51,76z
			 M64,91c-7.1,0-11-2-11-3c0-0.2,0.2-0.5,0.7-0.8C56.2,88.4,60.1,89,64,89s7.8-0.6,10.3-1.8c0.4,0.3,0.7,0.6,0.7,0.8
			C75,89,71.1,91,64,91z M64,87c-7.1,0-11-2-11-3c0-0.2,0.2-0.5,0.7-0.8C56.2,84.4,60.1,85,64,85s7.8-0.6,10.3-1.8
			c0.4,0.3,0.7,0.6,0.7,0.8C75,85,71.1,87,64,87z M64,83c-7.1,0-11-2-11-3c0-0.2,0.2-0.5,0.7-0.8C56.2,80.4,60.1,81,64,81
			s7.8-0.6,10.3-1.8c0.4,0.3,0.7,0.6,0.7,0.8C75,81,71.1,83,64,83z M64,79c-7.1,0-11-2-11-3c0-0.2,0.2-0.5,0.7-0.8
			C56.2,76.4,60.1,77,64,77s7.8-0.6,10.3-1.8c0.4,0.3,0.7,0.6,0.7,0.8C75,77,71.1,79,64,79z M64,75c-7.1,0-11-2-11-3
			c0-0.2,0.2-0.5,0.7-0.8C56.2,72.4,60.1,73,64,73s7.8-0.6,10.3-1.8c0.4,0.3,0.7,0.6,0.7,0.8C75,73,71.1,75,64,75z M64,71
			c-7.1,0-11-2-11-3s3.9-3,11-3s11,2,11,3S71.1,71,64,71z M80,87c-1.2,0-2.3-0.1-3.3-0.2c-0.2-0.3-0.4-0.6-0.6-0.8
			c0.3-0.3,0.6-0.7,0.8-1.2c1,0.1,2.1,0.2,3.2,0.2c3.9,0,7.8-0.6,10.3-1.8c0.4,0.3,0.7,0.6,0.7,0.8C91,85,87.1,87,80,87z M80,83
			c-1.2,0-2.3-0.1-3.3-0.2c-0.2-0.3-0.4-0.6-0.6-0.8c0.3-0.3,0.6-0.7,0.8-1.2c1,0.1,2.1,0.2,3.2,0.2c3.9,0,7.8-0.6,10.3-1.8
			c0.4,0.3,0.7,0.6,0.7,0.8C91,81,87.1,83,80,83z M80,79c-1.2,0-2.3-0.1-3.3-0.2c-0.2-0.3-0.4-0.6-0.6-0.8c0.3-0.3,0.6-0.7,0.8-1.2
			c1,0.1,2.1,0.2,3.2,0.2c3.9,0,7.8-0.6,10.3-1.8c0.4,0.3,0.7,0.6,0.7,0.8C91,77,87.1,79,80,79z M80,75c-1.2,0-2.3-0.1-3.3-0.2
			c-0.2-0.3-0.4-0.6-0.6-0.8c0.3-0.3,0.6-0.7,0.8-1.2c1,0.1,2.1,0.2,3.2,0.2c3.9,0,7.8-0.6,10.3-1.8c0.4,0.3,0.7,0.6,0.7,0.8
			C91,73,87.1,75,80,75z M80,71c-1.2,0-2.3-0.1-3.3-0.2c-0.2-0.3-0.4-0.6-0.6-0.8c0.3-0.3,0.6-0.7,0.8-1.2c1,0.1,2.1,0.2,3.2,0.2
			c3.9,0,7.8-0.6,10.3-1.8c0.4,0.3,0.7,0.6,0.7,0.8C91,69,87.1,71,80,71z M80,67c-1.2,0-2.3-0.1-3.3-0.2c-0.6-1.2-2.2-2.1-4.2-2.7
			c2.5,0.6,5,0.9,7.5,0.9c3.9,0,7.8-0.6,10.3-1.8c0.4,0.3,0.7,0.6,0.7,0.8C91,65,87.1,67,80,67z M69.4,63.4c0.1-0.1,0.2-0.2,0.3-0.3
			c0.6,0.3,1.2,0.5,1.8,0.7C70.8,63.7,70.1,63.5,69.4,63.4z M80,63c-7.1,0-11-2-11-3c0-0.2,0.2-0.5,0.7-0.8C72.2,60.4,76.1,61,80,61
			s7.8-0.6,10.3-1.8c0.4,0.3,0.7,0.6,0.7,0.8C91,61,87.1,63,80,63z M80,59c-7.1,0-11-2-11-3s3.9-3,11-3s11,2,11,3S87.1,59,80,59z"/>
	</g>
</g>
<g>
	<path class="st2" d="M24.8,62.4c0.1-0.1,0.3-0.2,0.4-0.4c1.3-1.1,2.7-1.8,4.3-2c1.3-0.2,2.5,0,3.7,0.4c1.6,0.4,3.1,1.1,4.6,1.8
		c1.7,0.8,3.4,1.6,5.2,2.1c1.7,0.5,3.5,0.8,5.2,0.7c0.7,0,1.5-0.2,2.2-0.4c0,0,0.1,0,0.1,0c-0.6,0.3-1.3,0.7-1.9,1
		c-1.7,0.8-3.3,1.6-5.1,2.2c-1.4,0.4-2.7,0.7-4.2,0.6c-1.6-0.1-3-0.6-4.4-1.3c-1.3-0.7-2.4-1.7-3.5-2.6c-0.6-0.5-1.2-1-1.8-1.4
		c-1.5-1-3-1.2-4.7-0.8C24.9,62.5,24.9,62.5,24.8,62.4C24.8,62.5,24.8,62.5,24.8,62.4z"/>
	<path d="M55.2,62.1c-1.6,0.7-3.2,1.3-4.9,1.5c-1.5,0.2-3,0.1-4.5-0.2c-1.7-0.4-3.3-1.1-4.9-1.8c-1.9-0.8-3.7-1.7-5.6-2.3
		c-1.4-0.5-2.8-0.8-4.3-1c-2.1-0.2-4.1,0.1-6,0.9c-1,0.4-1.9,0.9-2.9,1.3c-0.1,0-0.2,0.1-0.2,0.1c0,0,0-0.1,0-0.1
		c1.1-1.2,2.2-2.4,3.6-3.3c2.1-1.4,4.4-2.1,6.9-1.9c1.5,0.1,3,0.5,4.5,1.1c1.9,0.8,3.7,1.6,5.6,2.4c2.2,1,4.5,2,6.8,2.6
		c1.3,0.3,2.7,0.6,4,0.6C53.9,62.1,54.5,62.1,55.2,62.1z"/>
	<path class="st2" d="M57.1,58.3c-0.6,0.2-1.1,0.4-1.7,0.6c-1.1,0.3-2.1,0.6-3.2,0.7c-1.3,0.1-2.6,0.1-3.9-0.2
		c-1.5-0.3-2.9-0.9-4.3-1.5c-1.5-0.7-2.9-1.4-4.4-2.1c-1.7-0.8-3.4-1.5-5.3-1.9c-2.2-0.5-4.3-0.3-6.5,0.3c-1.2,0.4-2.3,0.8-3.4,1.4
		c-0.1,0.1-0.2,0.1-0.4,0.2c0.1-0.1,0.1-0.1,0.1-0.1c0.9-0.9,1.8-1.9,2.8-2.6c1.7-1.2,3.5-2.1,5.5-2.2c1.4-0.1,2.8,0.1,4.1,0.4
		c1.8,0.5,3.5,1.3,5.2,2.1c2.1,1,4.2,2,6.3,3c1.9,0.9,4,1.5,6.1,1.8C55.1,58.2,56.1,58.3,57.1,58.3z"/>
	<path class="st2" d="M54.1,54.5c-0.6,0.3-1.1,0.4-1.7,0.5c-1.6,0.2-3.2-0.2-4.7-0.8c-1.7-0.7-3.3-1.6-4.9-2.4
		c-1.8-0.9-3.5-1.7-5.4-2.2c-3-0.8-5.9-0.6-8.7,0.8c0,0-0.1,0-0.2,0c0.4-0.3,0.8-0.6,1.2-1c1.7-1.3,3.5-2.3,5.5-2.9
		c3.3-1,6.5-0.6,9.6,1.1c1.1,0.6,2.1,1.6,3,2.5c0.8,0.8,1.6,1.7,2.5,2.5c0.9,0.8,1.9,1.4,3,1.7C53.5,54.4,53.8,54.4,54.1,54.5z"/>
</g>
</svg>
