<?xml version="1.0" encoding="UTF-8" standalone="no"?>
<svg
   xmlns:dc="http://purl.org/dc/elements/1.1/"
   xmlns:cc="http://creativecommons.org/ns#"
   xmlns:rdf="http://www.w3.org/1999/02/22-rdf-syntax-ns#"
   xmlns:svg="http://www.w3.org/2000/svg"
   xmlns="http://www.w3.org/2000/svg"
   xmlns:sodipodi="http://sodipodi.sourceforge.net/DTD/sodipodi-0.dtd"
   xmlns:inkscape="http://www.inkscape.org/namespaces/inkscape"
   version="1.1"
   id="ic_dark_staking_on"
   inkscape:version="1.0.1 (3bc2e813f5, 2020-09-07)"
   sodipodi:docname="img-empty-dark-staking-on.svg"
   x="0px"
   y="0px"
   viewBox="0 0 100 100"
   style="enable-background:new 0 0 100 100;"
   xml:space="preserve"><metadata
   id="metadata30"><rdf:RDF><cc:Work
       rdf:about=""><dc:format>image/svg+xml</dc:format><dc:type
         rdf:resource="http://purl.org/dc/dcmitype/StillImage" /></cc:Work></rdf:RDF></metadata><defs
   id="defs28"><pattern
     id="EMFhbasepattern"
     patternUnits="userSpaceOnUse"
     width="6"
     height="6"
     x="0"
     y="0" /></defs>
<style
   type="text/css"
   id="style2">
	.st0{fill:#2EA1FF;}
	.st1{fill:#A09EA5;}
</style>
<sodipodi:namedview
   bordercolor="#666666"
   borderopacity="1"
   gridtolerance="10"
   guidetolerance="10"
   id="namedview18"
   inkscape:current-layer="g876"
   inkscape:cx="14.986817"
   inkscape:cy="68.378666"
   inkscape:pageopacity="0"
   inkscape:pageshadow="2"
   inkscape:window-height="2066"
   inkscape:window-width="3840"
   inkscape:zoom="14.533506"
   objecttolerance="10"
   pagecolor="#ffffff"
   showgrid="false"
   inkscape:document-rotation="0"
   inkscape:window-x="3829"
   inkscape:window-y="-11"
   inkscape:window-maximized="1">
	</sodipodi:namedview>
<g
   id="Group_9053">
	<g
   id="Group_9051"
   style="stroke:#6666ff;stroke-opacity:1;fill:#000000;fill-opacity:1">
		<ellipse
   id="Ellipse_640"
   class="st0"
   cx="80"
   cy="56"
   rx="12"
   ry="4"
   style="fill:#121228;fill-opacity:1;stroke:#6666ff;stroke-opacity:1" />
		<ellipse
   id="Ellipse_641"
   class="st0"
   cx="64"
   cy="68"
   rx="12"
   ry="4"
   style="fill:#121228;fill-opacity:1;stroke:#6666ff;stroke-opacity:1" />
		<path
   id="Rectangle_4706"
   class="st0"
   d="M32,24h14v14H32V24z"
   style="fill:#121228;fill-opacity:1;stroke:#6666ff;stroke-opacity:1" />
	</g>
	<g
   id="Group_9052">
		<path
   id="Rectangle_4707"
   class="st1"
   d="M12,60h2v4h-2V60z" />
		<path
   id="Path_19001"
   class="st1"
   d="M92,58c0.6-0.5,0.9-1.2,1-2c0-3.3-6.5-5-13-5s-13,1.7-13,5c0,0.8,0.4,1.5,1,2    c-1.1,0.9-1.3,2.5-0.4,3.6c0.1,0.1,0.2,0.3,0.4,0.4c-0.3,0.3-0.6,0.7-0.8,1.2c-0.4,0-0.8-0.1-1.2-0.1V39h5V23H52.6    c3.9-3.1,4.5-8.8,1.4-12.6S45.2,5.9,41.4,9c-1,0.8-1.8,1.8-2.4,2.9C36.7,7.5,31.3,5.7,26.9,8s-6.2,7.7-3.9,12.1    c0.6,1.1,1.4,2.1,2.4,2.9H7v16h5v17h2V39h50v24c-6.5,0-13,1.7-13,5c0,0.8,0.4,1.5,1,2c-1.1,0.9-1.3,2.5-0.4,3.6    c0.1,0.1,0.2,0.3,0.4,0.4c-0.3,0.3-0.6,0.6-0.7,1H14v-7h-2v9h39.2c0.2,0.4,0.4,0.7,0.7,1c-1.1,0.9-1.3,2.5-0.4,3.6    c0.1,0.1,0.2,0.3,0.4,0.4c-1.1,0.9-1.3,2.5-0.4,3.6c0.1,0.1,0.2,0.3,0.4,0.4c-0.6,0.5-0.9,1.2-1,2c0,3.3,6.5,5,13,5    c5.9,0,11.8-1.4,12.8-4.2c1,0.1,2.1,0.2,3.2,0.2c6.5,0,13-1.7,13-5c0-0.8-0.4-1.5-1-2c1.1-0.9,1.3-2.5,0.4-3.6    c-0.1-0.1-0.2-0.3-0.4-0.4c1.1-0.9,1.3-2.5,0.4-3.6c-0.1-0.1-0.2-0.3-0.4-0.4c1.1-0.9,1.3-2.5,0.4-3.6c-0.1-0.1-0.2-0.3-0.4-0.4    c1.1-0.9,1.3-2.5,0.4-3.6c-0.1-0.1-0.2-0.3-0.4-0.4c1.1-0.9,1.3-2.5,0.4-3.6c-0.1-0.1-0.2-0.3-0.4-0.4c1.1-0.9,1.3-2.5,0.4-3.6    C92.3,58.2,92.2,58.1,92,58z M31,37H9V25h22V37z M24,16c0-3.9,3.1-7,7-7s7,3.1,7,7v7h-7C27.1,23,24,19.9,24,16z M45,37H33V25h12    V37z M40,23v-7c0-3.9,3.1-7,7-7s7,3.1,7,7s-3.1,7-7,7H40z M47,37V25h22v12H47z M51,76c0,0.2,0,0.3,0.1,0.5C51,76.3,51,76.2,51,76z     M64,91c-7.1,0-11-2-11-3c0-0.2,0.2-0.5,0.7-0.8C56.2,88.4,60.1,89,64,89s7.8-0.6,10.3-1.8c0.4,0.3,0.7,0.6,0.7,0.8    C75,89,71.1,91,64,91z M64,87c-7.1,0-11-2-11-3c0-0.2,0.2-0.5,0.7-0.8C56.2,84.4,60.1,85,64,85s7.8-0.6,10.3-1.8    c0.4,0.3,0.7,0.6,0.7,0.8C75,85,71.1,87,64,87z M64,83c-7.1,0-11-2-11-3c0-0.2,0.2-0.5,0.7-0.8C56.2,80.4,60.1,81,64,81    s7.8-0.6,10.3-1.8c0.4,0.3,0.7,0.6,0.7,0.8C75,81,71.1,83,64,83z M64,79c-7.1,0-11-2-11-3c0-0.2,0.2-0.5,0.7-0.8    C56.2,76.4,60.1,77,64,77s7.8-0.6,10.3-1.8c0.4,0.3,0.7,0.6,0.7,0.8C75,77,71.1,79,64,79z M64,75c-7.1,0-11-2-11-3    c0-0.2,0.2-0.5,0.7-0.8C56.2,72.4,60.1,73,64,73s7.8-0.6,10.3-1.8c0.4,0.3,0.7,0.6,0.7,0.8C75,73,71.1,75,64,75z M64,71    c-7.1,0-11-2-11-3s3.9-3,11-3s11,2,11,3S71.1,71,64,71z M80,87c-1.2,0-2.3-0.1-3.3-0.2c-0.2-0.3-0.4-0.6-0.6-0.8    c0.3-0.3,0.6-0.7,0.8-1.2c1,0.1,2.1,0.2,3.2,0.2c3.9,0,7.8-0.6,10.3-1.8c0.4,0.3,0.7,0.6,0.7,0.8C91,85,87.1,87,80,87z M80,83    c-1.2,0-2.3-0.1-3.3-0.2c-0.2-0.3-0.4-0.6-0.6-0.8c0.3-0.3,0.6-0.7,0.8-1.2c1,0.1,2.1,0.2,3.2,0.2c3.9,0,7.8-0.6,10.3-1.8    c0.4,0.3,0.7,0.6,0.7,0.8C91,81,87.1,83,80,83z M80,79c-1.2,0-2.3-0.1-3.3-0.2c-0.2-0.3-0.4-0.6-0.6-0.8c0.3-0.3,0.6-0.7,0.8-1.2    c1,0.1,2.1,0.2,3.2,0.2c3.9,0,7.8-0.6,10.3-1.8c0.4,0.3,0.7,0.6,0.7,0.8C91,77,87.1,79,80,79z M80,75c-1.2,0-2.3-0.1-3.3-0.2    c-0.2-0.3-0.4-0.6-0.6-0.8c0.3-0.3,0.6-0.7,0.8-1.2c1,0.1,2.1,0.2,3.2,0.2c3.9,0,7.8-0.6,10.3-1.8c0.4,0.3,0.7,0.6,0.7,0.8    C91,73,87.1,75,80,75z M80,71c-1.2,0-2.3-0.1-3.3-0.2c-0.2-0.3-0.4-0.6-0.6-0.8c0.3-0.3,0.6-0.7,0.8-1.2c1,0.1,2.1,0.2,3.2,0.2    c3.9,0,7.8-0.6,10.3-1.8c0.4,0.3,0.7,0.6,0.7,0.8C91,69,87.1,71,80,71z M80,67c-1.2,0-2.3-0.1-3.3-0.2c-0.6-1.2-2.2-2.1-4.2-2.7    c2.5,0.6,5,0.9,7.5,0.9c3.9,0,7.8-0.6,10.3-1.8c0.4,0.3,0.7,0.6,0.7,0.8C91,65,87.1,67,80,67z M69.4,63.4c0.1-0.1,0.2-0.2,0.3-0.3    c0.6,0.3,1.2,0.5,1.8,0.7C70.8,63.7,70.1,63.5,69.4,63.4z M80,63c-7.1,0-11-2-11-3c0-0.2,0.2-0.5,0.7-0.8C72.2,60.4,76.1,61,80,61    s7.8-0.6,10.3-1.8c0.4,0.3,0.7,0.6,0.7,0.8C91,61,87.1,63,80,63z M80,59c-7.1,0-11-2-11-3s3.9-3,11-3s11,2,11,3S87.1,59,80,59z" />
	</g>
<g
   id="g894"
   transform="matrix(1.2262522,0,0,1.2262522,753.04777,-283.91083)"><g
     id="g876"><g
       id="g920"
       transform="matrix(0.05112636,0,0,0.05115661,-572.73618,261.76692)"><path
         class="cls-2"
         d="m -226.13759,290.46149 a 293,293 0 0 0 -221.43,0.46 13.74,13.74 0 0 0 -8,12.23 v 12.89 l 0.31,116.64 v 12.9 a 13.79,13.79 0 0 0 8.06,12.19 293.06,293.06 0 0 0 221.44,-0.46 13.75,13.75 0 0 0 8,-12.23 v -12.66 l -0.24,-117.11 v -12.66 a 13.79,13.79 0 0 0 -8.14,-12.19 z"
         id="path8"
         style="fill:#eeeeee;fill-opacity:0.93725491" /><path
         class="cls-3"
         d="m -460.77918,294.25224 c -8.77,0 -15.92,6.19 -16,13.89 -0.32,30.79 1.17,66.16 14.85,98.73 a 146.35,146.35 0 0 0 40.17,54.9 c 20.19,17.28 46.64,31 78.61,40.79 a 30.23,30.23 0 0 0 3.22,0.77 28.34,28.34 0 0 0 4.68,0.4 h 0.29 a 28.21,28.21 0 0 0 4.39,-0.4 28.86,28.86 0 0 0 3.24,-0.78 c 31.92,-9.8 58.34,-23.53 78.51,-40.81 a 146.52,146.52 0 0 0 40.18,-54.91 c 13.69,-32.57 15.22,-67.9 14.92,-98.69 -0.07,-7.69 -7.22,-13.89 -16,-13.89 z"
         id="path10"
         style="fill:#00dd80;fill-opacity:1" /><path
         class="cls-2"
         d="m -332.95109,159.00623 c -1.13,0 -2.26,0 -3.38,-0.05 -1.12,-0.05 -2.25,0 -3.39,0.05 -59.37,2.11 -107,48 -107,104.18 v 84.73 c 0,56.15 47.63,102.07 107,104.18 1.14,0 2.26,0.06 3.39,0.07 1.13,0.01 2.25,0 3.38,-0.07 59.38,-2.11 107,-48 107,-104.18 v -84.73 c -0.01,-56.15 -47.62,-102.07 -107,-104.18 z m -3.38,257.4 c -39.81,-0.61 -72,-31.12 -72,-68.56 v -84.59 c 0,-37.44 32.19,-67.95 72,-68.56 39.8,0.61 72,31.12 72,68.56 v 49.81 a 9.89,9.89 0 0 0 -2.05,0.94 l -24,14.68 -21.23,13 a 23.67,23.67 0 1 0 0,21.33 l 21.23,13 14.42,8.83 c -12.83,18.68 -35.05,31.17 -60.37,31.56 z"
         id="path12"
         style="fill:#eeeeee;fill-opacity:1" /></g></g></g></g>

</svg>
