<?xml version="1.0" encoding="UTF-8" standalone="no"?>
<svg
   xmlns:dc="http://purl.org/dc/elements/1.1/"
   xmlns:cc="http://creativecommons.org/ns#"
   xmlns:rdf="http://www.w3.org/1999/02/22-rdf-syntax-ns#"
   xmlns:svg="http://www.w3.org/2000/svg"
   xmlns="http://www.w3.org/2000/svg"
   xmlns:sodipodi="http://sodipodi.sourceforge.net/DTD/sodipodi-0.dtd"
   xmlns:inkscape="http://www.inkscape.org/namespaces/inkscape"
   version="1.1"
   id="ic_staking_on"
   inkscape:version="1.0.1 (3bc2e813f5, 2020-09-07)"
   sodipodi:docname="img-empty-staking-on.svg"
   x="0px"
   y="0px"
   viewBox="0 0 100 100"
   style="enable-background:new 0 0 100 100;"
   xml:space="preserve"><metadata
   id="metadata36"><rdf:RDF><cc:Work
       rdf:about=""><dc:format>image/svg+xml</dc:format><dc:type
         rdf:resource="http://purl.org/dc/dcmitype/StillImage" /></cc:Work></rdf:RDF></metadata><defs
   id="defs34"><pattern
     id="EMFhbasepattern"
     patternUnits="userSpaceOnUse"
     width="6"
     height="6"
     x="0"
     y="0" /></defs>
<style
   type="text/css"
   id="style2">
	.st0{fill:#2EA1FF;}
	.st1{fill:#666666;}
	.st2{fill:#EFEFEF;}
</style>
<polygon
   class="st0"
   points="76.7,79.8 79.4,79.8 84.3,79.8 88.2,79 90.4,78.2 91.4,79.2 92,80.7 90.1,83 83.5,83.6 78.8,84.1   77.3,83.7 75.7,82.4 "
   id="polygon4"
   style="fill:#019def;fill-opacity:1" />
<path
   class="st0"
   d="M64.6,72l8.7-1l1-0.8l1.4,2.4l-3.5,1.9c0,0-4.8,1.7-5,1.5s-3.7-0.3-3.7-0.3"
   id="path6"
   style="fill:#019def;fill-opacity:1" />

<sodipodi:namedview
   bordercolor="#666666"
   borderopacity="1"
   gridtolerance="10"
   guidetolerance="10"
   id="namedview18"
   inkscape:current-layer="ic_staking_on"
   inkscape:cx="66.447384"
   inkscape:cy="13.247011"
   inkscape:pageopacity="0"
   inkscape:pageshadow="2"
   inkscape:window-height="2066"
   inkscape:window-width="3840"
   inkscape:zoom="5.3913705"
   objecttolerance="10"
   pagecolor="#ffffff"
   showgrid="false"
   inkscape:document-rotation="0"
   inkscape:window-x="3829"
   inkscape:window-y="-11"
   inkscape:window-maximized="1">
	</sodipodi:namedview>
<g
   id="Group_9018">
	<g
   id="Group_9016"
   style="fill:#019def;fill-opacity:1">
		<path
   id="Ellipse_613"
   style="fill:#019def;fill-opacity:1"
   d="M 92,56 A 12,4 0 0 1 80,60 12,4 0 0 1 68,56 12,4 0 0 1 80,52 12,4 0 0 1 92,56 Z"
   class="st0" />
		<path
   id="Ellipse_614"
   style="fill:#019def;fill-opacity:1"
   d="M 76,68 A 12,4 0 0 1 64,72 12,4 0 0 1 52,68 12,4 0 0 1 64,64 12,4 0 0 1 76,68 Z"
   class="st0" />
		<path
   id="Rectangle_4669"
   class="st0"
   d="M32,24h14v14H32V24z"
   style="fill:#019def;fill-opacity:1" />
	</g>
	<g
   id="Group_9017"
   transform="translate(-0.3,-0.2)">
		<path
   id="Rectangle_4670"
   class="st1"
   d="m 12,60 h 2 v 4 h -2 z" />
		<path
   id="Path_18975"
   class="st1"
   d="m 92,58 c 0.6,-0.5 0.9,-1.2 1,-2 0,-3.3 -6.5,-5 -13,-5 -6.5,0 -13,1.7 -13,5 0,0.8 0.4,1.5 1,2 -1.1,0.9 -1.3,2.5 -0.4,3.6 0.1,0.1 0.2,0.3 0.4,0.4 -0.3,0.3 -0.6,0.7 -0.8,1.2 -0.4,0 -0.8,-0.1 -1.2,-0.1 V 39 h 5 V 23 H 52.6 C 56.5,19.9 57.1,14.2 54,10.4 50.9,6.6 45.2,5.9 41.4,9 40.4,9.8 39.6,10.8 39,11.9 36.7,7.5 31.3,5.7 26.9,8 c -4.4,2.3 -6.2,7.7 -3.9,12.1 0.6,1.1 1.4,2.1 2.4,2.9 H 7 v 16 h 5 v 17 h 2 V 39 h 50 v 24 c -6.5,0 -13,1.7 -13,5 0,0.8 0.4,1.5 1,2 -1.1,0.9 -1.3,2.5 -0.4,3.6 0.1,0.1 0.2,0.3 0.4,0.4 -0.3,0.3 -0.6,0.6 -0.7,1 H 14 v -7 h -2 v 9 h 39.2 c 0.2,0.4 0.4,0.7 0.7,1 -1.1,0.9 -1.3,2.5 -0.4,3.6 0.1,0.1 0.2,0.3 0.4,0.4 -1.1,0.9 -1.3,2.5 -0.4,3.6 0.1,0.1 0.2,0.3 0.4,0.4 -0.6,0.5 -0.9,1.2 -1,2 0,3.3 6.5,5 13,5 5.9,0 11.8,-1.4 12.8,-4.2 1,0.1 2.1,0.2 3.2,0.2 6.5,0 13,-1.7 13,-5 0,-0.8 -0.4,-1.5 -1,-2 1.1,-0.9 1.3,-2.5 0.4,-3.6 C 92.2,78.3 92.1,78.1 91.9,78 93,77.1 93.2,75.5 92.3,74.4 92.2,74.3 92.1,74.1 91.9,74 93,73.1 93.2,71.5 92.3,70.4 92.2,70.3 92.1,70.1 91.9,70 93,69.1 93.2,67.5 92.3,66.4 92.2,66.3 92.1,66.1 91.9,66 93,65.1 93.2,63.5 92.3,62.4 92.2,62.3 92.1,62.1 91.9,62 93,61.1 93.2,59.5 92.3,58.4 92.3,58.2 92.2,58.1 92,58 Z M 31,37 H 9 V 25 H 31 Z M 24,16 c 0,-3.9 3.1,-7 7,-7 3.9,0 7,3.1 7,7 v 7 h -7 c -3.9,0 -7,-3.1 -7,-7 z M 45,37 H 33 V 25 H 45 Z M 40,23 v -7 c 0,-3.9 3.1,-7 7,-7 3.9,0 7,3.1 7,7 0,3.9 -3.1,7 -7,7 z m 7,14 V 25 h 22 v 12 z m 4,39 c 0,0.2 0,0.3 0.1,0.5 C 51,76.3 51,76.2 51,76 Z m 13,15 c -7.1,0 -11,-2 -11,-3 0,-0.2 0.2,-0.5 0.7,-0.8 2.5,1.2 6.4,1.8 10.3,1.8 3.9,0 7.8,-0.6 10.3,-1.8 0.4,0.3 0.7,0.6 0.7,0.8 0,1 -3.9,3 -11,3 z m 0,-4 c -7.1,0 -11,-2 -11,-3 0,-0.2 0.2,-0.5 0.7,-0.8 2.5,1.2 6.4,1.8 10.3,1.8 3.9,0 7.8,-0.6 10.3,-1.8 0.4,0.3 0.7,0.6 0.7,0.8 0,1 -3.9,3 -11,3 z m 0,-4 c -7.1,0 -11,-2 -11,-3 0,-0.2 0.2,-0.5 0.7,-0.8 2.5,1.2 6.4,1.8 10.3,1.8 3.9,0 7.8,-0.6 10.3,-1.8 0.4,0.3 0.7,0.6 0.7,0.8 0,1 -3.9,3 -11,3 z m 0,-4 c -7.1,0 -11,-2 -11,-3 0,-0.2 0.2,-0.5 0.7,-0.8 2.5,1.2 6.4,1.8 10.3,1.8 3.9,0 7.8,-0.6 10.3,-1.8 0.4,0.3 0.7,0.6 0.7,0.8 0,1 -3.9,3 -11,3 z m 0,-4 c -7.1,0 -11,-2 -11,-3 0,-0.2 0.2,-0.5 0.7,-0.8 2.5,1.2 6.4,1.8 10.3,1.8 3.9,0 7.8,-0.6 10.3,-1.8 0.4,0.3 0.7,0.6 0.7,0.8 0,0.797609 -2.481104,2.231399 -7.088117,2.779099 C 66.742869,74.918076 65.436974,75 64,75 Z m 0,-4 c -7.1,0 -11,-2 -11,-3 0,-1 3.9,-3 11,-3 7.1,0 11,2 11,3 0,1 -3.9,3 -11,3 z m 16,16 c -1.2,0 -2.3,-0.1 -3.3,-0.2 -0.2,-0.3 -0.4,-0.6 -0.6,-0.8 0.3,-0.3 0.6,-0.7 0.8,-1.2 1,0.1 2.1,0.2 3.2,0.2 3.9,0 7.8,-0.6 10.3,-1.8 0.4,0.3 0.7,0.6 0.7,0.8 -0.1,1 -4,3 -11.1,3 z m 0,-4 c -1.2,0 -2.3,-0.1 -3.3,-0.2 -0.2,-0.3 -0.4,-0.6 -0.6,-0.8 0.3,-0.3 0.6,-0.7 0.8,-1.2 1,0.1 2.1,0.2 3.2,0.2 3.9,0 7.8,-0.6 10.3,-1.8 0.4,0.3 0.7,0.6 0.7,0.8 -0.07096,0.709557 -2.0551,1.922583 -5.738084,2.567358 -0.665985,0.116594 -1.38752,0.214606 -2.163338,0.2877 C 82.218212,82.947424 81.151167,83 80,83 Z m 0,-4 c -1.2,0 -2.3,-0.1 -3.3,-0.2 -0.2,-0.3 -0.4,-0.6 -0.6,-0.8 0.3,-0.3 0.6,-0.7 0.8,-1.2 1,0.1 2.1,0.2 3.2,0.2 3.9,0 7.8,-0.6 10.3,-1.8 0.4,0.3 0.7,0.6 0.7,0.8 -0.1,1 -4,3 -11.1,3 z m 0,-4 c -1.2,0 -2.3,-0.1 -3.3,-0.2 -0.2,-0.3 -0.4,-0.6 -0.6,-0.8 0.3,-0.3 0.6,-0.7 0.8,-1.2 1,0.1 2.1,0.2 3.2,0.2 3.9,0 7.8,-0.6 10.3,-1.8 0.4,0.3 0.7,0.6 0.7,0.8 -0.1,1 -4,3 -11.1,3 z m 0,-4 c -1.2,0 -2.3,-0.1 -3.3,-0.2 -0.2,-0.3 -0.4,-0.6 -0.6,-0.8 0.3,-0.3 0.6,-0.7 0.8,-1.2 1,0.1 2.1,0.2 3.2,0.2 3.9,0 7.8,-0.6 10.3,-1.8 0.4,0.3 0.7,0.6 0.7,0.8 -0.1,1 -4,3 -11.1,3 z m 0,-4 c -1.2,0 -2.3,-0.1 -3.3,-0.2 -0.6,-1.2 -2.2,-2.1 -4.2,-2.7 2.5,0.6 5,0.9 7.5,0.9 3.9,0 7.8,-0.6 10.3,-1.8 0.4,0.3 0.7,0.6 0.7,0.8 0,1 -3.9,3 -11,3 z m -10.6,-3.6 0.3,-0.3 c 0.6,0.3 1.2,0.5 1.8,0.7 -0.7,-0.1 -1.4,-0.3 -2.1,-0.4 z M 80,63 c -7.1,0 -11,-2 -11,-3 0,-0.2 0.2,-0.5 0.7,-0.8 2.5,1.2 6.4,1.8 10.3,1.8 3.9,0 7.8,-0.6 10.3,-1.8 0.4,0.3 0.7,0.6 0.7,0.8 0,1 -3.9,3 -11,3 z m 0,-4 c -7.1,0 -11,-2 -11,-3 0,-1 3.9,-3 11,-3 7.1,0 11,2 11,3 0,1 -3.9,3 -11,3 z"
   sodipodi:nodetypes="ccsscccccccccsccsccccccccccscccccccccccccccscssccccccccccccccccccssscssccccccsssscccccccccsscscsssscscsssscscsssscscsssscscssssssssscccsccsscccsccsssscccsccsscccsccsscccsccssccscssccccsscscsssssss" />
	</g>
</g>

<path
   style="fill:#f2f2f2;fill-opacity:1;fill-rule:nonzero;stroke:none;stroke-width:0.110426"
   d="m 41.046103,66.513333 c -2.907905,-4.821966 -2.907905,-4.821966 -2.907905,-4.821966 -9.091803,0 -9.091803,0 -9.091803,0 1.582783,-2.760673 1.582783,-2.760673 1.582783,-2.760673 5.889428,0 5.889428,0 5.889428,0 -4.269836,-7.177737 -4.269836,-7.177737 -4.269836,-7.177737 -8.760522,14.760376 -8.760522,14.760376 -8.760522,14.760376 -3.828127,0 -3.828127,0 -3.828127,0 11.079484,-18.40446 11.079484,-18.40446 11.079484,-18.40446 0.404898,-0.66256 0.883414,-1.104267 1.619592,-1.104267 0.772988,0 1.214695,0.441707 1.619593,1.104267 11.116293,18.40446 11.116293,18.40446 11.116293,18.40446 z"
   id="path866" /></svg>
