<?xml version="1.0" encoding="UTF-8" standalone="no"?>
<svg
   version="1.1"
   id="ic_staking_on"
   inkscape:version="1.1 (c68e22c387, 2021-05-23)"
   sodipodi:docname="img-empty-staking-on.svg"
   x="0px"
   y="0px"
   viewBox="0 0 100 100"
   style="enable-background:new 0 0 100 100;"
   xml:space="preserve"
   xmlns:inkscape="http://www.inkscape.org/namespaces/inkscape"
   xmlns:sodipodi="http://sodipodi.sourceforge.net/DTD/sodipodi-0.dtd"
   xmlns="http://www.w3.org/2000/svg"
   xmlns:svg="http://www.w3.org/2000/svg"
   xmlns:rdf="http://www.w3.org/1999/02/22-rdf-syntax-ns#"
   xmlns:cc="http://creativecommons.org/ns#"
   xmlns:dc="http://purl.org/dc/elements/1.1/"><metadata
   id="metadata36"><rdf:RDF><cc:Work
       rdf:about=""><dc:format>image/svg+xml</dc:format><dc:type
         rdf:resource="http://purl.org/dc/dcmitype/StillImage" /></cc:Work></rdf:RDF></metadata><defs
   id="defs34"><pattern
     id="EMFhbasepattern"
     patternUnits="userSpaceOnUse"
     width="6"
     height="6"
     x="0"
     y="0" /></defs>
<style
   type="text/css"
   id="style2">
	.st0{fill:#2EA1FF;}
	.st1{fill:#666666;}
	.st2{fill:#EFEFEF;}
</style>
<polygon
   class="st0"
   points="76.7,79.8 79.4,79.8 84.3,79.8 88.2,79 90.4,78.2 91.4,79.2 92,80.7 90.1,83 83.5,83.6 78.8,84.1   77.3,83.7 75.7,82.4 "
   id="polygon4"
   style="fill:#eeb91c;fill-opacity:1" />
<path
   class="st0"
   d="M64.6,72l8.7-1l1-0.8l1.4,2.4l-3.5,1.9c0,0-4.8,1.7-5,1.5s-3.7-0.3-3.7-0.3"
   id="path6"
   style="fill:#eeb91c;fill-opacity:1" />

<sodipodi:namedview
   bordercolor="#666666"
   borderopacity="1"
   gridtolerance="10"
   guidetolerance="10"
   id="namedview18"
   inkscape:current-layer="ic_staking_on"
   inkscape:cx="57.731145"
   inkscape:cy="61.301665"
   inkscape:pageopacity="0"
   inkscape:pageshadow="2"
   inkscape:window-height="2066"
   inkscape:window-width="3840"
   inkscape:zoom="10.782741"
   objecttolerance="10"
   pagecolor="#ffffff"
   showgrid="false"
   inkscape:document-rotation="0"
   inkscape:window-x="3829"
   inkscape:window-y="-11"
   inkscape:window-maximized="1"
   inkscape:pagecheckerboard="0">
	</sodipodi:namedview>
<g
   id="Group_9018">
	<g
   id="Group_9016"
   style="fill:#22252e;fill-opacity:1">
		<path
   id="Ellipse_613"
   style="fill:#22252e;fill-opacity:1"
   d="M 92,56 A 12,4 0 0 1 80,60 12,4 0 0 1 68,56 12,4 0 0 1 80,52 12,4 0 0 1 92,56 Z"
   class="st0" />
		<path
   id="Ellipse_614"
   style="fill:#22252e;fill-opacity:1"
   d="M 76,68 A 12,4 0 0 1 64,72 12,4 0 0 1 52,68 12,4 0 0 1 64,64 12,4 0 0 1 76,68 Z"
   class="st0" />
		<path
   id="Rectangle_4669"
   class="st0"
   d="M32,24h14v14H32V24z"
   style="fill:#22252e;fill-opacity:1" />
	</g>
	<g
   id="Group_9017"
   transform="translate(-0.3,-0.2)">
		<path
   id="Rectangle_4670"
   class="st1"
   d="m 12,60 h 2 v 4 h -2 z" />
		<path
   id="Path_18975"
   class="st1"
   d="m 92,58 c 0.6,-0.5 0.9,-1.2 1,-2 0,-3.3 -6.5,-5 -13,-5 -6.5,0 -13,1.7 -13,5 0,0.8 0.4,1.5 1,2 -1.1,0.9 -1.3,2.5 -0.4,3.6 0.1,0.1 0.2,0.3 0.4,0.4 -0.3,0.3 -0.6,0.7 -0.8,1.2 -0.4,0 -0.8,-0.1 -1.2,-0.1 V 39 h 5 V 23 H 52.6 C 56.5,19.9 57.1,14.2 54,10.4 50.9,6.6 45.2,5.9 41.4,9 40.4,9.8 39.6,10.8 39,11.9 36.7,7.5 31.3,5.7 26.9,8 c -4.4,2.3 -6.2,7.7 -3.9,12.1 0.6,1.1 1.4,2.1 2.4,2.9 H 7 v 16 h 5 v 17 h 2 V 39 h 50 v 24 c -6.5,0 -13,1.7 -13,5 0,0.8 0.4,1.5 1,2 -1.1,0.9 -1.3,2.5 -0.4,3.6 0.1,0.1 0.2,0.3 0.4,0.4 -0.3,0.3 -0.6,0.6 -0.7,1 H 14 v -7 h -2 v 9 h 39.2 c 0.2,0.4 0.4,0.7 0.7,1 -1.1,0.9 -1.3,2.5 -0.4,3.6 0.1,0.1 0.2,0.3 0.4,0.4 -1.1,0.9 -1.3,2.5 -0.4,3.6 0.1,0.1 0.2,0.3 0.4,0.4 -0.6,0.5 -0.9,1.2 -1,2 0,3.3 6.5,5 13,5 5.9,0 11.8,-1.4 12.8,-4.2 1,0.1 2.1,0.2 3.2,0.2 6.5,0 13,-1.7 13,-5 0,-0.8 -0.4,-1.5 -1,-2 1.1,-0.9 1.3,-2.5 0.4,-3.6 C 92.2,78.3 92.1,78.1 91.9,78 93,77.1 93.2,75.5 92.3,74.4 92.2,74.3 92.1,74.1 91.9,74 93,73.1 93.2,71.5 92.3,70.4 92.2,70.3 92.1,70.1 91.9,70 93,69.1 93.2,67.5 92.3,66.4 92.2,66.3 92.1,66.1 91.9,66 93,65.1 93.2,63.5 92.3,62.4 92.2,62.3 92.1,62.1 91.9,62 93,61.1 93.2,59.5 92.3,58.4 92.3,58.2 92.2,58.1 92,58 Z M 31,37 H 9 V 25 H 31 Z M 24,16 c 0,-3.9 3.1,-7 7,-7 3.9,0 7,3.1 7,7 v 7 h -7 c -3.9,0 -7,-3.1 -7,-7 z M 45,37 H 33 V 25 H 45 Z M 40,23 v -7 c 0,-3.9 3.1,-7 7,-7 3.9,0 7,3.1 7,7 0,3.9 -3.1,7 -7,7 z m 7,14 V 25 h 22 v 12 z m 4,39 c 0,0.2 0,0.3 0.1,0.5 C 51,76.3 51,76.2 51,76 Z m 13,15 c -7.1,0 -11,-2 -11,-3 0,-0.2 0.2,-0.5 0.7,-0.8 2.5,1.2 6.4,1.8 10.3,1.8 3.9,0 7.8,-0.6 10.3,-1.8 0.4,0.3 0.7,0.6 0.7,0.8 0,1 -3.9,3 -11,3 z m 0,-4 c -7.1,0 -11,-2 -11,-3 0,-0.2 0.2,-0.5 0.7,-0.8 2.5,1.2 6.4,1.8 10.3,1.8 3.9,0 7.8,-0.6 10.3,-1.8 0.4,0.3 0.7,0.6 0.7,0.8 0,1 -3.9,3 -11,3 z m 0,-4 c -7.1,0 -11,-2 -11,-3 0,-0.2 0.2,-0.5 0.7,-0.8 2.5,1.2 6.4,1.8 10.3,1.8 3.9,0 7.8,-0.6 10.3,-1.8 0.4,0.3 0.7,0.6 0.7,0.8 0,1 -3.9,3 -11,3 z m 0,-4 c -7.1,0 -11,-2 -11,-3 0,-0.2 0.2,-0.5 0.7,-0.8 2.5,1.2 6.4,1.8 10.3,1.8 3.9,0 7.8,-0.6 10.3,-1.8 0.4,0.3 0.7,0.6 0.7,0.8 0,1 -3.9,3 -11,3 z m 0,-4 c -7.1,0 -11,-2 -11,-3 0,-0.2 0.2,-0.5 0.7,-0.8 2.5,1.2 6.4,1.8 10.3,1.8 3.9,0 7.8,-0.6 10.3,-1.8 0.4,0.3 0.7,0.6 0.7,0.8 0,0.61585 -1.479158,1.610971 -4.273972,2.284641 -0.824849,0.198824 -1.764298,0.369648 -2.814145,0.494458 -0.55136,0.06555 -1.13317,0.118404 -1.744819,0.15596 C 65.481871,74.97713 64.759232,75 64,75 Z m 0,-4 c -7.1,0 -11,-2 -11,-3 0,-1 3.9,-3 11,-3 7.1,0 11,2 11,3 0,1 -3.9,3 -11,3 z m 16,16 c -1.2,0 -2.3,-0.1 -3.3,-0.2 -0.2,-0.3 -0.4,-0.6 -0.6,-0.8 0.3,-0.3 0.6,-0.7 0.8,-1.2 1,0.1 2.1,0.2 3.2,0.2 3.9,0 7.8,-0.6 10.3,-1.8 0.4,0.3 0.7,0.6 0.7,0.8 -0.1,1 -4,3 -11.1,3 z m 0,-4 c -1.2,0 -2.3,-0.1 -3.3,-0.2 -0.2,-0.3 -0.4,-0.6 -0.6,-0.8 0.3,-0.3 0.6,-0.7 0.8,-1.2 1,0.1 2.1,0.2 3.2,0.2 3.9,0 7.8,-0.6 10.3,-1.8 0.4,0.3 0.7,0.6 0.7,0.8 -0.07096,0.709557 -2.0551,1.922583 -5.738084,2.567358 -0.665985,0.116594 -1.38752,0.214606 -2.163338,0.2877 C 82.218212,82.947424 81.151167,83 80,83 Z m 0,-4 c -1.2,0 -2.3,-0.1 -3.3,-0.2 -0.2,-0.3 -0.4,-0.6 -0.6,-0.8 0.3,-0.3 0.6,-0.7 0.8,-1.2 1,0.1 2.1,0.2 3.2,0.2 3.9,0 7.8,-0.6 10.3,-1.8 0.4,0.3 0.7,0.6 0.7,0.8 -0.1,1 -4,3 -11.1,3 z m 0,-4 c -1.2,0 -2.3,-0.1 -3.3,-0.2 -0.2,-0.3 -0.4,-0.6 -0.6,-0.8 0.3,-0.3 0.6,-0.7 0.8,-1.2 1,0.1 2.1,0.2 3.2,0.2 3.9,0 7.8,-0.6 10.3,-1.8 0.4,0.3 0.7,0.6 0.7,0.8 -0.1,1 -4,3 -11.1,3 z m 0,-4 c -1.2,0 -2.3,-0.1 -3.3,-0.2 -0.2,-0.3 -0.4,-0.6 -0.6,-0.8 0.3,-0.3 0.6,-0.7 0.8,-1.2 1,0.1 2.1,0.2 3.2,0.2 3.9,0 7.8,-0.6 10.3,-1.8 0.4,0.3 0.7,0.6 0.7,0.8 -0.1,1 -4,3 -11.1,3 z m 0,-4 c -1.2,0 -2.3,-0.1 -3.3,-0.2 -0.6,-1.2 -2.2,-2.1 -4.2,-2.7 2.5,0.6 5,0.9 7.5,0.9 3.9,0 7.8,-0.6 10.3,-1.8 0.4,0.3 0.7,0.6 0.7,0.8 0,1 -3.9,3 -11,3 z m -10.6,-3.6 0.3,-0.3 c 0.6,0.3 1.2,0.5 1.8,0.7 -0.7,-0.1 -1.4,-0.3 -2.1,-0.4 z M 80,63 c -7.1,0 -11,-2 -11,-3 0,-0.2 0.2,-0.5 0.7,-0.8 2.5,1.2 6.4,1.8 10.3,1.8 3.9,0 7.8,-0.6 10.3,-1.8 0.4,0.3 0.7,0.6 0.7,0.8 0,1 -3.9,3 -11,3 z m 0,-4 c -7.1,0 -11,-2 -11,-3 0,-1 3.9,-3 11,-3 7.1,0 11,2 11,3 0,1 -3.9,3 -11,3 z"
   sodipodi:nodetypes="ccsscccccccccsccsccccccccccscccccccccccccccscssccccccccccccccccccssscssccccccsssscccccccccsscscsssscscsssscscsssscscsssscscssssssssssscccsccsscccsccsssscccsccsscccsccsscccsccssccscssccccsscscsssssss"
   inkscape:connector-curvature="0"
   style="fill:#666666" />
	</g>
</g>

<path
   class="cls-1"
   d="m 32.187393,57.950487 q -0.841512,-1.075508 -2.649525,-1.723718 2.276005,-1.308048 2.276005,-3.435805 0,-1.683024 -1.358918,-2.931484 -1.358916,-1.248458 -3.524463,-1.248458 H 24.79692 V 43.93693 c 0,-0.06684 -0.220914,-0.122089 -0.492697,-0.122089 -0.271785,0 -0.488338,0.05377 -0.488338,0.120616 v 4.675549 h -1.453388 v -2.786143 c 0,-0.05959 -0.220915,-0.106092 -0.492699,-0.106092 -0.271782,0 -0.488337,0.0465 -0.488337,0.104656 v 2.787588 h -1.733889 a 0.88656603,0.88656603 0 0 0 -0.592982,0.158428 0.58135477,0.58135477 0 0 0 0,0.841511 0.88656603,0.88656603 0 0 0 0.592982,0.158428 H 21.2056 v 13.824619 h -1.558028 a 0.88656603,0.88656603 0 0 0 -0.592982,0.158429 0.53484638,0.53484638 0 0 0 -0.178771,0.420031 0.54065994,0.54065994 0 0 0 0.178771,0.414213 0.86040507,0.86040507 0 0 0 0.592982,0.165682 h 1.735343 v 3.342787 c 0,0.05817 0.216555,0.104711 0.482524,0.104711 h 0.02036 c 0.264516,0 0.478162,-0.04654 0.478162,-0.103164 v -3.342813 h 1.45339 v 4.605786 c 0,0.06537 0.215101,0.119107 0.481072,0.119107 h 0.0218 c 0.263063,0 0.478164,-0.05234 0.478164,-0.117727 v -4.607244 h 3.511382 a 4.7627488,4.7627488 0 0 0 2.470758,-0.675823 4.5883426,4.5883426 0 0 0 1.690291,-1.635062 4.1741272,4.1741272 0 0 0 0.552285,-2.117584 3.7657254,3.7657254 0 0 0 -0.835699,-2.374834 z M 26.9552,49.769371 q 1.642327,0 2.662605,0.918539 1.020278,0.918542 1.017371,2.00713 a 2.7352741,2.7352741 0 0 1 -0.469442,1.48972 3.0070575,3.0070575 0 0 1 -1.308048,1.117654 5.8760432,5.8760432 0 0 1 -2.400998,0.482526 H 24.79692 v -6.015569 z m -3.142221,0 v 6.015569 h -1.453386 v -6.015569 z m -1.453386,13.824617 v -6.636165 h 1.453386 v 6.636165 z m 9.064772,-1.725172 a 3.5128362,3.5128362 0 0 1 -1.255728,1.228112 3.7090435,3.7090435 0 0 1 -1.946084,0.49706 H 24.79692 v -6.636165 h 1.73389 q 1.917019,0 3.007058,0.427296 a 3.7657254,3.7657254 0 0 1 1.70337,1.255725 2.8370112,2.8370112 0 0 1 0.614783,1.710638 2.9649093,2.9649093 0 0 1 -0.427297,1.517334 z"
   id="path6-2"
   style="fill:#eeb91c;stroke:#eeb91c;stroke-width:0.697704;stroke-miterlimit:4;stroke-dasharray:none;stroke-opacity:1" /></svg>
