<?xml version="1.0" encoding="UTF-8" standalone="no"?>
<svg
   version="1.1"
   id="ic_dark_staking_on"
   inkscape:version="1.1 (c68e22c387, 2021-05-23)"
   sodipodi:docname="img-empty-dark-staking-on.svg"
   x="0px"
   y="0px"
   viewBox="0 0 100 100"
   style="enable-background:new 0 0 100 100;"
   xml:space="preserve"
   xmlns:inkscape="http://www.inkscape.org/namespaces/inkscape"
   xmlns:sodipodi="http://sodipodi.sourceforge.net/DTD/sodipodi-0.dtd"
   xmlns="http://www.w3.org/2000/svg"
   xmlns:svg="http://www.w3.org/2000/svg"
   xmlns:rdf="http://www.w3.org/1999/02/22-rdf-syntax-ns#"
   xmlns:cc="http://creativecommons.org/ns#"
   xmlns:dc="http://purl.org/dc/elements/1.1/"><metadata
   id="metadata30"><rdf:RDF><cc:Work
       rdf:about=""><dc:format>image/svg+xml</dc:format><dc:type
         rdf:resource="http://purl.org/dc/dcmitype/StillImage" /></cc:Work></rdf:RDF></metadata><defs
   id="defs28"><pattern
     id="EMFhbasepattern"
     patternUnits="userSpaceOnUse"
     width="6"
     height="6"
     x="0"
     y="0" /></defs>
<style
   type="text/css"
   id="style2">
	.st0{fill:#2EA1FF;}
	.st1{fill:#A09EA5;}
</style>
<sodipodi:namedview
   bordercolor="#666666"
   borderopacity="1"
   gridtolerance="10"
   guidetolerance="10"
   id="namedview18"
   inkscape:current-layer="Group_9053"
   inkscape:cx="87.865931"
   inkscape:cy="46.375597"
   inkscape:pageopacity="0"
   inkscape:pageshadow="2"
   inkscape:window-height="2066"
   inkscape:window-width="3840"
   inkscape:zoom="7.2667528"
   objecttolerance="10"
   pagecolor="#ffffff"
   showgrid="false"
   inkscape:document-rotation="0"
   inkscape:window-x="3829"
   inkscape:window-y="-11"
   inkscape:window-maximized="1"
   inkscape:pagecheckerboard="0">
	</sodipodi:namedview>
<g
   id="Group_9053">
	<g
   id="Group_9051"
   style="stroke:#6666ff;stroke-opacity:1;fill:#eeb91c;fill-opacity:1">
		<ellipse
   id="Ellipse_640"
   class="st0"
   cx="80"
   cy="56"
   rx="12"
   ry="4"
   style="fill:#eeb91c;fill-opacity:1;stroke:#6666ff;stroke-opacity:1" />
		<ellipse
   id="Ellipse_641"
   class="st0"
   cx="64"
   cy="68"
   rx="12"
   ry="4"
   style="fill:#eeb91c;fill-opacity:1;stroke:#6666ff;stroke-opacity:1" />
		<path
   id="Rectangle_4706"
   class="st0"
   d="M32,24h14v14H32V24z"
   style="fill:#eeb91c;fill-opacity:1;stroke:#6666ff;stroke-opacity:1" />
	</g>
	<g
   id="Group_9052">
		<path
   id="Rectangle_4707"
   class="st1"
   d="M12,60h2v4h-2V60z" />
		<path
   id="Path_19001"
   class="st1"
   d="M92,58c0.6-0.5,0.9-1.2,1-2c0-3.3-6.5-5-13-5s-13,1.7-13,5c0,0.8,0.4,1.5,1,2    c-1.1,0.9-1.3,2.5-0.4,3.6c0.1,0.1,0.2,0.3,0.4,0.4c-0.3,0.3-0.6,0.7-0.8,1.2c-0.4,0-0.8-0.1-1.2-0.1V39h5V23H52.6    c3.9-3.1,4.5-8.8,1.4-12.6S45.2,5.9,41.4,9c-1,0.8-1.8,1.8-2.4,2.9C36.7,7.5,31.3,5.7,26.9,8s-6.2,7.7-3.9,12.1    c0.6,1.1,1.4,2.1,2.4,2.9H7v16h5v17h2V39h50v24c-6.5,0-13,1.7-13,5c0,0.8,0.4,1.5,1,2c-1.1,0.9-1.3,2.5-0.4,3.6    c0.1,0.1,0.2,0.3,0.4,0.4c-0.3,0.3-0.6,0.6-0.7,1H14v-7h-2v9h39.2c0.2,0.4,0.4,0.7,0.7,1c-1.1,0.9-1.3,2.5-0.4,3.6    c0.1,0.1,0.2,0.3,0.4,0.4c-1.1,0.9-1.3,2.5-0.4,3.6c0.1,0.1,0.2,0.3,0.4,0.4c-0.6,0.5-0.9,1.2-1,2c0,3.3,6.5,5,13,5    c5.9,0,11.8-1.4,12.8-4.2c1,0.1,2.1,0.2,3.2,0.2c6.5,0,13-1.7,13-5c0-0.8-0.4-1.5-1-2c1.1-0.9,1.3-2.5,0.4-3.6    c-0.1-0.1-0.2-0.3-0.4-0.4c1.1-0.9,1.3-2.5,0.4-3.6c-0.1-0.1-0.2-0.3-0.4-0.4c1.1-0.9,1.3-2.5,0.4-3.6c-0.1-0.1-0.2-0.3-0.4-0.4    c1.1-0.9,1.3-2.5,0.4-3.6c-0.1-0.1-0.2-0.3-0.4-0.4c1.1-0.9,1.3-2.5,0.4-3.6c-0.1-0.1-0.2-0.3-0.4-0.4c1.1-0.9,1.3-2.5,0.4-3.6    C92.3,58.2,92.2,58.1,92,58z M31,37H9V25h22V37z M24,16c0-3.9,3.1-7,7-7s7,3.1,7,7v7h-7C27.1,23,24,19.9,24,16z M45,37H33V25h12    V37z M40,23v-7c0-3.9,3.1-7,7-7s7,3.1,7,7s-3.1,7-7,7H40z M47,37V25h22v12H47z M51,76c0,0.2,0,0.3,0.1,0.5C51,76.3,51,76.2,51,76z     M64,91c-7.1,0-11-2-11-3c0-0.2,0.2-0.5,0.7-0.8C56.2,88.4,60.1,89,64,89s7.8-0.6,10.3-1.8c0.4,0.3,0.7,0.6,0.7,0.8    C75,89,71.1,91,64,91z M64,87c-7.1,0-11-2-11-3c0-0.2,0.2-0.5,0.7-0.8C56.2,84.4,60.1,85,64,85s7.8-0.6,10.3-1.8    c0.4,0.3,0.7,0.6,0.7,0.8C75,85,71.1,87,64,87z M64,83c-7.1,0-11-2-11-3c0-0.2,0.2-0.5,0.7-0.8C56.2,80.4,60.1,81,64,81    s7.8-0.6,10.3-1.8c0.4,0.3,0.7,0.6,0.7,0.8C75,81,71.1,83,64,83z M64,79c-7.1,0-11-2-11-3c0-0.2,0.2-0.5,0.7-0.8    C56.2,76.4,60.1,77,64,77s7.8-0.6,10.3-1.8c0.4,0.3,0.7,0.6,0.7,0.8C75,77,71.1,79,64,79z M64,75c-7.1,0-11-2-11-3    c0-0.2,0.2-0.5,0.7-0.8C56.2,72.4,60.1,73,64,73s7.8-0.6,10.3-1.8c0.4,0.3,0.7,0.6,0.7,0.8C75,73,71.1,75,64,75z M64,71    c-7.1,0-11-2-11-3s3.9-3,11-3s11,2,11,3S71.1,71,64,71z M80,87c-1.2,0-2.3-0.1-3.3-0.2c-0.2-0.3-0.4-0.6-0.6-0.8    c0.3-0.3,0.6-0.7,0.8-1.2c1,0.1,2.1,0.2,3.2,0.2c3.9,0,7.8-0.6,10.3-1.8c0.4,0.3,0.7,0.6,0.7,0.8C91,85,87.1,87,80,87z M80,83    c-1.2,0-2.3-0.1-3.3-0.2c-0.2-0.3-0.4-0.6-0.6-0.8c0.3-0.3,0.6-0.7,0.8-1.2c1,0.1,2.1,0.2,3.2,0.2c3.9,0,7.8-0.6,10.3-1.8    c0.4,0.3,0.7,0.6,0.7,0.8C91,81,87.1,83,80,83z M80,79c-1.2,0-2.3-0.1-3.3-0.2c-0.2-0.3-0.4-0.6-0.6-0.8c0.3-0.3,0.6-0.7,0.8-1.2    c1,0.1,2.1,0.2,3.2,0.2c3.9,0,7.8-0.6,10.3-1.8c0.4,0.3,0.7,0.6,0.7,0.8C91,77,87.1,79,80,79z M80,75c-1.2,0-2.3-0.1-3.3-0.2    c-0.2-0.3-0.4-0.6-0.6-0.8c0.3-0.3,0.6-0.7,0.8-1.2c1,0.1,2.1,0.2,3.2,0.2c3.9,0,7.8-0.6,10.3-1.8c0.4,0.3,0.7,0.6,0.7,0.8    C91,73,87.1,75,80,75z M80,71c-1.2,0-2.3-0.1-3.3-0.2c-0.2-0.3-0.4-0.6-0.6-0.8c0.3-0.3,0.6-0.7,0.8-1.2c1,0.1,2.1,0.2,3.2,0.2    c3.9,0,7.8-0.6,10.3-1.8c0.4,0.3,0.7,0.6,0.7,0.8C91,69,87.1,71,80,71z M80,67c-1.2,0-2.3-0.1-3.3-0.2c-0.6-1.2-2.2-2.1-4.2-2.7    c2.5,0.6,5,0.9,7.5,0.9c3.9,0,7.8-0.6,10.3-1.8c0.4,0.3,0.7,0.6,0.7,0.8C91,65,87.1,67,80,67z M69.4,63.4c0.1-0.1,0.2-0.2,0.3-0.3    c0.6,0.3,1.2,0.5,1.8,0.7C70.8,63.7,70.1,63.5,69.4,63.4z M80,63c-7.1,0-11-2-11-3c0-0.2,0.2-0.5,0.7-0.8C72.2,60.4,76.1,61,80,61    s7.8-0.6,10.3-1.8c0.4,0.3,0.7,0.6,0.7,0.8C91,61,87.1,63,80,63z M80,59c-7.1,0-11-2-11-3s3.9-3,11-3s11,2,11,3S87.1,59,80,59z" />
	</g>
<path
   class="cls-1"
   d="m 32.791542,58.100487 q -0.793353,-1.013956 -2.497893,-1.625069 2.145749,-1.233188 2.145749,-3.239173 0,-1.586705 -1.281147,-2.763715 -1.281145,-1.177008 -3.322757,-1.177008 h -2.011468 v -4.406593 c 0,-0.06302 -0.208271,-0.115102 -0.464499,-0.115102 -0.256231,0 -0.46039,0.05069 -0.46039,0.113731 v 4.407965 h -1.370211 v -2.626691 c 0,-0.05618 -0.208271,-0.10002 -0.464502,-0.10002 -0.256228,0 -0.460389,0.04384 -0.460389,0.09867 v 2.628054 h -1.634659 a 0.83582766,0.83582766 0 0 0 -0.559045,0.149362 0.54808372,0.54808372 0 0 0 0,0.79335 0.83582766,0.83582766 0 0 0 0.559045,0.149362 h 1.468863 v 13.033433 h -1.468863 a 0.83582766,0.83582766 0 0 0 -0.559045,0.149361 0.50423701,0.50423701 0 0 0 -0.16854,0.395993 0.50971787,0.50971787 0 0 0 0.16854,0.390508 0.81116394,0.81116394 0 0 0 0.559045,0.1562 h 1.63603 v 3.151479 c 0,0.05485 0.204162,0.09872 0.454909,0.09872 h 0.0192 c 0.249378,0 0.450798,-0.04387 0.450798,-0.09726 V 64.51454 h 1.37021 v 4.342197 c 0,0.06163 0.202791,0.11229 0.45354,0.11229 h 0.02055 c 0.248008,0 0.4508,-0.04934 0.4508,-0.110988 v -4.343577 h 3.310424 a 4.4901757,4.4901757 0 0 0 2.329356,-0.637146 4.3257509,4.3257509 0 0 0 1.593555,-1.541487 3.9352411,3.9352411 0 0 0 0.520678,-1.996394 3.5502122,3.5502122 0 0 0 -0.787871,-2.238922 z m -4.932753,-7.712909 q 1.548334,0 2.510223,0.865971 0.961887,0.865974 0.959146,1.892261 a 2.5787338,2.5787338 0 0 1 -0.442576,1.404464 2.834963,2.834963 0 0 1 -1.233189,1.05369 5.5397561,5.5397561 0 0 1 -2.263587,0.454911 h -1.56478 v -5.671297 z m -2.962393,0 v 5.671297 H 23.526188 V 50.387578 Z M 23.526188,63.42101 v -6.256376 h 1.370208 v 6.256376 z m 8.545993,-1.626441 a 3.3117958,3.3117958 0 0 1 -1.183862,1.157827 3.4967742,3.4967742 0 0 1 -1.834709,0.468614 h -3.229584 v -6.256376 h 1.63466 q 1.807308,0 2.834963,0.40284 a 3.5502122,3.5502122 0 0 1 1.605886,1.183861 2.6746484,2.6746484 0 0 1 0.579598,1.612738 2.795227,2.795227 0 0 1 -0.402842,1.430496 z"
   id="path6"
   style="fill:#eeb91c;stroke:#eeb91c;stroke-width:0.657775;stroke-miterlimit:4;stroke-dasharray:none;stroke-opacity:1" /></g>

</svg>
