<?xml version="1.0" encoding="UTF-8" standalone="no"?>
<svg
   xmlns:dc="http://purl.org/dc/elements/1.1/"
   xmlns:cc="http://creativecommons.org/ns#"
   xmlns:rdf="http://www.w3.org/1999/02/22-rdf-syntax-ns#"
   xmlns:svg="http://www.w3.org/2000/svg"
   xmlns="http://www.w3.org/2000/svg"
   xmlns:sodipodi="http://sodipodi.sourceforge.net/DTD/sodipodi-0.dtd"
   xmlns:inkscape="http://www.inkscape.org/namespaces/inkscape"
   version="1.1"
   id="ic_empty_Dark_transactions"
   inkscape:version="1.0.1 (3bc2e813f5, 2020-09-07)"
   sodipodi:docname="img-empty-dark-transactions.svg"
   x="0px"
   y="0px"
   viewBox="0 0 100 100"
   style="enable-background:new 0 0 100 100;"
   xml:space="preserve"><metadata
   id="metadata34"><rdf:RDF><cc:Work
       rdf:about=""><dc:format>image/svg+xml</dc:format><dc:type
         rdf:resource="http://purl.org/dc/dcmitype/StillImage" /></cc:Work></rdf:RDF></metadata><defs
   id="defs32"><pattern
     id="EMFhbasepattern"
     patternUnits="userSpaceOnUse"
     width="6"
     height="6"
     x="0"
     y="0" /></defs>
<style
   type="text/css"
   id="style2">
	.st0{fill:#2EA1FF;}
	.st1{fill:#A09EA5;}
	.st2{fill:#EFEFEF;}
</style>
<sodipodi:namedview
   bordercolor="#666666"
   borderopacity="1"
   gridtolerance="10"
   guidetolerance="10"
   id="namedview22"
   inkscape:current-layer="Group_9036"
   inkscape:cx="47.145526"
   inkscape:cy="29.835175"
   inkscape:pageopacity="0"
   inkscape:pageshadow="2"
   inkscape:window-height="2066"
   inkscape:window-width="3840"
   inkscape:zoom="12.271765"
   objecttolerance="10"
   pagecolor="#ffffff"
   showgrid="false"
   inkscape:document-rotation="0"
   inkscape:window-x="3829"
   inkscape:window-y="-11"
   inkscape:window-maximized="1">
	</sodipodi:namedview>
<g
   id="Group_9036">
	<circle
   class="st0"
   cx="49.900002"
   cy="50"
   id="circle5"
   r="17.9"
   style="fill:#121723;fill-opacity:1" />
	<path
   id="Path_18988"
   class="st0"
   d="M50,26c-13.3,0-24,10.7-24,24s10.7,24,24,24s24-10.7,24-24S63.3,26,50,26z M50,68   c-9.9,0-18-8.1-18-18s8.1-18,18-18s18,8.1,18,18S59.9,68,50,68z"
   style="fill:#121723;fill-opacity:1" />
	<g
   id="Group_9035">
		<g
   id="Group_9034">
			
			<path
   id="Rectangle_4693"
   class="st1"
   d="M83,56h2v4h-2V56z" />
			<path
   id="Rectangle_4694"
   class="st1"
   d="M83,44h2v8h-2V44z" />
			<path
   id="Rectangle_4695"
   class="st1"
   d="M15,48h2v8h-2V48z" />
			<path
   id="Rectangle_4696"
   class="st1"
   d="M15,40h2v4h-2V40z" />
			<path
   id="Path_18991"
   class="st1"
   d="M95.2,71H85v-7h-2v9h7.8L76,90.5L61.2,73H68v-2h-4.5c11.6-7.5,15-22.9,7.5-34.5     c-6.4-9.9-18.9-14-29.9-9.8L24,6.5L4.8,29H15v7h2v-9H9.2L24,9.5L38.8,27H32v2h4.5c-11.6,7.5-15,22.9-7.5,34.5     c6.4,9.9,18.9,14,29.9,9.8L76,93.5L95.2,71z M27,50c0-12.7,10.3-23,23-23s23,10.3,23,23S62.7,73,50,73S27,62.7,27,50z" />
		</g>
	</g>
	
<g
   id="g894"
   transform="translate(639.90992,-228.6018)"><g
     id="g876"><g
       id="g920"
       transform="matrix(0.05112636,0,0,0.05115661,-572.73618,261.76692)"><path
         class="cls-2"
         d="m -226.13759,290.46149 a 293,293 0 0 0 -221.43,0.46 13.74,13.74 0 0 0 -8,12.23 v 12.89 l 0.31,116.64 v 12.9 a 13.79,13.79 0 0 0 8.06,12.19 293.06,293.06 0 0 0 221.44,-0.46 13.75,13.75 0 0 0 8,-12.23 v -12.66 l -0.24,-117.11 v -12.66 a 13.79,13.79 0 0 0 -8.14,-12.19 z"
         id="path8"
         style="fill:#f2f2f2;fill-opacity:1" /><path
         class="cls-3"
         d="m -460.77918,294.25224 c -8.77,0 -15.92,6.19 -16,13.89 -0.32,30.79 1.17,66.16 14.85,98.73 a 146.35,146.35 0 0 0 40.17,54.9 c 20.19,17.28 46.64,31 78.61,40.79 a 30.23,30.23 0 0 0 3.22,0.77 28.34,28.34 0 0 0 4.68,0.4 h 0.29 a 28.21,28.21 0 0 0 4.39,-0.4 28.86,28.86 0 0 0 3.24,-0.78 c 31.92,-9.8 58.34,-23.53 78.51,-40.81 a 146.52,146.52 0 0 0 40.18,-54.91 c 13.69,-32.57 15.22,-67.9 14.92,-98.69 -0.07,-7.69 -7.22,-13.89 -16,-13.89 z"
         id="path10"
         style="fill:#00dd80;fill-opacity:1" /><path
         class="cls-2"
         d="m -332.95109,159.00623 c -1.13,0 -2.26,0 -3.38,-0.05 -1.12,-0.05 -2.25,0 -3.39,0.05 -59.37,2.11 -107,48 -107,104.18 v 84.73 c 0,56.15 47.63,102.07 107,104.18 1.14,0 2.26,0.06 3.39,0.07 1.13,0.01 2.25,0 3.38,-0.07 59.38,-2.11 107,-48 107,-104.18 v -84.73 c -0.01,-56.15 -47.62,-102.07 -107,-104.18 z m -3.38,257.4 c -39.81,-0.61 -72,-31.12 -72,-68.56 v -84.59 c 0,-37.44 32.19,-67.95 72,-68.56 39.8,0.61 72,31.12 72,68.56 v 49.81 a 9.89,9.89 0 0 0 -2.05,0.94 l -24,14.68 -21.23,13 a 23.67,23.67 0 1 0 0,21.33 l 21.23,13 14.42,8.83 c -12.83,18.68 -35.05,31.17 -60.37,31.56 z"
         id="path12"
         style="fill:#f2f2f2" /></g></g></g></g>
</svg>
