<?xml version="1.0" encoding="UTF-8" standalone="no"?>
<svg
   xmlns:dc="http://purl.org/dc/elements/1.1/"
   xmlns:cc="http://creativecommons.org/ns#"
   xmlns:rdf="http://www.w3.org/1999/02/22-rdf-syntax-ns#"
   xmlns:svg="http://www.w3.org/2000/svg"
   xmlns="http://www.w3.org/2000/svg"
   viewBox="0 0 128 128"
   version="1.1"
   id="svg38">
  <metadata
     id="metadata42">
    <rdf:RDF>
      <cc:Work
         rdf:about="">
        <dc:format>image/svg+xml</dc:format>
        <dc:type
           rdf:resource="http://purl.org/dc/dcmitype/StillImage" />
        <dc:title></dc:title>
      </cc:Work>
    </rdf:RDF>
  </metadata>
  <defs
     id="defs4">
    <style
       id="style2">.cls-1{fill:none;}.cls-2{fill:#ed1c24;}.cls-3{fill:#fff;}.cls-4{font-size:24.1px;fill:#333;font-family:Nunito-Regular, Nunito;letter-spacing:0.2em;}</style>
  </defs>
  <g
     id="Layer_2"
     data-name="Layer 2">
    <g
       id="Layer_1-2"
       data-name="Layer 1">
      <g
         id="Layer_2-2"
         data-name="Layer 2">
        <g
           id="Logo">
          <rect
             class="cls-1"
             width="128"
             height="128"
             id="rect6" />
          <path
             class="cls-2"
             d="M18,79.29a15.37,15.37,0,0,1-1.65,7.39,11.36,11.36,0,0,1-4.51,4.65,14.35,14.35,0,0,1-6.55,1.75V88.45A8.41,8.41,0,0,0,10.94,86q2.24-2.24,2.24-6.87v-29H18Z"
             id="path8" />
          <path
             class="cls-2"
             d="M24.43,76.94a5.83,5.83,0,0,1,6.12-6.08,5.73,5.73,0,0,1,6,6v5.57h-2.5V80.26a4.11,4.11,0,0,1-4,2.52A5.55,5.55,0,0,1,24.43,76.94Zm9.41-.12a3.33,3.33,0,1,0-3.32,3.41A3.21,3.21,0,0,0,33.84,76.82Z"
             id="path10" />
          <path
             class="cls-2"
             d="M42.94,76.82a5.82,5.82,0,0,1,6.1-6A5.68,5.68,0,0,1,54.9,75.4H52.15a3.41,3.41,0,1,0,0,2.84H54.9A5.68,5.68,0,0,1,49,82.78,5.82,5.82,0,0,1,42.94,76.82Z"
             id="path12" />
          <path
             class="cls-2"
             d="M61.66,66.21h2.73v9.9l4.49-5h3.48L67,76.71l5.53,5.77H69l-4.62-5.11v5.11H61.66Z"
             id="path14" />
          <path
             class="cls-2"
             d="M78.59,76.91a5.73,5.73,0,0,1,6-6,5.83,5.83,0,0,1,6.12,6.08,5.56,5.56,0,0,1-5.64,5.84,4.3,4.3,0,0,1-3.78-2v6.49H78.59Zm9.4-.09a3.34,3.34,0,1,0-3.35,3.41A3.23,3.23,0,0,0,88,76.82Z"
             id="path16" />
          <path
             class="cls-2"
             d="M96.65,76.82a6.1,6.1,0,1,1,6.09,6A5.81,5.81,0,0,1,96.65,76.82Zm9.41,0a3.33,3.33,0,1,0-3.32,3.41A3.21,3.21,0,0,0,106.06,76.82Z"
             id="path18" />
          <path
             class="cls-2"
             d="M115.21,78.13v-11h2.72v4h5.85v2.48h-5.85v4.49c0,1.51.78,2.1,1.9,2.1s1.91-.57,1.91-2.1v-.3h2.72v.3c0,3.14-1.88,4.65-4.63,4.65S115.21,81.27,115.21,78.13Z"
             id="path20" />
          <circle
             class="cls-3"
             cx="42.72"
             cy="46.09"
             r="15.19"
             id="circle22" />
          <circle
             class="cls-3"
             cx="95.46"
             cy="46.09"
             r="15.19"
             id="circle24" />
          <circle
             class="cls-3"
             cx="68.68"
             cy="46.09"
             r="15.19"
             id="circle26" />
          <text
             class="cls-4"
             id="text28"
             x="36.158607"
             y="54.880756"
             style="font-size:24.0924px;font-family:Nunito-Regular, Nunito;letter-spacing:0.2em;fill:#333333;stroke-width:0.999683"
             transform="scale(0.99100761,1.009074)">7</text>
          <text
             class="cls-4"
             transform="scale(0.9910076,1.009074)"
             id="text30"
             x="63.159412"
             y="54.880756"
             style="font-size:24.0924px;font-family:Nunito-Regular, Nunito;letter-spacing:0.2em;fill:#333333;stroke-width:0.999683">7</text>
          <text
             class="cls-4"
             transform="scale(0.9910076,1.009074)"
             id="text32"
             x="90.252037"
             y="54.880756"
             style="font-size:24.0924px;font-family:Nunito-Regular, Nunito;letter-spacing:0.2em;fill:#333333;stroke-width:0.999683">7</text>
        </g>
      </g>
    </g>
  </g>
</svg>
