<?xml version="1.0" encoding="UTF-8" standalone="no"?>
<svg
   xmlns:dc="http://purl.org/dc/elements/1.1/"
   xmlns:cc="http://creativecommons.org/ns#"
   xmlns:rdf="http://www.w3.org/1999/02/22-rdf-syntax-ns#"
   xmlns:svg="http://www.w3.org/2000/svg"
   xmlns="http://www.w3.org/2000/svg"
   version="1.1"
   viewBox="0 0 100 100"
   height="100"
   width="100"
   id="ic_empty_zpiv">
  <metadata
     id="metadata23">
    <rdf:RDF>
      <cc:Work
         rdf:about="">
        <dc:format>image/svg+xml</dc:format>
        <dc:type
           rdf:resource="http://purl.org/dc/dcmitype/StillImage" />
        <dc:title></dc:title>
      </cc:Work>
    </rdf:RDF>
  </metadata>
  <defs
     id="defs4">
    <style
       id="style2"
       type="text/css">
            .cls-1{fill:#d6d6d6}.cls-2{fill:#666}.cls-3{fill:none}
        </style>
  </defs>
  <path
     id="Path_19031"
     d="M 50,26 A 24,24 0 1 0 74,50 24,24 0 0 0 50,26 Z m 0,42 A 18,18 0 1 1 68,50 18,18 0 0 1 50,68 Z"
     class="cls-1"
     data-name="Path 19031"
     style="fill:#d6d6d6" />
  <g
     data-name="Group 9083"
     id="Group_9083">
    <path
       style="fill:#666666"
       data-name="Path 19032"
       class="cls-2"
       d="M 50,31 A 19,19 0 1 0 69,50 19.021,19.021 0 0 0 50,31 Z m 0,36 A 17,17 0 1 1 67,50 17.019,17.019 0 0 1 50,67 Z"
       id="Path_19032" />
    <path
       style="fill:#666666"
       transform="translate(83,56)"
       data-name="Rectangle 4749"
       class="cls-2"
       d="M 0,0 H 2 V 4 H 0 Z"
       id="Rectangle_4749" />
    <path
       style="fill:#666666"
       transform="translate(83,44)"
       data-name="Rectangle 4750"
       class="cls-2"
       d="M 0,0 H 2 V 8 H 0 Z"
       id="Rectangle_4750" />
    <path
       style="fill:#666666"
       transform="translate(15,48)"
       data-name="Rectangle 4751"
       class="cls-2"
       d="M 0,0 H 2 V 8 H 0 Z"
       id="Rectangle_4751" />
    <path
       style="fill:#666666"
       transform="translate(15,40)"
       data-name="Rectangle 4752"
       class="cls-2"
       d="M 0,0 H 2 V 4 H 0 Z"
       id="Rectangle_4752" />
    <path
       style="fill:#666666"
       data-name="Path 19033"
       class="cls-2"
       d="M 95.162,71 H 85 v -7 h -2 v 9 h 7.838 L 76,90.456 61.162,73 H 68 V 71 H 63.539 A 24.989,24.989 0 0 0 41.139,26.626 L 24,6.456 4.838,29 H 15 v 7 h 2 V 27 H 9.162 L 24,9.544 38.838,27 H 32 v 2 h 4.461 a 24.989,24.989 0 0 0 22.4,44.374 L 76,93.544 Z M 27,50 A 23,23 0 1 1 50,73 23.026,23.026 0 0 1 27,50 Z"
       id="Path_19033" />
  </g>
  <path
     data-name="Rectangle 4753"
     class="cls-3"
     d="M0 0h100v100H0z"
     id="Rectangle_4753" />
</svg>
