<?xml version="1.0" encoding="UTF-8" standalone="no"?>
<svg
   xmlns:dc="http://purl.org/dc/elements/1.1/"
   xmlns:cc="http://creativecommons.org/ns#"
   xmlns:rdf="http://www.w3.org/1999/02/22-rdf-syntax-ns#"
   xmlns:svg="http://www.w3.org/2000/svg"
   xmlns="http://www.w3.org/2000/svg"
   id="Layer_1"
   data-name="Layer 1"
   viewBox="0 0 100 100"
   version="1.1">
  <metadata
     id="metadata21">
    <rdf:RDF>
      <cc:Work
         rdf:about="">
        <dc:format>image/svg+xml</dc:format>
        <dc:type
           rdf:resource="http://purl.org/dc/dcmitype/StillImage" />
        <dc:title></dc:title>
      </cc:Work>
    </rdf:RDF>
  </metadata>
  <defs
     id="defs4">
    <style
       id="style2">.cls-1{fill:#eaeaea;}.cls-2{fill:none;}</style>
  </defs>
  <g
     id="Group_9047"
     data-name="Group 9047"
     style="fill:#eeeeee;fill-opacity:1">
    <g
       id="Group_9045"
       data-name="Group 9045"
       style="fill:#1a1a1a;fill-opacity:1;stroke:#000000;stroke-opacity:1">
      <circle
         id="Ellipse_630"
         data-name="Ellipse 630"
         class="cls-1"
         cx="13.25"
         cy="13.16"
         r="8.4"
         style="fill:#1a1a1a;fill-opacity:1;stroke:#000000;stroke-opacity:1" />
      <circle
         id="Ellipse_631"
         data-name="Ellipse 631"
         class="cls-1"
         cx="86.2"
         cy="87.8"
         r="8.4"
         style="fill:#1a1a1a;fill-opacity:1;stroke:#000000;stroke-opacity:1" />
      <path
         id="Ellipse_632"
         data-name="Ellipse 632"
         class="cls-1"
         d="M37.28,78.28a8.4,8.4,0,0,0-8.4,8.4h0a8.4,8.4,0,0,0,8.4,8.4h0a8.4,8.4,0,0,0,8.4-8.4h0a8.4,8.4,0,0,0-8.4-8.4Z"
         transform="translate(0 0)"
         style="fill:#1a1a1a;fill-opacity:1;stroke:#000000;stroke-opacity:1" />
      <path
         class="cls-1"
         d="M86.5,28.16a10,10,0,0,0-8.39,15.49L67.28,54.47a10,10,0,0,0-11.09.11L45.25,43.64a9.91,9.91,0,0,0,1.63-5.46,10,10,0,0,0-20,0,9.91,9.91,0,0,0,1.63,5.46L17.65,54.47a10.07,10.07,0,1,0,2.92,2.93L31.4,46.57a10,10,0,0,0,10.92,0l11,11a10,10,0,1,0,16.89-.17L81,46.57A9.91,9.91,0,0,0,86.5,48.2a10,10,0,0,0,0-20ZM12.18,68.74a5.88,5.88,0,1,1,5.88-5.88A5.88,5.88,0,0,1,12.18,68.74ZM36.86,44.06a5.88,5.88,0,1,1,5.88-5.88A5.89,5.89,0,0,1,36.86,44.06Zm25,24.68a5.88,5.88,0,1,1,5.88-5.88A5.89,5.89,0,0,1,61.82,68.74ZM86.5,44.06a5.88,5.88,0,1,1,5.87-5.88A5.89,5.89,0,0,1,86.5,44.06Z"
         transform="translate(0 0)"
         id="path9"
         style="fill:#1a1a1a;fill-opacity:1;stroke:#000000;stroke-opacity:1" />
      <path
         class="cls-1"
         d="M34.74,53.6a2.07,2.07,0,0,0-2.93,0L27.6,57.81a2.07,2.07,0,0,0,0,2.93,2.11,2.11,0,0,0,1.47.61,2.07,2.07,0,0,0,1.46-.61l4.21-4.21A2.07,2.07,0,0,0,34.74,53.6Z"
         transform="translate(0 0)"
         id="path11"
         style="fill:#1a1a1a;fill-opacity:1;stroke:#000000;stroke-opacity:1" />
      <path
         class="cls-1"
         d="M71.08,40.37a2.09,2.09,0,0,0-2.93,0l-4.21,4.22a2.06,2.06,0,0,0,0,2.92,2,2,0,0,0,1.46.61,2.07,2.07,0,0,0,1.47-.61l4.21-4.21A2.07,2.07,0,0,0,71.08,40.37Z"
         transform="translate(0 0)"
         id="path13"
         style="fill:#1a1a1a;fill-opacity:1;stroke:#000000;stroke-opacity:1" />
    </g>
  </g>
  <path
     id="Rectangle_4704"
     data-name="Rectangle 4704"
     class="cls-2"
     d="M0,0H100V100H0Z"
     transform="translate(0 0)" />
</svg>
