<?xml version="1.0" encoding="UTF-8" standalone="no"?>
<svg
   xmlns:dc="http://purl.org/dc/elements/1.1/"
   xmlns:cc="http://creativecommons.org/ns#"
   xmlns:rdf="http://www.w3.org/1999/02/22-rdf-syntax-ns#"
   xmlns:svg="http://www.w3.org/2000/svg"
   xmlns="http://www.w3.org/2000/svg"
   xmlns:sodipodi="http://sodipodi.sourceforge.net/DTD/sodipodi-0.dtd"
   xmlns:inkscape="http://www.inkscape.org/namespaces/inkscape"
   id="Layer_1"
   data-name="Layer 1"
   viewBox="0 0 98.45 82.24"
   version="1.1"
   sodipodi:docname="img-empty-dark-contacts.svg"
   inkscape:version="1.0.2 (e86c870879, 2021-01-15, custom)">
  <metadata
     id="metadata15">
    <rdf:RDF>
      <cc:Work
         rdf:about="">
        <dc:format>image/svg+xml</dc:format>
        <dc:type
           rdf:resource="http://purl.org/dc/dcmitype/StillImage" />
        <dc:title></dc:title>
      </cc:Work>
    </rdf:RDF>
  </metadata>
  <sodipodi:namedview
     pagecolor="#ffffff"
     bordercolor="#666666"
     borderopacity="1"
     objecttolerance="10"
     gridtolerance="10"
     guidetolerance="10"
     inkscape:pageopacity="0"
     inkscape:pageshadow="2"
     inkscape:window-width="3840"
     inkscape:window-height="2126"
     id="namedview13"
     showgrid="false"
     inkscape:zoom="8.937257"
     inkscape:cx="49.224998"
     inkscape:cy="41.119999"
     inkscape:window-x="-11"
     inkscape:window-y="-11"
     inkscape:window-maximized="1"
     inkscape:current-layer="Layer_1" />
  <defs
     id="defs4">
    <style
       id="style2">.cls-1{opacity:0.19;}.cls-2{fill:#eaeaea;}</style>
  </defs>
  <g
     class="cls-1"
     id="g10"
     transform="matrix(0.76573471,0,0,0.70042529,11.524573,12.317014)"
     style="fill:#4d4d4d">
    <path
       class="cls-2"
       d="M 52.87,57.74 A 11.29,11.29 0 0 0 44.08,53 h -0.22 a 8.71,8.71 0 0 1 -8.63,-7.68 16.38,16.38 0 0 0 3.51,-3.54 22.23,22.23 0 0 0 4,-10.32 2.39,2.39 0 0 0 0.38,-0.59 17.38,17.38 0 0 0 1.35,-6.78 c 0,-9.08 -6.86,-16.47 -15.3,-16.47 a 14.21,14.21 0 0 0 -6.3,1.48 10.7,10.7 0 0 0 -2.19,0.4 c -7,2 -11,10.57 -8.89,19 a 20,20 0 0 0 0.83,2.5 2.05,2.05 0 0 0 0.37,0.58 c 0.81,6 3.63,10.93 7.49,13.74 A 8.69,8.69 0 0 1 11.85,53 h -0.2 A 11.28,11.28 0 0 0 0.78,64.24 v 12.14 a 2,2 0 0 0 2.05,2.06 h 36.23 a 2.06,2.06 0 0 0 0,-4.11 H 4.88 V 64.24 a 7.18,7.18 0 0 1 7.18,-7.17 h 0.2 a 12.73,12.73 0 0 0 4.2,-0.86 l 9.71,14 a 2.05,2.05 0 0 0 3.37,0 l 9.71,-14 a 12.79,12.79 0 0 0 4.21,0.86 h 0.2 a 7.16,7.16 0 0 1 5.86,3 2.07,2.07 0 0 0 2.86,0.49 2,2 0 0 0 0.49,-2.82 z m -31,-44.33 a 7.28,7.28 0 0 1 1.69,-0.28 2,2 0 0 0 0.86,-0.23 10.27,10.27 0 0 1 4.8,-1.21 c 6,0 11,5.33 11.19,12 A 7.3,7.3 0 0 0 35.98,22.2 H 25.21 a 2.4,2.4 0 0 1 -1.46,-0.49 2.32,2.32 0 0 1 -0.81,-1.05 2.41,2.41 0 0 0 -4.57,0.3 14.14,14.14 0 0 1 -2.82,5.47 C 14.48,20.44 17.16,14.76 21.83,13.41 Z M 17,30.78 A 18.47,18.47 0 0 0 21.27,25 v 0 a 6.52,6.52 0 0 0 3.92,1.3 h 10.75 a 3.25,3.25 0 0 1 2.93,1.84 19.1,19.1 0 0 1 -3.43,11.22 c -2.07,2.8 -4.76,4.34 -7.58,4.34 A 9.36,9.36 0 0 1 20.7,39.9 17.83,17.83 0 0 1 17,30.78 Z M 27.86,65.45 20,54.12 a 12.84,12.84 0 0 0 4.29,-6.9 11.77,11.77 0 0 0 3.56,0.55 11.92,11.92 0 0 0 3.56,-0.55 12.74,12.74 0 0 0 4.29,6.9 z"
       transform="translate(-0.78,-7.59)"
       id="path6"
       style="fill:#4d4d4d" />
    <path
       class="cls-2"
       d="m 88.35,64.38 h -0.2 a 8.69,8.69 0 0 1 -8.63,-7.7 18.3,18.3 0 0 0 6,-7.9 2,2 0 0 0 1.35,1.35 1.81,1.81 0 0 0 0.61,0.1 A 2.05,2.05 0 0 0 89,49.43 20.78,20.78 0 0 0 93.23,36 20.86,20.86 0 0 0 88.37,23 15.12,15.12 0 0 0 77,17.41 c -0.23,0 -0.79,0 -0.88,0 A 15.35,15.35 0 0 0 69.25,16 16.72,16.72 0 0 0 56.48,23 24,24 0 0 0 51.79,38.35 24.69,24.69 0 0 0 52,41 a 25,25 0 0 0 2,7 2.05,2.05 0 0 0 3.61,0.22 c 0.17,-0.27 0.38,-0.61 0.62,-0.94 a 20.28,20.28 0 0 0 4.08,7.24 15.17,15.17 0 0 0 2.44,2.2 8.71,8.71 0 0 1 -8.63,7.69 h -0.2 A 11.28,11.28 0 0 0 45.06,75.65 v 12.14 a 2.05,2.05 0 0 0 2,2 h 50.11 a 2,2 0 0 0 2,-2 V 75.65 A 11.28,11.28 0 0 0 88.35,64.38 Z M 56.56,42.87 a 24.08,24.08 0 0 1 -0.48,-2.42 22.38,22.38 0 0 1 -0.19,-2.27 19.88,19.88 0 0 1 3.85,-12.73 12.69,12.69 0 0 1 9.64,-5.31 11.81,11.81 0 0 1 5.46,1.21 2.1,2.1 0 0 0 1,0.21 h 1.12 a 11.12,11.12 0 0 1 8.31,4.13 16.8,16.8 0 0 1 3.87,10.45 17.94,17.94 0 0 1 -0.87,6.2 c -0.2,-0.52 -0.41,-1 -0.65,-1.53 a 18.36,18.36 0 0 0 -9.39,-9.19 2.09,2.09 0 0 0 -1.61,0 2.12,2.12 0 0 0 -1.11,1.17 14.8,14.8 0 0 1 -1,2.14 6.13,6.13 0 0 1 -5.65,3 9.91,9.91 0 0 0 -1.09,0 16,16 0 0 0 -5.14,1 18.28,18.28 0 0 0 -6.07,3.94 z m 5,1.12 a 11.86,11.86 0 0 1 6.32,-2 h 0.81 a 10.21,10.21 0 0 0 9.37,-5.08 L 78.39,36.3 A 14.25,14.25 0 0 1 83.1,41 v 0.18 a 18.22,18.22 0 0 1 -3.78,10.06 9.36,9.36 0 0 1 -7.16,3.8 C 67.31,55.07 63,50.48 61.6,44 Z m 7,14.63 a 11.8,11.8 0 0 0 7.12,0 12.85,12.85 0 0 0 6.12,8.17 10,10 0 0 1 -19.35,0 12.84,12.84 0 0 0 6.13,-8.17 z m 26.56,27.12 h -46 V 75.65 a 7.19,7.19 0 0 1 7.18,-7.18 h 0.21 a 13,13 0 0 0 2.07,-0.23 14.14,14.14 0 0 0 27.05,0 12.86,12.86 0 0 0 2.07,0.23 h 0.2 a 7.19,7.19 0 0 1 7.18,7.18 z"
       transform="translate(-0.78,-7.59)"
       id="path8"
       style="fill:#4d4d4d" />
  </g>
</svg>
