<?xml version="1.0" encoding="utf-8"?>
<!-- Generator: Adobe Illustrator 25.2.0, SVG Export Plug-In . SVG Version: 6.00 Build 0)  -->
<svg version="1.1"
	 id="ic_empty_transactions" inkscape:version="0.92.4 (5da689c313, 2019-01-14)" sodipodi:docname="img-empty-transactions.svg" xmlns:cc="http://creativecommons.org/ns#" xmlns:dc="http://purl.org/dc/elements/1.1/" xmlns:inkscape="http://www.inkscape.org/namespaces/inkscape" xmlns:rdf="http://www.w3.org/1999/02/22-rdf-syntax-ns#" xmlns:sodipodi="http://sodipodi.sourceforge.net/DTD/sodipodi-0.dtd" xmlns:svg="http://www.w3.org/2000/svg"
	 xmlns="http://www.w3.org/2000/svg" xmlns:xlink="http://www.w3.org/1999/xlink" x="0px" y="0px" viewBox="0 0 100 100"
	 style="enable-background:new 0 0 100 100;" xml:space="preserve">
<style type="text/css">
	.st0{fill:#810890;}
	.st1{fill:#666666;}
	.st2{fill:#EFEFEF;}
</style>
<circle class="st0" cx="50" cy="50" r="18"/>
<sodipodi:namedview  bordercolor="#666666" borderopacity="1" gridtolerance="10" guidetolerance="10" id="namedview22" inkscape:current-layer="Group_9015" inkscape:cx="36.132254" inkscape:cy="46.258435" inkscape:pageopacity="0" inkscape:pageshadow="2" inkscape:window-height="480" inkscape:window-width="640" inkscape:zoom="5.9900398" objecttolerance="10" pagecolor="#ffffff" showgrid="false">
	</sodipodi:namedview>
<g id="Group_9015">
	<path id="Path_18970" class="st0" d="M50,26c-13.3,0-24,10.7-24,24s10.7,24,24,24s24-10.7,24-24S63.3,26,50,26z M50,68
		c-9.9,0-18-8.1-18-18s8.1-18,18-18s18,8.1,18,18S59.9,68,50,68z"/>
	<g id="Group_9014">
		<g id="Group_9013">
			<path id="Path_18972" class="st0" d="M50,31c-10.5,0-19,8.5-19,19s8.5,19,19,19s19-8.5,19-19S60.5,31,50,31z M50,67
				c-9.4,0-17-7.6-17-17s7.6-17,17-17s17,7.6,17,17S59.4,67,50,67z"/>
			<path id="Rectangle_4664" class="st1" d="M83,56h2v4h-2V56z"/>
			<path id="Rectangle_4665" class="st1" d="M83,44h2v8h-2V44z"/>
			<path id="Rectangle_4666" class="st1" d="M15,48h2v8h-2V48z"/>
			<path id="Rectangle_4667" class="st1" d="M15,40h2v4h-2V40z"/>
			<path id="Path_18973" class="st1" d="M95.2,71H85v-7h-2v9h7.8L76,90.5L61.2,73H68v-2h-4.5c11.6-7.5,15-22.9,7.5-34.5
				c-6.4-9.9-18.9-14-29.9-9.8L24,6.5L4.8,29H15v7h2v-9H9.2L24,9.5L38.8,27H32v2h4.5c-11.6,7.5-15,22.9-7.5,34.5
				c6.4,9.9,18.9,14,29.9,9.8L76,93.5L95.2,71z M27,50c0-12.7,10.3-23,23-23s23,10.3,23,23S62.7,73,50,73S27,62.7,27,50z"/>
		</g>
	</g>
</g>
<g>
	<path class="st2" d="M42.6,41.7l-3-0.1l-7.3,7.5L48.9,64c0,0,0,0,0,0L37.6,49.3"/>
	<path class="st2" d="M59.3,42.5l2.9,0.2l6.7,7.4L51.4,62.4c0,0,0,0,0,0l12.2-12.5"/>
	<path class="st2" d="M42.1,50.6L40,48.3l-0.2-11L61,40.3c0,0,0,0,0,0l-17.5,1.1"/>
	<g>
		<path class="st2" d="M51.7,45.3h-3.4l-0.3,2l3.1,0c1.5,0,2,0.7,2,1.8c0,0.6-0.2,1.6-0.3,1.9c-0.2,0.8-0.7,1.8-2.5,1.8l-3,0l-0.3,2
			h3.4c1.2,0,1.7-0.2,2.3-0.5c1.2-0.7,1.9-2.1,2.2-4.1C55.3,47.3,54.8,45.3,51.7,45.3"/>
		<path class="st2" d="M46.9,49.2c-0.9,0-1,0.7-1.1,1.2c-0.1,0.6-0.1,0.8-0.1,0.8h3.5c0.9,0,1-0.7,1.1-1.2c0.1-0.6,0.1-0.8,0.1-0.8
			H46.9z"/>
	</g>
</g>
</svg>
