<?xml version="1.0" encoding="UTF-8" standalone="no"?>
<svg
   xmlns:dc="http://purl.org/dc/elements/1.1/"
   xmlns:cc="http://creativecommons.org/ns#"
   xmlns:rdf="http://www.w3.org/1999/02/22-rdf-syntax-ns#"
   xmlns:svg="http://www.w3.org/2000/svg"
   xmlns="http://www.w3.org/2000/svg"
   xmlns:sodipodi="http://sodipodi.sourceforge.net/DTD/sodipodi-0.dtd"
   xmlns:inkscape="http://www.inkscape.org/namespaces/inkscape"
   version="1.1"
   id="ic_staking_on"
   inkscape:version="0.92.4 (5da689c313, 2019-01-14)"
   sodipodi:docname="img-empty-staking-on.svg"
   x="0px"
   y="0px"
   viewBox="0 0 100 100"
   style="enable-background:new 0 0 100 100;"
   xml:space="preserve"><metadata
   id="metadata36"><rdf:RDF><cc:Work
       rdf:about=""><dc:format>image/svg+xml</dc:format><dc:type
         rdf:resource="http://purl.org/dc/dcmitype/StillImage" /></cc:Work></rdf:RDF></metadata><defs
   id="defs34"><pattern
     id="EMFhbasepattern"
     patternUnits="userSpaceOnUse"
     width="6"
     height="6"
     x="0"
     y="0" /></defs>
<style
   type="text/css"
   id="style2">
	.st0{fill:#2EA1FF;}
	.st1{fill:#666666;}
	.st2{fill:#EFEFEF;}
</style>
<polygon
   class="st0"
   points="76.7,79.8 79.4,79.8 84.3,79.8 88.2,79 90.4,78.2 91.4,79.2 92,80.7 90.1,83 83.5,83.6 78.8,84.1   77.3,83.7 75.7,82.4 "
   id="polygon4"
   style="fill:#fedf41;fill-opacity:1" />
<path
   class="st0"
   d="M64.6,72l8.7-1l1-0.8l1.4,2.4l-3.5,1.9c0,0-4.8,1.7-5,1.5s-3.7-0.3-3.7-0.3"
   id="path6"
   style="fill:#009dff;fill-opacity:1" />

<sodipodi:namedview
   bordercolor="#666666"
   borderopacity="1"
   gridtolerance="10"
   guidetolerance="10"
   id="namedview18"
   inkscape:current-layer="ic_staking_on"
   inkscape:cx="57.801863"
   inkscape:cy="27.212419"
   inkscape:pageopacity="0"
   inkscape:pageshadow="2"
   inkscape:window-height="1377"
   inkscape:window-width="2560"
   inkscape:zoom="7.6245495"
   objecttolerance="10"
   pagecolor="#ffffff"
   showgrid="false"
   inkscape:document-rotation="0"
   inkscape:window-x="2552"
   inkscape:window-y="-8"
   inkscape:window-maximized="1">
	</sodipodi:namedview>
<g
   id="Group_9018">
	<g
   id="Group_9016"
   style="fill:#3b4461;fill-opacity:1">
		<path
   id="Ellipse_613"
   style="fill:#3b4461;fill-opacity:1"
   d="M 92,56 A 12,4 0 0 1 80,60 12,4 0 0 1 68,56 12,4 0 0 1 80,52 12,4 0 0 1 92,56 Z"
   class="st0" />
		<path
   id="Ellipse_614"
   style="fill:#3b4461;fill-opacity:1"
   d="M 76,68 A 12,4 0 0 1 64,72 12,4 0 0 1 52,68 12,4 0 0 1 64,64 12,4 0 0 1 76,68 Z"
   class="st0" />
		<path
   id="Rectangle_4669"
   class="st0"
   d="M32,24h14v14H32V24z"
   style="fill:#3b4461;fill-opacity:1" />
	</g>
	<g
   id="Group_9017"
   transform="translate(-0.3,-0.2)">
		<path
   id="Rectangle_4670"
   class="st1"
   d="m 12,60 h 2 v 4 h -2 z" />
		<path
   id="Path_18975"
   class="st1"
   d="m 92,58 c 0.6,-0.5 0.9,-1.2 1,-2 0,-3.3 -6.5,-5 -13,-5 -6.5,0 -13,1.7 -13,5 0,0.8 0.4,1.5 1,2 -1.1,0.9 -1.3,2.5 -0.4,3.6 0.1,0.1 0.2,0.3 0.4,0.4 -0.3,0.3 -0.6,0.7 -0.8,1.2 -0.4,0 -0.8,-0.1 -1.2,-0.1 V 39 h 5 V 23 H 52.6 C 56.5,19.9 57.1,14.2 54,10.4 50.9,6.6 45.2,5.9 41.4,9 40.4,9.8 39.6,10.8 39,11.9 36.7,7.5 31.3,5.7 26.9,8 c -4.4,2.3 -6.2,7.7 -3.9,12.1 0.6,1.1 1.4,2.1 2.4,2.9 H 7 v 16 h 5 v 17 h 2 V 39 h 50 v 24 c -6.5,0 -13,1.7 -13,5 0,0.8 0.4,1.5 1,2 -1.1,0.9 -1.3,2.5 -0.4,3.6 0.1,0.1 0.2,0.3 0.4,0.4 -0.3,0.3 -0.6,0.6 -0.7,1 H 14 v -7 h -2 v 9 h 39.2 c 0.2,0.4 0.4,0.7 0.7,1 -1.1,0.9 -1.3,2.5 -0.4,3.6 0.1,0.1 0.2,0.3 0.4,0.4 -1.1,0.9 -1.3,2.5 -0.4,3.6 0.1,0.1 0.2,0.3 0.4,0.4 -0.6,0.5 -0.9,1.2 -1,2 0,3.3 6.5,5 13,5 5.9,0 11.8,-1.4 12.8,-4.2 1,0.1 2.1,0.2 3.2,0.2 6.5,0 13,-1.7 13,-5 0,-0.8 -0.4,-1.5 -1,-2 1.1,-0.9 1.3,-2.5 0.4,-3.6 C 92.2,78.3 92.1,78.1 91.9,78 93,77.1 93.2,75.5 92.3,74.4 92.2,74.3 92.1,74.1 91.9,74 93,73.1 93.2,71.5 92.3,70.4 92.2,70.3 92.1,70.1 91.9,70 93,69.1 93.2,67.5 92.3,66.4 92.2,66.3 92.1,66.1 91.9,66 93,65.1 93.2,63.5 92.3,62.4 92.2,62.3 92.1,62.1 91.9,62 93,61.1 93.2,59.5 92.3,58.4 92.3,58.2 92.2,58.1 92,58 Z M 31,37 H 9 V 25 H 31 Z M 24,16 c 0,-3.9 3.1,-7 7,-7 3.9,0 7,3.1 7,7 v 7 h -7 c -3.9,0 -7,-3.1 -7,-7 z M 45,37 H 33 V 25 H 45 Z M 40,23 v -7 c 0,-3.9 3.1,-7 7,-7 3.9,0 7,3.1 7,7 0,3.9 -3.1,7 -7,7 z m 7,14 V 25 h 22 v 12 z m 4,39 c 0,0.2 0,0.3 0.1,0.5 C 51,76.3 51,76.2 51,76 Z m 13,15 c -7.1,0 -11,-2 -11,-3 0,-0.2 0.2,-0.5 0.7,-0.8 2.5,1.2 6.4,1.8 10.3,1.8 3.9,0 7.8,-0.6 10.3,-1.8 0.4,0.3 0.7,0.6 0.7,0.8 0,1 -3.9,3 -11,3 z m 0,-4 c -7.1,0 -11,-2 -11,-3 0,-0.2 0.2,-0.5 0.7,-0.8 2.5,1.2 6.4,1.8 10.3,1.8 3.9,0 7.8,-0.6 10.3,-1.8 0.4,0.3 0.7,0.6 0.7,0.8 0,1 -3.9,3 -11,3 z m 0,-4 c -7.1,0 -11,-2 -11,-3 0,-0.2 0.2,-0.5 0.7,-0.8 2.5,1.2 6.4,1.8 10.3,1.8 3.9,0 7.8,-0.6 10.3,-1.8 0.4,0.3 0.7,0.6 0.7,0.8 0,1 -3.9,3 -11,3 z m 0,-4 c -7.1,0 -11,-2 -11,-3 0,-0.2 0.2,-0.5 0.7,-0.8 2.5,1.2 6.4,1.8 10.3,1.8 3.9,0 7.8,-0.6 10.3,-1.8 0.4,0.3 0.7,0.6 0.7,0.8 0,1 -3.9,3 -11,3 z m 0,-4 c -7.1,0 -11,-2 -11,-3 0,-0.2 0.2,-0.5 0.7,-0.8 2.5,1.2 6.4,1.8 10.3,1.8 3.9,0 7.8,-0.6 10.3,-1.8 0.4,0.3 0.7,0.6 0.7,0.8 0,0.797609 -2.481104,2.231399 -7.088117,2.779099 -0.55136,0.06555 -1.13317,0.118404 -1.744819,0.15596 C 65.481871,74.97713 64.759232,75 64,75 Z m 0,-4 c -7.1,0 -11,-2 -11,-3 0,-1 3.9,-3 11,-3 7.1,0 11,2 11,3 0,1 -3.9,3 -11,3 z m 16,16 c -1.2,0 -2.3,-0.1 -3.3,-0.2 -0.2,-0.3 -0.4,-0.6 -0.6,-0.8 0.3,-0.3 0.6,-0.7 0.8,-1.2 1,0.1 2.1,0.2 3.2,0.2 3.9,0 7.8,-0.6 10.3,-1.8 0.4,0.3 0.7,0.6 0.7,0.8 -0.1,1 -4,3 -11.1,3 z m 0,-4 c -1.2,0 -2.3,-0.1 -3.3,-0.2 -0.2,-0.3 -0.4,-0.6 -0.6,-0.8 0.3,-0.3 0.6,-0.7 0.8,-1.2 1,0.1 2.1,0.2 3.2,0.2 3.9,0 7.8,-0.6 10.3,-1.8 0.4,0.3 0.7,0.6 0.7,0.8 -0.07096,0.709557 -2.0551,1.922583 -5.738084,2.567358 -0.665985,0.116594 -1.38752,0.214606 -2.163338,0.2877 C 82.218212,82.947424 81.151167,83 80,83 Z m 0,-4 c -1.2,0 -2.3,-0.1 -3.3,-0.2 -0.2,-0.3 -0.4,-0.6 -0.6,-0.8 0.3,-0.3 0.6,-0.7 0.8,-1.2 1,0.1 2.1,0.2 3.2,0.2 3.9,0 7.8,-0.6 10.3,-1.8 0.4,0.3 0.7,0.6 0.7,0.8 -0.1,1 -4,3 -11.1,3 z m 0,-4 c -1.2,0 -2.3,-0.1 -3.3,-0.2 -0.2,-0.3 -0.4,-0.6 -0.6,-0.8 0.3,-0.3 0.6,-0.7 0.8,-1.2 1,0.1 2.1,0.2 3.2,0.2 3.9,0 7.8,-0.6 10.3,-1.8 0.4,0.3 0.7,0.6 0.7,0.8 -0.1,1 -4,3 -11.1,3 z m 0,-4 c -1.2,0 -2.3,-0.1 -3.3,-0.2 -0.2,-0.3 -0.4,-0.6 -0.6,-0.8 0.3,-0.3 0.6,-0.7 0.8,-1.2 1,0.1 2.1,0.2 3.2,0.2 3.9,0 7.8,-0.6 10.3,-1.8 0.4,0.3 0.7,0.6 0.7,0.8 -0.1,1 -4,3 -11.1,3 z m 0,-4 c -1.2,0 -2.3,-0.1 -3.3,-0.2 -0.6,-1.2 -2.2,-2.1 -4.2,-2.7 2.5,0.6 5,0.9 7.5,0.9 3.9,0 7.8,-0.6 10.3,-1.8 0.4,0.3 0.7,0.6 0.7,0.8 0,1 -3.9,3 -11,3 z m -10.6,-3.6 0.3,-0.3 c 0.6,0.3 1.2,0.5 1.8,0.7 -0.7,-0.1 -1.4,-0.3 -2.1,-0.4 z M 80,63 c -7.1,0 -11,-2 -11,-3 0,-0.2 0.2,-0.5 0.7,-0.8 2.5,1.2 6.4,1.8 10.3,1.8 3.9,0 7.8,-0.6 10.3,-1.8 0.4,0.3 0.7,0.6 0.7,0.8 0,1 -3.9,3 -11,3 z m 0,-4 c -7.1,0 -11,-2 -11,-3 0,-1 3.9,-3 11,-3 7.1,0 11,2 11,3 0,1 -3.9,3 -11,3 z"
   sodipodi:nodetypes="ccsscccccccccsccsccccccccccscccccccccccccccscssccccccccccccccccccssscssccccccsssscccccccccsscscsssscscsssscscsssscscsssscscsssssssssscccsccsscccsccsssscccsccsscccsccsscccsccssccscssccccsscscsssssss"
   inkscape:connector-curvature="0"
   style="fill:#666666" />
	</g>
</g>

<g
   id="g938"
   transform="matrix(0.05545454,0,0,0.05545454,20.727683,42.445895)"><ellipse
     id="ellipse893"
     ry="240.48"
     rx="197"
     cy="240.48"
     cx="222.7"
     class="cls-1"
     style="fill:#fedf41" /><circle
     id="circle895"
     r="222.2"
     cy="240.48"
     cx="222.2"
     class="cls-2"
     style="fill:#009dff;fill-opacity:1" /><path
     id="path897"
     transform="translate(-29.27,-11.67)"
     d="M 121.13,264.93 H 81.92 c -7.28,0 -13.17,-3.29 -13.17,-7.35 0,-4.06 5.89,-7.35 13.17,-7.35 h 39.21 c 7.27,0 13.16,3.29 13.16,7.35 0,4.06 -5.89,7.35 -13.16,7.35 z"
     class="cls-1"
     inkscape:connector-curvature="0"
     style="fill:#fedf41" /><path
     id="path899"
     transform="translate(-29.27,-11.67)"
     d="m 419,264.93 h -34.33 c -6.36,0 -11.52,-3.29 -11.52,-7.35 0,-4.06 5.16,-7.35 11.52,-7.35 H 419 c 6.36,0 11.52,3.29 11.52,7.35 0,4.06 -5.21,7.35 -11.52,7.35 z"
     class="cls-1"
     inkscape:connector-curvature="0"
     style="fill:#fedf41" /><path
     id="path901"
     transform="translate(-29.27,-11.67)"
     d="m 378.51,365.68 a 7.36,7.36 0 0 1 -5.2,-2.15 l -15.47,-15.48 a 7.35,7.35 0 1 1 10.39,-10.39 l 15.48,15.47 a 7.35,7.35 0 0 1 -5.2,12.55 z"
     class="cls-1"
     inkscape:connector-curvature="0"
     style="fill:#fedf41" /><path
     id="path903"
     transform="translate(-29.27,-11.67)"
     d="m 132.5,365.68 a 7.35,7.35 0 0 1 -5.2,-12.55 l 15.48,-15.47 a 7.35,7.35 0 0 1 10.39,10.39 l -15.47,15.48 a 7.36,7.36 0 0 1 -5.2,2.15 z"
     class="cls-1"
     inkscape:connector-curvature="0"
     style="fill:#fedf41" /><path
     id="path905"
     transform="translate(-29.27,-11.67)"
     d="M 204.89,364.46"
     class="cls-3"
     inkscape:connector-curvature="0"
     style="fill:#4e5f80" /><path
     id="path907"
     transform="translate(-29.27,-11.67)"
     d="m 150.08,164.41 -31.32,-23.58 c -5.81,-4.38 -8.54,-10.55 -6.1,-13.8 2.44,-3.25 9.13,-2.32 14.94,2.05 l 31.32,23.59 c 5.81,4.37 8.54,10.55 6.1,13.79 -2.44,3.24 -9.13,2.33 -14.94,-2.05 z"
     class="cls-1"
     inkscape:connector-curvature="0"
     style="fill:#fedf41" /><path
     id="path909"
     transform="translate(-29.27,-11.67)"
     d="m 353.85,164.41 31.33,-23.58 c 5.81,-4.38 8.54,-10.55 6.09,-13.8 -2.45,-3.25 -9.13,-2.32 -14.94,2.05 L 345,152.67 c -5.81,4.37 -8.54,10.55 -6.1,13.79 2.44,3.24 9.15,2.33 14.95,-2.05 z"
     class="cls-1"
     inkscape:connector-curvature="0"
     style="fill:#fedf41" /><path
     id="path911"
     transform="translate(-29.27,-11.67)"
     d="m 306,178 a 76.15,76.15 0 0 0 -51.27,-22.85 v -0.08 h -0.56 c -0.4,0 -0.81,0 -1.21,0 -0.4,0 -1,0 -1.52,0 v 0.08 c -41.09,1.78 -74.12,36.56 -74.16,78.83 a 79.34,79.34 0 0 0 15.66,47.72 c 15.51,20.89 22.43,34.27 22.43,58.3 v 8.74 a 8.27,8.27 0 0 0 8.19,8.35 h 59.06 a 8.27,8.27 0 0 0 8.18,-8.35 v -9 c 0,-23.71 6.94,-37.08 22.49,-58.08 A 80.2,80.2 0 0 0 306,178 Z"
     class="cls-1"
     inkscape:connector-curvature="0"
     style="fill:#fedf41" /><path
     id="path913"
     transform="translate(-29.27,-11.67)"
     d="m 300.13,247.38 c 10.16,-6 9.75,-19.74 -0.76,-25.48 -4,-2.2 -4.32,-2.88 -3.2,-7.27 a 9.22,9.22 0 0 0 -4.73,-10.77 c -5.79,-3.18 -11.29,-1.39 -14.2,4.62 -1.33,2.74 -3.5,3.79 -5.86,2.81 a 4,4 0 0 1 -1.92,-6 26.5,26.5 0 0 1 5.11,-7.11 c 2.05,-1.83 1.61,-3.07 0.11,-4.49 -3.53,-3.32 -8,-3.92 -12.73,-4.23 v 47.47 c 5.24,0.38 8.4,-1.1 10.93,-5.07 0.9,-1.4 1.49,-3 2.59,-4.25 a 36,36 0 0 1 6,-5.62 c 1.86,-1.28 3.91,-0.43 5.16,1.36 1.25,1.79 0.9,3.58 -0.57,5.27 a 44.5,44.5 0 0 0 -5.28,6.66 c -3.52,6.13 -8.79,9.37 -15.89,10 -0.93,0.08 -1.85,0.2 -3,0.33 v 65.11 0 l -0.44,45.86 v 3.15 l 1.57,-1.35 h 5.87 L 277,300 l 0.18,-0.72 a 86.67,86.67 0 0 1 -7.56,-5.42 c -2.2,-2 -2.1,-4.66 -0.25,-6.32 1.85,-1.66 4.11,-1.43 6.26,0.56 3,2.8 5.69,3.38 8.95,1.92 a 8.22,8.22 0 0 0 4.79,-8.64 c -0.5,-0.08 -1,-0.21 -1.58,-0.25 -8.08,-0.57 -13.65,-4.24 -16.12,-12 a 10.53,10.53 0 0 0 -2.56,-3.85 c -2.26,-2.32 -2.72,-4.33 -1.07,-6.25 a 4.26,4.26 0 0 1 6.68,0.1 37.88,37.88 0 0 1 5.45,8.5 c 1.19,2.46 2.74,4.17 5.4,4.77 a 14.91,14.91 0 0 0 11.91,-2 c 5.2,-3.46 5.65,-9.76 1.27,-15.51 -2.47,-3.34 -2.09,-5.45 1.38,-7.51 z"
     class="cls-4"
     inkscape:connector-curvature="0"
     style="fill:#ffffff" /><path
     id="path915"
     transform="translate(-29.27,-11.67)"
     d="m 203,246.21 c -11.69,-5.88 -11.21,-19.34 0.88,-25 4.63,-2.15 5,-2.82 3.68,-7.12 -1.32,-4.3 0.77,-8.35 5.45,-10.55 6.66,-3.12 13,-1.37 16.35,4.52 1.53,2.69 4,3.71 6.74,2.76 2.74,-0.95 3.82,-3.37 2.21,-5.89 a 26.23,26.23 0 0 0 -5.89,-7 c -2.35,-1.8 -1.85,-3 -0.12,-4.4 4.07,-3.26 9.23,-3.85 14.66,-4.15 V 236 c -6,0.38 -9.68,-1.07 -12.59,-4.95 -1,-1.38 -1.71,-3 -3,-4.17 a 39.78,39.78 0 0 0 -6.93,-5.51 4.58,4.58 0 0 0 -5.94,1.33 c -1.45,1.77 -1,3.51 0.66,5.17 a 45.24,45.24 0 0 1 6.07,6.52 c 4.06,6 10.12,9.19 18.3,9.81 1.07,0.08 2.13,0.2 3.47,0.33 v 63.79 0 l 0.5,44.92 v 3.09 L 245.69,355 h -6.76 l -9.36,-57.17 c -0.07,-0.24 -0.14,-0.47 -0.22,-0.7 a 99,99 0 0 0 8.71,-5.32 c 2.53,-1.91 2.41,-4.56 0.29,-6.19 -2.12,-1.63 -4.73,-1.4 -7.2,0.55 -3.5,2.75 -6.56,3.31 -10.31,1.88 -3.75,-1.43 -5.92,-4.61 -5.51,-8.46 0.58,-0.08 1.19,-0.21 1.82,-0.25 9.29,-0.56 15.71,-4.15 18.55,-11.75 a 10.16,10.16 0 0 1 3,-3.78 c 2.6,-2.27 3.13,-4.24 1.23,-6.12 a 5.46,5.46 0 0 0 -7.69,0.1 36.5,36.5 0 0 0 -6.27,8.33 8.62,8.62 0 0 1 -6.22,4.67 19.71,19.71 0 0 1 -13.71,-2 c -6,-3.39 -6.5,-9.56 -1.46,-15.19 2.83,-3.3 2.42,-5.38 -1.58,-7.39 z"
     class="cls-4"
     inkscape:connector-curvature="0"
     style="fill:#ffffff" /><path
     id="path917"
     transform="translate(-29.27,-11.67)"
     d="m 291,347.47 h -75.95 c -4.61,0 -8.34,4 -8.34,8.94 v 32.2 a 9.52,9.52 0 0 0 0.73,3.66 l 16.68,40 a 8.33,8.33 0 0 0 7.61,5.28 h 9 c 1.48,4.35 7.33,7.6 14.33,7.6 7,0 12.85,-3.25 14.33,-7.6 h 5 a 8.33,8.33 0 0 0 7.61,-5.28 l 16.69,-40 a 9.52,9.52 0 0 0 0.73,-3.66 v -32.2 c -0.07,-4.94 -3.81,-8.94 -8.42,-8.94 z"
     class="cls-5"
     inkscape:connector-curvature="0"
     style="fill:#3b4461" /></g></svg>