<?xml version="1.0" encoding="UTF-8" standalone="no"?>
<svg
   xmlns:dc="http://purl.org/dc/elements/1.1/"
   xmlns:cc="http://creativecommons.org/ns#"
   xmlns:rdf="http://www.w3.org/1999/02/22-rdf-syntax-ns#"
   xmlns:svg="http://www.w3.org/2000/svg"
   xmlns="http://www.w3.org/2000/svg"
   xmlns:sodipodi="http://sodipodi.sourceforge.net/DTD/sodipodi-0.dtd"
   xmlns:inkscape="http://www.inkscape.org/namespaces/inkscape"
   version="1.1"
   id="ic_empty_dark_multisend"
   inkscape:version="1.0.1 (3bc2e813f5, 2020-09-07)"
   sodipodi:docname="img-empty-dark-multisend.svg"
   x="0px"
   y="0px"
   viewBox="0 0 100 100"
   style="enable-background:new 0 0 100 100;"
   xml:space="preserve"><metadata
   id="metadata39"><rdf:RDF><cc:Work
       rdf:about=""><dc:format>image/svg+xml</dc:format><dc:type
         rdf:resource="http://purl.org/dc/dcmitype/StillImage" /></cc:Work></rdf:RDF></metadata><defs
   id="defs37"><pattern
     id="EMFhbasepattern"
     patternUnits="userSpaceOnUse"
     width="6"
     height="6"
     x="0"
     y="0" /></defs>
<style
   type="text/css"
   id="style2">
	.st0{fill:#2EA1FF;}
	.st1{fill:#A09EA5;}
	.st2{fill:#EFEFEF;}
</style>
<sodipodi:namedview
   bordercolor="#666666"
   borderopacity="1"
   gridtolerance="10"
   guidetolerance="10"
   id="namedview25"
   inkscape:current-layer="ic_empty_dark_multisend"
   inkscape:cx="45.269144"
   inkscape:cy="46.343705"
   inkscape:pageopacity="0"
   inkscape:pageshadow="2"
   inkscape:window-height="2066"
   inkscape:window-width="3840"
   inkscape:zoom="17.012937"
   objecttolerance="10"
   pagecolor="#ffffff"
   showgrid="false"
   inkscape:document-rotation="0"
   inkscape:window-x="3829"
   inkscape:window-y="-11"
   inkscape:window-maximized="1">
	</sodipodi:namedview>
<g
   id="Group_9062">
	<g
   id="Group_9060">
		<path
   id="Rectangle_4717"
   class="st0"
   d="M45,18h10v9H45V18z"
   style="fill:#121228;fill-opacity:0.93333334" />
		<g
   id="Group_9059"
   style="fill:#e55d35;fill-opacity:0.93333334">
			<path
   id="Rectangle_4718"
   class="st0"
   d="M14,66h6v10h-6V66z"
   style="fill:#e55d35;fill-opacity:0.93333334" />
			<path
   id="Rectangle_4719"
   class="st0"
   d="M80,66h6v10h-6V66z"
   style="fill:#e55d35;fill-opacity:0.93333334" />
			<path
   id="Rectangle_4720"
   class="st0"
   d="M47,66h6v10h-6V66z"
   style="fill:#e55d35;fill-opacity:0.93333334" />
		</g>
	</g>
	<g
   id="Group_9061">
		<path
   id="Rectangle_4722"
   class="st1"
   d="M67,40h2v4h-2V40z" />
		<circle
   id="Ellipse_643"
   class="st1"
   cx="50"
   cy="73"
   r="1" />
		<circle
   id="Ellipse_644"
   class="st1"
   cx="83"
   cy="73"
   r="1" />
		<path
   id="Rectangle_4723"
   class="st1"
   d="M32,58h4v2h-4V58z" />
		<path
   id="Path_19007"
   class="st1"
   d="M16,65h-3v3H7v4h2v-2h4v7h8v-7h4v21H9V76H7v17h20V68h-6v-3h-3v-5h10v-2H16V65z M19,67v8h-4    v-8H19z" />
		<circle
   id="Ellipse_645"
   class="st1"
   cx="17"
   cy="73"
   r="1" />
		<path
   id="Path_19008"
   class="st1"
   d="M87,68v-3h-3v-7H51v-5h18v-5h-2v3H33V28h34v8h2v-8h4V17H59.5c2.2-2.5,2-6.3-0.5-8.5    s-6.3-2-8.5,0.5c-0.2,0.2-0.4,0.5-0.5,0.7c-1.8-2.8-5.5-3.5-8.3-1.7s-3.5,5.5-1.7,8.3c0.2,0.3,0.4,0.5,0.6,0.7H27v11h4v25h18v5h-9    v2h9v5h-3v3h-6v16h2V70h4v7h8v-7h4v21H42v-3h-2v5h20V68h-6v-3h-3v-5h31v5h-3v3h-6v12h2V70h4v7h8v-7h4v21H75v-7h-2v9h20V68H87z     M71,19v7H56v-7H71z M51,13c0-2.2,1.8-4,4-4s4,1.8,4,4s-1.8,4-4,4h-4V13z M51,19h3v7h-8v-7H51z M45,9c2.2,0,4,1.8,4,4v4h-4    c-2.2,0-4-1.8-4-4S42.8,9,45,9z M29,26v-7h15v7H29z M52,67v8h-4v-8H52z M85,75h-4v-8h4V75z" />
	</g>
</g>
<rect
   x="33"
   y="28"
   class="st0"
   width="34"
   height="23"
   id="rect20"
   style="fill:#121228;fill-opacity:0.93333334" />

<g
   id="g895"
   transform="matrix(0.03046472,0,0,0.03046472,38.814627,39.011158)"><path
     style="fill:#f1b533;fill-opacity:1;fill-rule:nonzero;stroke:none"
     d="m 364.9102,-30.712344 c 2.33333,-0.66667 72.66667,-21 111.66667,-32.66667 0,0 33.66666,-9.66667 66.33333,-19.66667 6,-1.66666 12.33333,-3.66666 12.33333,-3.66666 4,-1.33334 8,-2.33334 12.33334,-3.66667 -27.33334,24.66667 -54.66667,49 -82,73.66667 -24.33334,20.66666 -48.66667,41.33333 -73,61.66666 -8,32.33334 -15.66667,64.333344 -23.66667,96.333344 -8,31.66666 -15.66667,63.33333 -23.33333,94.66666 -8.66667,-36.33333 -17.66667,-73 -26.66667,-109.66666 -7,-27.000004 -14.33333,-54.000004 -21.66667,-81.000004 -26,-21.66667 -51.66666,-43.66667 -77.66666,-65.33334 -24.66667,-22.33333 -49.66667,-44.66666 -74.33333,-67 40,11.66667 80.66666,23.33334 121.99999,35 26,7.33334 52,14.33334 77.66667,21.33334 z"
     id="path865" /><path
     style="fill:#e55d35;fill-opacity:1;fill-rule:nonzero;stroke:none"
     d="m 416.9102,86.954316 c 1,-5.33333 2.33333,-10.66666 3.66667,-16 1.66666,-6.33333 3,-12.66666 4.66666,-18.66666 5,-4.33334 9.66667,-8.33334 14.33334,-12.66667 4,-3.33333 8,-6.33333 12,-9.66667 22,16 44.66666,33.33334 67.66666,52 20,16 39,32.000004 56.66667,47.666674 -25.66667,-5.33333 -52.66667,-11.66667 -80.66667,-19.33333 -27.66666,-7.33334 -54,-15.333344 -78.33333,-23.333344 z"
     id="path871" /><path
     style="fill:#e55d35;fill-opacity:1;fill-rule:nonzero;stroke:none"
     d="m 276.9102,29.287656 c 4.33333,3.66666 8.66667,7.33333 13.33333,11 5.33334,4.33333 10.33334,8.66666 15.33334,13 1.66666,6 3.33333,12 4.66666,17.66666 1.33334,4.66667 2.33334,9.66667 3.33334,14.33334 -26.33334,9 -54.33334,18.000004 -83.66667,26.666664 -25.33333,7.66667 -50,14.33334 -74,20 18,-17.33333 37.66667,-35.000004 59,-53.333334 21.33334,-17.66667 42,-34.33333 62,-49.33333 z"
     id="path873" /><path
     style="fill:#e55d35;fill-opacity:1;fill-rule:nonzero;stroke:none"
     d="m 401.57687,-53.379014 c -5.66667,1.66667 -11.33334,3.33333 -17,5 -6.66667,1.66667 -13.66667,3.66667 -20.33334,5.33333 -6.33333,-1.66666 -12.66666,-3.33333 -19,-5 -5.33333,-1.66666 -10.33333,-3 -15.33333,-4.66666 4.66667,-25.33334 10,-51.666666 16.33333,-79.000006 5.66667,-23.66666 12,-46.33333 18,-68.33333 7.66667,23 14.66667,47.33333 21.33334,73.33333 6.66666,25.33334 11.66666,50.000006 16,73.333336 z"
     id="path875" /></g></svg>
