<?xml version="1.0" encoding="UTF-8" standalone="no"?>
<svg
   xmlns:dc="http://purl.org/dc/elements/1.1/"
   xmlns:cc="http://creativecommons.org/ns#"
   xmlns:rdf="http://www.w3.org/1999/02/22-rdf-syntax-ns#"
   xmlns:svg="http://www.w3.org/2000/svg"
   xmlns="http://www.w3.org/2000/svg"
   xmlns:sodipodi="http://sodipodi.sourceforge.net/DTD/sodipodi-0.dtd"
   xmlns:inkscape="http://www.inkscape.org/namespaces/inkscape"
   version="1.1"
   id="ic_empty_zpiv"
   x="0px"
   y="0px"
   viewBox="0 0 100 100"
   style="enable-background:new 0 0 100 100;"
   xml:space="preserve"
   sodipodi:docname="img-empty-privacy.svg"
   inkscape:version="1.0.1 (3bc2e813f5, 2020-09-07)"><sodipodi:namedview
   pagecolor="#ffffff"
   bordercolor="#666666"
   borderopacity="1"
   objecttolerance="10"
   gridtolerance="10"
   guidetolerance="10"
   inkscape:pageopacity="0"
   inkscape:pageshadow="2"
   inkscape:window-width="3840"
   inkscape:window-height="2066"
   id="namedview23"
   showgrid="false"
   inkscape:zoom="3.675"
   inkscape:cx="-153.46392"
   inkscape:cy="69.312257"
   inkscape:window-x="3829"
   inkscape:window-y="-11"
   inkscape:window-maximized="1"
   inkscape:current-layer="ic_empty_zpiv" /><metadata
   id="metadata33"><rdf:RDF><cc:Work
       rdf:about=""><dc:format>image/svg+xml</dc:format><dc:type
         rdf:resource="http://purl.org/dc/dcmitype/StillImage" /><dc:title /></cc:Work></rdf:RDF></metadata><defs
   id="defs31" />
<style
   type="text/css"
   id="style2">
	.st0{fill:#2EA1FF;}
	.st1{fill:#666666;}
	.st2{fill:#EFEFEF;}
</style>

<g
   id="Group_9086">
	<path
   id="Path_19031"
   class="st0"
   d="M50,26c-13.3,0-24,10.7-24,24s10.7,24,24,24s24-10.7,24-24S63.3,26,50,26z M50,68   c-9.9,0-18-8.1-18-18s8.1-18,18-18s18,8.1,18,18S59.9,68,50,68z"
   style="fill:#0c1e2d;fill-opacity:1" />
	<g
   id="Group_9085">
		<g
   id="Group_9083">
			<path
   id="Rectangle_4749"
   class="st1"
   d="M83,56h2v4h-2V56z" />
			<path
   id="Rectangle_4750"
   class="st1"
   d="M83,44h2v8h-2V44z" />
			<path
   id="Rectangle_4751"
   class="st1"
   d="M15,48h2v8h-2V48z" />
			<path
   id="Rectangle_4752"
   class="st1"
   d="M15,40h2v4h-2V40z" />
			<path
   id="Path_19033"
   class="st1"
   d="M95.2,71H85v-7h-2v9h7.8L76,90.5L61.2,73H68v-2h-4.5c11.6-7.5,15-22.9,7.5-34.5     c-6.4-9.9-18.9-14-29.9-9.8L24,6.5L4.8,29H15v7h2v-9H9.2L24,9.5L38.8,27H32v2h4.5c-11.6,7.5-15,22.9-7.5,34.5     c6.4,9.9,18.9,14,29.9,9.8L76,93.5L95.2,71z M27,50c0-12.7,10.3-23,23-23s23,10.3,23,23S62.7,73,50,73S27,62.7,27,50z" />
		</g>
	</g>
</g>
<ellipse
   class="st0"
   cx="50"
   cy="50"
   id="circle14"
   rx="20.186443"
   ry="20.747959"
   style="fill:#0c1e2d;fill-opacity:1;stroke-width:1.14973" />

<path
   id="path850"
   style="fill:#27cafc;fill-opacity:1;fill-rule:nonzero;stroke:none;stroke-width:0.24244"
   d="m 50.187044,35.39675 c -0.08081,0 -0.240524,0.321355 -0.96784,2.503308 -0.404067,1.373819 -0.971009,2.829045 -1.132635,3.23311 -0.484879,1.131383 -1.211957,2.345016 -2.989843,5.011849 -1.777886,2.666829 -2.261697,3.556105 -2.746576,4.687488 -1.53545,3.474961 -0.809898,7.27082 1.776119,10.018462 1.212195,1.212194 2.99014,2.263485 4.606397,2.505923 0.24244,0 0.565565,0.0811 0.727189,0.0811 h 1.132636 c 2.101137,-0.0808 3.960596,-0.889665 5.576857,-2.505923 1.373821,-1.373823 2.261142,-2.98863 2.584396,-4.928143 0.161619,-0.727316 0.161619,-2.586605 0,-3.23311 -0.404067,-1.777888 -1.129911,-3.23164 -3.392675,-6.625787 C 52.694241,42.18518 52.450508,41.6198 51.1575,37.821586 50.510996,35.720449 50.348671,35.396753 50.187044,35.396753 Z m -5.090318,13.332663 c 0,0 0.24382,2.76e-4 0.405447,0.0811 0.404064,0.161639 0.402829,0.163011 0.402829,0.405449 0,0.323252 0.242311,0.646927 0.72719,0.889367 0.161618,0.0808 0.403107,0.159571 0.48392,0.159571 0,0 0.0811,0.08192 0.0811,0.324359 0,0.32325 8.26e-4,0.40366 0.243266,0.646098 0.161619,0.161618 0.403662,0.324635 0.6461,0.405446 0.161618,0.0808 0.405447,0.159837 0.405447,0.240653 0,0 -0.404213,0.567221 -0.808277,1.213724 -0.646505,1.050569 -0.808279,1.293028 -0.808279,1.535468 0,0.888945 1.37371,1.452718 2.262655,0.96784 0.242438,-0.161619 0.483664,-0.483535 1.938297,-2.665486 0.888945,-1.373823 1.697922,-2.424833 1.778733,-2.424833 0,0 0.0811,0.241759 0.0811,0.56501 0.08081,0.888943 0.160677,1.050034 0.48392,1.373287 0.323254,0.242438 0.809661,0.405446 1.213726,0.405446 0.323251,0 0.72774,-0.16301 0.889369,-0.405446 0.161618,-0.161619 0.159571,-0.320932 0.159571,-1.61394 0,-1.212193 2.78e-4,-1.456716 0.0811,-1.375905 0.08081,0 0.322848,0.485855 0.646099,1.051548 0.888944,1.777886 1.213174,3.232855 1.051547,4.687489 -0.242439,1.939514 -0.969924,3.475566 -2.343743,4.768578 -1.131409,1.131363 -2.262697,1.776932 -3.798144,2.019369 -2.262772,0.323252 -4.363711,-0.403128 -6.060783,-2.019386 -1.050568,-1.050572 -1.696135,-2.102836 -2.019386,-3.557468 -0.242439,-0.727319 -0.323805,-2.424707 -0.162172,-3.152022 0.08081,-0.727318 0.485304,-1.85708 0.889369,-2.584399 0.323253,-0.727318 1.049206,-1.860099 1.130019,-1.940913 z m 1.535466,3.070932 c -0.24244,0 -0.888132,0.485855 -1.292199,1.051547 -1.373821,1.939514 -0.324189,4.767902 2.019386,5.333587 0.888943,0.242439 1.616982,0.160514 2.505923,-0.324357 1.131387,-0.484877 1.857208,-1.777646 1.857208,-2.989842 0,-0.323254 -0.07985,-0.484475 -0.48392,-0.6461 -0.404064,-0.242439 -0.483919,-0.08151 -0.483919,0.56501 0.0808,0.646503 -0.0822,0.969775 -0.405447,1.535466 -0.484878,0.727317 -1.292901,1.051547 -2.262655,1.051547 -0.969757,-0.0808 -1.858315,-0.646526 -2.181567,-1.535468 -0.24244,-0.404063 -0.243266,-0.566669 -0.243266,-1.051545 0,-0.565692 8.29e-4,-0.645144 0.243266,-1.130019 0.242439,-0.48488 0.645419,-0.890475 1.21111,-1.213726 0.0808,-0.08081 0.243267,-0.159838 0.243267,-0.240651 0,-0.161618 -0.484749,-0.405449 -0.727187,-0.405449 z" /></svg>
