<svg id="Layer_1" data-name="Layer 1" xmlns="http://www.w3.org/2000/svg" viewBox="0 0 114.42 97.46"><defs><style>.cls-1{fill:#f4b400;}.cls-2{fill:#e50e28;}</style></defs><path class="cls-1" d="M58.66,11.27c-27.21,0-49.26,21-49.26,46.91A45.52,45.52,0,0,0,21.92,89.43l-.08,7.92-.11,11.38,9.91-5.59,5.15-2.91a51,51,0,0,0,21.87,4.87c27.2,0,49.25-21,49.25-46.92S85.86,11.27,58.66,11.27Z" transform="translate(-2.79 -11.27)"/><path class="cls-2" d="M12.32,74.11,13.64,73a26.44,26.44,0,0,1,14.09-6.12A33,33,0,0,1,39.83,68a108.59,108.59,0,0,1,15,5.49,163,163,0,0,0,16.83,6.45,49.19,49.19,0,0,0,17,2.21c2.39-.14,4.74-.7,7.12-1.08a.52.52,0,0,1,.34,0l-6.26,3a112.22,112.22,0,0,1-16.58,6.59,43.13,43.13,0,0,1-13.55,1.87,32.69,32.69,0,0,1-14.28-4,80.46,80.46,0,0,1-11.37-7.91c-1.88-1.46-3.8-2.88-5.81-4.15A19.48,19.48,0,0,0,13.05,74.1l-.53.1S12.44,74.17,12.32,74.11Z" transform="translate(-2.79 -11.27)"/><path d="M111.05,73.07a67,67,0,0,1-16,4.54A41.12,41.12,0,0,1,80.56,77a97.3,97.3,0,0,1-16-5.38c-6-2.46-12-5.08-18.16-7.07a63.15,63.15,0,0,0-13.92-3,45,45,0,0,0-19.56,2.69c-3.15,1.16-6.2,2.61-9.29,3.92-.25.11-.49.24-.79.38,0-.12,0-.19.07-.22a63.76,63.76,0,0,1,11.63-10,36.08,36.08,0,0,1,22.35-5.79,51.1,51.1,0,0,1,14.5,3.25c6.08,2.3,12.09,4.79,18.09,7.29,7.25,3,14.53,6,22.2,7.79a74.4,74.4,0,0,0,13,1.95C106.82,73,109,73,111.05,73.07Z" transform="translate(-2.79 -11.27)"/><path class="cls-2" d="M117.21,61.74c-1.79.57-3.69,1.21-5.61,1.79a53.5,53.5,0,0,1-10.47,2.16A41.15,41.15,0,0,1,88.56,65a74.06,74.06,0,0,1-13.85-4.61c-4.76-2-9.46-4.19-14.21-6.25a83.07,83.07,0,0,0-17-5.64,44.13,44.13,0,0,0-21,1,77.26,77.26,0,0,0-11,4.22c-.33.16-.66.28-1.17.49a4.53,4.53,0,0,1,.31-.4,62.28,62.28,0,0,1,9-7.89,36.45,36.45,0,0,1,17.84-6.75,40.36,40.36,0,0,1,13.35,1.26,106.66,106.66,0,0,1,16.78,6.23c6.81,3,13.58,6.1,20.45,8.94a76.51,76.51,0,0,0,19.72,5.29C110.88,61.29,114.08,61.47,117.21,61.74Z" transform="translate(-2.79 -11.27)"/><path class="cls-2" d="M107.68,50.06a20.08,20.08,0,0,1-5.53,1.46,29.91,29.91,0,0,1-15.1-2.44c-5.4-2.21-10.69-4.7-16-7.13a97.78,97.78,0,0,0-17.53-6.54,43.31,43.31,0,0,0-28.28,2.32.77.77,0,0,1-.57.05c1.26-1,2.52-2,3.8-2.91a51.75,51.75,0,0,1,17.7-8.8,41.5,41.5,0,0,1,31.2,3.45A44.85,44.85,0,0,1,87,37.05c2.68,2.56,5.31,5.18,8.09,7.64a20.9,20.9,0,0,0,9.86,5C105.81,49.86,106.65,49.92,107.68,50.06Z" transform="translate(-2.79 -11.27)"/></svg>