<svg id="Layer_1" data-name="Layer 1" xmlns="http://www.w3.org/2000/svg" viewBox="0 0 152.16 167.2"><defs><style>.cls-1{fill:#eaeaea;}</style></defs><path class="cls-1" d="M193.08,139.08c2.86,2.24,8.49,5.16,8.72,4.83a121.9,121.9,0,0,1-16.92-22.48c-11.14-18.8-16.3-38.15-15.22-52.79a6,6,0,0,0-1-.72c-10.2-5.43-20.93-24.74-48.41-20-19.41,3.31-25.37,11.43-25.37,11.43s13-6.43,21.83-3.46c-43.76,4.72-41,33.36-37.77,44.84h0a.61.61,0,0,1,0,.19c4.81,8,0,20.64-11.3,29a36.77,36.77,0,0,1-13,6.11,83.44,83.44,0,0,0,54,44.15c1.55.4,3.11.76,4.69,1.09l10.67,1.44c2.08.16,4.13.25,6.28.25a36.31,36.31,0,0,1-2.48-9.75c-2.07-17.86,6.61-39.09,3.21-68.29C126.44,66.14,94.87,74,94.87,74a13.57,13.57,0,0,0-1.53.48,17.61,17.61,0,0,1,7.56-2.25c7.35-.45,30.55-1.78,34.54,32.19,2,16.85.74,30.89-.95,43.32A72.31,72.31,0,0,0,135.62,173c.33,1.43.7,2.83,1.12,4.2v0l1.74,5.09h0l8.9-1.14a83.84,83.84,0,0,0,51.2-32.64,60.21,60.21,0,0,1-7.62-6.44,108.42,108.42,0,0,1-14.19-17.6A159.55,159.55,0,0,0,193.08,139.08ZM93.52,91.48c.61-.33,2.72,3.4,5.4,2.88s4.68-3.88,5.27-3.63-2.71,19.11-2.08,19.66,4.46-.92,5.22-.59,2.3,3.54,2.8,4.39-4.83,3.7-4.61,4.15,6.75-1,7.37.37-1.77,1.11.24,6.07,4.13,3.52,4.59,5.24-8,5.06-9.66,4-.49-5.64-2.09-7.33-4.7-10.46-5.78-12.88-4.19-6.3-5.44-9.3C92.83,99.86,92.92,91.81,93.52,91.48Z" transform="translate(-54.6 -47.18)"/><path class="cls-1" d="M87.44,203.21h0l-11,9.55h-.2l-11-9.55h-.08v10.86H60.4V197.33h4l11.9,10.35h0l11.9-10.35h4v16.74H87.44Z" transform="translate(-54.6 -47.18)"/><path class="cls-1" d="M103.13,199.34c2.42-1.36,6.6-2.35,12.49-2.35s10.08,1,12.5,2.35c2.22,1.26,3.5,3.1,3.5,6.35s-1.23,5.06-3.5,6.33c-2.42,1.38-6.6,2.36-12.5,2.36s-10.07-1-12.49-2.36-3.51-3-3.51-6.33S100.89,200.6,103.13,199.34Zm3.55,10c1.65.8,5,1.24,8.94,1.24s7.33-.44,9-1.24a3.7,3.7,0,0,0,2.21-3.64,3.64,3.64,0,0,0-2.19-3.59c-1.65-.81-5-1.3-9-1.3s-7.36.49-9,1.3a3.65,3.65,0,0,0-2.2,3.59,3.71,3.71,0,0,0,2.18,3.64Z" transform="translate(-54.6 -47.18)"/><path class="cls-1" d="M164.76,214.07l-21-11.42h0v11.42H139V197.33h3.76l21,11.42h0V197.33h4.79v16.74Z" transform="translate(-54.6 -47.18)"/><path class="cls-1" d="M206,197.9l-17.49,7.47v.09l18.24,8v.6h-8.54l-15.4-6.76h-1.91v6.76h-4.79V197.33h4.79v6.44h1.91l15.12-6.44H206Z" transform="translate(-54.6 -47.18)"/></svg>