<svg id="Layer_1" data-name="Layer 1" xmlns="http://www.w3.org/2000/svg" viewBox="0 0 72 72"><defs><style>.cls-1{fill:#fff;}.cls-2{fill:none;}</style></defs><rect class="cls-1" width="72" height="72"/><path d="M24.62.43a1.42,1.42,0,1,1-1.43,1.42A1.42,1.42,0,0,1,24.62.43Z"/><path d="M36,.43h1.42V3.27H36A1.42,1.42,0,0,1,36,.43Z"/><path d="M37.42.43V3.27h2.85A2.85,2.85,0,0,0,37.42.43Z"/><path d="M30.31,3.27a1.43,1.43,0,1,1-1.42,1.42A1.43,1.43,0,0,1,30.31,3.27Z"/><rect x="37.42" y="3.27" width="2.85" height="2.85"/><path d="M41.69,6.12H40.27V3.27h1.42a1.43,1.43,0,0,1,0,2.85Z"/><path d="M47.38,3.27A1.43,1.43,0,1,1,46,4.69,1.43,1.43,0,0,1,47.38,3.27Z"/><path d="M24.62,6.12a1.42,1.42,0,1,1-1.43,1.42A1.42,1.42,0,0,1,24.62,6.12Z"/><path d="M33.15,6.12h1.43V9H33.15a1.42,1.42,0,1,1,0-2.84Z"/><rect x="34.58" y="6.12" width="2.85" height="2.85"/><rect x="37.42" y="6.12" width="2.85" height="2.85"/><path d="M28.89,10.39v1.42H26V10.39a1.43,1.43,0,1,1,2.85,0Z"/><path d="M37.42,10.39V9h2.85v1.43a1.43,1.43,0,0,1-2.85,0Z"/><path d="M44.54,9a1.43,1.43,0,1,1-1.43,1.43A1.43,1.43,0,0,1,44.54,9Z"/><path d="M26,13.23V11.81h2.85v1.42a1.43,1.43,0,1,1-2.85,0Z"/><path d="M36,11.81a1.43,1.43,0,1,1-1.42,1.42A1.42,1.42,0,0,1,36,11.81Z"/><path d="M43.11,13.23v1.43H40.27V13.23a1.42,1.42,0,0,1,2.84,0Z"/><path d="M26,16.08V17.5H23.19V16.08a1.43,1.43,0,0,1,2.85,0Z"/><path d="M38.85,14.66h1.42V17.5H38.85a1.42,1.42,0,1,1,0-2.84Z"/><rect x="40.27" y="14.66" width="2.85" height="2.85"/><path d="M23.19,18.92V17.5H26v1.42a1.43,1.43,0,1,1-2.85,0Z"/><path d="M30.31,17.5a1.43,1.43,0,1,1-1.42,1.42A1.43,1.43,0,0,1,30.31,17.5Z"/><path d="M37.42,18.92v1.43H34.58V18.92a1.42,1.42,0,0,1,2.84,0Z"/><path d="M40.27,18.92V17.5h2.84v1.42a1.42,1.42,0,1,1-2.84,0Z"/><path d="M48.81,18.92v1.43H46V18.92a1.43,1.43,0,0,1,2.85,0Z"/><path d="M28.89,21.77v1.42H26V21.77a1.43,1.43,0,0,1,2.85,0Z"/><path d="M34.58,21.77V20.35h2.84v1.42a1.42,1.42,0,0,1-2.84,0Z"/><rect x="45.96" y="20.35" width="2.85" height="2.85"/><path d="M1.85,23.19A1.43,1.43,0,1,1,.43,24.62,1.43,1.43,0,0,1,1.85,23.19Z"/><path d="M9,24.62V26H6.12V24.62a1.42,1.42,0,1,1,2.84,0Z"/><path d="M18.92,23.19h1.43V26H18.92a1.43,1.43,0,0,1,0-2.85Z"/><path d="M21.77,26H20.35V23.19h1.42a1.43,1.43,0,0,1,0,2.85Z"/><rect x="26.04" y="23.19" width="2.85" height="2.85"/><path d="M34.58,24.62V26H31.73V24.62a1.43,1.43,0,1,1,2.85,0Z"/><rect x="45.96" y="23.19" width="2.85" height="2.85"/><path d="M57.34,24.62V26H54.5V24.62a1.42,1.42,0,1,1,2.84,0Z"/><path d="M64.46,23.19A1.43,1.43,0,1,1,63,24.62,1.42,1.42,0,0,1,64.46,23.19Z"/><path d="M71.57,24.62V26H68.73V24.62a1.42,1.42,0,1,1,2.84,0Z"/><rect x="6.12" y="26.04" width="2.85" height="2.85"/><rect x="26.04" y="26.04" width="2.85" height="2.85"/><rect x="28.89" y="26.04" width="2.85" height="2.85"/><path d="M34.58,26H31.73v2.85A2.86,2.86,0,0,0,34.58,26Z"/><path d="M43.11,28.89H46V26A2.85,2.85,0,0,0,43.11,28.89Z"/><rect x="45.96" y="26.04" width="2.85" height="2.85"/><rect x="48.81" y="26.04" width="2.85" height="2.85"/><rect x="51.65" y="26.04" width="2.85" height="2.85"/><path d="M57.34,26H54.5v2.85A2.85,2.85,0,0,0,57.34,26Z"/><path d="M63,27.46v1.43H60.19V27.46a1.43,1.43,0,0,1,2.85,0Z"/><path d="M67.31,26h1.42v2.85H67.31a1.43,1.43,0,1,1,0-2.85Z"/><rect x="68.73" y="26.04" width="2.85" height="2.85"/><path d="M1.85,28.89H3.27v2.84H1.85a1.42,1.42,0,1,1,0-2.84Z"/><rect x="3.27" y="28.89" width="2.85" height="2.85"/><rect x="6.12" y="28.89" width="2.85" height="2.85"/><path d="M13.23,28.89h1.43v2.84H13.23a1.42,1.42,0,0,1,0-2.84Z"/><rect x="14.66" y="28.89" width="2.85" height="2.85"/><path d="M18.92,31.73H17.5V28.89h1.42a1.42,1.42,0,1,1,0,2.84Z"/><path d="M28.89,31.73V28.89H26A2.84,2.84,0,0,0,28.89,31.73Z"/><path d="M31.73,28.89H28.89v2.84A2.84,2.84,0,0,0,31.73,28.89Z"/><path d="M36,28.89h1.42v2.84H36a1.42,1.42,0,1,1,0-2.84Z"/><path d="M38.85,31.73H37.42V28.89h1.43a1.42,1.42,0,1,1,0,2.84Z"/><rect x="43.11" y="28.89" width="2.85" height="2.85"/><rect x="45.96" y="28.89" width="2.85" height="2.85"/><rect x="48.81" y="28.89" width="2.85" height="2.85"/><rect x="51.65" y="28.89" width="2.85" height="2.85"/><rect x="60.19" y="28.89" width="2.85" height="2.85"/><path d="M64.46,31.73H63V28.89h1.42a1.42,1.42,0,1,1,0,2.84Z"/><path d="M68.73,30.31V28.89h2.84v1.42a1.42,1.42,0,1,1-2.84,0Z"/><rect x="6.12" y="31.73" width="2.85" height="2.85"/><path d="M24.62,31.73a1.43,1.43,0,1,1-1.43,1.42A1.43,1.43,0,0,1,24.62,31.73Z"/><path d="M41.69,31.73h1.42v2.85H41.69a1.43,1.43,0,0,1,0-2.85Z"/><rect x="43.11" y="31.73" width="2.85" height="2.85"/><rect x="45.96" y="31.73" width="2.85" height="2.85"/><rect x="51.65" y="31.73" width="2.85" height="2.85"/><path d="M60.19,33.15V31.73H63v1.42a1.43,1.43,0,1,1-2.85,0Z"/><path d="M4.69,34.58H6.12v2.84H4.69a1.42,1.42,0,1,1,0-2.84Z"/><rect x="6.12" y="34.58" width="2.85" height="2.85"/><rect x="8.96" y="34.58" width="2.85" height="2.85"/><path d="M13.23,37.42H11.81V34.58h1.42a1.42,1.42,0,1,1,0,2.84Z"/><path d="M18.92,34.58A1.42,1.42,0,1,1,17.5,36,1.42,1.42,0,0,1,18.92,34.58Z"/><path d="M27.46,34.58A1.42,1.42,0,1,1,26,36,1.42,1.42,0,0,1,27.46,34.58Z"/><path d="M33.15,34.58A1.42,1.42,0,1,1,31.73,36,1.42,1.42,0,0,1,33.15,34.58Z"/><rect x="43.11" y="34.58" width="2.85" height="2.85"/><rect x="45.96" y="34.58" width="2.85" height="2.85"/><rect x="51.65" y="34.58" width="2.85" height="2.85"/><path d="M54.5,34.58v2.84h2.84A2.84,2.84,0,0,0,54.5,34.58Z"/><path d="M71.57,36v1.42H68.73V36a1.42,1.42,0,0,1,2.84,0Z"/><rect x="8.96" y="37.42" width="2.85" height="2.85"/><path d="M21.77,37.42a1.43,1.43,0,1,1-1.42,1.43A1.42,1.42,0,0,1,21.77,37.42Z"/><path d="M30.31,37.42a1.43,1.43,0,1,1-1.42,1.43A1.43,1.43,0,0,1,30.31,37.42Z"/><path d="M41.69,37.42h1.42v2.85H41.69a1.43,1.43,0,0,1,0-2.85Z"/><rect x="43.11" y="37.42" width="2.85" height="2.85"/><rect x="45.96" y="37.42" width="2.85" height="2.85"/><rect x="48.81" y="37.42" width="2.85" height="2.85"/><rect x="51.65" y="37.42" width="2.85" height="2.85"/><path d="M57.34,37.42H54.5v2.85A2.85,2.85,0,0,0,57.34,37.42Z"/><path d="M67.31,37.42h1.42v2.85H67.31a1.43,1.43,0,1,1,0-2.85Z"/><rect x="68.73" y="37.42" width="2.85" height="2.85"/><path d="M1.85,40.27H3.27v2.84H1.85a1.42,1.42,0,1,1,0-2.84Z"/><path d="M4.69,43.11H3.27V40.27H4.69a1.42,1.42,0,1,1,0,2.84Z"/><rect x="8.96" y="40.27" width="2.85" height="2.85"/><path d="M18.92,40.27a1.42,1.42,0,1,1-1.42,1.42A1.43,1.43,0,0,1,18.92,40.27Z"/><path d="M24.62,40.27a1.42,1.42,0,1,1-1.43,1.42A1.43,1.43,0,0,1,24.62,40.27Z"/><path d="M33.15,40.27a1.42,1.42,0,1,1-1.42,1.42A1.43,1.43,0,0,1,33.15,40.27Z"/><path d="M38.85,40.27a1.42,1.42,0,1,1-1.43,1.42A1.43,1.43,0,0,1,38.85,40.27Z"/><rect x="43.11" y="40.27" width="2.85" height="2.85"/><rect x="48.81" y="40.27" width="2.85" height="2.85"/><path d="M60.19,43.11H63V40.27A2.84,2.84,0,0,0,60.19,43.11Z"/><path d="M64.46,43.11H63V40.27h1.42a1.42,1.42,0,1,1,0,2.84Z"/><path d="M68.73,41.69V40.27h2.84v1.42a1.42,1.42,0,0,1-2.84,0Z"/><rect x="8.96" y="43.11" width="2.85" height="2.85"/><rect x="11.81" y="43.11" width="2.85" height="2.85"/><path d="M14.66,43.11V46H17.5A2.85,2.85,0,0,0,14.66,43.11Z"/><path d="M26,46h2.85V43.11A2.85,2.85,0,0,0,26,46Z"/><path d="M28.89,43.11V46h2.84A2.85,2.85,0,0,0,28.89,43.11Z"/><path d="M40.27,46h2.84V43.11A2.85,2.85,0,0,0,40.27,46Z"/><rect x="43.11" y="43.11" width="2.85" height="2.85"/><rect x="45.96" y="43.11" width="2.85" height="2.85"/><rect x="48.81" y="43.11" width="2.85" height="2.85"/><path d="M54.5,46h2.84V43.11A2.85,2.85,0,0,0,54.5,46Z"/><rect x="57.34" y="43.11" width="2.85" height="2.85"/><path d="M63,43.11H60.19V46A2.85,2.85,0,0,0,63,43.11Z"/><path d="M1.85,46H3.27v2.85H1.85a1.43,1.43,0,0,1,0-2.85Z"/><path d="M4.69,48.81H3.27V46H4.69a1.43,1.43,0,1,1,0,2.85Z"/><path d="M9,47.38V46h2.85v1.42a1.43,1.43,0,1,1-2.85,0Z"/><path d="M17.5,48.81V46H14.66A2.85,2.85,0,0,0,17.5,48.81Z"/><path d="M18.92,48.81H17.5V46h1.42a1.43,1.43,0,1,1,0,2.85Z"/><path d="M28.89,48.81V46H26A2.85,2.85,0,0,0,28.89,48.81Z"/><rect x="28.89" y="45.96" width="2.85" height="2.85"/><rect x="31.73" y="45.96" width="2.85" height="2.85"/><path d="M34.58,46v2.85h2.84A2.85,2.85,0,0,0,34.58,46Z"/><path d="M40.27,47.38V46h2.84v1.42a1.42,1.42,0,1,1-2.84,0Z"/><rect x="45.96" y="45.96" width="2.85" height="2.85"/><rect x="48.81" y="45.96" width="2.85" height="2.85"/><rect x="51.65" y="45.96" width="2.85" height="2.85"/><rect x="54.5" y="45.96" width="2.85" height="2.85"/><rect x="57.34" y="45.96" width="2.85" height="2.85"/><path d="M67.31,46a1.43,1.43,0,1,1-1.43,1.42A1.43,1.43,0,0,1,67.31,46Z"/><path d="M26,50.23v1.42H23.19V50.23a1.43,1.43,0,0,1,2.85,0Z"/><rect x="34.58" y="48.81" width="2.85" height="2.85"/><path d="M38.85,51.65H37.42V48.81h1.43a1.42,1.42,0,1,1,0,2.84Z"/><rect x="45.96" y="48.81" width="2.85" height="2.85"/><rect x="57.34" y="48.81" width="2.85" height="2.85"/><path d="M71.57,50.23v1.42H68.73V50.23a1.42,1.42,0,1,1,2.84,0Z"/><path d="M23.19,53.08V51.65H26v1.43a1.43,1.43,0,0,1-2.85,0Z"/><rect x="34.58" y="51.65" width="2.85" height="2.85"/><rect x="45.96" y="51.65" width="2.85" height="2.85"/><path d="M53.08,51.65a1.43,1.43,0,1,1-1.43,1.43A1.43,1.43,0,0,1,53.08,51.65Z"/><rect x="57.34" y="51.65" width="2.85" height="2.85"/><rect x="68.73" y="51.65" width="2.85" height="2.85"/><path d="M27.46,54.5h1.43v2.84H27.46a1.42,1.42,0,1,1,0-2.84Z"/><rect x="28.89" y="54.5" width="2.85" height="2.85"/><rect x="31.73" y="54.5" width="2.85" height="2.85"/><path d="M37.42,54.5H34.58v2.84A2.84,2.84,0,0,0,37.42,54.5Z"/><path d="M40.27,57.34h2.84V54.5A2.84,2.84,0,0,0,40.27,57.34Z"/><rect x="43.11" y="54.5" width="2.85" height="2.85"/><rect x="45.96" y="54.5" width="2.85" height="2.85"/><rect x="57.34" y="54.5" width="2.85" height="2.85"/><rect x="68.73" y="54.5" width="2.85" height="2.85"/><rect x="28.89" y="57.34" width="2.85" height="2.85"/><path d="M37.42,60.19h2.85V57.34A2.86,2.86,0,0,0,37.42,60.19Z"/><rect x="40.27" y="57.34" width="2.85" height="2.85"/><rect x="43.11" y="57.34" width="2.85" height="2.85"/><rect x="45.96" y="57.34" width="2.85" height="2.85"/><rect x="48.81" y="57.34" width="2.85" height="2.85"/><rect x="51.65" y="57.34" width="2.85" height="2.85"/><rect x="54.5" y="57.34" width="2.85" height="2.85"/><rect x="57.34" y="57.34" width="2.85" height="2.85"/><path d="M68.73,58.77V57.34h2.84v1.43a1.42,1.42,0,1,1-2.84,0Z"/><path d="M27.46,60.19h1.43V63H27.46a1.43,1.43,0,0,1,0-2.85Z"/><path d="M31.73,60.19H28.89V63A2.85,2.85,0,0,0,31.73,60.19Z"/><path d="M37.42,61.61V60.19h2.85v1.42a1.43,1.43,0,1,1-2.85,0Z"/><path d="M48.81,61.61V60.19h2.84v1.42a1.42,1.42,0,1,1-2.84,0Z"/><rect x="57.34" y="60.19" width="2.85" height="2.85"/><path d="M64.46,60.19h1.42V63H64.46a1.43,1.43,0,0,1,0-2.85Z"/><path d="M65.88,60.19V63h2.85A2.85,2.85,0,0,0,65.88,60.19Z"/><path d="M24.62,63a1.42,1.42,0,1,1-1.43,1.42A1.42,1.42,0,0,1,24.62,63Z"/><path d="M33.15,63a1.42,1.42,0,1,1-1.42,1.42A1.42,1.42,0,0,1,33.15,63Z"/><path d="M48.81,64.46v1.42H46V64.46a1.43,1.43,0,0,1,2.85,0Z"/><path d="M54.5,65.88h2.84V63A2.84,2.84,0,0,0,54.5,65.88Z"/><rect x="57.34" y="63.04" width="2.85" height="2.85"/><path d="M61.61,65.88H60.19V63h1.42a1.42,1.42,0,1,1,0,2.84Z"/><path d="M68.73,65.88V63H65.88A2.85,2.85,0,0,0,68.73,65.88Z"/><path d="M70.15,65.88H68.73V63h1.42a1.42,1.42,0,0,1,0,2.84Z"/><path d="M27.46,65.88h1.43v2.85H27.46a1.43,1.43,0,0,1,0-2.85Z"/><path d="M30.31,68.73H28.89V65.88h1.42a1.43,1.43,0,0,1,0,2.85Z"/><path d="M40.27,67.31v1.42H37.42V67.31a1.43,1.43,0,1,1,2.85,0Z"/><path d="M44.54,65.88H46v2.85H44.54a1.43,1.43,0,1,1,0-2.85Z"/><rect x="45.96" y="65.88" width="2.85" height="2.85"/><path d="M57.34,68.73V65.88H54.5A2.85,2.85,0,0,0,57.34,68.73Z"/><path d="M60.19,65.88H57.34v2.85A2.85,2.85,0,0,0,60.19,65.88Z"/><path d="M24.62,68.73a1.42,1.42,0,1,1-1.43,1.42A1.43,1.43,0,0,1,24.62,68.73Z"/><path d="M33.15,68.73h1.43v2.84H33.15a1.42,1.42,0,1,1,0-2.84Z"/><rect x="34.58" y="68.73" width="2.85" height="2.85"/><path d="M40.27,68.73H37.42v2.84A2.85,2.85,0,0,0,40.27,68.73Z"/><path d="M48.81,71.57V68.73H46A2.85,2.85,0,0,0,48.81,71.57Z"/><rect x="48.81" y="68.73" width="2.85" height="2.85"/><path d="M53.08,71.57H51.65V68.73h1.43a1.42,1.42,0,0,1,0,2.84Z"/><path d="M61.61,68.73a1.42,1.42,0,1,1-1.42,1.42A1.43,1.43,0,0,1,61.61,68.73Z"/><path d="M70.15,68.73a1.42,1.42,0,1,1-1.42,1.42A1.42,1.42,0,0,1,70.15,68.73Z"/><path class="cls-2" d="M3.41,13.62V7.15A3.78,3.78,0,0,1,7.23,3.41h6.32a3.78,3.78,0,0,1,3.81,3.74V17.36H7.23A3.78,3.78,0,0,1,3.41,13.62Z"/><path d="M.43,13.62V7.15A6.76,6.76,0,0,1,7.23.43h6.32a6.76,6.76,0,0,1,6.8,6.72v13.2H7.23A6.76,6.76,0,0,1,.43,13.62Zm3,0a3.78,3.78,0,0,0,3.82,3.74H17.36V7.15a3.78,3.78,0,0,0-3.81-3.74H7.23A3.78,3.78,0,0,0,3.41,7.15Z"/><path class="cls-2" d="M68.59,13.62V7.15a3.78,3.78,0,0,0-3.82-3.74H58.45a3.78,3.78,0,0,0-3.81,3.74V17.36H64.77A3.78,3.78,0,0,0,68.59,13.62Z"/><path d="M71.57,13.62V7.15A6.76,6.76,0,0,0,64.77.43H58.45a6.76,6.76,0,0,0-6.8,6.72v13.2H64.77A6.76,6.76,0,0,0,71.57,13.62Zm-3,0a3.78,3.78,0,0,1-3.82,3.74H54.64V7.15a3.78,3.78,0,0,1,3.81-3.74h6.32a3.78,3.78,0,0,1,3.82,3.74Z"/><path class="cls-2" d="M3.41,58.38v6.47a3.78,3.78,0,0,0,3.82,3.74h6.32a3.78,3.78,0,0,0,3.81-3.74V54.64H7.23A3.78,3.78,0,0,0,3.41,58.38Z"/><path d="M.43,58.38v6.47a6.76,6.76,0,0,0,6.8,6.72h6.32a6.76,6.76,0,0,0,6.8-6.72V51.65H7.23A6.76,6.76,0,0,0,.43,58.38Zm3,0a3.78,3.78,0,0,1,3.82-3.74H17.36V64.85a3.78,3.78,0,0,1-3.81,3.74H7.23a3.78,3.78,0,0,1-3.82-3.74Z"/><path d="M6.12,12.33V8.44A2.34,2.34,0,0,1,8.48,6.12H12.3a2.34,2.34,0,0,1,2.36,2.32v6.22H8.48A2.34,2.34,0,0,1,6.12,12.33Z"/><path d="M65.88,12.33V8.44a2.34,2.34,0,0,0-2.36-2.32H59.7a2.34,2.34,0,0,0-2.36,2.32v6.22h6.18A2.34,2.34,0,0,0,65.88,12.33Z"/><path d="M6.12,59.67v3.89a2.34,2.34,0,0,0,2.36,2.32H12.3a2.34,2.34,0,0,0,2.36-2.32V57.34H8.48A2.34,2.34,0,0,0,6.12,59.67Z"/></svg>