<?xml version="1.0" encoding="UTF-8" standalone="no"?>
<svg
   xmlns:dc="http://purl.org/dc/elements/1.1/"
   xmlns:cc="http://creativecommons.org/ns#"
   xmlns:rdf="http://www.w3.org/1999/02/22-rdf-syntax-ns#"
   xmlns:svg="http://www.w3.org/2000/svg"
   xmlns="http://www.w3.org/2000/svg"
   xmlns:sodipodi="http://sodipodi.sourceforge.net/DTD/sodipodi-0.dtd"
   xmlns:inkscape="http://www.inkscape.org/namespaces/inkscape"
   version="1.1"
   id="ic_empty_Dark_transactions"
   inkscape:version="1.0.1 (3bc2e813f5, 2020-09-07)"
   sodipodi:docname="img-empty-dark-transactions.svg"
   x="0px"
   y="0px"
   viewBox="0 0 100 100"
   style="enable-background:new 0 0 100 100;"
   xml:space="preserve"><metadata
   id="metadata34"><rdf:RDF><cc:Work
       rdf:about=""><dc:format>image/svg+xml</dc:format><dc:type
         rdf:resource="http://purl.org/dc/dcmitype/StillImage" /></cc:Work></rdf:RDF></metadata><defs
   id="defs32" />
<style
   type="text/css"
   id="style2">
	.st0{fill:#2EA1FF;}
	.st1{fill:#A09EA5;}
	.st2{fill:#EFEFEF;}
</style>
<sodipodi:namedview
   bordercolor="#666666"
   borderopacity="1"
   gridtolerance="10"
   guidetolerance="10"
   id="namedview22"
   inkscape:current-layer="Group_9036"
   inkscape:cx="-90.751079"
   inkscape:cy="65.281312"
   inkscape:pageopacity="0"
   inkscape:pageshadow="2"
   inkscape:window-height="2066"
   inkscape:window-width="3840"
   inkscape:zoom="6.1358825"
   objecttolerance="10"
   pagecolor="#ffffff"
   showgrid="false"
   inkscape:document-rotation="0"
   inkscape:window-x="3829"
   inkscape:window-y="-11"
   inkscape:window-maximized="1">
	</sodipodi:namedview>
<g
   id="Group_9036">
	<circle
   class="st0"
   cx="49.900002"
   cy="50"
   id="circle5"
   r="17.9"
   style="fill:#0c1e2d;fill-opacity:1" />
	<path
   id="Path_18988"
   class="st0"
   d="M50,26c-13.3,0-24,10.7-24,24s10.7,24,24,24s24-10.7,24-24S63.3,26,50,26z M50,68   c-9.9,0-18-8.1-18-18s8.1-18,18-18s18,8.1,18,18S59.9,68,50,68z"
   style="fill:#0c1e2d;fill-opacity:1" />
	<g
   id="Group_9035">
		<g
   id="Group_9034">
			
			<path
   id="Rectangle_4693"
   class="st1"
   d="M83,56h2v4h-2V56z" />
			<path
   id="Rectangle_4694"
   class="st1"
   d="M83,44h2v8h-2V44z" />
			<path
   id="Rectangle_4695"
   class="st1"
   d="M15,48h2v8h-2V48z" />
			<path
   id="Rectangle_4696"
   class="st1"
   d="M15,40h2v4h-2V40z" />
			<path
   id="Path_18991"
   class="st1"
   d="M95.2,71H85v-7h-2v9h7.8L76,90.5L61.2,73H68v-2h-4.5c11.6-7.5,15-22.9,7.5-34.5     c-6.4-9.9-18.9-14-29.9-9.8L24,6.5L4.8,29H15v7h2v-9H9.2L24,9.5L38.8,27H32v2h4.5c-11.6,7.5-15,22.9-7.5,34.5     c6.4,9.9,18.9,14,29.9,9.8L76,93.5L95.2,71z M27,50c0-12.7,10.3-23,23-23s23,10.3,23,23S62.7,73,50,73S27,62.7,27,50z" />
		</g>
	</g>
	
<path
   id="path850"
   style="fill:#27cafc;fill-opacity:1;fill-rule:nonzero;stroke:none;stroke-width:0.221278"
   d="m 49.895319,37.521998 c -0.07376,0 -0.219529,0.293305 -0.883358,2.284793 -0.368796,1.253901 -0.88625,2.582101 -1.033768,2.950895 -0.442554,1.032625 -1.106166,2.14032 -2.728862,4.574366 -1.622695,2.434042 -2.064275,3.245694 -2.506828,4.278319 -1.401419,3.171632 -0.739203,6.636152 1.621082,9.143953 1.106384,1.106382 2.729133,2.065905 4.204307,2.287181 0.221278,0 0.516197,0.07402 0.663713,0.07402 h 1.033769 c 1.917729,-0.07376 3.614877,-0.812007 5.090055,-2.287181 1.2539,-1.253903 2.063768,-2.727754 2.358804,-4.497967 0.147511,-0.663829 0.147511,-2.360821 0,-2.950893 -0.368796,-1.622696 -1.031281,-2.949551 -3.096529,-6.047423 -2.434042,-3.614193 -2.656499,-4.130221 -3.83664,-7.59689 -0.590072,-1.91773 -0.738227,-2.21317 -0.885745,-2.21317 z m -4.645988,12.168859 c 0,0 0.222539,2.52e-4 0.370055,0.07402 0.368796,0.147529 0.367669,0.148781 0.367669,0.370057 0,0.295035 0.22116,0.590457 0.663713,0.811734 0.147511,0.07376 0.36792,0.145642 0.441679,0.145642 0,0 0.07402,0.07476 0.07402,0.296046 0,0.295033 7.55e-4,0.368424 0.222033,0.5897 0.14751,0.147511 0.368425,0.296298 0.589701,0.370055 0.147511,0.07376 0.370056,0.145886 0.370056,0.219647 0,0 -0.368929,0.517708 -0.737723,1.107778 -0.590072,0.958865 -0.737725,1.18016 -0.737725,1.401437 0,0.81135 1.2538,1.325911 2.065149,0.883358 0.221276,-0.147511 0.441445,-0.441328 1.769103,-2.432816 0.811349,-1.253903 1.549711,-2.21317 1.623469,-2.21317 0,0 0.07402,0.220655 0.07402,0.51569 0.07376,0.811347 0.146651,0.958376 0.441678,1.253413 0.295037,0.221276 0.738986,0.370055 1.10778,0.370055 0.295035,0 0.664216,-0.148781 0.811736,-0.370055 0.147511,-0.147511 0.145642,-0.292918 0.145642,-1.473059 0,-1.106382 2.55e-4,-1.32956 0.07402,-1.255803 0.07375,0 0.294666,0.443445 0.589701,0.959759 0.811348,1.622694 1.107276,2.950659 0.959757,4.278319 -0.221275,1.770214 -0.88526,3.172185 -2.139158,4.35233 -1.032649,1.032606 -2.065186,1.621824 -3.466605,1.843099 -2.065256,0.295035 -3.982804,-0.36794 -5.531739,-1.843114 -0.958866,-0.958868 -1.548082,-1.919281 -1.843117,-3.246939 -0.221276,-0.66383 -0.295539,-2.213054 -0.148015,-2.876883 0.07375,-0.66383 0.44294,-1.694975 0.811734,-2.358806 0.295037,-0.663831 0.957623,-1.697732 1.03138,-1.771491 z m 1.401437,2.802871 c -0.221277,0 -0.810609,0.443445 -1.179405,0.959757 -1.2539,1.770215 -0.295891,4.351714 1.843116,4.868021 0.811348,0.221275 1.475836,0.146502 2.287182,-0.296044 1.032628,-0.442553 1.695093,-1.622476 1.695093,-2.72886 0,-0.295037 -0.07288,-0.442185 -0.441678,-0.589702 -0.368795,-0.221277 -0.441679,-0.07439 -0.441679,0.51569 0.07375,0.59007 -0.07503,0.885124 -0.370056,1.401436 -0.442553,0.663829 -1.180044,0.959757 -2.065148,0.959757 -0.885107,-0.07376 -1.696103,-0.59009 -1.991138,-1.401438 -0.221277,-0.368792 -0.222034,-0.517203 -0.222034,-0.959755 0,-0.516312 7.57e-4,-0.588829 0.222034,-1.03138 0.221276,-0.442555 0.58908,-0.812745 1.105392,-1.10778 0.07375,-0.07376 0.222032,-0.145885 0.222032,-0.219644 0,-0.147511 -0.442435,-0.370058 -0.663711,-0.370058 z" /></g>
</svg>
