<?xml version="1.0" encoding="UTF-8" standalone="no"?>
<svg
   xmlns:dc="http://purl.org/dc/elements/1.1/"
   xmlns:cc="http://creativecommons.org/ns#"
   xmlns:rdf="http://www.w3.org/1999/02/22-rdf-syntax-ns#"
   xmlns:svg="http://www.w3.org/2000/svg"
   xmlns="http://www.w3.org/2000/svg"
   xmlns:sodipodi="http://sodipodi.sourceforge.net/DTD/sodipodi-0.dtd"
   xmlns:inkscape="http://www.inkscape.org/namespaces/inkscape"
   version="1.1"
   id="ic_empty_transactions"
   inkscape:version="1.0.1 (3bc2e813f5, 2020-09-07)"
   sodipodi:docname="img-empty-transactions.svg"
   x="0px"
   y="0px"
   viewBox="0 0 100 100"
   style="enable-background:new 0 0 100 100;"
   xml:space="preserve"><metadata
   id="metadata34"><rdf:RDF><cc:Work
       rdf:about=""><dc:format>image/svg+xml</dc:format><dc:type
         rdf:resource="http://purl.org/dc/dcmitype/StillImage" /></cc:Work></rdf:RDF></metadata><defs
   id="defs32"><pattern
     id="EMFhbasepattern"
     patternUnits="userSpaceOnUse"
     width="6"
     height="6"
     x="0"
     y="0" /></defs>
<style
   type="text/css"
   id="style2">
	.st0{fill:#2EA1FF;}
	.st1{fill:#666666;}
	.st2{fill:#EFEFEF;}
</style>
<circle
   class="st0"
   cx="50"
   cy="50"
   id="circle4"
   style="fill:#141414;fill-opacity:1"
   r="18" />
<sodipodi:namedview
   bordercolor="#666666"
   borderopacity="1"
   gridtolerance="10"
   guidetolerance="10"
   id="namedview22"
   inkscape:current-layer="ic_empty_transactions"
   inkscape:cx="29.224692"
   inkscape:cy="57.544555"
   inkscape:pageopacity="0"
   inkscape:pageshadow="2"
   inkscape:window-height="2066"
   inkscape:window-width="3840"
   inkscape:zoom="8.4711955"
   objecttolerance="10"
   pagecolor="#ffffff"
   showgrid="false"
   inkscape:document-rotation="0"
   inkscape:window-x="3829"
   inkscape:window-y="-11"
   inkscape:window-maximized="1">
	</sodipodi:namedview>
<g
   id="Group_9015">
	<path
   id="Path_18970"
   class="st0"
   d="M50,26c-13.3,0-24,10.7-24,24s10.7,24,24,24s24-10.7,24-24S63.3,26,50,26z M50,68   c-9.9,0-18-8.1-18-18s8.1-18,18-18s18,8.1,18,18S59.9,68,50,68z"
   style="fill:#141414;fill-opacity:1" />
	<g
   id="Group_9014">
		<g
   id="Group_9013">
			<path
   id="Path_18972"
   class="st0"
   d="M50,31c-10.5,0-19,8.5-19,19s8.5,19,19,19s19-8.5,19-19S60.5,31,50,31z M50,67     c-9.4,0-17-7.6-17-17s7.6-17,17-17s17,7.6,17,17S59.4,67,50,67z"
   style="fill:#141414;fill-opacity:1" />
			<path
   id="Rectangle_4664"
   class="st1"
   d="M83,56h2v4h-2V56z" />
			<path
   id="Rectangle_4665"
   class="st1"
   d="M83,44h2v8h-2V44z" />
			<path
   id="Rectangle_4666"
   class="st1"
   d="M15,48h2v8h-2V48z" />
			<path
   id="Rectangle_4667"
   class="st1"
   d="M15,40h2v4h-2V40z" />
			<path
   id="Path_18973"
   class="st1"
   d="M95.2,71H85v-7h-2v9h7.8L76,90.5L61.2,73H68v-2h-4.5c11.6-7.5,15-22.9,7.5-34.5     c-6.4-9.9-18.9-14-29.9-9.8L24,6.5L4.8,29H15v7h2v-9H9.2L24,9.5L38.8,27H32v2h4.5c-11.6,7.5-15,22.9-7.5,34.5     c6.4,9.9,18.9,14,29.9,9.8L76,93.5L95.2,71z M27,50c0-12.7,10.3-23,23-23s23,10.3,23,23S62.7,73,50,73S27,62.7,27,50z" />
		</g>
	</g>
</g>

<path
   style="fill:#f2f2f2;fill-opacity:1;fill-rule:nonzero;stroke:none;stroke-width:0.103628"
   d="m 57.891642,57.877184 c -2.728869,-4.525087 -2.728869,-4.525087 -2.728869,-4.525087 -8.532033,0 -8.532033,0 -8.532033,0 1.485334,-2.590696 1.485334,-2.590696 1.485334,-2.590696 5.526823,0 5.526823,0 5.526823,0 -4.006947,-6.735813 -4.006947,-6.735813 -4.006947,-6.735813 -8.221149,13.851596 -8.221149,13.851596 -8.221149,13.851596 -3.592435,0 -3.592435,0 -3.592435,0 C 48.219701,40.60586 48.219701,40.60586 48.219701,40.60586 c 0.37997,-0.621763 0.829024,-1.036279 1.519877,-1.036279 0.725395,0 1.139907,0.414516 1.519877,1.036279 10.431877,17.271324 10.431877,17.271324 10.431877,17.271324 z"
   id="path852" /></svg>
