<?xml version="1.0" encoding="UTF-8" standalone="no"?>
<svg
   id="Layer_1"
   data-name="Layer 1"
   viewBox="0 0 483.66 411.53001"
   version="1.1"
   width="483.66"
   height="411.53"
   xmlns="http://www.w3.org/2000/svg"
   xmlns:svg="http://www.w3.org/2000/svg">
  <defs
     id="defs4">
    <style
       id="style2">.cls-1{fill:#809e36;}.cls-2{fill:#8e1baa;}</style>
  </defs>
  <path
     class="cls-1"
     d="m 119.73,382.68 v -7.48 h 17.77 c 5.41,0 8.63,-3.41 8.63,-8.39 0,-4.98 -3.22,-8.34 -8.63,-8.34 h -23.43 v 36.5 h -7.66 v -44.23 h 31.09 c 10.22,0 16.18,6.15 16.18,15.82 0,9.67 -6,16.12 -16.18,16.12 z"
     id="path6" />
  <path
     class="cls-1"
     d="m 165.23,394.97 v -44.23 h 39.48 v 7.73 H 172.9 v 28.78 h 31.87 v 7.72 z m 13.32,-19.22 v -6.51 h 24.52 v 6.51 z"
     id="path8" />
  <path
     class="cls-1"
     d="m 237.68,394.97 c -12.35,0 -21.47,-9.73 -21.47,-22.57 0,-13 9.12,-21.66 21.47,-21.66 h 10.77 c 12.78,0 21.66,8.83 21.66,21.66 0,12.83 -9.07,22.57 -21.66,22.57 z m 10.77,-7.72 c 8.15,0 13.93,-6.15 13.93,-14.48 0,-8.33 -5.78,-14.3 -13.93,-14.3 h -10.77 c -7.91,0 -13.75,5.9 -13.75,14.3 0,8.4 5.78,14.48 13.75,14.48 z"
     id="path10" />
  <path
     class="cls-1"
     d="m 289.63,362.61 v 32.36 h -7.36 v -40.15 c 0,-2.86 1.52,-4.62 3.95,-4.62 a 4.4,4.4 0 0 1 3.29,1.58 l 31.21,31 v -32.4 h 7.36 v 40.53 c 0,2.92 -1.58,4.62 -3.83,4.62 a 4.91,4.91 0 0 1 -3.53,-1.64 z"
     id="path12" />
  <path
     class="cls-1"
     d="M 362.08,394.97 V 378.18 L 338.6,350.74 H 349 l 17.22,20.38 17.28,-20.38 h 9.85 l -23.5,27.44 v 16.79 z"
     id="path14" />
  <path
     class="cls-2"
     d="m 240.79,16 c 58.95,96.66 55.32,204.18 3,292.1 -48.62,-69.19 -66.66,-187.03 -3,-292.1 z"
     id="path16" />
  <path
     class="cls-2"
     d="M 223.74,316.48 C 114.65,321.54 46.16,248.48 16,171.21 c 18.82,-4.77 37.6,-2.93 56.27,0.88 12.2,2.49 24.21,6.19 36.38,8.89 6.71,1.48 8.45,7.74 11.34,13.36 8.87,17.26 17.07,35.14 27.28,51.29 14.85,23.47 34.63,41.13 55.72,56.65 6.44,4.74 13.14,9.01 20.75,14.2 z"
     id="path18" />
  <path
     class="cls-2"
     d="m 110.57,58.26 c 22.77,12.68 43.94,26.87 61.49,47.4 5.44,6.37 11.43,12.22 16.18,19.23 2.17,3.21 2.59,8.6 2.67,13 0.29,15.6 0,31.21 0.11,46.82 0.14,20.75 4.76,40.57 11.22,59.58 6.94,20.44 15.43,40.18 22.42,58.1 C 149.74,261.26 101.1,166.43 110.57,58.26 Z"
     id="path20" />
  <path
     class="cls-2"
     d="m 261.03,302.17 c 6.18,-15.82 13.26,-31 18.11,-47.15 a 390.24,390.24 0 0 0 12,-53.4 c 2.42,-15.89 2.54,-32.29 3.18,-48.48 a 73.57,73.57 0 0 0 -1.47,-18.77 c -1.74,-7.73 1.89,-12.53 5.78,-16.84 10.14,-11.24 20.09,-23 31.3,-32.63 13.26,-11.45 27.77,-21 42.39,-31.79 8.98,128.93 -48.02,211.94 -111.29,249.06 z"
     id="path22" />
  <path
     class="cls-2"
     d="m 264.54,314.3 a 226.4,226.4 0 0 0 63.51,-56.92 c 15,-19.61 28.76,-40.68 36.25,-65.89 3.85,-12.93 13.44,-14.84 22.17,-17.45 17.1,-5.12 34.44,-9.42 52.35,-8.75 9.57,0.36 19.16,0.07 28.84,0.07 -24.75,76.83 -101.42,156.55 -203.12,148.94 z"
     id="path24" />
  <path
     class="cls-2"
     d="m 170.53,25.18 c 8.32,9.63 14.6,18.56 22.28,25.35 10.44,9.24 13.26,19.2 6.86,32.75 -2,4.23 -3.13,9.08 -4.29,13.78 -1.16,4.7 -1.79,9.32 -2.58,13.59 -10,-10.29 -19.74,-20 -29.13,-30.23 -1.88,-2 -3.8,-6.14 -3.32,-8.67 2.81,-14.79 6.34,-29.39 10.18,-46.57 z"
     id="path26" />
  <path
     class="cls-2"
     d="m 311.02,24.42 c 4.08,18 7.61,33.39 11,48.81 a 5.9,5.9 0 0 1 -1.08,4.41 c -10.3,10.61 -20.74,21 -31,31.39 -4.09,-13.3 -8.4,-27.15 -12.55,-41.06 a 4.93,4.93 0 0 1 0.83,-3.76 c 7.56,-9 15.29,-17.89 22.88,-26.9 2.93,-3.56 5.68,-7.4 9.92,-12.89 z"
     id="path28" />
  <path
     class="cls-2"
     d="m 52.06,107.73 c 12.12,4.07 24.15,8.52 36.38,12.07 6.61,1.92 9.7,5.17 10.54,13.67 1.09,11.11 4.33,21.93 6.74,33.33 l -44,-9.51 c -3.63,-14.52 -7.8,-31.22 -12,-47.92 z"
     id="path30" />
  <path
     class="cls-2"
     d="m 432.33,106.96 c -3.41,15.21 -6,28.56 -9.62,41.52 -0.85,3.07 -4.85,6.14 -7.87,7 -11.73,3.35 -23.66,5.82 -35.52,8.56 a 6.57,6.57 0 0 1 -2.09,-0.17 c 2.29,-13.21 4.48,-26.32 7,-39.36 0.23,-1.23 2.32,-2.37 3.73,-2.85 14.23,-4.81 28.53,-9.48 44.37,-14.7 z"
     id="path32" />
  <rect
     class="cls-2"
     x="239.98"
     y="60.150002"
     width="6.3499999"
     height="279.19"
     id="rect34" />
</svg>
