<?xml version="1.0" encoding="UTF-8" standalone="no"?>
<svg
   xmlns:dc="http://purl.org/dc/elements/1.1/"
   xmlns:cc="http://creativecommons.org/ns#"
   xmlns:rdf="http://www.w3.org/1999/02/22-rdf-syntax-ns#"
   xmlns:svg="http://www.w3.org/2000/svg"
   xmlns="http://www.w3.org/2000/svg"
   height="512"
   width="512"
   version="1.1"
   viewBox="0 0 512.00001 512"
   data-name="Layer 1"
   id="Layer_1">
  <metadata
     id="metadata10">
    <rdf:RDF>
      <cc:Work
         rdf:about="">
        <dc:format>image/svg+xml</dc:format>
        <dc:type
           rdf:resource="http://purl.org/dc/dcmitype/StillImage" />
        <dc:title></dc:title>
      </cc:Work>
    </rdf:RDF>
  </metadata>
  <defs
     id="defs4">
    <style
       id="style2">.cls-1{fill:#f1f2f2;}.cls-2{fill:#00dd80;}</style>
  </defs>
  <g
     transform="matrix(0.82888839,0,0,0.82888839,100.56097,14.575835)"
     id="g15">
    <path
       class="cls-1"
       d="m 319.58535,244.2 a 354.88,354.88 0 0 0 -268.290001,0.56 c -5.54,2.27 -9.7,8.63 -9.69,14.81 v 15.62 l 0.42,141.35 v 15.62 c 0,6.17 4.21,12.52 9.76,14.77 a 355,355 0 0 0 268.300001,-0.56 c 5.53,-2.27 9.7,-8.64 9.68,-14.81 v -15.34 l -0.38,-141.89 v -15.34 c -0.06,-6.2 -4.25,-12.55 -9.8,-14.79 z"
       id="path6"
       style="fill:#f1f2f2" />
    <path
       class="cls-2"
       d="m 35.415349,242.18 c -10.62,0 -19.28,7.5 -19.37,16.83 -0.39,37.31 1.42,80.16 18,119.63 a 177.14,177.14 0 0 0 48.67,66.51 c 24.460001,20.94 56.510001,37.57 95.240001,49.42 a 33.23,33.23 0 0 0 9.57,1.43 h 0.35 a 34.08,34.08 0 0 0 5.32,-0.5 32.13,32.13 0 0 0 3.93,-0.94 c 38.68,-11.87 70.69,-28.5 95.13,-49.44 a 177.66,177.66 0 0 0 48.68,-66.53 c 16.59,-39.47 18.44,-82.27 18.08,-119.58 -0.09,-9.32 -8.75,-16.83 -19.38,-16.83 z"
       id="path8"
       style="fill:#00dd80" />
    <path
       class="cls-1"
       d="m 191.62535,86.609999 c -1.37,0 -2.74,0 -4.1,-0.06 -1.36,-0.06 -2.73,0 -4.1,0.06 C 111.52535,89.159999 53.785349,144.8 53.785349,212.84 v 102.7 c 0,68 57.700001,123.68 129.640001,126.23 1.37,0.05 2.74,0.07 4.1,0.08 1.36,0.01 2.73,0 4.1,-0.08 71.9,-2.6 129.64,-58.23 129.64,-126.23 v -102.7 c 0,-68.04 -57.74,-123.680001 -129.64,-126.230001 z m -4.1,311.870001 c -48.23,-0.73 -87.23,-37.71 -87.23,-83.07 V 212.92 c 0,-45.36 39,-82.33 87.23,-83.07 48.23,0.74 87.23,37.71 87.23,83.07 v 60.35 a 12,12 0 0 0 -2.48,1.13 l -29.07,17.8 -25.68,15.75 a 28.67,28.67 0 1 0 0,25.84 l 25.68,15.75 17.47,10.7 c -15.54,22.63 -42.47,37.77 -73.15,38.24 z"
       id="path10"
       style="fill:#f1f2f2" />
  </g>
</svg>
