<?xml version="1.0" encoding="UTF-8" standalone="no"?>
<svg
   xmlns:dc="http://purl.org/dc/elements/1.1/"
   xmlns:cc="http://creativecommons.org/ns#"
   xmlns:rdf="http://www.w3.org/1999/02/22-rdf-syntax-ns#"
   xmlns:svg="http://www.w3.org/2000/svg"
   xmlns="http://www.w3.org/2000/svg"
   xmlns:sodipodi="http://sodipodi.sourceforge.net/DTD/sodipodi-0.dtd"
   xmlns:inkscape="http://www.inkscape.org/namespaces/inkscape"
   id="Layer_1"
   data-name="Layer 1"
   viewBox="0 0 98.45 82.24"
   version="1.1"
   sodipodi:docname="img-empty-contacts.svg"
   inkscape:version="1.0.2 (e86c870879, 2021-01-15, custom)">
  <sodipodi:namedview
     pagecolor="#ffffff"
     bordercolor="#666666"
     borderopacity="1"
     objecttolerance="10"
     gridtolerance="10"
     guidetolerance="10"
     inkscape:pageopacity="0"
     inkscape:pageshadow="2"
     inkscape:window-width="3840"
     inkscape:window-height="2066"
     id="namedview8"
     showgrid="false"
     inkscape:zoom="8.937257"
     inkscape:cx="49.224998"
     inkscape:cy="41.119999"
     inkscape:window-x="3829"
     inkscape:window-y="-11"
     inkscape:window-maximized="1"
     inkscape:current-layer="Layer_1" />
  <metadata
     id="metadata13">
    <rdf:RDF>
      <cc:Work
         rdf:about="">
        <dc:format>image/svg+xml</dc:format>
        <dc:type
           rdf:resource="http://purl.org/dc/dcmitype/StillImage" />
        <dc:title></dc:title>
      </cc:Work>
    </rdf:RDF>
  </metadata>
  <defs
     id="defs4">
    <style
       id="style2">.cls-1{fill:#eaeaea;}</style>
  </defs>
  <path
     class="cls-1"
     d="m 51.787067,49.190367 a 10.108803,10.090857 0 0 0 -7.870361,-4.236551 h -0.196982 a 7.7987308,7.7848861 0 0 1 -7.727101,-6.864285 14.66627,14.640233 0 0 0 3.142772,-3.164007 19.904223,19.868888 0 0 0 3.581507,-9.223883 2.1399502,2.1361513 0 0 0 0.340243,-0.527335 15.561646,15.534021 0 0 0 1.208758,-6.059877 c 0,-8.115587 -6.142284,-14.720674 -13.699263,-14.720674 A 12.723302,12.700715 0 0 0 24.925767,5.71656 9.5805303,9.5635225 0 0 0 22.964892,6.0740748 C 16.697256,7.8616491 13.115749,15.521405 15.004994,23.056031 a 17.907533,17.875743 0 0 0 0.743163,2.234468 1.8355222,1.8322637 0 0 0 0.331289,0.518396 c 0.725255,5.362723 3.250217,9.769094 6.706371,12.280636 a 7.7808232,7.7670103 0 0 1 -7.7271,6.864285 H 14.879641 A 10.099849,10.081919 0 0 0 5.1468968,54.999983 v 10.850576 a 1.7907533,1.7875743 0 0 0 1.8355222,1.841202 h 32.439497 a 1.8444759,1.8412015 0 0 0 0,-3.673465 H 8.8179412 V 54.999983 A 6.4288045,6.4173917 0 0 1 15.246746,48.59153 h 0.179075 a 11.398145,11.37791 0 0 0 3.760582,-0.768657 l 8.694107,12.51302 a 1.8355222,1.8322637 0 0 0 3.01742,0 l 8.694107,-12.51302 a 11.451868,11.431538 0 0 0 3.769536,0.768657 h 0.179075 a 6.4108969,6.399516 0 0 1 5.246908,2.681361 1.8534297,1.8501394 0 0 0 2.560777,0.437956 1.7907533,1.7875743 0 0 0 0.438734,-2.52048 z M 24.030391,9.5687826 a 6.5183421,6.5067704 0 0 1 1.513186,-0.2502604 1.7907533,1.7875743 0 0 0 0.770024,-0.2055711 9.1955184,9.179194 0 0 1 4.297808,-1.0814824 c 5.37226,0 9.849144,4.7638853 10.019265,10.7254453 a 6.5362497,6.5246462 0 0 0 -3.966519,-1.331742 h -9.643206 a 2.148904,2.1450892 0 0 1 -1.30725,-0.437956 2.0772739,2.0735862 0 0 1 -0.725255,-0.938477 2.1578578,2.154027 0 0 0 -4.091872,0.268137 12.660626,12.63815 0 0 1 -2.524962,4.889015 C 17.413557,15.852106 19.813167,10.775395 23.994576,9.5687826 Z M 19.669906,25.093865 a 16.537607,16.508249 0 0 0 3.823259,-5.166089 v 0 a 5.8378559,5.8274922 0 0 0 3.509876,1.161923 h 9.625299 a 2.9099742,2.9048082 0 0 1 2.623454,1.644568 17.101694,17.071335 0 0 1 -3.071142,10.028292 c -1.85343,2.502604 -4.261993,3.879036 -6.786955,3.879036 A 8.3807256,8.3658477 0 0 1 22.9828,33.245204 15.964566,15.936225 0 0 1 19.669906,25.093865 Z m 9.723791,30.987601 -7.037661,-10.126609 a 11.496636,11.476227 0 0 0 3.841166,-6.167131 10.538583,10.519875 0 0 0 3.187541,0.491583 10.67289,10.653943 0 0 0 3.187541,-0.491583 11.407099,11.386848 0 0 0 3.841166,6.167131 z"
     id="path6"
     style="stroke-width:0.894582;fill:#cccccc;fill-opacity:1" />
  <path
     class="cls-1"
     d="m 83.555031,55.125114 h -0.179075 a 7.7808232,7.7670103 0 0 1 -7.727101,-6.882161 16.385393,16.356305 0 0 0 5.37226,-7.060919 1.7907533,1.7875743 0 0 0 1.208759,1.206613 1.6206318,1.6177547 0 0 0 0.54618,0.08938 1.8355222,1.8322637 0 0 0 1.360972,-0.715029 18.605927,18.572897 0 0 0 3.787444,-12.003562 18.677557,18.6444 0 0 0 -4.351531,-11.619233 13.538095,13.514062 0 0 0 -10.180433,-4.99627 c -0.205936,0 -0.707347,0 -0.787931,0 a 13.744032,13.719633 0 0 0 -6.151238,-1.26024 14.970698,14.944121 0 0 0 -11.43396,6.25651 21.48904,21.450892 0 0 0 -4.199316,13.719633 22.10685,22.067605 0 0 0 0.188029,2.368536 22.384417,22.344679 0 0 0 1.790753,6.25651 1.8355222,1.8322637 0 0 0 3.23231,0.196633 c 0.152214,-0.241322 0.340243,-0.54521 0.555133,-0.84016 a 18.158239,18.126003 0 0 0 3.653137,6.471019 13.582864,13.558751 0 0 0 2.184719,1.966332 7.7987308,7.7848861 0 0 1 -7.727101,6.873223 h -0.179075 a 10.099849,10.081919 0 0 0 -9.72379,10.046168 v 10.850576 a 1.8355222,1.8322637 0 0 0 1.790753,1.787574 h 44.867325 a 1.7907533,1.7875743 0 0 0 1.790753,-1.787574 V 65.198095 A 10.099849,10.081919 0 0 0 83.555031,55.125114 Z M 55.091007,35.899752 a 21.56067,21.522395 0 0 1 -0.429781,-2.162965 20.03853,20.002956 0 0 1 -0.170121,-2.028897 17.800088,17.768489 0 0 1 3.4472,-11.37791 11.36233,11.342159 0 0 1 8.631431,-4.74601 10.574398,10.555626 0 0 1 4.888757,1.081483 1.880291,1.876953 0 0 0 0.895376,0.187695 h 1.002822 a 9.9565885,9.9389131 0 0 1 7.44058,3.691341 15.042328,15.015624 0 0 1 3.465108,9.340075 16.063057,16.034541 0 0 1 -0.778978,5.541481 c -0.179075,-0.46477 -0.367104,-0.893787 -0.581995,-1.367495 a 16.439116,16.409932 0 0 0 -8.407586,-8.213903 1.8713372,1.8680151 0 0 0 -1.441557,0 1.8981985,1.8948288 0 0 0 -0.993868,1.045731 13.251575,13.22805 0 0 1 -0.895377,1.912704 5.488659,5.4789152 0 0 1 -5.058878,2.681361 8.8731828,8.8574306 0 0 0 -0.97596,0 14.326027,14.300594 0 0 0 -4.602236,0.893788 16.367485,16.338429 0 0 0 -5.434937,3.521521 z m 4.476884,1.001042 a 10.619167,10.600316 0 0 1 5.65878,-1.787575 h 0.725255 a 9.1417958,9.1255668 0 0 0 8.38968,-4.540438 L 74.63708,30.02757 a 12.759117,12.736467 0 0 1 4.217224,4.2008 v 0.160882 a 16.313763,16.284802 0 0 1 -3.384524,8.991498 8.3807256,8.3658477 0 0 1 -6.410897,3.396392 c -4.342577,0.02681 -8.20165,-4.07567 -9.455177,-9.867411 z M 65.835527,49.9769 a 10.565445,10.546688 0 0 0 6.375082,0 11.50559,11.485165 0 0 0 5.479705,7.302241 8.9537667,8.9378715 0 0 1 -17.325538,0 11.496636,11.476227 0 0 0 5.488659,-7.302241 z M 89.616731,74.216407 H 48.429405 v -9.018312 a 6.4377582,6.4263296 0 0 1 6.428804,-6.417392 h 0.188029 a 11.639897,11.619233 0 0 0 1.85343,-0.205571 12.660626,12.63815 0 0 0 24.219939,0 11.514544,11.494103 0 0 0 1.85343,0.205571 h 0.179075 a 6.4377582,6.4263296 0 0 1 6.428804,6.417392 z"
     id="path8"
     style="stroke-width:0.894582;fill:#cccccc;fill-opacity:1" />
</svg>
