<svg id="Layer_1" data-name="Layer 1" xmlns="http://www.w3.org/2000/svg" viewBox="0 0 157.02 215.33"><defs><style>.cls-1{fill:#c4c4ce;}.cls-2{fill:#d12c00;}</style></defs><path class="cls-1" d="M69.84,171.41c8.91.28,14.67-.56,18.24-2a8,8,0,0,1,0-14.12c-6.13-4.72-24.74-19-24.74-19a1.84,1.84,0,0,0-.15.18q-1.36-.92-2.79-1.83c11.06-28.14,51.29-46.9,37.2-83.08,25,2.23,68,13.15,66.74,30.39,19.14,5,23.24,20.86,23.24,20.86,18.18,5.1,47.2,29.34,5.93,35L187.43,144l-1.21-6.17c-32.75-13.33-48,4.72-5,10.76l5.62-3-1.72,5.65s6.12,1.42,3.39,5.78c-5.47,6.73-23.7-2.36-23.7-2.36s14.12,39.34-26.42,30.63c25.07-9.43,2.29-23.9,2.29-23.9-3,15.84-15.23,28.43-51.39,18.31C72.69,176.2,52,170.09,69.84,171.41Zm110.48-69.93c.77-8.57-14.62-3.07-19.16-1.87C158.39,100.7,179.45,103.92,180.32,101.48Z" transform="translate(-57.55 -20.29)"/><path class="cls-2" d="M57.78,117.36a75.49,75.49,0,0,1,4.88-20.85,83.61,83.61,0,0,1,9.27-17.44c1.06-1.53,2.14-3,2.7-3.67l1.28-1.65c.31-.43.57-.77.83-1.07l.39-.45c.42-.5.85-1,1.21-1.53a.47.47,0,0,1,.09-.12c.17-.23.36-.45.57-.7a13.16,13.16,0,0,0,.85-1.1l.11-.15c2-2.53,3.6-4.83,5-7a48.57,48.57,0,0,0,3.82-7,35.68,35.68,0,0,0,2.52-8.42,60.28,60.28,0,0,0,.89-9.45c.07-3.11-.09-6.11-.25-8.6-.12-1.66-.26-3.14-.39-4.44a3.34,3.34,0,0,1,.88-2.69,2.32,2.32,0,0,1,2.38-.66,27.68,27.68,0,0,1,3.79,1.51,33.83,33.83,0,0,1,7.78,5.29,41.18,41.18,0,0,1,8.32,10.49,50.74,50.74,0,0,1,5.84,17A63.44,63.44,0,0,1,120.22,76a72.41,72.41,0,0,1-7,20.16,74.18,74.18,0,0,1-5.14,8.42c-.5.74-1.88,2.63-1.9,2.65l-.54.74c-.39.52-.66.9-.94,1.3s-.48.66-.71,1l0,0c-2.61,3.69-4.46,6.4-6,8.79-1.68,2.64-3.16,5.19-4.52,7.81a47.85,47.85,0,0,0-3.26,7.69,41.94,41.94,0,0,0-1.71,9,63.28,63.28,0,0,0,0,9.56c.24,3.29.67,6.29,1,8.49.26,1.51.51,2.9.74,4.1a3.49,3.49,0,0,1-.67,2.82,2.44,2.44,0,0,1-1.88.94,2.07,2.07,0,0,1-.5-.06,24.06,24.06,0,0,1-3.59-1.12,33,33,0,0,1-8-4.52,40,40,0,0,1-9-9.49,50.71,50.71,0,0,1-7.13-16A63.16,63.16,0,0,1,57.78,117.36Z" transform="translate(-57.55 -20.29)"/><path class="cls-2" d="M101.64,142.4a32,32,0,0,1,3.49-6.62c.36-.52.79-1.11,1-1.37l.5-.65c.12-.17.22-.29.32-.41l.13-.16c.16-.19.32-.38.45-.57l.08-.1.18-.23c.11-.14.22-.27.31-.4a.39.39,0,0,1,.08-.1c.71-.93,1.32-1.79,1.86-2.63a19.07,19.07,0,0,0,1.44-2.65,13.57,13.57,0,0,0,1-3.2,23.37,23.37,0,0,0,.33-3.58c0-1.11,0-2.15-.06-2.84a2.74,2.74,0,0,1,.93-2.3,1.88,1.88,0,0,1,2.14-.2,13,13,0,0,1,2.34,1.7,15.55,15.55,0,0,1,3.12,4,19.33,19.33,0,0,1,2.2,6.45,24.31,24.31,0,0,1-.13,8.11,27.49,27.49,0,0,1-2.64,7.67,29.23,29.23,0,0,1-1.92,3.17l-.74,1h0l-.19.25-.36.51-.24.33,0,0c-.66,1-1.52,2.18-2.25,3.35a33.37,33.37,0,0,0-1.7,3,17.25,17.25,0,0,0-1.23,2.91,16.36,16.36,0,0,0-.64,3.41,24.07,24.07,0,0,0,0,3.61c.05.81.15,1.67.29,2.61a2.83,2.83,0,0,1-.78,2.43,1.93,1.93,0,0,1-1.35.57,1.81,1.81,0,0,1-.81-.19,12.39,12.39,0,0,1-2.19-1.36,15.2,15.2,0,0,1-3.39-3.6,19.52,19.52,0,0,1-2.68-6.07,24.67,24.67,0,0,1-.63-8A28.91,28.91,0,0,1,101.64,142.4Z" transform="translate(-57.55 -20.29)"/><path class="cls-1" d="M72.12,235.38c-1,0-1.84-.59-1.84-1.35V214.66c0-.77.85-1.36,1.84-1.36H87.44c.9,0,1.65.56,1.65,1.22s-.75,1.21-1.65,1.21H73.78v7.4H86c.9,0,1.66.55,1.66,1.21s-.76,1.22-1.66,1.22H73.78V233H87.44c.9,0,1.65.56,1.65,1.22s-.75,1.21-1.65,1.21Z" transform="translate(-57.55 -20.29)"/><path class="cls-1" d="M102.28,235.38c-.9,0-1.65-.55-1.65-1.21s.75-1.22,1.65-1.22h11.06c3.17,0,5.25-1.66,5.25-3.71s-2.08-3.65-5.25-3.65H108.1c-5.16,0-8.7-2.74-8.7-6.14s3.54-6.15,8.7-6.15h11.11c.89,0,1.65.56,1.65,1.22s-.76,1.21-1.65,1.21H108.15c-3.17,0-5.25,1.67-5.25,3.72s2.08,3.64,5.25,3.64h5.24c5.15,0,8.7,2.75,8.7,6.15s-3.55,6.14-8.7,6.14Z" transform="translate(-57.55 -20.29)"/><path class="cls-1" d="M137.22,224.59v9.75c0,.7-.81,1.29-1.75,1.29s-1.75-.59-1.75-1.29v-20c0-.7.8-1.29,1.75-1.29s1.75.59,1.75,1.29v9.75l15.6-10.66a2.27,2.27,0,0,1,2.5,0,1.08,1.08,0,0,1,0,1.81l-13.48,9.09,13.48,9.1a1.07,1.07,0,0,1,0,1.8,2.25,2.25,0,0,1-2.5,0Z" transform="translate(-57.55 -20.29)"/><path class="cls-1" d="M185.44,226.39H174c-.9,0-1.66-.55-1.66-1.21s.76-1.25,1.66-1.25h11.49v-2.81c0-3.37-3.46-5.84-7.71-5.84s-7.7,2.47-7.7,5.84v13.22c0,.7-.81,1.29-1.75,1.29s-1.75-.59-1.75-1.29V221.12c0-4.76,5-8.27,11.2-8.27s11.2,3.51,11.2,8.27v13.22c0,.7-.8,1.29-1.75,1.29s-1.74-.59-1.74-1.29Z" transform="translate(-57.55 -20.29)"/></svg>