<?xml version="1.0" encoding="utf-8"?>
<!-- Generator: Adobe Illustrator 23.0.0, SVG Export Plug-In . SVG Version: 6.00 Build 0)  -->
<svg version="1.1" id="ic_dark_staking_on" xmlns="http://www.w3.org/2000/svg" xmlns:xlink="http://www.w3.org/1999/xlink" x="0px"
	 y="0px" viewBox="0 0 100 100" style="enable-background:new 0 0 100 100;" xml:space="preserve">
<style type="text/css">
	.st0{fill:#413D4A;}
	.st1{fill:#A09EA5;}
	.st2{fill:#A09EA4;}
	.st3{fill:none;}
</style>
<g id="Group_9053">
	<g id="Group_9051">
		<ellipse id="Ellipse_640" class="st0" cx="80" cy="56" rx="12" ry="4"/>
		<ellipse id="Ellipse_641" class="st0" cx="64" cy="68" rx="12" ry="4"/>
		<path id="Rectangle_4706" class="st0" d="M32,24h14v14H32V24z"/>
	</g>
	<g id="Group_9052">
		<path id="Rectangle_4707" class="st1" d="M12,60h2v4h-2V60z"/>
		<path id="Path_19001" class="st1" d="M92,58c0.6-0.5,0.9-1.2,1-2c0-3.3-6.5-5-13-5s-13,1.7-13,5c0,0.8,0.4,1.5,1,2
			c-1.1,0.9-1.3,2.5-0.4,3.6c0.1,0.1,0.2,0.3,0.4,0.4c-0.3,0.3-0.6,0.7-0.8,1.2c-0.4,0-0.8-0.1-1.2-0.1V39h5V23H52.6
			c3.9-3.1,4.5-8.8,1.4-12.6S45.2,5.9,41.4,9c-1,0.8-1.8,1.8-2.4,2.9C36.7,7.5,31.3,5.7,26.9,8s-6.2,7.7-3.9,12.1
			c0.6,1.1,1.4,2.1,2.4,2.9H7v16h5v17h2V39h50v24c-6.5,0-13,1.7-13,5c0,0.8,0.4,1.5,1,2c-1.1,0.9-1.3,2.5-0.4,3.6
			c0.1,0.1,0.2,0.3,0.4,0.4c-0.3,0.3-0.6,0.6-0.7,1H14v-7h-2v9h39.2c0.2,0.4,0.4,0.7,0.7,1c-1.1,0.9-1.3,2.5-0.4,3.6
			c0.1,0.1,0.2,0.3,0.4,0.4c-1.1,0.9-1.3,2.5-0.4,3.6c0.1,0.1,0.2,0.3,0.4,0.4c-0.6,0.5-0.9,1.2-1,2c0,3.3,6.5,5,13,5
			c5.9,0,11.8-1.4,12.8-4.2c1,0.1,2.1,0.2,3.2,0.2c6.5,0,13-1.7,13-5c0-0.8-0.4-1.5-1-2c1.1-0.9,1.3-2.5,0.4-3.6
			c-0.1-0.1-0.2-0.3-0.4-0.4c1.1-0.9,1.3-2.5,0.4-3.6c-0.1-0.1-0.2-0.3-0.4-0.4c1.1-0.9,1.3-2.5,0.4-3.6c-0.1-0.1-0.2-0.3-0.4-0.4
			c1.1-0.9,1.3-2.5,0.4-3.6c-0.1-0.1-0.2-0.3-0.4-0.4c1.1-0.9,1.3-2.5,0.4-3.6c-0.1-0.1-0.2-0.3-0.4-0.4c1.1-0.9,1.3-2.5,0.4-3.6
			C92.3,58.2,92.2,58.1,92,58z M31,37H9V25h22V37z M24,16c0-3.9,3.1-7,7-7s7,3.1,7,7v7h-7C27.1,23,24,19.9,24,16z M45,37H33V25h12
			V37z M40,23v-7c0-3.9,3.1-7,7-7s7,3.1,7,7s-3.1,7-7,7H40z M47,37V25h22v12H47z M51,76c0,0.2,0,0.3,0.1,0.5C51,76.3,51,76.2,51,76z
			 M64,91c-7.1,0-11-2-11-3c0-0.2,0.2-0.5,0.7-0.8C56.2,88.4,60.1,89,64,89s7.8-0.6,10.3-1.8c0.4,0.3,0.7,0.6,0.7,0.8
			C75,89,71.1,91,64,91z M64,87c-7.1,0-11-2-11-3c0-0.2,0.2-0.5,0.7-0.8C56.2,84.4,60.1,85,64,85s7.8-0.6,10.3-1.8
			c0.4,0.3,0.7,0.6,0.7,0.8C75,85,71.1,87,64,87z M64,83c-7.1,0-11-2-11-3c0-0.2,0.2-0.5,0.7-0.8C56.2,80.4,60.1,81,64,81
			s7.8-0.6,10.3-1.8c0.4,0.3,0.7,0.6,0.7,0.8C75,81,71.1,83,64,83z M64,79c-7.1,0-11-2-11-3c0-0.2,0.2-0.5,0.7-0.8
			C56.2,76.4,60.1,77,64,77s7.8-0.6,10.3-1.8c0.4,0.3,0.7,0.6,0.7,0.8C75,77,71.1,79,64,79z M64,75c-7.1,0-11-2-11-3
			c0-0.2,0.2-0.5,0.7-0.8C56.2,72.4,60.1,73,64,73s7.8-0.6,10.3-1.8c0.4,0.3,0.7,0.6,0.7,0.8C75,73,71.1,75,64,75z M64,71
			c-7.1,0-11-2-11-3s3.9-3,11-3s11,2,11,3S71.1,71,64,71z M80,87c-1.2,0-2.3-0.1-3.3-0.2c-0.2-0.3-0.4-0.6-0.6-0.8
			c0.3-0.3,0.6-0.7,0.8-1.2c1,0.1,2.1,0.2,3.2,0.2c3.9,0,7.8-0.6,10.3-1.8c0.4,0.3,0.7,0.6,0.7,0.8C91,85,87.1,87,80,87z M80,83
			c-1.2,0-2.3-0.1-3.3-0.2c-0.2-0.3-0.4-0.6-0.6-0.8c0.3-0.3,0.6-0.7,0.8-1.2c1,0.1,2.1,0.2,3.2,0.2c3.9,0,7.8-0.6,10.3-1.8
			c0.4,0.3,0.7,0.6,0.7,0.8C91,81,87.1,83,80,83z M80,79c-1.2,0-2.3-0.1-3.3-0.2c-0.2-0.3-0.4-0.6-0.6-0.8c0.3-0.3,0.6-0.7,0.8-1.2
			c1,0.1,2.1,0.2,3.2,0.2c3.9,0,7.8-0.6,10.3-1.8c0.4,0.3,0.7,0.6,0.7,0.8C91,77,87.1,79,80,79z M80,75c-1.2,0-2.3-0.1-3.3-0.2
			c-0.2-0.3-0.4-0.6-0.6-0.8c0.3-0.3,0.6-0.7,0.8-1.2c1,0.1,2.1,0.2,3.2,0.2c3.9,0,7.8-0.6,10.3-1.8c0.4,0.3,0.7,0.6,0.7,0.8
			C91,73,87.1,75,80,75z M80,71c-1.2,0-2.3-0.1-3.3-0.2c-0.2-0.3-0.4-0.6-0.6-0.8c0.3-0.3,0.6-0.7,0.8-1.2c1,0.1,2.1,0.2,3.2,0.2
			c3.9,0,7.8-0.6,10.3-1.8c0.4,0.3,0.7,0.6,0.7,0.8C91,69,87.1,71,80,71z M80,67c-1.2,0-2.3-0.1-3.3-0.2c-0.6-1.2-2.2-2.1-4.2-2.7
			c2.5,0.6,5,0.9,7.5,0.9c3.9,0,7.8-0.6,10.3-1.8c0.4,0.3,0.7,0.6,0.7,0.8C91,65,87.1,67,80,67z M69.4,63.4c0.1-0.1,0.2-0.2,0.3-0.3
			c0.6,0.3,1.2,0.5,1.8,0.7C70.8,63.7,70.1,63.5,69.4,63.4z M80,63c-7.1,0-11-2-11-3c0-0.2,0.2-0.5,0.7-0.8C72.2,60.4,76.1,61,80,61
			s7.8-0.6,10.3-1.8c0.4,0.3,0.7,0.6,0.7,0.8C91,61,87.1,63,80,63z M80,59c-7.1,0-11-2-11-3s3.9-3,11-3s11,2,11,3S87.1,59,80,59z"/>
	</g>
	<g>
		<polygon class="st2" points="40.7,47.6 37.4,47.6 30.5,64.4 33.8,64.4 		"/>
		<polygon class="st2" points="40.9,60.3 39,55.5 37,60.3 		"/>
		<polygon class="st2" points="41.4,49.6 39.8,53.5 44.2,64.4 47.5,64.4 		"/>
	</g>
</g>
<path id="Rectangle_4709" class="st3" d="M0,0h100v100H0V0z"/>
</svg>
