<svg id="Layer_1" data-name="Layer 1" xmlns="http://www.w3.org/2000/svg" viewBox="0 0 190.02 218.88"><defs><style>.cls-1{fill:#eeb91c;}</style></defs><path class="cls-1" d="M36.17,238.21a1.68,1.68,0,0,1-1.83-1.49V214.86a1.71,1.71,0,0,1,1.83-1.53h15.5c4.8,0,8.33,2.94,8.33,6.81a6.12,6.12,0,0,1-3.86,5.59A6.23,6.23,0,0,1,60,231.36c0,3.88-3.53,6.85-8.33,6.85ZM42,227.14a1.52,1.52,0,0,1-1.64-1.37A1.55,1.55,0,0,1,42,224.4h9.47c3.06,0,5.09-1.91,5.09-4.14,0-2.78-2.55-4.19-6.27-4.19H37.82v19.4H51.43c3,0,5.09-2,5.09-4.18s-2-4.15-5.09-4.15Z" transform="translate(-34.34 -19.69)"/><path class="cls-1" d="M72.15,214.51a1.78,1.78,0,0,1,3.49,0V237a1.78,1.78,0,0,1-3.49,0Z" transform="translate(-34.34 -19.69)"/><path class="cls-1" d="M96.92,227.34a1.43,1.43,0,0,1-.52-1,1.6,1.6,0,0,1,1.7-1.45h8c3.06,0,5.37-1.92,5.37-4.42s-2.31-4.42-5.37-4.42H91.84v21a1.78,1.78,0,0,1-3.49,0V214.86a1.68,1.68,0,0,1,1.84-1.53H106.1c5,0,8.81,3.17,8.81,7.16s-3.77,7.16-8.81,7.16h-3.62l11.16,8.41a1.26,1.26,0,0,1,.09,2,2,2,0,0,1-2.44.12Z" transform="translate(-34.34 -19.69)"/><path class="cls-1" d="M149.48,228.08H134a1.39,1.39,0,1,1,0-2.74h15.5v-2.89c0-3.76-3.21-6.38-7.4-6.38h-4.8c-4.19,0-7.4,2.62-7.4,6.38V237a1.77,1.77,0,0,1-3.48,0V222.41c0-5.28,4.71-9.08,10.88-9.08h4.8c6.17,0,10.88,3.8,10.88,9.08V237a1.77,1.77,0,0,1-3.48,0Z" transform="translate(-34.34 -19.69)"/><path class="cls-1" d="M169.07,226.08v11a1.78,1.78,0,0,1-3.49,0V214.51a1.78,1.78,0,0,1,3.49,0v10.91l18.74-12.16a2,2,0,0,1,2.45.23,1.34,1.34,0,0,1-.28,2l-16.06,10.25L190,235.94a1.34,1.34,0,0,1,.28,2,2,2,0,0,1-2.45.24Z" transform="translate(-34.34 -19.69)"/><path class="cls-1" d="M203.21,238.21a1.71,1.71,0,0,1-1.84-1.53V214.86a1.71,1.71,0,0,1,1.84-1.53H222.7a1.39,1.39,0,1,1,0,2.74H204.86v8.33h16.43a1.39,1.39,0,1,1,0,2.74H204.86v8.33H222.7a1.39,1.39,0,1,1,0,2.74Z" transform="translate(-34.34 -19.69)"/><path class="cls-1" d="M173.77,112.68q-5.53-7.08-17.43-11.34,15-8.62,15-22.6,0-11.07-8.94-19.29t-23.19-8.21h-14V20.49c0-.44-1.45-.8-3.25-.8s-3.21.35-3.21.79V51.24h-9.54V32.91c0-.39-1.46-.7-3.25-.7s-3.21.31-3.21.69V51.24H91.27a5.91,5.91,0,0,0-3.91,1,3.84,3.84,0,0,0,0,5.54,5.85,5.85,0,0,0,3.91,1h10.25v91H91.27a5.85,5.85,0,0,0-3.91,1,3.78,3.78,0,0,0,0,5.49,5.68,5.68,0,0,0,3.91,1.09h11.42v22c0,.37,1.42.68,3.17.68H106c1.74,0,3.15-.3,3.15-.68v-22h9.54v30.3c0,.43,1.42.78,3.18.78H122c1.74,0,3.15-.34,3.15-.77V157.43h23.11a31.33,31.33,0,0,0,16.3-4.45,30.18,30.18,0,0,0,11.11-10.75,27.45,27.45,0,0,0,3.63-13.93A24.78,24.78,0,0,0,173.77,112.68Zm-34.4-53.82q10.8,0,17.52,6t6.71,13.2a18,18,0,0,1-3.08,9.81,19.89,19.89,0,0,1-8.63,7.35,38.5,38.5,0,0,1-15.79,3.17H125.15V58.86Zm-20.68,0V98.43h-9.54V58.86Zm-9.54,91V106.15h9.54v43.66Zm59.63-11.35a23,23,0,0,1-8.26,8.08,24.4,24.4,0,0,1-12.8,3.27H125.15V106.15h11.41q12.62,0,19.78,2.81a24.87,24.87,0,0,1,11.21,8.26,18.69,18.69,0,0,1,4,11.26A19.55,19.55,0,0,1,168.78,138.46Z" transform="translate(-34.34 -19.69)"/></svg>