<?xml version="1.0" encoding="UTF-8" standalone="no"?>
<svg
   version="1.1"
   id="ic_empty_transactions"
   inkscape:version="1.1 (c68e22c387, 2021-05-23)"
   sodipodi:docname="img-empty-transactions.svg"
   x="0px"
   y="0px"
   viewBox="0 0 100 100"
   style="enable-background:new 0 0 100 100;"
   xml:space="preserve"
   xmlns:inkscape="http://www.inkscape.org/namespaces/inkscape"
   xmlns:sodipodi="http://sodipodi.sourceforge.net/DTD/sodipodi-0.dtd"
   xmlns="http://www.w3.org/2000/svg"
   xmlns:svg="http://www.w3.org/2000/svg"
   xmlns:rdf="http://www.w3.org/1999/02/22-rdf-syntax-ns#"
   xmlns:cc="http://creativecommons.org/ns#"
   xmlns:dc="http://purl.org/dc/elements/1.1/"><metadata
   id="metadata34"><rdf:RDF><cc:Work
       rdf:about=""><dc:format>image/svg+xml</dc:format><dc:type
         rdf:resource="http://purl.org/dc/dcmitype/StillImage" /></cc:Work></rdf:RDF></metadata><defs
   id="defs32"><pattern
     id="EMFhbasepattern"
     patternUnits="userSpaceOnUse"
     width="6"
     height="6"
     x="0"
     y="0" /></defs>
<style
   type="text/css"
   id="style2">
	.st0{fill:#2EA1FF;}
	.st1{fill:#666666;}
	.st2{fill:#EFEFEF;}
</style>
<circle
   class="st0"
   cx="50"
   cy="50"
   id="circle4"
   style="fill:#22252e;fill-opacity:1"
   r="18" /><path
   class="cls-1"
   d="m 57.51994,51.360791 q -0.882934,-1.128447 -2.779942,-1.808564 2.388036,-1.372433 2.388036,-3.604923 0,-1.765867 -1.425807,-3.07578 -1.425806,-1.30991 -3.697946,-1.30991 h -2.238592 v -4.904162 c 0,-0.07013 -0.231789,-0.128099 -0.516949,-0.128099 -0.285162,0 -0.512375,0.05642 -0.512375,0.126573 v 4.90569 h -1.524927 v -2.923284 c 0,-0.06252 -0.231788,-0.111313 -0.516951,-0.111313 -0.28516,0 -0.512375,0.04879 -0.512375,0.109807 v 2.9248 h -1.819235 a 0.93020502,0.93020502 0 0 0 -0.62217,0.166227 0.6099705,0.6099705 0 0 0 0,0.882931 0.93020502,0.93020502 0 0 0 0.62217,0.166227 h 1.634719 v 14.505101 h -1.634719 a 0.93020502,0.93020502 0 0 0 -0.62217,0.166227 0.56117285,0.56117285 0 0 0 -0.18757,0.440706 0.56727258,0.56727258 0 0 0 0.18757,0.434602 0.90275635,0.90275635 0 0 0 0.62217,0.173837 h 1.820761 v 3.507328 c 0,0.06104 0.227215,0.109865 0.506275,0.109865 h 0.02136 c 0.277537,0 0.5017,-0.04883 0.5017,-0.108243 V 58.499079 H 48.7379 v 4.832495 c 0,0.06859 0.225688,0.12497 0.504751,0.12497 h 0.02287 c 0.276013,0 0.501701,-0.05491 0.501701,-0.123521 v -4.834025 h 3.684221 a 4.9971832,4.9971832 0 0 0 2.592375,-0.709089 4.8141923,4.8141923 0 0 0 1.773491,-1.715543 4.3795882,4.3795882 0 0 0 0.57947,-2.221817 3.9510838,3.9510838 0 0 0 -0.876833,-2.491729 z M 52.030206,42.77698 q 1.723165,0 2.793665,0.963753 1.070498,0.963754 1.067448,2.105925 a 2.8699111,2.8699111 0 0 1 -0.49255,1.563048 3.1550724,3.1550724 0 0 1 -1.372433,1.172667 6.1652767,6.1652767 0 0 1 -2.519181,0.506278 H 49.765689 V 42.77698 Z m -3.296891,0 v 6.311671 H 47.20839 V 42.77698 Z M 47.20839,57.282079 v -6.962813 h 1.524925 v 6.962813 z m 9.510963,-1.810089 a 3.6857467,3.6857467 0 0 1 -1.317538,1.288563 3.8916119,3.8916119 0 0 1 -2.041874,0.521526 h -3.594252 v -6.962813 h 1.819237 q 2.011379,0 3.155072,0.448327 a 3.9510838,3.9510838 0 0 1 1.787215,1.317536 2.9766559,2.9766559 0 0 1 0.645043,1.79484 3.1108496,3.1108496 0 0 1 -0.448329,1.592021 z"
   id="path6"
   style="fill:#eeb91c;stroke:#eeb91c;stroke-width:0.732047;stroke-miterlimit:4;stroke-dasharray:none;stroke-opacity:1" />
<sodipodi:namedview
   bordercolor="#666666"
   borderopacity="1"
   gridtolerance="10"
   guidetolerance="10"
   id="namedview22"
   inkscape:current-layer="ic_empty_transactions"
   inkscape:cx="10.093026"
   inkscape:cy="57.488934"
   inkscape:pageopacity="0"
   inkscape:pageshadow="2"
   inkscape:window-height="2066"
   inkscape:window-width="3840"
   inkscape:zoom="8.4711955"
   objecttolerance="10"
   pagecolor="#ffffff"
   showgrid="false"
   inkscape:document-rotation="0"
   inkscape:window-x="3829"
   inkscape:window-y="-11"
   inkscape:window-maximized="1"
   inkscape:pagecheckerboard="0">
	</sodipodi:namedview>
<g
   id="Group_9015">
	<path
   id="Path_18970"
   class="st0"
   d="M50,26c-13.3,0-24,10.7-24,24s10.7,24,24,24s24-10.7,24-24S63.3,26,50,26z M50,68   c-9.9,0-18-8.1-18-18s8.1-18,18-18s18,8.1,18,18S59.9,68,50,68z"
   style="fill:#22252e;fill-opacity:1" />
	<g
   id="Group_9014">
		<g
   id="Group_9013">
			<path
   id="Path_18972"
   class="st0"
   d="M50,31c-10.5,0-19,8.5-19,19s8.5,19,19,19s19-8.5,19-19S60.5,31,50,31z M50,67     c-9.4,0-17-7.6-17-17s7.6-17,17-17s17,7.6,17,17S59.4,67,50,67z"
   style="fill:#22252e;fill-opacity:1" />
			<path
   id="Rectangle_4664"
   class="st1"
   d="M83,56h2v4h-2V56z" />
			<path
   id="Rectangle_4665"
   class="st1"
   d="M83,44h2v8h-2V44z" />
			<path
   id="Rectangle_4666"
   class="st1"
   d="M15,48h2v8h-2V48z" />
			<path
   id="Rectangle_4667"
   class="st1"
   d="M15,40h2v4h-2V40z" />
			<path
   id="Path_18973"
   class="st1"
   d="M95.2,71H85v-7h-2v9h7.8L76,90.5L61.2,73H68v-2h-4.5c11.6-7.5,15-22.9,7.5-34.5     c-6.4-9.9-18.9-14-29.9-9.8L24,6.5L4.8,29H15v7h2v-9H9.2L24,9.5L38.8,27H32v2h4.5c-11.6,7.5-15,22.9-7.5,34.5     c6.4,9.9,18.9,14,29.9,9.8L76,93.5L95.2,71z M27,50c0-12.7,10.3-23,23-23s23,10.3,23,23S62.7,73,50,73S27,62.7,27,50z" />
		</g>
	</g>
</g>

</svg>
