<?xml version="1.0" encoding="UTF-8" standalone="no"?>
<svg
   xmlns:dc="http://purl.org/dc/elements/1.1/"
   xmlns:cc="http://creativecommons.org/ns#"
   xmlns:rdf="http://www.w3.org/1999/02/22-rdf-syntax-ns#"
   xmlns:svg="http://www.w3.org/2000/svg"
   xmlns="http://www.w3.org/2000/svg"
   xml:space="preserve"
   style="enable-background:new 0 0 100 100;"
   viewBox="0 0 100 100"
   y="0px"
   x="0px"
   id="ic_empty_dark_multisend"
   version="1.1"><metadata
   id="metadata39"><rdf:RDF><cc:Work
       rdf:about=""><dc:format>image/svg+xml</dc:format><dc:type
         rdf:resource="http://purl.org/dc/dcmitype/StillImage" /><dc:title></dc:title></cc:Work></rdf:RDF></metadata><defs
   id="defs37">
	
	

		
		
		
		
		
		
		
	
		
		
	
			
			
			
		</defs>
<style
   id="style2"
   type="text/css">
	.st0{fill:#DB0000;}
	.st1{fill:#A09EA5;}
	.st2{fill:#EFEFEF;}
</style>

<path
   style="fill:#a09ea5;fill-opacity:0.14901961"
   d="m 45,18 h 10 v 9 H 45 Z"
   class="st0"
   id="Rectangle_4717" /><path
   id="Rectangle_4718"
   class="st0"
   d="m 14,66 h 6 v 10 h -6 z"
   style="fill:#a09ea5;fill-opacity:0.14901961" /><path
   id="Rectangle_4719"
   class="st0"
   d="m 80,66 h 6 v 10 h -6 z"
   style="fill:#a09ea5;fill-opacity:0.14901961" /><path
   id="Rectangle_4720"
   class="st0"
   d="m 47,66 h 6 v 10 h -6 z"
   style="fill:#a09ea5;fill-opacity:0.14901961" /><path
   style="fill:#a09ea5"
   d="m 67,40 h 2 v 4 h -2 z"
   class="st1"
   id="Rectangle_4722" /><circle
   style="fill:#a09ea5"
   r="1"
   cy="73"
   cx="50"
   class="st1"
   id="Ellipse_643" /><circle
   style="fill:#a09ea5"
   r="1"
   cy="73"
   cx="83"
   class="st1"
   id="Ellipse_644" /><path
   style="fill:#a09ea5"
   d="m 32,58 h 4 v 2 h -4 z"
   class="st1"
   id="Rectangle_4723" /><path
   style="fill:#a09ea5"
   d="m 16,65 h -3 v 3 H 7 v 4 h 2 v -2 h 4 v 7 h 8 v -7 h 4 V 91 H 9 V 76 H 7 V 93 H 27 V 68 H 21 V 65 H 18 V 60 H 28 V 58 H 16 Z m 3,2 v 8 h -4 v -8 z"
   class="st1"
   id="Path_19007" /><circle
   style="fill:#a09ea5"
   r="1"
   cy="73"
   cx="17"
   class="st1"
   id="Ellipse_645" /><path
   style="fill:#a09ea5"
   d="M 87,68 V 65 H 84 V 58 H 51 v -5 h 18 v -5 h -2 v 3 H 33 V 28 h 34 v 8 h 2 v -8 h 4 V 17 H 59.5 C 61.7,14.5 61.5,10.7 59,8.5 56.5,6.3 52.7,6.5 50.5,9 50.3,9.2 50.1,9.5 50,9.7 48.2,6.9 44.5,6.2 41.7,8 c -2.8,1.8 -3.5,5.5 -1.7,8.3 0.2,0.3 0.4,0.5 0.6,0.7 H 27 v 11 h 4 v 25 h 18 v 5 h -9 v 2 h 9 v 5 h -3 v 3 h -6 v 16 h 2 V 70 h 4 v 7 h 8 v -7 h 4 V 91 H 42 v -3 h -2 v 5 H 60 V 68 h -6 v -3 h -3 v -5 h 31 v 5 h -3 v 3 h -6 v 12 h 2 V 70 h 4 v 7 h 8 v -7 h 4 V 91 H 75 v -7 h -2 v 9 H 93 V 68 Z M 71,19 v 7 H 56 V 19 Z M 51,13 c 0,-2.2 1.8,-4 4,-4 2.2,0 4,1.8 4,4 0,2.2 -1.8,4 -4,4 h -4 z m 0,6 h 3 v 7 H 46 V 19 Z M 45,9 c 2.2,0 4,1.8 4,4 v 4 h -4 c -2.2,0 -4,-1.8 -4,-4 0,-2.2 1.8,-4 4,-4 z M 29,26 v -7 h 15 v 7 z m 23,41 v 8 h -4 v -8 z m 33,8 h -4 v -8 h 4 z"
   class="st1"
   id="Path_19008" />
<rect
   style="fill:#a09ea5;fill-opacity:0.14901961"
   id="rect20"
   height="23"
   width="34"
   class="st0"
   y="28"
   x="33" />

</svg>