<svg id="Layer_1" data-name="Layer 1" xmlns="http://www.w3.org/2000/svg" viewBox="0 0 183.81 235.85"><defs><style>.cls-1{fill:#fedf41;}.cls-2{fill:#4a95d0;}.cls-3{fill:#4e5f80;}.cls-4{fill:#fff;}.cls-5{fill:#3b4461;}</style></defs><ellipse class="cls-1" cx="92.11" cy="99.47" rx="81.48" ry="99.47"/><circle class="cls-2" cx="91.91" cy="99.47" r="91.91"/><path class="cls-1" d="M75,115.89H58.74c-3,0-5.44-1.36-5.44-3s2.43-3,5.44-3H75c3,0,5.45,1.36,5.45,3S78,115.89,75,115.89Z" transform="translate(-36.97 -11.13)"/><path class="cls-1" d="M198.15,115.89H184c-2.64,0-4.77-1.36-4.77-3s2.13-3,4.77-3h14.18c2.63,0,4.76,1.36,4.76,3S200.78,115.89,198.15,115.89Z" transform="translate(-36.97 -11.13)"/><path class="cls-1" d="M181.42,157.56a3,3,0,0,1-2.15-.89l-6.4-6.4a3,3,0,1,1,4.3-4.3l6.4,6.4a3,3,0,0,1-2.15,5.19Z" transform="translate(-36.97 -11.13)"/><path class="cls-1" d="M79.66,157.56a3,3,0,0,1-2.15-5.19l6.41-6.4a3,3,0,0,1,4.3,4.3l-6.41,6.4A3,3,0,0,1,79.66,157.56Z" transform="translate(-36.97 -11.13)"/><path class="cls-3" d="M109.61,157.05" transform="translate(-36.97 -11.13)"/><path class="cls-1" d="M86.93,74.31,74,64.55c-2.4-1.8-3.53-4.36-2.52-5.7s3.77-1,6.18.85l13,9.75c2.41,1.81,3.53,4.37,2.52,5.71S89.34,76.12,86.93,74.31Z" transform="translate(-36.97 -11.13)"/><path class="cls-1" d="M171.22,74.31l13-9.76c2.4-1.8,3.53-4.36,2.52-5.7s-3.78-1-6.18.85l-13,9.75c-2.4,1.81-3.53,4.37-2.52,5.71S168.82,76.12,171.22,74.31Z" transform="translate(-36.97 -11.13)"/><path class="cls-1" d="M151.41,79.93a31.49,31.49,0,0,0-21.21-9.45v0H130l-.51,0-.62,0v0c-17,.73-30.66,15.12-30.68,32.6a32.76,32.76,0,0,0,6.48,19.74c6.41,8.64,9.28,14.18,9.28,24.12v3.61A3.41,3.41,0,0,0,117.3,154h24.43a3.42,3.42,0,0,0,3.39-3.45v-3.74c0-9.8,2.87-15.33,9.3-24a33.18,33.18,0,0,0-3-42.86Z" transform="translate(-36.97 -11.13)"/><path class="cls-4" d="M149,108.63a5.94,5.94,0,0,0-.31-10.54c-1.67-.91-1.79-1.2-1.33-3a3.8,3.8,0,0,0-2-4.45,3.93,3.93,0,0,0-5.87,1.91,1.82,1.82,0,0,1-2.42,1.16,1.68,1.68,0,0,1-.8-2.49,11.09,11.09,0,0,1,2.12-2.94c.85-.76.66-1.27,0-1.85-1.46-1.38-3.31-1.63-5.26-1.75V104.3a4.33,4.33,0,0,0,4.52-2.09,12,12,0,0,1,1.07-1.76,14.83,14.83,0,0,1,2.49-2.33,1.49,1.49,0,0,1,2.13.56,1.62,1.62,0,0,1-.23,2.18,19.09,19.09,0,0,0-2.19,2.76,7.91,7.91,0,0,1-6.57,4.14c-.38,0-.77.08-1.25.14v26.93h0l-.18,19v1.31l.65-.56,2.43,0,3.36-24.13c0-.1.05-.2.08-.3a35.38,35.38,0,0,1-3.13-2.24,1.68,1.68,0,0,1-.1-2.62,1.8,1.8,0,0,1,2.59.23,3,3,0,0,0,3.7.8,3.39,3.39,0,0,0,2-3.57c-.21,0-.43-.09-.65-.11-3.34-.24-5.65-1.75-6.67-5a4.4,4.4,0,0,0-1.06-1.59c-.94-1-1.12-1.8-.44-2.59a1.77,1.77,0,0,1,2.76,0,15.65,15.65,0,0,1,2.26,3.52,3.19,3.19,0,0,0,2.23,2,6.2,6.2,0,0,0,4.93-.84c2.14-1.43,2.33-4,.52-6.42C147.41,110.35,147.56,109.48,149,108.63Z" transform="translate(-36.97 -11.13)"/><path class="cls-4" d="M108.81,108.14c-4.83-2.43-4.64-8,.37-10.33,1.91-.89,2-1.16,1.52-2.94s.32-3.46,2.25-4.36c2.76-1.29,5.38-.57,6.76,1.87a2.22,2.22,0,0,0,2.79,1.14,1.56,1.56,0,0,0,.92-2.44A11,11,0,0,0,121,88.2c-1-.74-.76-1.25,0-1.82,1.68-1.35,3.82-1.59,6.06-1.71V103.9c-2.49.16-4-.44-5.2-2.05a12.47,12.47,0,0,0-1.23-1.72,16.35,16.35,0,0,0-2.87-2.28,1.89,1.89,0,0,0-2.46.55,1.44,1.44,0,0,0,.27,2.14,18.71,18.71,0,0,1,2.52,2.69,9.36,9.36,0,0,0,7.56,4.06c.45,0,.89.08,1.44.14v26.38h0l.21,18.58v1.28l-.75-.55h-2.79l-3.88-23.65-.09-.29a42.08,42.08,0,0,0,3.61-2.2,1.51,1.51,0,0,0,.12-2.56,2.31,2.31,0,0,0-3,.23,4,4,0,0,1-4.27.78,3.3,3.3,0,0,1-2.28-3.51c.24,0,.5-.08.76-.1,3.84-.23,6.49-1.71,7.67-4.86a4.29,4.29,0,0,1,1.22-1.56c1.08-.94,1.29-1.76.51-2.53a2.25,2.25,0,0,0-3.18,0,15.27,15.27,0,0,0-2.6,3.44,3.52,3.52,0,0,1-2.57,1.93,8.13,8.13,0,0,1-5.67-.82c-2.47-1.4-2.69-4-.6-6.28C110.65,109.83,110.47,109,108.81,108.14Z" transform="translate(-36.97 -11.13)"/><path class="cls-5" d="M145.22,150H113.81a3.57,3.57,0,0,0-3.45,3.69V167a3.88,3.88,0,0,0,.3,1.51l6.9,16.53a3.46,3.46,0,0,0,3.15,2.19h3.7c.61,1.79,3,3.14,5.93,3.14s5.31-1.35,5.92-3.14h2.06a3.45,3.45,0,0,0,3.15-2.19l6.9-16.53a3.88,3.88,0,0,0,.3-1.51V153.72A3.57,3.57,0,0,0,145.22,150Z" transform="translate(-36.97 -11.13)"/><path class="cls-4" d="M78.36,238.92a8.09,8.09,0,1,1-8.08-8A8.07,8.07,0,0,1,78.36,238.92Zm-2.19,0a5.9,5.9,0,1,0-5.89,5.88A5.87,5.87,0,0,0,76.17,238.92Z" transform="translate(-36.97 -11.13)"/><path class="cls-4" d="M96.05,246.83H93.86V239a5.89,5.89,0,1,0-11.77,0v7.85H79.9v-7.91a8.08,8.08,0,0,1,16.15.06Z" transform="translate(-36.97 -11.13)"/><path class="cls-4" d="M104.51,244.68a7.48,7.48,0,0,0,1.15.12,5.92,5.92,0,0,0,5.8-4.79h2.22a8.05,8.05,0,1,1-.47-4Zm-2.16-.91,8.2-8.15a6,6,0,0,0-4.89-2.56,5.89,5.89,0,0,0-5.91,5.86A5.82,5.82,0,0,0,102.35,243.77Z" transform="translate(-36.97 -11.13)"/><path class="cls-4" d="M123.24,231v10.26a3.62,3.62,0,0,0,7.24,0V231h2.22v10.26a3.63,3.63,0,0,0,7.25,0V231h2.19v10.26a5.82,5.82,0,0,1-10.53,3.36,5.84,5.84,0,0,1-10.56-3.39V231Z" transform="translate(-36.97 -11.13)"/><path class="cls-4" d="M159.86,238.92a8.09,8.09,0,1,1-8.08-8A8.07,8.07,0,0,1,159.86,238.92Zm-2.19,0a5.9,5.9,0,1,0-5.89,5.88A5.87,5.87,0,0,0,157.67,238.92Z" transform="translate(-36.97 -11.13)"/><path class="cls-4" d="M169.47,230.86V233a5.9,5.9,0,0,0-5.88,5.88v7.91H161.4v-7.91A8.09,8.09,0,0,1,169.47,230.86Z" transform="translate(-36.97 -11.13)"/><path class="cls-4" d="M171,228.77h2.19v10.15a5.91,5.91,0,0,0,5.89,5.88V247a8.07,8.07,0,0,1-8.08-8.06Z" transform="translate(-36.97 -11.13)"/><path class="cls-4" d="M196.81,228.74v10.18a8,8,0,1,1-2.19-5.5v-4.68Zm-8.08,4.32a5.87,5.87,0,1,0,5.89,5.86A5.89,5.89,0,0,0,188.73,233.06Z" transform="translate(-36.97 -11.13)"/></svg>