<?xml version="1.0" encoding="UTF-8" standalone="no"?>
<svg
   xmlns:dc="http://purl.org/dc/elements/1.1/"
   xmlns:cc="http://creativecommons.org/ns#"
   xmlns:rdf="http://www.w3.org/1999/02/22-rdf-syntax-ns#"
   xmlns:svg="http://www.w3.org/2000/svg"
   xmlns="http://www.w3.org/2000/svg"
   xmlns:sodipodi="http://sodipodi.sourceforge.net/DTD/sodipodi-0.dtd"
   xmlns:inkscape="http://www.inkscape.org/namespaces/inkscape"
   version="1.1"
   id="ic_staking_on"
   inkscape:version="1.0.1 (3bc2e813f5, 2020-09-07)"
   sodipodi:docname="img-empty-staking-on.svg"
   x="0px"
   y="0px"
   viewBox="0 0 100 100"
   style="enable-background:new 0 0 100 100;"
   xml:space="preserve"><metadata
   id="metadata36"><rdf:RDF><cc:Work
       rdf:about=""><dc:format>image/svg+xml</dc:format><dc:type
         rdf:resource="http://purl.org/dc/dcmitype/StillImage" /></cc:Work></rdf:RDF></metadata><defs
   id="defs34" />
<style
   type="text/css"
   id="style2">
	.st0{fill:#2EA1FF;}
	.st1{fill:#666666;}
	.st2{fill:#EFEFEF;}
</style>
<polygon
   class="st0"
   points="76.7,79.8 79.4,79.8 84.3,79.8 88.2,79 90.4,78.2 91.4,79.2 92,80.7 90.1,83 83.5,83.6 78.8,84.1   77.3,83.7 75.7,82.4 "
   id="polygon4"
   style="fill:#27cafc;fill-opacity:1" />
<path
   class="st0"
   d="M64.6,72l8.7-1l1-0.8l1.4,2.4l-3.5,1.9c0,0-4.8,1.7-5,1.5s-3.7-0.3-3.7-0.3"
   id="path6"
   style="fill:#27cafc;fill-opacity:1" />
<rect
   x="14"
   y="39"
   class="st0"
   width="50.6"
   height="36"
   id="rect8"
   style="fill:#0c1e2d;fill-opacity:1" />
<sodipodi:namedview
   bordercolor="#666666"
   borderopacity="1"
   gridtolerance="10"
   guidetolerance="10"
   id="namedview18"
   inkscape:current-layer="ic_staking_on"
   inkscape:cx="30.87669"
   inkscape:cy="44.608578"
   inkscape:pageopacity="0"
   inkscape:pageshadow="2"
   inkscape:window-height="2066"
   inkscape:window-width="3840"
   inkscape:zoom="7.6245493"
   objecttolerance="10"
   pagecolor="#ffffff"
   showgrid="false"
   inkscape:document-rotation="0"
   inkscape:window-x="3829"
   inkscape:window-y="-11"
   inkscape:window-maximized="1">
	</sodipodi:namedview>
<g
   id="Group_9018">
	<g
   id="Group_9016">
		<ellipse
   id="Ellipse_613"
   class="st0"
   cx="80"
   cy="56"
   rx="12"
   ry="4"
   style="fill:#0c1e2d;fill-opacity:1" />
		<ellipse
   id="Ellipse_614"
   class="st0"
   cx="64"
   cy="68"
   rx="12"
   ry="4"
   style="fill:#27cafc;fill-opacity:1" />
		<path
   id="Rectangle_4669"
   class="st0"
   d="M32,24h14v14H32V24z"
   style="fill:#27cafc;fill-opacity:1" />
	</g>
	<g
   id="Group_9017">
		<path
   id="Rectangle_4670"
   class="st1"
   d="M12,60h2v4h-2V60z" />
		<path
   id="Path_18975"
   class="st1"
   d="m 92,58 c 0.6,-0.5 0.9,-1.2 1,-2 0,-3.3 -6.5,-5 -13,-5 -6.5,0 -13,1.7 -13,5 0,0.8 0.4,1.5 1,2 -1.1,0.9 -1.3,2.5 -0.4,3.6 0.1,0.1 0.2,0.3 0.4,0.4 -0.3,0.3 -0.6,0.7 -0.8,1.2 -0.4,0 -0.8,-0.1 -1.2,-0.1 V 39 h 5 V 23 H 52.6 C 56.5,19.9 57.1,14.2 54,10.4 50.9,6.6 45.2,5.9 41.4,9 40.4,9.8 39.6,10.8 39,11.9 36.7,7.5 31.3,5.7 26.9,8 c -4.4,2.3 -6.2,7.7 -3.9,12.1 0.6,1.1 1.4,2.1 2.4,2.9 H 7 v 16 h 5 v 17 h 2 V 39 h 50 v 24 c -6.5,0 -13,1.7 -13,5 0,0.8 0.4,1.5 1,2 -1.1,0.9 -1.3,2.5 -0.4,3.6 0.1,0.1 0.2,0.3 0.4,0.4 -0.3,0.3 -0.6,0.6 -0.7,1 H 14 v -7 h -2 v 9 h 39.2 c 0.2,0.4 0.4,0.7 0.7,1 -1.1,0.9 -1.3,2.5 -0.4,3.6 0.1,0.1 0.2,0.3 0.4,0.4 -1.1,0.9 -1.3,2.5 -0.4,3.6 0.1,0.1 0.2,0.3 0.4,0.4 -0.6,0.5 -0.9,1.2 -1,2 0,3.3 6.5,5 13,5 5.9,0 11.8,-1.4 12.8,-4.2 1,0.1 2.1,0.2 3.2,0.2 6.5,0 13,-1.7 13,-5 0,-0.8 -0.4,-1.5 -1,-2 1.1,-0.9 1.3,-2.5 0.4,-3.6 C 92.2,78.3 92.1,78.1 91.9,78 93,77.1 93.2,75.5 92.3,74.4 92.2,74.3 92.1,74.1 91.9,74 93,73.1 93.2,71.5 92.3,70.4 92.2,70.3 92.1,70.1 91.9,70 93,69.1 93.2,67.5 92.3,66.4 92.2,66.3 92.1,66.1 91.9,66 93,65.1 93.2,63.5 92.3,62.4 92.2,62.3 92.1,62.1 91.9,62 93,61.1 93.2,59.5 92.3,58.4 92.3,58.2 92.2,58.1 92,58 Z M 31,37 H 9 V 25 H 31 Z M 24,16 c 0,-3.9 3.1,-7 7,-7 3.9,0 7,3.1 7,7 v 7 h -7 c -3.9,0 -7,-3.1 -7,-7 z M 45,37 H 33 V 25 H 45 Z M 40,23 v -7 c 0,-3.9 3.1,-7 7,-7 3.9,0 7,3.1 7,7 0,3.9 -3.1,7 -7,7 z m 7,14 V 25 h 22 v 12 z m 4,39 c 0,0.2 0,0.3 0.1,0.5 C 51,76.3 51,76.2 51,76 Z m 13,15 c -7.1,0 -11,-2 -11,-3 0,-0.2 0.2,-0.5 0.7,-0.8 2.5,1.2 6.4,1.8 10.3,1.8 3.9,0 7.8,-0.6 10.3,-1.8 0.4,0.3 0.7,0.6 0.7,0.8 0,1 -3.9,3 -11,3 z m 0,-4 c -7.1,0 -11,-2 -11,-3 0,-0.2 0.2,-0.5 0.7,-0.8 2.5,1.2 6.4,1.8 10.3,1.8 3.9,0 7.8,-0.6 10.3,-1.8 0.4,0.3 0.7,0.6 0.7,0.8 0,1 -3.9,3 -11,3 z m 0,-4 c -7.1,0 -11,-2 -11,-3 0,-0.2 0.2,-0.5 0.7,-0.8 2.5,1.2 6.4,1.8 10.3,1.8 3.9,0 7.8,-0.6 10.3,-1.8 0.4,0.3 0.7,0.6 0.7,0.8 0,1 -3.9,3 -11,3 z m 0,-4 c -7.1,0 -11,-2 -11,-3 0,-0.2 0.2,-0.5 0.7,-0.8 2.5,1.2 6.4,1.8 10.3,1.8 3.9,0 7.8,-0.6 10.3,-1.8 0.4,0.3 0.7,0.6 0.7,0.8 0,1 -3.9,3 -11,3 z m 0,-4 c -7.1,0 -11,-2 -11,-3 0,-0.2 0.2,-0.5 0.7,-0.8 2.5,1.2 6.4,1.8 10.3,1.8 3.9,0 7.8,-0.6 10.3,-1.8 0.4,0.3 0.7,0.6 0.7,0.8 0,0.797609 -2.481104,2.231399 -7.088117,2.779099 C 66.742869,74.918076 65.436974,75 64,75 Z m 0,-4 c -7.1,0 -11,-2 -11,-3 0,-1 3.9,-3 11,-3 7.1,0 11,2 11,3 0,1 -3.9,3 -11,3 z m 16,16 c -1.2,0 -2.3,-0.1 -3.3,-0.2 -0.2,-0.3 -0.4,-0.6 -0.6,-0.8 0.3,-0.3 0.6,-0.7 0.8,-1.2 1,0.1 2.1,0.2 3.2,0.2 3.9,0 7.8,-0.6 10.3,-1.8 0.4,0.3 0.7,0.6 0.7,0.8 -0.1,1 -4,3 -11.1,3 z m 0,-4 c -1.2,0 -2.3,-0.1 -3.3,-0.2 -0.2,-0.3 -0.4,-0.6 -0.6,-0.8 0.3,-0.3 0.6,-0.7 0.8,-1.2 1,0.1 2.1,0.2 3.2,0.2 3.9,0 7.8,-0.6 10.3,-1.8 0.4,0.3 0.7,0.6 0.7,0.8 -0.1,1 -4,3 -11.1,3 z m 0,-4 c -1.2,0 -2.3,-0.1 -3.3,-0.2 -0.2,-0.3 -0.4,-0.6 -0.6,-0.8 0.3,-0.3 0.6,-0.7 0.8,-1.2 1,0.1 2.1,0.2 3.2,0.2 3.9,0 7.8,-0.6 10.3,-1.8 0.4,0.3 0.7,0.6 0.7,0.8 -0.1,1 -4,3 -11.1,3 z m 0,-4 c -1.2,0 -2.3,-0.1 -3.3,-0.2 -0.2,-0.3 -0.4,-0.6 -0.6,-0.8 0.3,-0.3 0.6,-0.7 0.8,-1.2 1,0.1 2.1,0.2 3.2,0.2 3.9,0 7.8,-0.6 10.3,-1.8 0.4,0.3 0.7,0.6 0.7,0.8 -0.1,1 -4,3 -11.1,3 z m 0,-4 c -1.2,0 -2.3,-0.1 -3.3,-0.2 -0.2,-0.3 -0.4,-0.6 -0.6,-0.8 0.3,-0.3 0.6,-0.7 0.8,-1.2 1,0.1 2.1,0.2 3.2,0.2 3.9,0 7.8,-0.6 10.3,-1.8 0.4,0.3 0.7,0.6 0.7,0.8 -0.1,1 -4,3 -11.1,3 z m 0,-4 c -1.2,0 -2.3,-0.1 -3.3,-0.2 -0.6,-1.2 -2.2,-2.1 -4.2,-2.7 2.5,0.6 5,0.9 7.5,0.9 3.9,0 7.8,-0.6 10.3,-1.8 0.4,0.3 0.7,0.6 0.7,0.8 0,1 -3.9,3 -11,3 z m -10.6,-3.6 0.3,-0.3 c 0.6,0.3 1.2,0.5 1.8,0.7 -0.7,-0.1 -1.4,-0.3 -2.1,-0.4 z M 80,63 c -7.1,0 -11,-2 -11,-3 0,-0.2 0.2,-0.5 0.7,-0.8 2.5,1.2 6.4,1.8 10.3,1.8 3.9,0 7.8,-0.6 10.3,-1.8 0.4,0.3 0.7,0.6 0.7,0.8 0,1 -3.9,3 -11,3 z m 0,-4 c -7.1,0 -11,-2 -11,-3 0,-1 3.9,-3 11,-3 7.1,0 11,2 11,3 0,1 -3.9,3 -11,3 z"
   sodipodi:nodetypes="ccsscccccccccsccsccccccccccscccccccccccccccscssccccccccccccccccccssscssccccccsssscccccccccsscscsssscscsssscscsssscscsssscscssssssssscccsccsscccsccsscccsccsscccsccsscccsccssccscssccccsscscsssssss" />
	</g>
</g>

<path
   id="path850"
   style="fill:#27cafc;fill-opacity:1;fill-rule:nonzero;stroke:none;stroke-width:0.194391"
   d="m 38.760978,43.777796 c -0.06479,0 -0.192854,0.257664 -0.776022,2.007172 -0.323984,1.101541 -0.778564,2.268354 -0.908157,2.592336 -0.38878,0.907153 -0.971757,1.880254 -2.397281,4.018544 -1.425524,2.138285 -1.813448,2.851315 -2.202228,3.758467 -1.231135,2.786253 -0.649383,5.829805 1.424108,8.032887 0.971947,0.971948 2.397519,1.814881 3.693447,2.00927 0.194391,0 0.453475,0.06502 0.583067,0.06502 h 0.908157 c 1.684709,-0.06479 3.175639,-0.713342 4.471571,-2.00927 1.101541,-1.101543 1.813003,-2.396309 2.07219,-3.951427 0.129587,-0.583168 0.129587,-2.073962 0,-2.592335 -0.323984,-1.425525 -0.905972,-2.591156 -2.720275,-5.312612 -2.138286,-3.175038 -2.333712,-3.628365 -3.370457,-6.673805 -0.518373,-1.684711 -0.648526,-1.944251 -0.77812,-1.944251 z m -4.08146,10.690242 c 0,0 0.195497,2.22e-4 0.32509,0.06502 0.323983,0.129604 0.322993,0.130704 0.322993,0.325093 0,0.259185 0.194289,0.518711 0.583066,0.713101 0.129588,0.06479 0.323215,0.127946 0.388012,0.127946 0,0 0.06502,0.06568 0.06502,0.260074 0,0.259184 6.63e-4,0.323657 0.195054,0.518046 0.129587,0.129587 0.323659,0.260295 0.518048,0.325091 0.129587,0.06479 0.32509,0.128159 0.32509,0.192957 0,0 -0.3241,0.454803 -0.648083,0.973174 -0.518373,0.842356 -0.648085,1.036761 -0.648085,1.231151 0,0.712764 1.101453,1.164802 1.814216,0.776023 0.194389,-0.129588 0.387806,-0.387703 1.554143,-2.137209 0.712763,-1.101543 1.361408,-1.944252 1.426203,-1.944252 0,0 0.06502,0.193844 0.06502,0.45303 0.06479,0.712762 0.128832,0.841925 0.388011,1.101113 0.259187,0.194389 0.649193,0.32509 0.973175,0.32509 0.259186,0 0.583508,-0.130703 0.713104,-0.32509 0.129587,-0.129587 0.127945,-0.257326 0.127945,-1.294071 0,-0.971947 2.23e-4,-1.168007 0.06502,-1.103212 0.06479,0 0.258862,0.389562 0.518048,0.84314 0.712761,1.425524 0.972732,2.59213 0.843138,3.758468 -0.194389,1.555119 -0.777693,2.786738 -1.879233,3.823486 -0.907174,0.907136 -1.814249,1.424759 -3.045384,1.619148 -1.81431,0.259186 -3.49886,-0.323233 -4.859585,-1.619161 -0.842356,-0.842357 -1.359977,-1.686072 -1.619163,-2.852409 -0.194389,-0.58317 -0.259629,-1.944149 -0.13003,-2.527318 0.06479,-0.583169 0.389119,-1.489022 0.713102,-2.072192 0.259187,-0.58317 0.841262,-1.491443 0.906059,-1.55624 z m 1.231149,2.462299 c -0.19439,0 -0.712111,0.389563 -1.036096,0.843139 -1.101541,1.555119 -0.259937,3.822945 1.619161,4.276516 0.712762,0.194389 1.29651,0.1287 2.00927,-0.260072 0.907156,-0.38878 1.489126,-1.425332 1.489126,-2.397281 0,-0.259188 -0.06402,-0.388456 -0.388011,-0.518048 -0.323983,-0.194391 -0.388011,-0.06535 -0.388011,0.453029 0.06479,0.518372 -0.06591,0.777574 -0.325091,1.23115 -0.388779,0.583168 -1.036659,0.843139 -1.814216,0.843139 -0.777559,-0.06479 -1.490011,-0.51839 -1.749198,-1.231152 -0.194389,-0.323981 -0.195054,-0.454359 -0.195054,-0.843137 0,-0.453576 6.65e-4,-0.517281 0.195054,-0.906059 0.194391,-0.388781 0.517501,-0.71399 0.971078,-0.973175 0.06479,-0.06479 0.195053,-0.128159 0.195053,-0.192956 0,-0.129587 -0.388676,-0.325093 -0.583065,-0.325093 z" /></svg>
