<?xml version="1.0" encoding="UTF-8" standalone="no"?>
<svg
   id="Layer_1"
   data-name="Layer 1"
   viewBox="0 0 543.62001 398.26"
   version="1.1"
   width="543.62"
   height="398.26001"
   xmlns="http://www.w3.org/2000/svg"
   xmlns:svg="http://www.w3.org/2000/svg">
  <defs
     id="defs4">
    <style
       id="style2">.cls-1{fill:#8e1baa;}</style>
  </defs>
  <path
     class="cls-1"
     d="m 270.64,16 c 66.77,109.5 62.65,231.28 3.38,330.87 C 218.95,268.51 198.52,135.02 270.64,16 Z"
     id="path6" />
  <path
     class="cls-1"
     d="M 251.32,356.36 C 127.75,362.09 50.17,279.36 16,191.81 c 21.33,-5.4 42.6,-3.32 63.74,1 13.82,2.82 27.42,7 41.21,10.07 7.6,1.68 9.57,8.77 12.84,15.13 10.06,19.55 19.34,39.81 30.91,58.1 16.83,26.59 39.22,46.59 63.12,64.17 7.29,5.37 14.88,10.23 23.5,16.08 z"
     id="path8" />
  <path
     class="cls-1"
     d="m 123.13,63.88 c 25.79,14.36 49.78,30.42 69.65,53.68 6.16,7.21 12.95,13.85 18.32,21.78 2.47,3.64 2.94,9.75 3,14.77 0.33,17.67 0,35.36 0.12,53 0.16,23.51 5.4,46 12.72,67.49 7.86,23.16 17.48,45.51 25.39,65.81 C 167.5,293.81 112.4,186.39 123.13,63.88 Z"
     id="path10" />
  <path
     class="cls-1"
     d="m 293.56,340.15 c 7,-17.91 15,-35.14 20.51,-53.4 a 441.53,441.53 0 0 0 13.64,-60.49 c 2.73,-18 2.87,-36.57 3.6,-54.92 a 83.4,83.4 0 0 0 -1.74,-21.25 c -2,-8.77 2.14,-14.2 6.54,-19.08 11.49,-12.74 22.76,-26 35.46,-37 15,-13 31.45,-23.74 48,-36 10.24,146.08 -54.34,240.1 -126.01,282.14 z"
     id="path12" />
  <path
     class="cls-1"
     d="m 297.54,353.9 a 256.48,256.48 0 0 0 71.93,-64.48 c 17,-22.21 32.59,-46.08 41.07,-74.63 4.35,-14.65 15.22,-16.81 25.11,-19.77 19.37,-5.8 39,-10.67 59.3,-9.91 10.84,0.41 21.7,0.07 32.67,0.07 -28.03,87.04 -114.88,177.33 -230.08,168.72 z"
     id="path14" />
  <path
     class="cls-1"
     d="m 191.05,26.41 c 9.43,10.9 16.53,21 25.23,28.7 11.83,10.47 15,21.75 7.77,37.1 -2.26,4.8 -3.54,10.29 -4.85,15.61 -1.31,5.32 -2,10.56 -2.93,15.39 -11.32,-11.65 -22.36,-22.69 -33,-34.24 -2.13,-2.31 -4.31,-7 -3.77,-9.82 3.2,-16.75 7.19,-33.29 11.55,-52.74 z"
     id="path16" />
  <path
     class="cls-1"
     d="m 350.18,25.51 c 4.63,20.41 8.63,37.82 12.42,55.28 a 6.69,6.69 0 0 1 -1.22,5 c -11.67,12 -23.5,23.83 -35.14,35.56 -4.64,-15.07 -9.52,-30.75 -14.22,-46.5 a 5.67,5.67 0 0 1 0.94,-4.27 c 8.57,-10.24 17.32,-20.26 25.92,-30.47 3.39,-4 6.5,-8.34 11.3,-14.6 z"
     id="path18" />
  <path
     class="cls-1"
     d="m 56.86,119.91 c 13.72,4.61 27.35,9.65 41.2,13.67 7.48,2.18 11,5.86 11.94,15.49 1.24,12.58 4.91,24.84 7.64,37.75 L 67.81,176.04 C 63.7,159.6 58.98,140.68 54.25,121.77 Z"
     id="path20" />
  <path
     class="cls-1"
     d="m 487.6,119.03 c -3.87,17.24 -6.81,32.35 -10.89,47 -1,3.47 -5.5,6.95 -8.92,7.93 -13.3,3.79 -26.8,6.58 -40.23,9.7 a 7.83,7.83 0 0 1 -2.38,-0.2 c 2.6,-15 5.08,-29.82 7.9,-44.58 0.27,-1.4 2.64,-2.69 4.23,-3.23 16.15,-5.41 32.34,-10.7 50.29,-16.62 z"
     id="path22" />
  <rect
     class="cls-1"
     x="269.71002"
     y="66.009995"
     width="7.1999998"
     height="316.25"
     id="rect24" />
</svg>
