<svg id="Layer_1" data-name="Layer 1" xmlns="http://www.w3.org/2000/svg" viewBox="0 0 109.45 93.23"><defs><style>.cls-1{fill:#f4b400;}.cls-2{fill:#e50e28;}</style></defs><path class="cls-1" d="M62.71,17.39c-26,0-47.11,20.09-47.11,44.87a43.52,43.52,0,0,0,12,29.89l-.08,7.58-.11,10.88,9.48-5.35,4.93-2.78a48.81,48.81,0,0,0,20.91,4.66c26,0,47.11-20.09,47.11-44.88S88.73,17.39,62.71,17.39Z" transform="translate(-9.28 -17.39)"/><path class="cls-2" d="M18.4,77.5c.43-.37.84-.72,1.26-1.06a25.22,25.22,0,0,1,13.47-5.86,31.66,31.66,0,0,1,11.58,1.07,103.46,103.46,0,0,1,14.34,5.26,157.43,157.43,0,0,0,16.1,6.16A47.17,47.17,0,0,0,91.4,85.19c2.29-.14,4.54-.68,6.81-1a.43.43,0,0,1,.33,0l-6,2.84a107.62,107.62,0,0,1-15.85,6.3,41.27,41.27,0,0,1-13,1.78,31.12,31.12,0,0,1-13.66-3.87A76.26,76.26,0,0,1,39.2,83.66c-1.8-1.39-3.64-2.75-5.56-4a18.68,18.68,0,0,0-14.55-2.22l-.51.11S18.51,77.55,18.4,77.5Z" transform="translate(-9.28 -17.39)"/><path d="M112.83,76.51a64.64,64.64,0,0,1-15.34,4.34,39.24,39.24,0,0,1-13.83-.59,94.12,94.12,0,0,1-15.35-5.14C62.56,72.76,56.87,70.25,51,68.35a60.2,60.2,0,0,0-13.33-2.83,43,43,0,0,0-18.7,2.57C15.9,69.2,13,70.58,10,71.84c-.23.1-.46.22-.75.36A.9.9,0,0,1,9.34,72a61.14,61.14,0,0,1,11.13-9.55,34.56,34.56,0,0,1,21.38-5.54A49.23,49.23,0,0,1,55.72,60c5.81,2.21,11.56,4.59,17.3,7a141.38,141.38,0,0,0,21.23,7.45,69.05,69.05,0,0,0,12.46,1.87C108.78,76.4,110.85,76.44,112.83,76.51Z" transform="translate(-9.28 -17.39)"/><path class="cls-2" d="M118.72,65.66c-1.71.55-3.53,1.16-5.36,1.72a52,52,0,0,1-10,2.06,38.86,38.86,0,0,1-12-.67,71.05,71.05,0,0,1-13.25-4.41c-4.55-2-9-4-13.59-6A79.2,79.2,0,0,0,48.17,53,42.1,42.1,0,0,0,28,54,71.55,71.55,0,0,0,17.5,58c-.31.14-.63.26-1.12.46.18-.23.23-.31.3-.39a60.81,60.81,0,0,1,8.64-7.54,35.14,35.14,0,0,1,17.07-6.46,38.71,38.71,0,0,1,12.77,1.21,101.23,101.23,0,0,1,16.06,6c6.5,2.88,13,5.83,19.55,8.55a72.9,72.9,0,0,0,18.86,5.06C112.67,65.24,115.73,65.4,118.72,65.66Z" transform="translate(-9.28 -17.39)"/><path class="cls-2" d="M109.61,54.49a19,19,0,0,1-5.3,1.4,28.7,28.7,0,0,1-14.44-2.33c-5.16-2.12-10.22-4.5-15.3-6.82A93.71,93.71,0,0,0,57.8,40.48a41.39,41.39,0,0,0-27,2.22.71.71,0,0,1-.55,0c1.22-.93,2.42-1.87,3.64-2.78a49.71,49.71,0,0,1,16.93-8.42,39.7,39.7,0,0,1,29.84,3.31,42.39,42.39,0,0,1,9.25,7.2c2.57,2.45,5.09,5,7.74,7.3a19.93,19.93,0,0,0,9.44,4.8C107.82,54.3,108.62,54.36,109.61,54.49Z" transform="translate(-9.28 -17.39)"/></svg>