<?xml version="1.0" encoding="UTF-8" standalone="no"?>
<svg
   version="1.1"
   id="ic_empty_Dark_zpiv"
   x="0px"
   y="0px"
   viewBox="0 0 100 100"
   style="enable-background:new 0 0 100 100;"
   xml:space="preserve"
   sodipodi:docname="img-empty-privacy-dark.svg"
   inkscape:version="1.1 (c68e22c387, 2021-05-23)"
   xmlns:inkscape="http://www.inkscape.org/namespaces/inkscape"
   xmlns:sodipodi="http://sodipodi.sourceforge.net/DTD/sodipodi-0.dtd"
   xmlns="http://www.w3.org/2000/svg"
   xmlns:svg="http://www.w3.org/2000/svg"
   xmlns:rdf="http://www.w3.org/1999/02/22-rdf-syntax-ns#"
   xmlns:cc="http://creativecommons.org/ns#"
   xmlns:dc="http://purl.org/dc/elements/1.1/"><sodipodi:namedview
   pagecolor="#ffffff"
   bordercolor="#666666"
   borderopacity="1"
   objecttolerance="10"
   gridtolerance="10"
   guidetolerance="10"
   inkscape:pageopacity="0"
   inkscape:pageshadow="2"
   inkscape:window-width="3840"
   inkscape:window-height="2066"
   id="namedview24"
   showgrid="false"
   inkscape:zoom="10.39447"
   inkscape:cx="38.337693"
   inkscape:cy="42.330201"
   inkscape:window-x="3829"
   inkscape:window-y="-11"
   inkscape:window-maximized="1"
   inkscape:current-layer="g938"
   inkscape:document-rotation="0"
   inkscape:pagecheckerboard="0" /><metadata
   id="metadata34"><rdf:RDF><cc:Work
       rdf:about=""><dc:format>image/svg+xml</dc:format><dc:type
         rdf:resource="http://purl.org/dc/dcmitype/StillImage" /><dc:title /></cc:Work></rdf:RDF></metadata><defs
   id="defs32"><pattern
     id="EMFhbasepattern"
     patternUnits="userSpaceOnUse"
     width="6"
     height="6"
     x="0"
     y="0" /></defs>
<style
   type="text/css"
   id="style2">
	.st0{fill:#2EA1FF;}
	.st1{fill:#A09EA5;}
	.st2{fill:#EFEFEF;}
</style>

<g
   id="Group_9081">
	
	<g
   id="Group_9080">
		<g
   id="Group_9078">
			
			<path
   id="Rectangle_4744"
   class="st1"
   d="M83,56h2v4h-2V56z" />
			<path
   id="Rectangle_4745"
   class="st1"
   d="M83,44h2v8h-2V44z" />
			<path
   id="Rectangle_4746"
   class="st1"
   d="M15,48h2v8h-2V48z" />
			<path
   id="Rectangle_4747"
   class="st1"
   d="M15,40h2v4h-2V40z" />
			<path
   id="Path_19028"
   class="st1"
   d="M95.2,71H85v-7h-2v9h7.8L76,90.5L61.2,73H68v-2h-4.5c11.6-7.5,15-22.9,7.5-34.5     c-6.4-9.9-18.9-14-29.9-9.8L24,6.5L4.8,29H15v7h2v-9H9.2L24,9.5L38.8,27H32v2h4.5c-11.6,7.5-15,22.9-7.5,34.5     c6.4,9.9,18.9,14,29.9,9.8L76,93.5L95.2,71z M27,50c0-12.7,10.3-23,23-23s23,10.3,23,23S62.7,73,50,73S27,62.7,27,50z" />
		<g
   id="g938"
   transform="matrix(0.06237187,0,0,0.06237187,36.01772,35.579044)"><path
     class="cls-1"
     d="m 354.77228,263.07535 q -16.31148,-20.84717 -51.35722,-33.41178 44.11708,-25.35462 44.11708,-66.59812 0,-32.623 -26.34067,-56.82258 Q 294.85085,82.043304 252.87486,82.043304 H 211.51863 V -8.5572157 c 0,-1.29562 -4.28211,-2.3665203 -9.55022,-2.3665203 -5.26814,0 -9.46572,1.0423003 -9.46572,2.3383303 V 82.043334 h -28.17182 v -54.00534 c 0,-1.155 -4.28211,-2.05644 -9.55025,-2.05644 -5.26812,0 -9.46573,0.90137 -9.46573,2.02861 v 54.03337 h -33.60893 a 17.184802,17.184802 0 0 0 -11.49411,3.0709 11.268723,11.268723 0 0 0 0,16.311466 17.184802,17.184802 0 0 0 11.49411,3.07091 h 30.20013 v 267.97027 h -30.20013 a 17.184802,17.184802 0 0 0 -11.49411,3.07091 10.367225,10.367225 0 0 0 -3.465202,8.1417 10.479912,10.479912 0 0 0 3.465202,8.02892 16.677709,16.677709 0 0 0 11.49411,3.2115 h 33.63712 v 64.79511 c 0,1.12759 4.19761,2.02968 9.35303,2.02968 h 0.39473 c 5.12726,0 9.2685,-0.90201 9.2685,-1.9997 v -64.79561 h 28.17182 v 89.27652 c 0,1.26707 4.16943,2.30871 9.32488,2.30871 h 0.42246 c 5.09911,0 9.26854,-1.0144 9.26854,-2.28194 v -89.3048 h 68.06306 a 92.319009,92.319009 0 0 0 47.89209,-13.09984 88.938397,88.938397 0 0 0 32.76384,-31.69331 80.909429,80.909429 0 0 0 10.70526,-41.04631 72.993151,72.993151 0 0 0 -16.19883,-46.03273 z M 253.35379,104.49623 q 31.83411,0 51.61075,17.80456 19.77661,17.8046 19.72027,38.90532 a 53.01934,53.01934 0 0 1 -9.09947,28.87606 58.287468,58.287468 0 0 1 -25.35462,21.66411 113.89861,113.89861 0 0 1 -46.53988,9.35308 H 211.51863 V 104.49623 Z m -60.90744,0 V 221.09936 H 164.27456 V 104.49623 Z M 164.27456,372.46647 V 243.834 h 28.17179 V 372.46647 Z M 339.98207,339.0265 a 68.091258,68.091258 0 0 1 -24.34046,23.80518 71.894453,71.894453 0 0 1 -37.722,9.63479 H 211.51863 V 243.834 h 33.60897 q 37.15864,0 58.28746,8.2825 a 72.993151,72.993151 0 0 1 33.01739,24.34043 54.991365,54.991365 0 0 1 11.91667,33.15825 57.470488,57.470488 0 0 1 -8.28254,29.41132 z"
     id="path6"
     style="fill:#ececec;stroke:#eeeeee;stroke-width:13.524;stroke-miterlimit:4;stroke-dasharray:none;stroke-opacity:1" /></g></g>
	</g>
</g>


</svg>
