<?xml version="1.0" encoding="UTF-8" standalone="no"?>
<svg
   xmlns:dc="http://purl.org/dc/elements/1.1/"
   xmlns:cc="http://creativecommons.org/ns#"
   xmlns:rdf="http://www.w3.org/1999/02/22-rdf-syntax-ns#"
   xmlns:svg="http://www.w3.org/2000/svg"
   xmlns="http://www.w3.org/2000/svg"
   version="1.1"
   viewBox="0 0 100 100"
   height="100"
   width="100"
   id="ic_dark_staking_on">
  <metadata
     id="metadata20">
    <rdf:RDF>
      <cc:Work
         rdf:about="">
        <dc:format>image/svg+xml</dc:format>
        <dc:type
           rdf:resource="http://purl.org/dc/dcmitype/StillImage" />
        <dc:title></dc:title>
      </cc:Work>
    </rdf:RDF>
  </metadata>
  <defs
     id="defs4">
    <style
       id="style2"
       type="text/css">
            .cls-1{fill:#413d4a}.cls-2{fill:#a09ea5}.cls-3{fill:none}
        </style>
  </defs>
  <g
     id="Group_9051"
     data-name="Group 9051">
    <ellipse
       id="Ellipse_640"
       cx="12"
       cy="4"
       class="cls-1"
       data-name="Ellipse 640"
       rx="12"
       ry="4"
       transform="translate(68,52)"
       style="fill:#413d4a" />
    <ellipse
       id="Ellipse_641"
       cx="12"
       cy="4"
       class="cls-1"
       data-name="Ellipse 641"
       rx="12"
       ry="4"
       transform="translate(52,64)"
       style="fill:#413d4a" />
    <path
       id="Rectangle_4706"
       d="M 0,0 H 14 V 14 H 0 Z"
       class="cls-1"
       data-name="Rectangle 4706"
       transform="translate(32,24)"
       style="fill:#413d4a" />
  </g>
  <path
     style="fill:#a09ea5"
     data-name="Rectangle 4707"
     class="cls-2"
     d="m 12,60 h 2 v 4 h -2 z"
     id="Rectangle_4707" />
  <path
     style="fill:#a09ea5"
     data-name="Path 19001"
     class="cls-2"
     d="M 92.046,57.994 A 2.767,2.767 0 0 0 93,56 c 0,-3.283 -6.54,-5 -13,-5 -6.46,0 -13,1.717 -13,5 a 2.767,2.767 0 0 0 0.954,1.994 2.573,2.573 0 0 0 0,4 3.171,3.171 0 0 0 -0.774,1.151 Q 66.6,63.093 66,63.06 V 39 h 5 V 23 H 52.644 A 8.993,8.993 0 1 0 39,11.9 8.994,8.994 0 1 0 25.356,23 H 7 v 16 h 5 v 17 h 2 V 39 h 50 v 24 c -6.46,0 -13,1.717 -13,5 a 2.767,2.767 0 0 0 0.954,1.994 2.573,2.573 0 0 0 0,4 A 3.325,3.325 0 0 0 51.226,75 H 14 v -7 h -2 v 9 h 39.23 a 3.369,3.369 0 0 0 0.724,0.994 2.573,2.573 0 0 0 0,4 2.573,2.573 0 0 0 0,4 A 2.768,2.768 0 0 0 51,88 c 0,3.283 6.54,5 13,5 5.874,0 11.8,-1.424 12.826,-4.15 1.042,0.093 2.106,0.15 3.174,0.15 6.46,0 13,-1.717 13,-5 a 2.768,2.768 0 0 0 -0.954,-2.006 2.573,2.573 0 0 0 0,-4 2.573,2.573 0 0 0 0,-4 2.573,2.573 0 0 0 0,-4 2.573,2.573 0 0 0 0,-4 2.573,2.573 0 0 0 0,-4 2.573,2.573 0 0 0 0,-4 z M 31,37 H 9 V 25 H 31 Z M 24,16 a 7,7 0 0 1 14,0 v 7 H 31 A 7.008,7.008 0 0 1 24,16 Z M 45,37 H 33 V 25 H 45 Z M 40,23 v -7 a 7,7 0 1 1 7,7 z m 7,14 V 25 h 22 v 12 z m 4,39 A 2.311,2.311 0 0 0 51.061,76.515 2.2,2.2 0 0 1 51,76 Z M 64,91 C 56.883,91 53,89.018 53,88 53,87.759 53.247,87.461 53.678,87.151 56.179,88.37 60.1,89 64,89 67.9,89 71.821,88.37 74.322,87.151 74.753,87.461 75,87.759 75,88 c 0,1.018 -3.883,3 -11,3 z m 0,-4 C 56.883,87 53,85.018 53,84 53,83.759 53.247,83.461 53.678,83.151 56.179,84.37 60.1,85 64,85 67.9,85 71.821,84.37 74.322,83.151 74.753,83.461 75,83.759 75,84 c 0,1.018 -3.883,3 -11,3 z m 0,-4 C 56.883,83 53,81.018 53,80 53,79.759 53.247,79.461 53.678,79.151 56.179,80.37 60.1,81 64,81 67.9,81 71.821,80.37 74.322,79.151 74.753,79.461 75,79.759 75,80 c 0,1.018 -3.883,3 -11,3 z m 0,-4 C 56.883,79 53,77.018 53,76 53,75.759 53.247,75.461 53.678,75.151 56.179,76.37 60.1,77 64,77 67.9,77 71.821,76.37 74.322,75.151 74.753,75.461 75,75.759 75,76 c 0,1.018 -3.883,3 -11,3 z m 0,-4 C 56.883,75 53,73.018 53,72 53,71.759 53.247,71.461 53.678,71.151 56.179,72.37 60.1,73 64,73 67.9,73 71.821,72.37 74.322,71.151 74.753,71.461 75,71.759 75,72 c 0,1.018 -3.883,3 -11,3 z m 0,-4 c -7.117,0 -11,-1.982 -11,-3 0,-1.018 3.883,-3 11,-3 7.117,0 11,1.982 11,3 0,1.018 -3.883,3 -11,3 z m 16,16 c -1.207,0 -2.3,-0.068 -3.313,-0.168 a 3.446,3.446 0 0 0 -0.641,-0.838 3.219,3.219 0 0 0 0.781,-1.151 C 77.868,84.943 78.927,85 80,85 83.9,85 87.821,84.37 90.322,83.151 90.753,83.461 91,83.759 91,84 c 0,1.018 -3.883,3 -11,3 z m 0,-4 c -1.207,0 -2.3,-0.068 -3.313,-0.168 a 3.446,3.446 0 0 0 -0.641,-0.838 3.219,3.219 0 0 0 0.781,-1.151 C 77.868,80.943 78.927,81 80,81 83.9,81 87.821,80.37 90.322,79.151 90.753,79.461 91,79.759 91,80 c 0,1.018 -3.883,3 -11,3 z m 0,-4 c -1.207,0 -2.3,-0.068 -3.313,-0.168 a 3.446,3.446 0 0 0 -0.641,-0.838 3.219,3.219 0 0 0 0.781,-1.151 C 77.868,76.943 78.927,77 80,77 83.9,77 87.821,76.37 90.322,75.151 90.753,75.461 91,75.759 91,76 c 0,1.018 -3.883,3 -11,3 z m 0,-4 c -1.207,0 -2.3,-0.068 -3.313,-0.168 a 3.446,3.446 0 0 0 -0.641,-0.838 3.219,3.219 0 0 0 0.781,-1.151 C 77.868,72.943 78.927,73 80,73 83.9,73 87.821,72.37 90.322,71.151 90.753,71.461 91,71.759 91,72 c 0,1.018 -3.883,3 -11,3 z m 0,-4 c -1.207,0 -2.3,-0.068 -3.313,-0.168 a 3.446,3.446 0 0 0 -0.641,-0.838 3.219,3.219 0 0 0 0.781,-1.151 C 77.868,68.943 78.927,69 80,69 83.9,69 87.821,68.37 90.322,67.151 90.753,67.461 91,67.759 91,68 c 0,1.018 -3.883,3 -11,3 z m 0,-4 c -1.2,0 -2.287,-0.067 -3.3,-0.166 -0.621,-1.162 -2.175,-2.062 -4.213,-2.7 A 31.139,31.139 0 0 0 80,65 c 3.9,0 7.821,-0.63 10.322,-1.849 C 90.753,63.461 91,63.759 91,64 c 0,1.018 -3.883,3 -11,3 z M 69.368,63.417 a 2.722,2.722 0 0 1 0.31,-0.266 13.563,13.563 0 0 0 1.826,0.7 26.483,26.483 0 0 0 -2.136,-0.434 z M 80,63 C 72.883,63 69,61.018 69,60 69,59.759 69.247,59.461 69.678,59.151 72.179,60.37 76.1,61 80,61 83.9,61 87.821,60.37 90.322,59.151 90.753,59.461 91,59.759 91,60 c 0,1.018 -3.883,3 -11,3 z m 0,-4 c -7.117,0 -11,-1.982 -11,-3 0,-1.018 3.883,-3 11,-3 7.117,0 11,1.982 11,3 0,1.018 -3.883,3 -11,3 z"
     id="Path_19001" />
  <path
     data-name="Rectangle 4709"
     class="cls-3"
     d="M0 0h100v100H0z"
     id="Rectangle_4709" />
</svg>
