<svg id="Layer_1" data-name="Layer 1" xmlns="http://www.w3.org/2000/svg" viewBox="0 0 24 24"><defs><style>.cls-1{fill:none;}.cls-2{fill:#f4b400;}</style></defs><rect class="cls-1" width="24" height="24"/><path class="cls-2" d="M23.8,12h0A1.27,1.27,0,0,0,23,10.84L2.24,1.74A1.27,1.27,0,0,0,.7,2.13a1.26,1.26,0,0,0,0,1.58L7,12s0,0,0,.05L.68,20.34a1.29,1.29,0,0,0,0,1.59l.1.12a1.29,1.29,0,0,0,1.43.26L23,13.22A1.27,1.27,0,0,0,23.8,12ZM1.68,3s0,0,0-.05,0,0,.06,0L21.18,11.4H8.1C8.07,11.35,1.68,3,1.68,3Zm.05,18.22s0,0-.05,0,0,0,0,0,6.39-8.39,6.42-8.45H21.18Z"/></svg>