<?xml version="1.0" encoding="UTF-8" standalone="no"?>
<svg
   xmlns:dc="http://purl.org/dc/elements/1.1/"
   xmlns:cc="http://creativecommons.org/ns#"
   xmlns:rdf="http://www.w3.org/1999/02/22-rdf-syntax-ns#"
   xmlns:svg="http://www.w3.org/2000/svg"
   xmlns="http://www.w3.org/2000/svg"
   height="512"
   width="512"
   version="1.1"
   viewBox="0 0 511.99999 511.99999"
   data-name="Layer 1"
   id="Layer_1">
  <metadata
     id="metadata17">
    <rdf:RDF>
      <cc:Work
         rdf:about="">
        <dc:format>image/svg+xml</dc:format>
        <dc:type
           rdf:resource="http://purl.org/dc/dcmitype/StillImage" />
        <dc:title></dc:title>
      </cc:Work>
    </rdf:RDF>
  </metadata>
  <defs
     id="defs4">
    <style
       id="style2">.cls-1{fill:#231f20;}.cls-2{fill:none;stroke:#231f20;stroke-miterlimit:10;stroke-width:8px;}</style>
  </defs>
  <g
     id="g56">
    <ellipse
       style="fill:#ffffff;stroke-width:0.99130011"
       id="path48"
       ry="252.32298"
       rx="252.69241"
       cy="255.9827"
       cx="256.38675" />
    <g
       id="g23"
       transform="matrix(1.0556805,0,0,1.0382054,-0.10407808,-19.669707)">
      <path
         style="fill:#231f20"
         id="path6"
         d="m 91.07,342.36999 q -4.74,0 -6.86,-3.22 c -1.42,-2.14 -1.33,-4.86 0.25,-8.13 l 49.49,-94.57 H 79.21 q -7.8,0 -7.8,-7.29 0,-7.46 7.8,-7.45 h 66.6 a 9,9 0 0 1 6,1.95 6.85,6.85 0 0 1 2.29,5.5 16.08,16.08 0 0 1 -0.77,5.26 40.2,40.2 0 0 1 -2.12,4.91 l -50.33,97.28 q -2.86,5.76 -9.81,5.76 z"
         class="cls-1" />
      <path
         style="fill:#231f20"
         id="path8"
         d="m 213.51,342.66999 q -5.92,0 -8.58,-4 -2.66,-4 0.32,-10.17 l 61.86,-118.2 h -68.43 q -9.74,0 -9.74,-9.11 0,-9.32 9.74,-9.32 h 83.26 a 11.24,11.24 0 0 1 7.52,2.43 8.58,8.58 0 0 1 2.86,6.89 20.05,20.05 0 0 1 -1,6.57 52.94,52.94 0 0 1 -2.64,6.14 l -62.88,121.56 q -3.6,7.21 -12.29,7.21 z"
         class="cls-1" />
      <path
         style="fill:#231f20"
         id="path10"
         d="m 350.37,342.36999 c -3.17,0 -5.45,-1.07 -6.87,-3.22 -1.42,-2.15 -1.32,-4.86 0.26,-8.13 l 49.49,-94.57 H 338.5 q -7.8,0 -7.8,-7.29 0,-7.46 7.8,-7.45 h 66.6 a 8.94,8.94 0 0 1 6,1.95 6.81,6.81 0 0 1 2.29,5.5 16.09,16.09 0 0 1 -0.76,5.26 41.83,41.83 0 0 1 -2.12,4.91 l -50.33,97.28 q -2.87,5.76 -9.81,5.76 z"
         class="cls-1" />
      <ellipse
         style="fill:none;stroke:#231f20;stroke-width:8px;stroke-miterlimit:10"
         id="ellipse12"
         ry="242.60001"
         rx="238.97"
         cy="265.39999"
         cx="242.97"
         class="cls-2" />
    </g>
  </g>
</svg>
