<?xml version="1.0" encoding="UTF-8" standalone="no"?>
<svg
   xmlns:dc="http://purl.org/dc/elements/1.1/"
   xmlns:cc="http://creativecommons.org/ns#"
   xmlns:rdf="http://www.w3.org/1999/02/22-rdf-syntax-ns#"
   xmlns:svg="http://www.w3.org/2000/svg"
   xmlns="http://www.w3.org/2000/svg"
   width="48"
   height="48"
   viewBox="0 0 12.7 12.7"
   version="1.1"
   id="svg8">
  <defs
     id="defs2">
    <style
       id="style2">.cls-1{fill:#66f;}</style>
  </defs>
  <metadata
     id="metadata5">
    <rdf:RDF>
      <cc:Work
         rdf:about="">
        <dc:format>image/svg+xml</dc:format>
        <dc:type
           rdf:resource="http://purl.org/dc/dcmitype/StillImage" />
        <dc:title></dc:title>
      </cc:Work>
    </rdf:RDF>
  </metadata>
  <g
     id="layer1"
     transform="translate(0,-292.76667)">
    <g
       id="Layer_2"
       data-name="Layer 2"
       transform="matrix(0.75586285,0,0,0.74280173,0.20222026,293.38435)"
       style="fill:#00ffff;fill-opacity:1">
      <g
         id="g991"
         transform="matrix(0.0319519,0,0,0.0319519,-0.11635807,-0.33763473)"
         style="fill:#00ffff;fill-opacity:1;stroke:#000000;stroke-opacity:0">
        <rect
           rx="49.254005"
           ry="50.120861"
           style="fill:#22252e;stroke-width:0.4764851"
           y="-15.220064"
           x="-4.4931688"
           id="rect8"
           height="534.6225"
           width="525.3761"
           class="cls-1" />
        <g
           transform="matrix(0.87428052,0,0,0.87428052,31.618307,12.475129)"
           id="g832">
          <path
             d="m 37.148438,10.310547 a 11.713852,12.191991 0 0 0 -0.416016,0.01172 h -0.722656 v 0.816406 c 0.315233,-5.38e-4 0.630047,-0.0013 0.945312,-0.0039 0.320981,0.0068 0.675232,-0.0087 0.976563,0.09766 0.268575,0.126816 0.490289,0.377306 0.693359,0.585937 2.118477,2.290857 4.302753,4.519101 6.419922,6.808594 C 38.057574,25.958591 31.071334,33.293756 24.083984,40.630859 17.084409,33.296472 10.090863,25.954387 3.1035156,18.605469 c 2.0935841,-2.174951 4.1518426,-4.374873 6.2480469,-6.556641 0.3825575,-0.3709 0.7170585,-0.888231 1.3105465,-0.86914 1.102481,-0.01508 2.20946,-0.0055 3.316407,-0.0039 v -0.857422 h -0.677735 v 0.0039 h -1.853515 c -0.478197,0.0041 -0.975001,-0.03045 -1.441407,0.05273 -0.3039464,0.06136 -0.5533842,0.31149 -0.7656246,0.521484 C 7.2252577,13.01416 5.2160761,15.125314 3.2128906,17.253902 2.7923393,17.692979 2.3753489,18.1916 1.8945312,18.5625 v 0.05469 c 1.1083681,1.082702 2.1424437,2.240408 3.2246094,3.347656 6.3218014,6.64257 12.6494664,13.273638 18.9843754,19.892578 7.003944,-7.337105 14.00371,-14.67802 20.998046,-22.021484 0.393041,-0.404991 0.752585,-0.812694 1.179688,-1.183594 v -0.06445 c -0.396969,-0.353175 -0.751042,-0.756494 -1.111328,-1.146485 -2.096205,-2.207676 -4.204647,-4.407778 -6.289063,-6.625 -0.195208,-0.192268 -0.424041,-0.421209 -0.707031,-0.464844 a 11.713852,12.191991 0 0 0 -0.941406,-0.04101 11.713852,12.191991 0 0 0 -0.08398,0 z"
             transform="matrix(10.955263,0,0,11.147895,-4.7314113,-15.458223)"
             style="opacity:1;fill:#f0b900;fill-opacity:1;stroke:#f0b900;stroke-width:0.81;stroke-miterlimit:4;stroke-dasharray:none;stroke-opacity:1"
             id="path8" />
          <path
             d="m 12.884766,14.980469 c -0.655423,0.007 -1.318224,0.0669 -1.892578,0.40039 -0.522143,0.295819 -0.903464,0.835291 -1.304688,1.273438 -0.6128268,0.673966 -1.2670314,1.315439 -1.9238281,1.953125 0.9934393,1.067461 2.039265,2.100232 3.0546871,3.152344 4.418036,4.542404 8.844896,9.081292 13.28125,13.617187 5.44033,-5.582425 10.883217,-11.161345 16.328125,-16.736328 -0.818935,-0.893039 -1.704139,-1.719409 -2.517578,-2.595703 a 5.0839908,5.162882 0 0 0 -0.832031,-0.800781 c -0.311909,-0.207911 -0.73686,-0.197265 -1.099609,-0.207032 h -0.94336 v 0.857422 c 0.360173,0.0044 0.719674,0.0078 1.080078,0.0078 0.467178,-0.01256 0.709791,0.31272 1.017578,0.601562 0.674663,0.70885 1.361804,1.417548 2.048829,2.115235 -5.001549,5.185204 -10.066381,10.320374 -15.076172,15.5 C 19.407587,29.32602 14.740419,24.513798 10.050781,19.710925 9.7100178,19.360686 9.3275448,19.015693 9.0527344,18.615221 9.4251024,18.131027 9.906145,17.71548 10.318359,17.267565 c 0.406719,-0.403263 0.774716,-0.860139 1.222657,-1.21875 0.193741,-0.157677 0.418538,-0.136714 0.65625,-0.15625 0.972269,-0.02635 1.944675,-0.03401 2.917968,-0.03516 V 15 C 14.371597,14.98992 13.62926,14.98047 12.884766,14.98047 Z"
             transform="matrix(10.955263,0,0,11.147895,-4.7314113,-15.458223)"
             style="opacity:1;fill:#f0b900;fill-opacity:1;stroke:#f0b900;stroke-width:1;stroke-miterlimit:4;stroke-dasharray:none;stroke-opacity:1"
             id="path14" />
          <rect
             y="99.840103"
             x="219.90202"
             height="100.85415"
             width="102.88555"
             id="rect993"
             style="fill:none;fill-opacity:1;stroke:#f0b900;stroke-width:18.78697014;stroke-miterlimit:4;stroke-dasharray:none;stroke-opacity:1" />
          <rect
             transform="matrix(0.55524729,-0.8316853,0.82257929,0.56865044,0,0)"
             y="347.22757"
             x="-79.677498"
             height="10.819735"
             width="70.781349"
             id="rect1007"
             style="fill:#1a1a1a;fill-opacity:1;stroke:#f0b900;stroke-width:13.26226139;stroke-miterlimit:4;stroke-dasharray:none;stroke-opacity:1" />
        </g>
      </g>
    </g>
  </g>
</svg>
